<svg width="319" height="320" xmlns="http://www.w3.org/2000/svg" xml:space="preserve" version="1.1">

 <g>
  <title>Layer 1</title>
  <g stroke="null" id="svg_1">
   <path stroke="null" id="svg_2" fill="#FFD679" d="m159.39895,109.17935c-27.88153,0 -50.5758,22.69427 -50.5758,50.5758c0,27.88153 22.69427,50.5758 50.5758,50.5758c27.88153,0 50.5758,-22.69427 50.5758,-50.5758c0.1621,-27.88153 -22.53217,-50.5758 -50.5758,-50.5758z" class="st0"/>
   <path stroke="null" id="svg_3" fill="#FFD679" d="m39.44353,78.05578c10.21242,0 19.77643,-4.05255 27.07102,-11.18503c7.29459,-7.29459 11.18503,-16.8586 11.18503,-27.07102c0,-21.07325 -17.1828,-38.25605 -38.25605,-38.25605c-21.07325,0 -38.25605,17.1828 -38.25605,38.25605c0,21.07325 17.1828,38.25605 38.25605,38.25605zm0,-60.13981c11.99554,0 21.72166,9.72612 21.72166,21.72166c0,11.67134 -10.05032,21.72166 -21.72166,21.72166c-11.99554,0 -21.72166,-9.72612 -21.72166,-21.72166c0,-11.99554 9.72612,-21.72166 21.72166,-21.72166z" class="st0"/>
   <path stroke="null" id="svg_4" fill="#FFD679" d="m279.51647,78.05578c10.53662,0 20.10064,-4.21465 27.07102,-11.18503c6.97038,-6.97038 11.18503,-16.5344 11.18503,-27.07102c0,-21.07325 -17.1828,-38.25605 -38.25605,-38.25605s-38.25605,17.1828 -38.25605,38.25605s17.1828,38.25605 38.25605,38.25605zm-15.39968,-53.65573c3.89045,-3.89045 9.40191,-6.32197 15.39968,-6.32197c11.99554,0 21.72166,9.72612 21.72166,21.72166c0,11.99554 -9.72612,21.72166 -21.72166,21.72166c-11.99554,0 -21.72166,-9.72612 -21.72166,-21.72166c0,-6.15987 2.43153,-11.50924 6.32197,-15.39968z" class="st0"/>
   <path stroke="null" id="svg_5" fill="#FFD679" d="m159.39895,78.05578c10.53662,0 20.10064,-4.21465 27.07102,-11.18503c6.97038,-6.97038 11.18503,-16.5344 11.18503,-27.07102c0,-10.21242 -4.05255,-19.77643 -11.18503,-27.07102c-7.29459,-7.29459 -16.8586,-11.18503 -27.07102,-11.18503c-21.07325,0 -38.25605,17.1828 -38.25605,38.25605c0,21.07325 17.1828,38.25605 38.25605,38.25605zm0,-60.13981c5.83567,0 11.34713,2.26943 15.39968,6.32197c4.05255,4.05255 6.32197,9.56401 6.32197,15.39968c0,11.99554 -9.72612,21.72166 -21.72166,21.72166c-11.99554,0 -21.72166,-9.72612 -21.72166,-21.72166c0,-11.99554 9.72612,-21.72166 21.72166,-21.72166z" class="st0"/>
   <path stroke="null" id="svg_6" fill="#FFD679" d="m39.44353,121.4991c-10.21242,0 -19.77643,4.05255 -27.07102,11.18503c-7.29459,7.29459 -11.18503,16.8586 -11.18503,27.07102c0,10.21242 4.05255,19.77643 11.18503,27.07102c7.29459,7.29459 16.8586,11.18503 27.07102,11.18503c10.21242,0 19.77643,-4.05255 27.07102,-11.18503s11.18503,-16.8586 11.18503,-27.07102c0,-21.07325 -17.1828,-38.25605 -38.25605,-38.25605zm0,59.97771c-5.83567,0 -11.34713,-2.26943 -15.39968,-6.32197c-4.05255,-4.05255 -6.32197,-9.56401 -6.32197,-15.39968c0,-5.83567 2.26943,-11.34713 6.32197,-15.39968c4.05255,-4.05255 9.56401,-6.32197 15.39968,-6.32197c11.99554,0 21.72166,9.72612 21.72166,21.72166c0,11.67134 -10.05032,21.72166 -21.72166,21.72166z" class="st0"/>
   <path stroke="null" id="svg_7" fill="#FFD679" d="m279.51647,121.4991c-21.07325,0 -38.25605,17.1828 -38.25605,38.25605c0,21.07325 17.1828,38.25605 38.25605,38.25605c10.53662,0 20.10064,-4.21465 27.07102,-11.18503c6.97038,-6.97038 11.18503,-16.5344 11.18503,-27.07102c0,-10.21242 -4.05255,-19.77643 -11.18503,-27.07102c-7.29459,-7.29459 -16.8586,-11.18503 -27.07102,-11.18503zm0,59.97771c-11.99554,0 -21.72166,-9.72612 -21.72166,-21.72166c0,-11.99554 9.72612,-21.72166 21.72166,-21.72166c5.83567,0 11.34713,2.26943 15.39968,6.32197c4.05255,4.05255 6.32197,9.56401 6.32197,15.39968c0,11.99554 -9.72612,21.72166 -21.72166,21.72166z" class="st0"/>
   <path stroke="null" id="svg_8" fill="#FFD679" d="m39.44353,241.45452c-10.21242,0 -19.77643,4.05255 -27.07102,11.18503c-7.29459,7.29459 -11.18503,16.8586 -11.18503,27.07102c0,10.21242 4.05255,19.77643 11.18503,27.07102c7.29459,7.29459 16.8586,11.18503 27.07102,11.18503c10.53662,0 20.10064,-4.21465 27.07102,-11.18503c6.97038,-6.97038 11.18503,-16.5344 11.18503,-27.07102c0,-21.07325 -17.1828,-38.25605 -38.25605,-38.25605zm0,60.13981c-5.83567,0 -11.34713,-2.26943 -15.39968,-6.32197s-6.32197,-9.56401 -6.32197,-15.39968c0,-5.83567 2.26943,-11.34713 6.32197,-15.39968c4.05255,-4.05255 9.56401,-6.32197 15.39968,-6.32197c11.99554,0 21.72166,9.72612 21.72166,21.72166c0,11.83344 -9.72612,21.72166 -21.72166,21.72166z" class="st0"/>
   <path stroke="null" id="svg_9" fill="#FFD679" d="m279.51647,241.45452c-21.07325,0 -38.25605,17.1828 -38.25605,38.25605c0,21.07325 17.1828,38.25605 38.25605,38.25605c10.21242,0 19.77643,-4.05255 27.07102,-11.18503c7.29459,-7.29459 11.18503,-16.8586 11.18503,-27.07102c0,-21.07325 -17.1828,-38.25605 -38.25605,-38.25605zm0,60.13981c-11.99554,0 -21.72166,-9.72612 -21.72166,-21.72166c0,-5.99777 2.43153,-11.50924 6.32197,-15.39968c3.89045,-3.89045 9.40191,-6.32197 15.39968,-6.32197c11.99554,0 21.72166,9.72612 21.72166,21.72166c0,11.50924 -10.05032,21.72166 -21.72166,21.72166z" class="st0"/>
   <path stroke="null" id="svg_10" fill="#FFD679" d="m159.39895,241.45452c-10.21242,0 -19.77643,4.05255 -27.07102,11.18503c-7.29459,7.29459 -11.18503,16.8586 -11.18503,27.07102c0,10.21242 4.05255,19.77643 11.18503,27.07102c7.29459,7.29459 16.8586,11.18503 27.07102,11.18503c10.21242,0 19.77643,-4.05255 27.07102,-11.18503c7.29459,-7.29459 11.18503,-16.8586 11.18503,-27.07102c0.1621,-21.07325 -17.0207,-38.25605 -38.25605,-38.25605zm0,60.13981c-5.83567,0 -11.34713,-2.26943 -15.39968,-6.32197c-4.05255,-4.05255 -6.32197,-9.56401 -6.32197,-15.39968s2.26943,-11.34713 6.32197,-15.39968c4.05255,-4.05255 9.56401,-6.32197 15.39968,-6.32197c11.99554,0 21.72166,9.72612 21.72166,21.72166c0.1621,11.50924 -10.05032,21.72166 -21.72166,21.72166z" class="st0"/>
  </g>
 </g>
</svg>