<svg width="169" height="169" xmlns="http://www.w3.org/2000/svg" version="1.1" xml:space="preserve">
 <defs>
  <linearGradient id="SVGID_1_" x1="-0.00029" y1="0.49976" x2="1" y2="0.49976">
   <stop offset="0" stop-color="#93B7EE"/>
   <stop offset="1" stop-color="#88B2EB"/>
  </linearGradient>
  <linearGradient id="SVGID_00000120520757005110121560000013750717635528973207_" x1="-0.00018" y1="0.49973" x2="0.99935" y2="0.49973">
   <stop offset="0" stop-color="#93B7EE"/>
   <stop offset="1" stop-color="#88B2EB"/>
  </linearGradient>
  <linearGradient id="SVGID_00000132804212618504337970000005153112289461223859_" x1="0.00451" y1="0.50446" x2="0.9985" y2="0.50446">
   <stop offset="0" stop-color="#93B7EE"/>
   <stop offset="1" stop-color="#88B2EB"/>
  </linearGradient>
 </defs>
<path class="st0" d="m111.19474,140.03684l25.3,-25.3l-22.3,0l-29.7,-57.4l-29.6,57.4l-22.2,0l25.3,25.3l53.2,0zm-26.6,-57.3c2.3,0 4.6,0.6 6.5,1.6c2.3,1.3 4.2,3.2 5.5,5.5c1.1,1.9 1.6,4.1 1.6,6.5c0,7.5 -6.1,13.6 -13.6,13.6c-7.5,0 -13.6,-6.1 -13.6,-13.6c0,-7.5 6.1,-13.6 13.6,-13.6z" fill="url(#SVGID_1_)" id="svg_3"/>
<path d="m46.09474,0.43684l-45.6,45.7l0,76.9l45.7,45.7l76.9,0l45.7,-45.6l0,-77l-45.7,-45.7l-77,0zm113.4,88.1l-19.4,0l0,-30.6l-28.9,-28.9l-53.2,0l-28.9,28.9l0,36.9l13.7,0l24.5,-47.4c3.4,-6.5 9.9,-10.5 17.3,-10.5c7.3,0 13.9,4 17.3,10.5l24.5,47.4l33.2,0l0,24.3l-40.3,40.3l-69.4,0l-40.3,-40.3l0,-69.3l40.3,-40.2l69.3,0l40.3,40.3l0,38.6l0,0z" fill="url(#SVGID_00000120520757005110121560000013750717635528973207_)" id="svg_5"/>
<path d="m158.79474,13.03684c0,-0.5 0.2,-0.8 0.5,-1.2c0.1,-0.1 0.1,-0.2 0.2,-0.2l5.7,-1.4c0.3,0 0.6,-0.1 0.8,-0.2c0.6,-0.1 1.1,-0.4 1.5,-0.9c0.4,-0.4 0.7,-0.9 0.9,-1.5c0.2,-0.6 0.3,-1.4 0.3,-2.3c0,-0.9 -0.1,-1.7 -0.3,-2.3c-0.1,-0.6 -0.4,-1 -0.9,-1.5c-0.4,-0.4 -0.9,-0.7 -1.5,-0.9c-0.6,-0.2 -1.4,-0.3 -2.3,-0.3l-3.3,0c-0.9,0 -1.7,0.1 -2.3,0.3c-0.6,0.1 -1.1,0.4 -1.5,0.9c-0.4,0.4 -0.7,0.9 -0.9,1.5c-0.2,0.6 -0.3,1.4 -0.3,2.3l0,0.8l3.3,0l0,-1.2c0,-0.5 0.2,-0.8 0.5,-1.2c0.3,-0.3 0.7,-0.5 1.2,-0.5l3.3,0c0.4,0 0.8,0.2 1.2,0.5s0.5,0.7 0.5,1.2l0,1c0,0.5 -0.2,0.8 -0.5,1.2c-0.1,0.1 -0.2,0.2 -0.2,0.2l-5.7,1.4c-0.3,0 -0.6,0.1 -0.8,0.2c-0.6,0.1 -1.1,0.4 -1.5,0.9c-0.4,0.4 -0.7,0.9 -0.9,1.5c-0.2,0.6 -0.3,1.4 -0.3,2.3l0,3.5l13.2,0l0,-2.9l-9.9,0l0,-1.2l0,0z" fill="url(#SVGID_00000132804212618504337970000005153112289461223859_)" id="svg_7"/>
</svg>