<?xml version="1.0" encoding="utf-8"?>
<!-- Generator: Adobe Illustrator 26.0.2, SVG Export Plug-In . SVG Version: 6.00 Build 0)  -->
<svg version="1.1" id="Layer_1" xmlns="http://www.w3.org/2000/svg" xmlns:xlink="http://www.w3.org/1999/xlink" x="0px" y="0px"
	 viewBox="0 0 297.8 262.5" style="enable-background:new 0 0 297.8 262.5;" xml:space="preserve">
<style type="text/css">
	.st0{fill:url(#SVGID_1_);}
	.st1{fill:url(#SVGID_00000084510310528738675530000001400711771628972991_);}
	.st2{fill:url(#SVGID_00000166635771457060816790000015314185817436473233_);}
</style>
<g>
	<g>
		<linearGradient id="SVGID_1_" gradientUnits="userSpaceOnUse" x1="95.77" y1="145.13" x2="199.6" y2="145.13">
			<stop  offset="0" style="stop-color:#93B7EE"/>
			<stop  offset="1" style="stop-color:#88B2EB"/>
		</linearGradient>
		<path class="st0" d="M174.3,186.5l25.3-25.3h-22.3l-29.7-57.4L118,161.2H95.8l25.3,25.3H174.3z M147.7,129.2
			c2.3,0,4.6,0.6,6.5,1.6c2.3,1.3,4.2,3.2,5.5,5.5c1.1,1.9,1.6,4.1,1.6,6.5c0,7.5-6.1,13.6-13.6,13.6c-7.5,0-13.6-6.1-13.6-13.6
			C134.1,135.3,140.2,129.2,147.7,129.2z"/>
	</g>
	<g>
		
			<linearGradient id="SVGID_00000120520757005110121560000013750717635528973207_" gradientUnits="userSpaceOnUse" x1="63.57" y1="131.005" x2="231.79" y2="131.005">
			<stop  offset="0" style="stop-color:#93B7EE"/>
			<stop  offset="1" style="stop-color:#88B2EB"/>
		</linearGradient>
		<path style="fill:url(#SVGID_00000120520757005110121560000013750717635528973207_);" d="M109.2,46.9L63.6,92.6v76.9l45.7,45.7
			h76.9l45.7-45.6V92.6l-45.7-45.7H109.2z M222.6,135h-19.4v-30.6l-28.9-28.9h-53.2l-28.9,28.9v36.9h13.7l24.5-47.4
			c3.4-6.5,9.9-10.5,17.3-10.5c7.3,0,13.9,4,17.3,10.5l24.5,47.4h33.2v24.3l-40.3,40.3H113l-40.3-40.3V96.3L113,56.1h69.3l40.3,40.3
			L222.6,135L222.6,135z"/>
	</g>
	<g>
		
			<linearGradient id="SVGID_00000132804212618504337970000005153112289461223859_" gradientUnits="userSpaceOnUse" x1="218.56" y1="55.275" x2="231.78" y2="55.275">
			<stop  offset="0" style="stop-color:#93B7EE"/>
			<stop  offset="1" style="stop-color:#88B2EB"/>
		</linearGradient>
		<path style="fill:url(#SVGID_00000132804212618504337970000005153112289461223859_);" d="M221.9,59.5c0-0.5,0.2-0.8,0.5-1.2
			c0.1-0.1,0.1-0.2,0.2-0.2l5.7-1.4c0.3,0,0.6-0.1,0.8-0.2c0.6-0.1,1.1-0.4,1.5-0.9c0.4-0.4,0.7-0.9,0.9-1.5
			c0.2-0.6,0.3-1.4,0.3-2.3c0-0.9-0.1-1.7-0.3-2.3c-0.1-0.6-0.4-1-0.9-1.5c-0.4-0.4-0.9-0.7-1.5-0.9c-0.6-0.2-1.4-0.3-2.3-0.3h-3.3
			c-0.9,0-1.7,0.1-2.3,0.3c-0.6,0.1-1.1,0.4-1.5,0.9c-0.4,0.4-0.7,0.9-0.9,1.5c-0.2,0.6-0.3,1.4-0.3,2.3v0.8h3.3v-1.2
			c0-0.5,0.2-0.8,0.5-1.2c0.3-0.3,0.7-0.5,1.2-0.5h3.3c0.4,0,0.8,0.2,1.2,0.5s0.5,0.7,0.5,1.2v1c0,0.5-0.2,0.8-0.5,1.2
			c-0.1,0.1-0.2,0.2-0.2,0.2l-5.7,1.4c-0.3,0-0.6,0.1-0.8,0.2c-0.6,0.1-1.1,0.4-1.5,0.9c-0.4,0.4-0.7,0.9-0.9,1.5
			c-0.2,0.6-0.3,1.4-0.3,2.3v3.5h13.2v-2.9h-9.9L221.9,59.5L221.9,59.5z"/>
	</g>
</g>
</svg>
