<?xml version="1.0" encoding="UTF-8"?>
<svg id="Camada_2" data-name="Camada 2" xmlns="http://www.w3.org/2000/svg" viewBox="0 0 541.75 259.74">
  <g id="Camada_2-2" data-name="Camada 2">
    <g id="Camada_1-2" data-name="Camada 1-2">
      <g>
        <path  fill="rgb(130, 136, 145)" d="m392.58,258.93c3.64-3.4,7.11-6.22,10.07-9.51,3.89-4.32,7.33-9.05,11.05-13.53,7.22-8.69,14.55-17.29,21.75-26,6.61-8,13.07-16.12,19.68-24.12,9.65-11.66,19.33-23.29,29.07-34.87,4.66-5.54,9.51-10.94,14.25-16.42,1.76-2.04,1.72-3.43.03-5.46-12.14-14.67-24.32-29.32-36.4-44.04-15.33-18.68-30.51-37.48-45.91-56.1-6.7-8.1-13.8-15.87-20.67-23.82-.95-1.1-1.68-2.4-2.89-4.15,2.2-.35,3.9-.86,5.59-.86,18.85-.06,37.71-.09,56.56.05,1.59.01,3.58.87,4.68,2.02,2.99,3.12,5.56,6.64,8.36,9.94,6.48,7.64,13.07,15.19,19.47,22.9,4.72,5.68,9.13,11.63,13.84,17.33,7.73,9.37,15.62,18.62,23.37,27.97,4.4,5.31,8.71,10.69,12.96,16.11,2.27,2.9,3.02,6.33,3.15,10,.34,9.65,1.13,19.3,1.16,28.95.03,7.72-.66,15.46-1.28,23.18-.33,4.12-2.77,7.41-5.25,10.55-5.37,6.81-10.71,13.64-16.22,20.34-5.15,6.25-10.58,12.27-15.75,18.5-6.49,7.82-12.84,15.76-19.25,23.64-5.96,7.33-11.9,14.68-17.89,21.99-2.47,3.01-5.59,5.04-9.45,5.81-.97.19-1.97.3-2.96.3-18.43.02-36.85.03-55.28-.02-1.89,0-3.79-.42-5.84-.66v-.02Z"/>
        <path fill="rgb(130, 136, 145)" d="m148.19,259.23c-1.77.13-3.55.36-5.32.37-7.54.04-15.08.02-22.62.03-10.53,0-21.06-.27-31.58.1-7.11.25-12.1-2.87-16.28-8.05-10.89-13.49-21.66-27.08-32.66-40.48-10.37-12.63-20.9-25.12-31.52-37.54-5.2-6.08-7.66-12.99-7.72-20.91-.1-14.08-.14-28.15-.48-42.22-.21-8.82,3.28-15.97,8.76-22.48,9.93-11.79,19.83-23.6,29.7-35.45,9.32-11.19,18.63-22.4,27.83-33.68,4.26-5.22,8.36-10.58,12.34-16.01C80.1.92,81.74,0,84.16,0c19.49.04,38.98.02,58.47.05,1.47,0,2.95.27,5,.47-1.96,2.71-3.55,5.19-5.42,7.43-7.09,8.51-14.28,16.94-21.41,25.42-7.81,9.3-15.63,18.6-23.36,27.97-6.42,7.78-12.7,15.69-19.09,23.49-9.15,11.15-18.31,22.29-27.54,33.37-3.45,4.14-7.07,8.14-10.68,12.14-1.02,1.13-.27,1.75.38,2.51,4.05,4.76,8.11,9.52,12.14,14.29,9.37,11.06,18.79,22.07,28.06,33.21,5,6.01,9.6,12.35,14.58,18.38,5.7,6.9,11.7,13.54,17.42,20.42,5,6.01,9.8,12.18,14.66,18.3,5.3,6.68,10.63,13.34,17.31,18.74,1.09.88,2.34,1.54,3.52,2.3,0,.25,0,.5-.02.75h0Z"/>
        <path fill="rgb(130, 136, 145)" d="m194.38,152.12c.24-.45.51-.95.77-1.45,13.81-26.73,27.64-53.46,41.43-80.2,2.75-5.33,6.54-9.66,11.69-12.77,14.61-8.81,34.4-4.17,42.9,11.84,4.23,7.96,8.3,16.01,12.44,24.01,9.88,19.12,19.75,38.24,29.63,57.36.13.25.28.5.39.76.17.39.45.54.86.52.36-.02.73,0,1.1,0,16.86,0,33.72,0,50.59.04h1.56c-7.18,52.52-55.06,104.12-121.71,105.2-71.44,1.15-130.13-58.09-127.15-130.58C141.72,57.59,200.79,2.87,271.25,6.92c70.3,4.04,120.92,64.23,118.13,129.28-.85.26-26.9.35-28.76.09.66-27.35-8.12-51.18-27.05-71.06-12.2-12.82-26.96-21.55-44.05-26.21-17.04-4.66-34.15-4.71-51.14.1-52.18,14.76-79.01,66.85-68.54,113h24.54Zm17.5,28.91h-30.6c15.18,26.83,49.54,51.8,93.75,46.9,19.56-2.17,36.81-9.83,51.79-22.58,7.72-6.57,19.23-20.51,20.11-24.2h-30.61c-.27-.57-.52-1.03-.76-1.5-16.45-31.85-32.9-63.71-49.35-95.56-.15-.29-.28-.59-.45-.86-.78-1.26-2.41-1.26-3.19,0-.21.34-.38.72-.57,1.08-16.44,31.81-32.89,63.62-49.33,95.43-.22.43-.46.85-.78,1.29h0Z"/>
        <path fill="rgb(130, 136, 145)" d="m264.12,170.75c-10.39.03-18.87-8.39-18.91-18.76-.04-10.53,8.43-19.05,18.94-19.02,10.34.03,18.84,8.59,18.8,18.93s-8.41,18.82-18.83,18.85h0Z"/>
      </g>
    </g>
  </g>
</svg>