<?xml version="1.0" encoding="utf-8"?>
<!-- Generator: Adobe Illustrator 26.0.3, SVG Export Plug-In . SVG Version: 6.00 Build 0)  -->
<svg version="1.1" id="Layer_1" xmlns="http://www.w3.org/2000/svg" xmlns:xlink="http://www.w3.org/1999/xlink" x="0px" y="0px"
	 viewBox="0 0 297.8 262.52" style="enable-background:new 0 0 297.8 262.52;" xml:space="preserve">
<g>
	<g>
		<path d="M174.29,186.51l25.31-25.31h-22.26l-29.66-57.45l-29.7,57.45H95.77l25.31,25.31H174.29z M147.69,129.18
			c2.34,0,4.56,0.6,6.49,1.65c2.32,1.26,4.23,3.17,5.49,5.49c1.05,1.93,1.64,4.14,1.64,6.49c0,7.52-6.11,13.63-13.63,13.63
			c-7.51,0-13.63-6.11-13.63-13.63C134.06,135.29,140.18,129.18,147.69,129.18z"/>
	</g>
	<g>
		<path d="M109.22,46.9L63.57,92.55v76.91l45.65,45.65h76.91l45.66-45.65V92.55L186.14,46.9H109.22z M222.6,135.02h-19.41V104.4
			l-28.9-28.9h-53.21l-28.9,28.9v36.94h13.72l24.52-47.45c3.35-6.47,9.95-10.51,17.26-10.51c7.3,0,13.91,4.04,17.26,10.51
			l24.51,47.45h33.16v24.31l-40.27,40.27h-69.3l-40.27-40.27v-69.3l40.27-40.26h69.3l40.27,40.26V135.02z"/>
	</g>
	<g>
		<path d="M221.88,59.51c0-0.46,0.16-0.85,0.48-1.17c0.07-0.08,0.15-0.15,0.23-0.2l5.73-1.42c0.28-0.05,0.55-0.12,0.8-0.2
			c0.56-0.14,1.05-0.43,1.48-0.86c0.44-0.43,0.73-0.93,0.87-1.49c0.21-0.63,0.31-1.4,0.31-2.3c0-0.89-0.11-1.66-0.32-2.3
			c-0.14-0.56-0.43-1.05-0.86-1.48c-0.43-0.44-0.93-0.73-1.49-0.87c-0.63-0.21-1.39-0.31-2.29-0.31h-3.31
			c-0.89,0-1.66,0.11-2.3,0.32c-0.56,0.14-1.05,0.43-1.48,0.86c-0.44,0.43-0.73,0.93-0.87,1.49c-0.2,0.63-0.3,1.39-0.3,2.29v0.83
			h3.3v-1.24c0-0.46,0.16-0.85,0.47-1.17c0.33-0.32,0.72-0.48,1.17-0.48h3.31c0.45,0,0.84,0.16,1.16,0.48
			c0.32,0.32,0.48,0.71,0.48,1.17v1.03c0,0.46-0.16,0.85-0.48,1.17c-0.08,0.08-0.16,0.15-0.24,0.2l-5.72,1.43
			c-0.29,0.05-0.56,0.11-0.8,0.19c-0.56,0.14-1.05,0.43-1.48,0.86c-0.44,0.43-0.73,0.93-0.87,1.49c-0.2,0.63-0.3,1.4-0.3,2.3v3.51
			h13.22v-2.89h-9.92V59.51z"/>
	</g>
</g>
</svg>
