<?xml version="1.0" encoding="utf-8"?>
<!-- Generator: Adobe Illustrator 26.0.3, SVG Export Plug-In . SVG Version: 6.00 Build 0)  -->
<svg version="1.1" id="Layer_1" xmlns="http://www.w3.org/2000/svg" xmlns:xlink="http://www.w3.org/1999/xlink" x="0px" y="0px"
	 viewBox="0 0 366.92 346.48" style="enable-background:new 0 0 366.92 346.48;" xml:space="preserve">
<style type="text/css">
	.st0{fill:#55779E;}
</style>
<g>
	<path class="st0" d="M154.92,121.74c-6.98,0-13.29,2.83-17.86,7.4c-4.56,4.57-7.39,10.88-7.39,17.86
		c0,13.95,11.3,25.25,25.25,25.25c6.98,0,13.29-2.83,17.86-7.39c4.57-4.57,7.4-10.88,7.4-17.86c0-6.98-2.83-13.29-7.4-17.86
		C168.21,124.57,161.9,121.74,154.92,121.74z M158.46,150.54c-0.9,0.9-2.16,1.46-3.54,1.46c-2.76,0-5-2.24-5-5
		c0-1.38,0.56-2.64,1.46-3.54c0.91-0.91,2.16-1.47,3.54-1.47s2.64,0.56,3.54,1.47c0.91,0.9,1.47,2.16,1.47,3.54
		S159.37,149.63,158.46,150.54z"/>
	<path class="st0" d="M231.88,231.56c0.09-0.1,0.19-0.19,0.3-0.27l7.41-1.83c0.36-0.07,0.71-0.16,1.03-0.27
		c0.72-0.18,1.36-0.55,1.92-1.11c0.56-0.56,0.94-1.2,1.12-1.93c0.27-0.81,0.4-1.8,0.4-2.96c0-1.15-0.13-2.14-0.41-2.96
		c-0.18-0.72-0.55-1.36-1.11-1.92c-0.56-0.56-1.2-0.94-1.93-1.12c-0.82-0.27-1.8-0.4-2.95-0.4h-4.28c-1.15,0-2.14,0.13-2.96,0.41
		c-0.72,0.18-1.36,0.55-1.91,1.11c-0.57,0.56-0.95,1.2-1.13,1.93c-0.26,0.82-0.39,1.8-0.39,2.95v1.08h4.27v-1.61
		c0-0.59,0.2-1.09,0.61-1.51c0.42-0.42,0.93-0.62,1.51-0.62h4.28c0.58,0,1.08,0.2,1.5,0.62c0.42,0.42,0.63,0.92,0.63,1.51v1.33
		c0,0.59-0.21,1.1-0.63,1.51c-0.1,0.1-0.2,0.19-0.31,0.27l-7.39,1.85c-0.38,0.05-0.72,0.14-1.04,0.25
		c-0.72,0.18-1.36,0.55-1.91,1.11c-0.57,0.56-0.95,1.2-1.13,1.93c-0.26,0.81-0.39,1.8-0.39,2.96v4.53h17.07v-3.73h-12.8v-1.6
		C231.26,232.48,231.46,231.97,231.88,231.56z"/>
	<path class="st0" d="M250.91,81.66h-134.9l-29.47,29.47v134.89L116,275.49h134.92l29.45-29.46V111.12L250.91,81.66z M255.69,247.76
		c-5.16,5.17-12.29,8.36-20.17,8.36c-7.88,0-15.01-3.19-20.18-8.36c-5.16-5.16-8.35-12.29-8.35-20.17c0-1.65,0.14-3.27,0.41-4.85
		c1.36-7.9-1.19-15.97-6.85-21.64l-0.04-0.03c-6.9-6.9-17.27-9.3-26.34-5.69c-5.97,2.38-12.48,3.69-19.29,3.68
		c-27.9-0.02-51.09-22.45-51.99-50.33c-0.49-15.06,5.42-28.75,15.22-38.55c9.42-9.42,22.43-15.24,36.81-15.24s27.4,5.82,36.82,15.24
		c9.42,9.42,15.25,22.44,15.25,36.82c0,6.79-1.3,13.27-3.66,19.21c-1.13,2.84-1.68,5.82-1.68,8.77c0,6.49,2.62,12.88,7.38,17.64
		c5.67,5.67,13.73,8.21,21.63,6.85c1.58-0.27,3.2-0.41,4.86-0.41c7.88,0,15.01,3.19,20.17,8.36c5.17,5.16,8.36,12.29,8.36,20.17
		C264.05,235.47,260.86,242.6,255.69,247.76z"/>
</g>
</svg>
