<?xml version="1.0" encoding="UTF-8"?>
<svg id="Camada_2" data-name="Camada 2" xmlns="http://www.w3.org/2000/svg" viewBox="0 0 929.79 183.27">
  <defs>
    <style>
      .cls-1 {
        fill: #cf873b;
      }

      .cls-2 {
        fill: #fcea3f;
      }
    </style>
  </defs>
  <g id="Camada_3" data-name="Camada 3">
    <polygon class="cls-2" points="0 0 0 34.31 70.97 35.04 147.63 34.98 354.56 35.04 459.73 34.91 523.72 96.51 648.37 97.48 628.68 117.33 649.64 140.21 653.63 140.25 707.47 87.2 707.7 74.21 651.13 18.58 646.33 18.35 624.85 39.89 647.54 62.58 539.66 63.12 475.99 .68 0 0"/>
    <polygon class="cls-1" points=".41 147.63 667.44 147.63 735.47 81.8 864.02 81.8 842.18 59.95 865.99 36.14 871.22 36.14 929.79 94.71 929.79 102.88 867.95 164.8 858.97 164.39 838.96 142.61 863.56 118.52 747.64 118.52 682.11 183.27 0 183.27 .41 147.63"/>
  </g>
</svg>