<?xml version="1.0" encoding="utf-8"?>
<!-- Generator: Adobe Illustrator 26.0.3, SVG Export Plug-In . SVG Version: 6.00 Build 0)  -->
<svg version="1.1" id="Layer_1" xmlns="http://www.w3.org/2000/svg" xmlns:xlink="http://www.w3.org/1999/xlink" x="0px" y="0px"
	 viewBox="0 0 366.92 346.48" style="enable-background:new 0 0 366.92 346.48;" xml:space="preserve">
<style type="text/css">
	.st0{fill:#55779E;}
</style>
<g>
	<path class="st0" d="M166.02,262.36c-34.24,0-51.9-27.76-39.44-62.01h30.92l-31.26-49.15L59.2,200.35h29.56
		c-16.1,44.22,6.71,80.07,50.93,80.07c34.24,0,71.28-21.49,93.73-51.71C215.85,248.69,190.04,262.36,166.02,262.36z"/>
	<path class="st0" d="M278.15,166.67c16.1-44.23-6.71-80.07-50.93-80.07c-27.31,0-56.39,13.67-78.44,34.54l1.68,1.68
		c15.3-11.21,33.32-18.15,50.44-18.15c34.25,0,51.9,27.76,39.44,62.01h-30.92l2.43,3.81c10.4,6.36,17.7,17.31,19.09,30l9.75,15.33
		l67.03-49.15H278.15z"/>
	<path class="st0" d="M164,177.46h0.01l18.21-18.22l-47.57-47.58c-5.03-5.03-13.19-5.03-18.22,0s-5.03,13.19,0,18.22L164,177.46z"/>
	<path class="st0" d="M186.49,161.07l-1.22,1.22l-18.21,18.22l-1.22,1.22l4.56,4.56l2.11-2.1c-0.07,0.7-0.12,1.41-0.12,2.14
		c0,9.69,7.48,17.65,16.99,18.4c0.28,0.02,1.39,0.05,1.47,0.06h0.12c0.24,0,12.2,0.33,19.54,10.26c5.49,7.42,4.95,15.55,4.75,17.69
		c7.73-6.78,12.62-16.74,12.62-27.84c-0.01-20.45-16.58-37.03-37.03-37.03c-0.73,0-1.44,0.05-2.15,0.12l2.36-2.35L186.49,161.07z
		 M212.02,200.41c1.69-1.7,3.62-3.01,5.68-3.95c1.03-0.47,2.02-1.02,2.94-1.65c1.08,3.17,1.66,6.56,1.66,10.09
		c0,4.91-1.11,9.64-3.22,13.91c-1.01-2.35-2.37-4.7-4.07-7.04c-1.85-2.54-4.04-4.74-6.5-6.56
		C209.4,203.48,210.57,201.86,212.02,200.41z"/>
	<path class="st0" d="M137.57,223.78c0.09-0.1,0.19-0.19,0.3-0.26l7.4-1.84c0.37-0.07,0.71-0.15,1.04-0.26
		c0.72-0.18,1.35-0.55,1.91-1.11c0.57-0.56,0.94-1.2,1.13-1.93c0.27-0.82,0.4-1.81,0.4-2.96c0-1.15-0.14-2.14-0.41-2.96
		c-0.18-0.72-0.55-1.35-1.11-1.91c-0.56-0.57-1.2-0.94-1.93-1.13c-0.82-0.27-1.8-0.4-2.95-0.4h-4.28c-1.15,0-2.14,0.14-2.96,0.41
		c-0.72,0.18-1.35,0.55-1.91,1.11c-0.57,0.56-0.94,1.2-1.13,1.93c-0.26,0.82-0.39,1.8-0.39,2.95v1.08h4.26v-1.6
		c0-0.59,0.2-1.1,0.61-1.51c0.43-0.42,0.93-0.63,1.51-0.63h4.28c0.58,0,1.08,0.21,1.5,0.63c0.42,0.42,0.63,0.92,0.63,1.51v1.33
		c0,0.59-0.21,1.1-0.63,1.51c-0.1,0.1-0.2,0.19-0.31,0.26l-7.39,1.85c-0.38,0.06-0.72,0.14-1.04,0.25
		c-0.72,0.18-1.35,0.55-1.91,1.11c-0.57,0.56-0.94,1.2-1.13,1.93c-0.26,0.82-0.39,1.81-0.39,2.96v4.53h17.07v-3.73h-12.81v-1.6
		C136.94,224.7,137.15,224.19,137.57,223.78z"/>
</g>
</svg>
