<svg width="2245" height="357" xmlns="http://www.w3.org/2000/svg" xml:space="preserve" version="1.1">

 <g>
  <title>Layer 1</title>
  <g id="svg_1">
   <path id="svg_2" fill="#FFFFFF" d="m1332.8,316.8c-0.9,0 -1.7,-0.2 -2.4,-0.7c-0.6,-0.5 -1.1,-1.1 -1.2,-1.8c-0.2,-0.7 -0.3,-3.2 -0.3,-7.5l0,-21.2l9.5,0l0,-11.1l-9.5,0l0,-18.5l-14,8.1l0,10.4l-6.4,0l0,11.1l6.4,0l0,22.9c0,4.9 0.2,8.2 0.4,9.8c0.4,2.3 1,4.1 2,5.4c0.9,1.3 2.4,2.4 4.4,3.3c2,0.9 4.2,1.3 6.8,1.3c4.1,0 7.7,-0.7 11,-2.1l-1.2,-10.8c-2.4,0.9 -4.2,1.4 -5.5,1.4z" class="st0"/>
   <path id="svg_3" fill="#FFFFFF" d="m1056.9,273.4c-5.1,0 -9.8,1.1 -14,3.4c-4.2,2.3 -7.4,5.6 -9.7,9.9c-2.3,4.3 -3.4,8.8 -3.4,13.4c0,6 1.1,11.1 3.4,15.3c2.3,4.2 5.6,7.4 9.9,9.6c4.4,2.2 9,3.3 13.8,3.3c7.8,0 14.2,-2.6 19.4,-7.8c5.1,-5.2 7.7,-11.8 7.7,-19.8c0,-7.9 -2.5,-14.4 -7.6,-19.5c-5,-5.2 -11.5,-7.8 -19.5,-7.8zm9.2,39.4c-2.5,2.8 -5.5,4.2 -9.1,4.2c-3.6,0 -6.7,-1.4 -9.1,-4.2c-2.5,-2.8 -3.7,-6.8 -3.7,-11.9c0,-5.2 1.2,-9.2 3.7,-12c2.5,-2.7 5.5,-4.1 9.1,-4.1c3.6,0 6.7,1.4 9.1,4.1c2.5,2.8 3.7,6.7 3.7,11.9c0,5.2 -1.3,9.2 -3.7,12z" class="st0"/>
   <path id="svg_4" fill="#FFFFFF" d="m1046.8,65.6c0,4.9 0.2,8.2 0.4,9.8c0.4,2.3 1,4.1 2,5.4c0.9,1.3 2.4,2.4 4.4,3.3c2,0.9 4.3,1.3 6.8,1.3c4.1,0 7.7,-0.7 11,-2.1l-1.2,-10.8c-2.4,0.9 -4.3,1.3 -5.6,1.3c-0.9,0 -1.7,-0.2 -2.4,-0.7c-0.6,-0.5 -1.1,-1.1 -1.2,-1.8c-0.2,-0.7 -0.3,-3.2 -0.3,-7.5l0,-21.2l9.5,0l0,-11.1l-9.5,0l0,-18.5l-14,8.1l0,10.5l-6.4,0l0,11.1l6.4,0l0,22.9l0.1,0z" class="st0"/>
   <path id="svg_5" fill="#FFFFFF" d="m1093.7,57.8c0,-4.4 0.4,-7.7 1.2,-10c0.9,-2.3 2.2,-4 4,-5.1s3.9,-1.7 6.2,-1.7c2,0 3.7,0.4 5,1.3c1.3,0.9 2.3,2.1 2.8,3.5c0.5,1.5 0.8,5 0.8,10.5l0,27.8l13.9,0l0,-30.8c0,-4.7 -0.2,-8.2 -0.7,-10.4c-0.5,-2.3 -1.4,-4.3 -2.7,-6.1c-1.3,-1.8 -3.2,-3.3 -5.8,-4.6c-2.5,-1.2 -5.4,-1.8 -8.6,-1.8c-6.2,0 -11.6,2.6 -16.1,7.8l0,-26.6l-13.9,0l0,72.5l13.9,0l0,-26.3z" class="st0"/>
   <path id="svg_6" fill="#FFFFFF" d="m1216.9,67.9c0,-9 0.4,-14.8 1.1,-17.6c0.8,-2.8 1.8,-4.7 3.2,-5.8c1.4,-1.1 3,-1.6 4.9,-1.6c2,0 4.2,0.7 6.5,2.3l4.3,-12.1c-2.9,-1.8 -6,-2.6 -9.1,-2.6c-2.2,0 -4.2,0.5 -6,1.7c-1.8,1.1 -3.8,3.4 -6,7l0,-7.5l-12.8,0l0,52.5l13.9,0l0,-16.3z" class="st0"/>
   <path id="svg_7" fill="#FFFFFF" d="m1139.7,187.8l-13.7,-2.3c-0.7,3.7 -1.9,6.2 -3.5,7.7c-1.7,1.5 -3.9,2.3 -6.5,2.3c-3.5,0 -6.3,-1.3 -8.4,-3.9c-2.1,-2.6 -3.2,-7 -3.2,-13.2c0,-5.6 1.1,-9.6 3.1,-12c2.1,-2.4 4.8,-3.6 8.3,-3.6c2.6,0 4.7,0.7 6.4,2.1c1.6,1.4 2.7,3.4 3.1,6.2l13.7,-2.5c-1.7,-5.6 -4.4,-9.8 -8.1,-12.6c-3.8,-2.7 -8.9,-4.1 -15.3,-4.1c-7.8,0 -14,2.4 -18.6,7.2c-4.6,4.8 -6.9,11.6 -6.9,20.2c0,8.6 2.3,15.3 6.9,20.1s10.7,7.3 18.4,7.3c6.8,0 12.1,-1.6 16.2,-4.8c3.9,-3.1 6.7,-7.8 8.1,-14.1z" class="st0"/>
   <path id="svg_8" fill="#FFFFFF" d="m1175.4,166.8l12.6,2.3c0.9,-2.5 2,-4.1 3.4,-5.1c1.4,-1 3.3,-1.5 5.8,-1.5c3.7,0 6.1,0.6 7.5,1.7c1.3,1.1 2,3 2,5.7l0,1.4c-2.5,1.1 -7,2.2 -13.5,3.4c-4.8,0.9 -8.5,2 -11.1,3.3c-2.5,1.2 -4.5,3 -6,5.4c-1.4,2.3 -2.1,5 -2.1,7.9c0,4.5 1.6,8.2 4.7,11.1c3.1,2.9 7.4,4.4 12.8,4.4c3.1,0 6,-0.6 8.7,-1.7c2.7,-1.2 5.2,-2.9 7.6,-5.2c0.1,0.3 0.3,0.8 0.5,1.6c0.5,1.8 1,3.2 1.3,4.1l13.7,0c-1.2,-2.5 -2,-4.9 -2.5,-7c-0.4,-2.2 -0.7,-5.6 -0.7,-10.2l0.2,-16.2c0,-6 -0.6,-10.2 -1.8,-12.4c-1.2,-2.3 -3.4,-4.1 -6.4,-5.6c-3.1,-1.5 -7.6,-2.2 -13.9,-2.2c-6.8,0 -11.9,1.2 -15.4,3.6c-3.5,2.4 -6,6.2 -7.4,11.2zm31.2,16.4c0,3.3 -0.2,5.6 -0.5,6.8c-0.5,1.8 -1.6,3.3 -3.3,4.6c-2.3,1.7 -4.7,2.5 -7.2,2.5c-2.2,0 -4.1,-0.7 -5.5,-2.1c-1.5,-1.4 -2.2,-3.1 -2.2,-5c0,-2 0.9,-3.6 2.7,-4.9c1.2,-0.8 3.7,-1.6 7.6,-2.4c3.9,-0.8 6.7,-1.5 8.4,-2.1l0,2.6z" class="st0"/>
   <polygon id="svg_9" fill="#FFFFFF" points="947.800048828125,303 918.0999755859375,254.5999755859375 903.9000244140625,254.5999755859375 903.9000244140625,327.0999755859375 917.5,327.0999755859375 917.5,279.800048828125 946.699951171875,327.0999755859375 961.4000244140625,327.0999755859375 961.4000244140625,254.5999755859375 947.800048828125,254.5999755859375 " class="st0"/>
   <path id="svg_10" fill="#FFFFFF" d="m838.2,4.5l-816.1,0c-10.4,0 -18.8,8.4 -18.8,18.8l0,226.3c0,10.4 8.4,18.8 18.8,18.8l747.8,0l87.2,87.2l0,-332.3c-0.1,-10.4 -8.5,-18.8 -18.9,-18.8zm-245.3,241.3l-567,0l0,-218.8l567,0l0,218.8zm204.8,-33c-18.6,16.9 -47.5,17.3 -66.6,1.1c-19.9,-16.9 -23.2,-45.1 -10,-65.8c1.4,-2.3 1.1,-5.2 -0.8,-7.1c-1.9,-1.9 -4.8,-2.2 -7.1,-0.8c-19.6,12.5 -45.9,10.3 -63,-6.9c-20.4,-20.4 -19.8,-53.8 1.8,-73.4c18.6,-16.8 47.5,-17.3 66.7,-1.1c19.9,16.9 23.2,45.1 10,65.8c-1.5,2.3 -1.1,5.2 0.7,7.1c1.9,1.9 4.8,2.2 7.1,0.8c19.6,-12.5 45.9,-10.2 63,6.9c20.4,20.4 19.8,53.9 -1.8,73.4z" class="st0"/>
   <path id="svg_11" fill="#FFFFFF" d="m925.4,67.7l29,0l6.3,16.5l15.9,0l-29,-72.5l-15.5,0l-28.2,72.5l15.5,0l6,-16.5zm14.3,-39.1l10,26.9l-19.8,0l9.8,-26.9z" class="st0"/>
   <path id="svg_12" fill="#FFFFFF" d="m1015.3,281.2c-4.5,-5.2 -10.7,-7.7 -18.5,-7.7c-7,0 -12.7,2.5 -17.3,7.4c-4.6,4.9 -6.8,11.7 -6.8,20.4c0,7.3 1.7,13.3 5.2,18.1c4.4,6 11.2,9 20.3,9c5.8,0 10.6,-1.3 14.4,-4c3.9,-2.6 6.7,-6.5 8.4,-11.6l-13.9,-2.3c-0.7,2.6 -1.9,4.6 -3.3,5.7c-1.5,1.2 -3.3,1.8 -5.5,1.8c-3.2,0 -5.9,-1.1 -8,-3.4c-2.1,-2.3 -3.3,-5.5 -3.3,-9.6l34.8,0c0.1,-10.8 -2,-18.7 -6.5,-23.8zm-28.1,15.2c0,-3.8 0.9,-6.8 2.9,-9c2,-2.2 4.5,-3.3 7.5,-3.3c2.8,0 5.2,1.1 7.2,3.2c2,2.1 3,5.1 3.1,9.2l-20.7,0l0,-0.1z" class="st0"/>
   <path id="svg_13" fill="#FFFFFF" d="m1004,151.9c-3.5,0 -6.7,0.8 -9.6,2.5c-2.9,1.7 -5.1,3.8 -6.8,6.4l0,-7.7l-12.9,0l0,72.5l13.9,0l0,-26.4c2.6,2.8 5.1,4.8 7.4,6c2.4,1.1 5,1.7 7.9,1.7c6.1,0 11.3,-2.4 15.6,-7.3c4.3,-4.9 6.4,-11.7 6.4,-20.5c0,-8.5 -2.1,-15.2 -6.4,-19.9c-4.3,-4.9 -9.4,-7.3 -15.5,-7.3zm4.5,40c-2.1,2.6 -4.8,3.9 -8.1,3.9c-3.3,0 -6.2,-1.4 -8.5,-4.2c-2.3,-2.8 -3.5,-7.2 -3.5,-13.1c0,-5.2 1.1,-9 3.3,-11.7c2.3,-2.6 5.1,-3.9 8.5,-3.9c3.3,0 6,1.3 8.2,4c2.2,2.7 3.3,6.8 3.3,12.3c0,5.9 -1,10.1 -3.2,12.7z" class="st0"/>
   <path id="svg_14" fill="#FFFFFF" d="m992,83c2.8,1.6 6,2.3 9.5,2.3c3.5,0 6.8,-0.8 9.9,-2.4c3.1,-1.6 5.6,-3.8 7.6,-6.6l0,7.9l12.9,0l0,-52.5l-13.9,0l0,22.1c0,7.5 -0.4,12.2 -1.1,14.1c-0.7,1.9 -2,3.6 -3.9,4.8c-1.9,1.3 -4,2 -6.4,2c-2.1,0 -3.8,-0.5 -5.2,-1.5c-1.3,-1 -2.3,-2.3 -2.8,-4c-0.5,-1.7 -0.8,-6.2 -0.8,-13.6l0,-24.1l-13.8,0l0,33.2c0,5 0.6,8.8 1.9,11.6c1.2,2.9 3.3,5.1 6.1,6.7z" class="st0"/>
   <rect id="svg_15" fill="#FFFFFF" height="72.5" width="13.9" class="st0" y="133.1" x="1233.9"/>
   <path id="svg_16" fill="#FFFFFF" d="m1312.4,71.9l-21.5,0c-0.9,0 -3.3,0.1 -7.2,0.4l7.1,-7.6l20.1,-23.1l0,-9.8l-43.4,0l0,11.5l18.5,-0.1c2.6,0 4.7,-0.1 6.4,-0.2c-1.6,1.6 -4,4.2 -7.2,7.9l-19.7,22.6l0,10.8l46.9,0l0,-12.4z" class="st0"/>
   <path id="svg_17" fill="#FFFFFF" d="m1276.3,273.4c-5.1,0 -9.8,1.1 -14,3.4c-4.2,2.3 -7.4,5.6 -9.7,9.9c-2.3,4.3 -3.4,8.8 -3.4,13.4c0,6 1.1,11.1 3.4,15.3c2.3,4.2 5.6,7.4 9.9,9.6c4.4,2.2 9,3.3 13.8,3.3c7.8,0 14.2,-2.6 19.4,-7.8c5.1,-5.2 7.7,-11.8 7.7,-19.8c0,-7.9 -2.5,-14.4 -7.6,-19.5c-5,-5.2 -11.5,-7.8 -19.5,-7.8zm9.2,39.4c-2.5,2.8 -5.5,4.2 -9.1,4.2c-3.6,0 -6.7,-1.4 -9.1,-4.2c-2.5,-2.8 -3.7,-6.8 -3.7,-11.9c0,-5.2 1.2,-9.2 3.7,-12c2.5,-2.7 5.5,-4.1 9.1,-4.1c3.6,0 6.7,1.4 9.1,4.1c2.5,2.8 3.7,6.7 3.7,11.9c0,5.2 -1.2,9.2 -3.7,12z" class="st0"/>
   <path id="svg_18" fill="#FFFFFF" d="m1343.1,85.3c5.8,0 10.6,-1.3 14.4,-4c3.8,-2.6 6.6,-6.5 8.4,-11.6l-13.8,-2.3c-0.8,2.6 -1.9,4.6 -3.4,5.7c-1.5,1.2 -3.3,1.8 -5.5,1.8c-3.2,0 -5.9,-1.1 -8,-3.4c-2.2,-2.3 -3.3,-5.5 -3.4,-9.6l34.8,0c0.2,-10.6 -1.9,-18.5 -6.5,-23.7c-4.5,-5.2 -10.7,-7.7 -18.5,-7.7c-6.9,0 -12.7,2.5 -17.3,7.4c-4.5,4.9 -6.8,11.7 -6.8,20.4c0,7.3 1.8,13.3 5.2,18.1c4.5,5.9 11.3,8.9 20.4,8.9zm-8.1,-40.9c2,-2.2 4.5,-3.3 7.5,-3.3c2.8,0 5.3,1.1 7.2,3.2c2,2.1 3,5.1 3.1,9.1l-20.7,0c0,-3.8 1,-6.8 2.9,-9z" class="st0"/>
   <path id="svg_19" fill="#FFFFFF" d="m1318.6,194.8c-1.8,1.3 -4.5,2 -8.1,2c-3.3,0 -5.8,-0.7 -7.6,-2.1c-1.8,-1.4 -3,-3.4 -3.6,-6.1l-14,2.1c1.3,5 4,8.9 8.2,11.8c4.2,2.9 9.8,4.4 17,4.4c7.9,0 13.8,-1.7 17.8,-5.2c4,-3.5 6.1,-7.6 6.1,-12.4c0,-4.4 -1.5,-7.8 -4.4,-10.3c-2.9,-2.4 -8.1,-4.5 -15.5,-6.2c-7.4,-1.7 -11.7,-3 -13,-3.9c-0.9,-0.7 -1.4,-1.5 -1.4,-2.5c0,-1.2 0.5,-2.1 1.6,-2.8c1.6,-1 4.2,-1.5 7.8,-1.5c2.9,0 5.1,0.5 6.7,1.6c1.6,1.1 2.6,2.7 3.2,4.7l13.1,-2.4c-1.3,-4.6 -3.7,-8.1 -7.2,-10.4c-3.5,-2.4 -8.8,-3.5 -16,-3.5c-7.6,0 -13.1,1.5 -16.7,4.7c-3.6,3.1 -5.4,6.9 -5.4,11.4c0,5.1 2.1,9 6.2,11.8c3,2 10.1,4.3 21.3,6.8c2.4,0.5 4,1.2 4.7,1.8c0.7,0.7 1,1.6 1,2.6c0,1.4 -0.6,2.7 -1.8,3.6z" class="st0"/>
   <rect id="svg_20" fill="#FFFFFF" height="12.8" width="13.9" class="st0" y="11.6" x="1243"/>
   <rect id="svg_21" fill="#FFFFFF" height="52.5" width="13.9" class="st0" y="153.1" x="1262.1"/>
   <rect id="svg_22" fill="#FFFFFF" height="12.8" width="13.9" class="st0" y="133.1" x="1262.1"/>
   <rect id="svg_23" fill="#FFFFFF" height="12.8" width="13.9" class="st0" y="133.1" x="1149.5"/>
   <polygon id="svg_24" fill="#FFFFFF" points="1187.199951171875,254.5999755859375 1167.5999755859375,254.5999755859375 1138,286.800048828125 1138,254.5999755859375 1123.4000244140625,254.5999755859375 1123.4000244140625,327.0999755859375 1138,327.0999755859375 1138,305.199951171875 1149.9000244140625,293.0999755859375 1169.800048828125,327.0999755859375 1188.699951171875,327.0999755859375 1160,282.9000244140625 " class="st0"/>
   <rect id="svg_25" fill="#FFFFFF" height="52.5" width="13.9" class="st0" y="153.1" x="1149.5"/>
   <path id="svg_26" fill="#FFFFFF" d="m1151.9,82c4.4,2.2 9,3.3 13.8,3.3c7.8,0 14.2,-2.6 19.4,-7.8c5.1,-5.2 7.7,-11.8 7.7,-19.8c0,-7.9 -2.5,-14.4 -7.6,-19.6c-5.1,-5.2 -11.6,-7.7 -19.5,-7.7c-5.1,0 -9.8,1.1 -14,3.4c-4.2,2.3 -7.4,5.5 -9.7,9.9c-2.3,4.3 -3.4,8.8 -3.4,13.4c0,6.1 1.1,11.2 3.4,15.4c2.2,4.2 5.5,7.4 9.9,9.5zm4.5,-36.1c2.5,-2.8 5.5,-4.1 9.1,-4.1c3.6,0 6.7,1.4 9.1,4.1s3.7,6.7 3.7,11.9c0,5.3 -1.2,9.3 -3.7,12s-5.5,4.2 -9.1,4.2c-3.6,0 -6.7,-1.4 -9.1,-4.2c-2.5,-2.8 -3.7,-6.8 -3.7,-11.9c0,-5.3 1.3,-9.2 3.7,-12z" class="st0"/>
   <path id="svg_27" fill="#FFFFFF" d="m1217,311.9l-12.6,-37.3l-14.8,0l20,52.6c-0.8,2.9 -2,5.4 -3.6,7.3c-1.6,1.9 -4,2.8 -7.2,2.8c-1.8,0 -3.7,-0.2 -5.9,-0.6l1.2,10.9c2.6,0.6 5.2,0.8 7.9,0.8c2.6,0 5,-0.3 7.1,-0.8c2.1,-0.5 3.9,-1.3 5.3,-2.4c1.4,-1 2.7,-2.3 3.8,-3.9c1.1,-1.6 2.3,-4 3.5,-7l3.3,-9.1l18.5,-50.5l-14.4,0l-12.1,37.2z" class="st0"/>
   <rect id="svg_28" fill="#FFFFFF" height="52.5" width="13.9" class="st0" y="31.6" x="1243"/>
   <path id="svg_29" fill="#FFFFFF" d="m1058.3,206.8c5.8,0 10.6,-1.3 14.4,-4c3.9,-2.6 6.7,-6.5 8.4,-11.6l-13.9,-2.3c-0.8,2.6 -1.9,4.6 -3.3,5.7c-1.5,1.2 -3.3,1.8 -5.5,1.8c-3.2,0 -5.9,-1.1 -8,-3.4c-2.1,-2.3 -3.3,-5.5 -3.3,-9.6l34.8,0c0.2,-10.6 -2,-18.5 -6.5,-23.7c-4.5,-5.1 -10.7,-7.7 -18.5,-7.7c-6.9,0 -12.7,2.5 -17.2,7.4c-4.6,4.9 -6.8,11.7 -6.8,20.4c0,7.3 1.7,13.3 5.2,18.1c4.3,5.9 11.1,8.9 20.2,8.9zm-8.1,-40.9c2,-2.2 4.5,-3.3 7.5,-3.3c2.8,0 5.2,1.1 7.2,3.2c2,2.1 3,5.1 3.1,9.2l-20.8,0c0.1,-3.9 1.1,-6.9 3,-9.1z" class="st0"/>
   <path id="svg_30" fill="#FFFFFF" d="m477.8,74.9c7.7,0 13.9,-6.2 13.9,-13.9c0,-7.7 -6.2,-14 -13.9,-14c-7.7,0 -13.9,6.2 -13.9,14c0,7.7 6.2,13.9 13.9,13.9z" class="st0"/>
   <path id="svg_31" fill="#FFFFFF" d="m512.3,74.9c7.7,0 13.9,-6.2 13.9,-13.9c0,-7.7 -6.2,-14 -13.9,-14c-7.7,0 -13.9,6.2 -13.9,14c0,7.7 6.3,13.9 13.9,13.9z" class="st0"/>
   <path id="svg_32" fill="#FFFFFF" d="m240.2,175.6c8.8,17.9 23.3,32.4 41.2,41.2c10.3,5 21.7,8.1 33.7,8.9c1.8,0.1 3.6,0.2 5.5,0.2s3.7,-0.1 5.5,-0.2c44.9,-2.7 81,-38.8 83.7,-83.7c0.1,-1.8 0.2,-3.6 0.2,-5.5c0,-1.8 -0.1,-3.7 -0.2,-5.5c-0.8,-12 -3.9,-23.4 -8.9,-33.6c-8.7,-17.9 -23.3,-32.4 -41.1,-41.2c-10.3,-5 -21.7,-8.2 -33.7,-8.9c-1.8,-0.1 -3.7,-0.2 -5.5,-0.2s-3.7,0.1 -5.5,0.2c-44.9,2.7 -81,38.8 -83.7,83.7c-0.1,1.8 -0.2,3.7 -0.2,5.5c0,1.8 0,3.7 0.2,5.5c0.6,11.9 3.8,23.3 8.8,33.6zm2.1,-44.7c2.7,-38.8 33.8,-70 72.7,-72.7c1.8,-0.1 3.6,-0.2 5.5,-0.2l0,78.4l78.4,0c0,1.8 -0.1,3.7 -0.2,5.5c-2.7,38.8 -33.8,70 -72.7,72.7c-1.8,0.1 -3.7,0.2 -5.5,0.2l0,-78.4l-78.4,0c0,-1.8 0.1,-3.7 0.2,-5.5z" class="st0"/>
   <path id="svg_33" fill="#FFFFFF" d="m487.1,158c-18.5,13.7 -31.1,25.6 -37.8,35.7c-6.7,10.1 -10.7,20.8 -12.1,32.2l115.6,0l0,-31.4l-60.2,0c3.5,-3.5 6.6,-6.3 9.2,-8.4c2.6,-2.1 7.8,-5.9 15.6,-11.2c13,-9.2 22.1,-17.7 27,-25.4c5,-7.7 7.4,-15.8 7.4,-24.2c0,-8 -2.2,-15.1 -6.5,-21.5c-4.3,-6.4 -10.3,-11.2 -17.8,-14.2c-7.6,-3.1 -18.1,-4.7 -31.7,-4.7c-13,0 -23.2,1.6 -30.5,4.9c-7.3,3.3 -13,7.9 -17,14c-4,6.1 -6.8,14.5 -8.3,25.4l38.6,3.1c1.1,-7.8 3.2,-13.3 6.3,-16.4c3.1,-3.1 7.1,-4.6 12.1,-4.6c4.7,0 8.7,1.5 11.8,4.5c3.1,3 4.7,6.6 4.7,10.9c0,3.9 -1.6,8 -4.7,12.4c-3.2,4.1 -10.4,10.5 -21.7,18.9z" class="st0"/>
   <path id="svg_34" fill="#FFFFFF" d="m951.9,165.6c-3.4,-1.8 -8.7,-3.5 -15.8,-5.2c-7.1,-1.7 -11.6,-3.3 -13.4,-4.8c-1.5,-1.2 -2.2,-2.7 -2.2,-4.4c0,-1.9 0.8,-3.4 2.3,-4.5c2.4,-1.8 5.7,-2.6 10,-2.6c4.1,0 7.2,0.8 9.3,2.5c2,1.6 3.4,4.3 4,8l14.7,-0.6c-0.3,-6.7 -2.6,-12 -7.3,-16c-4.6,-4 -11.4,-6 -20.5,-6c-5.6,0 -10.3,0.9 -14.3,2.5c-4,1.7 -6.9,4.1 -9,7.4c-2.1,3.2 -3.2,6.7 -3.2,10.4c0,5.7 2.2,10.6 6.7,14.6c3.2,2.8 8.7,5.2 16.5,7.2c6.1,1.5 10,2.5 11.7,3.2c2.5,0.9 4.3,1.9 5.3,3.1c1,1.2 1.5,2.7 1.5,4.4c0,2.6 -1.2,5 -3.6,7c-2.4,2 -5.9,3 -10.6,3c-4.5,0 -8,-1.1 -10.6,-3.3c-2.6,-2.3 -4.4,-5.8 -5.2,-10.5l-14.2,1.4c1,8.1 3.9,14.3 8.8,18.5c4.9,4.2 11.9,6.3 21.1,6.3c6.3,0 11.5,-0.9 15.8,-2.6c4.2,-1.8 7.5,-4.5 9.8,-8.1c2.3,-3.6 3.5,-7.5 3.5,-11.7c0,-4.6 -1,-8.4 -2.9,-11.5c-2.1,-3.5 -4.8,-5.9 -8.2,-7.7z" class="st0"/>
   <path id="svg_35" fill="#FFFFFF" d="m2150.3,188.4l0.2,-16.2c0,-6 -0.6,-10.2 -1.9,-12.4c-1.2,-2.3 -3.3,-4.1 -6.4,-5.6c-3.1,-1.5 -7.6,-2.2 -13.9,-2.2c-6.8,0 -11.9,1.2 -15.4,3.6c-3.5,2.5 -5.9,6.2 -7.3,11.3l12.6,2.3c0.9,-2.5 2,-4.1 3.4,-5.1c1.4,-1 3.3,-1.5 5.8,-1.5c3.7,0 6.1,0.6 7.5,1.7c1.3,1.1 2,3 2,5.7l0,1.4c-2.5,1.1 -7,2.2 -13.5,3.4c-4.8,0.9 -8.5,2 -11.1,3.3c-2.5,1.2 -4.5,3 -6,5.4c-1.4,2.3 -2.1,5 -2.1,7.9c0,4.5 1.6,8.2 4.7,11.1c3.1,2.9 7.4,4.4 12.8,4.4c3.1,0 6,-0.6 8.7,-1.7c2.7,-1.2 5.2,-2.9 7.6,-5.2c0.1,0.3 0.3,0.8 0.5,1.6c0.5,1.8 1,3.2 1.3,4.1l13.7,0c-1.2,-2.5 -2,-4.9 -2.5,-7c-0.5,-2.3 -0.7,-5.7 -0.7,-10.3zm-13.5,-5.2c0,3.3 -0.2,5.6 -0.5,6.8c-0.5,1.8 -1.6,3.3 -3.3,4.6c-2.3,1.7 -4.7,2.5 -7.2,2.5c-2.2,0 -4.1,-0.7 -5.5,-2.1c-1.5,-1.4 -2.2,-3.1 -2.2,-5c0,-2 0.9,-3.6 2.7,-4.9c1.2,-0.8 3.7,-1.6 7.6,-2.4c3.9,-0.8 6.7,-1.5 8.4,-2.1l0,2.6z" class="st0"/>
   <polygon id="svg_36" fill="#FFFFFF" points="1738.699951171875,65.300048828125 1720.39990234375,11.5999755859375 1704.5,11.5999755859375 1730.39990234375,84.0999755859375 1746,84.0999755859375 1771.89990234375,11.5999755859375 1756.39990234375,11.5999755859375 " class="st0"/>
   <path id="svg_37" fill="#FFFFFF" d="m2079,35.6l-7,0l-11.7,29.9l-0.3,0.7l7.5,0l2.5,-6.7l11.1,0l2.6,6.7l7.6,0l-12.1,-30.3l-0.2,-0.3zm-6.9,17.8l3.3,-8.9l3.3,8.9l-6.6,0z" class="st0"/>
   <rect id="svg_38" fill="#FFFFFF" height="72.5" width="13.9" class="st0" y="133.1" x="1760.9"/>
   <rect id="svg_39" fill="#FFFFFF" height="52.5" width="13.9" class="st0" y="31.6" x="1777.5"/>
   <path id="svg_40" fill="#FFFFFF" d="m1722.9,151.9c-5.2,0 -9.8,1.1 -14,3.4c-4.1,2.3 -7.4,5.5 -9.7,9.9c-2.3,4.3 -3.4,8.8 -3.4,13.4c0,6.1 1.1,11.2 3.4,15.4c2.3,4.2 5.6,7.4 10,9.6c4.4,2.2 9,3.3 13.8,3.3c7.8,0 14.2,-2.6 19.3,-7.8c5.1,-5.2 7.7,-11.8 7.7,-19.8c0,-7.9 -2.5,-14.4 -7.6,-19.6c-5.1,-5.2 -11.6,-7.8 -19.5,-7.8zm9.2,39.4c-2.5,2.8 -5.5,4.2 -9.1,4.2c-3.6,0 -6.7,-1.4 -9.1,-4.2c-2.5,-2.8 -3.7,-6.8 -3.7,-11.9c0,-5.2 1.2,-9.2 3.7,-12c2.5,-2.8 5.5,-4.1 9.1,-4.1c3.6,0 6.7,1.4 9.1,4.1c2.5,2.8 3.7,6.7 3.7,11.9c-0.1,5.2 -1.3,9.2 -3.7,12z" class="st0"/>
   <path id="svg_41" fill="#FFFFFF" d="m1632,82c4.4,2.2 9,3.3 13.8,3.3c7.8,0 14.2,-2.6 19.4,-7.8c5.1,-5.2 7.7,-11.8 7.7,-19.8c0,-7.9 -2.5,-14.4 -7.6,-19.6c-5.1,-5.2 -11.6,-7.7 -19.5,-7.7c-5.1,0 -9.8,1.1 -14,3.4c-4.2,2.3 -7.4,5.5 -9.7,9.9c-2.3,4.3 -3.4,8.8 -3.4,13.4c0,6.1 1.1,11.2 3.4,15.4c2.2,4.2 5.5,7.4 9.9,9.5zm4.6,-36.1c2.5,-2.8 5.5,-4.1 9.1,-4.1s6.7,1.4 9.1,4.1s3.7,6.7 3.7,11.9c0,5.3 -1.2,9.3 -3.7,12s-5.5,4.2 -9.1,4.2s-6.7,-1.4 -9.1,-4.2c-2.5,-2.8 -3.7,-6.8 -3.7,-11.9c-0.1,-5.3 1.2,-9.2 3.7,-12z" class="st0"/>
   <path id="svg_42" fill="#FFFFFF" d="m2238.9,161.2c-1.3,-3 -3.3,-5.4 -6,-6.9c-2.7,-1.6 -6,-2.3 -9.8,-2.3c-3,0 -5.9,0.7 -8.5,2.1c-2.7,1.4 -5.2,3.5 -7.5,6.3c-1.6,-2.8 -3.6,-4.9 -6.1,-6.3c-2.5,-1.4 -5.4,-2.1 -8.8,-2.1c-6.3,0 -11.8,2.8 -16.3,8.3l0,-7.2l-12.8,0l0,52.5l13.9,0l0,-25.5c0,-5 0.4,-8.6 1.1,-10.8c0.7,-2.2 2,-3.8 3.7,-5c1.7,-1.2 3.7,-1.8 5.8,-1.8c1.8,0 3.2,0.4 4.2,1.1c1,0.7 1.8,1.8 2.3,3.3c0.5,1.5 0.7,4.8 0.7,9.9l0,28.8l13.9,0l0,-25.2c0,-4.9 0.4,-8.5 1.1,-10.8c0.7,-2.3 2,-4 3.7,-5.2c1.7,-1.2 3.5,-1.8 5.5,-1.8c2.7,0 4.7,1 5.9,3c1,1.5 1.4,4.9 1.4,10.1l0,30l13.9,0l0,-33.7c0.1,-5 -0.4,-8.6 -1.3,-10.8z" class="st0"/>
   <path id="svg_43" fill="#FFFFFF" d="m2090,159.6c-4.5,-5.1 -10.7,-7.7 -18.5,-7.7c-6.9,0 -12.7,2.5 -17.2,7.4c-4.6,4.9 -6.8,11.7 -6.8,20.4c0,7.3 1.7,13.3 5.2,18.1c4.4,6 11.1,9 20.3,9c5.8,0 10.6,-1.3 14.4,-4c3.9,-2.6 6.7,-6.5 8.4,-11.6l-13.9,-2.3c-0.8,2.6 -1.9,4.6 -3.3,5.7c-1.5,1.2 -3.3,1.8 -5.5,1.8c-3.2,0 -5.9,-1.1 -8,-3.4c-2.1,-2.3 -3.2,-5.5 -3.3,-9.6l34.8,0c0.1,-10.7 -2.1,-18.6 -6.6,-23.8zm-28.1,15.3c0,-3.8 1,-6.8 2.9,-9c2,-2.2 4.5,-3.3 7.5,-3.3c2.8,0 5.2,1.1 7.2,3.2c2,2.1 3,5.1 3.1,9.2l-20.7,0l0,-0.1z" class="st0"/>
   <path id="svg_44" fill="#FFFFFF" d="m1626.2,254.3c-6.8,0 -12.3,2.2 -16.7,6.8c-4.4,4.5 -6.5,10.4 -6.5,17.7c0,7.1 2.1,12.8 6.2,17.2c4.1,4.4 9.1,6.6 14.8,6.6c5.2,0 9.6,-2 13.1,-6.1c-0.6,8.3 -1.8,13.8 -3.9,16.4c-2,2.6 -4.5,4 -7.3,4c-2.3,0 -4.1,-0.7 -5.5,-2c-1.4,-1.3 -2.2,-3.3 -2.6,-6.1l-13.4,1.5c1,6 3.2,10.5 6.7,13.5c3.5,3 8.1,4.5 13.7,4.5c7.9,0 14.3,-2.9 19.2,-8.8c4.9,-5.9 7.4,-15.4 7.4,-28.7c0,-13 -2.4,-22.4 -7.1,-28.1c-4.8,-5.5 -10.8,-8.4 -18.1,-8.4zm6.8,35c-1.8,2.1 -4.1,3.2 -6.8,3.2c-2.8,0 -5.1,-1.1 -6.9,-3.3c-1.8,-2.2 -2.8,-5.6 -2.8,-10.3c0,-4.6 0.9,-7.9 2.5,-9.9c1.7,-2 3.8,-3.1 6.4,-3.1c2.7,0 5.1,1.2 7.1,3.7c2.1,2.5 3.1,5.9 3.1,10.4c0.2,4.1 -0.8,7.2 -2.6,9.3z" class="st0"/>
   <path id="svg_45" fill="#FFFFFF" d="m1681.5,157.8c-1.3,-1.7 -3.2,-3.1 -5.7,-4.2c-2.5,-1.1 -5.4,-1.7 -8.4,-1.7c-6.9,0 -12.7,3 -17.3,8.9l0,-7.7l-12.9,0l0,52.5l13.9,0l0,-23.8c0,-5.9 0.4,-9.9 1.1,-12c0.7,-2.2 2,-3.9 4,-5.3c1.9,-1.3 4,-2 6.5,-2c1.9,0 3.5,0.5 4.8,1.4c1.3,0.9 2.3,2.2 2.9,3.9c0.6,1.7 0.9,5.3 0.9,11l0,26.8l13.9,0l0,-32.6c0,-4.1 -0.3,-7.2 -0.8,-9.4c-0.7,-2.1 -1.6,-4.1 -2.9,-5.8z" class="st0"/>
   <path id="svg_46" fill="#FFFFFF" d="m2075.6,11.6c-20,0 -36.2,16.3 -36.2,36.2c0,20 16.3,36.3 36.2,36.3c20,0 36.2,-16.3 36.2,-36.3c0,-19.9 -16.2,-36.2 -36.2,-36.2zm0,61.8c-14.1,0 -25.5,-11.4 -25.5,-25.5c0,-14.1 11.5,-25.5 25.5,-25.5c14.1,0 25.5,11.4 25.5,25.5c0,14 -11.4,25.5 -25.5,25.5z" class="st0"/>
   <polygon id="svg_47" fill="#FFFFFF" points="2049.699951171875,133.0999755859375 1992.10009765625,133.0999755859375 1992.10009765625,145.4000244140625 2013.60009765625,145.4000244140625 2013.60009765625,205.5999755859375 2028.199951171875,205.5999755859375 2028.199951171875,145.4000244140625 2049.699951171875,145.4000244140625 " class="st0"/>
   <path id="svg_48" fill="#FFFFFF" d="m1983.1,66.9l0.1,-16.2c0,-6 -0.6,-10.2 -1.8,-12.4c-1.2,-2.3 -3.4,-4.1 -6.4,-5.6c-3,-1.5 -7.6,-2.2 -13.8,-2.2c-6.8,0 -12,1.2 -15.4,3.6c-3.5,2.5 -5.9,6.2 -7.3,11.3l12.6,2.3c0.9,-2.5 2,-4.2 3.3,-5.1c1.4,-1 3.3,-1.5 5.8,-1.5c3.7,0 6.1,0.6 7.5,1.7c1.3,1.1 2,3 2,5.7l0,1.4c-2.5,1.1 -7,2.2 -13.5,3.4c-4.8,0.9 -8.5,2 -11,3.3c-2.5,1.2 -4.6,3 -6,5.4c-1.4,2.3 -2.1,5 -2.1,7.9c0,4.5 1.6,8.2 4.7,11.1c3.1,2.9 7.4,4.4 12.8,4.4c3.1,0 5.9,-0.6 8.6,-1.8c2.7,-1.1 5.3,-2.9 7.6,-5.2c0.1,0.3 0.3,0.8 0.5,1.6c0.5,1.8 1,3.2 1.3,4.1l13.7,0c-1.2,-2.5 -2,-4.9 -2.5,-7.1c-0.5,-2.1 -0.7,-5.5 -0.7,-10.1zm-13.5,-5.2c0,3.3 -0.2,5.6 -0.5,6.8c-0.5,1.8 -1.6,3.3 -3.3,4.6c-2.3,1.7 -4.7,2.5 -7.2,2.5c-2.2,0 -4.1,-0.7 -5.5,-2.1c-1.4,-1.4 -2.2,-3.1 -2.2,-5c0,-2 0.9,-3.6 2.7,-4.9c1.2,-0.8 3.7,-1.6 7.6,-2.4c3.9,-0.8 6.7,-1.5 8.4,-2.1l0,2.6z" class="st0"/>
   <path id="svg_49" fill="#FFFFFF" d="m1913.3,76.3l0,7.9l12.9,0l0,-52.5l-13.9,0l0,22.1c0,7.5 -0.4,12.2 -1,14.1c-0.7,1.9 -2,3.6 -3.9,4.8c-1.9,1.3 -4,2 -6.4,2c-2.1,0 -3.8,-0.5 -5.2,-1.5c-1.3,-1 -2.3,-2.3 -2.8,-4c-0.5,-1.7 -0.8,-6.2 -0.8,-13.6l0,-24.1l-13.9,0l0,33.2c0,5 0.6,8.8 1.8,11.6c1.3,2.8 3.3,5 6.1,6.5c2.8,1.6 6,2.3 9.5,2.3c3.5,0 6.8,-0.8 9.9,-2.4c3.3,-1.4 5.8,-3.6 7.7,-6.4z" class="st0"/>
   <path id="svg_50" fill="#FFFFFF" d="m1933.5,190.4l-12.6,-37.3l-14.8,0l20,52.6c-0.8,2.9 -2,5.4 -3.5,7.3c-1.6,1.9 -4,2.8 -7.2,2.8c-1.8,0 -3.7,-0.2 -5.9,-0.6l1.2,10.9c2.5,0.6 5.2,0.8 7.8,0.8c2.6,0 5,-0.3 7.1,-0.8c2.1,-0.6 3.9,-1.3 5.3,-2.4c1.4,-1 2.7,-2.3 3.8,-3.9c1.1,-1.6 2.3,-4 3.5,-7l3.3,-9.1l18.5,-50.5l-14.4,0l-12.1,37.2z" class="st0"/>
   <path id="svg_51" fill="#FFFFFF" d="m2079.4,33.5c1.7,0 3,-1.4 3,-3c0,-1.7 -1.4,-3 -3,-3c-1.7,0 -3,1.3 -3,3c0,1.6 1.3,3 3,3z" class="st0"/>
   <rect id="svg_52" fill="#FFFFFF" height="72.5" width="13.9" class="st0" y="11.6" x="1996.9"/>
   <path id="svg_53" fill="#FFFFFF" d="m1852.5,84c2,0.9 4.3,1.3 6.8,1.3c4.1,0 7.7,-0.7 11,-2.1l-1.2,-10.8c-2.5,0.9 -4.3,1.3 -5.6,1.3c-0.9,0 -1.7,-0.2 -2.3,-0.7c-0.6,-0.5 -1.1,-1.1 -1.2,-1.8c-0.2,-0.7 -0.3,-3.2 -0.3,-7.5l0,-21.2l9.5,0l0,-11.1l-9.5,0l0,-18.5l-13.9,8.1l0,10.5l-6.4,0l0,11.1l6.4,0l0,22.9c0,4.9 0.2,8.2 0.4,9.8c0.4,2.3 1,4.1 1.9,5.4c0.9,1.4 2.4,2.5 4.4,3.3z" class="st0"/>
   <path id="svg_54" fill="#FFFFFF" d="m1812.9,151.9c-5.2,0 -9.8,1.1 -14,3.4c-4.2,2.3 -7.4,5.5 -9.7,9.9c-2.3,4.3 -3.4,8.8 -3.4,13.4c0,6.1 1.1,11.2 3.4,15.4c2.3,4.2 5.6,7.4 10,9.6c4.4,2.2 9,3.3 13.8,3.3c7.8,0 14.2,-2.6 19.3,-7.8s7.7,-11.8 7.7,-19.8c0,-7.9 -2.5,-14.4 -7.6,-19.6c-5.1,-5.2 -11.6,-7.8 -19.5,-7.8zm9.1,39.4c-2.5,2.8 -5.5,4.2 -9.1,4.2c-3.6,0 -6.7,-1.4 -9.1,-4.2c-2.5,-2.8 -3.7,-6.8 -3.7,-11.9c0,-5.2 1.2,-9.2 3.7,-12c2.5,-2.8 5.5,-4.1 9.1,-4.1c3.6,0 6.7,1.4 9.1,4.1c2.5,2.8 3.7,6.7 3.7,11.9c0,5.2 -1.2,9.2 -3.7,12z" class="st0"/>
   <path id="svg_55" fill="#FFFFFF" d="m1818.9,67.9c0,-9 0.4,-14.8 1.2,-17.6c0.8,-2.8 1.8,-4.7 3.2,-5.8c1.3,-1.1 3,-1.6 4.9,-1.6c2,0 4.2,0.7 6.5,2.3l4.3,-12.1c-2.9,-1.8 -6,-2.6 -9.1,-2.6c-2.2,0 -4.2,0.5 -6,1.7c-1.8,1.1 -3.7,3.4 -6,7l0,-7.5l-12.9,0l0,52.5l13.9,0l0,-16.3z" class="st0"/>
   <path id="svg_56" fill="#FFFFFF" d="m1886,160.5c-4.2,-5.7 -9.6,-8.5 -16.1,-8.5c-6.3,0 -11.6,2.3 -15.8,6.9c-4.2,4.7 -6.3,11.4 -6.3,20.2c0,7 1.6,12.9 4.8,17.6c4.1,6 9.7,9 16.8,9c6.3,0 11.6,-2.8 15.7,-8.5l0,7.6c0,3.1 -0.2,5.2 -0.6,6.4c-0.6,1.6 -1.5,2.8 -2.8,3.5c-1.8,1.1 -4.5,1.6 -8.2,1.6c-2.8,0 -4.9,-0.5 -6.2,-1.5c-1,-0.7 -1.6,-1.9 -1.8,-3.8l-15.9,-1.9c0,0.7 0,1.2 0,1.7c0,4.7 1.8,8.5 5.6,11.6c3.7,3.1 10,4.6 18.9,4.6c4.7,0 8.6,-0.5 11.7,-1.5c3.1,-1 5.5,-2.4 7.4,-4.1c1.8,-1.8 3.3,-4.1 4.3,-7.2c1,-3.1 1.5,-7.7 1.5,-13.9l0,-47.1l-13,0l0,7.3zm-4.2,29.9c-2.3,2.6 -5.2,4 -8.6,4c-3.2,0 -5.8,-1.3 -8,-3.9c-2.1,-2.6 -3.2,-6.7 -3.2,-12.2c0,-5.3 1.1,-9.3 3.2,-11.9c2.2,-2.6 4.9,-3.9 8.3,-3.9c3.4,0 6.2,1.3 8.5,4c2.2,2.6 3.3,6.7 3.3,12.1c0,5.2 -1.2,9.1 -3.5,11.8z" class="st0"/>
   <path id="svg_57" fill="#FFFFFF" d="m2071.9,33.5c1.7,0 3,-1.4 3,-3c0,-1.7 -1.4,-3 -3,-3c-1.7,0 -3,1.3 -3,3c0,1.6 1.3,3 3,3z" class="st0"/>
   <rect id="svg_58" fill="#FFFFFF" height="12.8" width="13.9" class="st0" y="11.6" x="1777.5"/>
   <rect id="svg_59" fill="#FFFFFF" height="13.9" width="13.9" class="st0" y="313.2" x="1663.3"/>
   <path id="svg_60" fill="#FFFFFF" d="m1347.2,187.1c0,4.9 0.1,8.2 0.4,9.8c0.4,2.3 1,4.1 2,5.4c0.9,1.3 2.4,2.4 4.4,3.3c2,0.9 4.3,1.3 6.8,1.3c4.1,0 7.7,-0.7 11,-2.1l-1.2,-10.8c-2.4,0.9 -4.3,1.3 -5.6,1.3c-0.9,0 -1.7,-0.2 -2.4,-0.7c-0.6,-0.5 -1.1,-1.1 -1.2,-1.8c-0.2,-0.7 -0.3,-3.2 -0.3,-7.5l0,-21.2l9.5,0l0,-11.1l-9.5,0l0,-18.5l-13.9,8.1l0,10.5l-6.4,0l0,11.1l6.4,0l0,22.9z" class="st0"/>
   <path id="svg_61" fill="#FFFFFF" d="m1565.5,187.8l-13.6,-2.3c-0.7,3.7 -1.9,6.2 -3.6,7.7c-1.7,1.5 -3.8,2.3 -6.5,2.3c-3.5,0 -6.3,-1.3 -8.4,-3.9c-2.1,-2.6 -3.1,-7 -3.1,-13.2c0,-5.6 1,-9.6 3.1,-12c2.1,-2.4 4.8,-3.6 8.3,-3.6c2.6,0 4.7,0.7 6.3,2.1c1.6,1.4 2.7,3.4 3.2,6.2l13.7,-2.5c-1.6,-5.6 -4.3,-9.8 -8.1,-12.6c-3.8,-2.7 -8.9,-4.1 -15.2,-4.1c-7.8,0 -14,2.4 -18.6,7.2s-6.9,11.6 -6.9,20.2c0,8.6 2.3,15.3 6.8,20.1c4.6,4.8 10.7,7.3 18.4,7.3c6.8,0 12.1,-1.6 16.2,-4.8c3.9,-3.1 6.6,-7.8 8,-14.1z" class="st0"/>
   <rect id="svg_62" fill="#FFFFFF" height="12.8" width="13.9" class="st0" y="11.6" x="1537.4"/>
   <rect id="svg_63" fill="#FFFFFF" height="52.5" width="13.9" class="st0" y="31.6" x="1537.4"/>
   <path id="svg_64" fill="#FFFFFF" d="m1514.9,254.3c-7,0 -12.5,2.5 -16.4,7.4c-4.7,6 -7.1,15.8 -7.1,29.4c0,13.9 2.2,23.6 6.5,29c4.3,5.4 10,8.2 17,8.2s12.5,-2.5 16.4,-7.4c4.7,-6 7.1,-15.9 7.1,-29.6c0,-13.7 -2.4,-23.6 -7.1,-29.5c-3.9,-5 -9.4,-7.5 -16.4,-7.5zm7.5,55.2c-0.7,2.8 -1.8,4.7 -3.1,5.8c-1.3,1.1 -2.8,1.6 -4.5,1.6c-1.7,0 -3.2,-0.5 -4.5,-1.6c-1.3,-1.1 -2.4,-3.2 -3.2,-6.3c-0.9,-3.2 -1.3,-9 -1.3,-17.5c0,-8.5 0.5,-14.6 1.4,-18.1c0.7,-2.8 1.8,-4.7 3.1,-5.8c1.3,-1.1 2.8,-1.6 4.5,-1.6c1.7,0 3.2,0.5 4.5,1.6c1.3,1.1 2.4,3.2 3.2,6.4c0.9,3.2 1.3,9 1.3,17.5c0.1,8.4 -0.4,14.4 -1.4,18z" class="st0"/>
   <path id="svg_65" fill="#FFFFFF" d="m1465.6,302.3c4.4,-4 7.4,-7.1 9.1,-9.2c2.5,-3.2 4.4,-6.3 5.6,-9.3c1.1,-2.9 1.8,-6.1 1.8,-9.3c0,-5.7 -2.1,-10.5 -6.1,-14.4c-4.1,-3.9 -9.7,-5.8 -16.9,-5.8c-6.5,0 -11.9,1.7 -16.3,5c-4.3,3.3 -6.9,8.8 -7.7,16.4l13.8,1.4c0.3,-4.1 1.2,-7 3,-8.7c1.7,-1.8 4,-2.6 6.9,-2.6c2.9,0 5.2,0.8 6.9,2.5c1.7,1.7 2.5,4 2.5,7.1c0,2.8 -1,5.6 -2.9,8.5c-1.4,2.1 -5.3,6 -11.5,11.9c-7.8,7.2 -13,13 -15.6,17.4c-2.6,4.4 -4.2,9 -4.7,13.9l48.7,0l0,-12.9l-27.6,0c0.7,-1.3 1.7,-2.5 2.8,-3.9c1,-1.3 3.8,-3.9 8.2,-8z" class="st0"/>
   <path id="svg_66" fill="#FFFFFF" d="m1371.9,273.4c-5.1,0 -9.8,1.1 -14,3.4c-4.2,2.3 -7.4,5.6 -9.7,9.9c-2.3,4.3 -3.4,8.8 -3.4,13.4c0,6 1.1,11.1 3.4,15.3c2.3,4.2 5.6,7.4 9.9,9.6c4.4,2.2 9,3.3 13.8,3.3c7.8,0 14.2,-2.6 19.4,-7.8c5.1,-5.2 7.7,-11.8 7.7,-19.8c0,-7.9 -2.5,-14.4 -7.6,-19.5c-5,-5.2 -11.5,-7.8 -19.5,-7.8zm9.2,39.4c-2.5,2.8 -5.5,4.2 -9.1,4.2c-3.6,0 -6.7,-1.4 -9.1,-4.2c-2.5,-2.8 -3.7,-6.8 -3.7,-11.9c0,-5.2 1.2,-9.2 3.7,-12c2.5,-2.7 5.5,-4.1 9.1,-4.1c3.6,0 6.7,1.4 9.1,4.1c2.5,2.8 3.7,6.7 3.7,11.9c0,5.2 -1.3,9.2 -3.7,12z" class="st0"/>
   <path id="svg_67" fill="#FFFFFF" d="m1507,191.2l-13.8,-2.3c-0.8,2.6 -1.9,4.6 -3.4,5.7c-1.5,1.2 -3.3,1.8 -5.5,1.8c-3.2,0 -5.9,-1.1 -8,-3.4c-2.2,-2.3 -3.3,-5.5 -3.4,-9.6l34.8,0c0.2,-10.6 -1.9,-18.5 -6.5,-23.7c-4.5,-5.1 -10.7,-7.7 -18.5,-7.7c-6.9,0 -12.7,2.5 -17.3,7.4c-4.5,4.9 -6.8,11.7 -6.8,20.4c0,7.3 1.8,13.3 5.2,18.1c4.4,6 11.2,9 20.3,9c5.8,0 10.6,-1.3 14.4,-4c3.9,-2.7 6.7,-6.6 8.5,-11.7zm-30.9,-25.3c2,-2.2 4.5,-3.3 7.5,-3.3c2.8,0 5.3,1.1 7.2,3.2c2,2.1 3,5.1 3.1,9.2l-20.8,0c0,-3.9 1,-6.9 3,-9.1z" class="st0"/>
   <path id="svg_68" fill="#FFFFFF" d="m1588.4,254.3l-11.7,0l-31.4,46l0,12.2l29.7,0l0,14.6l13.4,0l0,-14.6l9,0l0,-12.2l-9,0l0,-46zm-13.4,46l-16.7,0l16.7,-24.8l0,24.8z" class="st0"/>
   <path id="svg_69" fill="#FFFFFF" d="m1478.5,67.7l29,0l6.3,16.5l15.9,0l-29,-72.5l-15.5,0l-28.2,72.5l15.5,0l6,-16.5zm14.3,-39.1l10,26.9l-19.8,0l9.8,-26.9z" class="st0"/>
   <polygon id="svg_70" fill="#FFFFFF" points="1439.4000244140625,205.5999755859375 1439.4000244140625,145.4000244140625 1460.9000244140625,145.4000244140625 1460.9000244140625,133.0999755859375 1403.300048828125,133.0999755859375 1403.300048828125,145.4000244140625 1424.800048828125,145.4000244140625 1424.800048828125,205.5999755859375 " class="st0"/>
   <path id="svg_71" fill="#FFFFFF" d="m1608.4,167.4c0.5,1.5 0.8,5 0.8,10.5l0,27.8l13.9,0l0,-30.8c0,-4.7 -0.3,-8.2 -0.7,-10.4c-0.5,-2.3 -1.4,-4.3 -2.7,-6.1c-1.3,-1.8 -3.2,-3.3 -5.8,-4.5c-2.6,-1.2 -5.4,-1.8 -8.6,-1.8c-6.2,0 -11.6,2.6 -16.1,7.8l0,-26.6l-13.9,0l0,72.5l13.9,0l0,-26.3c0,-4.4 0.4,-7.7 1.3,-10c0.8,-2.3 2.2,-4 4,-5.1c1.8,-1.1 3.9,-1.7 6.2,-1.7c2,0 3.7,0.4 5,1.3c1.3,0.7 2.2,1.9 2.7,3.4z" class="st0"/>
   <path id="svg_72" fill="#FFFFFF" d="m1396.9,85.3c3,0 5.9,-0.7 8.8,-2.2c2.9,-1.5 5.4,-3.7 7.6,-6.7l0,7.7l12.9,0l0,-72.5l-13.9,0l0,26.1c-4.3,-4.9 -9.4,-7.3 -15.2,-7.3c-6.4,0 -11.7,2.3 -15.9,6.9c-4.2,4.6 -6.3,11.4 -6.3,20.3c0,8.7 2.1,15.5 6.4,20.4c4.4,4.9 9.5,7.3 15.6,7.3zm-4.5,-40.3c2.2,-2.6 5,-4 8.3,-4c3.4,0 6.2,1.3 8.3,4c2.2,2.6 3.3,7 3.3,13c0,5.4 -1.1,9.5 -3.3,12.2c-2.2,2.7 -5,4.1 -8.2,4.1c-4,0 -7.2,-1.8 -9.4,-5.4c-1.5,-2.5 -2.3,-6.6 -2.3,-12.2c0,-5.2 1.1,-9.1 3.3,-11.7z" class="st0"/>
   <polygon id="svg_73" fill="#FFFFFF" points="1578.9000244140625,67.300048828125 1585.4000244140625,60.5 1598.5999755859375,84.0999755859375 1613.5,84.0999755859375 1594.300048828125,50.800048828125 1612.300048828125,31.5999755859375 1595.199951171875,31.5999755859375 1578.9000244140625,50.0999755859375 1578.9000244140625,11.5999755859375 1565,11.5999755859375 1565,84.0999755859375 1578.9000244140625,84.0999755859375 " class="st0"/>
   <path id="svg_74" fill="#FFFFFF" d="m149.3,117.5c2.2,0 4,-0.7 5.4,-2.2c1.4,-1.5 2.2,-3.3 2.2,-5.6c0,-2.4 -0.8,-4.4 -2.2,-5.9c-1.5,-1.5 -3.4,-2.3 -5.7,-2.3c-2.4,0 -4.3,0.7 -5.7,2.2c-1.5,1.5 -2.2,3.4 -2.2,5.7c0,2.4 0.8,4.4 2.3,5.8s3.3,2.3 5.9,2.3z" class="st0"/>
   <path id="svg_75" fill="#FFFFFF" d="m148.9,128.9c-2.4,0 -4.5,1 -6.3,2.9c-1.8,1.9 -2.7,4.5 -2.7,7.7c0,3.1 1,5.6 2.8,7.6c1.9,1.9 4,2.9 6.4,2.9c2.3,0 4.4,-1 6.2,-3c1.8,-2 2.8,-4.5 2.8,-7.5c0,-3.1 -0.9,-5.6 -2.8,-7.6c-1.8,-2 -3.9,-3 -6.4,-3z" class="st0"/>
   <path id="svg_76" fill="#FFFFFF" d="m193.3,57.7l-136.8,0l0,136.8l136.8,0l0,-136.8zm-81.2,103.6l-19.6,0l0,-46.5c-3.2,2.4 -6.2,4.3 -9.2,5.8c-3,1.5 -6.7,2.9 -11.2,4.3l0,-15.9c6.6,-2.1 11.7,-4.7 15.4,-7.6c3.7,-3 6.5,-6.7 8.6,-11.1l16,0l0,71zm63.1,-11.2c-1.6,3 -3.6,5.4 -5.9,7c-2.4,1.6 -5.3,2.9 -8.7,3.6c-3.5,0.8 -7.2,1.2 -11.1,1.2c-7.4,0 -13,-0.9 -17,-2.6c-3.9,-1.8 -6.9,-4.3 -8.9,-7.7c-2,-3.4 -3,-7.2 -3,-11.4c0,-4.1 1,-7.6 2.8,-10.4c1.9,-2.8 4.8,-5 8.8,-6.6c-3,-1.6 -5.3,-3.4 -6.6,-5.4c-1.9,-2.7 -2.9,-5.9 -2.9,-9.4c0,-5.8 2.7,-10.6 8.2,-14.3c4.3,-2.9 9.9,-4.3 17,-4.3c9.3,0 16.2,1.8 20.6,5.3c4.5,3.6 6.7,8 6.7,13.4c0,3.2 -0.9,6.1 -2.7,8.8c-1.3,2 -3.4,4 -6.3,5.9c3.8,1.8 6.6,4.2 8.4,7.2c1.9,3 2.8,6.3 2.8,9.9c0.2,3.5 -0.6,6.7 -2.2,9.8z" class="st0"/>
  </g>
 </g>
</svg>