<svg width="104" height="20.4" xmlns="http://www.w3.org/2000/svg" xml:space="preserve" version="1.1">

 <g>
  <title>Layer 1</title>
  <g id="svg_1">
   <path id="svg_2" fill="#FFFFFF" d="m51.48534,18.04467c-0.05,0 -0.1,-0.01 -0.14,-0.04c-0.04,-0.03 -0.06,-0.06 -0.07,-0.1c-0.01,-0.04 -0.02,-0.18 -0.02,-0.43l0,-1.21l0.54,0l0,-0.64l-0.54,0l0,-1.06l-0.8,0.47l0,0.6l-0.37,0l0,0.64l0.37,0l0,1.31c0,0.28 0.01,0.47 0.03,0.56c0.02,0.13 0.06,0.23 0.11,0.31c0.05,0.08 0.14,0.14 0.25,0.19c0.12,0.05 0.24,0.07 0.39,0.07c0.23,0 0.44,-0.04 0.63,-0.12l-0.07,-0.62c-0.13,0.04 -0.24,0.07 -0.31,0.07z" class="st0"/>
   <path id="svg_3" fill="#FFFFFF" d="m35.66534,15.55467c-0.29,0 -0.56,0.06 -0.8,0.2c-0.24,0.13 -0.42,0.32 -0.55,0.57c-0.13,0.25 -0.2,0.5 -0.2,0.77c0,0.35 0.06,0.64 0.2,0.88c0.13,0.24 0.32,0.42 0.57,0.55c0.25,0.12 0.51,0.19 0.79,0.19c0.45,0 0.82,-0.15 1.11,-0.45c0.29,-0.3 0.44,-0.68 0.44,-1.13c0,-0.45 -0.15,-0.83 -0.44,-1.12c-0.29,-0.31 -0.66,-0.46 -1.12,-0.46zm0.53,2.26c-0.14,0.16 -0.31,0.24 -0.52,0.24s-0.38,-0.08 -0.52,-0.24c-0.14,-0.16 -0.21,-0.39 -0.21,-0.69c0,-0.3 0.07,-0.53 0.21,-0.69c0.14,-0.16 0.32,-0.24 0.52,-0.24s0.38,0.08 0.52,0.24c0.14,0.16 0.21,0.39 0.21,0.68c0,0.31 -0.07,0.54 -0.21,0.7z" class="st0"/>
   <path id="svg_4" fill="#FFFFFF" d="m35.08534,3.64467c0,0.28 0.01,0.47 0.03,0.56c0.02,0.13 0.06,0.23 0.11,0.31c0.05,0.08 0.14,0.14 0.25,0.19c0.12,0.05 0.24,0.07 0.39,0.07c0.23,0 0.44,-0.04 0.63,-0.12l-0.07,-0.62c-0.14,0.05 -0.25,0.08 -0.32,0.08c-0.05,0 -0.1,-0.01 -0.14,-0.04c-0.04,-0.03 -0.06,-0.06 -0.07,-0.1c-0.01,-0.04 -0.01,-0.18 -0.01,-0.43l0,-1.21l0.54,0l0,-0.63l-0.54,0l0,-1.06l-0.8,0.46l0,0.6l-0.37,0l0,0.63l0.37,0l0,1.31z" class="st0"/>
   <path id="svg_5" fill="#FFFFFF" d="m37.77534,3.19467c0,-0.25 0.02,-0.44 0.07,-0.57c0.05,-0.13 0.12,-0.23 0.23,-0.29s0.22,-0.1 0.35,-0.1c0.12,0 0.21,0.03 0.29,0.07c0.07,0.05 0.13,0.12 0.16,0.2c0.03,0.09 0.05,0.29 0.05,0.6l0,1.59l0.8,0l0,-1.77c0,-0.27 -0.01,-0.47 -0.04,-0.6c-0.03,-0.13 -0.08,-0.25 -0.15,-0.35c-0.07,-0.11 -0.19,-0.19 -0.33,-0.26c-0.15,-0.07 -0.31,-0.1 -0.5,-0.1c-0.36,0 -0.67,0.15 -0.92,0.45l0,-1.53l-0.8,0l0,4.16l0.8,0l0,-1.5l-0.01,0z" class="st0"/>
   <path id="svg_6" fill="#FFFFFF" d="m44.83534,3.77467c0,-0.51 0.02,-0.85 0.07,-1.01c0.04,-0.16 0.11,-0.27 0.18,-0.33c0.08,-0.06 0.17,-0.09 0.28,-0.09c0.12,0 0.24,0.04 0.37,0.13l0.25,-0.69c-0.17,-0.1 -0.34,-0.15 -0.52,-0.15c-0.13,0 -0.24,0.03 -0.34,0.1c-0.1,0.07 -0.22,0.2 -0.34,0.4l0,-0.43l-0.74,0l0,3.01l0.8,0l0,-0.94l-0.01,0z" class="st0"/>
   <path id="svg_7" fill="#FFFFFF" d="m40.41534,10.64467l-0.78,-0.13c-0.04,0.21 -0.11,0.36 -0.2,0.44c-0.1,0.09 -0.22,0.13 -0.37,0.13c-0.2,0 -0.36,-0.07 -0.48,-0.22c-0.12,-0.15 -0.18,-0.4 -0.18,-0.76c0,-0.32 0.06,-0.55 0.18,-0.69c0.12,-0.14 0.28,-0.2 0.48,-0.2c0.15,0 0.27,0.04 0.37,0.12c0.09,0.08 0.15,0.2 0.18,0.35l0.79,-0.14c-0.1,-0.32 -0.25,-0.56 -0.47,-0.72c-0.22,-0.16 -0.51,-0.24 -0.88,-0.24c-0.45,0 -0.8,0.14 -1.07,0.41c-0.26,0.28 -0.39,0.66 -0.39,1.16c0,0.49 0.13,0.88 0.39,1.15c0.26,0.28 0.61,0.42 1.05,0.42c0.39,0 0.7,-0.09 0.93,-0.28c0.21,-0.17 0.37,-0.44 0.45,-0.8z" class="st0"/>
   <path id="svg_8" fill="#FFFFFF" d="m42.46534,9.44467l0.72,0.13c0.05,-0.14 0.11,-0.24 0.19,-0.29c0.08,-0.06 0.19,-0.08 0.33,-0.08c0.21,0 0.35,0.03 0.43,0.1c0.08,0.06 0.11,0.17 0.11,0.33l0,0.08c-0.14,0.06 -0.4,0.13 -0.77,0.2c-0.28,0.05 -0.49,0.12 -0.63,0.19c-0.15,0.07 -0.26,0.17 -0.34,0.31c-0.08,0.13 -0.12,0.29 -0.12,0.46c0,0.26 0.09,0.47 0.27,0.64c0.18,0.17 0.42,0.25 0.73,0.25c0.18,0 0.34,-0.03 0.5,-0.1c0.15,-0.07 0.3,-0.17 0.44,-0.3c0.01,0.01 0.01,0.05 0.03,0.09c0.03,0.1 0.06,0.18 0.08,0.24l0.79,0c-0.07,-0.14 -0.12,-0.28 -0.14,-0.4c-0.03,-0.13 -0.04,-0.32 -0.04,-0.59l0.01,-0.93c0,-0.35 -0.04,-0.58 -0.11,-0.71c-0.07,-0.13 -0.19,-0.24 -0.37,-0.32c-0.18,-0.08 -0.44,-0.13 -0.79,-0.13c-0.39,0 -0.69,0.07 -0.88,0.21c-0.22,0.12 -0.36,0.33 -0.44,0.62zm1.78,0.94c0,0.19 -0.01,0.32 -0.03,0.39c-0.03,0.1 -0.09,0.19 -0.19,0.26c-0.13,0.1 -0.27,0.14 -0.41,0.14c-0.13,0 -0.23,-0.04 -0.32,-0.12c-0.08,-0.08 -0.13,-0.18 -0.13,-0.29c0,-0.11 0.05,-0.21 0.16,-0.28c0.07,-0.05 0.21,-0.09 0.43,-0.14c0.22,-0.05 0.38,-0.09 0.48,-0.12l0,0.16l0.01,0z" class="st0"/>
   <polygon id="svg_9" fill="#FFFFFF" points="29.405343532562256,17.254672050476074 27.705338954925537,14.4846830368042 26.895341396331787,14.4846830368042 26.895341396331787,18.634676933288574 27.675340175628662,18.634676933288574 27.675340175628662,15.924654960632324 29.345345973968506,18.634676933288574 30.18534231185913,18.634676933288574 30.18534231185913,14.4846830368042 29.405343532562256,14.4846830368042 " class="st0"/>
   <path id="svg_10" fill="#FFFFFF" d="m28.12534,3.75467l1.66,0l0.36,0.94l0.91,0l-1.66,-4.16l-0.89,0l-1.62,4.16l0.89,0l0.35,-0.94zm0.82,-2.24l0.57,1.54l-1.13,0l0.56,-1.54z" class="st0"/>
   <path id="svg_11" fill="#FFFFFF" d="m33.27534,16.00467c-0.26,-0.3 -0.61,-0.44 -1.06,-0.44c-0.4,0 -0.73,0.14 -0.99,0.42c-0.26,0.28 -0.39,0.67 -0.39,1.17c0,0.42 0.1,0.76 0.3,1.04c0.25,0.34 0.64,0.51 1.16,0.51c0.33,0 0.61,-0.08 0.83,-0.23c0.22,-0.15 0.38,-0.37 0.48,-0.67l-0.79,-0.13c-0.04,0.15 -0.11,0.26 -0.19,0.33c-0.09,0.07 -0.19,0.1 -0.31,0.1c-0.18,0 -0.34,-0.07 -0.46,-0.2c-0.12,-0.13 -0.19,-0.31 -0.19,-0.55l2,0c0,-0.61 -0.13,-1.06 -0.39,-1.35zm-1.61,0.87c0,-0.22 0.05,-0.39 0.17,-0.52c0.11,-0.13 0.26,-0.19 0.43,-0.19c0.16,0 0.3,0.06 0.41,0.18c0.11,0.12 0.17,0.29 0.18,0.53l-1.19,0z" class="st0"/>
   <path id="svg_12" fill="#FFFFFF" d="m32.63534,8.59467c-0.2,0 -0.38,0.05 -0.55,0.14c-0.16,0.1 -0.29,0.22 -0.39,0.37l0,-0.44l-0.74,0l0,4.15l0.8,0l0,-1.52c0.15,0.16 0.29,0.27 0.43,0.34c0.14,0.07 0.29,0.1 0.45,0.1c0.35,0 0.65,-0.14 0.89,-0.42c0.25,-0.28 0.37,-0.67 0.37,-1.17c0,-0.49 -0.12,-0.87 -0.37,-1.14c-0.25,-0.28 -0.54,-0.41 -0.89,-0.41zm0.26,2.29c-0.12,0.15 -0.28,0.22 -0.46,0.22c-0.19,0 -0.36,-0.08 -0.49,-0.24c-0.13,-0.16 -0.2,-0.41 -0.2,-0.75c0,-0.3 0.06,-0.52 0.19,-0.67c0.13,-0.15 0.29,-0.22 0.49,-0.22c0.19,0 0.34,0.08 0.47,0.23c0.13,0.15 0.19,0.39 0.19,0.7c-0.01,0.34 -0.07,0.58 -0.19,0.73z" class="st0"/>
   <path id="svg_13" fill="#FFFFFF" d="m31.94534,4.63467c0.16,0.09 0.34,0.13 0.54,0.13c0.2,0 0.39,-0.05 0.57,-0.14c0.18,-0.09 0.32,-0.22 0.43,-0.38l0,0.45l0.74,0l0,-3.01l-0.8,0l0,1.27c0,0.43 -0.02,0.7 -0.06,0.81c-0.04,0.11 -0.11,0.2 -0.22,0.28c-0.11,0.07 -0.23,0.11 -0.37,0.11c-0.12,0 -0.22,-0.03 -0.3,-0.08c-0.08,-0.06 -0.13,-0.13 -0.16,-0.23c-0.03,-0.1 -0.04,-0.35 -0.04,-0.78l0,-1.38l-0.8,0l0,1.9c0,0.29 0.03,0.51 0.11,0.67c0.08,0.17 0.2,0.29 0.36,0.38z" class="st0"/>
   <rect id="svg_14" fill="#FFFFFF" height="4.16" width="0.8" class="st0" y="7.51467" x="45.81534"/>
   <path id="svg_15" fill="#FFFFFF" d="m50.31534,4.00467l-1.23,0c-0.05,0 -0.19,0.01 -0.41,0.02l0.41,-0.44l1.15,-1.33l0,-0.56l-2.49,0l0,0.66l1.06,-0.01c0.15,0 0.27,-0.01 0.37,-0.01c-0.09,0.09 -0.23,0.24 -0.41,0.45l-1.13,1.3l0,0.62l2.69,0l0,-0.7l-0.01,0z" class="st0"/>
   <path id="svg_16" fill="#FFFFFF" d="m48.24534,15.55467c-0.29,0 -0.56,0.06 -0.8,0.2c-0.24,0.13 -0.42,0.32 -0.55,0.57c-0.13,0.25 -0.2,0.5 -0.2,0.77c0,0.35 0.07,0.64 0.2,0.88c0.13,0.24 0.32,0.42 0.57,0.55c0.25,0.12 0.51,0.19 0.79,0.19c0.45,0 0.82,-0.15 1.11,-0.45c0.29,-0.3 0.44,-0.68 0.44,-1.13c0,-0.45 -0.15,-0.83 -0.44,-1.12c-0.29,-0.31 -0.66,-0.46 -1.12,-0.46zm0.53,2.26c-0.14,0.16 -0.32,0.24 -0.52,0.24c-0.21,0 -0.38,-0.08 -0.52,-0.24c-0.14,-0.16 -0.21,-0.39 -0.21,-0.69c0,-0.3 0.07,-0.53 0.21,-0.69c0.14,-0.16 0.32,-0.24 0.52,-0.24c0.21,0 0.38,0.08 0.52,0.24c0.14,0.16 0.21,0.39 0.21,0.68c0,0.31 -0.07,0.54 -0.21,0.7z" class="st0"/>
   <path id="svg_17" fill="#FFFFFF" d="m52.07534,4.77467c0.33,0 0.61,-0.08 0.83,-0.23c0.22,-0.15 0.38,-0.37 0.48,-0.67l-0.79,-0.13c-0.04,0.15 -0.11,0.26 -0.19,0.33c-0.08,0.07 -0.19,0.1 -0.31,0.1c-0.18,0 -0.34,-0.07 -0.46,-0.2c-0.12,-0.13 -0.19,-0.31 -0.19,-0.55l2,0c0.01,-0.61 -0.11,-1.06 -0.37,-1.36c-0.26,-0.3 -0.61,-0.44 -1.06,-0.44c-0.4,0 -0.73,0.14 -0.99,0.42c-0.26,0.28 -0.39,0.67 -0.39,1.17c0,0.42 0.1,0.76 0.3,1.04c0.23,0.34 0.62,0.52 1.14,0.52zm-0.46,-2.35c0.11,-0.13 0.26,-0.19 0.43,-0.19c0.16,0 0.3,0.06 0.41,0.18c0.11,0.12 0.17,0.29 0.18,0.52l-1.19,0c0,-0.21 0.06,-0.39 0.17,-0.51z" class="st0"/>
   <path id="svg_18" fill="#FFFFFF" d="m50.67534,11.04467c-0.1,0.07 -0.26,0.11 -0.47,0.11c-0.19,0 -0.33,-0.04 -0.44,-0.12c-0.1,-0.08 -0.17,-0.2 -0.21,-0.35l-0.8,0.12c0.07,0.29 0.23,0.51 0.47,0.68c0.24,0.17 0.56,0.25 0.97,0.25c0.45,0 0.79,-0.1 1.02,-0.3c0.23,-0.2 0.35,-0.43 0.35,-0.71c0,-0.25 -0.08,-0.45 -0.25,-0.59c-0.17,-0.14 -0.46,-0.26 -0.89,-0.35c-0.42,-0.1 -0.67,-0.17 -0.75,-0.22c-0.05,-0.04 -0.08,-0.09 -0.08,-0.14c0,-0.07 0.03,-0.12 0.09,-0.16c0.09,-0.06 0.24,-0.09 0.45,-0.09c0.17,0 0.29,0.03 0.39,0.09c0.09,0.06 0.15,0.15 0.18,0.27l0.75,-0.14c-0.08,-0.26 -0.21,-0.46 -0.41,-0.6c-0.2,-0.14 -0.51,-0.2 -0.92,-0.2c-0.43,0 -0.75,0.09 -0.96,0.27c-0.21,0.18 -0.31,0.4 -0.31,0.66c0,0.29 0.12,0.52 0.36,0.68c0.17,0.12 0.58,0.25 1.22,0.39c0.14,0.03 0.23,0.07 0.27,0.1c0.04,0.04 0.06,0.09 0.06,0.15c0.01,0.08 -0.02,0.15 -0.09,0.2z" class="st0"/>
   <rect id="svg_19" fill="#FFFFFF" height="0.74" width="0.8" class="st0" y="0.54467" x="46.33534"/>
   <rect id="svg_20" fill="#FFFFFF" height="3.01" width="0.8" class="st0" y="8.65467" x="47.43534"/>
   <rect id="svg_21" fill="#FFFFFF" height="0.74" width="0.8" class="st0" y="7.51467" x="47.43534"/>
   <rect id="svg_22" fill="#FFFFFF" height="0.74" width="0.8" class="st0" y="7.51467" x="40.97534"/>
   <polygon id="svg_23" fill="#FFFFFF" points="43.13533926010132,14.4846830368042 42.01534414291382,14.4846830368042 40.3153395652771,16.324679374694824 40.3153395652771,14.4846830368042 39.475343227386475,14.4846830368042 39.475343227386475,18.634676933288574 40.3153395652771,18.634676933288574 40.3153395652771,17.384676933288574 40.99533987045288,16.684664726257324 42.13533926010132,18.634676933288574 43.225343227386475,18.634676933288574 41.57534170150757,16.0946683883667 " class="st0"/>
   <rect id="svg_24" fill="#FFFFFF" height="3.01" width="0.8" class="st0" y="8.65467" x="40.97534"/>
   <path id="svg_25" fill="#FFFFFF" d="m41.11534,4.58467c0.25,0.13 0.51,0.19 0.79,0.19c0.45,0 0.82,-0.15 1.11,-0.45c0.29,-0.3 0.44,-0.68 0.44,-1.13c0,-0.45 -0.15,-0.83 -0.44,-1.12c-0.29,-0.3 -0.67,-0.44 -1.12,-0.44c-0.29,0 -0.56,0.06 -0.8,0.2c-0.24,0.13 -0.42,0.32 -0.56,0.57c-0.13,0.25 -0.2,0.5 -0.2,0.77c0,0.35 0.07,0.64 0.2,0.88c0.14,0.22 0.33,0.4 0.58,0.53zm0.26,-2.07c0.14,-0.16 0.32,-0.24 0.52,-0.24c0.21,0 0.38,0.08 0.52,0.24c0.14,0.16 0.21,0.39 0.21,0.68c0,0.3 -0.07,0.53 -0.21,0.69c-0.14,0.16 -0.32,0.24 -0.52,0.24c-0.21,0 -0.38,-0.08 -0.52,-0.24c-0.14,-0.16 -0.21,-0.39 -0.21,-0.69c0,-0.3 0.07,-0.53 0.21,-0.68z" class="st0"/>
   <path id="svg_26" fill="#FFFFFF" d="m44.84534,17.76467l-0.72,-2.14l-0.85,0l1.15,3.02c-0.05,0.17 -0.12,0.31 -0.2,0.42c-0.09,0.11 -0.23,0.16 -0.41,0.16c-0.1,0 -0.21,-0.01 -0.34,-0.04l0.07,0.62c0.15,0.03 0.3,0.05 0.45,0.05c0.15,0 0.29,-0.01 0.41,-0.05c0.12,-0.03 0.22,-0.08 0.3,-0.14c0.08,-0.06 0.16,-0.13 0.22,-0.22c0.06,-0.09 0.13,-0.23 0.2,-0.4l0.19,-0.52l1.06,-2.9l-0.83,0l-0.7,2.14z" class="st0"/>
   <rect id="svg_27" fill="#FFFFFF" height="3.01" width="0.8" class="st0" y="1.69467" x="46.33534"/>
   <path id="svg_28" fill="#FFFFFF" d="m35.74534,11.73467c0.33,0 0.61,-0.08 0.83,-0.23c0.22,-0.15 0.38,-0.37 0.48,-0.67l-0.79,-0.13c-0.04,0.15 -0.11,0.26 -0.19,0.33c-0.09,0.07 -0.19,0.1 -0.32,0.1c-0.18,0 -0.34,-0.07 -0.46,-0.2c-0.12,-0.13 -0.19,-0.31 -0.19,-0.55l2,0c0.01,-0.61 -0.11,-1.06 -0.37,-1.36c-0.26,-0.29 -0.61,-0.44 -1.06,-0.44c-0.4,0 -0.73,0.14 -0.99,0.42c-0.26,0.28 -0.39,0.67 -0.39,1.17c0,0.42 0.1,0.76 0.3,1.04c0.24,0.35 0.63,0.52 1.15,0.52zm-0.46,-2.34c0.11,-0.13 0.26,-0.19 0.43,-0.19c0.16,0 0.3,0.06 0.41,0.18c0.11,0.12 0.17,0.29 0.18,0.53l-1.19,0c0,-0.23 0.06,-0.4 0.17,-0.52z" class="st0"/>
   <path id="svg_29" fill="#FFFFFF" d="m29.64534,9.37467c-0.2,-0.1 -0.5,-0.2 -0.91,-0.3c-0.41,-0.1 -0.67,-0.19 -0.77,-0.28c-0.08,-0.07 -0.12,-0.15 -0.12,-0.25c0,-0.11 0.04,-0.19 0.13,-0.26c0.14,-0.1 0.33,-0.15 0.57,-0.15c0.24,0 0.41,0.05 0.53,0.14c0.12,0.09 0.2,0.25 0.23,0.46l0.84,-0.04c-0.01,-0.38 -0.15,-0.69 -0.42,-0.92c-0.26,-0.23 -0.66,-0.34 -1.18,-0.34c-0.32,0 -0.59,0.05 -0.82,0.14c-0.23,0.1 -0.4,0.24 -0.52,0.42c-0.12,0.18 -0.18,0.38 -0.18,0.59c0,0.33 0.13,0.61 0.38,0.84c0.18,0.16 0.5,0.3 0.95,0.41c0.35,0.09 0.57,0.15 0.67,0.18c0.14,0.05 0.24,0.11 0.3,0.18c0.06,0.07 0.09,0.15 0.09,0.25c0,0.15 -0.07,0.29 -0.2,0.4c-0.14,0.12 -0.34,0.17 -0.61,0.17c-0.26,0 -0.46,-0.06 -0.61,-0.19c-0.15,-0.13 -0.25,-0.33 -0.3,-0.6l-0.82,0.08c0.05,0.46 0.22,0.82 0.5,1.06c0.28,0.24 0.69,0.36 1.21,0.36c0.36,0 0.66,-0.05 0.9,-0.15c0.24,-0.1 0.43,-0.26 0.56,-0.46c0.13,-0.21 0.2,-0.43 0.2,-0.67c0,-0.26 -0.06,-0.48 -0.17,-0.66c-0.08,-0.17 -0.23,-0.31 -0.43,-0.41z" class="st0"/>
   <path id="svg_30" fill="#FFFFFF" d="m98.36534,10.68467l0.01,-0.93c0,-0.35 -0.04,-0.58 -0.11,-0.71c-0.07,-0.13 -0.19,-0.24 -0.37,-0.32c-0.18,-0.08 -0.44,-0.13 -0.79,-0.13c-0.39,0 -0.69,0.07 -0.88,0.21c-0.2,0.14 -0.34,0.36 -0.42,0.65l0.72,0.13c0.05,-0.14 0.11,-0.24 0.19,-0.29c0.08,-0.06 0.19,-0.08 0.33,-0.08c0.21,0 0.35,0.03 0.43,0.1c0.08,0.06 0.11,0.17 0.11,0.33l0,0.08c-0.14,0.06 -0.4,0.13 -0.77,0.2c-0.28,0.05 -0.49,0.12 -0.63,0.19c-0.15,0.07 -0.26,0.17 -0.34,0.31c-0.08,0.13 -0.12,0.29 -0.12,0.46c0,0.26 0.09,0.47 0.27,0.64c0.18,0.17 0.42,0.25 0.73,0.25c0.18,0 0.34,-0.03 0.5,-0.1c0.15,-0.07 0.3,-0.17 0.44,-0.3c0.01,0.01 0.01,0.05 0.03,0.09c0.03,0.1 0.06,0.18 0.08,0.24l0.79,0c-0.07,-0.14 -0.12,-0.28 -0.14,-0.4c-0.05,-0.16 -0.06,-0.36 -0.06,-0.62zm-0.78,-0.3c0,0.19 -0.01,0.32 -0.03,0.39c-0.03,0.1 -0.09,0.19 -0.19,0.26c-0.13,0.1 -0.27,0.14 -0.41,0.14c-0.13,0 -0.23,-0.04 -0.32,-0.12c-0.08,-0.08 -0.13,-0.18 -0.13,-0.29c0,-0.11 0.05,-0.21 0.16,-0.28c0.07,-0.05 0.21,-0.09 0.43,-0.14c0.22,-0.05 0.38,-0.09 0.48,-0.12l0,0.16l0.01,0z" class="st0"/>
   <polygon id="svg_31" fill="#FFFFFF" points="74.75534200668335,3.624667167663574 73.70533895492554,0.5446805953979492 72.79533529281616,0.5446805953979492 74.28534078598022,4.704684257507324 75.18534994125366,4.704684257507324 76.66534566879272,0.5446805953979492 75.77534627914429,0.5446805953979492 " class="st0"/>
   <path id="svg_32" fill="#FFFFFF" d="m94.27534,1.91467l-0.4,0l-0.67,1.72l-0.02,0.04l0.43,0l0.14,-0.39l0.63,0l0.15,0.39l0.44,0l-0.7,-1.74l0,-0.02zm-0.39,1.03l0.19,-0.51l0.19,0.51l-0.38,0z" class="st0"/>
   <rect id="svg_33" fill="#FFFFFF" height="4.16" width="0.8" class="st0" y="7.51467" x="76.03534"/>
   <rect id="svg_34" fill="#FFFFFF" height="3.01" width="0.8" class="st0" y="1.69467" x="76.98534"/>
   <path id="svg_35" fill="#FFFFFF" d="m73.85534,8.59467c-0.3,0 -0.56,0.06 -0.8,0.2c-0.24,0.13 -0.42,0.32 -0.55,0.57c-0.13,0.25 -0.2,0.5 -0.2,0.77c0,0.35 0.07,0.64 0.2,0.88c0.13,0.24 0.32,0.42 0.57,0.55c0.25,0.13 0.51,0.19 0.79,0.19c0.45,0 0.81,-0.15 1.11,-0.45c0.29,-0.3 0.44,-0.68 0.44,-1.13c0,-0.45 -0.15,-0.83 -0.44,-1.12c-0.29,-0.32 -0.67,-0.46 -1.12,-0.46zm0.52,2.26c-0.14,0.16 -0.32,0.24 -0.52,0.24c-0.21,0 -0.38,-0.08 -0.52,-0.24c-0.14,-0.16 -0.21,-0.39 -0.21,-0.69c0,-0.3 0.07,-0.53 0.21,-0.69c0.14,-0.16 0.32,-0.24 0.52,-0.24c0.21,0 0.38,0.08 0.52,0.24c0.14,0.16 0.21,0.39 0.21,0.68c0,0.31 -0.06,0.54 -0.21,0.7z" class="st0"/>
   <path id="svg_36" fill="#FFFFFF" d="m68.64534,4.58467c0.25,0.13 0.51,0.19 0.79,0.19c0.45,0 0.82,-0.15 1.11,-0.45c0.29,-0.3 0.44,-0.68 0.44,-1.13c0,-0.45 -0.15,-0.83 -0.44,-1.12c-0.29,-0.3 -0.66,-0.44 -1.12,-0.44c-0.29,0 -0.56,0.06 -0.8,0.2c-0.24,0.13 -0.42,0.32 -0.55,0.57c-0.13,0.25 -0.2,0.5 -0.2,0.77c0,0.35 0.06,0.64 0.2,0.88c0.13,0.22 0.32,0.4 0.57,0.53zm0.26,-2.07c0.14,-0.16 0.32,-0.24 0.52,-0.24c0.21,0 0.38,0.08 0.52,0.24c0.14,0.16 0.21,0.39 0.21,0.68c0,0.3 -0.07,0.53 -0.21,0.69c-0.14,0.16 -0.31,0.24 -0.52,0.24c-0.21,0 -0.38,-0.08 -0.52,-0.24c-0.14,-0.16 -0.21,-0.39 -0.21,-0.69c-0.01,-0.3 0.07,-0.53 0.21,-0.68z" class="st0"/>
   <path id="svg_37" fill="#FFFFFF" d="m103.44534,9.12467c-0.07,-0.17 -0.19,-0.31 -0.34,-0.4c-0.15,-0.09 -0.34,-0.13 -0.56,-0.13c-0.17,0 -0.34,0.04 -0.49,0.12c-0.15,0.08 -0.3,0.2 -0.43,0.36c-0.09,-0.16 -0.21,-0.28 -0.35,-0.36c-0.14,-0.08 -0.31,-0.12 -0.5,-0.12c-0.36,0 -0.68,0.16 -0.94,0.48l0,-0.41l-0.73,0l0,3.01l0.8,0l0,-1.46c0,-0.29 0.02,-0.5 0.06,-0.62c0.04,-0.12 0.11,-0.22 0.21,-0.29c0.1,-0.07 0.21,-0.1 0.33,-0.1c0.1,0 0.18,0.02 0.24,0.06c0.06,0.04 0.1,0.11 0.13,0.19c0.03,0.09 0.04,0.27 0.04,0.57l0,1.65l0.8,0l0,-1.45c0,-0.28 0.02,-0.49 0.07,-0.62c0.04,-0.13 0.11,-0.23 0.21,-0.3c0.1,-0.07 0.2,-0.1 0.31,-0.1c0.15,0 0.27,0.06 0.34,0.17c0.05,0.09 0.08,0.28 0.08,0.58l0,1.72l0.8,0l0,-1.93c0,-0.29 -0.03,-0.5 -0.08,-0.62z" class="st0"/>
   <path id="svg_38" fill="#FFFFFF" d="m94.90534,9.03467c-0.26,-0.29 -0.61,-0.44 -1.06,-0.44c-0.4,0 -0.73,0.14 -0.99,0.42c-0.26,0.28 -0.39,0.67 -0.39,1.17c0,0.42 0.1,0.76 0.3,1.04c0.25,0.34 0.64,0.51 1.16,0.51c0.33,0 0.61,-0.08 0.83,-0.23c0.22,-0.15 0.38,-0.37 0.48,-0.67l-0.79,-0.13c-0.04,0.15 -0.11,0.26 -0.19,0.33c-0.09,0.07 -0.19,0.1 -0.32,0.1c-0.18,0 -0.34,-0.07 -0.46,-0.2c-0.12,-0.13 -0.19,-0.31 -0.19,-0.55l2,0c0,-0.6 -0.12,-1.06 -0.38,-1.35zm-1.61,0.87c0,-0.22 0.05,-0.39 0.17,-0.52c0.11,-0.13 0.26,-0.19 0.43,-0.19c0.16,0 0.3,0.06 0.41,0.18c0.11,0.12 0.17,0.29 0.18,0.53l-1.19,0z" class="st0"/>
   <path id="svg_39" fill="#FFFFFF" d="m68.30534,14.46467c-0.39,0 -0.71,0.13 -0.96,0.39c-0.25,0.26 -0.37,0.6 -0.37,1.02c0,0.41 0.12,0.73 0.35,0.99c0.24,0.25 0.52,0.38 0.85,0.38c0.3,0 0.55,-0.12 0.75,-0.35c-0.03,0.48 -0.11,0.79 -0.22,0.94c-0.12,0.15 -0.26,0.23 -0.42,0.23c-0.13,0 -0.24,-0.04 -0.31,-0.11c-0.08,-0.07 -0.13,-0.19 -0.15,-0.35l-0.77,0.09c0.06,0.34 0.19,0.6 0.39,0.77c0.2,0.17 0.46,0.26 0.79,0.26c0.45,0 0.82,-0.17 1.1,-0.5c0.28,-0.34 0.42,-0.88 0.42,-1.64c0,-0.75 -0.14,-1.28 -0.41,-1.61c-0.27,-0.35 -0.61,-0.51 -1.04,-0.51zm0.4,2c-0.11,0.12 -0.23,0.18 -0.39,0.18c-0.16,0 -0.29,-0.06 -0.4,-0.19c-0.11,-0.13 -0.16,-0.32 -0.16,-0.59c0,-0.26 0.05,-0.45 0.15,-0.57c0.1,-0.12 0.22,-0.18 0.37,-0.18c0.16,0 0.29,0.07 0.41,0.21c0.12,0.14 0.18,0.34 0.18,0.6c-0.01,0.24 -0.06,0.42 -0.16,0.54z" class="st0"/>
   <path id="svg_40" fill="#FFFFFF" d="m71.47534,8.92467c-0.07,-0.1 -0.18,-0.18 -0.33,-0.24c-0.15,-0.06 -0.31,-0.1 -0.48,-0.1c-0.4,0 -0.73,0.17 -0.99,0.51l0,-0.44l-0.74,0l0,3.01l0.8,0l0,-1.36c0,-0.34 0.02,-0.57 0.06,-0.69c0.04,-0.13 0.12,-0.22 0.23,-0.3c0.11,-0.07 0.23,-0.11 0.37,-0.11c0.11,0 0.2,0.03 0.28,0.08c0.08,0.05 0.13,0.13 0.17,0.22c0.03,0.1 0.05,0.31 0.05,0.63l0,1.54l0.8,0l0,-1.87c0,-0.23 -0.01,-0.41 -0.04,-0.54c-0.05,-0.13 -0.1,-0.24 -0.18,-0.34z" class="st0"/>
   <path id="svg_41" fill="#FFFFFF" d="m94.08534,0.54467c-1.15,0 -2.08,0.93 -2.08,2.08c0,1.15 0.93,2.08 2.08,2.08c1.15,0 2.08,-0.93 2.08,-2.08c-0.01,-1.15 -0.94,-2.08 -2.08,-2.08zm0,3.54c-0.81,0 -1.46,-0.66 -1.46,-1.46c0,-0.81 0.66,-1.46 1.46,-1.46c0.81,0 1.46,0.66 1.46,1.46c0,0.81 -0.66,1.46 -1.46,1.46z" class="st0"/>
   <polygon id="svg_42" fill="#FFFFFF" points="92.59533834457397,7.514681816101074 89.28534078598022,7.514681816101074 89.28534078598022,8.2146635055542 90.52534627914429,8.2146635055542 90.52534627914429,11.674654960632324 91.36534261703491,11.674654960632324 91.36534261703491,8.2146635055542 92.59533834457397,8.2146635055542 " class="st0"/>
   <path id="svg_43" fill="#FFFFFF" d="m88.77534,3.71467l0.01,-0.93c0,-0.35 -0.03,-0.58 -0.11,-0.71c-0.07,-0.13 -0.19,-0.24 -0.37,-0.32c-0.17,-0.08 -0.44,-0.13 -0.79,-0.13c-0.39,0 -0.69,0.07 -0.88,0.21c-0.2,0.14 -0.34,0.36 -0.42,0.65l0.72,0.13c0.05,-0.14 0.11,-0.24 0.19,-0.29c0.08,-0.06 0.19,-0.08 0.33,-0.08c0.21,0 0.35,0.03 0.43,0.1c0.07,0.06 0.11,0.17 0.11,0.33l0,0.08c-0.14,0.06 -0.4,0.13 -0.77,0.2c-0.28,0.05 -0.49,0.12 -0.63,0.19c-0.15,0.07 -0.26,0.17 -0.34,0.31c-0.08,0.13 -0.12,0.29 -0.12,0.45c0,0.26 0.09,0.47 0.27,0.64c0.18,0.17 0.42,0.25 0.73,0.25c0.18,0 0.34,-0.03 0.5,-0.1c0.16,-0.07 0.3,-0.16 0.44,-0.3c0.01,0.01 0.01,0.05 0.03,0.09c0.03,0.1 0.05,0.18 0.08,0.24l0.79,0c-0.07,-0.14 -0.12,-0.28 -0.14,-0.41c-0.05,-0.14 -0.06,-0.34 -0.06,-0.6zm-0.78,-0.3c0,0.19 -0.01,0.32 -0.03,0.39c-0.03,0.1 -0.09,0.19 -0.19,0.26c-0.13,0.1 -0.27,0.14 -0.41,0.14c-0.13,0 -0.23,-0.04 -0.32,-0.12c-0.08,-0.08 -0.12,-0.18 -0.12,-0.29c0,-0.11 0.05,-0.21 0.16,-0.28c0.07,-0.05 0.21,-0.09 0.43,-0.14c0.22,-0.05 0.38,-0.09 0.48,-0.12l0,0.16z" class="st0"/>
   <path id="svg_44" fill="#FFFFFF" d="m84.77534,4.25467l0,0.45l0.74,0l0,-3.01l-0.8,0l0,1.27c0,0.43 -0.02,0.7 -0.06,0.81c-0.04,0.11 -0.11,0.2 -0.22,0.28c-0.11,0.07 -0.23,0.11 -0.37,0.11c-0.12,0 -0.22,-0.03 -0.3,-0.08c-0.08,-0.06 -0.13,-0.13 -0.16,-0.23c-0.03,-0.1 -0.05,-0.35 -0.05,-0.78l0,-1.38l-0.79,0l0,1.9c0,0.29 0.03,0.51 0.11,0.67c0.07,0.16 0.19,0.29 0.35,0.37c0.16,0.09 0.34,0.13 0.54,0.13c0.2,0 0.39,-0.05 0.57,-0.14c0.19,-0.09 0.33,-0.21 0.44,-0.37z" class="st0"/>
   <path id="svg_45" fill="#FFFFFF" d="m85.92534,10.79467l-0.72,-2.14l-0.84,0l1.15,3.02c-0.05,0.17 -0.12,0.31 -0.2,0.42c-0.09,0.11 -0.23,0.16 -0.41,0.16c-0.1,0 -0.21,-0.01 -0.34,-0.04l0.07,0.62c0.15,0.03 0.3,0.05 0.45,0.05s0.29,-0.01 0.41,-0.05c0.12,-0.03 0.22,-0.08 0.3,-0.14c0.08,-0.06 0.16,-0.13 0.22,-0.22c0.06,-0.09 0.13,-0.23 0.2,-0.4l0.19,-0.52l1.06,-2.9l-0.83,0l-0.71,2.14z" class="st0"/>
   <path id="svg_46" fill="#FFFFFF" d="m94.29534,1.79467c0.1,0 0.17,-0.08 0.17,-0.17c0,-0.1 -0.08,-0.17 -0.17,-0.17c-0.1,0 -0.17,0.08 -0.17,0.17c0,0.09 0.08,0.17 0.17,0.17z" class="st0"/>
   <rect id="svg_47" fill="#FFFFFF" height="4.16" width="0.8" class="st0" y="0.54467" x="89.56534"/>
   <path id="svg_48" fill="#FFFFFF" d="m81.28534,4.69467c0.12,0.05 0.24,0.07 0.39,0.07c0.23,0 0.44,-0.04 0.63,-0.12l-0.07,-0.62c-0.14,0.05 -0.25,0.08 -0.32,0.08c-0.05,0 -0.1,-0.01 -0.13,-0.04c-0.04,-0.03 -0.06,-0.06 -0.07,-0.1c-0.01,-0.04 -0.02,-0.18 -0.02,-0.43l0,-1.21l0.54,0l0,-0.63l-0.54,0l0,-1.06l-0.8,0.46l0,0.6l-0.37,0l0,0.63l0.37,0l0,1.31c0,0.28 0.01,0.47 0.03,0.56c0.02,0.13 0.06,0.23 0.11,0.31c0.05,0.08 0.14,0.15 0.25,0.19z" class="st0"/>
   <path id="svg_49" fill="#FFFFFF" d="m79.01534,8.59467c-0.3,0 -0.56,0.06 -0.8,0.2c-0.24,0.13 -0.42,0.32 -0.55,0.57c-0.13,0.25 -0.2,0.5 -0.2,0.77c0,0.35 0.07,0.64 0.2,0.88c0.13,0.24 0.32,0.42 0.57,0.55c0.25,0.13 0.51,0.19 0.79,0.19c0.45,0 0.81,-0.15 1.11,-0.45c0.29,-0.3 0.44,-0.68 0.44,-1.13c0,-0.45 -0.14,-0.83 -0.44,-1.12c-0.29,-0.32 -0.67,-0.46 -1.12,-0.46zm0.52,2.26c-0.14,0.16 -0.31,0.24 -0.52,0.24c-0.21,0 -0.38,-0.08 -0.52,-0.24c-0.14,-0.16 -0.21,-0.39 -0.21,-0.69c0,-0.3 0.07,-0.53 0.21,-0.69c0.14,-0.16 0.32,-0.24 0.52,-0.24c0.21,0 0.38,0.08 0.52,0.24s0.21,0.39 0.21,0.68c0,0.31 -0.07,0.54 -0.21,0.7z" class="st0"/>
   <path id="svg_50" fill="#FFFFFF" d="m79.36534,3.77467c0,-0.51 0.02,-0.85 0.07,-1.01c0.04,-0.16 0.11,-0.27 0.18,-0.33s0.17,-0.09 0.28,-0.09c0.12,0 0.24,0.04 0.37,0.13l0.25,-0.69c-0.17,-0.1 -0.34,-0.15 -0.52,-0.15c-0.13,0 -0.24,0.03 -0.35,0.1c-0.1,0.07 -0.21,0.2 -0.34,0.4l0,-0.43l-0.74,0l0,3.01l0.8,0l0,-0.94z" class="st0"/>
   <path id="svg_51" fill="#FFFFFF" d="m83.20534,9.08467c-0.24,-0.33 -0.55,-0.49 -0.92,-0.49c-0.36,0 -0.66,0.13 -0.91,0.4c-0.24,0.27 -0.36,0.65 -0.36,1.16c0,0.4 0.09,0.74 0.28,1.01c0.24,0.34 0.56,0.51 0.96,0.51c0.36,0 0.66,-0.16 0.9,-0.49l0,0.44c0,0.18 -0.01,0.3 -0.04,0.37c-0.03,0.09 -0.09,0.16 -0.16,0.2c-0.1,0.06 -0.26,0.09 -0.47,0.09c-0.16,0 -0.28,-0.03 -0.36,-0.09c-0.05,-0.04 -0.09,-0.11 -0.1,-0.22l-0.91,-0.11c0,0.04 0,0.07 0,0.1c0,0.27 0.11,0.49 0.32,0.67c0.21,0.18 0.58,0.26 1.09,0.26c0.27,0 0.5,-0.03 0.67,-0.08c0.18,-0.06 0.32,-0.14 0.42,-0.24c0.11,-0.1 0.19,-0.24 0.25,-0.41c0.06,-0.18 0.09,-0.44 0.09,-0.8l0,-2.7l-0.75,0l0,0.42zm-0.24,1.71c-0.13,0.15 -0.3,0.23 -0.49,0.23c-0.18,0 -0.33,-0.07 -0.46,-0.22c-0.12,-0.15 -0.18,-0.38 -0.18,-0.7c0,-0.31 0.06,-0.53 0.18,-0.68c0.12,-0.15 0.28,-0.22 0.47,-0.22c0.2,0 0.36,0.08 0.49,0.23c0.13,0.15 0.19,0.38 0.19,0.69c0,0.3 -0.06,0.52 -0.2,0.67z" class="st0"/>
   <path id="svg_52" fill="#FFFFFF" d="m93.86534,1.79467c0.1,0 0.17,-0.08 0.17,-0.17c0,-0.1 -0.08,-0.17 -0.17,-0.17c-0.1,0 -0.17,0.08 -0.17,0.17c0,0.09 0.07,0.17 0.17,0.17z" class="st0"/>
   <rect id="svg_53" fill="#FFFFFF" height="0.74" width="0.8" class="st0" y="0.54467" x="76.98534"/>
   <rect id="svg_54" fill="#FFFFFF" height="0.8" width="0.8" class="st0" y="17.84467" x="70.43534"/>
   <path id="svg_55" fill="#FFFFFF" d="m52.31534,10.60467c0,0.28 0.01,0.47 0.02,0.56c0.02,0.13 0.06,0.23 0.11,0.31c0.05,0.08 0.14,0.14 0.25,0.19c0.12,0.05 0.24,0.07 0.39,0.07c0.23,0 0.44,-0.04 0.63,-0.12l-0.07,-0.62c-0.14,0.05 -0.25,0.07 -0.32,0.07c-0.05,0 -0.1,-0.01 -0.14,-0.04c-0.04,-0.03 -0.06,-0.06 -0.07,-0.1c-0.01,-0.04 -0.02,-0.18 -0.02,-0.43l0,-1.22l0.54,0l0,-0.63l-0.54,0l0,-1.06l-0.8,0.46l0,0.6l-0.37,0l0,0.63l0.37,0l0,1.33l0.02,0z" class="st0"/>
   <path id="svg_56" fill="#FFFFFF" d="m64.82534,10.64467l-0.78,-0.13c-0.04,0.21 -0.11,0.36 -0.2,0.44c-0.1,0.09 -0.22,0.13 -0.37,0.13c-0.2,0 -0.36,-0.07 -0.48,-0.22c-0.12,-0.15 -0.18,-0.4 -0.18,-0.76c0,-0.32 0.06,-0.55 0.18,-0.69c0.12,-0.14 0.28,-0.2 0.48,-0.2c0.15,0 0.27,0.04 0.36,0.12c0.09,0.08 0.15,0.2 0.18,0.35l0.78,-0.14c-0.09,-0.32 -0.25,-0.56 -0.47,-0.72c-0.22,-0.16 -0.51,-0.24 -0.87,-0.24c-0.45,0 -0.8,0.14 -1.07,0.41c-0.26,0.28 -0.39,0.66 -0.39,1.16c0,0.49 0.13,0.88 0.39,1.15c0.26,0.28 0.61,0.42 1.05,0.42c0.39,0 0.7,-0.09 0.93,-0.28c0.23,-0.17 0.38,-0.44 0.46,-0.8z" class="st0"/>
   <rect id="svg_57" fill="#FFFFFF" height="0.74" width="0.8" class="st0" y="0.54467" x="63.21534"/>
   <rect id="svg_58" fill="#FFFFFF" height="3.01" width="0.8" class="st0" y="1.69467" x="63.21534"/>
   <path id="svg_59" fill="#FFFFFF" d="m61.92534,14.46467c-0.4,0 -0.72,0.14 -0.94,0.43c-0.27,0.34 -0.41,0.91 -0.41,1.69c0,0.8 0.12,1.35 0.37,1.66c0.25,0.31 0.57,0.47 0.98,0.47c0.4,0 0.72,-0.14 0.94,-0.43c0.27,-0.34 0.41,-0.91 0.41,-1.7c0,-0.79 -0.14,-1.35 -0.41,-1.69c-0.22,-0.29 -0.54,-0.43 -0.94,-0.43zm0.44,3.16c-0.04,0.16 -0.1,0.27 -0.18,0.33c-0.08,0.06 -0.16,0.09 -0.26,0.09c-0.1,0 -0.18,-0.03 -0.26,-0.09c-0.07,-0.06 -0.14,-0.18 -0.19,-0.36c-0.05,-0.18 -0.07,-0.52 -0.07,-1c0,-0.49 0.03,-0.84 0.08,-1.04c0.04,-0.16 0.1,-0.27 0.18,-0.33c0.08,-0.06 0.16,-0.09 0.26,-0.09c0.1,0 0.18,0.03 0.26,0.09c0.07,0.06 0.14,0.18 0.18,0.37c0.05,0.18 0.07,0.52 0.07,1c0.01,0.48 -0.02,0.83 -0.07,1.03z" class="st0"/>
   <path id="svg_60" fill="#FFFFFF" d="m59.09534,17.21467c0.25,-0.23 0.43,-0.41 0.52,-0.53c0.15,-0.18 0.25,-0.36 0.32,-0.53c0.07,-0.17 0.1,-0.35 0.1,-0.53c0,-0.33 -0.12,-0.6 -0.35,-0.83c-0.23,-0.22 -0.56,-0.33 -0.97,-0.33c-0.37,0 -0.69,0.09 -0.94,0.29c-0.25,0.19 -0.4,0.5 -0.44,0.94l0.79,0.08c0.01,-0.23 0.07,-0.4 0.17,-0.5c0.1,-0.1 0.23,-0.15 0.4,-0.15c0.17,0 0.3,0.05 0.4,0.14c0.1,0.1 0.14,0.23 0.14,0.41c0,0.16 -0.05,0.32 -0.16,0.49c-0.08,0.12 -0.3,0.35 -0.66,0.68c-0.45,0.41 -0.75,0.75 -0.9,1c-0.15,0.25 -0.24,0.52 -0.27,0.79l2.79,0l0,-0.74l-1.58,0c0.04,-0.07 0.1,-0.15 0.16,-0.22c0.07,-0.08 0.23,-0.23 0.48,-0.46z" class="st0"/>
   <path id="svg_61" fill="#FFFFFF" d="m53.72534,15.55467c-0.29,0 -0.56,0.06 -0.8,0.2c-0.24,0.13 -0.42,0.32 -0.55,0.57c-0.13,0.25 -0.2,0.5 -0.2,0.77c0,0.35 0.06,0.64 0.2,0.88c0.13,0.24 0.32,0.42 0.57,0.55c0.25,0.12 0.51,0.19 0.79,0.19c0.45,0 0.82,-0.15 1.11,-0.45c0.29,-0.3 0.44,-0.68 0.44,-1.13c0,-0.45 -0.15,-0.83 -0.44,-1.12c-0.29,-0.31 -0.66,-0.46 -1.12,-0.46zm0.53,2.26c-0.14,0.16 -0.31,0.24 -0.52,0.24c-0.21,0 -0.38,-0.08 -0.52,-0.24c-0.14,-0.16 -0.21,-0.39 -0.21,-0.69c0,-0.3 0.07,-0.53 0.21,-0.69c0.14,-0.16 0.32,-0.24 0.52,-0.24c0.21,0 0.38,0.08 0.52,0.24c0.14,0.16 0.21,0.39 0.21,0.68c0,0.31 -0.07,0.54 -0.21,0.7z" class="st0"/>
   <path id="svg_62" fill="#FFFFFF" d="m61.47534,10.84467l-0.79,-0.13c-0.04,0.15 -0.11,0.26 -0.19,0.33c-0.08,0.07 -0.19,0.1 -0.31,0.1c-0.18,0 -0.34,-0.07 -0.46,-0.2c-0.12,-0.13 -0.19,-0.31 -0.19,-0.55l2,0c0.01,-0.61 -0.11,-1.06 -0.37,-1.36c-0.26,-0.29 -0.61,-0.44 -1.06,-0.44c-0.4,0 -0.73,0.14 -0.99,0.42c-0.26,0.28 -0.39,0.67 -0.39,1.17c0,0.42 0.1,0.76 0.3,1.04c0.25,0.34 0.64,0.51 1.16,0.51c0.33,0 0.61,-0.08 0.83,-0.23c0.19,-0.15 0.36,-0.37 0.46,-0.66zm-1.77,-1.45c0.11,-0.13 0.26,-0.19 0.43,-0.19c0.16,0 0.3,0.06 0.41,0.18c0.11,0.12 0.17,0.29 0.18,0.53l-1.19,0c0,-0.23 0.05,-0.4 0.17,-0.52z" class="st0"/>
   <path id="svg_63" fill="#FFFFFF" d="m66.14534,14.46467l-0.67,0l-1.8,2.64l0,0.7l1.7,0l0,0.84l0.77,0l0,-0.84l0.52,0l0,-0.7l-0.52,0l0,-2.64zm-0.77,2.64l-0.96,0l0.96,-1.42l0,1.42z" class="st0"/>
   <path id="svg_64" fill="#FFFFFF" d="m59.83534,3.75467l1.66,0l0.36,0.94l0.91,0l-1.66,-4.16l-0.89,0l-1.62,4.16l0.89,0l0.35,-0.94zm0.82,-2.24l0.57,1.54l-1.13,0l0.56,-1.54z" class="st0"/>
   <polygon id="svg_65" fill="#FFFFFF" points="57.60534048080444,11.674654960632324 57.60534048080444,8.2146635055542 58.83534383773804,8.2146635055542 58.83534383773804,7.514681816101074 55.52534627914429,7.514681816101074 55.52534627914429,8.2146635055542 56.76534414291382,8.2146635055542 56.76534414291382,11.674654960632324 " class="st0"/>
   <path id="svg_66" fill="#FFFFFF" d="m67.29534,9.47467c0.03,0.09 0.05,0.29 0.05,0.6l0,1.59l0.8,0l0,-1.77c0,-0.27 -0.01,-0.47 -0.04,-0.6c-0.03,-0.13 -0.08,-0.25 -0.15,-0.35c-0.07,-0.11 -0.18,-0.19 -0.33,-0.26c-0.15,-0.07 -0.31,-0.1 -0.5,-0.1c-0.36,0 -0.67,0.15 -0.92,0.45l0,-1.53l-0.8,0l0,4.16l0.8,0l0,-1.51c0,-0.25 0.03,-0.44 0.07,-0.57c0.05,-0.13 0.12,-0.23 0.23,-0.29c0.1,-0.06 0.22,-0.1 0.35,-0.1c0.12,0 0.21,0.03 0.29,0.07c0.06,0.06 0.11,0.13 0.15,0.21z" class="st0"/>
   <path id="svg_67" fill="#FFFFFF" d="m55.15534,4.77467c0.17,0 0.34,-0.04 0.51,-0.13c0.17,-0.08 0.31,-0.21 0.43,-0.39l0,0.44l0.74,0l0,-4.16l-0.8,0l0,1.5c-0.25,-0.28 -0.54,-0.42 -0.87,-0.42c-0.37,0 -0.67,0.13 -0.91,0.4c-0.24,0.26 -0.36,0.65 -0.36,1.16c0,0.5 0.12,0.89 0.37,1.17c0.25,0.29 0.55,0.43 0.89,0.43zm-0.25,-2.32c0.13,-0.15 0.29,-0.23 0.48,-0.23c0.19,0 0.35,0.08 0.48,0.23c0.12,0.15 0.19,0.4 0.19,0.75c0,0.31 -0.06,0.54 -0.19,0.7c-0.13,0.16 -0.29,0.23 -0.47,0.23c-0.23,0 -0.41,-0.1 -0.54,-0.31c-0.09,-0.14 -0.13,-0.38 -0.13,-0.7c-0.01,-0.29 0.05,-0.52 0.18,-0.67z" class="st0"/>
   <polygon id="svg_68" fill="#FFFFFF" points="65.5953459739685,3.734683036804199 65.965341091156,3.344668388366699 66.72534322738647,4.704684257507324 67.58534383773804,4.704684257507324 66.48534536361694,2.794680595397949 67.51534414291382,1.6946744918823242 66.53534078598022,1.6946744918823242 65.5953459739685,2.754672050476074 65.5953459739685,0.5446805953979492 64.80534505844116,0.5446805953979492 64.80534505844116,4.704684257507324 65.5953459739685,4.704684257507324 " class="st0"/>
  </g>
  <g id="svg_69">
   <path id="svg_70" fill="#FFFFFF" d="m21.23534,14.14467l-7.44,-12.11c-0.56,-0.92 -1.58,-1.49 -2.66,-1.49c-1.08,0 -2.1,0.57 -2.66,1.49l-7.44,12.11c-0.64,1.05 -0.49,2.39 0.38,3.26c0.5,0.5 1.17,0.78 1.87,0.78l15.68,0c0.71,0 1.37,-0.28 1.87,-0.78c0.89,-0.87 1.05,-2.21 0.4,-3.26zm-1.52,2.12c-0.2,0.2 -0.46,0.3 -0.74,0.3l-15.68,0c-0.28,0 -0.54,-0.11 -0.74,-0.3c-0.34,-0.34 -0.4,-0.87 -0.15,-1.28l7.44,-12.11c0.27,-0.44 0.77,-0.72 1.29,-0.72c0.52,0 1.01,0.28 1.29,0.72l7.44,12.11c0.26,0.41 0.19,0.94 -0.15,1.28z" class="st0"/>
   <path id="svg_71" fill="#FFFFFF" d="m14.37534,12.49467c-0.09,0 -0.17,0.01 -0.25,0.02c-0.41,0.07 -0.83,-0.06 -1.12,-0.36c-0.25,-0.25 -0.38,-0.58 -0.38,-0.92c0,-0.15 0.03,-0.31 0.09,-0.46c0.12,-0.31 0.19,-0.65 0.19,-1c0,-0.75 -0.3,-1.42 -0.79,-1.91c-0.49,-0.49 -1.17,-0.79 -1.91,-0.79c-0.75,0 -1.42,0.3 -1.91,0.79c-0.51,0.51 -0.82,1.22 -0.79,2c0.05,1.45 1.25,2.61 2.7,2.61c0.35,0 0.69,-0.07 1,-0.19c0.47,-0.19 1.01,-0.06 1.37,0.3l0,0c0.29,0.29 0.43,0.71 0.36,1.12c-0.01,0.08 -0.02,0.17 -0.02,0.25c0,0.41 0.17,0.78 0.43,1.05c0.27,0.27 0.64,0.43 1.05,0.43c0.41,0 0.78,-0.17 1.05,-0.43c0.27,-0.27 0.43,-0.64 0.43,-1.05s-0.17,-0.78 -0.43,-1.05c-0.29,-0.25 -0.66,-0.41 -1.07,-0.41zm-3.25,-1.78c-0.24,0.24 -0.57,0.38 -0.93,0.38c-0.72,0 -1.31,-0.59 -1.31,-1.31c0,-0.36 0.15,-0.69 0.38,-0.93c0.24,-0.24 0.57,-0.38 0.93,-0.38c0.36,0 0.69,0.15 0.93,0.38s0.38,0.57 0.38,0.93s-0.15,0.69 -0.38,0.93z" class="st0"/>
   <path id="svg_72" fill="#FFFFFF" d="m10.19534,9.52467c-0.07,0 -0.14,0.03 -0.18,0.08c-0.05,0.05 -0.08,0.11 -0.08,0.18c0,0.14 0.12,0.26 0.26,0.26c0.07,0 0.14,-0.03 0.18,-0.08c0.05,-0.05 0.08,-0.11 0.08,-0.18c0,-0.07 -0.03,-0.14 -0.08,-0.18c-0.04,-0.05 -0.11,-0.08 -0.18,-0.08z" class="st0"/>
   <path id="svg_73" fill="#FFFFFF" d="m11.94534,5.25467l-1.2,0l0,-0.14c0,-0.05 0.03,-0.1 0.08,-0.11l0.75,-0.19c0.21,-0.05 0.37,-0.25 0.37,-0.47l0,-0.24c0,-0.27 -0.22,-0.48 -0.48,-0.48l-0.64,0c-0.27,0 -0.48,0.22 -0.48,0.48l0,0.22l0.4,0l0,-0.19c0,-0.06 0.05,-0.11 0.11,-0.11l0.58,0c0.06,0 0.11,0.05 0.11,0.11l0,0.19c0,0.05 -0.03,0.1 -0.08,0.11l-0.75,0.19c-0.21,0.05 -0.37,0.25 -0.37,0.47l0,0.56l1.6,0l0,-0.4z" class="st0"/>
  </g>
 </g>
</svg>