<?xml version="1.0" encoding="utf-8"?>
<!-- Generator: Adobe Illustrator 26.0.3, SVG Export Plug-In . SVG Version: 6.00 Build 0)  -->
<svg version="1.1" id="Layer_1" xmlns="http://www.w3.org/2000/svg" xmlns:xlink="http://www.w3.org/1999/xlink" x="0px" y="0px"
	 viewBox="0 0 366.92 346.48" style="enable-background:new 0 0 366.92 346.48;" xml:space="preserve">
<style type="text/css">
	.st0{fill:white;}
</style>
<g>
	<path class="st0" d="M168.04,261.82c-34.25,0-51.9-27.76-39.44-62.01h16.06c-14-15.78-17.79-36.59-18.8-47.38l-64.63,47.38h29.56
		c-16.09,44.23,6.71,80.07,50.93,80.07c34.24,0,71.27-21.49,93.73-51.71C217.88,248.16,192.07,261.82,168.04,261.82z"/>
	<path class="st0" d="M221.28,166.13h-9.83l5.98,9.39C219.06,171.72,220.32,168.69,221.28,166.13z"/>
	<path class="st0" d="M280.18,166.13c16.1-44.23-6.71-80.07-50.93-80.07c-28.08,0-58.04,14.44-80.29,36.32
		c0.34,0.59,0.69,1.19,1.04,1.77c15.82-12.31,34.88-20.03,52.93-20.03c33.84,0,51.48,27.11,39.87,60.79c4,12.44,3.54,24-1.38,34.37
		c-1.26,2.66-2.73,5.04-4.32,7.17l5.61,8.82l67.03-49.15H280.18z"/>
	<path class="st0" d="M149.76,200.4c18.58,18.3,35,10.47,51.28,24.73c3.46,3.03,6.86,7.01,9.75,12.36c0.78,1.44,2.58,1.99,4.05,1.25
		c1.52-0.77,2.11-2.63,1.33-4.15c-3.31-6.41-7.23-11.13-11.21-14.69c-5.24-4.68-9.98-6.8-16.85-12.01c0,0-5.03-3.95-10.4-9.03
		c-14.55-13.77-27.35-37.12-29.76-41.59c-0.41-0.76,9.69,17.47,30.28,36.71c10.99,10.28,21.42,17.31,28.83,21.78
		c-2.5-11.63-6.58-20.42-10.28-26.72c-3.94-6.7-8-12.96-18.42-23.35c-11.03-11-21.26-23.33-30.71-39.05
		c-4.81-7.98-8.05-14.94-10.04-19.58c-3.52,7.16-9.14,21.07-8.82,39.13C128.91,153.29,130.93,181.85,149.76,200.4z"/>
	<path class="st0" d="M211.04,216.56c3.57-4.35,7.55-9.93,11.19-16.81c4.99-9.43,7.68-18.18,9.19-24.95
		c-0.55,6.66-2.21,16.57-7.34,27.42c-3.52,7.44-7.67,13.19-11.18,17.33c2.64-0.81,18-5.81,25.53-21.67
		c6.96-14.66,2.39-28.43,1.05-32.46c-3.14-9.48-8.61-15.78-11.88-19.02c0.14,2.87,0.15,7.5-0.91,13.02
		c-1.08,5.61-3.99,12.29-9.76,25.43c-4.67,10.62-5.1,14.04-5.41,15.71C210.33,207.13,210.6,212.75,211.04,216.56z"/>
	<path class="st0" d="M139.6,223.24c0.09-0.1,0.19-0.19,0.3-0.26l7.4-1.84c0.37-0.07,0.71-0.15,1.04-0.26
		c0.72-0.18,1.35-0.55,1.91-1.11c0.57-0.56,0.94-1.2,1.13-1.93c0.27-0.82,0.4-1.81,0.4-2.96c0-1.15-0.14-2.14-0.41-2.96
		c-0.18-0.72-0.55-1.35-1.11-1.91c-0.56-0.57-1.2-0.94-1.93-1.13c-0.82-0.27-1.8-0.4-2.95-0.4h-4.28c-1.15,0-2.14,0.14-2.96,0.41
		c-0.72,0.18-1.35,0.55-1.91,1.11c-0.57,0.56-0.94,1.2-1.13,1.93c-0.26,0.82-0.39,1.8-0.39,2.95v1.08h4.26v-1.6
		c0-0.59,0.2-1.1,0.61-1.51c0.43-0.42,0.93-0.63,1.51-0.63h4.28c0.58,0,1.08,0.21,1.5,0.63c0.42,0.42,0.63,0.92,0.63,1.51v1.33
		c0,0.59-0.21,1.1-0.63,1.51c-0.1,0.1-0.2,0.19-0.31,0.26l-7.39,1.85c-0.38,0.06-0.72,0.14-1.04,0.25
		c-0.72,0.18-1.35,0.55-1.91,1.11c-0.57,0.56-0.94,1.2-1.13,1.93c-0.26,0.82-0.39,1.81-0.39,2.96v4.53h17.07v-3.73h-12.81v-1.6
		C138.97,224.16,139.18,223.66,139.6,223.24z"/>
</g>
</svg>
