<?xml version="1.0" encoding="utf-8"?>
<!-- Generator: Adobe Illustrator 26.0.3, SVG Export Plug-In . SVG Version: 6.00 Build 0)  -->
<svg version="1.1" id="Layer_1" xmlns="http://www.w3.org/2000/svg" xmlns:xlink="http://www.w3.org/1999/xlink" x="0px" y="0px"
	 viewBox="0 0 547.97 173.44" style="enable-background:new 0 0 547.97 173.44;" xml:space="preserve">
<g>
	<g>
		<path d="M282.18,71.73c-3-1.38-6.23-2.39-9.59-2.98c-0.06-0.01-0.12,0.02-0.15,0.07c-0.41,0.74-0.87,1.7-1.19,2.45
			c-3.62-0.54-7.23-0.54-10.78,0c-0.32-0.77-0.8-1.72-1.21-2.45c-0.03-0.05-0.09-0.08-0.15-0.07c-3.37,0.58-6.59,1.6-9.59,2.98
			c-0.03,0.01-0.05,0.03-0.06,0.05c-6.11,9.13-7.78,18.03-6.96,26.83c0,0.04,0.03,0.08,0.06,0.11c4.03,2.96,7.94,4.76,11.77,5.95
			c0.06,0.02,0.13,0,0.17-0.05c0.91-1.24,1.71-2.54,2.41-3.92c0.04-0.08,0-0.18-0.08-0.21c-1.28-0.49-2.5-1.08-3.68-1.75
			c-0.09-0.05-0.1-0.19-0.01-0.25c0.25-0.19,0.49-0.38,0.73-0.57c0.04-0.04,0.1-0.04,0.15-0.02c7.71,3.52,16.07,3.52,23.69,0
			c0.05-0.02,0.11-0.02,0.15,0.02c0.24,0.19,0.48,0.39,0.73,0.57c0.09,0.06,0.08,0.2-0.01,0.25c-1.17,0.69-2.4,1.27-3.68,1.75
			c-0.08,0.03-0.12,0.13-0.08,0.21c0.71,1.37,1.52,2.68,2.41,3.91c0.04,0.05,0.1,0.07,0.17,0.06c3.85-1.19,7.76-2.99,11.79-5.95
			c0.04-0.03,0.06-0.07,0.06-0.11c0.98-10.17-1.65-19-6.97-26.83C282.22,71.76,282.2,71.75,282.18,71.73z M258.02,93.26
			c-2.32,0-4.24-2.13-4.24-4.75s1.88-4.75,4.24-4.75c2.38,0,4.27,2.15,4.24,4.75C262.26,91.13,260.38,93.26,258.02,93.26z
			 M273.69,93.26c-2.32,0-4.24-2.13-4.24-4.75s1.88-4.75,4.24-4.75c2.38,0,4.27,2.15,4.24,4.75
			C277.92,91.13,276.06,93.26,273.69,93.26z"/>
	</g>
</g>
</svg>
