<svg width="48" height="37.00000000000001" xmlns="http://www.w3.org/2000/svg" xml:space="preserve" version="1.1">
    <path fill="#4E73A4" d="m40.0689,3.56337c-3,-1.38 -6.23,-2.39 -9.59,-2.98c-0.06,-0.01 -0.12,0.02 -0.15,0.07c-0.41,0.74 -0.87,1.7 -1.19,2.45c-3.62,-0.54 -7.23,-0.54 -10.78,0c-0.32,-0.77 -0.8,-1.72 -1.21,-2.45c-0.03,-0.05 -0.09,-0.08 -0.15,-0.07c-3.37,0.58 -6.59,1.6 -9.59,2.98c-0.03,0.01 -0.05,0.03 -0.06,0.05c-6.11,9.13 -7.78,18.03 -6.96,26.83c0,0.04 0.03,0.08 0.06,0.11c4.03,2.96 7.94,4.76 11.77,5.95c0.06,0.02 0.13,0 0.17,-0.05c0.91,-1.24 1.71,-2.54 2.41,-3.92c0.04,-0.08 0,-0.18 -0.08,-0.21c-1.28,-0.49 -2.5,-1.08 -3.68,-1.75c-0.09,-0.05 -0.1,-0.19 -0.01,-0.25c0.25,-0.19 0.49,-0.38 0.73,-0.57c0.04,-0.04 0.1,-0.04 0.15,-0.02c7.71,3.52 16.07,3.52 23.69,0c0.05,-0.02 0.11,-0.02 0.15,0.02c0.24,0.19 0.48,0.39 0.73,0.57c0.09,0.06 0.08,0.2 -0.01,0.25c-1.17,0.69 -2.4,1.27 -3.68,1.75c-0.08,0.03 -0.12,0.13 -0.08,0.21c0.71,1.37 1.52,2.68 2.41,3.91c0.04,0.05 0.1,0.07 0.17,0.06c3.85,-1.19 7.76,-2.99 11.79,-5.95c0.04,-0.03 0.06,-0.07 0.06,-0.11c0.98,-10.17 -1.65,-19 -6.97,-26.83c-0.06,-0.02 -0.08,-0.03 -0.1,-0.05zm-24.16,21.53c-2.32,0 -4.24,-2.13 -4.24,-4.75s1.88,-4.75 4.24,-4.75c2.38,0 4.27,2.15 4.24,4.75c0,2.62 -1.88,4.75 -4.24,4.75zm15.67,0c-2.32,0 -4.24,-2.13 -4.24,-4.75s1.88,-4.75 4.24,-4.75c2.38,0 4.27,2.15 4.24,4.75c-0.01,2.62 -1.87,4.75 -4.24,4.75z"/>
</svg>