<svg id="Layer_1" data-name="Layer 1" xmlns="http://www.w3.org/2000/svg" width="1587.98093" height="1587.90586" viewBox="0 0 1587.98093 1587.90586">
  <defs>
    <style>
      .cls-1 {
        fill: #fff;
      }
    </style>
  </defs>
  <g>
    <path class="cls-1" d="M1040.1966,1451.628a42.15563,42.15563,0,0,1,42.181-42.18237h168.20075a42.20278,42.20278,0,0,1,42.181,42.18237v475.7q31.80708-7.131,63.16095-15.39368V1325.23239a42.20514,42.20514,0,0,1,42.181-42.18237H1566.302a42.15641,42.15641,0,0,1,42.18467,42.18237v501.05494c21.35579-8.97976,42.33206-18.41227,63.23464-27.84478V1198.98787a42.15564,42.15564,0,0,1,42.181-42.18238h168.12707a42.21854,42.21854,0,0,1,42.25468,42.18238V1575.005c0,34.7119,39.39177,54.4824,67.38715,33.957a1907.08783,1907.08783,0,0,0,260.79039-231.05865,41.75133,41.75133,0,0,0,10.26154-38.18277C2179.03915,991.02,1865.202,731.96548,1490.76829,731.96548c-438.42365,0-793.99231,355.41667-793.99231,793.91539,0,157.4851,45.88031,304.33007,125.11336,427.78307a41.605,41.605,0,0,0,35.61877,18.94008c33.65489-.45274,95.6073-1.73543,142.4677-3.92361a42.05511,42.05511,0,0,0,40.22079-42.10683Z" transform="translate(-696.77598 -731.96548)"/>
    <path class="cls-1" d="M2282.64565,1468.531a1899.70468,1899.70468,0,0,1-358.36156,351.41752c-29.04917,21.58147-58.55523,42.48405-88.89032,62.55622a1874.04225,1874.04225,0,0,1-795.19717,297.16173,789.93706,789.93706,0,0,0,450.57169,140.20491c438.57472,0,793.98862-355.4922,793.98862-793.99047C2284.75691,1506.56312,2284.00526,1487.4715,2282.64565,1468.531Z" transform="translate(-696.77598 -731.96548)"/>
  </g>
</svg>
