<?xml version="1.0" encoding="utf-8"?>
<!-- Generator: Adobe Illustrator 26.0.3, SVG Export Plug-In . SVG Version: 6.00 Build 0)  -->
<svg version="1.1" id="Layer_1" xmlns="http://www.w3.org/2000/svg" xmlns:xlink="http://www.w3.org/1999/xlink" x="0px" y="0px"
	 viewBox="0 0 366.92 346.48" style="enable-background:new 0 0 366.92 346.48;" xml:space="preserve">
<style type="text/css">
	.st0{fill:#36A9E1;}
</style>
<g>
	<path class="st0" d="M184.4,125.11l-52.17,52.17l50.28,50.29l52.18-52.18L184.4,125.11z M207.27,183.94
		c-2.13,2.13-4.2,3.72-6.18,4.71c-1.68,1.01-3.55,1.5-5.61,1.5s-3.91-0.5-5.57-1.5c-0.79-0.39-1.61-0.86-2.39-1.4l-17-10.26
		c-0.35-0.06-0.7-0.08-1.05-0.06c-1.52-0.02-2.84,0.54-3.91,1.63l-2.95,2.95l23.56,23.55l-6.86,6.86l-31.42-31.41l8.34-8.34
		c2.13-2.13,4.2-3.72,6.17-4.73c1.67-1.01,3.55-1.49,5.63-1.47c2.04-0.01,3.9,0.49,5.56,1.47c0.79,0.39,1.59,0.85,2.37,1.45l17,10.2
		c0.35,0.06,0.7,0.08,1.07,0.08c1.53,0.01,2.86-0.53,3.95-1.62l2.44-2.45c1.09-1.09,1.62-2.39,1.62-3.94c0-1.54-0.54-2.84-1.62-3.9
		l-7.87-7.87c-1.07-1.07-2.37-1.64-3.92-1.64c-1.52,0.02-2.81,0.58-3.89,1.66l-2.97,2.96l-7.85-7.85l1.98-1.98
		c2.11-2.12,4.15-3.69,6.15-4.72c1.67-1.01,3.55-1.49,5.63-1.47c2.04-0.01,3.9,0.49,5.56,1.47c2.02,1,4.08,2.57,6.2,4.7l7.87,7.87
		c2.12,2.12,3.69,4.16,4.7,6.17c1.01,1.67,1.49,3.55,1.49,5.61c0,2.05-0.49,3.91-1.49,5.57
		C210.96,179.76,209.39,181.82,207.27,183.94z"/>
	<path class="st0" d="M163.21,79.42l-23.49,23.49c5.94,8.3,5.18,19.96-2.27,27.42c-7.45,7.45-19.11,8.2-27.43,2.26l-23.49,23.5
		l16.66,16.66l76.67-76.67L163.21,79.42z"/>
	<path class="st0" d="M184.81,101.03l-76.66,76.66l73.95,73.96l76.67-76.67L184.81,101.03z M122.35,177.28l62.05-62.05l60.17,60.16
		l-62.06,62.06L122.35,177.28z"/>
	<path class="st0" d="M263.7,179.92l-76.66,76.66l16.66,16.67l23.49-23.49c-5.94-8.31-5.19-19.96,2.27-27.42
		c7.45-7.45,19.11-8.21,27.41-2.27l23.5-23.49L263.7,179.92z"/>
</g>
</svg>
