<?xml version="1.0" encoding="utf-8"?>
<!-- Generator: Adobe Illustrator 26.0.3, SVG Export Plug-In . SVG Version: 6.00 Build 0)  -->
<svg version="1.1" id="Layer_1" xmlns="http://www.w3.org/2000/svg" xmlns:xlink="http://www.w3.org/1999/xlink" x="0px" y="0px"
	 viewBox="0 0 366.92 346.48" style="enable-background:new 0 0 366.92 346.48;" xml:space="preserve">
<style type="text/css">
	.st0{fill:white;}
</style>
<g>
	<polygon class="st0" points="276.65,154.53 276.65,121.71 183.46,76.32 155.14,90.11 155.14,76.32 118.58,76.32 118.58,107.91 
		90.26,121.71 90.26,154.53 183.46,109.14 	"/>
	<path class="st0" d="M90.27,163.14v107.02h68.78v-48.82c0-13.48,10.93-24.41,24.41-24.41c13.48,0,24.41,10.93,24.41,24.41v48.82
		h68.79V163.14l-93.2-45.39L90.27,163.14z"/>
	<path class="st0" d="M265.57,90.42c0-0.51,0.17-0.95,0.54-1.31c0.08-0.09,0.16-0.16,0.26-0.23l6.42-1.58
		c0.31-0.06,0.61-0.14,0.89-0.23c0.62-0.16,1.18-0.48,1.66-0.96c0.49-0.48,0.81-1.04,0.97-1.67c0.23-0.7,0.35-1.56,0.35-2.56
		c0-1-0.11-1.85-0.36-2.56c-0.16-0.62-0.48-1.18-0.96-1.66c-0.48-0.49-1.04-0.81-1.67-0.97c-0.71-0.23-1.56-0.35-2.55-0.35h-3.71
		c-1,0-1.85,0.11-2.56,0.35c-0.62,0.16-1.18,0.48-1.65,0.96c-0.49,0.48-0.82,1.04-0.98,1.67c-0.23,0.71-0.34,1.56-0.34,2.56v0.94
		h3.7V81.4c0-0.51,0.17-0.94,0.53-1.31c0.36-0.36,0.81-0.54,1.31-0.54h3.71c0.5,0,0.94,0.17,1.3,0.54c0.36,0.36,0.55,0.8,0.55,1.31
		v1.15c0,0.51-0.18,0.95-0.55,1.31c-0.09,0.09-0.17,0.16-0.27,0.23l-6.4,1.6c-0.33,0.04-0.62,0.12-0.9,0.22
		c-0.62,0.16-1.18,0.48-1.65,0.96c-0.49,0.49-0.82,1.04-0.98,1.67c-0.23,0.7-0.34,1.56-0.34,2.56v3.92h14.78v-3.23h-11.08V90.42z"/>
</g>
</svg>
