<?xml version="1.0" encoding="utf-8"?>
<!-- Generator: Adobe Illustrator 26.0.2, SVG Export Plug-In . SVG Version: 6.00 Build 0)  -->
<svg version="1.1" id="Layer_1" xmlns="http://www.w3.org/2000/svg" xmlns:xlink="http://www.w3.org/1999/xlink" x="0px" y="0px"
	 viewBox="0 0 919.4 450.7" style="enable-background:new 0 0 919.4 450.7;" xml:space="preserve">
<style type="text/css">
	.st0{fill:#6D9BD0;}
</style>
<g>
	<polygon class="st0" points="770.3,376 824.4,376 831.7,383.4 834.7,380.4 837.6,377.5 837.6,377.5 827.8,367.7 773.8,367.7 
		751,344.9 354.8,344.9 354.8,353.2 354.8,353.2 747.5,353.2 	"/>
	<polygon class="st0" points="844.5,383.6 844,383.1 843.5,382.6 842.6,383.5 841.6,382.6 841.1,383.1 840.6,383.6 840.6,383.6 
		841.1,384.1 841.6,384.5 840.6,385.5 841.6,386.5 842.1,386 842.6,385.5 843.1,386 843.5,386.5 844.5,385.5 843.6,384.5 
		844.1,384.1 	"/>
	
		<rect x="745.3" y="357.9" transform="matrix(0.7071 -0.7071 0.7071 0.7071 -35.4245 632.3557)" class="st0" width="0.6" height="2.1"/>
	<path class="st0" d="M811.3,351.6c0.4,0.3,0.7,0.5,1.1,0.7c0.3,0.1,0.5,0.3,0.8,0.4c1.1,0.5,2.4,0.7,3.7,0.7c1.3,0,2.6-0.3,3.8-0.8
		l2.7,3.1l-0.8-4.2c0.3-0.2,0.6-0.5,0.8-0.7s0.5-0.5,0.7-0.8c0.6-0.7,1-1.4,1.4-2.3c0.1-0.3,0.3-0.7,0.4-1c0.1-0.4,0.2-0.9,0.3-1.4
		c0-0.2,0.1-0.5,0.1-0.7c0-0.2,0-0.5,0-0.7c0-1.1-0.2-2.2-0.6-3.2c-0.4-1-0.9-1.9-1.6-2.8c-0.6-0.7-1.2-1.3-2-1.8
		c-1.5-1-3.3-1.6-5.3-1.6c-1.3,0-2.5,0.3-3.7,0.7c-0.3,0.1-0.6,0.2-0.8,0.4c-0.1,0.1-0.3,0.1-0.4,0.2c-0.3,0.2-0.5,0.3-0.8,0.5
		c-0.1,0.1-0.2,0.2-0.3,0.3c-0.2,0.2-0.5,0.4-0.7,0.6c-0.3,0.3-0.5,0.6-0.8,0.9c-1.2,1.6-2,3.6-2,5.8c0,0.4,0,0.9,0.1,1.3
		c0,0.1,0,0.3,0.1,0.4c0,0.2,0.1,0.4,0.1,0.5c0.1,0.2,0.1,0.5,0.2,0.7c0.2,0.5,0.4,1.1,0.7,1.6c0.1,0.1,0.2,0.3,0.2,0.4
		c0.2,0.3,0.3,0.5,0.5,0.8c0.3,0.4,0.6,0.7,0.9,1c0.2,0.2,0.4,0.4,0.7,0.6C811.1,351.5,811.2,351.5,811.3,351.6z M809.7,344.1
		c0-4,3.2-7.3,7.3-7.3s7.3,3.2,7.3,7.3s-3.2,7.3-7.3,7.3C813,351.4,809.7,348.1,809.7,344.1z"/>
	<path class="st0" d="M724.6,377.5v9.7h9.7v-6.9l-2.8-2.9H724.6z M733,385.9H726v-6.9h4.9l2,2L733,385.9L733,385.9z"/>
	<polygon class="st0" points="852.6,355.3 846.8,349.4 838.1,358 829.5,366.7 838.1,375.3 846.8,384 852.6,378.1 845.4,370.9 
		859.1,370.9 859.1,370.9 859.1,362.5 845.4,362.5 	"/>
	<path class="st0" d="M826.8,380.4l-1.9-1.9l-1-1h-88.2v9.7h4.6c-0.2,0.1-0.3,0.2-0.4,0.3c-0.3,0.2-0.5,0.4-0.7,0.7
		c-0.1,0.1-0.2,0.3-0.3,0.4h-15c0,0-0.1,0-0.2,0c-0.1-0.1-0.2-0.2-0.2-0.4v-25.1c0-0.2,0.1-0.3,0.2-0.4c0,0,0.1,0,0.2,0h9.1
		c0,0,0.2,0,0.3,0.2c0,0,0,0,0,0.1c0,0,0,0.1,0,0.1c0,0.1,0,0.1,0,0.2c0,0,0,0.1-0.1,0.1c0,0,0,0,0,0l-0.4,0.4
		c-1.4,1.4-1.4,3.7,0,5.1c0.1,0.1,0.2,0.2,0.3,0.2c0.2,0.1,0.3,0.2,0.5,0.3c0.1,0,0.2,0.1,0.3,0.1c0.5,0.2,1,0.4,1.5,0.4
		c0.6,0,1.1-0.1,1.6-0.4c0.1,0,0.2-0.1,0.3-0.2c0.1,0,0.1-0.1,0.2-0.1c0.2-0.1,0.3-0.2,0.5-0.4l1.4-1.4l0.5,0.5l2.5-1.6l0.4,0.4
		l6.7-6.6c0.2-0.2,0.3-0.4,0.3-0.6c0-0.1,0-0.2,0-0.3c0-0.1,0-0.2-0.1-0.4c0-0.1,0-0.1-0.1-0.2c0-0.1-0.1-0.1-0.1-0.2l0.9-0.9
		l-3.7-3.7l-0.9,0.9l0,0c-0.1,0-0.1-0.1-0.2-0.1c0,0,0,0-0.1,0c0,0-0.1,0-0.1,0c0,0,0,0-0.1,0c0,0-0.1,0-0.1,0c0,0,0,0-0.1,0
		c0,0,0,0-0.1,0s0,0,0,0c0,0-0.1,0-0.1,0c0,0-0.1,0-0.1,0c0,0-0.1,0-0.1,0c0,0-0.1,0-0.1,0c0,0-0.1,0-0.1,0.1c0,0,0,0-0.1,0
		c-0.1,0-0.1,0.1-0.2,0.1l-6.7,6.6l0.4,0.4l-0.8,1.2l-0.8,1.3l0.6,0.5l-1.4,1.4c0,0-0.1,0.1-0.1,0.1c0,0,0,0-0.1,0c0,0-0.1,0-0.1,0
		c0,0-0.1,0-0.1,0c0,0,0,0,0,0c0,0-0.1,0-0.1-0.1c-0.1-0.1-0.1-0.2-0.1-0.3c0-0.1,0-0.2,0.1-0.3l0.4-0.4c0,0,0,0,0,0
		c0.2-0.2,0.3-0.3,0.4-0.5c0.2-0.3,0.4-0.6,0.5-1c0.1-0.4,0.2-0.7,0.2-1.1c0-0.1,0-0.2,0-0.3c0-0.3-0.1-0.7-0.3-1
		c-0.6-1.4-1.8-2.2-3.3-2.2h-9.1c-2,0-3.6,1.6-3.6,3.6v25.1c0,1.1,0.5,2.1,1.3,2.8c0.2,0.1,0.3,0.2,0.5,0.4c0.1,0.1,0.3,0.1,0.4,0.2
		c0.4,0.2,0.9,0.3,1.4,0.3h14.9c0.1,0.3,0.3,0.5,0.5,0.8c0.2,0.2,0.3,0.3,0.5,0.5c0.6,0.4,1.3,0.7,2,0.7h9.6c1.9,0,3.4-1.5,3.4-3.4
		c0-1.3-0.7-2.5-1.9-3h73.7L826.8,380.4L826.8,380.4z M746.9,355.2l0.6,0.6l-0.2,0.2l0.3,0.3l0.2-0.2l0.3,0.3l-0.2,0.2l0.3,0.3
		l0.2-0.2l0.3,0.3l-0.2,0.2l0.3,0.3l0.2-0.2l0.6,0.6l-0.6,0.6l-2.5-2.5L746.9,355.2z M744,358.4l1.1-1.1c0,0,0.1-0.1,0.1-0.1
		c0,0,0.1,0,0.1,0s0.1,0,0.1,0c0,0,0.1,0,0.1,0.1l1.8,1.8c0.1,0.1,0.1,0.4,0,0.5l-1.1,1.1c0,0-0.1,0.1-0.1,0.1c0,0-0.1,0-0.1,0
		s-0.1,0-0.1,0c0,0-0.1,0-0.1-0.1l-1.8-1.8C743.8,358.7,743.8,358.5,744,358.4z M742.8,359.9l1.9,1.9l-2.2,3.5l-3.2-3.1L742.8,359.9
		z M739,362.4l3.2,3.2l-0.4,0.3l-3.1-3.1L739,362.4z M738.5,363.2l2.9,2.9l-0.5,0.3l-2.8-2.8L738.5,363.2z M737.9,364l2.6,2.6
		l-0.5,0.3l-0.4-0.4l-2.1-2.1L737.9,364z M753.9,390.3c0,1.3-1,2.3-2.3,2.3H742c-0.7,0-1.3-0.3-1.7-0.8c-0.2-0.3-0.4-0.6-0.5-1H724
		c-1.5,0-2.6-1.2-2.6-2.6v-25.1c0-1.5,1.2-2.6,2.6-2.6h9.1c1.1,0,2,0.6,2.4,1.6s0.2,2.1-0.6,2.9l-0.4,0.4c-0.5,0.5-0.5,1.4,0,1.9
		c0.3,0.3,0.6,0.4,1,0.4c0.4,0,0.7-0.1,1-0.4l1.8-1.8l0.9,0.9l-0.1,0.1l-1.7,1.7c-0.5,0.5-1.2,0.8-1.9,0.8s-1.4-0.3-1.9-0.8
		c-1-1-1-2.7,0-3.7l0.4-0.4c0.6-0.6,0.4-1.3,0.3-1.5c-0.1-0.2-0.4-0.8-1.3-0.8H724c-0.8,0-1.4,0.6-1.4,1.4v25.1
		c0,0.8,0.6,1.4,1.4,1.4h15.8c0.1-0.4,0.3-0.7,0.6-1c0.4-0.4,1-0.6,1.5-0.6h0.5c0.1-0.3,0.3-0.6,0.6-0.8c0.3-0.2,0.7-0.4,1.1-0.4
		c0.3,0,0.6,0.1,0.9,0.2c0.3-0.5,0.7-1,1.2-1.3c0.5-0.3,1.2-0.5,1.8-0.5c0.7,0,1.3,0.2,1.8,0.5c0.5,0.3,1,0.8,1.2,1.4
		c0.1,0.2,0.2,0.5,0.2,0.8h0.3C752.9,388,753.9,389,753.9,390.3z M825.4,385.9h-74c-0.8-1-2.1-1.6-3.5-1.6c-1.3,0-2.5,0.6-3.4,1.5
		l0,0.1l-0.1,0c-0.1,0-0.2,0-0.3,0c-0.2,0-0.4,0-0.6,0.1h-6.3v-6.9h86.2l2,2L825.4,385.9L825.4,385.9z"/>
	<polygon class="st0" points="774.5,365.9 827.7,365.9 827.7,365.9 837.5,356 831.6,350.1 824.2,357.5 778,357.5 755.2,334.7 
		354.8,334.7 354.8,343 751.7,343 	"/>
	<path class="st0" d="M840.8,381.6c0.1-0.1,0.1-0.2,0.2-0.2c0.1-0.1,0.2-0.2,0.2-0.4c0,0,0-0.1,0-0.1c0.1-0.4,0.2-0.8,0.1-1.1
		c0,0,0,0,0-0.1c0-0.1,0-0.2-0.1-0.3c0,0,0-0.1,0-0.1c-0.1-0.2-0.2-0.5-0.5-0.7c-0.4-0.4-1-0.6-1.5-0.6c-0.5,0-1,0.2-1.3,0.5
		c-0.1,0-0.1,0.1-0.2,0.1l-2.4,2.4l-1.5,1.5l-0.9,0.9c-0.2,0.2-0.3,0.4-0.5,0.6c0,0.1-0.1,0.2-0.1,0.2c0,0.1-0.1,0.3-0.1,0.4
		c0,0.1,0,0.1,0,0.2c0,0.1,0,0.3,0,0.4c0,0.3,0.2,0.5,0.3,0.8c0.1,0.1,0.2,0.2,0.3,0.3c0,0,0.1,0.1,0.2,0.1c0.4,0.3,0.9,0.5,1.3,0.5
		c0.5,0,1-0.2,1.3-0.5c0,0,0.1-0.1,0.2-0.1l1.9-1.9l2-2L840.8,381.6C840.8,381.6,840.8,381.6,840.8,381.6z M833.8,384.5
		c0,0-0.1,0.1-0.2,0.1s-0.1,0-0.2-0.1c-0.1-0.1-0.1-0.3,0-0.4c0,0,0.1-0.1,0.2-0.1s0.1,0,0.2,0.1
		C833.9,384.3,833.9,384.4,833.8,384.5z M839.2,379.9c0,0,0.1-0.1,0.2-0.1s0.1,0,0.2,0.1c0.1,0.1,0.1,0.3,0,0.4c0,0-0.1,0.1-0.2,0.1
		s-0.1,0-0.2-0.1C839.1,380.1,839.1,380,839.2,379.9z M838.9,380.9c0,0-0.1,0.1-0.2,0.1s-0.1,0-0.2-0.1c-0.1-0.1-0.1-0.3,0-0.4
		c0,0,0.1-0.1,0.2-0.1s0.1,0,0.2,0.1C839,380.6,839,380.8,838.9,380.9z M838.4,379.1c0,0,0.1-0.1,0.2-0.1c0.1,0,0.1,0,0.2,0.1
		c0.1,0.1,0.1,0.3,0,0.4c0,0-0.1,0.1-0.2,0.1s-0.1,0-0.2-0.1C838.3,379.4,838.3,379.2,838.4,379.1z M837.8,379.7
		c0,0,0.1-0.1,0.2-0.1c0.1,0,0.1,0,0.2,0.1c0.1,0.1,0.1,0.3,0,0.4c0,0-0.1,0.1-0.2,0.1s-0.1,0-0.2-0.1
		C837.7,380,837.7,379.8,837.8,379.7z M834,383.5C834,383.5,834.1,383.5,834,383.5c0.1-0.1,0.2-0.1,0.2-0.1c0,0,0.1,0,0.1,0
		c0,0,0.1,0,0.1,0.1c0.1,0.1,0.1,0.3,0,0.4c0,0-0.1,0-0.1,0.1c0,0-0.1,0-0.1,0c0,0-0.1,0-0.1,0c0,0-0.1,0-0.1-0.1
		C833.9,383.8,833.9,383.6,834,383.5z M834.5,385.3c0,0-0.1,0.1-0.2,0.1s-0.1,0-0.2-0.1c-0.1-0.1-0.1-0.3,0-0.4c0,0,0.1,0,0.1-0.1
		c0,0,0,0,0,0c0,0,0,0,0.1,0c0,0,0,0,0.1,0c0,0,0,0,0,0c0,0,0.1,0,0.1,0.1C834.6,385,834.6,385.2,834.5,385.3z M834.8,384.3
		c0,0,0.1-0.1,0.2-0.1s0.1,0,0.2,0.1c0.1,0.1,0.1,0.3,0,0.4c0,0-0.1,0.1-0.2,0.1s-0.1,0-0.2-0.1
		C834.7,384.5,834.7,384.4,834.8,384.3z M835.2,386c0,0-0.1,0.1-0.2,0.1s-0.1,0-0.2-0.1c-0.1-0.1-0.1-0.3,0-0.4c0,0,0.1-0.1,0.2-0.1
		s0.1,0,0.2,0.1C835.3,385.8,835.3,385.9,835.2,386z M835.9,385.4c0,0-0.1,0.1-0.2,0.1s-0.1,0-0.2-0.1c-0.1-0.1-0.1-0.3,0-0.4
		c0,0,0.1-0.1,0.2-0.1s0.1,0,0.2,0.1C836,385.1,836,385.3,835.9,385.4z M836.8,384.9l-2.4-2.4l2.4-2.4l2.4,2.4L836.8,384.9z
		 M839.7,381.6C839.6,381.6,839.6,381.6,839.7,381.6c-0.1,0.1-0.2,0.1-0.2,0.1c-0.1,0-0.1,0-0.2-0.1c-0.1-0.1-0.1-0.3,0-0.4
		c0,0,0.1-0.1,0.2-0.1c0,0,0.1,0,0.1,0c0,0,0.1,0,0.1,0.1C839.8,381.3,839.8,381.5,839.7,381.6z M840.3,381c0,0-0.1,0.1-0.2,0.1
		c-0.1,0-0.1,0-0.2-0.1c-0.1-0.1-0.1-0.3,0-0.4c0,0,0.1-0.1,0.2-0.1s0.1,0,0.2,0.1C840.4,380.7,840.4,380.9,840.3,381z"/>
	<path class="st0" d="M827,388.4h-68.4c-0.3,0-0.5,0-0.8,0.1c-0.1,0-0.2,0-0.2,0.1c-0.1,0-0.2,0.1-0.3,0.1c-0.2,0.1-0.3,0.2-0.4,0.3
		c-0.1,0.1-0.1,0.1-0.2,0.2c-0.5,0.5-0.8,1.2-0.8,1.9c0,0.6,0.2,1.1,0.5,1.5c0.1,0.1,0.2,0.3,0.3,0.4c0.2,0.2,0.4,0.3,0.6,0.5
		c0.1,0,0.2,0.1,0.2,0.1c0.3,0.1,0.7,0.2,1,0.2h31.6l3.5-3.5h31.4L827,388.4z M758.6,392.9c-0.5,0-1-0.2-1.3-0.5s-0.5-0.8-0.5-1.3
		c0-1,0.8-1.9,1.9-1.9c0.5,0,1,0.2,1.3,0.5s0.5,0.8,0.5,1.3C760.4,392.1,759.6,392.9,758.6,392.9z"/>
	<path class="st0" d="M833,387.4c0-0.1-0.1-0.1-0.1-0.2c-0.1-0.1-0.2-0.2-0.3-0.3c-0.2-0.2-0.4-0.3-0.6-0.4
		c-0.3-0.1-0.6-0.2-0.9-0.2c-0.3,0-0.6,0.1-0.9,0.2c-0.2,0.1-0.4,0.2-0.6,0.4l-4.9,4.9c-0.3,0.3-0.4,0.6-0.5,0.9c0,0.1,0,0.1,0,0.2
		c0,0.1,0,0.3,0,0.4c0,0.1,0,0.1,0,0.2c0,0.3,0.1,0.5,0.2,0.8c0.1,0.2,0.2,0.4,0.4,0.5c0,0,0.1,0.1,0.2,0.1c0,0,0,0,0.1,0
		c0,0,0.1,0.1,0.1,0.1c0,0,0,0,0,0c0,0,0.1,0.1,0.2,0.1c0,0,0,0,0,0c0.1,0.1,0.2,0.1,0.4,0.1l0,0c0.1,0,0.1,0,0.2,0c0,0,0,0,0,0
		c0,0,0.1,0,0.2,0c0,0,0,0,0,0c0,0,0.1,0,0.2,0l0,0c0,0,0,0,0,0c0,0,0.1,0,0.2,0c0,0,0,0,0.1,0c0,0,0.1,0,0.1,0c0,0,0.1,0,0.1,0
		c0,0,0.1,0,0.1,0c0,0,0.1,0,0.1,0s0.1,0,0.1,0c0,0,0.1,0,0.1,0c0,0,0.1,0,0.1,0s0.1,0,0.1-0.1c0,0,0,0,0.1,0c0,0,0.1,0,0.1-0.1
		c0,0,0,0,0.1,0c0.1,0,0.1-0.1,0.2-0.1l0.9-0.9l3-3l0.9-0.9c0.3-0.3,0.5-0.6,0.5-1c0-0.1,0-0.1,0-0.2c0.1-0.4,0-0.8-0.1-1.1
		C833,387.5,833,387.4,833,387.4z M831,388.1c0,0,0.1-0.1,0.2-0.1c0.1,0,0.1,0,0.2,0.1c0.1,0.1,0.1,0.3,0,0.4c0,0-0.1,0.1-0.2,0.1
		s-0.1,0-0.2-0.1C830.9,388.3,830.9,388.2,831,388.1z M830.7,389.1c0,0-0.1,0.1-0.2,0.1s-0.1,0-0.2-0.1c-0.1-0.1-0.1-0.3,0-0.4
		c0,0,0.1-0.1,0.2-0.1c0.1,0,0.1,0,0.2,0.1C830.8,388.8,830.8,389,830.7,389.1z M830.2,387.3c0,0,0.1-0.1,0.2-0.1c0,0,0.1,0,0.1,0
		c0,0,0.1,0,0.1,0.1c0.1,0.1,0.1,0.3,0,0.4c0,0-0.1,0-0.1,0.1c0,0-0.1,0-0.1,0c-0.1,0-0.1,0-0.2-0.1
		C830.1,387.6,830.1,387.4,830.2,387.3z M829.6,387.9c0,0,0.1-0.1,0.2-0.1c0,0,0.1,0,0.1,0c0,0,0.1,0,0.1,0.1c0.1,0.1,0.1,0.3,0,0.4
		c0,0-0.1,0-0.1,0.1c0,0-0.1,0-0.1,0c-0.1,0-0.1,0-0.2-0.1C829.5,388.2,829.5,388,829.6,387.9z M825.6,392.7c0,0-0.1,0.1-0.2,0.1
		s-0.1,0-0.2-0.1c-0.1-0.1-0.1-0.3,0-0.4c0,0,0.1-0.1,0.2-0.1s0.1,0,0.2,0.1C825.7,392.5,825.7,392.6,825.6,392.7z M825.8,392.1
		c-0.1-0.1-0.1-0.3,0-0.4c0,0,0.1-0.1,0.2-0.1s0.1,0,0.2,0.1c0.1,0.1,0.1,0.3,0,0.4c0,0-0.1,0.1-0.2,0.1S825.9,392.1,825.8,392.1z
		 M826.3,393.5c0,0-0.1,0.1-0.2,0.1s-0.1,0-0.2-0.1c-0.1-0.1-0.1-0.3,0-0.4c0,0,0.1-0.1,0.2-0.1c0.1,0,0.1,0,0.2,0.1
		C826.4,393.2,826.4,393.4,826.3,393.5z M826.6,392.5c0,0,0.1-0.1,0.2-0.1c0.1,0,0.1,0,0.2,0.1c0.1,0.1,0.1,0.3,0,0.4
		c0,0-0.1,0.1-0.2,0.1s-0.1,0-0.2-0.1C826.5,392.8,826.5,392.6,826.6,392.5z M827,394.2C827,394.2,827,394.3,827,394.2
		c-0.1,0.1-0.2,0.1-0.2,0.1c0,0-0.1,0-0.1,0s-0.1,0-0.1-0.1c-0.1-0.1-0.1-0.3,0-0.4c0,0,0.1,0,0.1-0.1s0.1,0,0.1,0c0,0,0.1,0,0.1,0
		c0,0,0.1,0,0.1,0.1C827.2,394,827.2,394.1,827,394.2z M827.7,393.6C827.7,393.6,827.6,393.6,827.7,393.6c-0.1,0.1-0.2,0.1-0.2,0.1
		c0,0-0.1,0-0.1,0c0,0-0.1,0-0.1-0.1c-0.1-0.1-0.1-0.3,0-0.4c0,0,0.1,0,0.1-0.1s0.1,0,0.1,0c0,0,0.1,0,0.1,0c0,0,0.1,0,0.1,0.1
		C827.8,393.3,827.8,393.5,827.7,393.6z M828.6,393.1l-2.4-2.4l2.4-2.4l2.4,2.4L828.6,393.1z M831.5,389.8c0,0-0.1,0.1-0.2,0.1
		s-0.1,0-0.2-0.1c-0.1-0.1-0.1-0.3,0-0.4c0,0,0.1-0.1,0.2-0.1s0.1,0,0.2,0.1C831.6,389.5,831.6,389.7,831.5,389.8z M832.1,389.2
		c0,0-0.1,0.1-0.2,0.1s-0.1,0-0.2-0.1c-0.1-0.1-0.1-0.3,0-0.4c0,0,0.1-0.1,0.2-0.1s0.1,0,0.2,0.1
		C832.2,388.9,832.2,389.1,832.1,389.2z"/>
	<path class="st0" d="M867.7,355l-7.6-7.6v-53.2l27.5-27.5v-139l-74.8-74.8l-6-6h-705L21,127.7v139l80.8,80.8h245v13.7h365.7
		c-0.1,0.6-0.2,1.2-0.2,1.9v25.1c0,6.4,5.2,11.6,11.6,11.6h11.7c1.8,1.2,4,1.9,6.3,1.9h9.6c1.2,0,2.4-0.2,3.5-0.6
		c1.1,0.4,2.2,0.6,3.4,0.6h34.9l3.5-3.5h20.5c0.4,0.8,1,1.5,1.6,2.1c1.9,1.9,4.4,3,7.1,3s5.2-1,7.1-3l0.4-0.4
		c1.8,2.1,4.5,3.4,7.5,3.4h50.7l11.7-11.7h10.7V355L867.7,355L867.7,355z M859.3,285.7H663.1L622,326.7h-4.8l44.5-44.5h201
		L859.3,285.7z M695.7,300.6l-26.2,26.1h-41.9l36.8-36.9h190.6l-1.6,1.6v9.1L695.7,300.6L695.7,300.6z M853.5,302.6v7.2H718.4
		l-16.9,16.9h-28.3l24.1-24.1L853.5,302.6L853.5,302.6z M664,288.7l-38,38h-2.5l39.7-39.7h194.7l-1.7,1.7H664z M104.3,341.5
		L27,264.2V130.2l77.3-77.2h124.9l-74.8,74.8v139l74.8,74.8H104.3z M237.7,341.5l-77.3-77.3V130.2l77.3-77.2h566.6l77.3,77.2v134.1
		l-12.9,12.9l-209.1,0l-49.6,49.6H346.8v14.8H237.7z M907.8,366.7h-42.2l-26,26c-0.4,0.4-0.4,1.1,0,1.5c0.1,0.1,0.2,0.1,0.2,0.2
		c0.2,0.1,0.3,0.1,0.5,0.1s0.3,0,0.5-0.1c0.1,0,0.2-0.1,0.3-0.2l25.4-25.4h41.4v0.8h-41.3l-25.7,25.7h1.5l24.7-24.7h40.8v0.7h-40.5
		l-24,24H869l17.4-17.4h21.4v1.2h-20.4l-16.2,16.2h17.3l5.9-5.9l5.9-5.9h7.5v2.8h-6.3l-5.9,5.9l-5.9,5.9h-48.5c-0.3,0-0.7,0-1-0.1
		c-0.5-0.1-0.9-0.3-1.3-0.5c-0.1,0-0.2-0.1-0.3-0.2c-0.6-0.4-1.2-1-1.6-1.6c0,0,0-0.1-0.1-0.1c-0.1-0.1-0.2-0.3-0.2-0.5
		c0-0.1-0.1-0.2-0.1-0.3c0,0,0-0.1,0-0.1c0-0.1,0-0.1-0.1-0.2c0-0.1-0.1-0.3-0.1-0.4c0-0.3-0.1-0.5-0.1-0.8c0-0.2,0-0.4,0-0.6
		c0-0.1,0-0.1,0-0.2c0-0.2,0.1-0.4,0.2-0.6c0-0.1,0.1-0.2,0.1-0.3c0.2-0.3,0.4-0.6,0.6-0.9c0,0,0,0,0,0l2.2-2.2l-0.9-0.9l-8.8,8.8
		l-0.3,0.3c-0.4,0.4-0.9,0.7-1.4,1s-1,0.4-1.6,0.5c-0.2,0-0.3,0-0.5,0s-0.3,0-0.5,0c-0.2,0-0.3,0-0.5-0.1c-0.3-0.1-0.6-0.1-0.9-0.3
		c-0.6-0.2-1.1-0.6-1.6-1.1c-0.1-0.1-0.2-0.2-0.3-0.4c-0.1-0.1-0.1-0.2-0.2-0.2c-0.2-0.3-0.3-0.5-0.5-0.8c-0.1-0.2-0.2-0.4-0.2-0.6
		c-0.1-0.2-0.1-0.4-0.2-0.6c0-0.3-0.1-0.6-0.1-0.9c0-0.1,0-0.1,0-0.2h-26.4l-3.5,3.5h-32.8c-0.2,0-0.3,0-0.5,0
		c-0.3,0-0.6-0.1-0.9-0.1c-0.2,0-0.4-0.1-0.5-0.2c-0.5-0.2-1-0.5-1.5-0.8c-0.5,0.4-1.1,0.6-1.7,0.9c-0.3,0.1-0.6,0.2-0.9,0.2
		c-0.2,0-0.3,0-0.5,0.1s-0.3,0-0.5,0h-9.6c-0.4,0-0.9,0-1.3-0.1c-0.4-0.1-0.8-0.2-1.2-0.4c-0.8-0.3-1.5-0.8-2-1.4h-13.5
		c-1.5,0-3-0.5-4.1-1.5c-0.3-0.3-0.6-0.5-0.9-0.9c-0.1-0.1-0.2-0.3-0.3-0.4c0,0-0.1-0.1-0.1-0.1c-0.1-0.1-0.1-0.2-0.2-0.3
		c0,0-0.1-0.1-0.1-0.2c0-0.1-0.1-0.2-0.2-0.3c0-0.1-0.1-0.1-0.1-0.2c0-0.1-0.1-0.2-0.1-0.2c0-0.1-0.1-0.2-0.1-0.3
		c0-0.1,0-0.1-0.1-0.2c0-0.1-0.1-0.2-0.1-0.4c0-0.1,0-0.1,0-0.2c0-0.1,0-0.3-0.1-0.4c0-0.1,0-0.1,0-0.2c0-0.2,0-0.4,0-0.6v-25.1
		c0-0.4,0-0.9,0.1-1.3c0-0.2,0.1-0.4,0.2-0.6c0-0.1,0-0.1,0.1-0.2c0-0.1,0.1-0.2,0.1-0.4c0-0.1,0.1-0.2,0.1-0.3c0,0,0-0.1,0.1-0.1
		c0.2-0.3,0.3-0.6,0.5-0.9c0,0,0.1-0.1,0.1-0.1c0.1-0.1,0.1-0.2,0.2-0.3c0,0,0.1-0.1,0.1-0.1c0.1-0.1,0.1-0.2,0.2-0.2
		c0,0,0.1-0.1,0.1-0.1c0.1-0.1,0.2-0.1,0.2-0.2c0,0,0.1-0.1,0.2-0.1c0.1-0.1,0.1-0.1,0.2-0.2c0,0,0,0,0.1,0c0,0,0.1-0.1,0.1-0.1
		c0.1-0.1,0.3-0.2,0.4-0.3h0c0.2-0.1,0.3-0.2,0.5-0.2c0,0,0.1,0,0.2-0.1c0.1,0,0.2-0.1,0.3-0.1l0,0c0.1,0,0.1,0,0.2-0.1
		c0.1,0,0.2,0,0.2-0.1c0,0,0.1,0,0.1,0c0.1,0,0.1,0,0.2,0c0.1,0,0.2,0,0.3-0.1c0.1,0,0.1,0,0.2,0c0.1,0,0.2,0,0.4,0
		c0.1,0,0.1,0,0.2,0c0.2,0,0.4,0,0.5,0h9.1c0.2,0,0.3,0,0.5,0c0,0,0.1,0,0.1,0c0.3,0,0.7,0.1,1,0.2c0,0,0,0,0.1,0
		c0.2,0,0.3,0.1,0.5,0.2c0.5,0.2,0.9,0.4,1.4,0.7c0.1,0.1,0.3,0.2,0.4,0.3c0.1,0.1,0.2,0.1,0.2,0.2l2.2-2.2H352v-24.1h404.4
		l22.8,22.8H811c-0.5-0.3-1.1-0.7-1.6-1.1c-0.2-0.1-0.3-0.3-0.5-0.4c-0.2-0.2-0.4-0.4-0.6-0.6c-0.3-0.3-0.5-0.5-0.8-0.8
		c-0.1-0.2-0.3-0.3-0.4-0.5c-0.2-0.2-0.3-0.4-0.4-0.6c-0.2-0.2-0.3-0.5-0.4-0.7c-0.3-0.5-0.5-1-0.7-1.5c-0.1-0.3-0.2-0.6-0.3-0.9
		c-0.1-0.3-0.2-0.6-0.2-0.9c0-0.2-0.1-0.4-0.1-0.6c0-0.3-0.1-0.6-0.1-0.9c0-0.3,0-0.6,0-0.9c0-0.3,0-0.6,0-0.9c0-0.2,0-0.5,0.1-0.7
		c0,0,0-0.1,0-0.1c0-0.2,0.1-0.5,0.1-0.7c0,0,0-0.1,0-0.1c0,0,0-0.1,0-0.1c0-0.2,0.1-0.3,0.1-0.5s0.1-0.3,0.1-0.5
		c0.1-0.4,0.2-0.7,0.4-1c0.1-0.3,0.3-0.7,0.5-1c0.2-0.3,0.3-0.6,0.5-1c0.1-0.1,0.2-0.3,0.3-0.5c0.1-0.2,0.2-0.3,0.3-0.5c0,0,0,0,0,0
		c0.1-0.1,0.2-0.3,0.4-0.4c0.1-0.1,0.2-0.2,0.3-0.4c0.2-0.2,0.4-0.4,0.6-0.6c0.2-0.2,0.4-0.4,0.6-0.5c0.4-0.3,0.8-0.6,1.2-0.9
		c0.4-0.3,0.9-0.5,1.3-0.8c0.2-0.1,0.3-0.1,0.5-0.2c0.4-0.2,0.8-0.3,1.1-0.4c0.1,0,0.2-0.1,0.3-0.1c0.8-0.2,1.7-0.4,2.6-0.5
		c0.3,0,0.5,0,0.8,0h0c0.1,0,0.2,0,0.3,0l0,0c0.1,0,0.2,0,0.3,0c0,0,0.1,0,0.2,0c0.1,0,0.1,0,0.2,0c0.1,0,0.2,0,0.3,0
		c0.1,0,0.2,0,0.3,0c0.1,0,0.2,0,0.3,0c0.1,0,0.2,0,0.3,0.1c0.1,0,0.2,0,0.3,0c0.1,0,0.1,0,0.2,0c0,0,0.1,0,0.1,0
		c0.1,0,0.2,0,0.3,0.1c0,0,0.1,0,0.1,0c0.1,0,0.2,0,0.2,0.1c0.1,0,0.2,0,0.3,0.1c0.1,0,0.2,0.1,0.3,0.1l0,0c0.1,0,0.2,0.1,0.2,0.1
		c0.1,0,0.2,0.1,0.2,0.1c0,0,0.1,0,0.2,0.1c0,0,0,0,0,0c0.1,0,0.2,0.1,0.3,0.1h0c0.1,0,0.2,0.1,0.2,0.1c0.1,0,0.1,0.1,0.2,0.1
		c0.1,0,0.2,0.1,0.2,0.1l0,0c0.1,0,0.2,0.1,0.3,0.2c0.1,0,0.2,0.1,0.2,0.1c0,0,0.1,0,0.1,0.1c0,0,0.1,0,0.1,0.1
		c0.1,0,0.2,0.1,0.2,0.2c0.1,0.1,0.2,0.1,0.3,0.2c0.1,0.1,0.2,0.1,0.2,0.2l0,0c0,0,0.1,0.1,0.1,0.1c0,0,0.1,0,0.1,0.1
		c0.1,0.1,0.2,0.1,0.2,0.2c0.1,0.1,0.2,0.1,0.2,0.2c0,0,0,0,0,0c0.1,0.1,0.2,0.1,0.2,0.2c0.1,0.1,0.2,0.1,0.2,0.2
		c0.1,0.1,0.1,0.1,0.2,0.2c0,0,0.1,0.1,0.1,0.1c0,0,0,0,0.1,0.1c0.1,0.1,0.1,0.1,0.2,0.2c0,0,0,0,0,0c0.1,0.1,0.1,0.1,0.2,0.2
		c0.1,0.1,0.1,0.1,0.2,0.2c0,0.1,0.1,0.1,0.2,0.2c0,0,0,0,0,0c0.1,0.1,0.1,0.1,0.2,0.2l0,0c0,0,0,0.1,0.1,0.1c0,0,0.1,0.1,0.1,0.1
		c0.1,0.1,0.1,0.2,0.2,0.2c0,0,0.1,0.1,0.1,0.1c0,0,0.1,0.1,0.1,0.1c0,0.1,0.1,0.2,0.2,0.2c0.1,0.1,0.1,0.2,0.2,0.3
		c0,0.1,0.1,0.2,0.1,0.2c0,0.1,0.1,0.2,0.2,0.3c0,0.1,0.1,0.2,0.1,0.3c0,0,0,0.1,0.1,0.1c0,0,0,0.1,0.1,0.1c0,0.1,0.1,0.2,0.1,0.3
		c0,0.1,0.1,0.2,0.1,0.3c0,0.1,0.1,0.2,0.1,0.3c0,0.1,0,0.1,0.1,0.2c0,0,0,0.1,0,0.1c0,0.1,0.1,0.2,0.1,0.3c0,0.1,0,0.1,0.1,0.2
		c0,0,0,0.1,0,0.1c0,0.1,0,0.2,0.1,0.3l0,0c0,0,0,0,0,0.1c0,0.1,0,0.2,0.1,0.2c0,0.1,0,0.2,0.1,0.3c0,0.1,0,0.1,0,0.2
		c0,0,0,0.1,0,0.1c0,0.1,0,0.2,0,0.3c0,0.1,0,0.2,0,0.4c0,0.1,0,0.2,0,0.2c0,0.1,0,0.3,0,0.4l0,0c0,0.1,0,0.1,0,0.2
		c0,0.2,0,0.4,0,0.6c0,0.5,0,1-0.1,1.4c0,0.2-0.1,0.5-0.1,0.7c0,0.3-0.1,0.6-0.2,0.9c-0.2,0.9-0.5,1.7-1,2.5
		c-0.1,0.2-0.2,0.4-0.3,0.6l4-4l7.2,7.2l8-8l9.9,9.9l-4.4,4.4h9.7v6.6l2.5-2.5h43.4L907.8,366.7L907.8,366.7z"/>
	<path class="st0" d="M813.8,347.1h7.6v-1h-7.3c-0.7,0-0.9-0.2-0.9-0.9v-2.3c0-0.7,0.2-0.9,0.9-0.9h5.6c0.7,0,0.9,0.2,0.9,0.9v1.4
		c0,0.2-0.1,0.3-0.3,0.3H820c-0.1,0-0.2-0.1-0.1-0.2l0.3-2h-1.4l-0.2,0.4c-0.1-0.1-0.3-0.2-0.4-0.3c-0.1,0-0.3-0.1-0.6-0.1h-2.4
		c-0.8,0-1.1,0.3-1.3,1.1l-0.2,1c-0.1,0.8,0.2,1.2,1,1.2h2.4c0.3,0,0.5,0,0.7-0.1c0.1,0,0.3-0.2,0.5-0.3c0.1,0.3,0.4,0.4,0.9,0.4
		h1.5c0.9,0,1.2-0.4,1.2-1.2v-1.6c0-1.3-0.6-1.9-1.9-1.9h-6.3c-1.3,0-1.9,0.6-1.9,1.9v2.5C811.9,346.5,812.5,347.1,813.8,347.1z
		 M818.2,344.2L818.2,344.2c-0.2,0.1-0.3,0.2-0.4,0.2h-2.2c-0.2,0-0.2-0.1-0.2-0.2l0.1-0.5c0-0.2,0.1-0.2,0.3-0.2h2.2
		c0.2,0,0.2,0,0.3,0.1l0.1,0.1L818.2,344.2z"/>
</g>
</svg>
