<?xml version="1.0" encoding="UTF-8"?>
<svg id="Camada_2" data-name="Camada 2" xmlns="http://www.w3.org/2000/svg" viewBox="0 0 427.85 401.29"  width="45" height="45">
  <g id="Camada_2-2" data-name="Camada 2">
    <g>
      <path d="m149.95,401.29H56.98c-1.11-.74-2.23-1.45-3.32-2.21-9.39-6.56-16.72-14.57-16.74-26.82-.09-60.96-.03-121.91-.06-182.87,0-8.11,3.5-13.98,10.55-17.91,10.03-5.59,20.01-11.29,30.02-16.91,42.52-23.89,85.08-47.71,127.53-71.73,4.94-2.79,9.01-2.85,13.92,0,17.28,10.01,34.75,19.71,52.16,29.5,34.83,19.57,69.64,39.18,104.54,58.62,7.99,4.45,11.48,10.84,11.46,19.94-.13,59.96-.08,119.91-.05,179.87,0,10.24-4.2,18.32-12.1,24.6-2.6,2.07-5.34,3.96-8.02,5.93h-91.97c-.04-1.83-.1-3.66-.1-5.49,0-50.78.02-101.56.01-152.34,0-3.15-.03-6.25-.98-9.37-3.85-12.74-12.59-20.7-24.81-24.66-22.42-7.27-45.44-7.33-67.95-1.59-23.05,5.87-31.04,17.91-31.04,41.62-.02,50.61-.05,101.22-.08,151.84Z"/>
      <path d="m0,142.35c3.43-13.07,14.42-18.43,24.83-24.43,33.75-19.44,67.42-39.03,101.25-58.33,26.18-14.94,51.63-31.08,77.24-46.95,7.33-4.54,13.53-5.12,21.16-.27,22.76,14.45,45.93,28.27,68.95,42.33.85.52,1.7,1.05,2.57,1.54,3.16,1.77,4.89,1.44,4.81-2.79-.15-8.49-.02-16.99-.04-25.48-.01-4.88.94-9.61,2.24-14.27,2.2-7.92,7.49-12.69,15.63-13.29,9.46-.7,18.97-.71,28.33,1.43,8.74,2,12.79,6.43,13.96,15.34.67,5.12,1.05,10.25,1.03,15.43-.07,17.65.21,35.31-.13,52.96-.11,5.91,1.76,9.48,6.98,12.36,13.99,7.72,27.63,16.07,41.55,23.91,7.83,4.4,13.87,10.25,17.48,18.52v12c-.64.97-1.28,1.94-1.91,2.92-7.59,11.77-17.81,15.08-30.5,9.25-6.49-2.98-12.63-6.74-18.79-10.38-47.62-28.1-95.28-56.13-142.75-84.48-13.02-7.78-25.3-8.37-38.49-.51-40.21,23.95-80.66,47.48-120.91,71.37-13.32,7.91-26.59,15.89-40.23,23.23-7.55,4.06-15.34,5.45-23.22.38-5.27-3.39-8.71-8.12-11.05-13.79v-8Z"/>
    </g>
  </g>
</svg>