<?xml version="1.0" encoding="utf-8"?>
<!-- Generator: Adobe Illustrator 26.0.3, SVG Export Plug-In . SVG Version: 6.00 Build 0)  -->
<svg version="1.1" id="Layer_1" xmlns="http://www.w3.org/2000/svg" xmlns:xlink="http://www.w3.org/1999/xlink" x="0px" y="0px"
	 viewBox="0 0 919.38 450.71" style="enable-background:new 0 0 919.38 450.71;" xml:space="preserve">
<g>
	<polygon points="770.32,376.04 824.39,376.04 831.72,383.38 834.67,380.43 837.61,377.49 837.61,377.49 827.84,367.71 
		773.77,367.71 750.95,344.89 354.79,344.89 354.79,353.22 354.79,353.22 747.5,353.22 	"/>
	<polygon points="844.54,383.58 844.04,383.08 843.54,382.58 842.59,383.53 841.63,382.58 841.14,383.08 840.64,383.58 
		840.64,383.58 841.11,384.06 841.59,384.53 840.64,385.49 841.63,386.48 842.11,386.01 842.59,385.53 843.06,386.01 843.54,386.48 
		844.54,385.49 843.58,384.53 844.06,384.06 	"/>
	<rect x="745.32" y="357.9" transform="matrix(0.7071 -0.7071 0.7071 0.7071 -35.4364 632.3568)" width="0.61" height="2.1"/>
	<path d="M811.35,351.63c0.36,0.27,0.74,0.52,1.14,0.73c0.27,0.14,0.54,0.28,0.82,0.4c1.12,0.47,2.36,0.74,3.65,0.74
		c1.33,0,2.6-0.28,3.75-0.78l2.7,3.07l-0.81-4.18c0.28-0.22,0.56-0.45,0.82-0.69c0.26-0.24,0.5-0.5,0.73-0.78
		c0.57-0.68,1.05-1.44,1.42-2.27c0.14-0.33,0.27-0.67,0.38-1.02c0.13-0.43,0.24-0.88,0.31-1.35c0.03-0.23,0.06-0.46,0.08-0.7
		c0.02-0.23,0.03-0.47,0.03-0.71c0-1.14-0.2-2.23-0.57-3.23c-0.37-1.01-0.91-1.93-1.58-2.75c-0.57-0.7-1.25-1.31-1.99-1.81
		c-1.5-1.01-3.31-1.6-5.26-1.6c-1.3,0-2.53,0.26-3.65,0.74c-0.28,0.12-0.56,0.25-0.82,0.4c-0.13,0.07-0.26,0.15-0.39,0.22
		c-0.26,0.16-0.51,0.33-0.75,0.51c-0.12,0.09-0.24,0.18-0.35,0.28c-0.23,0.19-0.46,0.39-0.67,0.61c-0.27,0.27-0.53,0.56-0.76,0.86
		c-1.25,1.59-1.99,3.6-1.99,5.78c0,0.43,0.03,0.85,0.08,1.26c0.02,0.14,0.04,0.27,0.06,0.41c0.03,0.18,0.07,0.36,0.12,0.54
		c0.06,0.23,0.12,0.47,0.2,0.7c0.18,0.55,0.4,1.08,0.67,1.58c0.07,0.13,0.15,0.26,0.23,0.39c0.16,0.26,0.32,0.51,0.51,0.75
		c0.27,0.36,0.57,0.7,0.89,1.02c0.21,0.22,0.43,0.42,0.67,0.61C811.11,351.45,811.23,351.54,811.35,351.63z M809.71,344.1
		c0-4.01,3.25-7.26,7.26-7.26c4.01,0,7.26,3.25,7.26,7.26c0,4.01-3.25,7.26-7.26,7.26C812.97,351.36,809.71,348.11,809.71,344.1z"/>
	<path d="M724.64,377.53v9.73h9.73v-6.88l-2.85-2.85H724.64z M732.96,385.86h-6.92v-6.93h4.89l2.03,2.03V385.86z"/>
	<polygon points="852.64,355.28 846.75,349.39 838.1,358.04 829.45,366.69 838.1,375.34 846.75,383.99 852.64,378.1 845.4,370.86 
		859.07,370.86 859.07,370.86 859.07,362.53 845.4,362.53 	"/>
	<path d="M826.82,380.39l-1.9-1.9l-0.95-0.95h-88.19v9.73h4.62c-0.15,0.07-0.29,0.16-0.42,0.26c-0.27,0.19-0.51,0.42-0.71,0.68
		c-0.1,0.13-0.19,0.27-0.27,0.41h-15.02c-0.05,0-0.1-0.01-0.15-0.03c-0.14-0.06-0.23-0.19-0.23-0.35v-25.15
		c0-0.16,0.1-0.29,0.23-0.35c0.05-0.02,0.1-0.03,0.15-0.03h9.07c0.05,0,0.21,0,0.31,0.16c0.02,0.02,0.03,0.05,0.04,0.08
		c0.01,0.03,0.02,0.06,0.02,0.08c0.02,0.08,0.01,0.14-0.02,0.2c-0.02,0.05-0.05,0.09-0.07,0.12c-0.01,0.01-0.01,0.02-0.02,0.02
		l-0.42,0.42c-1.41,1.41-1.41,3.7,0,5.11c0.08,0.08,0.17,0.17,0.27,0.24c0.15,0.12,0.31,0.23,0.47,0.32
		c0.08,0.05,0.17,0.1,0.26,0.14c0.48,0.23,1,0.35,1.55,0.35c0.56,0,1.11-0.13,1.6-0.38c0.1-0.05,0.19-0.1,0.28-0.16
		c0.07-0.04,0.13-0.08,0.19-0.13c0.17-0.12,0.33-0.25,0.48-0.4l1.42-1.42l0.55,0.55l2.51-1.57l0.41,0.41l6.65-6.65
		c0.16-0.16,0.27-0.37,0.32-0.58c0.02-0.1,0.04-0.2,0.04-0.3c0-0.13-0.02-0.25-0.06-0.37c-0.02-0.06-0.04-0.12-0.07-0.17
		c-0.03-0.06-0.06-0.11-0.09-0.16l0.91-0.9l-3.73-3.73l-0.91,0.91c0,0,0,0,0,0c-0.06-0.04-0.12-0.07-0.18-0.1
		c-0.02-0.01-0.04-0.02-0.06-0.02c-0.04-0.02-0.08-0.03-0.13-0.04c-0.02-0.01-0.05-0.01-0.07-0.02c-0.04-0.01-0.08-0.02-0.12-0.02
		c-0.03,0-0.05,0-0.08-0.01c-0.02,0-0.04,0-0.06,0c-0.02,0-0.03,0-0.05,0c-0.04,0-0.09,0.01-0.13,0.02c-0.03,0-0.06,0.01-0.09,0.02
		c-0.05,0.01-0.09,0.02-0.13,0.04c-0.03,0.01-0.06,0.02-0.08,0.03c-0.05,0.02-0.09,0.05-0.14,0.07c-0.02,0.01-0.04,0.02-0.07,0.04
		c-0.07,0.04-0.13,0.09-0.18,0.15l-6.66,6.65l0.42,0.41l-0.79,1.25l-0.79,1.26l0.56,0.55l-1.42,1.42c-0.04,0.03-0.08,0.06-0.12,0.08
		c-0.02,0.01-0.04,0.01-0.06,0.01c-0.03,0.01-0.06,0.02-0.09,0.02c-0.04,0-0.07-0.01-0.1-0.02c-0.02,0-0.03,0-0.04-0.01
		c-0.04-0.02-0.09-0.05-0.12-0.08c-0.07-0.07-0.11-0.17-0.11-0.27c0-0.1,0.04-0.2,0.11-0.27l0.42-0.42
		c0.01-0.01,0.02-0.02,0.02-0.03c0.16-0.16,0.3-0.33,0.42-0.51c0.21-0.31,0.37-0.63,0.47-0.98c0.11-0.36,0.16-0.74,0.15-1.11
		c0-0.1-0.01-0.2-0.02-0.3c-0.04-0.34-0.12-0.68-0.26-1.01c-0.57-1.38-1.85-2.23-3.34-2.23h-9.07c-1.99,0-3.61,1.62-3.61,3.61v25.15
		c0,1.11,0.5,2.1,1.29,2.77c0.16,0.13,0.32,0.25,0.51,0.36c0.13,0.08,0.27,0.15,0.42,0.21c0.43,0.18,0.91,0.28,1.4,0.28h14.92
		c0.14,0.28,0.32,0.54,0.53,0.77c0.16,0.17,0.33,0.33,0.52,0.47c0.56,0.42,1.26,0.66,2.02,0.66h9.64c1.89,0,3.43-1.54,3.43-3.43
		c0-1.32-0.74-2.48-1.86-3.05h73.67V380.39z M746.86,355.19l0.57,0.57l-0.22,0.22l0.28,0.28l0.22-0.22l0.27,0.28l-0.22,0.22
		l0.28,0.28l0.22-0.22l0.28,0.28l-0.22,0.22l0.28,0.28l0.21-0.22l0.58,0.57l-0.59,0.59l-2.53-2.53L746.86,355.19z M743.95,358.35
		l1.07-1.07c0.03-0.04,0.07-0.06,0.12-0.08c0.04-0.02,0.09-0.02,0.14-0.02s0.09,0.01,0.14,0.02c0.04,0.02,0.08,0.04,0.12,0.08
		l1.78,1.78c0.14,0.14,0.14,0.37,0,0.51l-1.07,1.08c-0.03,0.03-0.07,0.06-0.12,0.08c-0.04,0.02-0.09,0.02-0.14,0.02
		s-0.09-0.01-0.14-0.02c-0.04-0.02-0.08-0.04-0.12-0.08l-1.78-1.78C743.81,358.72,743.81,358.49,743.95,358.35z M742.78,359.93
		l1.86,1.86l-2.17,3.45l-3.16-3.15L742.78,359.93z M738.98,362.36l3.24,3.24l-0.44,0.28l-3.07-3.08L738.98,362.36z M738.48,363.16
		l2.94,2.94l-0.5,0.31l-2.75-2.75L738.48,363.16z M737.93,364.03l2.61,2.62l-0.47,0.29l-0.37-0.37l-2.07-2.06L737.93,364.03z
		 M753.89,390.32c0,1.27-1.03,2.3-2.3,2.3h-9.64c-0.69,0-1.3-0.3-1.72-0.77c-0.25-0.28-0.42-0.61-0.51-0.98h-15.75
		c-1.45,0-2.63-1.18-2.63-2.63v-25.15c0-1.45,1.18-2.63,2.63-2.63h9.07c1.08,0,2.01,0.62,2.43,1.62c0.42,1,0.2,2.1-0.57,2.87
		l-0.42,0.42c-0.53,0.53-0.53,1.4,0,1.93c0.26,0.26,0.6,0.4,0.96,0.4c0.37,0,0.71-0.14,0.97-0.4l1.78-1.78l0.9,0.9l-0.06,0.06
		l-1.72,1.72c-0.5,0.5-1.16,0.77-1.86,0.77c-0.7,0-1.36-0.27-1.86-0.77c-1.02-1.02-1.02-2.69,0-3.72l0.42-0.42
		c0.6-0.6,0.38-1.29,0.3-1.49c-0.08-0.2-0.42-0.84-1.26-0.84h-9.07c-0.75,0-1.37,0.61-1.37,1.36v25.15c0,0.75,0.61,1.36,1.37,1.36
		h15.81c0.12-0.38,0.35-0.72,0.64-0.98c0.41-0.37,0.95-0.59,1.54-0.59h0.5c0.13-0.31,0.34-0.56,0.59-0.75
		c0.3-0.22,0.68-0.35,1.07-0.35c0.3,0,0.6,0.07,0.86,0.22c0.28-0.53,0.7-0.96,1.19-1.27c0.53-0.34,1.15-0.52,1.8-0.52
		c0.66,0,1.28,0.19,1.81,0.52c0.53,0.34,0.97,0.82,1.24,1.4c0.11,0.23,0.2,0.49,0.25,0.75h0.32
		C752.86,388.02,753.89,389.05,753.89,390.32z M825.42,385.86h-73.98c-0.84-1.03-2.12-1.65-3.48-1.65c-1.3,0-2.53,0.57-3.4,1.55
		l-0.05,0.06l-0.07-0.01c-0.11-0.01-0.22-0.02-0.33-0.02c-0.22,0-0.43,0.02-0.64,0.07h-6.29v-6.93h86.21l2.03,2.03V385.86z"/>
	<polygon points="774.54,365.85 827.66,365.85 827.66,365.85 837.47,356.04 831.58,350.15 824.2,357.52 777.99,357.52 755.17,334.7 
		354.79,334.7 354.79,343.03 751.72,343.03 	"/>
	<path d="M840.8,381.6c0.07-0.08,0.14-0.16,0.2-0.24c0.09-0.12,0.16-0.25,0.22-0.39c0.01-0.03,0.02-0.06,0.04-0.09
		c0.13-0.36,0.17-0.75,0.1-1.13c-0.01-0.02-0.01-0.05-0.02-0.07c-0.02-0.09-0.05-0.19-0.08-0.28c-0.01-0.03-0.03-0.07-0.04-0.1
		c-0.1-0.24-0.25-0.47-0.45-0.66c-0.42-0.41-0.96-0.62-1.5-0.62c-0.47,0-0.95,0.16-1.34,0.47c-0.06,0.05-0.11,0.09-0.16,0.15
		l-2.44,2.44l-1.5,1.5l-0.94,0.94c-0.19,0.19-0.34,0.42-0.45,0.65c-0.03,0.08-0.06,0.16-0.09,0.24c-0.04,0.13-0.06,0.27-0.08,0.4
		c-0.01,0.07-0.01,0.13-0.01,0.2c0,0.13,0.01,0.27,0.04,0.4c0.05,0.27,0.15,0.53,0.31,0.76c0.08,0.12,0.17,0.23,0.27,0.33
		c0.05,0.05,0.11,0.1,0.16,0.14c0.39,0.32,0.86,0.47,1.34,0.47c0.48,0,0.95-0.16,1.34-0.47c0.05-0.04,0.11-0.09,0.16-0.14l1.94-1.94
		l2-2l0.94-0.94C840.78,381.62,840.79,381.61,840.8,381.6z M833.75,384.53c-0.05,0.05-0.12,0.07-0.19,0.07
		c-0.07,0-0.13-0.02-0.19-0.07c-0.1-0.1-0.1-0.27,0-0.37c0.05-0.05,0.12-0.08,0.19-0.08c0.07,0,0.14,0.02,0.19,0.08
		C833.86,384.26,833.86,384.42,833.75,384.53z M839.17,379.86c0.05-0.05,0.12-0.08,0.19-0.08s0.14,0.02,0.19,0.08
		c0.1,0.11,0.1,0.27,0,0.37c-0.05,0.05-0.12,0.07-0.19,0.07s-0.14-0.02-0.19-0.07C839.07,380.13,839.07,379.96,839.17,379.86z
		 M838.92,380.86c-0.05,0.05-0.12,0.07-0.19,0.07c-0.07,0-0.14-0.02-0.19-0.07c-0.1-0.1-0.1-0.27,0-0.37
		c0.05-0.05,0.12-0.08,0.19-0.08c0.07,0,0.14,0.02,0.19,0.08C839.02,380.59,839.02,380.75,838.92,380.86z M838.42,379.11
		c0.05-0.05,0.12-0.08,0.18-0.08c0.07,0,0.14,0.02,0.19,0.08c0.1,0.1,0.1,0.27,0,0.37c-0.05,0.05-0.12,0.07-0.19,0.07
		c-0.07,0-0.13-0.02-0.18-0.07C838.32,379.38,838.32,379.22,838.42,379.11z M837.8,379.74c0.05-0.05,0.12-0.08,0.18-0.08
		c0.07,0,0.14,0.02,0.19,0.08c0.1,0.1,0.1,0.27,0,0.37c-0.05,0.05-0.12,0.07-0.19,0.07c-0.07,0-0.13-0.02-0.18-0.07
		C837.69,380.01,837.69,379.84,837.8,379.74z M834.01,383.53c0.02-0.03,0.06-0.05,0.09-0.06c0.03-0.01,0.07-0.02,0.1-0.02
		c0.03,0,0.07,0.01,0.1,0.02c0.03,0.01,0.06,0.03,0.09,0.06c0.1,0.1,0.1,0.27,0,0.37c-0.02,0.02-0.06,0.04-0.09,0.06
		c-0.03,0.01-0.07,0.02-0.1,0.02c-0.03,0-0.07-0.01-0.1-0.02c-0.03-0.01-0.06-0.03-0.09-0.06
		C833.9,383.8,833.9,383.63,834.01,383.53z M834.5,385.27c-0.05,0.05-0.12,0.07-0.19,0.07c-0.07,0-0.13-0.02-0.19-0.07
		c-0.1-0.1-0.1-0.27,0-0.37c0.02-0.03,0.06-0.05,0.09-0.06c0.01-0.01,0.02,0,0.03-0.01c0.02-0.01,0.04-0.01,0.07-0.01
		c0.02,0,0.04,0.01,0.06,0.01c0.01,0,0.02,0,0.04,0.01c0.03,0.01,0.06,0.03,0.09,0.06C834.61,385.01,834.61,385.17,834.5,385.27z
		 M834.75,384.28c0.05-0.05,0.12-0.08,0.19-0.08c0.07,0,0.14,0.03,0.19,0.08c0.1,0.1,0.1,0.27,0,0.37
		c-0.05,0.05-0.12,0.07-0.19,0.07c-0.07,0-0.13-0.02-0.19-0.07C834.65,384.55,834.65,384.38,834.75,384.28z M835.25,386.02
		c-0.05,0.05-0.12,0.07-0.19,0.07s-0.13-0.02-0.19-0.07c-0.1-0.1-0.1-0.27,0-0.37c0.05-0.05,0.12-0.08,0.19-0.08
		c0.07,0,0.14,0.02,0.19,0.08C835.35,385.75,835.35,385.92,835.25,386.02z M835.87,385.4c-0.05,0.05-0.12,0.07-0.19,0.07
		s-0.13-0.02-0.19-0.07c-0.1-0.1-0.1-0.27,0-0.37c0.05-0.05,0.12-0.08,0.19-0.08c0.07,0,0.14,0.02,0.19,0.08
		C835.98,385.13,835.98,385.3,835.87,385.4z M836.83,384.94l-2.37-2.37l2.37-2.37l2.37,2.37L836.83,384.94z M839.67,381.61
		c-0.02,0.02-0.06,0.04-0.09,0.06c-0.03,0.01-0.07,0.02-0.1,0.02c-0.07,0-0.13-0.02-0.19-0.07c-0.1-0.1-0.1-0.27,0-0.37
		c0.05-0.05,0.12-0.08,0.19-0.08c0.03,0,0.07,0.01,0.1,0.02c0.03,0.01,0.06,0.03,0.09,0.06
		C839.77,381.34,839.77,381.5,839.67,381.61z M840.29,380.98c-0.05,0.05-0.12,0.07-0.18,0.07c-0.07,0-0.13-0.02-0.19-0.07
		c-0.1-0.1-0.1-0.27,0-0.37c0.05-0.05,0.12-0.08,0.19-0.08c0.07,0,0.13,0.03,0.18,0.08C840.39,380.71,840.39,380.88,840.29,380.98z"
		/>
	<path d="M826.97,388.35h-68.4c-0.26,0-0.51,0.04-0.76,0.11c-0.08,0.02-0.16,0.05-0.23,0.08c-0.1,0.04-0.2,0.08-0.3,0.14
		c-0.15,0.08-0.3,0.18-0.43,0.29c-0.07,0.06-0.13,0.11-0.19,0.17c-0.49,0.49-0.79,1.16-0.79,1.91c0,0.56,0.17,1.08,0.46,1.51
		c0.1,0.15,0.21,0.28,0.33,0.4c0.18,0.18,0.39,0.34,0.62,0.46c0.07,0.04,0.16,0.08,0.23,0.12c0.32,0.13,0.68,0.21,1.05,0.21h31.58
		l3.53-3.53h31.42L826.97,388.35z M758.57,392.92c-0.52,0-0.99-0.21-1.33-0.55c-0.34-0.34-0.55-0.81-0.55-1.33
		c0-1.04,0.84-1.88,1.88-1.88c0.52,0,0.99,0.21,1.33,0.55c0.34,0.34,0.55,0.81,0.55,1.33C760.44,392.08,759.6,392.92,758.57,392.92z
		"/>
	<path d="M832.96,387.36c-0.03-0.07-0.07-0.13-0.12-0.2c-0.08-0.12-0.17-0.23-0.27-0.33c-0.18-0.18-0.38-0.32-0.6-0.42
		c-0.28-0.13-0.59-0.2-0.9-0.2c-0.32,0-0.63,0.07-0.93,0.22c-0.21,0.1-0.4,0.23-0.57,0.41l-4.87,4.87c-0.26,0.26-0.44,0.57-0.53,0.9
		c-0.02,0.07-0.03,0.13-0.05,0.2c-0.03,0.13-0.04,0.27-0.04,0.41c0,0.07,0,0.14,0.01,0.2c0.03,0.27,0.1,0.54,0.23,0.78
		c0.1,0.18,0.22,0.36,0.38,0.51c0.05,0.05,0.11,0.1,0.16,0.14c0.02,0.02,0.04,0.03,0.06,0.04c0.04,0.03,0.07,0.06,0.12,0.09
		c0.01,0,0.02,0.01,0.03,0.02c0.05,0.03,0.1,0.06,0.15,0.09c0.01,0,0.01,0,0.02,0.01c0.12,0.06,0.24,0.11,0.36,0.15c0,0,0,0,0,0
		c0.07,0.02,0.13,0.03,0.2,0.05c0.02,0,0.03,0,0.05,0.01c0.05,0.01,0.1,0.02,0.15,0.02c0.02,0,0.03,0,0.05,0
		c0.05,0,0.1,0.01,0.16,0.01c0,0,0,0,0,0c0.02,0,0.03,0,0.05,0c0.05,0,0.1,0,0.15-0.01c0.02,0,0.05-0.01,0.07-0.01
		c0.04,0,0.08-0.01,0.12-0.02c0.03-0.01,0.06-0.02,0.09-0.02c0.03-0.01,0.07-0.02,0.11-0.02c0.03-0.01,0.06-0.02,0.09-0.03
		c0.03-0.01,0.07-0.02,0.1-0.04c0.03-0.01,0.06-0.02,0.08-0.04c0.03-0.02,0.07-0.03,0.11-0.05c0.04-0.02,0.08-0.05,0.12-0.07
		c0.02-0.01,0.04-0.02,0.06-0.03c0.04-0.02,0.08-0.05,0.12-0.08c0.02-0.02,0.04-0.03,0.06-0.04c0.06-0.04,0.11-0.09,0.16-0.14
		l0.94-0.94l3-3l0.94-0.94c0.27-0.27,0.45-0.6,0.55-0.95c0.02-0.06,0.03-0.12,0.04-0.19c0.07-0.38,0.03-0.78-0.12-1.15
		C833.02,387.48,832.99,387.42,832.96,387.36z M830.97,388.06c0.05-0.05,0.12-0.08,0.18-0.08c0.07,0,0.14,0.03,0.19,0.08
		c0.1,0.1,0.11,0.27,0,0.37c-0.05,0.05-0.12,0.07-0.19,0.07c-0.07,0-0.13-0.02-0.18-0.07C830.87,388.33,830.87,388.16,830.97,388.06
		z M830.72,389.06c-0.05,0.05-0.12,0.07-0.19,0.07c-0.07,0-0.13-0.02-0.18-0.07c-0.1-0.1-0.1-0.27,0-0.37
		c0.05-0.05,0.12-0.08,0.18-0.08c0.07,0,0.14,0.02,0.19,0.08C830.82,388.78,830.82,388.95,830.72,389.06z M830.22,387.31
		c0.05-0.05,0.12-0.08,0.19-0.08c0.03,0,0.07,0.01,0.1,0.02c0.03,0.01,0.06,0.03,0.09,0.06c0.1,0.1,0.1,0.27,0,0.37
		c-0.02,0.02-0.06,0.04-0.09,0.06c-0.03,0.01-0.07,0.02-0.1,0.02c-0.07,0-0.13-0.02-0.19-0.07
		C830.12,387.58,830.12,387.41,830.22,387.31z M829.6,387.93c0.05-0.05,0.12-0.08,0.19-0.08c0.03,0,0.07,0.01,0.1,0.02
		c0.03,0.01,0.06,0.03,0.09,0.06c0.1,0.1,0.1,0.27,0,0.37c-0.02,0.02-0.06,0.04-0.09,0.06c-0.03,0.01-0.07,0.02-0.1,0.02
		c-0.07,0-0.13-0.02-0.19-0.07C829.5,388.2,829.5,388.04,829.6,387.93z M825.56,392.72c-0.05,0.05-0.12,0.07-0.19,0.07
		s-0.13-0.02-0.19-0.07c-0.1-0.1-0.1-0.27,0-0.37c0.05-0.05,0.12-0.08,0.19-0.08s0.14,0.03,0.19,0.08
		C825.66,392.45,825.66,392.62,825.56,392.72z M825.81,392.1c-0.1-0.1-0.1-0.27,0-0.37c0.05-0.05,0.12-0.08,0.19-0.08
		s0.14,0.03,0.19,0.08c0.1,0.11,0.1,0.27,0,0.37c-0.05,0.05-0.12,0.07-0.19,0.07S825.86,392.15,825.81,392.1z M826.3,393.47
		c-0.05,0.05-0.12,0.07-0.19,0.07c-0.07,0-0.13-0.02-0.18-0.07c-0.11-0.1-0.11-0.27,0-0.37c0.05-0.05,0.12-0.08,0.18-0.08
		c0.07,0,0.14,0.02,0.19,0.08C826.41,393.2,826.41,393.37,826.3,393.47z M826.56,392.47c0.05-0.05,0.12-0.08,0.18-0.08
		c0.07,0,0.14,0.02,0.19,0.08c0.1,0.1,0.1,0.27,0,0.37c-0.05,0.05-0.12,0.07-0.19,0.07c-0.07,0-0.13-0.02-0.18-0.07
		C826.45,392.75,826.45,392.58,826.56,392.47z M827.05,394.22c-0.02,0.03-0.06,0.04-0.09,0.06c-0.03,0.01-0.07,0.02-0.1,0.02
		c-0.03,0-0.07-0.01-0.1-0.02s-0.06-0.03-0.09-0.06c-0.1-0.1-0.1-0.27,0-0.37c0.02-0.03,0.06-0.05,0.09-0.06s0.07-0.02,0.1-0.02
		c0.03,0,0.07,0.01,0.1,0.02c0.03,0.01,0.06,0.03,0.09,0.06C827.16,393.95,827.16,394.12,827.05,394.22z M827.68,393.59
		c-0.02,0.02-0.06,0.04-0.09,0.06c-0.03,0.01-0.07,0.02-0.1,0.02c-0.03,0-0.07-0.01-0.1-0.02c-0.03-0.01-0.06-0.03-0.09-0.06
		c-0.1-0.1-0.1-0.27,0-0.37c0.02-0.03,0.06-0.05,0.09-0.06c0.03-0.01,0.07-0.02,0.1-0.02c0.03,0,0.07,0.01,0.1,0.02
		c0.03,0.01,0.06,0.03,0.09,0.06C827.78,393.32,827.78,393.49,827.68,393.59z M828.64,393.14l-2.37-2.37l2.37-2.37l2.37,2.37
		L828.64,393.14z M831.47,389.8c-0.05,0.05-0.12,0.07-0.19,0.07s-0.13-0.02-0.19-0.07c-0.1-0.1-0.1-0.27,0-0.37
		c0.05-0.05,0.12-0.08,0.19-0.08s0.13,0.02,0.19,0.08C831.57,389.53,831.57,389.7,831.47,389.8z M832.09,389.18
		c-0.05,0.05-0.12,0.07-0.19,0.07c-0.07,0-0.13-0.02-0.19-0.07c-0.1-0.1-0.1-0.27,0-0.37c0.05-0.05,0.12-0.08,0.19-0.08
		c0.07,0,0.13,0.03,0.19,0.08C832.2,388.91,832.2,389.07,832.09,389.18z"/>
	<path d="M867.69,355.05l-7.63-7.63v-53.22l27.48-27.49V127.68l-74.79-74.76l-6-6H101.8l-80.79,80.76v139.03l80.79,80.79h245.03
		v13.68h365.71c-0.1,0.62-0.16,1.25-0.16,1.9v25.15c0,6.38,5.19,11.58,11.58,11.58h11.68c1.85,1.24,4.03,1.9,6.31,1.9h9.64
		c1.21,0,2.41-0.19,3.54-0.56c1.09,0.37,2.25,0.56,3.44,0.56h34.88l3.53-3.53h20.45c0.44,0.77,0.99,1.49,1.64,2.14
		c1.9,1.91,4.43,2.96,7.13,2.96c2.7,0,5.23-1.05,7.13-2.95l0.44-0.44c1.82,2.08,4.49,3.39,7.46,3.39h50.65l11.74-11.74h10.71v-36.5
		H867.69z M859.3,285.67H663.1l-41.07,41.07h-4.8l44.46-44.46h201L859.3,285.67z M695.73,300.59l-26.15,26.15h-41.91l36.85-36.85
		h190.57l-1.58,1.58v9.12H695.73z M853.5,302.6v7.22H718.43l-16.92,16.92h-28.28l24.14-24.14H853.5z M663.98,288.74l-38,38h-2.45
		l39.73-39.73h194.69l-1.73,1.73H663.98z M104.29,341.5l-77.28-77.28V130.17l77.28-77.25h124.92l-74.8,74.76v139.03l74.8,74.79
		H104.29z M237.69,341.5l-77.28-77.28V130.17l77.28-77.25h566.57l77.27,77.25v134.05l-12.92,12.92l-209.06-0.01l-49.61,49.61H346.83
		v14.76H237.69z M907.76,366.69h-42.25l-26.03,26.03c-0.41,0.41-0.41,1.06,0,1.47c0.07,0.07,0.15,0.12,0.22,0.17
		c0.16,0.09,0.34,0.14,0.51,0.14c0.17,0,0.33-0.04,0.48-0.12c0.09-0.05,0.18-0.11,0.26-0.18l25.42-25.42h41.38v0.82h-41.28
		l-25.73,25.73h1.5l24.66-24.66h40.84v0.71h-40.51l-23.96,23.96H869l17.4-17.4h21.37v1.24H887.4l-16.16,16.16h17.34l5.87-5.87
		l5.87-5.87h7.45v2.81h-6.28l-5.87,5.87l-5.87,5.87h-48.52c-0.33,0-0.65-0.03-0.96-0.1c-0.47-0.1-0.91-0.26-1.31-0.48
		c-0.09-0.05-0.18-0.1-0.27-0.16c-0.64-0.41-1.17-0.96-1.56-1.61c-0.02-0.03-0.04-0.07-0.06-0.1c-0.08-0.15-0.16-0.3-0.22-0.46
		c-0.05-0.11-0.09-0.23-0.13-0.34c-0.01-0.03-0.02-0.07-0.03-0.1c-0.02-0.07-0.04-0.13-0.06-0.19c-0.04-0.14-0.07-0.28-0.09-0.43
		c-0.04-0.26-0.07-0.52-0.07-0.8c0-0.19,0.02-0.38,0.04-0.57c0.01-0.08,0.02-0.15,0.04-0.23c0.04-0.21,0.1-0.42,0.17-0.61
		c0.04-0.11,0.09-0.22,0.14-0.33c0.16-0.32,0.37-0.61,0.62-0.87c0.01-0.01,0.01-0.01,0.02-0.02l2.21-2.21l-0.93-0.93l-8.78,8.78
		l-0.31,0.31c-0.41,0.41-0.87,0.73-1.38,0.97c-0.51,0.24-1.05,0.39-1.62,0.45c-0.16,0.02-0.32,0.02-0.49,0.02s-0.33-0.01-0.49-0.02
		c-0.16-0.02-0.32-0.04-0.48-0.07c-0.32-0.06-0.62-0.15-0.92-0.28c-0.59-0.24-1.13-0.61-1.6-1.07c-0.11-0.11-0.22-0.23-0.31-0.35
		c-0.07-0.08-0.13-0.17-0.2-0.25c-0.19-0.26-0.35-0.53-0.48-0.82c-0.09-0.19-0.17-0.39-0.23-0.59c-0.06-0.2-0.11-0.41-0.15-0.62
		c-0.05-0.28-0.07-0.56-0.07-0.86c0-0.06,0-0.12,0.01-0.17h-26.43l-3.53,3.53h-32.75c-0.15,0-0.31-0.01-0.46-0.02
		c-0.31-0.02-0.61-0.07-0.9-0.15c-0.18-0.05-0.36-0.1-0.54-0.17c-0.53-0.19-1.03-0.47-1.48-0.82c-0.51,0.36-1.08,0.65-1.68,0.85
		c-0.31,0.1-0.62,0.17-0.94,0.23c-0.16,0.03-0.32,0.04-0.49,0.06c-0.17,0.02-0.33,0.02-0.5,0.02h-9.64c-0.43,0-0.86-0.04-1.27-0.13
		c-0.41-0.09-0.81-0.21-1.19-0.37c-0.76-0.32-1.45-0.8-2.03-1.4h-13.5c-1.55,0-2.98-0.55-4.09-1.47c-0.32-0.26-0.61-0.55-0.87-0.87
		c-0.11-0.13-0.21-0.26-0.31-0.4c-0.03-0.04-0.06-0.09-0.09-0.14c-0.06-0.09-0.12-0.19-0.18-0.29c-0.03-0.05-0.07-0.11-0.1-0.17
		c-0.05-0.09-0.1-0.19-0.15-0.28c-0.03-0.06-0.06-0.12-0.08-0.18c-0.04-0.08-0.07-0.17-0.1-0.25c-0.04-0.11-0.08-0.22-0.12-0.34
		c-0.03-0.07-0.05-0.15-0.07-0.23c-0.03-0.12-0.06-0.24-0.09-0.36c-0.02-0.07-0.04-0.15-0.05-0.22c-0.02-0.13-0.04-0.27-0.06-0.41
		c-0.01-0.07-0.02-0.13-0.03-0.2c-0.02-0.2-0.03-0.41-0.03-0.62v-25.15c0-0.44,0.04-0.88,0.13-1.3c0.04-0.2,0.09-0.39,0.15-0.58
		c0.02-0.06,0.04-0.12,0.06-0.19c0.04-0.12,0.09-0.25,0.14-0.37c0.04-0.1,0.09-0.21,0.13-0.31c0.03-0.05,0.05-0.1,0.07-0.15
		c0.16-0.31,0.33-0.59,0.53-0.87c0.03-0.04,0.07-0.08,0.1-0.13c0.07-0.09,0.14-0.18,0.22-0.27c0.04-0.05,0.08-0.09,0.12-0.14
		c0.07-0.08,0.14-0.16,0.22-0.23c0.05-0.05,0.09-0.09,0.14-0.14c0.08-0.07,0.16-0.14,0.24-0.21c0.05-0.04,0.1-0.08,0.15-0.12
		c0.07-0.06,0.14-0.11,0.22-0.17c0.02-0.02,0.04-0.03,0.06-0.04c0.04-0.03,0.08-0.07,0.13-0.1c0.14-0.09,0.28-0.18,0.42-0.27
		c0,0,0.01,0,0.01,0c0.15-0.08,0.3-0.16,0.45-0.24c0.05-0.02,0.1-0.04,0.15-0.07c0.11-0.05,0.21-0.09,0.32-0.13h0
		c0.06-0.02,0.12-0.04,0.18-0.06c0.07-0.02,0.15-0.05,0.22-0.07c0.03-0.01,0.06-0.02,0.09-0.03c0.07-0.02,0.13-0.04,0.19-0.05
		c0.11-0.03,0.22-0.05,0.32-0.07c0.06-0.01,0.13-0.03,0.19-0.04c0.12-0.02,0.24-0.03,0.36-0.05c0.06-0.01,0.11-0.02,0.17-0.02
		c0.18-0.01,0.36-0.02,0.54-0.02h9.07c0.17,0,0.35,0.01,0.52,0.02c0.03,0,0.06,0,0.08,0.01c0.35,0.03,0.7,0.09,1.03,0.18
		c0.02,0.01,0.04,0.01,0.07,0.02c0.17,0.05,0.34,0.1,0.51,0.16c0.48,0.17,0.94,0.4,1.36,0.69c0.13,0.09,0.26,0.18,0.38,0.28
		c0.09,0.07,0.17,0.13,0.25,0.21l2.18-2.18H351.98v-24.14h404.35l22.82,22.82h31.8c-0.55-0.32-1.07-0.67-1.56-1.06
		c-0.16-0.13-0.32-0.27-0.48-0.4c-0.21-0.18-0.41-0.38-0.61-0.57c-0.26-0.27-0.51-0.54-0.75-0.83c-0.14-0.17-0.27-0.33-0.39-0.5
		c-0.15-0.2-0.28-0.4-0.42-0.6c-0.15-0.23-0.3-0.47-0.43-0.71c-0.27-0.49-0.51-1-0.72-1.52c-0.12-0.3-0.22-0.6-0.31-0.9
		c-0.09-0.31-0.17-0.62-0.24-0.94c-0.05-0.21-0.08-0.42-0.12-0.64c-0.05-0.28-0.08-0.57-0.11-0.87c-0.02-0.29-0.04-0.59-0.05-0.88
		c0-0.3,0-0.6,0.02-0.9c0.02-0.25,0.04-0.49,0.07-0.74c0.01-0.05,0.01-0.1,0.02-0.14c0.03-0.24,0.07-0.48,0.11-0.71
		c0.01-0.03,0.01-0.06,0.02-0.08c0.01-0.04,0.02-0.08,0.03-0.12c0.03-0.16,0.07-0.32,0.11-0.48c0.04-0.16,0.08-0.32,0.13-0.48
		c0.1-0.35,0.22-0.7,0.36-1.04c0.13-0.34,0.28-0.67,0.45-1c0.17-0.32,0.34-0.64,0.53-0.95c0.1-0.15,0.2-0.3,0.3-0.45
		c0.11-0.16,0.22-0.31,0.34-0.47c0,0,0-0.01,0.01-0.01c0.12-0.15,0.23-0.3,0.36-0.44c0.1-0.12,0.2-0.24,0.31-0.35
		c0.18-0.2,0.37-0.39,0.56-0.58c0.19-0.19,0.39-0.37,0.6-0.55c0.37-0.31,0.76-0.6,1.16-0.87c0.42-0.28,0.86-0.54,1.32-0.77
		c0.16-0.07,0.31-0.15,0.47-0.22c0.37-0.17,0.75-0.31,1.13-0.44c0.11-0.04,0.22-0.07,0.33-0.1c0.83-0.25,1.7-0.42,2.59-0.48
		c0.27-0.02,0.54-0.03,0.8-0.03h0.04c0.09,0,0.18,0,0.27,0c0,0,0,0,0,0c0.1,0,0.2,0,0.3,0.01c0.05,0,0.1,0.01,0.15,0.01
		c0.06,0,0.12,0.01,0.19,0.01c0.1,0.01,0.2,0.01,0.3,0.02c0.11,0.01,0.22,0.02,0.33,0.04c0.1,0.01,0.19,0.02,0.29,0.04
		c0.11,0.02,0.22,0.04,0.33,0.06c0.1,0.02,0.19,0.03,0.28,0.05c0.07,0.02,0.14,0.03,0.21,0.05c0.04,0.01,0.08,0.02,0.12,0.03
		c0.09,0.02,0.18,0.04,0.27,0.06c0.03,0.01,0.07,0.02,0.1,0.03c0.08,0.02,0.15,0.04,0.23,0.06c0.09,0.02,0.18,0.05,0.27,0.08
		c0.11,0.03,0.22,0.07,0.33,0.11h0c0.08,0.03,0.17,0.06,0.25,0.08c0.07,0.03,0.15,0.06,0.22,0.09c0.05,0.02,0.11,0.04,0.16,0.06
		c0,0,0,0,0.01,0c0.1,0.04,0.19,0.08,0.29,0.12c0,0,0.01,0,0.01,0c0.08,0.03,0.16,0.07,0.23,0.11c0.07,0.03,0.13,0.06,0.2,0.09
		c0.08,0.04,0.15,0.08,0.23,0.12c0,0,0,0,0,0c0.1,0.05,0.2,0.1,0.3,0.16c0.08,0.04,0.16,0.09,0.24,0.14
		c0.04,0.02,0.09,0.05,0.13,0.08c0.05,0.02,0.1,0.05,0.14,0.08c0.08,0.05,0.16,0.1,0.24,0.16c0.09,0.06,0.18,0.11,0.27,0.17
		c0.08,0.06,0.16,0.11,0.24,0.17c0,0,0,0,0,0c0.05,0.03,0.09,0.07,0.14,0.1c0.04,0.03,0.07,0.05,0.11,0.08
		c0.08,0.06,0.15,0.12,0.23,0.18c0.08,0.06,0.16,0.12,0.23,0.19c0,0,0.01,0,0.01,0.01c0.07,0.06,0.15,0.13,0.22,0.19
		c0.07,0.07,0.15,0.13,0.23,0.2c0.07,0.07,0.14,0.13,0.21,0.2c0.05,0.05,0.1,0.09,0.14,0.14c0.02,0.02,0.05,0.05,0.07,0.07
		c0.07,0.07,0.13,0.14,0.2,0.21c0.02,0.02,0.03,0.03,0.04,0.05c0.06,0.06,0.11,0.12,0.16,0.17c0.07,0.07,0.13,0.15,0.19,0.22
		c0.05,0.06,0.11,0.12,0.16,0.19c0.01,0.02,0.02,0.03,0.04,0.05c0.06,0.07,0.12,0.15,0.18,0.23h0c0.02,0.03,0.05,0.07,0.07,0.1
		c0.04,0.05,0.07,0.1,0.11,0.14c0.06,0.08,0.11,0.16,0.17,0.24c0.03,0.04,0.06,0.08,0.09,0.13c0.03,0.04,0.06,0.08,0.09,0.13
		c0.05,0.08,0.1,0.16,0.16,0.24c0.06,0.09,0.11,0.18,0.16,0.27c0.05,0.08,0.1,0.17,0.14,0.25c0.05,0.09,0.1,0.18,0.15,0.27
		c0.04,0.09,0.09,0.17,0.13,0.26c0.02,0.05,0.05,0.09,0.07,0.14c0.02,0.05,0.05,0.09,0.07,0.14c0.04,0.09,0.08,0.17,0.12,0.26
		c0.04,0.1,0.08,0.2,0.12,0.3c0.03,0.09,0.07,0.18,0.1,0.27c0.02,0.07,0.05,0.13,0.07,0.19c0.01,0.04,0.03,0.08,0.04,0.12
		c0.03,0.09,0.06,0.18,0.09,0.27c0.02,0.07,0.04,0.14,0.06,0.21c0.01,0.04,0.02,0.07,0.03,0.11c0.03,0.09,0.05,0.18,0.08,0.27
		c0,0,0,0,0,0c0.01,0.02,0.01,0.05,0.02,0.08c0.02,0.08,0.04,0.17,0.06,0.25c0.02,0.09,0.04,0.18,0.06,0.27
		c0.02,0.07,0.03,0.14,0.04,0.21c0.01,0.05,0.02,0.09,0.02,0.14c0.02,0.09,0.03,0.17,0.05,0.27c0.02,0.12,0.03,0.25,0.05,0.37
		c0.01,0.08,0.03,0.17,0.03,0.25c0.01,0.14,0.02,0.28,0.03,0.42v0c0.01,0.07,0.01,0.14,0.02,0.21c0.01,0.21,0.02,0.43,0.02,0.64
		c0,0.48-0.03,0.96-0.08,1.44c-0.03,0.24-0.07,0.48-0.11,0.71c-0.05,0.3-0.12,0.59-0.19,0.88c-0.22,0.87-0.54,1.72-0.95,2.52
		c-0.1,0.2-0.21,0.39-0.32,0.57l4.04-4.04l7.21,7.21l7.96-7.96l9.87,9.87l-4.43,4.43h9.7v6.64l2.47-2.47h43.41V366.69z"/>
	<path d="M813.8,347.09h7.61v-1.04h-7.26c-0.7,0-0.93-0.21-0.93-0.93v-2.32c0-0.71,0.22-0.93,0.93-0.93h5.6
		c0.7,0,0.93,0.21,0.93,0.93v1.43c0,0.24-0.08,0.3-0.34,0.3h-0.37c-0.12,0-0.17-0.07-0.14-0.22l0.34-1.96h-1.39l-0.17,0.35
		c-0.13-0.15-0.26-0.24-0.38-0.29c-0.12-0.04-0.33-0.06-0.61-0.06h-2.39c-0.78,0-1.14,0.3-1.28,1.1l-0.17,0.95
		c-0.14,0.79,0.17,1.17,0.95,1.17h2.39c0.3,0,0.52-0.02,0.67-0.08c0.14-0.04,0.32-0.16,0.54-0.34c0.13,0.27,0.42,0.42,0.86,0.42
		h1.54c0.86,0,1.25-0.38,1.25-1.25v-1.6c0-1.28-0.6-1.87-1.87-1.87h-6.31c-1.27,0-1.87,0.59-1.87,1.87v2.5
		C811.92,346.5,812.52,347.09,813.8,347.09z M818.21,344.25l-0.1,0.08c-0.07,0.06-0.18,0.1-0.31,0.1h-2.16
		c-0.18,0-0.23-0.06-0.2-0.24l0.08-0.47c0.04-0.17,0.08-0.21,0.26-0.21h2.16c0.15,0,0.25,0.03,0.3,0.1l0.06,0.08L818.21,344.25z"/>
</g>
</svg>
