<svg id="Layer_1" data-name="Layer 1" xmlns="http://www.w3.org/2000/svg" width="1901.84897" height="1274.57962" viewBox="0 0 1901.84897 1274.57962">
  <defs>
    <style>
      .cls-1 {
        fill: #fff;
      }
    </style>
  </defs>
  <g>
    <path class="cls-1" d="M1015.54238,1394.25137a38.32209,38.32209,0,0,0-16.85977-3.51779,65.34066,65.34066,0,0,0-23.16889,4.634c-24.06164,9.3785-42.93041,31.48634-42.93041,50.29991a24.77769,24.77769,0,0,0,.50294,5.30326,20.921,20.921,0,0,0,11.611,14.73833c10.21672,5.1363,25.1779,4.74513,39.97279-1.06106h.05588c27.07513-10.60653,46.50271-36.06383,42.42747-55.659A20.89024,20.89024,0,0,0,1015.54238,1394.25137Z" transform="translate(-539.84196 -888.6286)"/>
    <path class="cls-1" d="M1888.839,1155.48048a116.83414,116.83414,0,0,0-36.902-21.38206,105.53719,105.53719,0,0,0-35.67266-6.36364,91.75163,91.75163,0,0,0-41.08905,9.43438c-48.40131,23.94987-63.86541,86.08433-34.44463,138.56224,29.36489,52.36479,92.72874,75.58888,141.13,51.75078,23.11165-11.44407,39.52573-31.93271,46.22466-57.66874,6.8107-26.46179,2.62369-55.21268-11.78-80.89282A120.4545,120.4545,0,0,0,1888.839,1155.48048Zm-28.58392,87.70352c3.406,10.16084,13.00806,16.80389,22.83361,15.79939l4.41053-.447-1.731,3.85172a56.62975,56.62975,0,0,1-35.72854,31.37525,57.38727,57.38727,0,0,1-16.24644,2.28841,62.287,62.287,0,0,1-30.92684-8.42989,68.83064,68.83064,0,0,1-31.20762-38.40811c-.11176-.27941-.16764-.55881-.2794-.83822a14.539,14.539,0,0,1-10.16084-3.85171,12.74618,12.74618,0,0,1,0-18.81357,13.87169,13.87169,0,0,1,7.20186-3.62887c2.23388-24.5632,18.14367-44.5496,40.97728-51.19265,31.20625-9.10046,66.15518,10.16016,77.76621,42.98629l1.67507,4.68993-4.96934-1.56331a18.53365,18.53365,0,0,0-11.2771-.16765,17.98708,17.98708,0,0,0-10.88593,8.7093A21.9669,21.9669,0,0,0,1860.25508,1243.184Z" transform="translate(-539.84196 -888.6286)"/>
    <path class="cls-1" d="M2159.375,1414.68345l-1.228-.7251v-1.34046c0-101.21383-60.40487-198.4635-170.15966-273.77366l-.89274-.61469-.11176-1.06038c-12.33748-84.68866-90.38446-148.49887-181.54852-148.49887a190.25708,190.25708,0,0,0-107.52227,32.71436l-.95.66989-1.11627-.22352a1073.39161,1073.39161,0,0,0-410.0468,0l-1.17215.22352-.94861-.66989a190.13332,190.13332,0,0,0-107.52364-32.71436c-91.21995,0-169.20968,63.81021-181.49128,148.49887l-.16764,1.06038-.8941.61469c-109.75479,75.366-170.21554,172.55983-170.21554,273.71846v1.33978l-1.228.781c-117.34783,71.179-179.37052,156.53827-179.37052,246.86548,0,75.869,44.88352,149.55994,129.96471,213.53711a113.93007,113.93007,0,0,1-8.59753-42.9304c0-67.3832,63.36248-131.528,178.31014-180.59922,109.53263-46.83868,260.65451-78.26914,425.51091-88.59694l8.03872-.50293,5.137,5.86207c7.0901,8.15048,45.61,48.7366,109.643,48.7366,64.25658-.16764,102.61018-40.58612,109.643-48.7366l5.137-5.86207,8.03872.50293c164.8564,10.27192,315.97964,41.75826,425.56679,88.59694,114.94766,49.0712,178.25426,113.216,178.25426,180.59922a114.68978,114.68978,0,0,1-8.54028,42.87452c85.02394-63.92129,129.85158-137.55638,129.85158-213.48123C2338.74547,1571.16584,2276.72278,1485.8066,2159.375,1414.68345ZM994.775,1487.314a92.10627,92.10627,0,0,1-33.218,6.58785,64.687,64.687,0,0,1-29.19725-6.47608c-13.23022-6.643-22.10715-17.92016-24.95437-31.70919-6.58717-31.26349,18.92465-67.77437,58.06058-83.07083,22.3852-8.70861,45.107-8.70861,62.41387,0,13.17433,6.58785,22.05127,17.80907,24.95436,31.654C1059.36552,1435.56258,1033.90822,1472.01757,994.775,1487.314Zm273.88473-197.90536a151.25568,151.25568,0,0,1-80.94871,68.723,138.71608,138.71608,0,0,1-46.89388,8.31812,124.65644,124.65644,0,0,1-55.71493-12.89629c-31.20762-15.46411-53.25889-42.70756-62.07994-76.81759-8.65341-33.38425-3.51643-69.44808,14.51548-101.54843a151.18756,151.18756,0,0,1,81.78557-68.89064c34.724-12.16983,70.89963-10.49544,101.772,4.8017C1284.79443,1142.64007,1306.17513,1222.64016,1268.65975,1289.40867Zm222.13464,211.08106c-42.9304,0-66.0993-69.89513-66.0993-135.60326,0-65.764,23.1689-135.60326,66.0993-135.60326s66.0993,69.83925,66.0993,135.60326C1556.89369,1430.5946,1533.72479,1500.48973,1490.79439,1500.48973Zm405.69352-146.93624a125.0662,125.0662,0,0,1-55.54865,12.78453c-51.58381,0-101.82784-30.20243-128.06611-76.92935-37.40361-66.82439-16.07744-146.7686,47.67622-178.31014,31.15173-15.40822,67.60536-17.02741,102.55293-4.57817a151.70488,151.70488,0,0,1,81.00459,68.66711,142.27529,142.27529,0,0,1,18.53484,69.16867,130.74481,130.74481,0,0,1-4.07524,32.43564C1949.74544,1310.84593,1927.69416,1338.08938,1896.48791,1353.55349Zm177.69545,102.16312c-2.9031,13.789-11.78,25.06614-24.89849,31.70919a65.0955,65.0955,0,0,1-29.25313,6.47608,92.09919,92.09919,0,0,1-33.21661-6.58785c-39.07869-15.24058-64.59187-51.75145-58.11647-83.07015,2.959-13.789,11.83592-25.01025,24.95437-31.5981,17.36271-8.70861,40.08455-8.70861,62.47111,0C2055.20283,1387.94224,2080.716,1424.39724,2074.18336,1455.71661Z" transform="translate(-539.84196 -888.6286)"/>
    <path class="cls-1" d="M2374.9783,1470.566c-29.97958-40.47435-69.61708-78.26913-118.13016-112.65789-16.24507-103.05586-78.49266-200.36209-178.08661-277.90545-36.7344-112.04456-148.33191-191.37408-273.32728-191.37408A297.95449,297.95449,0,0,0,1678.205,916.93312c-122.03776-19.76287-252.78344-19.76287-374.8212,0a297.95,297.95,0,0,0-127.22926-28.30452c-124.99537,0-236.537,79.32952-273.32728,191.37408-99.594,77.59856-161.84154,174.90479-178.08661,277.90545-48.51308,34.38876-88.15058,72.23942-118.07292,112.65789C562.34029,1530.468,539.842,1594.66866,539.842,1661.54893c0,147.27153,108.47226,279.85994,305.48488,373.36965,174.06726,82.73486,403.292,128.28964,645.46755,128.28964,242.17691,0,471.40029-45.55478,645.46891-128.28964,196.95675-93.50971,305.42763-226.09812,305.42763-373.36965C2441.69093,1594.66866,2419.24849,1530.41208,2374.9783,1470.566Zm-262.66487,513.94089c-166.755,79.21776-387.4926,122.87461-621.519,122.87461-234.02507,0-454.764-43.65685-621.51768-122.87461-176.46878-83.74-273.608-198.46417-273.608-322.958,0-54.65387,18.81425-107.68923,55.88394-157.76629,30.31351-41.03181,72.5747-79.3854,125.61007-114.05356,7.87107-101.99548,69.6716-200.08269,174.23489-276.398,23.33518-97.92024,117.73763-168.87575,224.757-168.87575a240.79117,240.79117,0,0,1,118.24193,30.6488,1126.64152,1126.64152,0,0,1,392.79586,0,241.1047,241.1047,0,0,1,118.24193-30.6488c107.01934,0,201.42179,70.95551,224.81421,168.87575,104.50741,76.31534,166.30794,174.40255,174.12314,276.398,53.03536,34.61228,95.35243,73.02175,125.72182,114.05356,37.01245,50.02118,55.77082,103.05654,55.77082,157.76629C2385.86424,1786.04274,2288.725,1900.76687,2112.31343,1984.50691Z" transform="translate(-539.84196 -888.6286)"/>
    <path class="cls-1" d="M1206.41353,1137.16916a92.39307,92.39307,0,0,0-41.03317-9.3785c-39.97142,0-79.27363,24.00507-100.09688,61.13-14.40372,25.68014-18.59073,54.431-11.77867,80.89282,6.69893,25.736,23.11165,46.22467,46.2233,57.66874,23.113,11.38886,50.41167,12.5058,76.81759,3.07074a120.19738,120.19738,0,0,0,64.31246-54.82152C1270.27894,1223.25349,1254.81484,1161.119,1206.41353,1137.16916Zm5.02386,120.64141-2.34429,4.46573-2.34428-4.46573a17.36517,17.36517,0,0,0-7.87244-7.76,19.81965,19.81965,0,0,0-14.57-1.06038,24.512,24.512,0,0,0-14.51549,11.66758c-5.415,9.602-3.62819,20.87913,4.24288,26.79641l3.46191,2.56849-4.13248,1.61851a66.913,66.913,0,0,1-23.55734,4.41053,58.51353,58.51353,0,0,1-26.01611-5.97316c-30.09-14.906-40.02731-52.92428-22.163-84.68934.16765-.27941.27941-.55813.447-.83686a12.92785,12.92785,0,0,1-3.96484-12.78453,13.83022,13.83022,0,0,1,9.43575-9.602,14.74528,14.74528,0,0,1,12.44924,1.61852c20.488-16.18988,47.11741-19.81807,68.49947-9.21155C1217.91416,1189.08826,1228.24128,1226.436,1211.43739,1257.81057Z" transform="translate(-539.84196 -888.6286)"/>
    <path class="cls-1" d="M2006.07506,1395.31175a65.45693,65.45693,0,0,0-23.16753-4.57817,38.48755,38.48755,0,0,0-16.85977,3.51779,20.7815,20.7815,0,0,0-11.61239,14.73765c-4.07524,19.59522,15.35234,45.1084,42.48335,55.659,14.79489,5.80619,29.75607,6.19736,39.97279,1.06106a20.805,20.805,0,0,0,11.61239-14.68245C2052.63366,1431.43146,2033.20607,1405.919,2006.07506,1395.31175Z" transform="translate(-539.84196 -888.6286)"/>
  </g>
</svg>
