<svg width="1901.84897" height="1274.57962" xmlns="http://www.w3.org/2000/svg" data-name="Layer 1">
 <defs>
  <linearGradient y2="0%" x2="100%" y1="0%" x1="0%" id="grad1">
   <stop stop-color="#FFD158" offset="0%"/>
   <stop stop-color="white" offset="100%"/>
  </linearGradient>
 </defs>
 <g>
  <title>Layer 1</title>
  <path id="svg_9" d="m120.91893,981.47103l-65.91856,-71.4649l-22.50015,-102.50069l-5.00003,-132.50089l82.50056,-90.00061c0.91813,1.46444 75.91863,-78.53609 75.91863,-78.53609c0,0 20.00013,-20.00013 20.00013,-22.50015c0,-2.50002 50.00034,-127.50086 49.08221,-128.9653c0.91812,1.46445 65.91856,-111.03631 65.00044,-112.50076c0.91812,1.46445 70.91859,-38.53582 70.91859,-38.53582c0,0 55.00037,-115.00077 54.08225,-116.46522c0.91812,1.46445 140.91906,-56.03593 140.00094,-57.50039c0.91811,1.46445 93.41874,3.96447 92.50062,2.50002c0.91811,1.46445 85.91868,21.46459 85.00057,20.00013c0.91811,1.46445 133.419,-11.03563 132.50089,-12.50008c0.91811,1.46445 180.91932,-1.03556 180.00121,-2.50002c0.9181,1.46445 88.41869,16.46455 87.50059,15.0001c0.9181,1.46445 48.41842,-16.03566 48.41842,-16.03566c0,0 107.50072,-5.00003 106.58262,-6.46449c0.9181,1.46445 93.41872,46.46476 92.50062,45.0003c0.9181,1.46445 78.41862,66.46489 77.50052,65.00044c0.91809,1.46445 33.41831,71.46492 32.50022,70.00047c0.91809,1.46445 73.41858,63.96487 72.50049,62.50042c0.91809,1.46445 58.41848,96.46509 57.50039,95.00064c0.91809,1.46445 30.91829,91.46505 30.0002,90.00061c0.91809,1.46444 35.91833,53.9648 35.00024,52.50035c0.91809,1.46444 78.41861,63.96486 77.50052,62.50042c0.91809,1.46444 58.41847,93.96506 57.50039,92.50062c0.91809,1.46444 30.91829,138.96536 30.91829,138.96536c0,0 -45.0003,117.50079 -45.0003,117.50079c0,0 -87.50059,95.00064 -88.41868,93.5362c0.91809,1.46443 -139.08285,93.96505 -140.00094,92.50062c0.91809,1.46443 -176.5831,83.96498 -177.50119,82.50056c0.9181,1.46443 -159.08298,26.4646 -159.08298,26.4646c0,0 -237.50159,25.00017 -238.4197,23.53574c0.9181,1.46443 -209.0833,-1.03559 -210.00141,-2.50002c0.91811,1.46443 -201.58325,-11.03566 -202.50136,-12.50008c0.91811,1.46443 -189.08316,-56.03596 -189.08316,-56.03596c0,0 -180.00121,-80.00054 -180.00121,-80.00054c0,0 -130.00087,-107.50072 -130.00087,-107.50072z" opacity="NaN" stroke="#000" fill="#43679b"/>
  <g id="svg_1">
   <path id="svg_2" d="m475.7004,505.62277a38.32209,38.32209 0 0 0 -16.85977,-3.51779a65.34066,65.34066 0 0 0 -23.16889,4.634c-24.06164,9.3785 -42.93041,31.48634 -42.93041,50.29991a24.77769,24.77769 0 0 0 0.50294,5.30326a20.921,20.921 0 0 0 11.611,14.73833c10.21672,5.1363 25.1779,4.74513 39.97279,-1.06106l0.05588,0c27.07513,-10.60653 46.50271,-36.06383 42.42747,-55.659a20.89024,20.89024 0 0 0 -11.61101,-14.73765z" fill="url(#grad1)"/>
   <path id="svg_3" d="m1348.99702,266.85188a116.83414,116.83414 0 0 0 -36.902,-21.38206a105.53719,105.53719 0 0 0 -35.67266,-6.36364a91.75163,91.75163 0 0 0 -41.08905,9.43438c-48.40131,23.94987 -63.86541,86.08433 -34.44463,138.56224c29.36489,52.36479 92.72874,75.58888 141.13,51.75078c23.11165,-11.44407 39.52573,-31.93271 46.22466,-57.66874c6.8107,-26.46179 2.62369,-55.21268 -11.78,-80.89282a120.4545,120.4545 0 0 0 -27.46632,-33.44014zm-28.58392,87.70352c3.406,10.16084 13.00806,16.80389 22.83361,15.79939l4.41053,-0.447l-1.731,3.85172a56.62975,56.62975 0 0 1 -35.72854,31.37525a57.38727,57.38727 0 0 1 -16.24644,2.28841a62.287,62.287 0 0 1 -30.92684,-8.42989a68.83064,68.83064 0 0 1 -31.20762,-38.40811c-0.11176,-0.27941 -0.16764,-0.55881 -0.2794,-0.83822a14.539,14.539 0 0 1 -10.16084,-3.85171a12.74618,12.74618 0 0 1 0,-18.81357a13.87169,13.87169 0 0 1 7.20186,-3.62887c2.23388,-24.5632 18.14367,-44.5496 40.97728,-51.19265c31.20625,-9.10046 66.15518,10.16016 77.76621,42.98629l1.67507,4.68993l-4.96934,-1.56331a18.53365,18.53365 0 0 0 -11.2771,-0.16765a17.98708,17.98708 0 0 0 -10.88593,8.7093a21.9669,21.9669 0 0 0 -1.45151,17.64069z" fill="url(#grad1)"/>
   <path id="svg_4" d="m1619.53302,526.05485l-1.228,-0.7251l0,-1.34046c0,-101.21383 -60.40487,-198.4635 -170.15966,-273.77366l-0.89274,-0.61469l-0.11176,-1.06038c-12.33748,-84.68866 -90.38446,-148.49887 -181.54852,-148.49887a190.25708,190.25708 0 0 0 -107.52227,32.71436l-0.95,0.66989l-1.11627,-0.22352a1073.39161,1073.39161 0 0 0 -410.0468,0l-1.17215,0.22352l-0.94861,-0.66989a190.13332,190.13332 0 0 0 -107.52364,-32.71436c-91.21995,0 -169.20968,63.81021 -181.49128,148.49887l-0.16764,1.06038l-0.8941,0.61469c-109.75479,75.366 -170.21554,172.55983 -170.21554,273.71846l0,1.33978l-1.228,0.781c-117.34783,71.179 -179.37052,156.53827 -179.37052,246.86548c0,75.869 44.88352,149.55994 129.96471,213.53711a113.93007,113.93007 0 0 1 -8.59753,-42.9304c0,-67.3832 63.36248,-131.528 178.31014,-180.59922c109.53263,-46.83868 260.65451,-78.26914 425.51091,-88.59694l8.03872,-0.50293l5.137,5.86207c7.0901,8.15048 45.61,48.7366 109.643,48.7366c64.25658,-0.16764 102.61018,-40.58612 109.643,-48.7366l5.137,-5.86207l8.03872,0.50293c164.8564,10.27192 315.97964,41.75826 425.56679,88.59694c114.94766,49.0712 178.25426,113.216 178.25426,180.59922a114.68978,114.68978 0 0 1 -8.54028,42.87452c85.02394,-63.92129 129.85158,-137.55638 129.85158,-213.48123c-0.00005,-90.38311 -62.02274,-175.74235 -179.37052,-246.8655zm-1164.6,72.63055a92.10627,92.10627 0 0 1 -33.218,6.58785a64.687,64.687 0 0 1 -29.19725,-6.47608c-13.23022,-6.643 -22.10715,-17.92016 -24.95437,-31.70919c-6.58717,-31.26349 18.92465,-67.77437 58.06058,-83.07083c22.3852,-8.70861 45.107,-8.70861 62.41387,0c13.17433,6.58785 22.05127,17.80907 24.95436,31.654c6.53133,31.26283 -18.92597,67.71782 -58.05919,83.01425zm273.88473,-197.90536a151.25568,151.25568 0 0 1 -80.94871,68.723a138.71608,138.71608 0 0 1 -46.89388,8.31812a124.65644,124.65644 0 0 1 -55.71493,-12.89629c-31.20762,-15.46411 -53.25889,-42.70756 -62.07994,-76.81759c-8.65341,-33.38425 -3.51643,-69.44808 14.51548,-101.54843a151.18756,151.18756 0 0 1 81.78557,-68.89064c34.724,-12.16983 70.89963,-10.49544 101.772,4.8017c63.69911,31.54156 85.07981,111.54165 47.56443,178.31016l-0.00002,-0.00003zm222.13464,211.08106c-42.9304,0 -66.0993,-69.89513 -66.0993,-135.60326c0,-65.764 23.1689,-135.60326 66.0993,-135.60326s66.0993,69.83925 66.0993,135.60326c0.00002,65.70816 -23.16888,135.60329 -66.09928,135.60329l-0.00002,-0.00003zm405.69352,-146.93624a125.0662,125.0662 0 0 1 -55.54865,12.78453c-51.58381,0 -101.82784,-30.20243 -128.06611,-76.92935c-37.40361,-66.82439 -16.07744,-146.7686 47.67622,-178.31014c31.15173,-15.40822 67.60536,-17.02741 102.55293,-4.57817a151.70488,151.70488 0 0 1 81.00459,68.66711a142.27529,142.27529 0 0 1 18.53484,69.16867a130.74481,130.74481 0 0 1 -4.07524,32.43564c-8.82103,34.05418 -30.87231,61.29763 -62.07856,76.76174l-0.00002,-0.00003zm177.69545,102.16312c-2.9031,13.789 -11.78,25.06614 -24.89849,31.70919a65.0955,65.0955 0 0 1 -29.25313,6.47608a92.09919,92.09919 0 0 1 -33.21661,-6.58785c-39.07869,-15.24058 -64.59187,-51.75145 -58.11647,-83.07015c2.959,-13.789 11.83592,-25.01025 24.95437,-31.5981c17.36271,-8.70861 40.08455,-8.70861 62.47111,0c39.07871,15.29649 64.59188,51.75149 58.05924,83.07086l-0.00002,-0.00003z" fill="url(#grad1)"/>
   <path id="svg_5" d="m1835.13632,581.9374c-29.97958,-40.47435 -69.61708,-78.26913 -118.13016,-112.65789c-16.24507,-103.05586 -78.49266,-200.36209 -178.08661,-277.90545c-36.7344,-112.04456 -148.33191,-191.37408 -273.32728,-191.37408a297.95449,297.95449 0 0 0 -127.22925,28.30454c-122.03776,-19.76287 -252.78344,-19.76287 -374.8212,0a297.95,297.95 0 0 0 -127.22926,-28.30452c-124.99537,0 -236.537,79.32952 -273.32728,191.37408c-99.594,77.59856 -161.84154,174.90479 -178.08661,277.90545c-48.51308,34.38876 -88.15058,72.23942 -118.07292,112.65789c-44.32744,59.90198 -66.82573,124.10264 -66.82573,190.98291c0,147.27153 108.47226,279.85994 305.48488,373.36965c174.06726,82.73486 403.292,128.28964 645.46755,128.28964c242.17691,0 471.40029,-45.55478 645.46891,-128.28964c196.95675,-93.50971 305.42763,-226.09812 305.42763,-373.36965c-0.00004,-66.88027 -22.44248,-131.13685 -66.71267,-190.98293zm-262.66487,513.94089c-166.755,79.21776 -387.4926,122.87461 -621.519,122.87461c-234.02507,0 -454.764,-43.65685 -621.51768,-122.87461c-176.46878,-83.74 -273.608,-198.46417 -273.608,-322.958c0,-54.65387 18.81425,-107.68923 55.88394,-157.76629c30.31351,-41.03181 72.5747,-79.3854 125.61007,-114.05356c7.87107,-101.99548 69.6716,-200.08269 174.23489,-276.398c23.33518,-97.92024 117.73763,-168.87575 224.757,-168.87575a240.79117,240.79117 0 0 1 118.24193,30.6488a1126.64152,1126.64152 0 0 1 392.79586,0a241.1047,241.1047 0 0 1 118.24193,-30.6488c107.01934,0 201.42179,70.95551 224.81421,168.87575c104.50741,76.31534 166.30794,174.40255 174.12314,276.398c53.03536,34.61228 95.35243,73.02175 125.72182,114.05356c37.01245,50.02118 55.77082,103.05654 55.77082,157.76629c-0.00012,124.49385 -97.13936,239.21798 -273.55093,322.95802l0,-0.00002z" fill="url(#grad1)"/>
   <path id="svg_6" d="m666.57155,248.54056a92.39307,92.39307 0 0 0 -41.03317,-9.3785c-39.97142,0 -79.27363,24.00507 -100.09688,61.13c-14.40372,25.68014 -18.59073,54.431 -11.77867,80.89282c6.69893,25.736 23.11165,46.22467 46.2233,57.66874c23.113,11.38886 50.41167,12.5058 76.81759,3.07074a120.19738,120.19738 0 0 0 64.31246,-54.82152c29.42078,-52.47795 13.95668,-114.61244 -34.44463,-138.56228zm5.02386,120.64141l-2.34429,4.46573l-2.34428,-4.46573a17.36517,17.36517 0 0 0 -7.87244,-7.76a19.81965,19.81965 0 0 0 -14.57,-1.06038a24.512,24.512 0 0 0 -14.51549,11.66758c-5.415,9.602 -3.62819,20.87913 4.24288,26.79641l3.46191,2.56849l-4.13248,1.61851a66.913,66.913 0 0 1 -23.55734,4.41053a58.51353,58.51353 0 0 1 -26.01611,-5.97316c-30.09,-14.906 -40.02731,-52.92428 -22.163,-84.68934c0.16765,-0.27941 0.27941,-0.55813 0.447,-0.83686a12.92785,12.92785 0 0 1 -3.96484,-12.78453a13.83022,13.83022 0 0 1 9.43575,-9.602a14.74528,14.74528 0 0 1 12.44924,1.61852c20.488,-16.18988 47.11741,-19.81807 68.49947,-9.21155c29.42079,14.51547 39.74791,51.86321 22.94402,83.23778z" fill="url(#grad1)"/>
   <path id="svg_7" d="m1466.23308,506.68315a65.45693,65.45693 0 0 0 -23.16753,-4.57817a38.48755,38.48755 0 0 0 -16.85977,3.51779a20.7815,20.7815 0 0 0 -11.61239,14.73765c-4.07524,19.59522 15.35234,45.1084 42.48335,55.659c14.79489,5.80619 29.75607,6.19736 39.97279,1.06106a20.805,20.805 0 0 0 11.61239,-14.68245c4.12976,-19.59517 -15.29783,-45.10763 -42.42884,-55.71488z" fill="url(#grad1)"/>
  </g>
 </g>
</svg>