<?xml version="1.0" encoding="utf-8"?>
<!-- Generator: Adobe Illustrator 26.0.3, SVG Export Plug-In . SVG Version: 6.00 Build 0)  -->
<svg version="1.1" id="Layer_1" xmlns="http://www.w3.org/2000/svg" xmlns:xlink="http://www.w3.org/1999/xlink" x="0px" y="0px"
	 viewBox="0 0 366.92 346.48" style="enable-background:new 0 0 366.92 346.48;" xml:space="preserve">
<style type="text/css">
	.st0{fill:white;}
</style>
<g>
	<path class="st0" d="M183.4,103.43h0.13c16.22,0,30.31-10.11,35.59-25.07c-2.11-0.68-4.22-1.36-6.32-2.05
		c-1.03,2.66-5.41,13.08-16.36,18.07c-5.5,2.5-10.68,2.74-12.91,2.74h-0.13c-2.23,0-7.41-0.24-12.91-2.74
		c-10.96-5-15.33-15.41-16.36-18.07c-2.11,0.69-4.22,1.37-6.32,2.05C153.08,93.32,167.18,103.43,183.4,103.43z"/>
	<path class="st0" d="M261.36,91.98l-38.28-12.29l-0.03,0.07c-5.88,16.65-21.77,27.85-39.53,27.85h-0.13
		c-17.76,0-33.65-11.2-39.52-27.85l-0.04-0.07l-38.27,12.29l-58.87,58.87l44.54,44.54l21.2-21.23v96h142.05v-96l21.2,21.23
		l44.54-44.54L261.36,91.98z M216.5,192.31v14.44h-66.08v-17.54c0-4.49,0.5-8.32,1.51-11.46c0.69-2.82,2.17-5.3,4.37-7.47
		c2.13-2.16,4.61-3.6,7.4-4.29c1.23-0.43,2.55-0.78,4.02-0.97l28.61-7.16c0.42-0.31,0.81-0.66,1.2-1.05
		c1.62-1.58,2.44-3.56,2.44-5.84v-5.15c0-2.28-0.82-4.22-2.44-5.85c-1.63-1.62-3.56-2.4-5.81-2.4h-16.57c-2.24,0-4.22,0.78-5.84,2.4
		c-1.59,1.63-2.36,3.57-2.36,5.85v6.23h-16.53v-4.18c0-4.45,0.5-8.24,1.51-11.42c0.69-2.82,2.17-5.3,4.37-7.47
		c2.13-2.17,4.61-3.6,7.4-4.3c3.17-1.08,7-1.58,11.45-1.58h16.57c4.45,0,8.25,0.5,11.42,1.55c2.83,0.69,5.3,2.16,7.47,4.33
		c2.17,2.17,3.6,4.65,4.3,7.43c1.08,3.18,1.59,7.01,1.59,11.46c0,4.49-0.51,8.32-1.55,11.46c-0.7,2.83-2.17,5.3-4.34,7.47
		c-2.17,2.17-4.64,3.6-7.43,4.3c-1.24,0.42-2.59,0.77-3.99,1.04l-28.68,7.09c-0.43,0.31-0.81,0.65-1.16,1.04
		c-1.63,1.59-2.4,3.56-2.4,5.85v6.19H216.5z"/>
</g>
</svg>
