<svg id="Layer_1" data-name="Layer 1" xmlns="http://www.w3.org/2000/svg" xmlns:xlink="http://www.w3.org/1999/xlink" width="1277.20103" height="1692.59259" viewBox="0 0 1277.20103 1692.59259">
  <defs>
    <style>
      .cls-1 {
        fill: url(#grad1);
      }

      .cls-2 {
        fill: none;
      }

      .cls-3 {
        fill: url(#linear-gradient);
      }
    </style>
    <linearGradient id="linear-gradient" x1="864.87246" y1="1252.97953" x2="2210.44585" y2="2029.84669" gradientUnits="userSpaceOnUse">
      <stop offset="0" stop-color="#fff"/>
      <stop offset="1" stop-color="#fff" stop-opacity="0"/>
    </linearGradient>
    <linearGradient id="grad1" x1="0%" y1="0%" x2="100%" y2="0%">
      <stop offset="0%" style="stop-color:white;stop-opacity:1" />
      <stop offset="100%" style="stop-color:white;stop-opacity:1" />
    </linearGradient>
  </defs>
  <g>
    <path class="cls-1" d="M1499.77778,653.74074c-352.12926,0-638.60052,286.47125-638.60052,638.59266V2346.33333h1277.201V1292.3334C2138.37829,940.212,1851.907,653.74074,1499.77778,653.74074Zm542.08112,1596.0732H957.69666V1292.3334c0-298.8975,243.17577-542.07327,542.08112-542.07327S2041.8589,993.4359,2041.8589,1292.3334Z" transform="translate(-861.17726 -653.74074)"/>
    <!-- <g>
      <path class="cls-2" d="M1499.77791,718.27722c-311.65563,0-565.20444,253.54882-565.20444,565.19625v998.32338H2064.98236V1283.47347C2064.98236,971.826,1811.43354,718.27722,1499.77791,718.27722Z" transform="translate(-861.17726 -653.74074)"/>
      <path class="cls-3" d="M2064.98236,2281.79685H934.57347V1283.47347c0-311.64743,253.54881-565.19625,565.20444-565.19625s565.20445,253.54882,565.20445,565.19625Z" transform="translate(-861.17726 -653.74074)"/>
    </g> -->
  </g>
</svg>
