<svg width="41" height="37" xmlns="http://www.w3.org/2000/svg" version="1.1" xml:space="preserve">
    <path fill="white" d="m2.8475,21.67443l8.8,0c0.1,0 0.19,-0.05 0.24,-0.13c0.11,-0.18 0.22,-0.36 0.32,-0.54c0.76,-1.28 1.44,-2.66 1.68,-3.68c0.58,-2.48 -0.66,-6.47 -2.09,-9.67c-0.09,-0.21 -0.39,-0.23 -0.51,-0.04l-8.56,13.39l-0.14,0.22c-0.12,0.2 0.02,0.45 0.26,0.45z"/>
    <path fill="white" d="m40.3775,23.43443l-10.01,2.89c-0.05,0.01 -0.1,0.04 -0.14,0.08c-1.1,1.21 -2.03,2.02 -2.24,2.2c-0.62,0.53 -1.39,0.81 -2.2,0.81l-3.62,0l0,-3.7l2.88,0c0.07,0 0.15,-0.03 0.2,-0.07l0.37,-0.34c0.16,-0.15 0.35,-0.32 0.57,-0.55c0.14,-0.14 0.28,-0.28 0.43,-0.44c0.15,-0.15 0.29,-0.31 0.43,-0.47c0.23,-0.24 0.44,-0.5 0.67,-0.76c0.16,-0.18 0.31,-0.38 0.46,-0.57c0.16,-0.19 0.32,-0.4 0.47,-0.61c0.11,-0.16 0.23,-0.32 0.35,-0.49c0.11,-0.16 0.22,-0.33 0.31,-0.5c0.28,-0.44 0.52,-0.91 0.73,-1.38c0.1,-0.23 0.19,-0.47 0.27,-0.7c0.08,-0.24 0.15,-0.47 0.2,-0.71c0.12,-0.56 0.15,-1.13 0.09,-1.69c-0.01,-0.18 -0.03,-0.35 -0.07,-0.51l0,-0.03c-0.01,-0.11 -0.04,-0.24 -0.08,-0.36c-0.12,-0.55 -0.31,-1.1 -0.55,-1.63c-0.08,-0.2 -0.18,-0.4 -0.27,-0.59c-0.22,-0.4 -0.44,-0.8 -0.7,-1.19c-0.09,-0.15 -0.2,-0.29 -0.29,-0.44c-0.2,-0.31 -0.43,-0.6 -0.64,-0.89c-0.16,-0.21 -0.35,-0.43 -0.52,-0.64c-0.18,-0.21 -0.35,-0.42 -0.52,-0.62c-0.63,-0.71 -1.29,-1.35 -1.88,-1.9c-0.11,-0.11 -0.23,-0.22 -0.35,-0.32c-0.46,-0.42 -0.87,-0.78 -1.22,-1.06c-0.18,-0.14 -0.32,-0.27 -0.46,-0.38c-0.17,-0.13 -0.31,-0.23 -0.4,-0.3c-0.03,-0.02 -0.06,-0.03 -0.09,-0.04l-0.39,-0.11l0,-3.19c0,-0.52 -0.21,-0.99 -0.54,-1.33c-0.33,-0.34 -0.8,-0.55 -1.32,-0.55c-1.03,0 -1.86,0.84 -1.86,1.88l0,2.15l-4.83,-1.32c-0.16,-0.04 -0.29,0.13 -0.21,0.27l0.58,1.07c0.05,0.14 0.13,0.27 0.2,0.42c0.09,0.19 0.19,0.39 0.28,0.59c0.08,0.18 0.16,0.35 0.26,0.54c0.19,0.42 0.39,0.86 0.59,1.34c0.14,0.32 0.27,0.64 0.39,0.98c0.32,0.84 0.63,1.74 0.9,2.66c0.09,0.29 0.16,0.57 0.24,0.87l0.04,0.16c0.11,0.43 0.2,0.86 0.27,1.28c0.05,0.29 0.1,0.57 0.13,0.86c0.04,0.32 0.08,0.64 0.09,0.96c0.03,0.29 0.04,0.6 0.04,0.9c0,0.75 -0.07,1.47 -0.23,2.16c-0.05,0.2 -0.11,0.41 -0.18,0.62c-0.07,0.24 -0.16,0.48 -0.25,0.74c-0.05,0.15 -0.11,0.29 -0.18,0.44c-0.33,0.8 -0.75,1.61 -1.18,2.36c-0.63,1.11 -1.26,2.09 -1.7,2.72c-0.06,0.09 -0.12,0.17 -0.17,0.25c-0.14,0.2 0,0.47 0.24,0.47l4.68,0l0,3.7l-4.73,0c-1.27,0 -2.45,-0.72 -3.02,-1.87c-0.29,-0.58 -0.41,-1.21 -0.34,-1.84c0.02,-0.19 -0.12,-0.36 -0.31,-0.36l-9.56,0c-0.16,0 -0.29,0.13 -0.29,0.29l0,0.2c0,6.1 4.93,11.04 11,11.04l17.15,0c4.11,0 5.95,-4.79 8.36,-8.14c0.94,-1.31 3.21,-2.35 3.87,-2.64c0.11,-0.05 0.18,-0.16 0.18,-0.28l0,-2.12c-0.01,-0.18 -0.2,-0.33 -0.38,-0.27z"/>
</svg>