<?xml version="1.0" encoding="utf-8"?>
<!-- Generator: Adobe Illustrator 26.0.2, SVG Export Plug-In . SVG Version: 6.00 Build 0)  -->
<svg version="1.1" id="Layer_1" xmlns="http://www.w3.org/2000/svg" xmlns:xlink="http://www.w3.org/1999/xlink" x="0px" y="0px"
	 viewBox="0 0 366.9 346.5" style="enable-background:new 0 0 366.9 346.5;" xml:space="preserve">
<style type="text/css">
	.st0{fill:#55779E;}
	.st1{fill:#55779E;}
</style>
<g>
	<linearGradient id="SVGID_1_" gradientUnits="userSpaceOnUse" x1="157.7086" y1="261.7393" x2="194.2895" y2="261.7393">
		<stop  offset="0" style="stop-color:#6B8DBB"/>
		<stop  offset="1" style="stop-color:#92A9C6"/>
	</linearGradient>
	<rect x="157.7" y="243.6" class="st0" width="36.6" height="36.3"/>
	
		<linearGradient id="SVGID_00000057838809190111177240000004859548056760272026_" gradientUnits="userSpaceOnUse" x1="102.9317" y1="157.0461" x2="266.0683" y2="157.0461">
		<stop  offset="0" style="stop-color:#6B8DBB"/>
		<stop  offset="1" style="stop-color:#92A9C6"/>
	</linearGradient>
	<path style="fill:url(#SVGID_00000057838809190111177240000004859548056760272026_);" d="M225.2,86h-81.5
		c-27.5,0-40.8,13.4-40.8,40.8v20.3h37.4v-13.6c0-11.6,3.8-15.3,15.6-15.3H212c11.8,0,15.6,3.7,15.6,15.3v9.2
		c0,10.7-3.2,14.5-15.1,17.5l-22.4,5.7c-13.2,3.2-21.3,7.3-25.7,12.8c-4.5,5.7-6.8,14.6-6.8,26.6v22.7h36.6V211
		c0-11.2,2.4-14.4,13-17l21.6-5.7c27.2-6.8,37.2-18.6,37.2-43.4v-18.1C266.1,99.4,252.7,86,225.2,86z"/>
</g>
</svg>
