<svg width="45" height="37" xmlns="http://www.w3.org/2000/svg" xml:space="preserve" version="1.1">
  <path fill="white" d="m14.24895,36.47421c16.78,0 25.96,-13.9 25.96,-25.96c0,-0.4 -0.01,-0.79 -0.03,-1.18c1.78,-1.29 3.33,-2.89 4.55,-4.72c-1.63,0.73 -3.39,1.22 -5.24,1.44c1.88,-1.13 3.33,-2.92 4.01,-5.05c-1.76,1.05 -3.72,1.81 -5.79,2.21c-1.66,-1.77 -4.04,-2.88 -6.66,-2.88c-5.04,0 -9.13,4.09 -9.13,9.12c0,0.72 0.08,1.41 0.24,2.08c-7.58,-0.38 -14.31,-4.01 -18.81,-9.53c-0.78,1.35 -1.24,2.91 -1.24,4.59c0,3.17 1.61,5.96 4.06,7.59c-1.5,-0.05 -2.9,-0.46 -4.13,-1.14c0,0.04 0,0.08 0,0.12c0,4.42 3.15,8.11 7.32,8.94c-0.77,0.21 -1.57,0.32 -2.41,0.32c-0.59,0 -1.16,-0.06 -1.72,-0.16c1.16,3.62 4.53,6.26 8.52,6.34c-3.12,2.45 -7.06,3.91 -11.33,3.91c-0.74,0 -1.46,-0.04 -2.18,-0.13c4.06,2.58 8.85,4.09 14.01,4.09"/>
</svg>