<?xml version="1.0" encoding="utf-8"?>
<!-- Generator: Adobe Illustrator 26.0.3, SVG Export Plug-In . SVG Version: 6.00 Build 0)  -->
<svg version="1.1" id="Layer_1" xmlns="http://www.w3.org/2000/svg" xmlns:xlink="http://www.w3.org/1999/xlink" x="0px" y="0px"
	 viewBox="0 0 547.97 173.44" style="enable-background:new 0 0 547.97 173.44;" xml:space="preserve">
<path d="M257.67,104.79c16.78,0,25.96-13.9,25.96-25.96c0-0.4-0.01-0.79-0.03-1.18c1.78-1.29,3.33-2.89,4.55-4.72
	c-1.63,0.73-3.39,1.22-5.24,1.44c1.88-1.13,3.33-2.92,4.01-5.05c-1.76,1.05-3.72,1.81-5.79,2.21c-1.66-1.77-4.04-2.88-6.66-2.88
	c-5.04,0-9.13,4.09-9.13,9.12c0,0.72,0.08,1.41,0.24,2.08c-7.58-0.38-14.31-4.01-18.81-9.53c-0.78,1.35-1.24,2.91-1.24,4.59
	c0,3.17,1.61,5.96,4.06,7.59c-1.5-0.05-2.9-0.46-4.13-1.14c0,0.04,0,0.08,0,0.12c0,4.42,3.15,8.11,7.32,8.94
	c-0.77,0.21-1.57,0.32-2.41,0.32c-0.59,0-1.16-0.06-1.72-0.16c1.16,3.62,4.53,6.26,8.52,6.34c-3.12,2.45-7.06,3.91-11.33,3.91
	c-0.74,0-1.46-0.04-2.18-0.13C247.72,103.28,252.51,104.79,257.67,104.79"/>
</svg>
