<svg width="2901" height="2901" xmlns="http://www.w3.org/2000/svg" xml:space="preserve" version="1.1">

 <g>
  <title>Layer 1</title>
  <g stroke="null" id="svg_1">
   <path stroke="null" id="svg_2" fill="#7F6637" d="m1615.14325,1737.80683c-30.12456,0 -57.26156,12.44817 -76.92966,31.8673c-19.6681,19.6681 -31.8673,46.8051 -31.8673,76.92966c0,60.00016 48.79681,108.79696 108.79696,108.79696c29.8756,0 57.26156,-12.44817 76.6807,-31.8673c19.6681,-19.6681 32.11627,-46.8051 32.11627,-76.92966s-12.44817,-57.26156 -32.11627,-76.92966c-19.41914,-19.41914 -46.8051,-31.8673 -76.6807,-31.8673zm15.18676,123.98372c-3.98341,3.98341 -9.21164,6.47305 -15.18676,6.47305c-11.95024,0 -21.65981,-9.70957 -21.65981,-21.65981c0,-5.97512 2.48963,-11.20335 6.47305,-15.18676c3.73445,-3.98341 9.21164,-6.22408 15.18676,-6.22408c5.97512,0 11.20335,2.24067 15.18676,6.22408c3.98341,3.98341 6.22408,9.21164 6.22408,15.18676c0,5.97512 -2.24067,11.45231 -6.22408,15.18676z" class="st0"/>
   <path stroke="null" id="svg_3" fill="#7F6637" d="m2108.83748,7.01396l-1319.75446,0l-783.23854,783.23854l0,1319.75446l783.23854,783.23854l1319.75446,0l783.23854,-783.23854l0,-1319.75446l-783.23854,-783.23854zm-1472.86689,1136.76643l1490.29432,0l-34.10797,34.10797l-1490.54328,0l34.35694,-34.10797zm1175.35574,935.60408c-29.8756,-29.62663 -74.44003,-40.08309 -113.2783,-24.64737c-25.89218,10.45646 -53.77607,15.93365 -83.15374,15.93365c-120.00031,0 -219.83459,-96.59776 -223.56904,-216.59807c-2.24067,-64.73046 23.15359,-123.73476 65.47735,-165.80956c40.58102,-40.58102 96.3488,-65.72631 158.34066,-65.72631c61.7429,0 117.75964,25.14529 158.34066,65.72631c25.89218,25.64322 45.31132,57.75949 56.01674,93.36124c6.22408,20.41499 9.70957,42.32376 9.70957,64.97942c0,6.72201 -0.49793,13.44402 -0.99585,20.16603c-1.99171,21.90877 -6.97097,42.82169 -14.68883,62.48979c-4.97927,12.1992 -7.21994,25.14529 -7.21994,37.84242c0,27.88389 11.20335,55.26985 31.61834,75.68484c24.3984,24.64737 59.0043,35.60175 93.11227,29.62663c6.72201,-1.24482 13.69298,-1.74274 20.91292,-1.74274c33.85901,0 64.48149,13.69298 86.88819,36.09968c22.15773,22.15773 35.85072,52.78022 35.85072,86.63923c0,33.85901 -13.69298,64.48149 -35.85072,86.88819c-22.4067,22.15773 -53.02918,35.85072 -86.88819,35.85072c-34.10797,0 -64.73046,-13.69298 -86.88819,-35.85072c-22.15773,-22.4067 -35.85072,-53.02918 -35.85072,-86.88819c0,-6.97097 0.49793,-13.94194 1.74274,-20.91292c0.99585,-5.97512 1.49378,-11.95024 1.49378,-17.67639c0,-28.13285 -10.95439,-55.26985 -31.12041,-75.43588zm-364.23331,-52.78022l-48.29888,0l8.21579,-13.19505c3.98341,-6.22408 7.71786,-12.1992 11.45231,-18.67225c8.46475,11.45231 18.17432,22.15773 28.63078,31.8673zm-889.79484,-786.2261l11.20335,-11.20335l1454.19464,0l-214.85533,214.85533l-101.0791,0c-109.29489,0 -199.66857,80.16618 -213.36155,187.71833c-7.71786,4.23238 -15.43572,9.21164 -22.90462,14.68883l-251.20397,0l-76.6807,-132.69744c-9.95853,-17.17847 -28.38182,-27.88389 -48.04992,-27.88389l-161.57718,0l-52.53126,52.53126l43.31961,75.18692l-91.86746,91.86746l-60.74705,0c-4.7303,0 -8.96268,-2.48963 -11.20335,-6.22408l-214.10844,-371.20428c-16.43158,-28.38182 -11.70128,-64.48149 11.45231,-87.63508zm-71.70143,498.42453c0,-102.32392 31.36938,-200.16649 90.62264,-282.82231l7.71786,-10.70542l111.03763,192.44863l-1.24482,3.73445c-10.95439,31.36938 -16.43158,63.98357 -16.43158,97.34465c0,163.31993 132.9464,296.26633 296.26633,296.26633s296.01736,-132.9464 296.01736,-296.26633c0,-19.17017 -1.74274,-38.34035 -5.22823,-56.76363l-1.99171,-9.95853l178.00876,0c-48.54784,48.79681 -74.19106,113.77623 -71.95039,182.73906c1.24482,42.0748 13.44402,81.65996 33.85901,116.0169c-9.70957,17.92536 -20.66395,35.35279 -32.61419,52.03333l-2.48963,3.73445l-100.33221,0l-89.62679,155.3531l-2.48963,0.99585c-63.23668,28.87974 -130.9547,43.56858 -201.16235,43.56858c-269.12933,0 -487.96807,-218.83874 -487.96807,-487.71911zm629.13026,602.74015l167.05437,-289.29536l197.67686,0c4.7303,3.23652 9.46061,6.22408 14.43987,8.96268l-161.82615,280.33268l-217.34496,0zm858.1765,68.96283l-333.85979,0c-50.29059,0 -96.84672,-27.137 -121.74305,-70.45661l-77.67655,-133.94226l77.17862,-133.44433c30.37352,13.44402 63.48564,20.91292 98.09154,20.91292c31.8673,0 62.48979,-5.97512 91.61849,-17.42743c7.21994,-2.98756 14.9378,-4.7303 22.90462,-5.47719l32.36523,56.26571c13.44402,23.65151 32.36523,42.82169 54.77193,57.0126c-0.24896,3.23652 -0.24896,6.22408 -0.24896,9.46061c0,38.83827 15.18676,75.43588 42.57272,103.07081c27.38596,27.38596 64.23253,42.57272 103.07081,42.57272s75.43588,-15.18676 102.82184,-42.57272c23.65151,-23.65151 38.09139,-53.77607 41.82583,-86.39027l66.4732,0l-200.16649,200.41546zm439.17126,-1570.70946l-141.66012,141.66012l-258.17494,0l0,-16.9295c0,-6.22408 1.99171,-11.45231 6.47305,-15.68469c0.99585,-0.99585 1.99171,-1.99171 3.23652,-2.98756l77.67655,-19.17017c3.73445,-0.74689 7.4689,-1.49378 10.70542,-2.7386c7.71786,-1.99171 14.19091,-5.72616 20.16603,-11.70128c5.97512,-5.72616 9.95853,-12.44817 11.70128,-20.16603c2.98756,-8.46475 4.23238,-18.92121 4.23238,-31.12041c0,-11.95024 -1.24482,-22.4067 -4.23238,-30.87145c-1.99171,-7.71786 -5.72616,-14.43987 -11.70128,-20.16603c-5.97512,-5.97512 -12.44817,-9.95853 -20.16603,-11.70128c-8.71372,-2.98756 -18.92121,-4.23238 -30.87145,-4.23238l-45.06236,0c-11.95024,0 -22.4067,1.24482 -30.87145,4.23238c-7.71786,1.99171 -14.43987,5.72616 -20.16603,11.70128c-5.97512,5.72616 -9.95853,12.44817 -11.70128,20.16603c-2.7386,8.71372 -4.23238,18.92121 -4.23238,30.87145l0,11.45231l44.81339,0l0,-16.9295c0,-6.22408 1.99171,-11.45231 6.47305,-15.93365c4.23238,-4.23238 9.70957,-6.47305 15.68469,-6.47305l45.06236,0c5.97512,0 11.20335,2.24067 15.68469,6.47305c4.23238,4.48134 6.47305,9.70957 6.47305,15.93365l0,13.94194c0,6.22408 -2.24067,11.45231 -6.47305,15.93365c-1.24482,0.99585 -2.24067,1.99171 -3.23652,2.7386l-77.67655,19.41914c-3.73445,0.49793 -7.4689,1.49378 -10.70542,2.48963c-7.71786,1.99171 -14.43987,5.97512 -20.16603,11.70128c-5.97512,5.97512 -9.95853,12.69713 -11.70128,20.16603c-2.7386,8.46475 -4.23238,18.92121 -4.23238,31.12041l0,47.55199l263.9011,0l-42.82169,42.57272l-1454.19464,0l59.75119,-59.50223l273.61067,0c25.64322,0 51.28644,-5.97512 74.19106,-17.42743l967.22242,-481.99295c44.56443,-21.90877 97.84258,-18.92121 139.66841,7.96683l163.31993,106.05837l0,221.57734z" class="st0"/>
  </g>
 </g>
</svg>