<?xml version="1.0" encoding="UTF-8"?>
<svg version="1.1" viewBox="0 0 529.3 346.3" xmlSpace="preserve" xmlns="http://www.w3.org/2000/svg" xmlnsCc="http://creativecommons.org/ns#" xmlnsDc="http://purl.org/dc/elements/1.1/" xmlnsRdf="http://www.w3.org/1999/02/22-rdf-syntax-ns#"><metadata><rdfRDF><ccWork rdfAbout=""><dcFormat>image/svg+xml</dcFormat><dcType rdfResource="http://purl.org/dc/dcmitype/StillImage"/><dcTitle/></ccWork></rdfRDF></metadata>
<style type="text/css">
	.st0{fill:none;}
	.st1{fill:#93C0F4;}
	.st2{fill:#EF81B6;}
	.st3{fill:#A3A3A3;}
	.st4{fill:#FFFFFF;}
	.st5{fill:#767676;}
	.st6{fill:#80B3F1;}
	.st7{fill:url(#a);}
	.st8{fill:#FFCF61;}
	.st9{fill:#231F20;}
	.st10{fill:#66A2EE;}
</style>
<g transform="translate(-49.07,-153.45)">
	
		
			<path class="st0" d="m168.87 260.45c3 0.8 5.9 2.2 8.4 3.9 1 0.7 9.5 6.7 11.2 17 0 0.2 0.1 0.5 0.1 0.7 4.8-1.3 9.9-2 15-2 9.9 0 19.5 2.5 27.9 7.2 15-2.7 30.5-4.1 46.2-4.1s31.2 1.4 46.2 4.1c8.4-4.7 18-7.2 27.9-7.2 5.1 0 10.1 0.7 15 2 0-0.2 0.1-0.4 0.1-0.7 1.3-7.8 6.6-13.9 11.2-17 2.6-1.8 5.4-3.1 8.4-3.9-4.6-5.2-9.5-10.2-14.8-14.8l-8.7 7.8-5.2-4.8c-26.6-24.6-53.6-37-80.2-37s-53.6 12.5-80.2 37l-5.2 4.8-8.7-7.8c-5.1 4.6-10.1 9.6-14.6 14.8z"/>
			<path class="st1" d="m307.97 432.95c-3.8 3.8-14.3 12.6-30.2 12.6h-0.1c-15.9 0-26.5-8.8-30.3-12.6-75.9 5.1-133.2 29.2-133.2 56.1v0.1h327v-0.1c-0.1-26.9-57.3-51-133.2-56.1z"/>
			<path class="st2" d="m165.67 386.15c-1.1-0.5-2.4-0.8-3.9-0.8-1.7 0-3.6 0.4-5.4 1.1-5.6 2.2-10 7.3-10 11.7 0 0.4 0 0.9 0.1 1.2 0.3 1.5 1.2 2.7 2.6 3.4 2.4 1.2 5.8 1.1 9.3-0.3 6.3-2.5 10.8-8.4 9.9-12.9-0.2-1.5-1.2-2.7-2.6-3.4z"/>
			<path class="st3" d="m410.97 272.65 0.7 1.2h0.2 2.6c5.9 0.2 11.6 1.1 17.2 2.6 5.4 1.4 10.5 3.5 15.4 6.2-0.6-2.7-2.1-5.1-4.2-7-2.9-2.7-6.9-4.2-11.1-4.2-0.8 0-1.6 0.1-2.3 0.2l-1.9 0.3-0.9-1.6c-8.2-13.8-18.4-26.6-30.3-37.9-3.2-3.1-6.6-6.1-10.2-9l-10.8 9.7c14.2 11.6 26.2 24.9 35.6 39.5z"/>
			<path class="st3" d="m139.17 279.05c-33.5 2-59.6 27.5-59.6 58.1 0 12 4 23.5 11.4 33.2 10.3-32.7 26.5-63.4 48.2-91.3z"/>
			<path class="st3" d="m143.37 273.85h0.2c0.1-0.2 0.3-0.5 0.5-0.8 0.1-0.1 0.2-0.3 0.3-0.4 9.4-14.5 21.4-27.8 35.6-39.5l-10.8-9.7c-3.6 2.9-7 5.9-10.2 9-11.9 11.3-22.1 24.1-30.3 37.9l-0.9 1.6-1.9-0.3c-0.8-0.1-1.6-0.2-2.3-0.2-4.2 0-8.1 1.5-11.1 4.2-1.1 1-2.1 2.2-2.8 3.4-0.7 1.1-1.2 2.4-1.5 3.6 9.9-5.3 21.1-8.3 32.6-8.7 0.8-0.1 1.7-0.1 2.6-0.1z"/>
			<path class="st4" d="m277.67 353.15c-3.8 0-9.2 10.1-9.2 26s5.5 26 9.2 26c3.2 0 9.2-8.9 9.2-26s-6-26-9.2-26z"/>
			<path class="st5" d="m169.67 273.75c-2.7-1.8-5.9-2.8-9.3-2.8-3.7 0-7.3 1.2-10.2 3.4l-2 2.2-0.1 0.2-2 2.2c-23.4 29.3-40.5 61.8-50.9 96.5-0.6 2-1.1 3.8-1.6 5.5 0 0.1 0 0.1-0.1 0.2v0.1c-1 3.7-0.4 7.5 1.7 10.7s5.5 5.6 9.6 6.5c1.2 0.3 2.5 0.4 3.8 0.4 7.1 0 13.4-4.4 15.1-10.7 9.4-34.2 26-66.1 49.2-94.6 2.5-3 3.5-6.8 2.9-10.5s-2.7-7-6.1-9.3z"/>
			<path class="st4" d="m185.67 370.15c5.4 2.7 11.8 2.9 18 0.7 6.3-2.3 11.7-6.8 15-12.8 3.5-6.3 4.4-13.6 2.5-19.9-1.7-5.5-5.4-10-10.5-12.5-3-1.4-6.2-2.2-9.6-2.2-9.4 0-18.5 5.6-23.4 14.3-3.4 6-4.4 12.7-2.8 18.9 1.5 6.1 5.4 10.9 10.8 13.5zm-0.6-31.8c0.3-1.1 1.2-2 2.3-2.4 1-0.3 2.1-0.2 3 0.3 4.8-3.8 11.2-4.6 16.2-2.1 3.2 1.6 5.6 4.4 6.7 7.8 1.2 3.8 0.8 8.2-1.2 12l-0.7 1.3-0.7-1.3c-0.4-0.8-1-1.4-1.8-1.8-1-0.5-2.2-0.6-3.3-0.2-1.4 0.4-2.6 1.4-3.3 2.7-1.2 2.2-0.8 4.8 1 6.1l1.1 0.8-1.3 0.5c-1.8 0.7-3.7 1-5.6 1-2.2 0-4.3-0.5-6.2-1.4-3.3-1.6-5.7-4.5-6.8-8-1.2-3.9-0.7-8.4 1.5-12.2v-0.1c-0.9-0.7-1.2-1.9-0.9-3z"/>
			<path class="st5" d="m407.17 276.75-0.2-0.2-2-2.1c-2.8-2.2-6.4-3.4-10.1-3.4-3.4 0-6.6 1-9.3 2.8-3.3 2.2-5.5 5.5-6.1 9.3-0.6 3.7 0.4 7.5 2.9 10.5 23.2 28.5 39.7 60.3 49.2 94.6 1.7 6.3 7.9 10.7 15.1 10.7 1.3 0 2.6-0.1 3.8-0.4 4-0.9 7.4-3.2 9.6-6.5 2.1-3.2 2.8-7 1.7-10.7v-0.1c0-0.1 0-0.2-0.1-0.2v-0.2c-0.5-1.8-1-3.6-1.5-5.3-10.4-34.8-27.5-67.3-50.9-96.6z"/>
			<path class="st4" d="m371.27 329.95c-2.6-2.2-5.5-3.9-8.6-5-2.8-1-5.6-1.5-8.3-1.5-3.4 0-6.6 0.7-9.6 2.2-5 2.5-8.8 6.9-10.5 12.5-2 6.4-1.1 13.6 2.5 19.9 6.9 12.3 21.7 17.7 33 12.1 5.4-2.7 9.2-7.5 10.8-13.5 1.6-6.2 0.6-12.9-2.8-18.9-1.8-2.9-3.9-5.6-6.5-7.8zm-6.5 20.5c0.8 2.3 3 3.8 5.2 3.6l1.3-0.1-0.5 1.2c-1.6 3.7-4.7 6.4-8.5 7.5-1.3 0.4-2.6 0.6-3.9 0.6-2.5 0-5.1-0.7-7.4-2-3.5-2-6.1-5.2-7.4-9.1v-0.1c-0.9 0-1.7-0.4-2.4-1s-1-1.5-1-2.3c0-0.9 0.4-1.7 1-2.3 0.5-0.4 1-0.7 1.7-0.9 0.6-5.8 4.4-10.5 9.7-12.1 7.4-2.2 15.7 2.4 18.5 10.2l0.5 1.4-1.5-0.5c-0.9-0.3-1.7-0.3-2.6 0-1 0.3-1.9 1-2.5 2s-0.7 2.5-0.2 3.9z"/>
			<path class="st3" d="m416.07 279.05c21.7 27.9 37.9 58.6 48.2 91.3 7.5-9.8 11.4-21.2 11.4-33.2 0-30.6-26.1-56.1-59.6-58.1z"/>
			<path class="st6" d="m463.07 499.75c2.9-2.4 26.2-21.8 25.4-50.8 0.7 29-22.5 48.4-25.4 50.8z"/>
			
				<linearGradient id="a" x1="277.77" x2="277.77" y1="352.27" y2="153.67" gradientTransform="matrix(1,0,0,-1,0,643)" gradientUnits="userSpaceOnUse">
				<stop stop-color="#C3D1E3" offset="0"/>
				<stop stop-color="#8CBCF3" offset="0"/>
				<stop stop-color="#61A5F9" offset="1"/>
			</linearGradient>
			<path class="st7" d="m453.47 409.75c-2.3 0.5-4.6 0.8-6.9 0.8-13 0-24.3-8-27.5-19.6-3.4-12.2-7.8-24.3-13.1-36-2.4 0.6-4.9-0.1-6.6-1.8-2.5-2.5-6.7-2.5-9.2 0-0.6 0.7-1.1 1.4-1.5 2.2 1-0.3 2.1-0.5 3.2-0.5 5.7 0 10.5 4.7 10.5 10.4v0.3c-0.1 2.9-2.4 5.2-5.4 5.2-2.9 0-5.3-2.4-5.3-5.3 0-2.6-1.9-4.7-4.5-5-2.4 7.1-7.4 12.8-14 16-4 2-8.5 3-13.1 3-12.2 0-24.1-7.1-30.3-18.2-4.4-7.9-5.5-17.2-3-25.4 2.3-7.5 7.4-13.4 14.3-16.8 7.4-3.7 16-4.1 24.3-1.1 8.1 2.9 14.9 8.7 19.2 16.2 1.9 3.5 3.3 7.1 3.9 11 0.5-0.7 1-1.3 1.5-1.9 2.2-2.2 5.2-3.6 8.4-3.9-7.4-13.6-16.3-26.8-26.3-39.1-1.7-2.1-3-4.3-3.9-6.7-5.2-2-10.7-3.1-16.4-3.1-9.1 0-17.9 2.6-25.2 7.7l-0.3 0.2-0.3-0.1c-15.6-3.1-31.8-4.7-48.2-4.7-16.5 0-32.7 1.6-48.2 4.7l-0.4 0.1-0.3-0.2c-7.3-5-16.1-7.7-25.2-7.7-5.7 0-11.2 1-16.4 3.1-1 2.4-2.3 4.7-4 6.7-10 12.3-18.8 25.4-26.2 39.1 3.2 0.3 6.1 1.7 8.4 3.9 0.6 0.5 1.1 1.2 1.5 1.9 0.7-3.8 2-7.5 3.9-11 4.3-7.6 11.1-13.4 19.4-16.3 8.2-2.9 16.8-2.5 24.1 1.1 6.9 3.4 12 9.4 14.3 16.9 2.5 8.2 1.4 17.4-3 25.3-4.2 7.6-11.1 13.4-19.1 16.2-3.7 1.3-7.4 2-11.1 2-4.7 0-9.1-1-13.2-3.1-6.6-3.3-11.6-9-14-16-2.6 0.3-4.5 2.4-4.5 5 0 2.9-2.4 5.3-5.4 5.3-2.9 0-5.3-2.3-5.4-5.2v-0.3c0.1-5.7 4.8-10.4 10.5-10.4 1 0 2.1 0.2 3.1 0.5-0.3-0.8-0.8-1.6-1.5-2.2-2.5-2.5-6.7-2.5-9.2 0-1.7 1.7-4.2 2.4-6.6 1.8-5.3 11.7-9.8 23.8-13.1 36-3.2 11.5-14.5 19.6-27.5 19.6-2.3 0-4.6-0.3-6.9-0.8-1.5-0.3-2.9-0.8-4.3-1.3-12.8 12.7-19.3 26.3-19.3 40.5 0 14 6.5 27.7 19.1 40.3h9.2v-0.1c0-15.9 14.9-31.1 42.1-42.7 25.8-11 61.4-18.4 100.2-20.9l2-0.1 1.3 1.4c1.7 1.9 10.7 11.4 25.7 11.4s24-9.5 25.7-11.4l1.3-1.4 2 0.1c38.8 2.4 74.4 9.8 100.2 20.9 27.1 11.6 42.1 26.8 42.1 42.7v0.1h9.2c12.5-12.5 19.1-26.2 19.1-40.3 0-14.2-6.5-27.9-19.3-40.5-1.7 0.7-3.1 1.2-4.6 1.5zm-292.5-1.7c-2.6 1-5.3 1.6-7.9 1.6s-4.9-0.5-7-1.5c-3.2-1.6-5.3-4.3-6-7.6-1.6-7.4 4.5-16.1 13.8-19.7 5.3-2.1 10.7-2.1 14.8 0 3.1 1.6 5.3 4.3 6 7.6 1.6 7.4-4.5 16-13.7 19.6zm116.7 3.2c-10.2 0-15.7-16.5-15.7-32.1s5.5-32.1 15.7-32.1 15.7 16.5 15.7 32.1c0 15.5-5.5 32.1-15.7 32.1zm137.5-10.7c-0.7 3.3-2.8 6-6 7.6-2 1-4.4 1.6-7 1.6s-5.3-0.5-7.9-1.6c-9.3-3.6-15.3-12.3-13.8-19.7 0.7-3.3 2.8-6 6-7.6 4.1-2.1 9.5-2.1 14.8 0 9.4 3.6 15.4 12.2 13.9 19.7z" fill="url(#a)"/>
			<path class="st2" d="m398.87 386.45c-1.8-0.7-3.7-1.1-5.4-1.1-1.5 0-2.8 0.3-3.9 0.8-1.4 0.7-2.3 1.9-2.6 3.3-0.9 4.6 3.6 10.5 9.9 12.9 3.4 1.4 6.9 1.4 9.3 0.3 1.4-0.7 2.3-1.9 2.6-3.4 0.9-4.4-3.6-10.3-9.9-12.8z"/>
			<path class="st6" d="m66.77 448.95c0.5-18.6 10.6-33.7 13.2-37.2-2.6 3.5-12.7 18.6-13.2 37.2z"/>
			<path class="st8" d="m512.97 167.45-13.6 46.1-8.7-2.6c-10.2-3-20.9 2.8-23.9 13.1-3 10.2 2.8 20.9 13.1 23.9 10.2 3 20.9-2.8 23.9-13.1l12.1-41 45.7 13.4-6.6 22.6-8.7-2.6c-10.2-3-20.9 2.8-23.9 13.1-3 10.2 2.8 20.9 13.1 23.9s20.9-2.8 23.9-13.1l19-64.6z"/>
			<path class="st9" d="m466.97 288.65c-2.2-2.1-4.5-4-6.9-5.8-0.7-5.9-3.5-11.3-8.2-15.6-4.7-4.2-10.5-6.8-17-7.4-8.2-12.9-18.1-24.8-29.4-35.6-1.7-1.6-3.4-3.2-5-4.6l7.9-7.1-5.2-4.8c-39-36.1-81.3-54.3-125.6-54.3s-86.5 18.3-125.6 54.3l-5.2 4.8 7.9 7.1c-1.6 1.4-3.3 3-5 4.6-11.3 10.7-21.2 22.7-29.4 35.6-6.5 0.6-12.4 3.2-17 7.4-4.7 4.2-7.5 9.6-8.2 15.6-2.5 1.9-4.8 3.8-6.9 5.8-13.9 13.1-21.5 30.3-21.5 48.5 0 14.8 5 29 14.5 40.9 0 0.1-0.1 0.2-0.1 0.2v0.1c-2.4 8.5 0.2 17.5 6.8 23.9-3 3.1-5.7 6.2-8 9.4-2.6 3.5-12.7 18.6-13.2 37.2-0.7 29 22.5 48.4 25.4 50.8h370.9c2.9-2.4 26.2-21.8 25.4-50.8-0.5-18.7-10.6-33.7-13.2-37.2-2.3-3.2-5.1-6.3-8-9.4 6.6-6.5 9.1-15.4 6.8-23.9v-0.1c0-0.1-0.1-0.2-0.1-0.2 9.5-12 14.5-26.1 14.5-40.9 0.1-18.2-7.5-35.4-21.4-48.5zm-80.8-65.2c3.5 2.9 7 5.9 10.2 9 11.9 11.3 22.1 24 30.3 37.9l0.9 1.6 1.9-0.3c0.8-0.1 1.6-0.2 2.3-0.2 4.2 0 8.1 1.5 11.1 4.2 2.2 2 3.6 4.4 4.2 7-4.9-2.6-10.1-4.7-15.4-6.2-5.5-1.5-11.3-2.4-17.2-2.6h-2.6-0.2l-0.7-1.2c-9.4-14.5-21.4-27.8-35.6-39.5zm73.9 152c0.5 1.8 1 3.6 1.5 5.3v0.2c0 0.1 0 0.1 0.1 0.2v0.1c1 3.7 0.4 7.5-1.7 10.7s-5.5 5.6-9.6 6.5c-1.2 0.3-2.5 0.4-3.8 0.4-7.1 0-13.4-4.4-15.1-10.7-9.4-34.2-26-66.1-49.2-94.6-2.5-3-3.5-6.8-2.9-10.5 0.6-3.8 2.8-7 6.1-9.3 2.7-1.8 5.9-2.8 9.3-2.8 3.7 0 7.3 1.2 10.1 3.4l2 2.1 0.2 0.2 2 2.2c23.4 29.3 40.6 61.8 51 96.6zm-267.8-122 5.2-4.8c26.6-24.6 53.6-37 80.2-37s53.5 12.5 80.2 37l5.2 4.8 8.7-7.8c5.2 4.6 10.2 9.6 14.8 14.8-3 0.8-5.9 2.2-8.4 3.9-4.6 3.1-9.9 9.1-11.2 17 0 0.3-0.1 0.5-0.1 0.7-4.8-1.3-9.9-2-15-2-9.9 0-19.5 2.5-27.9 7.2-15-2.7-30.5-4.1-46.2-4.1s-31.2 1.4-46.2 4.1c-8.4-4.7-18-7.2-27.9-7.2-5.1 0-10.2 0.7-15 2 0-0.2-0.1-0.4-0.1-0.7-1.7-10.3-10.2-16.3-11.2-17-2.6-1.8-5.4-3.1-8.4-3.9 4.6-5.2 9.5-10.2 14.8-14.8zm-19.3 40.1c-23.2 28.5-39.7 60.3-49.2 94.6-1.7 6.3-7.9 10.7-15.1 10.7-1.3 0-2.6-0.1-3.8-0.4-4-0.9-7.4-3.2-9.6-6.5-2.1-3.2-2.8-7-1.7-10.7v-0.1c0-0.1 0.1-0.2 0.1-0.2 0.5-1.7 1-3.5 1.6-5.5 10.4-34.8 27.5-67.2 50.9-96.5l2-2.2 0.1-0.2 2-2.2c2.8-2.2 6.4-3.4 10.2-3.4 3.4 0 6.6 1 9.3 2.8 3.3 2.2 5.5 5.5 6.1 9.3s-0.5 7.5-2.9 10.5zm-63.4-14.6c0.7-1.2 1.6-2.4 2.8-3.4 2.9-2.7 6.9-4.2 11.1-4.2 0.8 0 1.6 0.1 2.3 0.2l1.9 0.3 0.9-1.6c8.2-13.8 18.4-26.5 30.3-37.9 3.2-3.1 6.6-6.1 10.2-9l10.8 9.7c-14.3 11.7-26.3 25-35.6 39.5-0.1 0.1-0.2 0.3-0.3 0.4-0.2 0.2-0.3 0.5-0.5 0.8h-0.2-2.6c-11.5 0.4-22.8 3.4-32.6 8.7 0.4-1.1 0.8-2.3 1.5-3.5zm-30 58.2c0-30.6 26.1-56.1 59.6-58.1-21.7 27.9-37.9 58.6-48.2 91.3-7.5-9.7-11.4-21.2-11.4-33.2zm361.5 152.1h-327v-0.1c0-26.9 57.2-51.1 133.2-56.1 3.9 3.8 14.4 12.6 30.3 12.6h0.1c15.8 0 26.3-8.8 30.2-12.6 76 5 133.2 29.1 133.2 56.2zm36-40.3c0 14-6.5 27.7-19.1 40.3h-9.2v-0.1c0-15.9-14.9-31.1-42.1-42.7-25.8-11-61.4-18.4-100.2-20.9l-2-0.1-1.3 1.4c-1.7 1.9-10.7 11.4-25.7 11.4s-24-9.5-25.7-11.4l-1.3-1.4-2 0.1c-38.8 2.4-74.4 9.8-100.2 20.9-27.1 11.6-42.1 26.8-42.1 42.7v0.1h-9.2c-12.5-12.5-19.1-26.3-19.1-40.3 0-14.2 6.5-27.9 19.3-40.5 1.4 0.6 2.9 1 4.3 1.3 2.3 0.5 4.6 0.8 6.9 0.8 13 0 24.3-8 27.5-19.6 3.4-12.2 7.8-24.3 13.1-36 2.4 0.6 4.9-0.1 6.6-1.8 2.5-2.5 6.7-2.5 9.2 0 0.6 0.7 1.1 1.4 1.5 2.2-1-0.3-2.1-0.5-3.1-0.5-5.7 0-10.5 4.7-10.5 10.4v0.3c0.1 2.9 2.4 5.2 5.4 5.2 2.9 0 5.4-2.4 5.4-5.3 0-2.6 1.9-4.7 4.5-5 2.4 7.1 7.4 12.8 14 16 4.1 2 8.5 3.1 13.2 3.1 3.7 0 7.4-0.7 11.1-2 8.1-2.9 14.9-8.7 19.1-16.2 4.4-7.9 5.6-17.2 3-25.3-2.3-7.5-7.4-13.4-14.3-16.9-7.3-3.6-15.9-4-24.1-1.1s-15.1 8.7-19.4 16.3c-1.9 3.5-3.3 7.2-3.9 11-0.5-0.7-1-1.3-1.5-1.9-2.2-2.2-5.2-3.6-8.4-3.9 7.4-13.6 16.2-26.8 26.2-39.1 1.7-2.1 3-4.3 4-6.7 5.2-2 10.7-3.1 16.4-3.1 9.1 0 17.9 2.6 25.2 7.7l0.3 0.2 0.4-0.1c15.6-3.1 31.8-4.7 48.2-4.7s32.6 1.6 48.2 4.7l0.3 0.1 0.3-0.2c7.4-5 16.1-7.7 25.2-7.7 5.7 0 11.2 1 16.4 3.1 0.9 2.4 2.2 4.7 3.9 6.7 10 12.3 18.8 25.4 26.3 39.1-3.2 0.3-6.1 1.7-8.4 3.9-0.5 0.5-1.1 1.2-1.5 1.9-0.7-3.9-2-7.5-3.9-11-4.2-7.6-11-13.3-19.2-16.2-8.3-3-16.9-2.6-24.3 1.1-6.9 3.4-12 9.4-14.3 16.8-2.5 8.2-1.4 17.4 3 25.4 6.2 11.1 18.1 18.2 30.3 18.2 4.7 0 9.1-1 13.1-3 6.6-3.3 11.6-9 14-16 2.6 0.3 4.5 2.4 4.5 5 0 2.9 2.4 5.3 5.3 5.3s5.3-2.3 5.4-5.2v-0.3c-0.1-5.7-4.8-10.4-10.5-10.4-1.1 0-2.1 0.2-3.2 0.5 0.3-0.8 0.8-1.6 1.5-2.2 2.5-2.5 6.7-2.5 9.2 0 1.7 1.7 4.2 2.4 6.6 1.8 5.3 11.7 9.8 23.8 13.1 36 3.2 11.5 14.5 19.6 27.5 19.6 2.3 0 4.6-0.3 6.9-0.8 1.5-0.3 2.9-0.8 4.3-1.3 13.1 12.4 19.6 26.1 19.6 40.3zm-299.5-111.2c4.9-8.7 14.1-14.3 23.4-14.3 3.4 0 6.6 0.7 9.6 2.2 5 2.5 8.8 6.9 10.5 12.5 2 6.4 1.1 13.6-2.5 19.9-3.4 6-8.7 10.6-15 12.8-6.2 2.2-12.6 1.9-18-0.7-5.4-2.7-9.2-7.5-10.8-13.5-1.5-6.1-0.5-12.8 2.8-18.9zm202.8 19c-1.6 6-5.4 10.8-10.8 13.5-11.3 5.6-26.1 0.1-33-12.1-3.5-6.3-4.4-13.6-2.5-19.9 1.7-5.5 5.4-10 10.5-12.5 3-1.5 6.2-2.2 9.6-2.2 2.8 0 5.6 0.5 8.3 1.5 3.1 1.1 6 2.8 8.6 5s4.8 4.8 6.4 7.8c3.6 6 4.5 12.7 2.9 18.9zm83.9 13.6c-10.3-32.7-26.5-63.4-48.2-91.3 33.5 2 59.6 27.5 59.6 58.1 0 12-3.9 23.5-11.4 33.2z"/>
			<path class="st9" d="m401.37 380.75c-5.3-2.1-10.7-2.1-14.8 0-3.1 1.6-5.3 4.3-6 7.6-1.5 7.4 4.5 16.1 13.8 19.7 2.6 1 5.3 1.6 7.9 1.6s4.9-0.5 7-1.6c3.1-1.6 5.2-4.3 6-7.6 1.4-7.4-4.6-16-13.9-19.7zm7.4 18.6c-0.3 1.5-1.2 2.6-2.6 3.4-2.4 1.2-5.8 1.1-9.3-0.3-6.3-2.4-10.9-8.4-9.9-12.9 0.3-1.5 1.2-2.6 2.6-3.3 1.1-0.5 2.4-0.8 3.9-0.8 1.7 0 3.6 0.4 5.4 1.1 6.3 2.4 10.8 8.3 9.9 12.8z"/>
			<path class="st9" d="m168.77 380.75c-4.1-2.1-9.5-2.1-14.8 0-9.3 3.6-15.3 12.3-13.8 19.7 0.7 3.3 2.8 6 6 7.6 2 1 4.4 1.5 7 1.5s5.3-0.5 7.9-1.6c9.3-3.6 15.3-12.3 13.8-19.7-0.9-3.2-3-5.9-6.1-7.5zm-10.3 21.7c-3.5 1.4-7 1.4-9.3 0.3-1.4-0.7-2.3-1.9-2.6-3.4-0.1-0.4-0.1-0.8-0.1-1.2 0-4.4 4.4-9.5 10-11.7 1.8-0.7 3.7-1.1 5.4-1.1 1.5 0 2.8 0.3 3.9 0.8 1.4 0.7 2.3 1.9 2.6 3.4 0.9 4.5-3.6 10.4-9.9 12.9z"/>
			<path class="st9" d="m184.37 353.65c1.1 3.5 3.5 6.4 6.8 8 1.9 0.9 4 1.4 6.2 1.4 1.9 0 3.8-0.4 5.6-1l1.3-0.5-1.1-0.8c-1.8-1.3-2.2-3.9-1-6.1 0.7-1.3 1.9-2.3 3.3-2.7 1.1-0.3 2.3-0.2 3.3 0.2 0.8 0.4 1.4 1 1.8 1.8l0.7 1.3 0.7-1.3c2-3.8 2.5-8.1 1.2-12-1.1-3.5-3.5-6.3-6.7-7.8-5-2.5-11.4-1.7-16.2 2.1-0.9-0.5-2-0.7-3-0.3-1.2 0.4-2.1 1.3-2.3 2.4-0.3 1.1 0.1 2.3 0.9 3.1v0.1c-2.1 3.8-2.7 8.2-1.5 12.1z"/>
			<path class="st9" d="m367.57 344.45c0.8-0.2 1.7-0.2 2.6 0l1.5 0.5-0.5-1.4c-2.8-7.8-11.1-12.4-18.5-10.2-5.4 1.6-9.2 6.3-9.7 12.1-0.6 0.1-1.2 0.4-1.7 0.9-0.7 0.6-1 1.4-1 2.3s0.4 1.7 1 2.3 1.5 1 2.4 1v0.1c1.3 3.9 3.9 7.1 7.4 9.1 2.3 1.3 4.8 2 7.4 2 1.3 0 2.6-0.2 3.9-0.6 3.8-1.1 6.9-3.8 8.5-7.5l0.5-1.2-1.3 0.1c-2.2 0.2-4.4-1.3-5.2-3.6-0.5-1.4-0.3-2.8 0.3-4 0.5-0.9 1.3-1.6 2.4-1.9z"/>
			<path class="st9" d="m277.67 347.05c-10.2 0-15.7 16.5-15.7 32.1s5.5 32.1 15.7 32.1 15.7-16.5 15.7-32.1-5.5-32.1-15.7-32.1zm0 58c-3.8 0-9.2-10.1-9.2-26s5.5-26 9.2-26c3.2 0 9.2 8.9 9.2 26s-6 26-9.2 26z"/>
		
		<path class="st8" d="m82.87 202.45 7 23.9 4.5-1.3c5.3-1.6 10.8 1.5 12.4 6.8s-1.5 10.8-6.8 12.4-10.8-1.5-12.4-6.8l-6.2-21.2-23.6 6.9 3.4 11.7 4.5-1.3c5.3-1.6 10.8 1.5 12.4 6.8s-1.5 10.8-6.8 12.4-10.8-1.5-12.4-6.8l-9.8-33.4z"/>
	
	
		
			<path class="st10" d="m184.57 377.65c-3.4 3.7-6.7 7.6-9.7 11.8 0-0.4-0.1-0.7-0.2-1.1-0.7-3.3-2.8-6-6-7.6-4.1-2.1-9.5-2.1-14.8 0-9.3 3.6-15.3 12.3-13.8 19.7 0.7 3.3 2.8 6 6 7.6 2 1 4.4 1.5 7 1.5s5.3-0.5 7.9-1.6c1.3-0.5 2.6-1.1 3.7-1.8-2.5 4.9-4.6 10-6.5 15.2-3 8.6-6.4 17-10.3 25.2-1.5 0.6-3 1.3-4.4 2-0.8 0.3-1.5 0.7-2.2 1.1 0 0-0.1 0-0.1 0.1-0.8 0.4-1.5 0.8-2.3 1.2-0.5 0.3-1 0.5-1.5 0.8-0.6 0.3-1.2 0.6-1.7 0.9s-1 0.6-1.5 0.8c-0.6 0.3-1.2 0.7-1.7 1-0.4 0.2-0.8 0.5-1.2 0.7s-0.8 0.5-1.1 0.7c-0.8 0.5-1.6 1-2.4 1.6-0.4 0.3-0.9 0.6-1.3 0.9-4.4 3.1-8.1 6.4-11.1 9.8-0.4 0.5-0.8 0.9-1.2 1.4-1.5 1.9-2.8 3.7-3.9 5.6-0.1 0.2-0.3 0.5-0.4 0.7-0.9 1.7-1.7 3.4-2.2 5.2-0.1 0.2-0.1 0.4-0.2 0.6l-0.6 2.4c-0.1 0.4-0.2 0.8-0.2 1.3-0.2 1.2-0.3 2.5-0.3 3.7v0.1h-9.2c-12.5-12.5-19.1-26.3-19.1-40.3 0-14.2 6.5-27.9 19.3-40.5 1.4 0.6 2.9 1 4.3 1.3 2.3 0.5 4.6 0.8 6.9 0.8 13 0 24.3-8 27.5-19.6 3.4-12.2 7.8-24.3 13.1-36 2.4 0.6 4.9-0.1 6.6-1.8 2.5-2.5 6.7-2.5 9.2 0 0.6 0.7 1.1 1.4 1.5 2.2-1-0.3-2.1-0.5-3.1-0.5-5.7 0-10.5 4.7-10.5 10.4v0.3c0.1 2.9 2.4 5.2 5.4 5.2 2.9 0 5.4-2.4 5.4-5.4 0-2.6 1.9-4.7 4.5-5 2.4 7.1 7.4 12.8 14 16 0.4 0.2 0.9 0.4 1.3 0.6 0.3 0.5 0.7 0.7 1.1 0.8z"/>
			<path class="st10" d="m398.27 339.65c-3.2 0.3-6.1 1.7-8.4 3.9-0.5 0.5-1.1 1.2-1.5 1.9-0.7-3.9-2-7.6-3.9-11-4.2-7.6-11-13.3-19.2-16.2-8.3-3-16.9-2.6-24.3 1.1-6.9 3.4-12 9.4-14.3 16.8-0.1 0.4-0.2 0.7-0.3 1.1s-0.2 0.7-0.3 1.1-0.2 0.7-0.2 1.1c-0.1 0.7-0.2 1.3-0.3 2v0.1c0 0.3-0.1 0.6-0.1 0.9s0 0.5-0.1 0.8v0.8 1 0.1 1 0.7c-14-5.5-29.1-8.5-44.8-8.5h-6c-15.7 0-30.8 3-44.8 8.5v-0.7-0.9-0.1c0-0.9 0-1.8-0.1-2.7 0-0.5-0.1-1-0.2-1.6 0-0.2 0-0.4-0.1-0.7-0.2-1.4-0.5-2.8-1-4.1-2.3-7.5-7.4-13.4-14.3-16.9-7.3-3.6-15.9-4-24.1-1.1s-15.1 8.7-19.4 16.3c-1.9 3.5-3.3 7.2-3.9 11-0.5-0.7-1-1.3-1.5-1.9-2.2-2.2-5.2-3.6-8.4-3.9 7.4-13.6 16.2-26.8 26.2-39.1 1.7-2.1 3-4.3 4-6.7 5.2-2 10.7-3.1 16.4-3.1 9.1 0 17.9 2.7 25.2 7.7l0.3 0.2 0.4-0.1c15.6-3.1 31.8-4.7 48.2-4.7s32.6 1.6 48.2 4.7l0.3 0.1 0.3-0.2c7.4-5 16.1-7.7 25.2-7.7 5.7 0 11.2 1 16.4 3.1 0.9 2.4 2.2 4.7 3.9 6.7 10.3 12.4 19.1 25.5 26.5 39.2z"/>
			<path class="st10" d="m477.07 448.95c0 14-6.5 27.7-19.1 40.3h-9.2v-0.1-0.9-0.9c0-0.6-0.1-1.3-0.2-1.9-0.1-0.4-0.1-0.8-0.2-1.2v-0.2c-0.1-0.4-0.2-0.7-0.3-1.1v-0.2c-0.1-0.3-0.1-0.6-0.2-0.9-0.1-0.2-0.1-0.4-0.2-0.6-0.2-0.5-0.3-1-0.5-1.5v-0.1c-0.1-0.2-0.2-0.5-0.3-0.7s-0.2-0.4-0.3-0.7c-0.2-0.5-0.5-1-0.7-1.5-0.1-0.2-0.2-0.5-0.4-0.7-0.1-0.2-0.3-0.5-0.4-0.7-0.2-0.4-0.5-0.9-0.8-1.3-0.9-1.4-1.9-2.9-3.1-4.3-0.5-0.6-1.1-1.3-1.6-1.9-0.4-0.4-0.8-0.9-1.3-1.4-0.4-0.4-0.9-0.9-1.4-1.3-0.4-0.4-0.8-0.7-1.1-1.1l-0.6-0.6c-0.4-0.4-0.8-0.7-1.2-1-0.5-0.4-1-0.9-1.6-1.3s-1.1-0.9-1.7-1.3-1.2-0.9-1.7-1.3l-1.8-1.2c-1.1-0.8-2.3-1.5-3.5-2.3-0.4-0.2-0.8-0.5-1.1-0.7-0.4-0.2-0.8-0.5-1.2-0.7l-2.1-1.2c-0.6-0.3-1.2-0.7-1.9-1-0.9-0.4-1.7-0.9-2.6-1.3-0.7-0.3-1.4-0.7-2.1-1-0.1 0-0.2-0.1-0.2-0.1-0.7-0.3-1.4-0.6-2.1-1-0.1-0.1-0.2-0.1-0.3-0.1-0.8-0.3-1.6-0.7-2.4-1-3.9-8.2-7.3-16.6-10.3-25.2-1.8-5.3-4-10.3-6.4-15.2 1.2 0.7 2.4 1.3 3.7 1.8 2.6 1 5.3 1.6 7.9 1.6s4.9-0.5 7-1.6c3.1-1.6 5.2-4.3 6-7.6 1.5-7.4-4.5-16.1-13.8-19.7-5.3-2.1-10.7-2.1-14.8 0-3.1 1.6-5.3 4.3-6 7.6-0.1 0.4-0.1 0.7-0.2 1.1-3-4.1-6.2-8.1-9.6-11.8 0.1 0 0.1 0 0.2-0.1 0.4-0.1 0.7-0.3 1.1-0.5l1.2-0.6c6.6-3.3 11.6-9 14-16 2.6 0.3 4.5 2.4 4.5 5 0 3 2.4 5.4 5.3 5.4s5.3-2.3 5.4-5.2v-0.3c-0.1-5.7-4.8-10.4-10.5-10.4-1.1 0-2.1 0.2-3.2 0.5 0.3-0.8 0.8-1.6 1.5-2.2 2.5-2.5 6.7-2.5 9.2 0 1.7 1.7 4.2 2.4 6.6 1.8 5.3 11.7 9.8 23.8 13.1 36 3.2 11.5 14.5 19.6 27.5 19.6 2.3 0 4.6-0.3 6.9-0.8 1.5-0.3 2.9-0.8 4.3-1.3 12.3 12.2 18.8 25.9 18.8 40.1z"/>
		
	
	
		<path class="st9" d="m325.67 341.35c0.1-0.7 0.2-1.3 0.3-2-0.2 0.7-0.3 1.3-0.3 2zm97.8 113.6c1.2 0.8 2.4 1.5 3.5 2.3-1.1-0.8-2.3-1.6-3.5-2.3z"/>
	
</g>






</svg>
