<svg width="61" height="41.5" xmlns="http://www.w3.org/2000/svg" xml:space="preserve" version="1.1">
 <defs>
  <linearGradient y2="1.00047" x2="0.50004" y1="0.00098" x1="0.50004" id="SVGID_1_">
   <stop stop-color="#C3D1E3" offset="0"/>
   <stop stop-color="#8CBCF3" offset="0"/>
   <stop stop-color="#61A5F9" offset="1"/>
  </linearGradient>
 </defs>
 <g>
  <title>Layer 1</title>
  <g id="svg_1">
   <g id="svg_2">
    <path id="svg_3" fill="none" d="m12.47477,13.17411c0.35,0.1 0.68,0.25 0.99,0.46c0.11,0.08 1.11,0.78 1.31,1.98c0,0.03 0.01,0.05 0.01,0.08c0.57,-0.16 1.16,-0.24 1.75,-0.24c1.15,0 2.28,0.29 3.25,0.84c1.75,-0.31 3.57,-0.47 5.4,-0.47c1.83,0 3.65,0.16 5.4,0.47c0.98,-0.55 2.1,-0.84 3.25,-0.84c0.59,0 1.18,0.08 1.75,0.24c0,-0.02 0.01,-0.05 0.01,-0.08c0.15,-0.92 0.77,-1.63 1.31,-1.98c0.3,-0.2 0.64,-0.36 0.99,-0.46c-0.53,-0.61 -1.11,-1.2 -1.73,-1.73l-1.01,0.91l-0.61,-0.56c-3.11,-2.87 -6.26,-4.33 -9.36,-4.33c-3.11,0 -6.26,1.46 -9.36,4.33l-0.61,0.56l-1.01,-0.91c-0.61,0.53 -1.2,1.11 -1.73,1.73z" class="st0"/>
    <path id="svg_4" fill="#93C0F4" d="m28.72477,33.32411c-0.45,0.45 -1.67,1.47 -3.52,1.47l-0.02,0c-1.86,0 -3.09,-1.03 -3.54,-1.47c-8.87,0.59 -15.56,3.41 -15.56,6.56l0,0.01l38.2,0l0,-0.01c0,-3.15 -6.69,-5.97 -15.56,-6.56z" class="st1"/>
    <path id="svg_5" fill="#EF81B6" d="m12.10477,27.86411c-0.12,-0.06 -0.28,-0.1 -0.46,-0.1c-0.2,0 -0.42,0.04 -0.63,0.13c-0.66,0.25 -1.17,0.86 -1.17,1.37c0,0.05 0,0.1 0.01,0.14c0.04,0.17 0.14,0.31 0.31,0.39c0.28,0.14 0.68,0.13 1.08,-0.03l0,0c0.73,-0.29 1.26,-0.98 1.15,-1.51c-0.01,-0.18 -0.12,-0.31 -0.29,-0.39z" class="st2"/>
    <path id="svg_6" fill="#A3A3A3" d="m40.76477,14.59411l0.09,0.14l0.02,0c0.11,0 0.21,0 0.31,0c0.68,0.02 1.36,0.13 2.01,0.3c0.63,0.17 1.23,0.41 1.8,0.72c-0.07,-0.31 -0.24,-0.59 -0.49,-0.82c-0.34,-0.31 -0.8,-0.49 -1.29,-0.49c-0.09,0 -0.18,0.01 -0.27,0.02l-0.23,0.03l-0.11,-0.18c-0.96,-1.62 -2.15,-3.1 -3.54,-4.42c-0.38,-0.36 -0.78,-0.71 -1.19,-1.05l-1.27,1.14c1.66,1.36 3.06,2.91 4.16,4.61z" class="st3"/>
    <path id="svg_7" fill="#A3A3A3" d="m9.00477,15.34411c-3.91,0.24 -6.96,3.21 -6.96,6.79c0,1.4 0.46,2.74 1.34,3.88c1.2,-3.82 3.09,-7.41 5.62,-10.67z" class="st3"/>
    <path id="svg_8" fill="#A3A3A3" d="m9.50477,14.73411l0.02,0c0.02,-0.03 0.04,-0.06 0.05,-0.09c0.01,-0.02 0.02,-0.03 0.03,-0.05c1.09,-1.7 2.5,-3.25 4.16,-4.62l-1.27,-1.14c-0.41,0.34 -0.82,0.69 -1.19,1.05c-1.39,1.32 -2.58,2.81 -3.54,4.42l-0.11,0.18l-0.22,-0.03c-0.09,-0.01 -0.18,-0.02 -0.27,-0.02c-0.49,0 -0.95,0.17 -1.29,0.49c-0.13,0.12 -0.24,0.25 -0.32,0.4c-0.08,0.13 -0.14,0.28 -0.17,0.42c1.15,-0.62 2.47,-0.97 3.81,-1.02c0.1,0.01 0.2,0.01 0.31,0.01z" class="st3"/>
    <path id="svg_9" fill="#767676" d="m12.57477,14.72411c-0.32,-0.21 -0.69,-0.33 -1.08,-0.33c-0.44,0 -0.86,0.14 -1.19,0.4l-0.23,0.26l-0.01,0.02l-0.01,0l-0.23,0.25c-2.73,3.42 -4.74,7.22 -5.95,11.28c-0.07,0.23 -0.13,0.44 -0.18,0.64c0,0.01 0,0.02 -0.01,0.03l0,0.01c-0.12,0.43 -0.05,0.87 0.2,1.25c0.25,0.38 0.65,0.65 1.12,0.76c0.15,0.03 0.3,0.05 0.45,0.05c0.84,0 1.56,-0.52 1.76,-1.25c1.1,-4 3.04,-7.72 5.74,-11.05c0.29,-0.36 0.41,-0.79 0.34,-1.23c-0.07,-0.44 -0.33,-0.83 -0.72,-1.09z" class="st4"/>
    <path id="svg_10" fill="#FFFFFF" d="m14.44477,25.98411c0.63,0.31 1.38,0.34 2.1,0.08c0.74,-0.26 1.36,-0.8 1.76,-1.5c0.41,-0.74 0.52,-1.59 0.29,-2.33c-0.2,-0.65 -0.64,-1.16 -1.23,-1.46c-0.35,-0.17 -0.72,-0.26 -1.12,-0.26c-1.09,0 -2.17,0.66 -2.74,1.67c-0.39,0.7 -0.51,1.49 -0.32,2.21c0.18,0.72 0.63,1.28 1.26,1.59zm-0.08,-3.72c0.03,-0.13 0.14,-0.24 0.27,-0.28c0.12,-0.04 0.24,-0.02 0.35,0.04c0.56,-0.44 1.31,-0.54 1.89,-0.25c0.37,0.18 0.65,0.51 0.78,0.92c0.14,0.45 0.09,0.96 -0.14,1.4l-0.08,0.15l-0.08,-0.16c-0.05,-0.09 -0.12,-0.16 -0.21,-0.2c-0.12,-0.06 -0.25,-0.07 -0.39,-0.03c-0.16,0.05 -0.3,0.16 -0.39,0.31c-0.14,0.26 -0.1,0.56 0.11,0.71l0.12,0.09l-0.15,0.06c-0.21,0.08 -0.43,0.12 -0.65,0.12c-0.26,0 -0.51,-0.06 -0.72,-0.17l0,0c-0.38,-0.19 -0.66,-0.52 -0.79,-0.93c-0.14,-0.46 -0.08,-0.98 0.17,-1.42c0,0 0,-0.01 0,-0.01c-0.08,-0.08 -0.12,-0.21 -0.09,-0.35z" class="st5"/>
    <path id="svg_11" fill="#767676" d="m40.31477,15.07411l0,0l-0.02,-0.03l-0.23,-0.25c-0.33,-0.26 -0.75,-0.4 -1.19,-0.4c-0.39,0 -0.77,0.11 -1.08,0.33c-0.39,0.26 -0.64,0.65 -0.72,1.09c-0.07,0.44 0.05,0.87 0.34,1.23c2.71,3.33 4.64,7.05 5.74,11.05c0.2,0.74 0.93,1.25 1.76,1.25c0.15,0 0.3,-0.02 0.45,-0.05c0.47,-0.11 0.87,-0.38 1.12,-0.76c0.25,-0.38 0.32,-0.82 0.2,-1.25l0,-0.01c0,-0.01 -0.01,-0.02 -0.01,-0.03l0,-0.02c-0.06,-0.2 -0.12,-0.42 -0.18,-0.62c-1.22,-4.06 -3.22,-7.86 -5.95,-11.28l-0.23,-0.25z" class="st4"/>
    <path id="svg_12" fill="#FFFFFF" d="m36.12477,21.28411c-0.3,-0.26 -0.64,-0.45 -1.01,-0.59c-0.32,-0.11 -0.65,-0.17 -0.97,-0.17c-0.4,0 -0.78,0.09 -1.12,0.26c-0.59,0.29 -1.03,0.81 -1.23,1.46c-0.23,0.74 -0.13,1.59 0.29,2.33c0.8,1.43 2.53,2.07 3.86,1.42c0.63,-0.31 1.08,-0.87 1.26,-1.57c0.19,-0.72 0.07,-1.51 -0.32,-2.21c-0.21,-0.36 -0.46,-0.67 -0.76,-0.93zm-0.76,2.4c0.09,0.27 0.35,0.45 0.61,0.42l0.16,-0.02l-0.06,0.14c-0.19,0.43 -0.55,0.75 -0.99,0.87c-0.15,0.04 -0.3,0.06 -0.45,0.06c-0.29,0 -0.59,-0.08 -0.86,-0.23c-0.41,-0.23 -0.72,-0.61 -0.87,-1.07c0,0 0,-0.01 0,-0.01c-0.1,0 -0.2,-0.04 -0.28,-0.11c-0.08,-0.07 -0.12,-0.17 -0.12,-0.27c0,-0.1 0.04,-0.2 0.12,-0.27c0.05,-0.05 0.12,-0.09 0.19,-0.1c0.07,-0.68 0.51,-1.23 1.14,-1.41c0.87,-0.26 1.84,0.28 2.16,1.19l0.06,0.17l-0.17,-0.06c-0.1,-0.03 -0.2,-0.03 -0.3,0l0,0c-0.12,0.03 -0.22,0.12 -0.29,0.23c-0.09,0.13 -0.1,0.31 -0.05,0.47z" class="st5"/>
    <path id="svg_13" fill="#A3A3A3" d="m41.36477,15.34411c2.54,3.26 4.43,6.85 5.63,10.67c0.87,-1.14 1.34,-2.48 1.34,-3.88c-0.01,-3.58 -3.06,-6.55 -6.97,-6.79z" class="st3"/>
    <path id="svg_14" fill="#80B3F1" d="m46.85477,41.12411c0.34,-0.28 3.06,-2.54 2.97,-5.93c0.08,3.39 -2.63,5.65 -2.97,5.93z" class="st6"/>
    <path id="svg_15" fill="url(#SVGID_1_)" d="m45.73477,30.61411c-0.27,0.06 -0.54,0.09 -0.81,0.09c-1.52,0 -2.84,-0.94 -3.21,-2.29c-0.39,-1.42 -0.91,-2.84 -1.53,-4.21c-0.28,0.07 -0.57,-0.01 -0.77,-0.21c-0.3,-0.3 -0.78,-0.3 -1.08,0c-0.08,0.08 -0.13,0.16 -0.17,0.26c0.12,-0.04 0.25,-0.06 0.37,-0.06c0.67,0 1.22,0.54 1.23,1.21l0,0.04c-0.01,0.34 -0.29,0.61 -0.63,0.61c-0.34,0 -0.62,-0.28 -0.62,-0.63c0,-0.3 -0.22,-0.55 -0.52,-0.58c-0.28,0.83 -0.86,1.49 -1.64,1.88c-0.47,0.23 -0.99,0.35 -1.54,0.36c-1.42,0 -2.81,-0.83 -3.54,-2.13c-0.52,-0.93 -0.65,-2.01 -0.35,-2.96c0.27,-0.87 0.86,-1.57 1.67,-1.97c0.86,-0.43 1.87,-0.47 2.84,-0.13c0.95,0.34 1.74,1.01 2.24,1.9c0.23,0.4 0.38,0.83 0.46,1.29c0.05,-0.08 0.11,-0.15 0.18,-0.22c0.26,-0.26 0.61,-0.42 0.98,-0.46c-0.87,-1.59 -1.9,-3.13 -3.07,-4.57c-0.2,-0.24 -0.35,-0.5 -0.46,-0.79c-0.61,-0.24 -1.25,-0.36 -1.92,-0.36c-1.07,0 -2.09,0.31 -2.95,0.9l-0.03,0.02l-0.04,-0.01c-1.82,-0.36 -3.72,-0.54 -5.63,-0.54c-1.92,0 -3.82,0.18 -5.63,0.54l-0.04,0.01l-0.03,-0.02c-0.86,-0.59 -1.88,-0.9 -2.95,-0.9c-0.66,0 -1.31,0.12 -1.92,0.36c-0.11,0.28 -0.27,0.55 -0.46,0.79c-1.17,1.44 -2.2,2.97 -3.07,4.57c0.37,0.03 0.72,0.19 0.98,0.46c0.07,0.06 0.12,0.14 0.18,0.22c0.08,-0.45 0.23,-0.88 0.46,-1.29c0.5,-0.89 1.3,-1.57 2.26,-1.9c0.96,-0.34 1.96,-0.29 2.81,0.13c0.81,0.4 1.4,1.1 1.67,1.97c0.3,0.95 0.17,2.03 -0.35,2.96c-0.5,0.89 -1.29,1.56 -2.24,1.9c-0.43,0.15 -0.87,0.23 -1.3,0.23c-0.54,0 -1.06,-0.12 -1.54,-0.36c-0.77,-0.38 -1.36,-1.05 -1.64,-1.88c-0.3,0.03 -0.52,0.28 -0.52,0.58c0,0.34 -0.28,0.63 -0.63,0.63c-0.34,0 -0.62,-0.27 -0.63,-0.61l0,-0.04c0.01,-0.67 0.56,-1.21 1.23,-1.21c0.12,0 0.25,0.02 0.37,0.06c-0.04,-0.1 -0.1,-0.19 -0.17,-0.26c-0.3,-0.3 -0.78,-0.3 -1.08,0c-0.2,0.2 -0.5,0.28 -0.77,0.21c-0.62,1.37 -1.14,2.78 -1.53,4.21c-0.37,1.35 -1.69,2.29 -3.21,2.29c-0.27,0 -0.54,-0.03 -0.81,-0.09c-0.17,-0.04 -0.34,-0.09 -0.5,-0.16c-1.5,1.48 -2.25,3.07 -2.25,4.73c0,1.64 0.76,3.24 2.23,4.7l1.07,0l0,-0.01c0,-1.86 1.75,-3.63 4.91,-4.99c3.02,-1.29 7.18,-2.15 11.71,-2.44l0.23,-0.01l0.15,0.17c0.19,0.22 1.25,1.33 3,1.33c1.76,0 2.81,-1.11 3,-1.33l0.15,-0.17l0.23,0.01c4.53,0.28 8.69,1.15 11.71,2.44c3.17,1.35 4.91,3.13 4.91,4.99l0,0.01l1.07,0c1.46,-1.46 2.23,-3.07 2.23,-4.7c0,-1.66 -0.76,-3.26 -2.25,-4.73c-0.16,0.07 -0.33,0.12 -0.5,0.16zm-34.18,-0.2c-0.3,0.12 -0.62,0.18 -0.92,0.18c-0.3,0 -0.57,-0.06 -0.81,-0.18c-0.37,-0.19 -0.62,-0.5 -0.7,-0.89c-0.18,-0.87 0.52,-1.88 1.61,-2.31c0.62,-0.24 1.25,-0.24 1.73,0c0.37,0.18 0.62,0.5 0.7,0.88c0.18,0.89 -0.53,1.9 -1.61,2.32zm29.7,-0.88c-0.08,0.38 -0.33,0.7 -0.7,0.88c-0.24,0.12 -0.51,0.18 -0.81,0.18c-0.3,0 -0.62,-0.06 -0.92,-0.18c-1.08,-0.42 -1.79,-1.44 -1.61,-2.31c0.08,-0.39 0.33,-0.7 0.7,-0.88c0.48,-0.24 1.11,-0.24 1.73,0c1.08,0.43 1.79,1.44 1.61,2.31z" class="st7"/>
    <path id="svg_16" fill="#EF81B6" d="m39.35477,27.88411c-0.21,-0.08 -0.43,-0.13 -0.63,-0.13c-0.17,0 -0.33,0.03 -0.46,0.1c-0.17,0.08 -0.27,0.22 -0.31,0.39c-0.11,0.53 0.42,1.22 1.16,1.51c0.4,0.16 0.81,0.17 1.08,0.03c0.17,-0.08 0.27,-0.22 0.31,-0.39c0.11,-0.53 -0.42,-1.22 -1.15,-1.51z" class="st2"/>
    <path id="svg_17" fill="#80B3F1" d="m0.55477,35.19411c0.06,-2.18 1.24,-3.94 1.54,-4.35c-0.31,0.41 -1.49,2.17 -1.54,4.35z" class="st6"/>
    <path id="svg_18" fill="#FFB158" d="m52.68477,2.30411l-1.58,5.39l-1.02,-0.3c-1.19,-0.35 -2.44,0.33 -2.8,1.53l0,0c-0.35,1.19 0.33,2.44 1.53,2.8c1.19,0.35 2.44,-0.33 2.8,-1.53l1.41,-4.8l5.33,1.57l-0.77,2.64l-1.02,-0.3c-1.19,-0.35 -2.44,0.33 -2.8,1.53l0,0c-0.35,1.19 0.33,2.44 1.53,2.8c1.19,0.35 2.44,-0.33 2.8,-1.53l2.22,-7.55l-7.63,-2.25z" class="st8"/>
    <path id="svg_19" fill="#231F20" d="m47.31477,16.46411c-0.26,-0.24 -0.53,-0.47 -0.81,-0.67c-0.08,-0.69 -0.41,-1.32 -0.95,-1.82c-0.55,-0.5 -1.23,-0.8 -1.99,-0.87c-0.96,-1.5 -2.11,-2.9 -3.43,-4.16c-0.2,-0.19 -0.39,-0.37 -0.58,-0.54l0.92,-0.82l-0.61,-0.56c-4.56,-4.21 -9.5,-6.35 -14.67,-6.35c-5.17,0 -10.11,2.14 -14.67,6.35l-0.61,0.56l0.92,0.82c-0.19,0.17 -0.39,0.35 -0.59,0.54c-1.32,1.25 -2.48,2.65 -3.43,4.16c-0.76,0.07 -1.45,0.37 -1.99,0.87c-0.54,0.5 -0.87,1.13 -0.95,1.82c-0.29,0.22 -0.57,0.45 -0.81,0.67c-1.62,1.53 -2.51,3.54 -2.51,5.67c0,1.73 0.59,3.38 1.69,4.78c0,0.01 -0.01,0.02 -0.01,0.03l0,0.01c-0.27,1 0.02,2.04 0.79,2.8c-0.35,0.36 -0.67,0.73 -0.94,1.1c-0.3,0.41 -1.48,2.17 -1.54,4.35c-0.09,3.39 2.63,5.66 2.97,5.93l43.33,0c0.34,-0.28 3.06,-2.54 2.97,-5.93c-0.05,-2.18 -1.24,-3.94 -1.54,-4.35c-0.27,-0.37 -0.59,-0.74 -0.94,-1.1c0.77,-0.75 1.07,-1.8 0.79,-2.8l0,-0.01c0,-0.01 -0.01,-0.02 -0.01,-0.03c1.11,-1.4 1.69,-3.05 1.69,-4.78c0.02,-2.13 -0.87,-4.14 -2.49,-5.67zm-9.45,-7.62c0.41,0.34 0.82,0.69 1.19,1.05c1.39,1.32 2.58,2.81 3.54,4.42l0.11,0.18l0.23,-0.03c0.09,-0.01 0.18,-0.02 0.27,-0.02c0.49,0 0.95,0.17 1.29,0.49c0.25,0.23 0.42,0.51 0.49,0.82c-0.57,-0.31 -1.18,-0.55 -1.8,-0.72c-0.65,-0.18 -1.32,-0.28 -2.01,-0.3c-0.1,0 -0.2,0 -0.31,0l-0.02,0l-0.09,-0.14c-1.09,-1.7 -2.5,-3.25 -4.16,-4.62l1.27,-1.13zm8.63,17.76c0.06,0.21 0.12,0.42 0.18,0.62l0,0.02c0,0.01 0,0.02 0.01,0.03l0,0.01c0.12,0.43 0.05,0.87 -0.2,1.25c-0.25,0.38 -0.65,0.65 -1.12,0.76c-0.15,0.03 -0.3,0.05 -0.45,0.05c-0.84,0 -1.56,-0.52 -1.76,-1.25c-1.1,-4 -3.04,-7.72 -5.74,-11.05c-0.29,-0.35 -0.41,-0.79 -0.34,-1.23c0.07,-0.44 0.33,-0.82 0.72,-1.09c0.32,-0.21 0.69,-0.33 1.08,-0.33c0.44,0 0.86,0.14 1.19,0.4l0.23,0.25l0.02,0.03l0,0l0.23,0.25c2.73,3.42 4.74,7.22 5.95,11.28zm-31.28,-14.25l0.61,-0.56c3.11,-2.87 6.26,-4.33 9.36,-4.33c3.11,0 6.26,1.46 9.36,4.33l0.61,0.56l1.01,-0.91c0.61,0.54 1.19,1.12 1.73,1.73c-0.35,0.1 -0.68,0.25 -0.99,0.46c-0.53,0.36 -1.15,1.07 -1.31,1.98c-0.01,0.03 -0.01,0.06 -0.01,0.08c-0.57,-0.16 -1.16,-0.24 -1.75,-0.24c-1.15,0 -2.28,0.29 -3.25,0.84c-1.75,-0.31 -3.57,-0.47 -5.4,-0.47c-1.83,0 -3.65,0.16 -5.4,0.47c-0.98,-0.55 -2.1,-0.84 -3.25,-0.84c-0.6,0 -1.19,0.08 -1.75,0.24c0,-0.02 -0.01,-0.05 -0.01,-0.08c-0.2,-1.2 -1.19,-1.91 -1.31,-1.98c-0.3,-0.2 -0.64,-0.36 -0.99,-0.46c0.53,-0.61 1.11,-1.2 1.73,-1.73l1.01,0.91zm-2.26,4.69c-2.71,3.33 -4.64,7.05 -5.74,11.05c-0.2,0.74 -0.93,1.25 -1.76,1.25c-0.15,0 -0.3,-0.02 -0.45,-0.05c-0.47,-0.11 -0.87,-0.38 -1.12,-0.76c-0.25,-0.38 -0.32,-0.82 -0.2,-1.25l0,-0.01c0,-0.01 0.01,-0.02 0.01,-0.03c0.05,-0.2 0.12,-0.41 0.18,-0.64c1.21,-4.06 3.22,-7.86 5.95,-11.28l0.23,-0.25l0.01,0l0.01,-0.02l0.23,-0.26c0.33,-0.26 0.75,-0.4 1.19,-0.4c0.39,0 0.77,0.11 1.08,0.33c0.39,0.26 0.64,0.65 0.71,1.09c0.08,0.43 -0.04,0.87 -0.33,1.23zm-7.4,-1.71c0.08,-0.14 0.19,-0.28 0.32,-0.4c0.34,-0.31 0.8,-0.49 1.29,-0.49c0.09,0 0.18,0.01 0.27,0.02l0.22,0.03l0.11,-0.18c0.96,-1.61 2.15,-3.1 3.54,-4.42c0.38,-0.36 0.78,-0.71 1.19,-1.05l1.27,1.14c-1.67,1.36 -3.07,2.92 -4.16,4.62c-0.01,0.02 -0.02,0.03 -0.03,0.05c-0.02,0.03 -0.04,0.06 -0.05,0.09l-0.02,0c-0.11,0 -0.21,0 -0.31,0c-1.34,0.05 -2.66,0.4 -3.81,1.02c0.03,-0.15 0.09,-0.3 0.17,-0.43zm-3.51,6.8c0,-3.58 3.06,-6.55 6.96,-6.79c-2.54,3.26 -4.43,6.85 -5.63,10.67c-0.87,-1.14 -1.33,-2.48 -1.33,-3.88zm42.24,17.76l-38.2,0l0,-0.01c0,-3.15 6.69,-5.97 15.56,-6.56c0.45,0.45 1.68,1.47 3.54,1.47l0.02,0c1.85,0 3.08,-1.03 3.52,-1.47c8.87,0.59 15.56,3.41 15.56,6.56l0,0.01zm4.2,-4.7c0,1.64 -0.76,3.24 -2.23,4.7l-1.07,0l0,-0.01c0,-1.86 -1.75,-3.63 -4.91,-4.99c-3.02,-1.29 -7.18,-2.15 -11.71,-2.44l-0.23,-0.01l-0.15,0.17c-0.19,0.22 -1.24,1.33 -3,1.33c-1.75,0 -2.81,-1.11 -3,-1.33l-0.15,-0.17l-0.23,0.01c-4.53,0.28 -8.69,1.15 -11.71,2.44c-3.17,1.35 -4.91,3.13 -4.91,4.99l0,0.01l-1.07,0c-1.46,-1.46 -2.23,-3.07 -2.23,-4.7c0,-1.66 0.76,-3.25 2.25,-4.73c0.17,0.07 0.34,0.12 0.5,0.16c0.27,0.06 0.54,0.09 0.81,0.09c1.52,0 2.84,-0.94 3.21,-2.29c0.39,-1.42 0.91,-2.84 1.53,-4.21c0.27,0.07 0.57,-0.01 0.77,-0.21c0.3,-0.3 0.78,-0.3 1.08,0c0.07,0.08 0.13,0.16 0.17,0.26c-0.12,-0.04 -0.24,-0.06 -0.37,-0.06c-0.67,0 -1.22,0.54 -1.23,1.21l0,0.04c0.01,0.34 0.29,0.61 0.63,0.61c0.34,0 0.63,-0.28 0.63,-0.63c0,-0.3 0.22,-0.55 0.52,-0.58c0.28,0.83 0.86,1.49 1.64,1.88c0.48,0.24 1,0.36 1.54,0.36c0.43,0 0.87,-0.08 1.3,-0.23c0.95,-0.34 1.74,-1.01 2.24,-1.9c0.52,-0.93 0.65,-2.01 0.35,-2.96c-0.27,-0.87 -0.86,-1.57 -1.67,-1.97c-0.85,-0.42 -1.85,-0.47 -2.81,-0.13c-0.96,0.34 -1.76,1.01 -2.26,1.9c-0.23,0.41 -0.38,0.84 -0.46,1.29c-0.05,-0.08 -0.11,-0.15 -0.18,-0.22c-0.26,-0.26 -0.61,-0.42 -0.98,-0.46c0.87,-1.59 1.9,-3.13 3.07,-4.57c0.2,-0.24 0.35,-0.51 0.46,-0.79c0.61,-0.24 1.25,-0.36 1.92,-0.36c1.07,0 2.09,0.31 2.95,0.9l0.03,0.02l0.04,-0.01c1.82,-0.36 3.71,-0.54 5.63,-0.54c1.92,0 3.81,0.18 5.63,0.54l0.04,0.01l0.03,-0.02c0.86,-0.59 1.88,-0.9 2.95,-0.9c0.67,0 1.31,0.12 1.92,0.36c0.11,0.28 0.26,0.54 0.46,0.79c1.17,1.43 2.2,2.97 3.07,4.57c-0.37,0.03 -0.72,0.19 -0.98,0.46c-0.06,0.06 -0.12,0.14 -0.18,0.22c-0.08,-0.45 -0.23,-0.88 -0.46,-1.29c-0.5,-0.89 -1.29,-1.56 -2.24,-1.9c-0.96,-0.35 -1.97,-0.3 -2.84,0.13c-0.81,0.4 -1.4,1.1 -1.67,1.97c-0.3,0.95 -0.17,2.04 0.35,2.96c0.73,1.29 2.11,2.13 3.54,2.13c0.55,0 1.07,-0.12 1.54,-0.36c0.77,-0.38 1.36,-1.05 1.64,-1.88c0.3,0.03 0.52,0.28 0.52,0.58c0,0.34 0.28,0.63 0.62,0.63c0.34,0 0.62,-0.27 0.63,-0.61l0,-0.04c-0.01,-0.67 -0.56,-1.21 -1.23,-1.21c-0.12,0 -0.25,0.02 -0.37,0.06c0.04,-0.1 0.1,-0.19 0.17,-0.26c0.3,-0.3 0.78,-0.3 1.08,0c0.2,0.2 0.5,0.28 0.77,0.21c0.62,1.37 1.14,2.78 1.53,4.21c0.37,1.35 1.69,2.29 3.21,2.29c0.27,0 0.54,-0.03 0.81,-0.09c0.17,-0.04 0.34,-0.09 0.5,-0.16c1.5,1.47 2.25,3.06 2.25,4.73zm-34.98,-12.99c0.57,-1.02 1.64,-1.67 2.74,-1.67c0.4,0 0.77,0.09 1.12,0.26c0.59,0.29 1.03,0.81 1.23,1.46c0.23,0.74 0.13,1.59 -0.29,2.33c-0.39,0.7 -1.02,1.23 -1.76,1.5c-0.72,0.26 -1.47,0.23 -2.1,-0.08c-0.63,-0.31 -1.08,-0.87 -1.26,-1.57c-0.19,-0.74 -0.08,-1.53 0.32,-2.23zm23.69,2.21c-0.18,0.7 -0.63,1.26 -1.26,1.57c-1.32,0.65 -3.05,0.02 -3.86,-1.42c-0.41,-0.74 -0.52,-1.59 -0.29,-2.33c0.2,-0.65 0.64,-1.16 1.23,-1.46c0.34,-0.17 0.72,-0.26 1.12,-0.26c0.32,0 0.65,0.06 0.97,0.17c0.37,0.13 0.71,0.33 1.01,0.59c0.3,0.26 0.56,0.57 0.75,0.92c0.4,0.71 0.52,1.5 0.33,2.22zm9.8,1.6c-1.2,-3.82 -3.09,-7.41 -5.63,-10.67c3.91,0.24 6.96,3.21 6.96,6.79c0,1.4 -0.46,2.74 -1.33,3.88z" class="st9"/>
    <path id="svg_20" fill="#231F20" d="m39.64477,27.23411c-0.62,-0.24 -1.25,-0.24 -1.73,0c-0.37,0.18 -0.61,0.5 -0.7,0.88c-0.18,0.87 0.53,1.88 1.61,2.31c0.3,0.12 0.62,0.18 0.92,0.18c0.3,0 0.57,-0.06 0.81,-0.18c0.37,-0.19 0.61,-0.5 0.7,-0.88c0.18,-0.88 -0.53,-1.89 -1.61,-2.31zm0.86,2.17c-0.04,0.17 -0.14,0.31 -0.31,0.39c-0.28,0.14 -0.68,0.13 -1.08,-0.03c-0.74,-0.29 -1.27,-0.98 -1.16,-1.51c0.04,-0.17 0.14,-0.31 0.31,-0.39c0.12,-0.06 0.28,-0.1 0.46,-0.1c0.2,0 0.42,0.04 0.63,0.13c0.73,0.28 1.26,0.97 1.15,1.51z" class="st9"/>
    <path id="svg_21" fill="#231F20" d="m12.46477,27.23411c-0.48,-0.24 -1.11,-0.24 -1.73,0c-1.09,0.42 -1.79,1.44 -1.61,2.31c0.08,0.38 0.33,0.7 0.7,0.89c0.24,0.12 0.51,0.18 0.81,0.18c0.3,0 0.62,-0.06 0.92,-0.18c1.08,-0.42 1.79,-1.44 1.61,-2.31c-0.08,-0.4 -0.33,-0.71 -0.7,-0.89zm-1.2,2.52l0,0c-0.41,0.16 -0.81,0.17 -1.09,0.03c-0.17,-0.08 -0.27,-0.22 -0.31,-0.39c-0.01,-0.04 -0.01,-0.09 -0.01,-0.14c0,-0.51 0.51,-1.11 1.17,-1.37c0.21,-0.08 0.43,-0.13 0.63,-0.13c0.17,0 0.33,0.03 0.46,0.1c0.17,0.08 0.27,0.22 0.31,0.39c0.1,0.54 -0.42,1.23 -1.16,1.51z" class="st9"/>
    <path id="svg_22" fill="#231F20" d="m14.29477,24.06411c0.13,0.41 0.41,0.75 0.79,0.93l0,0c0.22,0.11 0.47,0.17 0.72,0.17c0.22,0 0.44,-0.04 0.65,-0.12l0.15,-0.06l-0.12,-0.09c-0.21,-0.16 -0.25,-0.46 -0.11,-0.71c0.08,-0.15 0.23,-0.27 0.39,-0.31c0.13,-0.04 0.27,-0.03 0.39,0.03c0.09,0.04 0.16,0.12 0.21,0.2l0.08,0.16l0.08,-0.15c0.23,-0.44 0.29,-0.95 0.14,-1.4c-0.13,-0.41 -0.41,-0.73 -0.78,-0.92c-0.59,-0.29 -1.33,-0.19 -1.89,0.25c-0.1,-0.06 -0.23,-0.08 -0.35,-0.04c-0.13,0.04 -0.24,0.15 -0.27,0.28c-0.03,0.13 0.01,0.26 0.1,0.36c0,0 0,0.01 0,0.01c-0.26,0.43 -0.32,0.95 -0.18,1.41z" class="st9"/>
    <path id="svg_23" fill="#231F20" d="m35.69477,22.98411l0,0c0.1,-0.03 0.2,-0.03 0.3,0l0.17,0.06l-0.06,-0.17c-0.32,-0.91 -1.29,-1.45 -2.16,-1.19c-0.63,0.18 -1.07,0.73 -1.14,1.41c-0.07,0.02 -0.14,0.05 -0.19,0.1c-0.08,0.07 -0.12,0.17 -0.12,0.27c0,0.1 0.04,0.2 0.12,0.27c0.07,0.07 0.18,0.11 0.28,0.11c0,0 0,0.01 0,0.01c0.15,0.45 0.46,0.83 0.87,1.07c0.27,0.15 0.57,0.23 0.86,0.23c0.15,0 0.31,-0.02 0.45,-0.06c0.44,-0.13 0.8,-0.45 0.99,-0.87l0.06,-0.14l-0.16,0.02c-0.26,0.03 -0.52,-0.15 -0.61,-0.42c-0.05,-0.16 -0.04,-0.33 0.04,-0.47c0.07,-0.12 0.18,-0.2 0.3,-0.23z" class="st9"/>
   </g>
  </g>
  <g id="svg_24">
   <path id="svg_25" fill="#EF81B6" d="m26.79477,25.60411l-0.66,-0.2c-0.11,-0.03 -0.22,-0.06 -0.33,-0.08l0,1.82c0,0.17 -0.07,0.32 -0.18,0.44c-0.11,0.11 -0.27,0.18 -0.43,0.18c-0.34,0 -0.62,-0.28 -0.62,-0.62l0,-1.82c-0.11,0.02 -0.22,0.05 -0.33,0.08l-0.66,0.2c-0.44,0.13 -0.89,0.16 -1.33,0.1l0,0.51c0,0.78 0.31,1.52 0.86,2.08c0.56,0.55 1.29,0.86 2.08,0.86c1.62,0 2.94,-1.32 2.94,-2.94l0,-0.51c-0.14,0.02 -0.29,0.03 -0.44,0.03c-0.31,0 -0.61,-0.04 -0.9,-0.13z" class="st2"/>
   <path id="svg_26" fill="#B56890" d="m25.18477,27.76411c0.17,0 0.32,-0.07 0.43,-0.18c0.11,-0.11 0.18,-0.27 0.18,-0.44l0,-1.82c-0.2,-0.04 -0.41,-0.06 -0.61,-0.07c-0.21,0 -0.41,0.03 -0.62,0.07l0,1.82c0,0.34 0.28,0.62 0.62,0.62z" class="st10"/>
   <path id="svg_27" fill="#1D1D1B" d="m29.90477,24.21411c-0.17,-0.17 -0.44,-0.17 -0.6,0c-0.25,0.25 -0.55,0.44 -0.88,0.55c0,0 0,0 0,0c-0.44,0.15 -0.92,0.16 -1.38,0.03l-0.66,-0.2c-0.38,-0.11 -0.78,-0.18 -1.18,-0.18l-0.01,0l-0.01,0c-0.4,0.01 -0.8,0.07 -1.18,0.18l-0.66,0.2c-0.8,0.24 -1.67,0.02 -2.27,-0.57c-0.17,-0.17 -0.44,-0.17 -0.6,0c-0.17,0.17 -0.17,0.44 0,0.6c0.27,0.27 0.59,0.49 0.93,0.64l0,0.76c0,1.01 0.39,1.96 1.11,2.68c0.72,0.72 1.67,1.11 2.68,1.11c2.09,0 3.79,-1.7 3.79,-3.79l0,-0.76c0.34,-0.15 0.66,-0.37 0.93,-0.64c0.15,-0.17 0.15,-0.44 -0.01,-0.61zm-1.78,2c0,1.62 -1.32,2.94 -2.94,2.94c-0.78,0 -1.52,-0.31 -2.08,-0.86c-0.55,-0.56 -0.86,-1.29 -0.86,-2.08l0,-0.51c0.44,0.06 0.89,0.03 1.33,-0.1l0.66,-0.2c0.11,-0.03 0.22,-0.06 0.33,-0.08c0.2,-0.04 0.41,-0.06 0.62,-0.07c0.21,0 0.41,0.03 0.61,0.07c0.11,0.02 0.22,0.05 0.33,0.08l0.66,0.2c0.29,0.09 0.59,0.13 0.89,0.13c0.15,0 0.29,-0.01 0.44,-0.03l0,0.51l0.01,0z" class="st11"/>
  </g>
 </g>
</svg>