<svg width="2745" height="2752" xmlns="http://www.w3.org/2000/svg" xml:space="preserve" version="1.1">

 <g>
  <title>Layer 1</title>
  <path stroke="null" id="svg_1" fill="#7C693A" d="m1999.50267,4.66679l-1251.04499,0l-742.46134,742.46134l0,1251.04499l742.46134,742.46134l1251.04499,0l742.46134,-742.46134l0,-1251.04499l-742.46134,-742.46134zm-625.6405,306.3302l97.9407,266.44592l-97.9407,266.44592l-97.9407,-266.44592l97.9407,-266.44592zm72.68852,1489.40671l0,30.91622l-141.60102,0l0,-37.52427c0,-9.67607 1.18001,-17.93613 3.30402,-24.54418c1.41601,-6.13604 4.72003,-11.32808 9.44007,-16.04812c4.48403,-4.72003 9.91207,-7.78806 15.81211,-9.20407c2.59602,-0.94401 5.42804,-1.65201 8.73206,-2.12402l44.84032,-11.32808l16.28412,-4.01203c0.94401,-0.70801 1.65201,-1.41601 2.59602,-2.12402c3.54003,-3.54003 5.19204,-7.78806 5.19204,-12.74409l0,-10.85608c0,-4.95604 -1.65201,-9.20407 -5.19204,-12.50809c-3.54003,-3.54003 -7.55205,-5.19204 -12.50809,-5.19204l-35.40025,0c-4.72003,0 -8.96806,1.65201 -12.50809,5.19204c-3.30402,3.30402 -5.19204,7.55205 -5.19204,12.50809l0,13.21609l-35.40025,0l0,-8.96806c0,-9.44007 1.18001,-17.70013 3.30402,-24.30817c1.41601,-6.13604 4.72003,-11.32808 9.44007,-16.04812c4.48403,-4.72003 9.91207,-7.78806 15.81211,-9.20407c6.84405,-2.36002 15.10411,-3.54003 24.54418,-3.54003l35.40025,0c9.67607,0 17.70013,1.18001 24.54418,3.54003c6.13604,1.41601 11.32808,4.48403 16.04812,9.20407c4.48403,4.72003 7.78806,9.91207 9.20407,15.81211c2.36002,6.84405 3.30402,15.10411 3.30402,24.54418c0,9.67607 -0.94401,17.93613 -3.30402,24.54418c-1.41601,6.13604 -4.72003,11.56408 -9.20407,16.04812c-4.72003,4.72003 -9.91207,7.78806 -16.04812,9.20407c-2.59602,0.94401 -5.42804,1.65201 -8.49606,2.36002l-22.42016,5.42804l-22.42016,5.66404l-16.52012,4.01203c-0.94401,0.70801 -1.88801,1.41601 -2.59602,2.36002c-3.30402,3.30402 -5.19204,7.55205 -5.19204,12.27209l0,13.4521l106.20076,0zm-1023.06735,-1076.63974c105.02075,-104.07675 244.26176,-161.66116 391.99882,-161.66116c73.86853,0 145.61305,14.3961 213.10953,42.2443c67.49649,27.8482 128.14892,68.67649 180.5413,121.06887c55.4604,55.6964 98.41271,126.02491 121.06887,198.94943c8.73206,28.79221 13.4521,59.94443 13.4521,92.27666l0,207.68149c0,56.1684 -3.54003,107.38077 -10.62008,156.46912c-27.6122,193.52139 -92.74867,276.59399 -248.74579,317.18628l-1.65201,0.472c-31.86023,8.26006 -66.78848,12.27209 -104.07675,12.27209l-358.48658,0l-191.16137,-190.92537c-105.96476,-105.96476 -166.3812,-253.70182 -166.14519,-405.45091c0.236,-149.38907 57.34841,-288.15807 160.71716,-390.58281zm138.769,1429.22627l-279.66201,48.38035l181.72131,-218.06557l279.66201,-48.38035l-181.72131,218.06557zm781.40162,281.55002l-664.81678,-664.81678l299.72215,0c37.52427,0 72.45252,4.24803 104.31275,12.50809l1.41601,0.472c155.99712,40.59229 221.13359,123.42889 248.74579,316.95028c7.08005,49.32435 10.62008,100.53672 10.62008,156.70513l0,178.18128zm60.41643,0l0,-178.18128c0,-56.1684 3.54003,-107.38077 10.62008,-156.70513c27.6122,-193.52139 92.74867,-276.35799 248.74579,-316.95028l1.41601,-0.472c32.09623,-8.26006 67.02448,-12.50809 104.31275,-12.50809l299.72215,0l-664.81678,664.81678zm781.40162,-281.55002l-181.72131,-218.06557l279.66201,48.38035l181.95731,218.06557l-279.89801,-48.38035zm133.34096,-633.19255l-191.16137,190.92537l-358.48658,0c-37.28827,0 -72.21652,-4.01203 -104.07675,-12.27209l-1.65201,-0.472c-155.99712,-40.59229 -221.13359,-123.66489 -248.74579,-317.18628c-7.08005,-49.08835 -10.62008,-100.30072 -10.62008,-156.46912l0,-207.68149c0,-32.33223 4.72003,-63.48446 13.4521,-92.27666c22.65616,-72.92452 65.60847,-143.25303 121.06887,-198.94943c52.39238,-52.39238 113.04481,-93.22067 180.5413,-121.06887c67.49649,-27.8482 139.241,-42.2443 213.10953,-42.2443c147.97306,0 287.21406,57.58441 391.99882,161.66116c103.36874,102.42474 160.48115,241.19373 160.95316,390.58281c0.236,151.74909 -60.41643,299.48615 -166.3812,405.45091z" class="st0"/>
 </g>
</svg>