<svg width="2842" height="2847" xmlns="http://www.w3.org/2000/svg" version="1.1" xml:space="preserve">
 <g>
  <title>Layer 1</title>
  <g id="svg_1" stroke="null">
   <path class="st0" d="m1374.68412,1369.75847c0,13.20971 5.62636,25.44093 15.41133,34.00278c3.42474,3.18012 4.40324,8.31723 2.20162,12.47584c-0.48925,1.22312 -1.46775,2.44624 -2.44624,3.18012c-0.9785,1.22312 -1.95699,1.95699 -3.42474,2.69087c-4.15861,2.20162 -9.29572,1.22312 -12.23121,-2.20162c-8.56185,-9.78497 -20.79307,-15.65595 -34.2474,-15.65595c-24.70705,0 -45.01087,20.30382 -45.25549,45.01087c-0.24462,24.95168 20.30382,45.98937 45.25549,45.98937c13.45434,0 25.68555,-5.62636 34.2474,-15.41133c2.93549,-3.66936 8.0726,-4.64786 12.23121,-2.44624c1.46775,0.73387 2.44624,1.46775 3.42474,2.69087c0.9785,0.73387 1.95699,1.95699 2.44624,3.18012c2.20162,4.15861 1.22312,9.29572 -2.20162,12.47584c-9.78497,8.56185 -15.41133,20.79307 -15.41133,34.00278c0,24.95168 20.05919,45.25549 44.76625,45.50012c25.1963,0.24462 45.98937,-20.30382 45.98937,-45.50012c0,-13.20971 -5.62636,-25.44093 -15.41133,-34.00278c-3.42474,-3.18012 -4.40324,-8.31723 -2.44624,-12.47584c0.73387,-1.22312 1.71237,-2.44624 2.69087,-3.18012c0.9785,-1.22312 1.95699,-1.95699 3.18012,-2.69087c4.40324,-2.20162 9.29572,-1.22312 12.47584,2.44624c8.56185,9.78497 20.79307,15.41133 34.2474,15.41133c24.70705,0 45.01087,-20.05919 45.25549,-45.01087c0.24462,-24.95168 -20.30382,-45.98937 -45.25549,-45.98937c-13.45434,0 -25.68555,5.87098 -34.2474,15.41133c-2.93549,3.66936 -8.0726,4.64786 -12.47584,2.44624c-1.22312,-0.73387 -2.20162,-1.46775 -3.18012,-2.69087c-0.9785,-0.73387 -1.95699,-1.95699 -2.69087,-3.18012c-1.95699,-4.15861 -0.9785,-9.29572 2.44624,-12.47584c9.78497,-8.31723 15.41133,-20.79307 15.41133,-34.00278c0,-24.95168 -20.05919,-45.01087 -44.76625,-45.50012c-25.1963,-0.24462 -45.98937,20.54844 -45.98937,45.50012z" fill="#806537" id="svg_2" stroke="null"/>
   <path class="st0" d="m2068.43862,5.48877l-1296.75339,0l-769.58803,769.58803l0,1296.75339l769.58803,769.58803l1296.75339,0l769.58803,-769.58803l0,-1296.75339l-769.58803,-769.58803zm-589.0553,2555.10076l0,29.35492l-134.54336,0l0,-35.71515c0,-9.0511 0.9785,-16.87908 2.93549,-23.23931c1.46775,-5.87098 4.40324,-10.76347 9.0511,-15.41133c4.15861,-4.40324 9.29572,-7.0941 14.92208,-8.56185c2.69087,-0.9785 5.38173,-1.71237 8.31723,-1.95699l42.80925,-10.76347l15.41133,-3.91399c0.9785,-0.73387 1.71237,-1.46775 2.44624,-2.20162c3.42474,-3.18012 4.89249,-7.0941 4.89249,-11.98659l0,-10.27422c0,-4.64786 -1.46775,-8.56185 -4.89249,-11.98659c-3.18012,-3.42474 -7.33873,-4.89249 -11.74197,-4.89249l-34.00278,0c-4.40324,0 -8.56185,1.46775 -11.74197,4.89249c-3.18012,3.42474 -4.89249,7.33873 -4.89249,11.98659l0,12.72046l-33.51353,0l0,-8.56185c0,-9.0511 0.9785,-16.87908 2.93549,-23.23931c1.46775,-5.87098 4.40324,-10.76347 9.0511,-15.41133c4.15861,-4.40324 9.29572,-7.0941 14.92208,-8.56185c6.60486,-2.20162 14.43283,-3.42474 23.23931,-3.42474l34.00278,0c9.0511,0 16.63445,1.22312 23.23931,3.18012c5.62636,1.46775 10.76347,4.40324 15.16671,8.80647c4.40324,4.64786 7.33873,9.54035 8.80647,15.16671c2.20162,6.60486 3.18012,14.43283 3.18012,23.48393c0,9.0511 -0.9785,16.87908 -3.18012,23.23931c-1.46775,5.87098 -4.40324,10.76347 -8.80647,15.16671c-4.40324,4.40324 -9.54035,7.58335 -15.16671,8.80647c-2.44624,0.9785 -5.38173,1.71237 -8.0726,2.20162l-21.28231,5.13711l-21.52694,5.38173l-15.65595,3.91399c-0.9785,0.73387 -1.71237,1.22312 -2.44624,2.20162c-3.18012,3.18012 -4.89249,7.0941 -4.89249,11.74197l0,12.72046l101.02983,0l0.00001,0zm12.96509,-205.97366c-15.16671,19.81457 -41.34151,31.80116 -70.20717,31.80116l-4.15861,0c-28.86567,0 -55.04047,-11.98659 -70.20717,-31.80116l-182.73435,-240.22106c-47.21249,-62.13457 -55.52971,-136.50036 -22.75006,-204.26129l89.04324,-184.20209c24.70705,-51.12648 76.32278,-83.41688 132.83099,-83.41688l22.75006,0l21.77156,173.68325c1.71237,13.45434 21.03769,13.45434 22.75006,0l21.77156,-173.68325l22.50544,0c56.75284,0 108.36856,32.29041 133.07562,83.41688l89.04324,184.20209c32.77966,67.76093 24.46243,142.12672 -22.75006,204.26129l-182.73435,240.22106zm-625.74895,-456.95818l-284.74268,-99.56209c-23.72856,-8.0726 -43.05388,-29.59954 -51.86035,-56.99746c-0.24462,-0.48925 -0.48925,-1.22312 -0.73387,-1.95699c-0.24462,-0.48925 -0.48925,-1.22312 -0.48925,-1.95699c-9.0511,-27.39792 -5.87098,-56.01896 8.31723,-76.5674l171.97088,-247.80441c44.52162,-64.33619 112.7718,-95.40348 187.38221,-85.12925l202.79354,27.88717c56.01896,7.82798 102.7422,46.96786 120.35515,100.78521l6.84948,21.28231l-158.51654,74.61041c-12.23121,5.62636 -6.11561,24.21781 7.0941,21.52694l171.97088,-32.77966l7.0941,21.28231c17.36832,54.06197 2.69087,113.01642 -38.16139,152.15631l-147.75307,141.88209c-54.30659,52.10497 -127.69388,67.02706 -201.57042,41.34151l0,-0.00001zm25.93018,95.89272c0,19.81457 -16.1452,35.95977 -36.2044,35.95977c-19.81457,0 -35.95977,-16.1452 -35.95977,-35.95977c0,-20.05919 16.1452,-36.2044 35.95977,-36.2044c20.05919,0 36.2044,16.1452 36.2044,36.2044zm-117.17504,-71.18567c0,10.76347 -8.80647,19.81457 -19.56994,19.81457c-11.00809,0 -19.81457,-9.0511 -19.81457,-19.81457c0,-11.00809 8.80647,-19.81457 19.81457,-19.81457c10.76347,0 19.56994,8.80647 19.56994,19.81457zm1198.1698,-24.70705c-73.87654,25.68555 -147.26383,10.76347 -201.57042,-41.34151l-147.75307,-141.88209c-40.85226,-39.13989 -55.52971,-98.09434 -38.16139,-152.15631l7.0941,-21.28231l171.97088,32.77966c13.20971,2.69087 19.32532,-15.90058 7.0941,-21.52694l-158.51654,-74.61041l6.84948,-21.28231c17.61295,-53.81734 64.33619,-92.95723 120.35515,-100.78521l202.79354,-27.88717c74.61041,-10.27422 142.86059,20.79307 187.38221,85.12925l171.97088,247.80441c14.18821,20.54844 17.36832,49.16948 8.31723,76.5674c-0.24462,0.73387 -0.24462,1.46775 -0.48925,1.95699c-0.24462,0.73387 -0.48925,1.46775 -0.73387,1.95699c-8.80647,27.39792 -28.37642,48.92486 -51.86035,56.99746l-284.74268,99.56209l0,0.00001zm130.62937,24.70705c0,10.76347 -8.80647,19.81457 -19.81457,19.81457c-10.76347,0 -19.56994,-9.0511 -19.56994,-19.81457c0,-11.00809 8.80647,-19.81457 19.56994,-19.81457c11.00809,0 19.81457,8.80647 19.81457,19.81457zm-84.39538,71.18567c0,19.81457 -16.1452,35.95977 -36.2044,35.95977c-19.81457,0 -35.95977,-16.1452 -35.95977,-35.95977c0,-20.05919 16.1452,-36.2044 35.95977,-36.2044c20.05919,0 36.2044,16.1452 36.2044,36.2044zm-104.45457,-752.70896l-180.28811,96.38197c-49.90336,26.90867 -110.81481,22.75006 -156.55955,-10.51884l-18.34682,-13.20971l84.64001,-153.62406c6.36023,-11.74197 -9.29572,-22.99468 -18.34682,-13.20971l-119.8659,127.69388l-18.34682,-13.20971c-45.74474,-33.2689 -68.4948,-89.77712 -58.46521,-145.55146l35.95977,-201.57042c13.45434,-74.12116 63.84694,-129.40625 138.70198,-151.91169l289.14592,-86.84162c23.72856,-7.33873 52.10497,-1.46775 75.34428,15.65595c0.48925,0.24462 1.22312,0.73387 1.71237,1.22312c0.48925,0.24462 0.9785,0.73387 1.71237,1.22312c23.23931,16.87908 37.67214,41.83075 38.16139,66.78243l6.60486,301.62176c1.71237,78.27977 -35.47052,143.34984 -101.76371,179.06498l-0.00001,0.00001zm-411.21344,106.90082c0,7.0941 -0.9785,13.94358 -2.44624,20.54844c7.82798,-1.95699 16.38983,-2.93549 24.95168,-2.44624c44.76625,2.20162 79.74752,38.89526 79.74752,83.90613c0,46.47862 -37.91677,84.15076 -84.15076,84.15076c-7.0941,0 -13.94358,-0.9785 -20.54844,-2.69087c1.95699,8.0726 2.69087,16.38983 2.44624,24.95168c-2.44624,45.01087 -39.13989,79.74752 -84.15076,79.74752c-46.23399,0 -83.90613,-37.67214 -83.90613,-83.90613c0,-7.0941 0.73387,-14.18821 2.44624,-20.79307c-7.82798,1.95699 -16.38983,2.93549 -24.95168,2.44624c-44.76625,-2.20162 -79.74752,-38.89526 -79.74752,-83.90613c0,-46.23399 37.67214,-83.90613 84.15076,-83.90613c7.0941,0 13.94358,0.73387 20.54844,2.44624c-1.95699,-8.0726 -2.69087,-16.38983 -2.44624,-24.95168c2.44624,-45.01087 39.13989,-79.74752 83.90613,-79.74752c46.47862,0 84.15076,37.67214 84.15076,84.15076zm-152.15631,-86.597l-18.34682,13.20971l-119.8659,-127.69388c-9.0511,-9.78497 -24.70705,1.46775 -18.34682,13.20971l84.39538,153.62406l-18.1022,13.20971c-45.74474,33.2689 -106.65619,37.42752 -156.55955,10.51884l-180.28811,-96.38197c-66.53781,-35.71515 -103.47608,-100.78521 -101.76371,-179.06498l6.60486,-301.62176c0.48925,-24.95168 14.92208,-49.90336 38.16139,-66.78243c0.48925,-0.48925 1.22312,-0.9785 1.71237,-1.22312c0.48925,-0.48925 1.22312,-0.9785 1.71237,-1.22312c23.23931,-17.1237 51.61573,-22.99468 75.34428,-15.65595l289.14592,86.84162c74.61041,22.50544 125.24764,77.79053 138.45735,151.91169l36.2044,201.57042c10.0296,55.77434 -12.72046,112.28255 -58.46521,145.55146l0,-0.00001zm1140.92771,520.07125c-41.34151,117.41966 -101.27446,227.01135 -178.33111,325.59494c-73.38729,93.6911 -159.98429,174.90637 -258.07863,241.6888l8.56185,26.66405c2.44624,7.58335 -6.60486,13.45434 -12.47584,8.31723l-21.03769,-18.59145c-95.15885,61.64532 -198.63493,108.36856 -307.24811,138.9466c-11.49734,3.42474 -23.23931,-3.42474 -26.41942,-14.67746c-3.18012,-11.25272 3.18012,-22.75006 14.18821,-26.1748c100.29596,-31.06729 193.00857,-77.5459 276.18083,-136.01111l-74.61041,-65.31469c-63.84694,-56.01896 -111.30405,-128.18313 -137.23423,-209.15377l-56.50821,-175.88487c-2.44624,-7.33873 6.60486,-13.20971 12.47584,-8.0726l138.9466,121.8229c63.84694,56.01896 111.30405,128.18313 137.23423,208.90915l29.11029,90.75561c235.81782,-187.38221 382.83702,-477.01738 382.83702,-790.13647c0,-556.03102 -452.31032,-1008.34134 -1008.34134,-1008.34134s-1008.34134,452.31032 -1008.34134,1008.34134c0,318.74546 152.40094,613.02848 395.55748,800.16607l32.29041,-100.78521c25.93018,-80.72602 73.38729,-152.89018 137.23423,-208.90915l138.9466,-121.8229c5.87098,-5.13711 14.92208,0.73387 12.47584,8.0726l-56.50821,175.88487c-25.93018,80.97064 -73.38729,153.13481 -137.23423,209.15377l-81.70451,71.43029c80.97064,55.77434 170.50313,99.80671 267.12973,129.8955c11.00809,3.42474 17.36832,14.92208 14.18821,25.93018c-3.18012,11.49734 -14.92208,18.1022 -26.1748,14.92208c-105.43307,-29.59954 -205.23978,-74.36579 -297.95239,-133.07562l-14.43283,12.72046c-5.87098,5.13711 -14.92208,-0.73387 -12.47584,-8.31723l5.62636,-17.85757c-0.24462,-0.24462 -0.48925,-0.24462 -0.73387,-0.48925c-103.23145,-68.25018 -194.23169,-152.40094 -270.30985,-250.00603c-77.30128,-98.58359 -137.23423,-208.17527 -178.33111,-325.59494c-42.80925,-121.57827 -64.33619,-249.27216 -64.33619,-379.16766c0,-154.60255 30.33341,-304.55725 90.02174,-445.95009c57.48671,-136.25573 140.16972,-258.8125 245.35817,-363.75633c105.18845,-105.18845 227.50059,-187.87146 364.00095,-245.60279c141.14822,-59.68833 291.10291,-89.77712 445.70547,-89.77712c154.60255,0 304.55725,30.08879 445.70547,89.77712c136.25573,57.73133 258.8125,140.41435 364.00095,245.60279c105.18845,104.94382 187.62683,227.50059 245.35817,363.75633c59.68833,141.39284 90.02174,291.34754 90.02174,445.95009c0,129.8955 -21.77156,257.58938 -64.33619,379.16766l-0.00004,0.00002z" fill="#7C693A" id="svg_3" stroke="null"/>
  </g>
 </g>

</svg>