<svg width="1185" height="1506" xmlns="http://www.w3.org/2000/svg" xml:space="preserve" version="1.1">
 <defs>
  <linearGradient y2="0%" x2="100%" y1="0%" x1="0%" id="grad1">
   <stop stop-color="#90A8D1" offset="0%"/>
   <stop stop-color="#90A8D1" offset="100%"/>
  </linearGradient>
 </defs>
 <g>
  <title>Layer 1</title>
  <g id="svg_1">
   <path id="svg_2" d="m408.30912,386.51619c0,-100.1 81.2,-181.3 181.3,-181.3l0,0c100.1,0 181.3,81.2 181.3,181.3l0,223.9l202.6,0l0,-223.9c0,-212 -171.9,-383.9 -383.9,-383.9l0,0c-212,0 -383.9,171.9 -383.9,383.9l0,223.9l202.6,0l0,-223.9z" fill="url(#grad1)"/>
   <path id="svg_3" d="m1045.20912,659.71619l-911.1,0c-74.8,0 -135.5,60.7 -135.5,135.5l0,569.9c0,74.8 60.7,135.5 135.5,135.5l911.1,0c74.8,0 135.5,-60.7 135.5,-135.5l0,-569.9c0,-74.9 -60.7,-135.5 -135.5,-135.5z" fill="url(#grad1)"/>
  </g>
 </g>
</svg>