<svg width="2709" height="2818.0000000000005" xmlns="http://www.w3.org/2000/svg" xml:space="preserve" version="1.1">

 <g>
  <title>Layer 1</title>
  <g stroke="null" id="svg_1">
   <path stroke="null" id="svg_2" fill="#A8CBEF" d="m1376.74378,2467.52948c16.44301,-16.44301 24.66452,-36.99677 24.66452,-60.29104l0,-1.37025c0,-21.92401 -9.59176,-43.84803 -24.66452,-60.29104l-10.96201,-10.96201c-16.44301,-16.44301 -36.99677,-24.66452 -60.29104,-24.66452l-1.37025,0c-21.92401,0 -43.84803,9.59176 -60.29104,24.66452l-46.58853,46.58853l-141.13584,141.13584c-16.44301,16.44301 -24.66452,38.36702 -24.66452,60.29104c0,10.96201 2.7405,23.29427 6.85125,32.88602c4.11075,10.96201 10.96201,20.55376 19.18351,27.40502l10.96201,10.96201c16.44301,16.44301 38.36702,24.66452 60.29104,24.66452c10.96201,0 21.92401,-2.7405 32.88602,-6.85125s20.55376,-10.96201 27.40502,-19.18351l187.72437,-184.98387z" class="st0"/>
   <path stroke="null" id="svg_3" fill="#A8CBEF" d="m1257.53196,2252.40009c10.96201,-10.96201 19.18351,-26.03477 23.29427,-42.47778c1.37025,-6.85125 2.7405,-12.33226 2.7405,-19.18351c0,-23.29427 -9.59176,-45.21828 -24.66452,-60.29104l-10.96201,-10.96201c-16.44301,-16.44301 -38.36702,-24.66452 -60.29104,-24.66452c-6.85125,0 -12.33226,1.37025 -19.18351,2.7405c-15.07276,4.11075 -30.14552,10.96201 -42.47778,23.29427l-235.68315,235.68315c-16.44301,16.44301 -24.66452,38.36702 -24.66452,60.29104l0,0c0,23.29427 9.59176,45.21828 24.66452,60.29104l10.96201,10.96201c16.44301,16.44301 38.36702,24.66452 60.29104,24.66452l0,0c23.29427,0 45.21828,-9.59176 60.29104,-24.66452l235.68315,-235.68315z" class="st0"/>
   <path stroke="null" id="svg_4" fill="#A8CBEF" d="m2261.92586,2192.10905l-711.16021,-711.16021l0,0c0,28.77527 -10.96201,56.18029 -31.51577,76.73405l-126.06308,126.06308c-24.66452,24.66452 -57.55054,38.36702 -91.80681,38.36702c-17.81326,0 -34.25627,-2.7405 -49.32903,-9.59176c-15.07276,-6.85125 -30.14552,-16.44301 -42.47778,-27.40502l-10.96201,-10.96201c-24.66452,-24.66452 -38.36702,-57.55054 -38.36702,-91.80681c0,-17.81326 4.11075,-34.25627 9.59176,-49.32903c6.85125,-15.07276 16.44301,-30.14552 27.40502,-42.47778l46.58853,-46.58853c20.55376,-20.55376 31.51577,-47.95878 31.51577,-76.73405l0,-82.21505c0,-28.77527 10.96201,-56.18029 31.51577,-76.73405l-1.37025,-1.37025l-75.3638,0l-205.53763,-205.53763l-541.2491,541.2491l204.16738,205.53763c0,27.40502 10.96201,53.43978 30.14552,72.6233l87.69606,87.69606c24.66452,24.66452 38.36702,57.55054 38.36702,91.80681l31.51577,-31.51577c24.66452,-24.66452 57.55054,-38.36702 91.80681,-38.36702c17.81326,0 34.25627,4.11075 49.32903,9.59176c15.07276,6.85125 30.14552,16.44301 42.47778,27.40502l10.96201,10.96201c24.66452,24.66452 38.36702,57.55054 38.36702,91.80681l0,0l1.37025,1.37025c53.43978,-39.73728 130.17383,-35.62652 179.50287,13.70251c27.40502,27.40502 39.73728,61.66129 39.73728,97.28781c0,28.77527 -9.59176,57.55054 -27.40502,82.21505l1.37025,1.37025l0,0c34.25627,0 67.14229,13.70251 91.80681,38.36702l10.96201,10.96201c24.66452,24.66452 38.36702,57.55054 38.36702,91.80681c0,34.25627 -13.70251,67.14229 -38.36702,91.80681l-54.81004,54.81004l134.28459,134.28459c16.44301,16.44301 38.36702,24.66452 60.29104,24.66452c23.29427,0 45.21828,-9.59176 60.29104,-24.66452l10.96201,-10.96201c16.44301,-16.44301 24.66452,-38.36702 24.66452,-60.29104c0,-10.96201 -2.7405,-23.29427 -6.85125,-32.88602c-4.11075,-10.96201 -10.96201,-19.18351 -19.18351,-27.40502l-106.87957,-106.87957l34.25627,-34.25627l171.28136,171.28136c16.44301,16.44301 38.36702,24.66452 60.29104,24.66452l0,0c23.29427,0 45.21828,-9.59176 60.29104,-24.66452l10.96201,-10.96201c16.44301,-16.44301 24.66452,-38.36702 24.66452,-60.29104l0,0c0,-23.29427 -9.59176,-45.21828 -24.66452,-61.66129l-171.28136,-171.28136l34.25627,-34.25627l209.64839,209.64839c16.44301,16.44301 38.36702,24.66452 60.29104,24.66452c23.29427,0 45.21828,-9.59176 60.29104,-24.66452l10.96201,-10.96201c16.44301,-16.44301 24.66452,-36.99677 24.66452,-60.29104l0,-1.37025c0,-21.92401 -8.22151,-43.84803 -24.66452,-60.29104l-209.64839,-209.64839l34.25627,-34.25627l248.01541,248.01541c16.44301,16.44301 38.36702,24.66452 60.29104,24.66452l0,0c23.29427,0 45.21828,-9.59176 60.29104,-24.66452l9.59176,-9.59176c16.44301,-16.44301 26.03477,-38.36702 26.03477,-61.66129c0,-10.96201 -2.7405,-23.29427 -6.85125,-32.88602c5.481,-15.07276 -1.37025,-24.66452 -9.59176,-32.88602z" class="st0"/>
   <path stroke="null" id="svg_5" fill="#A8CBEF" d="m1042.40257,2133.18826c16.44301,-16.44301 24.66452,-38.36702 24.66452,-60.29104s-9.59176,-45.21828 -24.66452,-60.29104l-10.96201,-10.96201c-16.44301,-16.44301 -38.36702,-24.66452 -60.29104,-24.66452c-23.29427,0 -45.21828,9.59176 -60.29104,24.66452l-187.72437,187.72437c-16.44301,16.44301 -24.66452,38.36702 -24.66452,60.29104c0,23.29427 9.59176,45.21828 24.66452,60.29104l10.96201,10.96201c16.44301,16.44301 38.36702,24.66452 60.29104,24.66452c23.29427,0 45.21828,-9.59176 60.29104,-24.66452l187.72437,-187.72437z" class="st0"/>
   <path stroke="null" id="svg_6" fill="#FFFFFF" d="m483.3402,1887.91335c-13.70251,0 -26.03477,12.33226 -26.03477,26.03477c0,13.70251 12.33226,26.03477 26.03477,26.03477c13.70251,0 26.03477,-12.33226 26.03477,-26.03477c0,-13.70251 -10.96201,-26.03477 -26.03477,-26.03477z" class="st1"/>
   <path stroke="null" id="svg_7" fill="#A8CBEF" d="m777.94414,2061.93522c16.44301,-16.44301 24.66452,-38.36702 24.66452,-60.29104c0,-23.29427 -9.59176,-45.21828 -24.66452,-60.29104l-10.96201,-10.96201c-16.44301,-16.44301 -38.36702,-24.66452 -60.29104,-24.66452c-23.29427,0 -45.21828,9.59176 -60.29104,24.66452l-91.80681,91.80681c-16.44301,16.44301 -24.66452,38.36702 -24.66452,60.29104c0,10.96201 2.7405,23.29427 6.85125,32.88602c4.11075,10.96201 10.96201,19.18351 19.18351,27.40502l10.96201,10.96201c16.44301,16.44301 38.36702,24.66452 60.29104,24.66452l0,0c23.29427,0 45.21828,-9.59176 60.29104,-24.66452l90.43656,-91.80681z" class="st0"/>
   <path stroke="null" id="svg_8" fill="#FFFFFF" d="m2224.92909,1709.78074c-28.77527,0 -50.69928,21.92401 -50.69928,50.69928c0,27.40502 23.29427,50.69928 50.69928,50.69928c27.40502,0 50.69928,-23.29427 50.69928,-50.69928c0,-28.77527 -21.92401,-50.69928 -50.69928,-50.69928z" class="st1"/>
   <path stroke="null" id="svg_9" fill="#FFFFFF" d="m2379.76744,1863.24884c-28.77527,0 -50.69928,23.29427 -50.69928,50.69928c0,27.40502 23.29427,50.69928 50.69928,50.69928c27.40502,0 50.69928,-23.29427 50.69928,-50.69928c0,-27.40502 -21.92401,-50.69928 -50.69928,-50.69928z" class="st1"/>
   <path stroke="null" id="svg_10" fill="#FFFFFF" d="m2534.60579,1838.58432c-41.10753,0 -76.73405,34.25627 -76.73405,76.73405c0,42.47778 34.25627,76.73405 76.73405,76.73405c42.47778,0 76.73405,-34.25627 76.73405,-76.73405c0,-42.47778 -34.25627,-76.73405 -76.73405,-76.73405z" class="st1"/>
   <path stroke="null" id="svg_11" fill="#FFFFFF" d="m2250.96385,1913.94812c0,-13.70251 -12.33226,-26.03477 -26.03477,-26.03477c-15.07276,0 -26.03477,12.33226 -26.03477,26.03477c0,13.70251 12.33226,26.03477 26.03477,26.03477c15.07276,0 26.03477,-10.96201 26.03477,-26.03477z" class="st1"/>
   <path stroke="null" id="svg_12" fill="#FFFFFF" d="m2379.76744,1698.81873c-34.25627,0 -60.29104,27.40502 -60.29104,60.29104c0,34.25627 27.40502,60.29104 60.29104,60.29104c34.25627,0 60.29104,-27.40502 60.29104,-60.29104c1.37025,-32.88602 -26.03477,-60.29104 -60.29104,-60.29104zm0,101.39857c-21.92401,0 -41.10753,-17.81326 -41.10753,-41.10753c0,-23.29427 17.81326,-41.10753 41.10753,-41.10753c21.92401,0 41.10753,19.18351 41.10753,41.10753c0,23.29427 -19.18351,41.10753 -41.10753,41.10753z" class="st1"/>
   <polygon stroke="null" id="svg_13" fill="#FFFFFF" points="1280.825927734375,721.8294792175293 1595.983642578125,406.6717948913574 1523.361328125,334.04951095581055 1280.825927734375,575.2133903503418 1179.427001953125,475.1843681335449 1106.8046875,547.8083000183105 " class="st1"/>
   <path stroke="null" id="svg_14" fill="#FFFFFF" d="m173.6635,1838.58432c-42.47778,0 -76.73405,34.25627 -76.73405,76.73405c0,42.47778 34.25627,76.73405 76.73405,76.73405c41.10753,0 76.73405,-34.25627 76.73405,-76.73405c0,-42.47778 -34.25627,-76.73405 -76.73405,-76.73405z" class="st1"/>
   <path stroke="null" id="svg_15" fill="#A8CBEF" d="m1667.23697,980.80726l-138.39534,138.39534c-45.21828,0 -89.06631,17.81326 -121.95233,50.69928l-56.18029,56.18029c-20.55376,20.55376 -31.51577,47.95878 -31.51577,76.73405l0,82.21505c0,28.77527 -10.96201,56.18029 -31.51577,76.73405l-58.92079,58.92079c-16.44301,16.44301 -24.66452,38.36702 -24.66452,60.29104c0,23.29427 9.59176,45.21828 24.66452,60.29104l12.33226,12.33226c15.07276,15.07276 36.99677,24.66452 58.92079,23.29427c10.96201,0 23.29427,-2.7405 32.88602,-6.85125c10.96201,-4.11075 19.18351,-10.96201 27.40502,-19.18351l113.73082,-113.73082c20.55376,-20.55376 31.51577,-47.95878 31.51577,-76.73405l0,-86.32581l479.58781,479.58781l54.81004,-53.43978c32.88602,-31.51577 50.69928,-75.3638 50.69928,-120.58208l138.39534,-138.39534l-561.80287,-560.43262z" class="st0"/>
   <polygon stroke="null" id="svg_16" fill="#A8CBEF" points="1696.0125732421875,947.9208488464355 2261.925048828125,1515.2050285339355 2338.660400390625,1515.2050285339355 2508.5703125,1345.2936515808105 1865.9239501953125,702.6457023620605 1696.0125732421875,872.5570793151855 " class="st0"/>
   <path stroke="null" id="svg_17" fill="#FFFFFF" d="m328.50185,1698.81873c-34.25627,0 -60.29104,27.40502 -60.29104,60.29104c0,34.25627 27.40502,60.29104 60.29104,60.29104c34.25627,0 60.29104,-27.40502 60.29104,-60.29104c0,-32.88602 -26.03477,-60.29104 -60.29104,-60.29104zm0,101.39857c-21.92401,0 -41.10753,-17.81326 -41.10753,-41.10753c0,-21.92401 19.18351,-41.10753 41.10753,-41.10753c23.29427,0 41.10753,17.81326 41.10753,41.10753c-1.37025,23.29427 -19.18351,41.10753 -41.10753,41.10753z" class="st1"/>
   <path stroke="null" id="svg_18" fill="#FFFFFF" d="m534.03948,1760.48002c0,-28.77527 -21.92401,-50.69928 -50.69928,-50.69928c-27.40502,0 -50.69928,23.29427 -50.69928,50.69928c0,27.40502 23.29427,50.69928 50.69928,50.69928c27.40502,0 50.69928,-23.29427 50.69928,-50.69928z" class="st1"/>
   <path stroke="null" id="svg_19" fill="#FFFFFF" d="m328.50185,1863.24884c-27.40502,0 -50.69928,23.29427 -50.69928,50.69928c0,27.40502 23.29427,50.69928 50.69928,50.69928c27.40502,0 50.69928,-23.29427 50.69928,-50.69928c0,-27.40502 -21.92401,-50.69928 -50.69928,-50.69928z" class="st1"/>
   <path stroke="null" id="svg_20" fill="#FFCF61" d="m1350.70902,957.513c237.0534,0 428.88853,-191.83512 428.88853,-428.88853s-191.83512,-428.88853 -428.88853,-428.88853s-430.25878,191.83512 -430.25878,428.88853s193.20538,428.88853 430.25878,428.88853zm-241.16416,-671.42294c64.40179,-64.40179 149.35735,-100.02832 241.16416,-100.02832c90.43656,0 176.76237,35.62652 241.16416,100.02832c64.40179,64.40179 100.02832,149.35735 100.02832,241.16416s-35.62652,176.76237 -100.02832,241.16416c-64.40179,64.40179 -149.35735,100.02832 -241.16416,100.02832c-90.43656,0 -176.76237,-35.62652 -241.16416,-100.02832c-64.40179,-64.40179 -100.02832,-149.35735 -100.02832,-241.16416s35.62652,-176.76237 100.02832,-241.16416z" class="st2"/>
   <polygon stroke="null" id="svg_21" fill="#A8CBEF" points="1009.5171508789062,883.5197257995605 839.6057739257812,713.6083488464355 196.95777893066406,1356.2562980651855 366.86920166015625,1526.167797088623 443.6029052734375,1526.167797088623 1009.5171508789062,958.8834953308105 " class="st0"/>
   <path stroke="null" id="svg_22" fill="#44679A" d="m1109.54486,768.41837c64.40179,64.40179 149.35735,100.02832 241.16416,100.02832c90.43656,0 176.76237,-35.62652 241.16416,-100.02832c64.40179,-64.40179 100.02832,-149.35735 100.02832,-241.16416s-35.62652,-176.76237 -100.02832,-241.16416c-64.40179,-64.40179 -149.35735,-100.02832 -241.16416,-100.02832c-90.43656,0 -176.76237,35.62652 -241.16416,100.02832c-64.40179,64.40179 -100.02832,149.35735 -100.02832,241.16416s35.62652,176.76237 100.02832,241.16416zm69.8828,-293.23369l101.39857,101.39857l242.53441,-242.53441l72.6233,72.6233l-315.15771,315.15771l-174.02186,-174.02186l72.6233,-72.6233z" class="st3"/>
   <path stroke="null" id="svg_23" fill="#44679A" d="m328.50185,1719.37249c-21.92401,0 -41.10753,19.18351 -41.10753,41.10753c0,21.92401 19.18351,41.10753 41.10753,41.10753c21.92401,0 41.10753,-17.81326 41.10753,-41.10753c-1.37025,-23.29427 -19.18351,-41.10753 -41.10753,-41.10753z" class="st3"/>
   <path stroke="null" id="svg_24" fill="#44679A" d="m2534.60579,1764.59077c-6.85125,0 -13.70251,0 -20.55376,1.37025c0,-2.7405 0,-4.11075 0,-6.85125c0,-73.99355 -60.29104,-132.91434 -132.91434,-132.91434c-32.88602,0 -63.03154,12.33226 -86.32581,31.51577c-16.44301,-10.96201 -35.62652,-17.81326 -56.18029,-20.55376l49.32903,-49.32903l80.8448,0l242.53441,-242.53441l-745.41649,-745.41649l-20.55376,20.55376c5.481,-30.14552 8.22151,-61.66129 8.22151,-93.17706c0,-276.79068 -224.72115,-502.88208 -502.88208,-502.88208c-276.79068,0 -502.88208,224.72115 -502.88208,502.88208c0,35.62652 4.11075,69.8828 10.96201,102.76882l-19.18351,-19.18351l-745.41649,745.41649l242.53441,242.53441l101.39857,0l38.36702,38.36702c-23.29427,1.37025 -45.21828,8.22151 -63.03154,20.55376c-23.29427,-19.18351 -53.43978,-31.51577 -86.32581,-31.51577c-73.99355,0 -134.28459,60.29104 -134.28459,132.91434c0,2.7405 0,4.11075 0,6.85125c-6.85125,-1.37025 -13.70251,-1.37025 -20.55376,-1.37025c-82.21505,0 -149.35735,67.14229 -149.35735,149.35735s67.14229,149.35735 149.35735,149.35735c38.36702,0 73.99355,-15.07276 100.02832,-38.36702c16.44301,8.22151 34.25627,12.33226 54.81004,12.33226c38.36702,0 72.6233,-17.81326 94.54731,-45.21828c13.70251,10.96201 30.14552,17.81326 49.32903,19.18351c-9.59176,20.55376 -15.07276,43.84803 -15.07276,68.51254c0,42.47778 16.44301,82.21505 46.58853,112.36057l10.96201,10.96201c30.14552,30.14552 68.51254,46.58853 109.62007,46.58853c0,41.10753 16.44301,80.8448 46.58853,109.62007l10.96201,10.96201c28.77527,28.77527 68.51254,45.21828 109.62007,46.58853l0,36.99677l5.481,4.11075c6.85125,26.03477 20.55376,49.32903 41.10753,69.8828l10.96201,10.96201c19.18351,19.18351 43.84803,32.88602 69.8828,41.10753l4.11075,5.481l36.99677,0c0,20.55376 4.11075,39.73728 12.33226,58.92079c8.22151,19.18351 19.18351,36.99677 34.25627,52.06953l10.96201,10.96201c30.14552,30.14552 69.8828,46.58853 112.36057,46.58853c20.55376,0 41.10753,-4.11075 60.29104,-12.33226c19.18351,-8.22151 36.99677,-19.18351 52.06953,-34.25627l82.21505,-82.21505l113.73082,113.73082c30.14552,30.14552 69.8828,46.58853 112.36057,46.58853s82.21505,-16.44301 112.36057,-46.58853l10.96201,-10.96201c17.81326,-17.81326 30.14552,-38.36702 38.36702,-61.66129c21.92401,10.96201 45.21828,16.44301 69.8828,16.44301c42.47778,0 82.21505,-16.44301 112.36057,-46.58853l10.96201,-10.96201c21.92401,-21.92401 35.62652,-47.95878 42.47778,-76.73405c12.33226,2.7405 26.03477,5.481 39.73728,5.481c42.47778,0 82.21505,-16.44301 112.36057,-46.58853l10.96201,-10.96201c21.92401,-21.92401 35.62652,-47.95878 42.47778,-76.73405c2.7405,0 4.11075,1.37025 6.85125,1.37025l4.11075,4.11075l30.14552,0c42.47778,0 82.21505,-16.44301 112.36057,-46.58853l9.59176,-9.59176c30.14552,-30.14552 46.58853,-69.8828 47.95878,-112.36057l0,-1.37025c0,-41.10753 -16.44301,-82.21505 -46.58853,-112.36057l-146.61685,-146.61685c16.44301,12.33226 36.99677,19.18351 58.92079,19.18351c21.92401,0 43.84803,-8.22151 60.29104,-20.55376c23.29427,27.40502 57.55054,45.21828 94.54731,45.21828c19.18351,0 38.36702,-4.11075 54.81004,-12.33226c26.03477,23.29427 61.66129,38.36702 100.02832,38.36702c82.21505,0 149.35735,-67.14229 149.35735,-149.35735s-71.25305,-152.09785 -153.4681,-152.09785zm0,226.0914c-41.10753,0 -76.73405,-34.25627 -76.73405,-76.73405c0,-41.10753 34.25627,-76.73405 76.73405,-76.73405c42.47778,0 76.73405,34.25627 76.73405,76.73405c0,42.47778 -34.25627,76.73405 -76.73405,76.73405zm-154.83835,-26.03477c-27.40502,0 -50.69928,-23.29427 -50.69928,-50.69928c0,-27.40502 21.92401,-50.69928 50.69928,-50.69928c27.40502,0 50.69928,23.29427 50.69928,50.69928c0,28.77527 -21.92401,50.69928 -50.69928,50.69928zm0,-143.87634c-34.25627,0 -60.29104,-27.40502 -60.29104,-60.29104c0,-34.25627 27.40502,-60.29104 60.29104,-60.29104c34.25627,0 60.29104,27.40502 60.29104,60.29104c1.37025,32.88602 -26.03477,60.29104 -60.29104,60.29104zm-180.87312,93.17706c0,-13.70251 10.96201,-26.03477 26.03477,-26.03477c13.70251,0 26.03477,12.33226 26.03477,26.03477c0,13.70251 -12.33226,26.03477 -26.03477,26.03477c-13.70251,0 -26.03477,-10.96201 -26.03477,-26.03477zm26.03477,-102.76882c-27.40502,0 -50.69928,-23.29427 -50.69928,-50.69928c0,-28.77527 21.92401,-50.69928 50.69928,-50.69928c27.40502,0 50.69928,23.29427 50.69928,50.69928c0,27.40502 -21.92401,50.69928 -50.69928,50.69928zm36.99677,504.25233l-9.59176,9.59176c-16.44301,16.44301 -38.36702,24.66452 -60.29104,24.66452l0,0c-23.29427,0 -45.21828,-9.59176 -60.29104,-24.66452l-248.01541,-248.01541l-34.25627,34.25627l209.64839,209.64839c16.44301,16.44301 24.66452,36.99677 24.66452,60.29104l0,1.37025c0,21.92401 -9.59176,43.84803 -24.66452,60.29104l-10.96201,10.96201c-16.44301,16.44301 -38.36702,24.66452 -60.29104,24.66452c-23.29427,0 -45.21828,-9.59176 -60.29104,-24.66452l-209.64839,-209.64839l-34.25627,34.25627l171.28136,171.28136c16.44301,16.44301 24.66452,38.36702 24.66452,61.66129l0,0c0,23.29427 -9.59176,43.84803 -24.66452,60.29104l-10.96201,10.96201c-16.44301,16.44301 -38.36702,24.66452 -60.29104,24.66452l0,0c-23.29427,0 -45.21828,-9.59176 -60.29104,-24.66452l-171.28136,-171.28136l-34.25627,34.25627l106.87957,106.87957c8.22151,8.22151 13.70251,17.81326 19.18351,27.40502c4.11075,10.96201 6.85125,21.92401 6.85125,32.88602c0,23.29427 -9.59176,45.21828 -24.66452,60.29104l-10.96201,10.96201c-16.44301,16.44301 -38.36702,24.66452 -60.29104,24.66452c-23.29427,0 -45.21828,-9.59176 -60.29104,-24.66452l-134.28459,-134.28459l54.81004,-54.81004c24.66452,-24.66452 38.36702,-57.55054 38.36702,-91.80681c0,-34.25627 -13.70251,-67.14229 -38.36702,-91.80681l-10.96201,-10.96201c-24.66452,-24.66452 -57.55054,-38.36702 -91.80681,-38.36702l0,0l-1.37025,-1.37025c17.81326,-24.66452 27.40502,-53.43978 27.40502,-82.21505c0,-35.62652 -13.70251,-69.8828 -39.73728,-97.28781c-49.32903,-49.32903 -124.69283,-53.43978 -179.50287,-13.70251l-1.37025,-1.37025l0,0c0,-34.25627 -13.70251,-67.14229 -38.36702,-91.80681l-10.96201,-10.96201c-12.33226,-12.33226 -26.03477,-21.92401 -42.47778,-27.40502c-15.07276,-6.85125 -32.88602,-9.59176 -49.32903,-9.59176c-34.25627,0 -67.14229,13.70251 -91.80681,38.36702l-31.51577,31.51577c0,-34.25627 -13.70251,-68.51254 -38.36702,-91.80681l-87.69606,-87.69606c-19.18351,-19.18351 -30.14552,-45.21828 -30.14552,-72.6233l-204.16738,-205.53763l541.2491,-541.2491l205.53763,205.53763l75.3638,0l1.37025,1.37025c-20.55376,20.55376 -31.51577,47.95878 -31.51577,76.73405l0,82.21505c0,28.77527 -10.96201,56.18029 -31.51577,76.73405l-46.58853,46.58853c-12.33226,12.33226 -21.92401,26.03477 -27.40502,42.47778c-6.85125,15.07276 -9.59176,32.88602 -9.59176,49.32903c0,34.25627 13.70251,67.14229 38.36702,91.80681l10.96201,10.96201c12.33226,12.33226 26.03477,21.92401 42.47778,27.40502c15.07276,6.85125 32.88602,9.59176 49.32903,9.59176c34.25627,0 67.14229,-13.70251 91.80681,-38.36702l126.06308,-126.06308c20.55376,-20.55376 31.51577,-47.95878 31.51577,-76.73405l0,0l711.16021,711.16021c8.22151,8.22151 13.70251,17.81326 19.18351,27.40502c4.11075,10.96201 6.85125,21.92401 6.85125,32.88602c-10.96201,27.40502 -20.55376,50.69928 -35.62652,67.14229zm-1133.19749,364.48674c-23.29427,0 -45.21828,-9.59176 -60.29104,-24.66452l-10.96201,-10.96201c-8.22151,-8.22151 -13.70251,-17.81326 -19.18351,-27.40502c-4.11075,-10.96201 -6.85125,-21.92401 -6.85125,-32.88602c0,-23.29427 9.59176,-45.21828 24.66452,-60.29104l141.13584,-141.13584l46.58853,-46.58853c16.44301,-16.44301 36.99677,-24.66452 60.29104,-24.66452l1.37025,0c21.92401,0 43.84803,9.59176 60.29104,24.66452l10.96201,10.96201c16.44301,16.44301 24.66452,36.99677 24.66452,60.29104l0,1.37025c0,21.92401 -9.59176,43.84803 -24.66452,60.29104l-187.72437,187.72437c-8.22151,8.22151 -17.81326,13.70251 -27.40502,19.18351s-21.92401,4.11075 -32.88602,4.11075zm-167.17061,-167.17061c-23.29427,0 -45.21828,-9.59176 -60.29104,-24.66452l-10.96201,-10.96201c-16.44301,-16.44301 -24.66452,-38.36702 -24.66452,-60.29104l0,0c0,-23.29427 9.59176,-45.21828 24.66452,-60.29104l235.68315,-235.68315c10.96201,-10.96201 26.03477,-19.18351 42.47778,-23.29427c6.85125,-1.37025 12.33226,-2.7405 19.18351,-2.7405c23.29427,0 45.21828,9.59176 60.29104,24.66452l10.96201,10.96201c16.44301,16.44301 24.66452,38.36702 24.66452,60.29104c0,6.85125 -1.37025,12.33226 -2.7405,19.18351c-4.11075,16.44301 -10.96201,30.14552 -23.29427,42.47778l-235.68315,235.68315c-16.44301,15.07276 -38.36702,24.66452 -60.29104,24.66452l0,0zm-168.54086,-167.17061c-23.29427,0 -45.21828,-9.59176 -60.29104,-24.66452l-10.96201,-10.96201c-16.44301,-16.44301 -24.66452,-38.36702 -24.66452,-60.29104c0,-23.29427 9.59176,-45.21828 24.66452,-60.29104l187.72437,-187.72437c16.44301,-16.44301 38.36702,-24.66452 60.29104,-24.66452c23.29427,0 45.21828,9.59176 60.29104,24.66452l10.96201,10.96201c16.44301,16.44301 24.66452,38.36702 24.66452,60.29104s-9.59176,45.21828 -24.66452,60.29104l-187.72437,187.72437c-15.07276,15.07276 -36.99677,24.66452 -60.29104,24.66452zm-167.17061,-167.17061c-23.29427,0 -45.21828,-9.59176 -60.29104,-24.66452l-10.96201,-10.96201c-8.22151,-8.22151 -13.70251,-17.81326 -19.18351,-27.40502c-4.11075,-10.96201 -6.85125,-21.92401 -6.85125,-32.88602c0,-23.29427 9.59176,-45.21828 24.66452,-60.29104l91.80681,-91.80681c16.44301,-16.44301 38.36702,-24.66452 60.29104,-24.66452c23.29427,0 45.21828,9.59176 60.29104,24.66452l10.96201,10.96201c16.44301,16.44301 24.66452,38.36702 24.66452,60.29104c0,23.29427 -9.59176,45.21828 -24.66452,60.29104l-91.80681,91.80681c-13.70251,15.07276 -35.62652,24.66452 -58.92079,24.66452l0,0zm-142.50609,-238.42366c-13.70251,0 -26.03477,-12.33226 -26.03477,-26.03477c0,-13.70251 12.33226,-26.03477 26.03477,-26.03477c15.07276,0 26.03477,12.33226 26.03477,26.03477c0,15.07276 -12.33226,26.03477 -26.03477,26.03477zm0,-128.80358c-27.40502,0 -50.69928,-23.29427 -50.69928,-50.69928c0,-27.40502 23.29427,-50.69928 50.69928,-50.69928c28.77527,0 50.69928,21.92401 50.69928,50.69928c0,27.40502 -23.29427,50.69928 -50.69928,50.69928zm-116.47133,-285.01219l-169.91111,-169.91111l642.64767,-642.64767l169.91111,169.91111l0,75.3638l-567.28387,567.28387l-75.3638,0zm983.84014,-1427.80143c237.0534,0 428.88853,191.83512 428.88853,428.88853s-191.83512,428.88853 -428.88853,428.88853s-430.25878,-191.83512 -430.25878,-428.88853s193.20538,-428.88853 430.25878,-428.88853zm515.21434,604.28064l642.64767,642.64767l-169.91111,169.91111l-75.3638,0l-567.28387,-567.28387l0,-75.3638l169.91111,-169.91111zm226.0914,978.35914c0,45.21828 -17.81326,89.06631 -50.69928,120.58208l-54.81004,53.43978l-479.58781,-479.58781l0,86.32581c0,28.77527 -10.96201,56.18029 -31.51577,76.73405l-113.73082,113.73082c-8.22151,8.22151 -17.81326,13.70251 -27.40502,19.18351c-10.96201,4.11075 -21.92401,6.85125 -32.88602,6.85125c-21.92401,0 -43.84803,-8.22151 -58.92079,-23.29427l-12.33226,-12.33226c-16.44301,-16.44301 -24.66452,-38.36702 -24.66452,-60.29104c0,-23.29427 9.59176,-45.21828 24.66452,-60.29104l58.92079,-58.92079c20.55376,-20.55376 31.51577,-47.95878 31.51577,-76.73405l0,-82.21505c0,-28.77527 10.96201,-56.18029 31.51577,-76.73405l56.18029,-56.18029c32.88602,-32.88602 76.73405,-50.69928 121.95233,-50.69928l138.39534,-138.39534l561.80287,561.80287l-138.39534,137.02509zm-1763.5129,283.64193c-27.40502,0 -50.69928,-23.29427 -50.69928,-50.69928c0,-27.40502 23.29427,-50.69928 50.69928,-50.69928c28.77527,0 50.69928,23.29427 50.69928,50.69928c0,28.77527 -23.29427,50.69928 -50.69928,50.69928zm0,-143.87634c-34.25627,0 -60.29104,-27.40502 -60.29104,-60.29104c0,-32.88602 27.40502,-60.29104 60.29104,-60.29104c34.25627,0 60.29104,27.40502 60.29104,60.29104c0,32.88602 -27.40502,60.29104 -60.29104,60.29104zm-154.83835,169.91111c-42.47778,0 -76.73405,-34.25627 -76.73405,-76.73405c0,-41.10753 34.25627,-76.73405 76.73405,-76.73405c41.10753,0 76.73405,34.25627 76.73405,76.73405c0,42.47778 -34.25627,76.73405 -76.73405,76.73405z" class="st3"/>
   <path stroke="null" id="svg_25" fill="#44679A" d="m2379.76744,1719.37249c-23.29427,0 -41.10753,17.81326 -41.10753,41.10753c0,21.92401 19.18351,41.10753 41.10753,41.10753c21.92401,0 41.10753,-17.81326 41.10753,-41.10753c0,-21.92401 -19.18351,-41.10753 -41.10753,-41.10753z" class="st3"/>
  </g>
 </g>
</svg>