<svg width="3000" height="2530" xmlns="http://www.w3.org/2000/svg" xml:space="preserve" version="1.1">

 <g>
  <title>Layer 1</title>
  <g stroke="null" id="svg_1">
   <path stroke="null" id="svg_2" fill="#44679A" d="m2933.66048,1946.96897l-1057.9017,-1721.33157c-80.68742,-134.47903 -224.13172,-215.16645 -376.54128,-215.16645s-295.85386,80.68742 -376.54128,215.16645l-1057.9017,1721.33157c-89.65269,152.40957 -71.72215,340.68021 53.79161,466.19397c71.72215,71.72215 161.37483,107.58322 268.95806,107.58322l2223.38661,0c98.61795,0 197.23591,-35.86107 268.95806,-107.58322c116.54849,-125.51376 143.4443,-313.7844 53.79161,-466.19397zm-215.16645,304.81913c-26.89581,26.89581 -62.75688,44.82634 -107.58322,44.82634l-2223.38661,0c-35.86107,0 -80.68742,-17.93054 -107.58322,-44.82634c-44.82634,-44.82634 -53.79161,-125.51376 -17.93054,-179.30537l1057.9017,-1721.33157c35.86107,-62.75688 107.58322,-98.61795 179.30537,-98.61795s143.4443,35.86107 179.30537,98.61795l1057.9017,1721.33157c35.86107,53.79161 26.89581,125.51376 -17.93054,179.30537z" class="st0"/>
   <path stroke="null" id="svg_3" fill="#44679A" d="m1956.4462,1713.87198c-8.96527,0 -26.89581,0 -35.86107,0c-53.79161,8.96527 -116.54849,-8.96527 -161.37483,-53.79161c-35.86107,-35.86107 -53.79161,-80.68742 -53.79161,-125.51376c0,-17.93054 0,-44.82634 8.96527,-62.75688c17.93054,-44.82634 26.89581,-89.65269 26.89581,-143.4443c0,-107.58322 -44.82634,-206.20118 -116.54849,-268.95806s-161.37483,-116.54849 -268.95806,-116.54849c-107.58322,0 -206.20118,44.82634 -268.95806,116.54849c-71.72215,71.72215 -116.54849,170.3401 -116.54849,286.8886c8.96527,206.20118 179.30537,367.57601 385.50655,367.57601c53.79161,0 98.61795,-8.96527 143.4443,-26.89581c62.75688,-26.89581 143.4443,-8.96527 197.23591,44.82634l0,0c44.82634,44.82634 62.75688,98.61795 53.79161,161.37483c0,8.96527 0,26.89581 0,35.86107c0,53.79161 26.89581,107.58322 62.75688,152.40957c35.86107,35.86107 89.65269,62.75688 152.40957,62.75688c53.79161,0 107.58322,-26.89581 152.40957,-62.75688c35.86107,-35.86107 62.75688,-89.65269 62.75688,-152.40957s-26.89581,-107.58322 -62.75688,-152.40957c-44.82634,-44.82634 -98.61795,-62.75688 -161.37483,-62.75688zm-457.2287,-251.02752c-35.86107,35.86107 -80.68742,53.79161 -134.47903,53.79161c-98.61795,0 -188.27064,-80.68742 -188.27064,-188.27064c0,-53.79161 17.93054,-98.61795 53.79161,-134.47903c35.86107,-35.86107 80.68742,-53.79161 134.47903,-53.79161c53.79161,0 98.61795,17.93054 134.47903,53.79161c35.86107,35.86107 53.79161,80.68742 53.79161,134.47903c0,53.79161 -26.89581,98.61795 -53.79161,134.47903z" class="st0"/>
   <path stroke="null" id="svg_4" fill="#44679A" d="m1364.73847,1292.50436c-8.96527,0 -17.93054,0 -26.89581,8.96527c-8.96527,8.96527 -8.96527,17.93054 -8.96527,26.89581c0,17.93054 17.93054,35.86107 35.86107,35.86107c8.96527,0 17.93054,0 26.89581,-8.96527c8.96527,-8.96527 8.96527,-17.93054 8.96527,-26.89581c0,-8.96527 0,-17.93054 -8.96527,-26.89581c-8.96527,-8.96527 -17.93054,-8.96527 -26.89581,-8.96527z" class="st0"/>
   <path stroke="null" id="svg_5" fill="#44679A" d="m1615.76599,682.86609l-170.3401,0l0,-17.93054c0,-8.96527 8.96527,-17.93054 8.96527,-17.93054l107.58322,-26.89581c26.89581,-8.96527 53.79161,-35.86107 53.79161,-62.75688l0,-35.86107c0,-35.86107 -26.89581,-71.72215 -71.72215,-71.72215l-89.65269,0c-35.86107,0 -71.72215,26.89581 -71.72215,71.72215l0,26.89581l53.79161,0l0,-26.89581c0,-8.96527 8.96527,-17.93054 17.93054,-17.93054l80.68742,0c8.96527,0 17.93054,8.96527 17.93054,17.93054l0,26.89581c0,8.96527 -8.96527,17.93054 -8.96527,17.93054l-107.58322,26.89581c-26.89581,8.96527 -53.79161,35.86107 -53.79161,62.75688l0,80.68742l224.13172,0l0,-53.79161l8.96527,0z" class="st0"/>
  </g>
 </g>
</svg>