<svg width="3000" height="2350" xmlns="http://www.w3.org/2000/svg" xml:space="preserve" version="1.1">

 <g>
  <title>Layer 1</title>
  <g stroke="null" id="svg_1">
   <path stroke="null" id="svg_2" fill="none" d="m822.64251,566.35181c-8.04667,-5.74762 -13.79429,-17.24286 -13.79429,-28.7381c0,-20.69143 13.79429,-35.63524 33.33619,-35.63524l0,0c-19.54191,0 -33.33619,14.94381 -33.33619,35.63524c0,12.64476 4.5981,22.99048 13.79429,28.7381z" class="st0"/>
   <path stroke="null" id="svg_3" fill="none" d="m1897.44736,1651.50238c77.0181,13.79429 148.28858,31.03715 212.66192,51.72858c-64.37334,-20.69143 -135.64382,-37.93429 -212.66192,-51.72858z" class="st0"/>
   <path stroke="null" id="svg_4" fill="none" d="m1537.64638,1618.16619c116.10191,1.14952 232.20383,10.34572 346.0067,29.88762c-113.80287,-18.39238 -229.90478,-28.7381 -346.0067,-29.88762z" class="st0"/>
   <path stroke="null" id="svg_5" fill="none" d="m541.00915,2118.20909c-33.33619,-17.24286 -62.07429,-41.38286 -81.6162,-68.97143c-19.54191,-27.58857 -29.88762,-55.17715 -29.88762,-82.76572c0,-37.93429 18.39238,-74.71905 50.57905,-109.20477c-33.33619,34.48572 -50.57905,71.27048 -50.57905,109.20477c0,27.58857 10.34572,55.17715 29.88762,82.76572c19.54191,28.7381 48.28,51.72858 81.6162,68.97143c232.20383,117.25144 559.81814,185.07335 900.07722,185.07335c13.79429,0 26.43905,0 39.08381,0c-12.64476,0 -26.43905,0 -39.08381,0c-339.10955,0 -667.87339,-67.82191 -900.07722,-185.07335z" class="st0"/>
   <path stroke="null" id="svg_6" fill="none" d="m1741.11211,785.91088l0,0c47.13048,-32.18667 101.1581,-48.28 156.33525,-48.28c0,0 0,0 0,0c-56.32667,0 -110.3543,16.09333 -156.33525,47.13048l-1.14952,1.14952l0,0c0,0 0,0 1.14952,0l0,0z" class="st0"/>
   <path stroke="null" id="svg_7" fill="none" d="m844.48346,1636.55857c-50.57905,12.64476 -97.70953,26.43905 -141.39144,42.53238c44.83143,-14.94381 91.96191,-29.88762 141.39144,-42.53238z" class="st0"/>
   <path stroke="null" id="svg_8" fill="none" d="m2335.41597,2120.50814c2.29905,-1.14952 3.44857,-1.14952 5.74762,-2.29905c0,0 0,0 0,0c0,0 0,0 0,0c-2.29905,1.14952 -3.44857,1.14952 -5.74762,2.29905z" class="st0"/>
   <path stroke="null" id="svg_9" fill="none" d="m893.91299,264.02702c47.13048,0 85.06477,36.78477 85.06477,83.91525c0,0 0,0 0,0c0,-47.13048 -36.78477,-85.06477 -85.06477,-83.91525c-47.13048,-1.14952 -85.06477,37.93429 -85.06477,83.91525c0,0 0,0 0,0c0,-45.98096 37.93429,-83.91525 85.06477,-83.91525z" class="st0"/>
   <path stroke="null" id="svg_10" fill="none" d="m981.2768,547.95943c-2.29905,-3.44857 -4.5981,-6.89714 -3.44857,-11.49524c0,-9.19619 8.04667,-17.24286 18.39238,-16.09333l63.22382,8.04667l0,-1.14952l-41.38286,-52.8781c-1.14952,-1.14952 -1.14952,-1.14952 -2.29905,-2.29905c0,0 0,1.14952 1.14952,1.14952l41.38286,52.8781l0,1.14952l-63.22382,-8.04667c-10.34572,-1.14952 -18.39238,6.89714 -19.54191,14.94381c0,5.74762 2.29905,10.34572 5.74762,13.79429z" class="st0"/>
   <path stroke="null" id="svg_11" fill="none" d="m875.52061,537.61372c0,-20.69143 -12.64476,-35.63524 -33.33619,-35.63524c19.54191,0 33.33619,14.94381 33.33619,35.63524z" class="st0"/>
   <path stroke="null" id="svg_12" fill="none" d="m842.18441,573.24896l0,0c-3.44857,0 -5.74762,0 -9.19619,-1.14952c3.44857,1.14952 5.74762,1.14952 9.19619,1.14952z" class="st0"/>
   <path stroke="null" id="svg_13" fill="none" d="m893.91299,406.56799c31.03715,0 57.4762,-26.43905 57.4762,-57.4762c0,0 0,0 0,-1.14952c0,31.03715 -26.43905,57.4762 -57.4762,58.62572c-29.88762,-1.14952 -56.32667,-26.43905 -57.4762,-57.4762c0,0 0,0 0,0c0,31.03715 26.43905,57.4762 57.4762,57.4762z" class="st0"/>
   <path stroke="null" id="svg_14" fill="none" d="m207.64721,1718.17477c0,-132.19525 89.66287,-256.34383 260.94193,-359.80098l1.14952,-1.14952l0,-2.29905c0,-147.13906 88.51334,-289.68003 248.29716,-398.8848l1.14952,-1.14952l0,-1.14952c18.39238,-122.99906 131.04573,-216.1105 264.3905,-216.1105c0,0 0,0 -1.14952,0c-133.34477,0 -245.99812,93.11144 -264.3905,216.1105l0,1.14952l-1.14952,1.14952c-159.78382,110.3543 -248.29716,251.74574 -248.29716,398.8848l0,2.29905l-1.14952,1.14952c-170.12954,103.45715 -260.94193,228.75526 -260.94193,359.80098c0,110.3543 65.52286,217.26002 189.67145,310.37146c0,0 0,-1.14952 0,-1.14952c-122.99906,-93.11144 -188.52192,-198.86764 -188.52192,-309.22193z" class="st0"/>
   <path stroke="null" id="svg_15" fill="none" d="m674.35392,1297.44902c-49.42953,19.54191 -83.91525,62.07429 -85.06477,103.45715c1.14952,-40.23334 35.63524,-83.91525 85.06477,-103.45715z" class="st0"/>
   <path stroke="null" id="svg_16" fill="none" d="m628.37296,1404.35474c0,-27.58857 26.43905,-59.77524 62.07429,-73.56953c11.49524,-4.5981 22.99048,-6.89714 33.33619,-6.89714c9.19619,0 17.24286,1.14952 24.14,4.5981c3.44857,2.29905 6.89714,3.44857 9.19619,6.89714c-3.44857,-3.44857 -6.89714,-6.89714 -11.49524,-9.19619c-5.74762,-2.29905 -14.94381,-4.5981 -24.14,-4.5981c-10.34572,0 -21.84095,2.29905 -33.33619,6.89714c-34.48572,13.79429 -62.07429,45.98096 -62.07429,73.56953c0,3.44857 1.14952,5.74762 1.14952,8.04667c2.29905,8.04667 5.74762,13.79429 11.49524,18.39238c-4.5981,-4.5981 -8.04667,-10.34572 -9.19619,-16.09333c-1.14952,-2.29905 -1.14952,-4.5981 -1.14952,-8.04667z" class="st0"/>
   <path stroke="null" id="svg_17" fill="none" d="m669.75583,1473.32618c0,0 0,0 0,0c16.09333,0 32.18667,-2.29905 48.28,-9.19619c0,0 0,0 0,0c0,0 0,0 0,0c-16.09333,5.74762 -32.18667,9.19619 -48.28,9.19619z" class="st0"/>
   <path stroke="null" id="svg_18" fill="none" d="m849.08156,1269.86045c2.29905,1.14952 4.5981,2.29905 6.89714,2.29905c-2.29905,-1.14952 -5.74762,-2.29905 -8.04667,-3.44857c0,1.14952 1.14952,1.14952 1.14952,1.14952z" class="st0"/>
   <path stroke="null" id="svg_19" fill="none" d="m754.82059,1079.03948c0,-1.14952 0,-1.14952 0,-2.29905c-2.29905,-3.44857 -4.5981,-6.89714 -8.04667,-10.34572c-6.89714,-6.89714 -13.79429,-11.49524 -21.84095,-14.94381c6.89714,3.44857 13.79429,8.04667 19.54191,13.79429c3.44857,4.5981 6.89714,9.19619 10.34572,13.79429z" class="st0"/>
   <path stroke="null" id="svg_20" fill="none" d="m685.84916,1122.72139c-12.64476,12.64476 -28.7381,17.24286 -44.83143,10.34572c0,0 1.14952,1.14952 1.14952,1.14952c16.09333,6.89714 33.33619,1.14952 45.98096,-10.34572c11.49524,-11.49524 28.7381,-13.79429 43.68191,-8.04667c-14.94381,-6.89714 -33.33619,-4.5981 -45.98096,6.89714z" class="st0"/>
   <path stroke="null" id="svg_21" fill="none" d="m1022.65967,450.2499l0,0c6.89714,-3.44857 13.79429,-3.44857 18.39238,-1.14952c-5.74762,-3.44857 -11.49524,-4.5981 -18.39238,-1.14952l0,2.29905c-8.04667,2.29905 -10.34572,10.34572 -8.04667,18.39238c-2.29905,-6.89714 1.14952,-14.94381 8.04667,-18.39238z" class="st0"/>
   <path stroke="null" id="svg_22" fill="none" d="m1511.20733,1574.48428l0,0c127.59715,0 256.34383,10.34572 383.94099,32.18667c45.98096,8.04667 89.66287,17.24286 132.19525,27.58857c-41.38286,-10.34572 -85.06477,-19.54191 -131.04573,-27.58857c-126.44763,-21.84095 -256.34383,-32.18667 -385.09051,-32.18667z" class="st0"/>
   <path stroke="null" id="svg_23" fill="none" d="m1142.21015,785.91088c96.56001,-19.54191 196.56859,-28.7381 298.87622,-28.7381c0,0 0,0 -1.14952,0c-102.30763,0 -202.31621,9.19619 -298.87622,28.7381l1.14952,0l0,0z" class="st0"/>
   <path stroke="null" id="svg_24" fill="none" d="m2240.00549,1703.23096c-19.54191,-8.04667 -39.08381,-16.09333 -59.77524,-22.99048c20.69143,6.89714 40.23334,14.94381 58.62572,22.99048c167.83049,71.27048 259.7924,165.53144 259.7924,263.24098c0,20.69143 -4.5981,41.38286 -12.64476,62.07429c0,0 1.14952,-1.14952 1.14952,-1.14952c8.04667,-20.69143 12.64476,-40.23334 12.64476,-60.92477c0,-98.85906 -91.96191,-191.97049 -259.7924,-263.24098z" class="st0"/>
   <path stroke="null" id="svg_25" fill="none" d="m804.25012,1352.62617c0,-3.44857 -1.14952,-5.74762 -1.14952,-9.19619c0,0 0,0 0,-1.14952c0,0 0,0 0,1.14952c0,2.29905 1.14952,5.74762 1.14952,9.19619z" class="st0"/>
   <path stroke="null" id="svg_26" fill="none" d="m792.75488,1320.4395c-6.89714,-9.19619 -14.94381,-18.39238 -26.43905,-22.99048c-12.64476,-6.89714 -27.58857,-9.19619 -42.53238,-9.19619c14.94381,0 29.88762,3.44857 42.53238,9.19619c10.34572,5.74762 20.69143,13.79429 26.43905,22.99048z" class="st0"/>
   <path stroke="null" id="svg_27" fill="none" d="m1985.9607,406.56799c31.03715,0 57.4762,-26.43905 57.4762,-57.4762c0,0 0,0 0,-1.14952c0,31.03715 -26.43905,57.4762 -57.4762,58.62572c-31.03715,-1.14952 -57.4762,-26.43905 -57.4762,-58.62572c0,0 0,0 0,1.14952c0,31.03715 26.43905,57.4762 57.4762,57.4762z" class="st0"/>
   <path stroke="null" id="svg_28" fill="none" d="m2357.25693,696.24801c0,0 0,0 0,0c-19.54191,0 -33.33619,-14.94381 -32.18667,-35.63524c0,-20.69143 13.79429,-35.63524 32.18667,-35.63524c0,0 0,0 0,0c-19.54191,0 -33.33619,14.94381 -33.33619,35.63524s12.64476,35.63524 33.33619,35.63524z" class="st0"/>
   <path stroke="null" id="svg_29" fill="none" d="m2205.51977,573.24896c-47.13048,0 -86.21429,37.93429 -86.21429,86.21429c0,-47.13048 39.08381,-86.21429 86.21429,-86.21429z" class="st0"/>
   <path stroke="null" id="svg_30" fill="none" d="m489.28057,660.61277c0,-20.69143 13.79429,-35.63524 32.18667,-35.63524c0,0 0,0 0,0c-19.54191,0 -33.33619,14.94381 -32.18667,35.63524c-1.14952,20.69143 12.64476,35.63524 32.18667,35.63524c0,0 0,0 1.14952,0c-19.54191,0 -33.33619,-14.94381 -33.33619,-35.63524z" class="st0"/>
   <path stroke="null" id="svg_31" fill="none" d="m1985.9607,264.02702c47.13048,0 85.06477,37.93429 85.06477,83.91525c0,0 0,0 0,0c0,-47.13048 -37.93429,-85.06477 -85.06477,-83.91525c-48.28,-1.14952 -86.21429,36.78477 -85.06477,83.91525c0,0 0,0 0,0c0,-45.98096 36.78477,-83.91525 85.06477,-83.91525z" class="st0"/>
   <path stroke="null" id="svg_32" fill="none" d="m2004.35309,537.61372c0,-20.69143 13.79429,-35.63524 33.33619,-35.63524l0,0c-19.54191,0 -33.33619,14.94381 -33.33619,35.63524c0,20.69143 12.64476,35.63524 33.33619,35.63524l0,0c-20.69143,0 -33.33619,-14.94381 -33.33619,-35.63524z" class="st0"/>
   <polygon stroke="null" id="svg_33" fill="none" points="234.08655206648132,908.909406320161 198.45153343192965,746.8266974685521 236.38512194446253,738.7807049059174 236.38512194446253,737.6314199669268 198.45153343192965,745.6776121275016 234.08655206648132,908.909406320161 " class="st0"/>
   <path stroke="null" id="svg_34" fill="none" d="m1835.37307,616.93087l-28.7381,-62.07429l-1.14952,0l-1.14952,2.29905l28.7381,60.92477c4.5981,9.19619 13.79429,12.64476 22.99048,8.04667c-8.04667,2.29905 -17.24286,-1.14952 -20.69143,-9.19619z" class="st0"/>
   <polygon stroke="null" id="svg_35" fill="none" points="245.58179663166834,960.6380068635026 245.58179663166834,960.6380068635026 237.53420728551305,922.7044183509697 275.4691929836265,914.6570286027545 275.4691929836265,914.6570286027545 237.53420728551305,922.7044183509697 " class="st0"/>
   <path stroke="null" id="svg_36" fill="none" d="m731.83012,1200.88901c0,22.99048 -24.14,40.23334 -47.13048,28.7381c0,0 0,0 0,0c24.14,13.79429 49.42953,-4.5981 49.42953,-27.58857c0,-16.09333 11.49524,-29.88762 26.43905,-32.18667c0,0 0,-1.14952 0,-1.14952c-16.09333,2.29905 -28.7381,14.94381 -28.7381,32.18667z" class="st0"/>
   <path stroke="null" id="svg_37" fill="none" d="m463.99104,954.89089c8.04667,-13.79429 10.34572,-29.88762 5.74762,-43.68191c3.44857,13.79429 2.29905,28.7381 -6.89714,41.38286c-6.89714,12.64476 -19.54191,20.69143 -33.33619,21.84095l-308.07241,66.67239c-13.79429,3.44857 -28.7381,1.14952 -40.23334,-6.89714c-6.89714,-4.5981 -12.64476,-10.34572 -17.24286,-17.24286c4.5981,8.04667 10.34572,14.94381 18.39238,19.54191c12.64476,6.89714 26.43905,10.34572 40.23334,6.89714l308.07241,-65.52286c13.79429,-2.29905 25.28953,-11.49524 33.33619,-22.99048z" class="st0"/>
   <path stroke="null" id="svg_38" fill="none" d="m99.59197,1008.91852c4.5981,2.29905 10.34572,3.44857 16.09333,2.29905l308.07241,-66.67239c4.5981,-1.14952 9.19619,-4.5981 12.64476,-9.19619c1.14952,-2.29905 1.14952,-3.44857 2.29905,-5.74762c-1.14952,1.14952 -1.14952,3.44857 -2.29905,4.5981c-2.29905,4.5981 -6.89714,8.04667 -12.64476,9.19619l-308.07241,66.67239c-5.74762,2.29905 -11.49524,1.14952 -16.09333,-2.29905c-5.74762,-3.44857 -9.19619,-10.34572 -9.19619,-16.09333c0,6.89714 3.44857,12.64476 9.19619,17.24286z" class="st0"/>
   <polygon stroke="null" id="svg_39" fill="none" points="1381.310417778059,329.55043750072764 1322.6849100131333,270.92353255022135 1321.5360242700228,272.07421467479253 1380.1611328390684,330.69972243971824 " class="st0"/>
   <path stroke="null" id="svg_40" fill="none" d="m1018.06157,599.68801l41.38286,-54.02762l0,-1.14952l-1.14952,0l-40.23334,55.17715c-5.74762,5.74762 -4.5981,12.64476 -1.14952,18.39238c-3.44857,-4.5981 -3.44857,-12.64476 1.14952,-18.39238z" class="st0"/>
   <path stroke="null" id="svg_41" fill="none" d="m1076.68729,518.07181l26.43905,-62.07429c4.5981,-9.19619 14.94381,-12.64476 24.14,-8.04667l1.14952,0c3.44857,2.29905 5.74762,6.89714 6.89714,11.49524c0,-4.5981 -3.44857,-9.19619 -8.04667,-12.64476l-1.14952,0c-9.19619,-4.5981 -20.69143,-1.14952 -24.14,8.04667l-25.28953,63.22382l-1.14952,-1.14952l1.14952,1.14952l0,0z" class="st0"/>
   <polygon stroke="null" id="svg_42" fill="none" points="1498.562630895551,329.55043750072764 1557.1881386604766,270.92353255022135 1498.562630895551,329.55043750072764 " class="st0"/>
   <path stroke="null" id="svg_43" fill="none" d="m1091.6311,528.41752l65.52286,-9.19619c0,0 1.14952,0 2.29905,0c5.74762,0 10.34572,2.29905 13.79429,6.89714c-3.44857,-4.5981 -8.04667,-8.04667 -14.94381,-8.04667c-1.14952,0 -2.29905,0 -2.29905,0l-64.37334,9.19619l0,1.14952l0,0z" class="st0"/>
   <path stroke="null" id="svg_44" fill="none" d="m1076.68729,554.85657l0,0l25.28953,59.77524c1.14952,1.14952 1.14952,2.29905 2.29905,3.44857c0,-1.14952 -1.14952,-1.14952 -1.14952,-2.29905l-26.43905,-60.92477z" class="st0"/>
   <path stroke="null" id="svg_45" fill="none" d="m1721.5702,553.70705l65.52286,-8.04667l0,1.14952l-41.38286,51.72858c-6.89714,8.04667 -4.5981,19.54191 4.5981,25.28953l2.29905,1.14952c5.74762,3.44857 13.79429,2.29905 18.39238,-1.14952c-4.5981,2.29905 -10.34572,2.29905 -16.09333,0l-2.29905,-1.14952c-9.19619,-5.74762 -10.34572,-17.24286 -4.5981,-25.28953l41.38286,-51.72858l0,-1.14952l-65.52286,8.04667c-10.34572,1.14952 -19.54191,-5.74762 -17.24286,-17.24286c0,-5.74762 2.29905,-10.34572 6.89714,-13.79429c-5.74762,3.44857 -9.19619,9.19619 -10.34572,16.09333c0,9.19619 8.04667,17.24286 18.39238,16.09333z" class="st0"/>
   <path stroke="null" id="svg_46" fill="none" d="m1807.7845,516.92228l27.58857,-60.92477c2.29905,-3.44857 4.5981,-6.89714 8.04667,-8.04667c-4.5981,1.14952 -8.04667,4.5981 -10.34572,9.19619l-26.43905,58.62572l1.14952,1.14952l0,0z" class="st0"/>
   <path stroke="null" id="svg_47" fill="none" d="m1791.69116,526.11848l-41.38286,-54.02762c-6.89714,-8.04667 -4.5981,-19.54191 2.29905,-24.14l0,0c-8.04667,5.74762 -10.34572,17.24286 -4.5981,25.28953l41.38286,54.02762l2.29905,-1.14952l0,0z" class="st0"/>
   <path stroke="null" id="svg_48" fill="none" d="m1887.10165,552.55753l-64.37334,-8.04667l0,1.14952l0,0l62.07429,8.04667c3.44857,0 5.74762,0 9.19619,-2.29905c-2.29905,1.14952 -4.5981,1.14952 -6.89714,1.14952z" class="st0"/>
   <polygon stroke="null" id="svg_49" fill="none" points="1498.562630895551,212.29822438323572 1439.9375223265054,270.92353255022135 1498.562630895551,212.29822438323572 " class="st0"/>
   <path stroke="null" id="svg_50" fill="none" d="m1439.93685,598.53848c-129.8962,0 -237.95145,-91.96191 -263.24098,-214.96097c25.28953,122.99906 133.34477,214.96097 263.24098,214.96097c129.8962,0 237.95145,-91.96191 263.24098,-214.96097c-25.28953,122.99906 -133.34477,214.96097 -263.24098,214.96097z" class="st0"/>
   <polygon stroke="null" id="svg_51" fill="none" points="1439.9375223265054,388.17594526565335 1381.310417778059,446.801253432639 1322.6849100131333,388.17594526565335 1322.6849100131333,389.32523020464396 1381.310417778059,447.9505383716296 1439.9375223265054,389.32523020464396 1498.562630895551,447.9505383716296 1557.1881386604766,389.32523020464396 1557.1881386604766,389.32523020464396 1498.562630895551,446.801253432639 " class="st0"/>
   <path stroke="null" id="svg_52" fill="none" d="m2125.0531,1142.26329c12.64476,-4.5981 26.43905,-5.74762 41.38286,-1.14952c27.58857,9.19619 43.68191,34.48572 44.83143,63.22382c0,0 0,0 0,-1.14952c0,-28.7381 -17.24286,-56.32667 -44.83143,-64.37334c-14.94381,-4.5981 -27.58857,-3.44857 -40.23334,1.14952c0,0 0,0 0,0c0,1.14952 -1.14952,1.14952 -1.14952,2.29905z" class="st0"/>
   <path stroke="null" id="svg_53" fill="none" d="m1833.07402,918.10613c45.98096,-22.99048 98.85906,-25.28953 149.43811,-6.89714s91.96191,52.8781 118.40096,100.00858c12.64476,21.84095 20.69143,45.98096 24.14,70.12096c2.29905,-4.5981 5.74762,-9.19619 10.34572,-13.79429c32.18667,-32.18667 83.91525,-32.18667 116.10191,-1.14952c1.14952,0 1.14952,1.14952 1.14952,1.14952c0,1.14952 1.14952,1.14952 1.14952,1.14952c6.89714,8.04667 10.34572,17.24286 11.49524,27.58857c0,-10.34572 -3.44857,-21.84095 -11.49524,-29.88762c-1.14952,-1.14952 -1.14952,-1.14952 -1.14952,-1.14952l-1.14952,-1.14952c-32.18667,-31.03715 -83.91525,-31.03715 -116.10191,1.14952c-3.44857,4.5981 -6.89714,9.19619 -10.34572,13.79429c-3.44857,-24.14 -11.49524,-48.28 -24.14,-70.12096c-26.43905,-47.13048 -68.97143,-81.6162 -118.40096,-100.00858c-50.57905,-18.39238 -104.60668,-16.09333 -149.43811,6.89714c-40.23334,20.69143 -68.97143,54.02762 -83.91525,94.26096c14.94381,-39.08381 43.68191,-72.42001 83.91525,-91.96191z" class="st0"/>
   <path stroke="null" id="svg_54" fill="none" d="m1323.83493,1191.69282c0,0 0,0 0,0c0,0 0,0 0,0c-10.34572,-31.03715 -33.33619,-54.02762 -63.22382,-65.52286c0,0 0,0 0,0c0,0 0,0 0,0c29.88762,11.49524 52.8781,35.63524 63.22382,65.52286z" class="st0"/>
   <path stroke="null" id="svg_55" fill="none" d="m1914.69022,1150.30996c0,9.19619 -3.44857,17.24286 -10.34572,21.84095l-4.5981,3.44857l1.14952,0l3.44857,-2.29905c6.89714,-5.74762 10.34572,-14.94381 10.34572,-22.99048z" class="st0"/>
   <path stroke="null" id="svg_56" fill="none" d="m1882.50355,1008.91852c31.03715,-14.94381 70.12096,-9.19619 100.00858,13.79429c5.74762,-3.44857 12.64476,-4.5981 18.39238,-2.29905c6.89714,2.29905 12.64476,6.89714 13.79429,13.79429c0,0 0,1.14952 0,1.14952c0,-1.14952 0,-1.14952 0,-2.29905c-1.14952,-5.74762 -6.89714,-11.49524 -13.79429,-13.79429c-6.89714,-2.29905 -12.64476,-1.14952 -18.39238,2.29905c-29.88762,-24.14 -68.97143,-28.7381 -100.00858,-13.79429c-29.88762,13.79429 -45.98096,44.83143 -44.83143,77.0181c0,-32.18667 16.09333,-62.07429 44.83143,-75.86858z" class="st0"/>
   <path stroke="null" id="svg_57" fill="none" d="m1242.21873,1274.45854c0,0 0,0 0,0c-5.74762,2.29905 -9.19619,4.5981 -12.64476,9.19619c3.44857,-4.5981 8.04667,-6.89714 12.64476,-9.19619c0,0 0,0 0,0z" class="st0"/>
   <path stroke="null" id="svg_58" fill="none" d="m1224.97587,1297.44902c0,19.54191 18.39238,33.33619 35.63524,26.43905c-17.24286,5.74762 -35.63524,-8.04667 -35.63524,-26.43905z" class="st0"/>
   <path stroke="null" id="svg_59" fill="none" d="m1328.43303,1242.27187c0,0 0,-1.14952 0,-1.14952c0,0 0,0 0,0c0,0 0,1.14952 0,1.14952z" class="st0"/>
   <polygon stroke="null" id="svg_60" fill="none" points="2660.7313175215204,902.0124990985769 2658.432747643539,911.2091737857827 2660.7313175215204,902.0124990985769 " class="st0"/>
   <path stroke="null" id="svg_61" fill="none" d="m1781.34545,858.33089c-3.44857,-3.44857 -8.04667,-4.5981 -13.79429,-4.5981c5.74762,0 10.34572,1.14952 12.64476,4.5981c13.79429,12.64476 -1.14952,48.28 -32.18667,79.31715c-8.04667,8.04667 -14.94381,13.79429 -22.99048,19.54191c8.04667,-5.74762 16.09333,-11.49524 24.14,-19.54191c31.03715,-31.03715 44.83143,-66.67239 32.18667,-79.31715z" class="st0"/>
   <polygon stroke="null" id="svg_62" fill="none" points="2711.3106331258714,674.4075748583982 2710.161348186881,674.4075748583982 2664.1803699261327,885.918917189787 2713.6092030038526,896.2648768159834 2713.6092030038526,895.1155918769928 2665.3296548651233,884.7696322507963 " class="st0"/>
   <path stroke="null" id="svg_63" fill="none" d="m1029.55681,1135.36615l-3.44857,-6.89714c-2.29905,-4.5981 -6.89714,-9.19619 -11.49524,-11.49524c-6.89714,-2.29905 -14.94381,-3.44857 -21.84095,-1.14952c-8.04667,2.29905 -16.09333,9.19619 -20.69143,17.24286c-3.44857,5.74762 -4.5981,11.49524 -4.5981,17.24286c0,-5.74762 2.29905,-10.34572 4.5981,-16.09333c4.5981,-8.04667 11.49524,-14.94381 20.69143,-17.24286c8.04667,-2.29905 14.94381,-2.29905 21.84095,1.14952c4.5981,2.29905 9.19619,6.89714 11.49524,11.49524l3.44857,6.89714l3.44857,-6.89714c8.04667,-14.94381 11.49524,-29.88762 11.49524,-44.83143c0,14.94381 -4.5981,29.88762 -11.49524,43.68191l-3.44857,6.89714z" class="st0"/>
   <path stroke="null" id="svg_64" fill="none" d="m2008.95118,1052.60043c8.04667,13.79429 12.64476,29.88762 13.79429,44.83143c-1.14952,-14.94381 -4.5981,-31.03715 -13.79429,-44.83143c0,0 0,0 0,0z" class="st0"/>
   <path stroke="null" id="svg_65" fill="none" d="m2776.83315,644.51944c-4.5981,-12.64476 -16.09333,-22.99048 -28.7381,-25.28953c-13.79429,-2.29905 -27.58857,2.29905 -36.78477,11.49524l-255.19431,265.54002c-5.74762,5.74762 -8.04667,13.79429 -8.04667,20.69143c0,-6.89714 2.29905,-13.79429 8.04667,-19.54191l255.19431,-265.54002c9.19619,-10.34572 24.14,-13.79429 36.78477,-11.49524c13.79429,2.29905 24.14,12.64476 28.7381,25.28953l120.70001,348.30574c2.29905,6.89714 2.29905,13.79429 -1.14952,20.69143c3.44857,-6.89714 4.5981,-14.94381 2.29905,-22.99048l-121.84953,-347.15622z" class="st0"/>
   <polygon stroke="null" id="svg_66" fill="none" points="2650.385357895324,950.2934444228868 2650.385357895324,951.4425297639373 2699.8153885606844,961.7886889880738 2705.563010843278,931.899895450535 2699.8153885606844,960.6380068635026 " class="st0"/>
   <path stroke="null" id="svg_67" fill="none" d="m2815.91697,630.72515c-9.19619,-25.28953 -31.03715,-45.98096 -58.62572,-51.72858s-56.32667,3.44857 -75.86858,22.99048l-255.19431,265.54002c-13.79429,14.94381 -20.69143,33.33619 -18.39238,52.8781c-1.14952,-18.39238 5.74762,-36.78477 18.39238,-51.72858l255.19431,-265.54002c19.54191,-19.54191 48.28,-28.7381 75.86858,-22.99048c26.43905,5.74762 49.42953,25.28953 58.62572,50.57905l121.84953,349.45527c2.29905,6.89714 3.44857,14.94381 3.44857,21.84095c0,-8.04667 -1.14952,-16.09333 -3.44857,-24.14l-121.84953,-347.15622z" class="st0"/>
   <path stroke="null" id="svg_68" fill="none" d="m1918.13879,939.94708c-21.84095,0 -41.38286,4.5981 -59.77524,13.79429c-13.79429,6.89714 -25.28953,14.94381 -34.48572,25.28953c9.19619,-9.19619 20.69143,-18.39238 33.33619,-24.14c18.39238,-9.19619 37.93429,-13.79429 60.92477,-14.94381c57.4762,1.14952 113.80287,35.63524 143.69049,90.81239c20.69143,36.78477 27.58857,79.31715 17.24286,117.25144c-9.19619,33.33619 -28.7381,59.77524 -55.17715,77.0181c28.7381,-17.24286 47.13048,-44.83143 56.32667,-78.16763c9.19619,-37.93429 3.44857,-80.46667 -16.09333,-118.40096c-31.03715,-54.02762 -87.36382,-88.51334 -145.98954,-88.51334z" class="st0"/>
   <path stroke="null" id="svg_69" fill="none" d="m2252.65025,1464.12999c-12.64476,5.74762 -26.43905,9.19619 -42.53238,9.19619c16.09333,0 29.88762,-2.29905 42.53238,-9.19619z" class="st0"/>
   <path stroke="null" id="svg_70" fill="none" d="m2177.9312,1430.79379c-39.08381,-16.09333 -67.82191,-52.8781 -62.07429,-81.6162c1.14952,-4.5981 3.44857,-8.04667 5.74762,-11.49524c-3.44857,3.44857 -5.74762,8.04667 -6.89714,12.64476c-5.74762,28.7381 22.99048,66.67239 63.22382,80.46667c20.69143,9.19619 42.53238,9.19619 57.4762,2.29905c2.29905,-1.14952 4.5981,-3.44857 6.89714,-4.5981c-2.29905,1.14952 -3.44857,2.29905 -5.74762,3.44857c-14.94381,8.04667 -36.78477,6.89714 -58.62572,-1.14952z" class="st0"/>
   <path stroke="null" id="svg_71" fill="none" d="m1654.89782,1296.2995c0,0 0,0 0,0c0,0 0,0 0,0c0,-10.34572 -6.89714,-19.54191 -17.24286,-22.99048c0,0 0,0 0,0c0,0 0,0 0,0c10.34572,3.44857 17.24286,12.64476 17.24286,22.99048z" class="st0"/>
   <path stroke="null" id="svg_72" fill="none" d="m1099.67777,858.33089c-3.44857,3.44857 -4.5981,8.04667 -4.5981,13.79429c0,-5.74762 1.14952,-10.34572 4.5981,-13.79429c12.64476,-12.64476 48.28,1.14952 79.31715,32.18667c22.99048,22.99048 36.78477,49.42953 36.78477,65.52286c0,-17.24286 -13.79429,-42.53238 -36.78477,-65.52286c-31.03715,-31.03715 -66.67239,-44.83143 -79.31715,-32.18667z" class="st0"/>
   <path stroke="null" id="svg_73" fill="none" d="m1211.18159,969.83471c-3.44857,3.44857 -8.04667,4.5981 -13.79429,4.5981c5.74762,0 10.34572,-1.14952 13.79429,-4.5981z" class="st0"/>
   <path stroke="null" id="svg_74" fill="none" d="m1049.09872,916.95661c0,0 -1.14952,0 0,0c90.81239,45.98096 121.84953,162.08287 65.52286,257.49336c-26.43905,47.13048 -68.97143,82.76572 -118.40096,100.00858c-21.84095,8.04667 -44.83143,12.64476 -67.82191,12.64476c-20.69143,0 -41.38286,-3.44857 -59.77524,-9.19619c19.54191,6.89714 40.23334,10.34572 62.07429,10.34572c21.84095,0 44.83143,-4.5981 67.82191,-12.64476c50.57905,-17.24286 91.96191,-52.8781 118.40096,-100.00858c54.02762,-96.56001 22.99048,-213.81145 -67.82191,-258.64288z" class="st0"/>
   <path stroke="null" id="svg_75" fill="none" d="m1076.68729,1156.05758c34.48572,-63.22382 25.28953,-134.4943 -16.09333,-177.02668c41.38286,43.68191 50.57905,113.80287 16.09333,177.02668c-21.84095,35.63524 -55.17715,64.37334 -94.26096,78.16763c-37.93429,13.79429 -78.16763,11.49524 -111.50382,-4.5981c-3.44857,-2.29905 -8.04667,-3.44857 -11.49524,-5.74762c3.44857,2.29905 8.04667,4.5981 12.64476,6.89714c33.33619,16.09333 73.56953,18.39238 111.50382,4.5981c39.08381,-13.79429 72.42001,-41.38286 93.11144,-79.31715z" class="st0"/>
   <path stroke="null" id="svg_76" fill="none" d="m1261.76064,1188.24425c-5.74762,-5.74762 -12.64476,-10.34572 -19.54191,-12.64476c8.04667,3.44857 13.79429,6.89714 19.54191,12.64476z" class="st0"/>
   <path stroke="null" id="svg_77" fill="none" d="m1261.76064,1261.81378c9.19619,-9.19619 14.94381,-21.84095 14.94381,-36.78477c0,14.94381 -5.74762,27.58857 -14.94381,36.78477z" class="st0"/>
   <path stroke="null" id="svg_78" fill="none" d="m1603.16924,1223.87949c0,0 0,0 0,0c0,-21.84095 14.94381,-41.38286 34.48572,-48.28c-20.69143,6.89714 -34.48572,26.43905 -34.48572,48.28z" class="st0"/>
   <path stroke="null" id="svg_79" fill="none" d="m867.47394,1036.50709c-2.29905,6.89714 0,12.64476 5.74762,17.24286c0,0 0,0 0,-1.14952c-4.5981,-4.5981 -6.89714,-10.34572 -5.74762,-16.09333z" class="st0"/>
   <path stroke="null" id="svg_80" fill="none" d="m1627.30924,1125.02043c0,0 0,0 0,0c0,0 0,0 0,0c-3.44857,0 -5.74762,0 -9.19619,1.14952c0,0 0,0 0,0c0,0 0,0 0,0c3.44857,-1.14952 5.74762,-1.14952 9.19619,-1.14952z" class="st0"/>
   <path stroke="null" id="svg_81" fill="none" d="m904.2587,1177.89853c11.49524,4.5981 24.14,8.04667 37.93429,8.04667c11.49524,0 22.99048,-2.29905 34.48572,-6.89714l5.74762,-2.29905l-1.14952,-1.14952l-4.5981,2.29905c-11.49524,4.5981 -22.99048,6.89714 -34.48572,6.89714c-13.79429,0 -26.43905,-2.29905 -37.93429,-8.04667c-37.93429,-18.39238 -52.8781,-63.22382 -39.08381,-104.60668c-14.94381,41.38286 1.14952,86.21429 39.08381,105.7562z" class="st0"/>
   <path stroke="null" id="svg_82" fill="none" d="m1554.88924,1191.69282c0,0 0,0 0,0c-36.78477,-10.34572 -75.86858,-16.09333 -116.10191,-16.09333c-1.14952,0 -1.14952,0 -2.29905,0c1.14952,0 1.14952,0 2.29905,0c40.23334,0 79.31715,5.74762 116.10191,16.09333z" class="st0"/>
   <path stroke="null" id="svg_83" fill="none" d="m1653.74829,1160.65567c1.14952,-2.29905 1.14952,-4.5981 1.14952,-8.04667c0,0 0,0 0,0c0,0 0,0 0,0c0,2.29905 0,4.5981 -1.14952,8.04667z" class="st0"/>
   <path stroke="null" id="svg_84" fill="#FFFFFF" d="m1780.19592,858.33089c-3.44857,-3.44857 -8.04667,-4.5981 -12.64476,-4.5981c-17.24286,0 -42.53238,13.79429 -65.52286,36.78477c-31.03715,31.03715 -44.83143,66.67239 -32.18667,79.31715c9.19619,9.19619 31.03715,3.44857 55.17715,-12.64476c8.04667,-5.74762 16.09333,-11.49524 22.99048,-19.54191c31.03715,-31.03715 45.98096,-66.67239 32.18667,-79.31715z" class="st1"/>
   <path stroke="null" id="svg_85" fill="#FFFFFF" d="m2008.95118,1052.60043c0,-1.14952 0,-1.14952 0,0c4.5981,-4.5981 5.74762,-10.34572 5.74762,-17.24286c0,0 0,-1.14952 0,-1.14952c-1.14952,-6.89714 -6.89714,-11.49524 -13.79429,-13.79429c-5.74762,-2.29905 -12.64476,-1.14952 -18.39238,2.29905c-29.88762,-22.99048 -68.97143,-28.7381 -100.00858,-13.79429c-28.7381,13.79429 -44.83143,43.68191 -44.83143,75.86858c0,14.94381 4.5981,29.88762 11.49524,43.68191l3.44857,6.89714l3.44857,-6.89714c2.29905,-4.5981 6.89714,-9.19619 11.49524,-11.49524c6.89714,-2.29905 14.94381,-3.44857 21.84095,-1.14952c8.04667,2.29905 16.09333,9.19619 20.69143,17.24286c3.44857,5.74762 4.5981,11.49524 4.5981,17.24286c0,9.19619 -3.44857,17.24286 -10.34572,22.99048l-3.44857,2.29905l4.5981,2.29905c11.49524,4.5981 22.99048,6.89714 34.48572,6.89714c13.79429,0 26.43905,-2.29905 37.93429,-8.04667c29.88762,-14.94381 45.98096,-45.98096 44.83143,-79.31715c-1.14952,-14.94381 -5.74762,-31.03715 -13.79429,-44.83143c0,0 0,0 0,0z" class="st1"/>
   <path stroke="null" id="svg_86" fill="#FFFFFF" d="m1603.16924,1223.87949c0,-21.84095 13.79429,-41.38286 34.48572,-48.28c0,0 0,0 0,0c4.5981,-2.29905 9.19619,-4.5981 12.64476,-9.19619c1.14952,-2.29905 2.29905,-4.5981 3.44857,-6.89714c1.14952,-2.29905 1.14952,-4.5981 1.14952,-8.04667c0,0 0,0 0,0c0,-16.09333 -13.79429,-27.58857 -27.58857,-27.58857c0,0 0,0 0,0c-3.44857,0 -5.74762,0 -9.19619,1.14952c0,0 0,0 0,0c-29.88762,11.49524 -52.8781,35.63524 -63.22382,65.52286c0,0 0,0 0,0c-36.78477,-10.34572 -75.86858,-16.09333 -116.10191,-16.09333c-1.14952,0 -1.14952,0 -2.29905,0c-37.93429,0 -77.0181,5.74762 -112.65334,16.09333c0,0 0,0 0,0c-10.34572,-29.88762 -33.33619,-54.02762 -63.22382,-65.52286c0,0 0,0 0,0c-17.24286,-5.74762 -35.63524,8.04667 -35.63524,26.43905c0,10.34572 6.89714,19.54191 17.24286,22.99048c0,0 0,0 0,0c6.89714,2.29905 13.79429,6.89714 19.54191,12.64476c9.19619,9.19619 14.94381,21.84095 14.94381,36.78477c0,0 0,0 0,0c0,14.94381 -5.74762,26.43905 -14.94381,36.78477c-5.74762,5.74762 -12.64476,10.34572 -19.54191,12.64476c0,0 0,0 0,0c-4.5981,2.29905 -9.19619,4.5981 -12.64476,9.19619s-4.5981,9.19619 -4.5981,13.79429c0,0 0,0 0,0c0,18.39238 18.39238,32.18667 35.63524,26.43905c0,0 0,0 0,0c35.63524,-13.79429 60.92477,-43.68191 67.82191,-81.6162c0,0 0,-1.14952 0,-1.14952c0,0 0,0 0,0c0,0 0,0 0,0c34.48572,-11.49524 72.42001,-17.24286 111.50382,-17.24286c39.08381,0 77.0181,5.74762 111.50382,17.24286c6.89714,36.78477 33.33619,68.97143 67.82191,81.6162c17.24286,5.74762 35.63524,-8.04667 35.63524,-26.43905c0,0 0,0 0,0c0,-10.34572 -6.89714,-19.54191 -17.24286,-22.99048c0,0 0,0 0,0c-20.69143,-5.74762 -34.48572,-25.28953 -34.48572,-48.28c0,1.14952 0,1.14952 0,0c0,0 0,0 0,0z" class="st1"/>
   <path stroke="null" id="svg_87" fill="#FFFFFF" d="m803.1006,1343.42998c0,0 0,0 0,0c-2.29905,-6.89714 -4.5981,-13.79429 -8.04667,-19.54191c0,0 0,-1.14952 -1.14952,-1.14952c0,-1.14952 -1.14952,-1.14952 -1.14952,-2.29905c-6.89714,-10.34572 -16.09333,-17.24286 -26.43905,-22.99048c-12.64476,-6.89714 -27.58857,-9.19619 -42.53238,-9.19619c-16.09333,0 -32.18667,3.44857 -48.28,9.19619c0,0 -1.14952,0 -1.14952,0c-49.42953,19.54191 -83.91525,63.22382 -85.06477,103.45715c0,5.74762 0,11.49524 1.14952,17.24286c4.5981,19.54191 17.24286,36.78477 36.78477,45.98096c12.64476,5.74762 26.43905,9.19619 42.53238,9.19619s32.18667,-3.44857 48.28,-9.19619c0,0 0,0 0,0c52.8781,-20.69143 89.66287,-68.97143 86.21429,-111.50382c0,-3.44857 -1.14952,-6.89714 -1.14952,-9.19619zm-97.70953,89.66287c-21.84095,8.04667 -43.68191,8.04667 -58.62572,1.14952c-3.44857,-1.14952 -5.74762,-3.44857 -8.04667,-5.74762c-5.74762,-4.5981 -10.34572,-10.34572 -11.49524,-18.39238c0,-2.29905 -1.14952,-4.5981 -1.14952,-8.04667c0,-27.58857 27.58857,-59.77524 62.07429,-73.56953c11.49524,-4.5981 22.99048,-6.89714 33.33619,-6.89714c9.19619,0 18.39238,2.29905 24.14,4.5981c4.5981,2.29905 8.04667,5.74762 11.49524,9.19619c4.5981,4.5981 8.04667,9.19619 10.34572,17.24286c5.74762,27.58857 -22.99048,65.52286 -62.07429,80.46667z" class="st1"/>
   <path stroke="null" id="svg_88" fill="#FFFFFF" d="m2146.89405,1199.73949c0,24.14 26.43905,41.38286 51.72858,26.43905c8.04667,-4.5981 12.64476,-13.79429 12.64476,-21.84095c0,-28.7381 -17.24286,-54.02762 -44.83143,-63.22382c-14.94381,-4.5981 -28.7381,-3.44857 -41.38286,1.14952c0,-1.14952 1.14952,-1.14952 1.14952,-2.29905c0,0 0,0 0,0c0,0 -1.14952,0 -1.14952,0c0,-1.14952 1.14952,-1.14952 1.14952,-2.29905c3.44857,-8.04667 9.19619,-14.94381 18.39238,-20.69143c16.09333,-9.19619 36.78477,-4.5981 50.57905,8.04667c16.09333,14.94381 41.38286,14.94381 57.4762,-1.14952c8.04667,-8.04667 11.49524,-17.24286 12.64476,-27.58857c0,-10.34572 -3.44857,-19.54191 -11.49524,-27.58857c0,0 -1.14952,0 -1.14952,-1.14952c0,0 0,-1.14952 -1.14952,-1.14952c-32.18667,-31.03715 -83.91525,-31.03715 -116.10191,1.14952c-4.5981,4.5981 -8.04667,9.19619 -10.34572,13.79429c-3.44857,-24.14 -11.49524,-48.28 -24.14,-70.12096c-26.43905,-47.13048 -67.82191,-81.6162 -118.40096,-100.00858s-103.45715,-16.09333 -149.43811,6.89714c-40.23334,19.54191 -68.97143,52.8781 -83.91525,91.96191c-18.39238,50.57905 -14.94381,110.3543 14.94381,165.53144c37.93429,67.82191 111.50382,111.50382 186.22287,111.50382c28.7381,0 55.17715,-5.74762 80.46667,-18.39238c41.38286,-20.69143 71.27048,-55.17715 86.21429,-101.1581c17.24286,2.29905 29.88762,14.94381 29.88762,32.18667zm-66.67239,-52.8781c-9.19619,33.33619 -28.7381,60.92477 -56.32667,78.16763c-3.44857,2.29905 -8.04667,4.5981 -12.64476,6.89714c-33.33619,16.09333 -73.56953,18.39238 -111.50382,4.5981c-39.08381,-13.79429 -72.42001,-41.38286 -93.11144,-79.31715c-34.48572,-63.22382 -25.28953,-134.4943 17.24286,-178.17621c10.34572,-10.34572 21.84095,-18.39238 34.48572,-25.28953c18.39238,-9.19619 37.93429,-13.79429 59.77524,-13.79429c58.62572,0 114.95239,34.48572 145.98954,88.51334c19.54191,37.93429 25.28953,80.46667 16.09333,118.40096z" class="st1"/>
   <path stroke="null" id="svg_89" fill="#FFFFFF" d="m996.22062,1274.45854c49.42953,-17.24286 91.96191,-52.8781 118.40096,-100.00858c56.32667,-95.41048 25.28953,-211.5124 -66.67239,-257.49336c-44.83143,-21.84095 -96.56001,-24.14 -147.13906,-6.89714c-50.57905,17.24286 -93.11144,52.8781 -119.55049,100.00858c-12.64476,21.84095 -20.69143,45.98096 -24.14,70.12096c0,-1.14952 -1.14952,-2.29905 -2.29905,-3.44857c0,1.14952 0,1.14952 0,2.29905c-3.44857,-4.5981 -6.89714,-9.19619 -10.34572,-13.79429c-5.74762,-5.74762 -12.64476,-10.34572 -19.54191,-13.79429c-31.03715,-14.94381 -68.97143,-10.34572 -94.26096,13.79429c-1.14952,0 -1.14952,1.14952 -1.14952,1.14952c-1.14952,1.14952 -1.14952,1.14952 -1.14952,1.14952c-19.54191,19.54191 -14.94381,52.8781 12.64476,65.52286c16.09333,6.89714 32.18667,2.29905 44.83143,-10.34572c12.64476,-11.49524 31.03715,-13.79429 45.98096,-6.89714c4.5981,2.29905 9.19619,4.5981 13.79429,9.19619c4.5981,3.44857 6.89714,9.19619 9.19619,13.79429c0,1.14952 0,1.14952 1.14952,2.29905c-6.89714,-2.29905 -13.79429,-3.44857 -21.84095,-3.44857c-35.63524,0 -64.37334,28.7381 -64.37334,63.22382l0,2.29905c0,10.34572 5.74762,21.84095 14.94381,26.43905c22.99048,11.49524 47.13048,-5.74762 47.13048,-28.7381c0,-17.24286 12.64476,-29.88762 28.7381,-32.18667c0,0 0,1.14952 0,1.14952c1.14952,0 1.14952,0 2.29905,0c14.94381,44.83143 43.68191,78.16763 85.06477,98.85906c2.29905,1.14952 5.74762,2.29905 8.04667,3.44857c3.44857,1.14952 8.04667,3.44857 12.64476,4.5981c19.54191,6.89714 39.08381,9.19619 59.77524,9.19619c22.99048,1.14952 45.98096,-3.44857 67.82191,-11.49524zm-124.14858,-43.68191c-4.5981,-2.29905 -8.04667,-4.5981 -12.64476,-6.89714c-28.7381,-17.24286 -47.13048,-44.83143 -56.32667,-78.16763c-9.19619,-37.93429 -3.44857,-79.31715 17.24286,-117.25144c31.03715,-54.02762 87.36382,-88.51334 145.98954,-88.51334c21.84095,0 41.38286,4.5981 59.77524,13.79429c13.79429,6.89714 25.28953,14.94381 34.48572,25.28953c41.38286,42.53238 50.57905,113.80287 16.09333,177.02668c-20.69143,37.93429 -54.02762,65.52286 -93.11144,79.31715c-37.93429,13.79429 -78.16763,11.49524 -111.50382,-4.5981z" class="st1"/>
   <path stroke="null" id="svg_90" fill="#FFFFFF" d="m1099.67777,858.33089c-3.44857,3.44857 -4.5981,8.04667 -4.5981,13.79429c0,17.24286 13.79429,42.53238 36.78477,65.52286c22.99048,22.99048 49.42953,36.78477 65.52286,36.78477c5.74762,0 10.34572,-1.14952 13.79429,-4.5981c0,0 0,0 0,0c3.44857,-3.44857 4.5981,-8.04667 4.5981,-13.79429c0,-17.24286 -13.79429,-42.53238 -36.78477,-65.52286c-31.03715,-31.03715 -66.67239,-44.83143 -79.31715,-32.18667z" class="st1"/>
   <path stroke="null" id="svg_91" fill="#FFFFFF" d="m1376.71303,533.01562c19.54191,5.74762 41.38286,9.19619 63.22382,9.19619c117.25144,0 212.66192,-95.41048 212.66192,-212.66192s-95.41048,-212.66192 -212.66192,-212.66192c-21.84095,0 -43.68191,3.44857 -63.22382,9.19619c-66.67239,20.69143 -119.55049,73.56953 -140.24192,140.24192c-5.74762,19.54191 -9.19619,41.38286 -9.19619,63.22382c0,43.68191 13.79429,85.06477 36.78477,118.40096c26.43905,40.23334 66.67239,70.12096 112.65334,85.06477zm-54.02762,-262.09145l58.62572,-58.62572l58.62572,58.62572l58.62572,-58.62572l0,0l0,0l59.77524,57.4762l-1.14952,1.14952l-57.4762,58.62572l59.77524,58.62572l-1.14952,1.14952l0,0l-58.62572,58.62572l-58.62572,-58.62572l-58.62572,58.62572l-58.62572,-58.62572l0,0l0,0l57.4762,-57.4762l-58.62572,-60.92477l0,0z" class="st1"/>
   <path stroke="null" id="svg_92" fill="#FFFFFF" d="m2581.41409,1413.55094c-28.7381,-26.43905 -60.92477,-51.72858 -95.41048,-74.71905l-16.09333,-10.34572l-2.29905,-19.54191c-14.94381,-136.79335 -100.00858,-270.13812 -239.10097,-374.74479l-11.49524,-8.04667l-3.44857,-13.79429c-13.79429,-50.57905 -42.53238,-95.41048 -79.31715,-132.19525c20.69143,12.64476 44.83143,19.54191 71.27048,19.54191c44.83143,0 87.36382,-21.84095 113.80287,-57.4762c11.49524,5.74762 25.28953,9.19619 39.08381,9.19619c48.28,0 87.36382,-39.08381 87.36382,-89.66287s-39.08381,-89.66287 -87.36382,-89.66287c-12.64476,0 -25.28953,2.29905 -36.78477,8.04667c-26.43905,-37.93429 -68.97143,-59.77524 -114.95239,-59.77524c-29.88762,0 -57.4762,9.19619 -81.6162,26.43905c0,-2.29905 0,-5.74762 0,-8.04667c0,-36.78477 -19.54191,-66.67239 -50.57905,-81.6162c32.18667,-26.43905 50.57905,-65.52286 50.57905,-106.90572c0,-77.0181 -62.07429,-139.09239 -139.09239,-139.09239c-78.16763,0 -139.09239,60.92477 -139.09239,139.09239c0,14.94381 2.29905,28.7381 6.89714,42.53238c-2.29905,0 -3.44857,0 -5.74762,0c-14.94381,0 -29.88762,4.5981 -42.53238,13.79429c-13.79429,-10.34572 -31.03715,-16.09333 -48.28,-14.94381c3.44857,-20.69143 5.74762,-41.38286 5.74762,-62.07429c0,-178.17621 -144.84001,-323.01622 -323.01622,-323.01622s-323.01622,144.84001 -323.01622,323.01622c0,20.69143 2.29905,41.38286 5.74762,62.07429c-17.24286,-1.14952 -34.48572,4.5981 -48.28,14.94381c-12.64476,-9.19619 -27.58857,-13.79429 -42.53238,-13.79429c-2.29905,0 -3.44857,0 -5.74762,0c4.5981,-13.79429 6.89714,-28.7381 6.89714,-42.53238c0,-78.16763 -60.92477,-139.09239 -139.09239,-139.09239c-77.0181,0 -139.09239,62.07429 -139.09239,139.09239c0,41.38286 18.39238,80.46667 50.57905,106.90572c-31.03715,13.79429 -50.57905,44.83143 -50.57905,81.6162c0,2.29905 0,4.5981 0,8.04667c-24.14,-17.24286 -51.72858,-26.43905 -81.6162,-26.43905c-45.98096,0 -88.51334,22.99048 -114.95239,59.77524c-11.49524,-4.5981 -22.99048,-8.04667 -36.78477,-8.04667c-49.42953,0 -87.36382,39.08381 -87.36382,89.66287s37.93429,89.66287 87.36382,89.66287c13.79429,0 26.43905,-3.44857 39.08381,-9.19619c26.43905,36.78477 68.97143,57.4762 113.80287,57.4762c26.43905,0 50.57905,-6.89714 71.27048,-19.54191c-36.78477,36.78477 -65.52286,81.6162 -79.31715,132.19525l-3.44857,13.79429l-11.49524,8.04667c-139.09239,104.60668 -224.15716,237.95145 -240.2505,374.74479l-2.29905,18.39238l-16.09333,10.34572c-70.12096,47.13048 -126.44763,100.00858 -167.83049,155.18573c-52.8781,71.27048 -79.31715,145.98954 -79.31715,224.15716c0,178.17621 139.09239,341.4086 393.13718,460.95909c241.40002,114.95239 562.11719,178.17621 901.22675,178.17621c167.83049,0 332.21241,-16.09333 487.39814,-45.98096c154.0362,-31.03715 293.1286,-74.71905 412.67908,-132.19525c252.89526,-119.55049 393.13718,-283.93241 393.13718,-460.95909c0,-77.0181 -26.43905,-152.88668 -79.31715,-224.15716c-19.54191,-26.43905 -43.68191,-54.02762 -72.42001,-79.31715zm-224.15716,-788.5734c0,0 0,0 0,0c1.14952,0 1.14952,0 0,0c20.69143,0 34.48572,14.94381 34.48572,35.63524c0,20.69143 -13.79429,35.63524 -33.33619,35.63524c0,0 0,0 -1.14952,0c0,0 0,0 0,0c-20.69143,0 -33.33619,-14.94381 -33.33619,-35.63524s13.79429,-35.63524 33.33619,-35.63524zm-1834.64016,71.27048c0,0 0,0 0,0c-1.14952,0 -1.14952,0 0,0c-20.69143,0 -34.48572,-14.94381 -34.48572,-35.63524c0,-20.69143 13.79429,-35.63524 33.33619,-35.63524c0,0 0,0 0,0c0,0 0,0 1.14952,0c19.54191,0 33.33619,14.94381 33.33619,35.63524s-12.64476,35.63524 -33.33619,35.63524zm1682.90301,-122.99906c48.28,0 86.21429,39.08381 86.21429,86.21429s-37.93429,86.21429 -86.21429,86.21429c-47.13048,0 -86.21429,-39.08381 -86.21429,-86.21429c0,-48.28 39.08381,-86.21429 86.21429,-86.21429zm-304.62384,-225.30669c-1.14952,-47.13048 36.78477,-85.06477 85.06477,-85.06477c47.13048,0 85.06477,37.93429 85.06477,85.06477c0,0 0,0 0,0c0,0 0,0 0,1.14952c0,47.13048 -37.93429,85.06477 -85.06477,85.06477c-47.13048,0 -86.21429,-37.93429 -85.06477,-86.21429c0,1.14952 0,1.14952 0,0c0,0 0,0 0,0zm170.12954,189.67145c0,12.64476 -5.74762,22.99048 -13.79429,29.88762c-1.14952,1.14952 -2.29905,1.14952 -2.29905,1.14952c-4.5981,2.29905 -10.34572,4.5981 -16.09333,4.5981l0,0c-20.69143,0 -33.33619,-14.94381 -33.33619,-35.63524c0,-20.69143 13.79429,-35.63524 33.33619,-35.63524l0,0c18.39238,0 32.18667,14.94381 32.18667,35.63524zm-357.50194,-16.09333c3.44857,-2.29905 6.89714,-3.44857 10.34572,-3.44857c1.14952,0 2.29905,0 2.29905,0l63.22382,9.19619l-41.38286,-54.02762c-5.74762,-8.04667 -3.44857,-19.54191 4.5981,-25.28953l0,0c1.14952,0 1.14952,-1.14952 2.29905,-1.14952l1.14952,0c9.19619,-4.5981 20.69143,-1.14952 24.14,8.04667l26.43905,60.92477l26.43905,-58.62572c2.29905,-4.5981 5.74762,-8.04667 10.34572,-9.19619c4.5981,-2.29905 10.34572,-2.29905 16.09333,0l1.14952,1.14952c8.04667,4.5981 10.34572,16.09333 4.5981,24.14l-41.38286,52.8781l0,1.14952l63.22382,-8.04667c9.19619,-1.14952 18.39238,5.74762 18.39238,16.09333c0,8.04667 -4.5981,14.94381 -11.49524,16.09333c-2.29905,1.14952 -5.74762,2.29905 -9.19619,2.29905l-62.07429,-8.04667l41.38286,54.02762c5.74762,8.04667 3.44857,18.39238 -4.5981,24.14c-1.14952,1.14952 -2.29905,1.14952 -3.44857,2.29905c-9.19619,4.5981 -18.39238,1.14952 -22.99048,-8.04667l-28.7381,-60.92477l-25.28953,58.62572c-2.29905,3.44857 -4.5981,6.89714 -8.04667,8.04667c-4.5981,3.44857 -12.64476,4.5981 -18.39238,1.14952l-2.29905,-1.14952c-9.19619,-5.74762 -11.49524,-17.24286 -4.5981,-25.28953l41.38286,-51.72858l0,-1.14952l-65.52286,8.04667c-10.34572,1.14952 -18.39238,-6.89714 -18.39238,-16.09333c1.14952,-6.89714 4.5981,-12.64476 10.34572,-16.09333zm-542.57529,-191.97049c0,-148.28858 120.70001,-268.9886 268.9886,-268.9886s268.9886,120.70001 268.9886,268.9886l0,0c0,4.5981 0,9.19619 0,13.79429c0,9.19619 -1.14952,18.39238 -2.29905,27.58857c-1.14952,4.5981 -1.14952,9.19619 -2.29905,13.79429c-25.28953,122.99906 -133.34477,214.96097 -263.24098,214.96097s-237.95145,-91.96191 -263.24098,-214.96097c-1.14952,-4.5981 -1.14952,-9.19619 -2.29905,-13.79429c-1.14952,-9.19619 -2.29905,-18.39238 -2.29905,-27.58857c-2.29905,-4.5981 -2.29905,-9.19619 -2.29905,-13.79429l0,0zm-175.87716,189.67145l63.22382,8.04667l0,-1.14952l-41.38286,-52.8781c0,0 0,-1.14952 -1.14952,-1.14952c0,0 0,0 0,-1.14952c0,-1.14952 -1.14952,-2.29905 -1.14952,-2.29905c0,0 0,0 0,0c-2.29905,-6.89714 0,-14.94381 6.89714,-19.54191l1.14952,-1.14952c6.89714,-3.44857 13.79429,-2.29905 18.39238,1.14952c3.44857,1.14952 5.74762,4.5981 6.89714,8.04667l27.58857,59.77524l0,0l26.43905,-62.07429c3.44857,-9.19619 14.94381,-12.64476 24.14,-8.04667l1.14952,0c4.5981,2.29905 8.04667,6.89714 8.04667,12.64476c1.14952,4.5981 0,10.34572 -2.29905,13.79429l-41.38286,54.02762l64.37334,-9.19619c0,0 1.14952,0 2.29905,0c5.74762,0 11.49524,3.44857 14.94381,8.04667c2.29905,3.44857 3.44857,6.89714 3.44857,10.34572c0,9.19619 -8.04667,17.24286 -18.39238,16.09333l-65.52286,-8.04667l0,1.14952l41.38286,51.72858c6.89714,8.04667 4.5981,19.54191 -4.5981,25.28953l-2.29905,1.14952c-8.04667,4.5981 -18.39238,1.14952 -22.99048,-5.74762c-1.14952,-1.14952 -2.29905,-2.29905 -2.29905,-3.44857l-26.43905,-59.77524l0,0l-28.7381,62.07429c-4.5981,9.19619 -14.94381,12.64476 -24.14,6.89714c-2.29905,-1.14952 -3.44857,-3.44857 -5.74762,-5.74762c-4.5981,-5.74762 -4.5981,-13.79429 0,-19.54191l41.38286,-54.02762l-63.22382,8.04667c-5.74762,1.14952 -10.34572,-1.14952 -13.79429,-4.5981c-3.44857,-3.44857 -5.74762,-8.04667 -5.74762,-13.79429c1.14952,-8.04667 9.19619,-16.09333 19.54191,-14.94381zm-186.22287,-171.27906c0,-45.98096 37.93429,-85.06477 85.06477,-85.06477c48.28,0 85.06477,37.93429 85.06477,85.06477c0,0 0,0 0,0c0,0 0,0 0,1.14952c0,47.13048 -37.93429,85.06477 -85.06477,85.06477c-47.13048,0 -85.06477,-37.93429 -85.06477,-86.21429c0,1.14952 0,1.14952 0,0c0,0 0,0 0,0zm33.33619,154.0362l0,0c0,0 0,0 0,0c20.69143,0 33.33619,14.94381 33.33619,35.63524c0,0 0,0 0,0c0,20.69143 -12.64476,35.63524 -33.33619,35.63524l0,0c-3.44857,0 -5.74762,0 -9.19619,-1.14952c-2.29905,-1.14952 -5.74762,-2.29905 -8.04667,-3.44857c-1.14952,-1.14952 -2.29905,-1.14952 -3.44857,-2.29905c-8.04667,-5.74762 -13.79429,-17.24286 -13.79429,-28.7381c1.14952,-20.69143 14.94381,-35.63524 34.48572,-35.63524zm-158.6343,243.69907c-3.44857,0 -5.74762,0 -9.19619,0c-48.28,0 -86.21429,-39.08381 -86.21429,-86.21429s37.93429,-86.21429 86.21429,-86.21429c47.13048,0 86.21429,37.93429 86.21429,86.21429c0,5.74762 -1.14952,11.49524 -2.29905,17.24286c-2.29905,8.04667 -4.5981,16.09333 -9.19619,24.14c-1.14952,2.29905 -2.29905,4.5981 -4.5981,6.89714c-12.64476,20.69143 -35.63524,34.48572 -60.92477,37.93429zm1739.22968,1303.56011c-19.54191,28.7381 -48.28,51.72858 -81.6162,68.97143c0,0 0,0 0,0c-2.29905,1.14952 -3.44857,1.14952 -5.74762,2.29905c-226.45621,113.80287 -527.63148,177.02668 -855.24579,181.62478c-12.64476,0 -26.43905,0 -39.08381,0c-340.25908,0 -667.87339,-67.82191 -900.07722,-185.07335c-33.33619,-17.24286 -62.07429,-40.23334 -81.6162,-68.97143c-19.54191,-27.58857 -29.88762,-55.17715 -29.88762,-82.76572c0,-37.93429 18.39238,-74.71905 50.57905,-109.20477c85.06477,-88.51334 268.9886,-164.38192 508.08957,-206.9143c124.14858,-21.84095 249.44669,-32.18667 375.89432,-32.18667l154.0362,0c6.89714,0 12.64476,0 19.54191,0c116.10191,1.14952 232.20383,10.34572 346.0067,29.88762c3.44857,0 6.89714,1.14952 10.34572,1.14952c1.14952,0 2.29905,0 3.44857,1.14952c77.0181,13.79429 148.28858,31.03715 212.66192,51.72858c210.36288,65.52286 342.55813,160.93335 342.55813,264.3905c0,28.7381 -10.34572,56.32667 -29.88762,83.91525zm64.37334,-20.69143c0,0 0,-1.14952 0,-1.14952c0,0 -1.14952,1.14952 -1.14952,1.14952c8.04667,-20.69143 12.64476,-41.38286 12.64476,-62.07429c0,-97.70953 -91.96191,-191.97049 -259.7924,-263.24098c-18.39238,-8.04667 -37.93429,-16.09333 -58.62572,-22.99048c-43.68191,-16.09333 -91.96191,-31.03715 -142.54096,-43.68191c0,0 0,0 0,0c-3.44857,-1.14952 -6.89714,-1.14952 -10.34572,-2.29905c-42.53238,-10.34572 -86.21429,-19.54191 -132.19525,-27.58857c-127.59715,-21.84095 -256.34383,-32.18667 -385.09051,-32.18667l-136.79335,0c-128.74668,0 -257.49336,10.34572 -385.09051,32.18667c-45.98096,8.04667 -90.81239,17.24286 -133.34477,27.58857c-3.44857,1.14952 -5.74762,1.14952 -9.19619,2.29905c0,0 -1.14952,0 -1.14952,0c-50.57905,12.64476 -97.70953,27.58857 -141.39144,42.53238c-20.69143,8.04667 -40.23334,14.94381 -59.77524,22.99048c-167.83049,71.27048 -259.7924,165.53144 -259.7924,263.24098c0,20.69143 4.5981,41.38286 12.64476,62.07429c0,0 -1.14952,-1.14952 -1.14952,-1.14952c0,0 0,1.14952 0,1.14952c-124.14858,-93.11144 -189.67145,-200.01716 -189.67145,-310.37146c0,-131.04573 90.81239,-256.34383 260.94193,-359.80098l1.14952,-1.14952l0,-2.29905c0,-147.13906 88.51334,-288.5305 248.29716,-398.8848l1.14952,-1.14952l0,-1.14952c18.39238,-122.99906 131.04573,-216.1105 264.3905,-216.1105c0,0 0,0 1.14952,0c0,0 0,0 0,0c56.32667,0 110.3543,16.09333 156.33525,47.13048l1.14952,1.14952c96.56001,-19.54191 196.56859,-28.7381 298.87622,-28.7381c0,0 0,0 1.14952,0c0,0 0,0 0,0c102.30763,0 202.31621,9.19619 298.87622,28.7381l0,0l1.14952,-1.14952c45.98096,-31.03715 100.00858,-47.13048 156.33525,-47.13048c0,0 0,0 0,0c0,0 0,0 1.14952,0c133.34477,0 245.99812,93.11144 264.3905,216.1105l0,1.14952l1.14952,1.14952c159.78382,110.3543 248.29716,251.74574 248.29716,398.8848l0,2.29905l1.14952,1.14952c171.27906,103.45715 260.94193,227.60573 262.09145,359.80098c1.14952,111.50382 -63.22382,218.40954 -187.3724,311.52098z" class="st1"/>
   <path stroke="null" id="svg_93" fill="#FFFFFF" d="m904.2587,1176.74901c11.49524,5.74762 24.14,8.04667 37.93429,8.04667c11.49524,0 22.99048,-2.29905 34.48572,-6.89714l4.5981,-2.29905l-3.44857,-2.29905c-6.89714,-5.74762 -10.34572,-14.94381 -10.34572,-22.99048c0,-5.74762 1.14952,-11.49524 4.5981,-17.24286c4.5981,-8.04667 12.64476,-14.94381 20.69143,-17.24286c6.89714,-2.29905 14.94381,-1.14952 21.84095,1.14952c4.5981,2.29905 9.19619,6.89714 11.49524,11.49524l3.44857,6.89714l3.44857,-6.89714c8.04667,-13.79429 11.49524,-28.7381 11.49524,-43.68191c0,-32.18667 -16.09333,-62.07429 -44.83143,-74.71905c-31.03715,-14.94381 -70.12096,-9.19619 -100.00858,13.79429c-5.74762,-3.44857 -12.64476,-4.5981 -18.39238,-2.29905c-6.89714,2.29905 -12.64476,6.89714 -13.79429,13.79429c0,0 0,1.14952 0,1.14952c-1.14952,5.74762 1.14952,12.64476 5.74762,16.09333c0,0 0,0 0,1.14952c0,0 0,0 0,0c-3.44857,5.74762 -6.89714,11.49524 -8.04667,18.39238c-13.79429,41.38286 1.14952,86.21429 39.08381,104.60668z" class="st1"/>
   <path stroke="null" id="svg_94" fill="#FFFFFF" d="m1985.9607,405.41847c31.03715,0 57.4762,-26.43905 57.4762,-57.4762c0,-31.03715 -26.43905,-56.32667 -57.4762,-56.32667c-32.18667,0 -57.4762,25.28953 -57.4762,56.32667c0,32.18667 26.43905,57.4762 57.4762,57.4762z" class="st1"/>
   <path stroke="null" id="svg_95" fill="#FFFFFF" d="m893.91299,405.41847c31.03715,0 57.4762,-26.43905 57.4762,-57.4762c0,-32.18667 -25.28953,-56.32667 -57.4762,-56.32667c-29.88762,0 -56.32667,26.43905 -57.4762,57.4762c1.14952,31.03715 27.58857,56.32667 57.4762,56.32667z" class="st1"/>
   <path stroke="null" id="svg_96" fill="#FFFFFF" d="m2204.37025,1297.44902c-12.64476,-4.5981 -24.14,-8.04667 -36.78477,-9.19619c-3.44857,0 -8.04667,-1.14952 -11.49524,-1.14952c-11.49524,0 -22.99048,2.29905 -33.33619,5.74762c-3.44857,1.14952 -6.89714,2.29905 -10.34572,4.5981c-2.29905,1.14952 -4.5981,2.29905 -6.89714,3.44857c-13.79429,8.04667 -22.99048,20.69143 -27.58857,34.48572c-1.14952,2.29905 -1.14952,4.5981 -2.29905,6.89714c-9.19619,45.98096 28.7381,98.85906 85.06477,120.70001c16.09333,5.74762 32.18667,9.19619 48.28,9.19619s29.88762,-3.44857 42.53238,-9.19619c2.29905,-1.14952 4.5981,-2.29905 6.89714,-3.44857c13.79429,-8.04667 22.99048,-20.69143 27.58857,-34.48572c1.14952,-2.29905 1.14952,-4.5981 2.29905,-6.89714c10.34572,-45.98096 -26.43905,-98.85906 -83.91525,-120.70001zm49.42953,112.65334c-2.29905,8.04667 -5.74762,13.79429 -11.49524,18.39238c-2.29905,2.29905 -4.5981,3.44857 -6.89714,4.5981c-14.94381,6.89714 -36.78477,6.89714 -58.62572,-1.14952c-39.08381,-14.94381 -67.82191,-52.8781 -62.07429,-81.6162c1.14952,-4.5981 3.44857,-9.19619 6.89714,-12.64476c3.44857,-4.5981 6.89714,-6.89714 11.49524,-10.34572c5.74762,-2.29905 14.94381,-4.5981 24.14,-4.5981c10.34572,0 21.84095,2.29905 33.33619,6.89714c39.08381,16.09333 67.82191,52.8781 63.22382,80.46667z" class="st1"/>
   <path stroke="null" id="svg_97" fill="#44679A" d="m750.2225,700.84611c3.44857,-6.89714 6.89714,-14.94381 9.19619,-24.14c1.14952,-5.74762 2.29905,-11.49524 2.29905,-17.24286c0,-48.28 -39.08381,-86.21429 -86.21429,-86.21429c-48.28,0 -86.21429,39.08381 -86.21429,86.21429s37.93429,86.21429 86.21429,86.21429c3.44857,0 5.74762,0 9.19619,0c26.43905,-2.29905 48.28,-17.24286 62.07429,-37.93429c0,-2.29905 2.29905,-4.5981 3.44857,-6.89714z" class="st2"/>
   <path stroke="null" id="svg_98" fill="#44679A" d="m808.84822,537.61372c0,12.64476 4.5981,22.99048 13.79429,28.7381c1.14952,1.14952 2.29905,1.14952 3.44857,2.29905c2.29905,1.14952 4.5981,2.29905 8.04667,3.44857c2.29905,1.14952 5.74762,1.14952 9.19619,1.14952c20.69143,0 33.33619,-14.94381 33.33619,-35.63524c0,0 0,0 0,0c0,-20.69143 -13.79429,-35.63524 -33.33619,-35.63524c0,0 0,0 0,0c-20.69143,0 -34.48572,14.94381 -34.48572,35.63524z" class="st2"/>
   <path stroke="null" id="svg_99" fill="#44679A" d="m893.91299,434.15656c47.13048,0 85.06477,-37.93429 85.06477,-85.06477c0,0 0,0 0,-1.14952c0,-48.28 -37.93429,-83.91525 -85.06477,-83.91525c-47.13048,0 -85.06477,37.93429 -85.06477,83.91525c0,0 0,0 0,1.14952c0,47.13048 37.93429,85.06477 85.06477,85.06477zm-57.4762,-85.06477c1.14952,-31.03715 27.58857,-57.4762 57.4762,-57.4762c32.18667,0 57.4762,25.28953 57.4762,56.32667c0,0 0,0 0,1.14952c0,31.03715 -26.43905,57.4762 -57.4762,57.4762s-57.4762,-26.43905 -57.4762,-57.4762c0,0 0,0 0,0z" class="st2"/>
   <path stroke="null" id="svg_100" fill="#44679A" d="m1059.44443,527.268l0,0l-63.22382,-6.89714c-10.34572,-1.14952 -18.39238,6.89714 -18.39238,16.09333c0,4.5981 1.14952,8.04667 3.44857,11.49524c3.44857,3.44857 8.04667,5.74762 13.79429,4.5981l63.22382,-8.04667l1.14952,0l0,1.14952l-41.38286,54.02762c-4.5981,5.74762 -4.5981,13.79429 -1.14952,18.39238c1.14952,2.29905 3.44857,3.44857 5.74762,5.74762c9.19619,5.74762 19.54191,2.29905 24.14,-6.89714l28.7381,-62.07429l0,0l1.14952,0l26.43905,60.92477c0,1.14952 1.14952,2.29905 1.14952,2.29905c4.5981,6.89714 14.94381,9.19619 22.99048,5.74762l2.29905,-1.14952c9.19619,-5.74762 11.49524,-17.24286 4.5981,-25.28953l-41.38286,-51.72858l0,-1.14952l65.52286,8.04667c10.34572,1.14952 18.39238,-6.89714 18.39238,-16.09333c0,-3.44857 -1.14952,-6.89714 -3.44857,-10.34572c-3.44857,-4.5981 -8.04667,-6.89714 -13.79429,-6.89714c-1.14952,0 -2.29905,0 -2.29905,0l-65.52286,9.19619l0,-1.14952l0,0l41.38286,-54.02762c3.44857,-4.5981 3.44857,-9.19619 2.29905,-13.79429c-1.14952,-4.5981 -3.44857,-8.04667 -6.89714,-11.49524l-1.14952,0c-9.19619,-4.5981 -19.54191,-1.14952 -24.14,8.04667l-26.43905,62.07429l-1.14952,0l0,-1.14952l-27.58857,-59.77524c-1.14952,-3.44857 -3.44857,-5.74762 -6.89714,-8.04667c-4.5981,-2.29905 -11.49524,-3.44857 -17.24286,0l-1.14952,1.14952c-6.89714,3.44857 -10.34572,11.49524 -8.04667,18.39238c0,0 0,0 0,0c0,1.14952 1.14952,2.29905 1.14952,2.29905c0,0 0,0 0,1.14952c0,1.14952 1.14952,2.29905 2.29905,2.29905l41.38286,52.8781z" class="st2"/>
   <path stroke="null" id="svg_101" fill="#44679A" d="m522.61676,624.97753c0,0 0,0 0,0c-19.54191,0 -33.33619,14.94381 -33.33619,35.63524c0,20.69143 13.79429,35.63524 33.33619,35.63524c0,0 0,0 0,0c20.69143,0 33.33619,-14.94381 33.33619,-35.63524s-13.79429,-35.63524 -33.33619,-35.63524z" class="st2"/>
   <circle stroke="null" id="svg_102" fill="#44679A" r="86.21428" cy="659.46325" cx="2205.51977" class="st2"/>
   <path stroke="null" id="svg_103" fill="#44679A" d="m2004.35309,537.61372c0,20.69143 12.64476,35.63524 33.33619,35.63524c5.74762,0 11.49524,-1.14952 16.09333,-4.5981c1.14952,0 2.29905,-1.14952 2.29905,-1.14952c8.04667,-5.74762 13.79429,-17.24286 13.79429,-29.88762c0,-20.69143 -13.79429,-35.63524 -33.33619,-35.63524c-18.39238,0 -32.18667,14.94381 -32.18667,35.63524z" class="st2"/>
   <path stroke="null" id="svg_104" fill="#44679A" d="m1985.9607,434.15656c47.13048,0 85.06477,-37.93429 85.06477,-85.06477c0,0 0,0 0,-1.14952c0,-47.13048 -37.93429,-83.91525 -85.06477,-83.91525c-48.28,0 -85.06477,37.93429 -85.06477,83.91525c0,0 0,0 0,1.14952c-1.14952,47.13048 37.93429,85.06477 85.06477,85.06477zm-57.4762,-86.21429c0,-32.18667 25.28953,-56.32667 57.4762,-56.32667c31.03715,0 57.4762,26.43905 57.4762,56.32667c0,0 0,0 0,1.14952c0,31.03715 -26.43905,57.4762 -57.4762,57.4762s-57.4762,-26.43905 -57.4762,-58.62572c0,1.14952 0,1.14952 0,0z" class="st2"/>
   <path stroke="null" id="svg_105" fill="#44679A" d="m1706.62639,535.31467c-2.29905,11.49524 6.89714,18.39238 17.24286,17.24286l65.52286,-8.04667l0,1.14952l-41.38286,51.72858c-5.74762,8.04667 -4.5981,19.54191 4.5981,25.28953l2.29905,1.14952c5.74762,2.29905 11.49524,2.29905 16.09333,0c3.44857,-1.14952 5.74762,-4.5981 8.04667,-8.04667l25.28953,-58.62572l1.14952,-2.29905l1.14952,0l28.7381,62.07429c3.44857,8.04667 12.64476,11.49524 20.69143,9.19619c1.14952,0 2.29905,-1.14952 3.44857,-2.29905c8.04667,-5.74762 10.34572,-16.09333 4.5981,-24.14l-41.38286,-54.02762l0,0l0,-1.14952l64.37334,8.04667c2.29905,0 4.5981,0 6.89714,-1.14952c6.89714,-2.29905 11.49524,-9.19619 11.49524,-16.09333c0,-10.34572 -9.19619,-17.24286 -18.39238,-16.09333l-63.22382,8.04667l0,-1.14952l41.38286,-52.8781c5.74762,-8.04667 3.44857,-19.54191 -4.5981,-24.14l-1.14952,-1.14952c-5.74762,-2.29905 -11.49524,-2.29905 -16.09333,0c-3.44857,1.14952 -5.74762,4.5981 -8.04667,8.04667l-27.58857,60.92477l-1.14952,0l0,-1.14952l-26.43905,-60.92477c-3.44857,-9.19619 -14.94381,-12.64476 -24.14,-8.04667l-1.14952,0c-1.14952,0 -1.14952,1.14952 -2.29905,1.14952c-8.04667,4.5981 -9.19619,16.09333 -2.29905,24.14l41.38286,54.02762l0,1.14952l-2.29905,0l-63.22382,-9.19619c0,0 -1.14952,0 -2.29905,0c-3.44857,0 -6.89714,1.14952 -10.34572,3.44857c-4.5981,3.44857 -6.89714,8.04667 -6.89714,13.79429z" class="st2"/>
   <path stroke="null" id="svg_106" fill="#44679A" d="m2325.07026,660.61277c-1.14952,20.69143 12.64476,35.63524 32.18667,35.63524c0,0 0,0 1.14952,0c19.54191,0 33.33619,-14.94381 33.33619,-35.63524c0,-20.69143 -13.79429,-35.63524 -33.33619,-35.63524c0,0 0,0 -1.14952,0c-18.39238,0 -32.18667,14.94381 -32.18667,35.63524z" class="st2"/>
   <path stroke="null" id="svg_107" fill="#6F97C6" d="m2110.10929,1702.08144c-64.37334,-20.69143 -135.64382,-37.93429 -212.66192,-51.72858c-1.14952,0 -2.29905,0 -3.44857,-1.14952c-3.44857,-1.14952 -6.89714,-1.14952 -10.34572,-1.14952c-114.95239,-19.54191 -231.05431,-29.88762 -346.0067,-29.88762c-6.89714,0 -12.64476,0 -19.54191,0l-154.0362,0c-126.44763,0 -251.74574,10.34572 -375.89432,32.18667c-239.10097,42.53238 -423.0248,118.40096 -508.08957,206.9143c-33.33619,34.48572 -50.57905,71.27048 -50.57905,109.20477c0,27.58857 10.34572,55.17715 29.88762,82.76572c19.54191,27.58857 48.28,51.72858 81.6162,68.97143c232.20383,117.25144 560.96767,185.07335 900.07722,185.07335c13.79429,0 26.43905,0 39.08381,0c327.61431,-4.5981 628.78958,-68.97143 855.24579,-181.62478c2.29905,-1.14952 3.44857,-1.14952 5.74762,-2.29905c0,0 0,0 0,0c33.33619,-17.24286 62.07429,-40.23334 81.6162,-68.97143c19.54191,-27.58857 29.88762,-55.17715 29.88762,-82.76572c0,-103.45715 -133.34477,-198.86764 -342.55813,-265.54002z" class="st3"/>
   <path stroke="null" id="svg_108" fill="#89A9D6" d="m757.11964,1335.38331c-2.29905,-2.29905 -5.74762,-4.5981 -9.19619,-6.89714c-6.89714,-3.44857 -14.94381,-4.5981 -24.14,-4.5981c-10.34572,0 -21.84095,2.29905 -33.33619,6.89714c-35.63524,13.79429 -62.07429,45.98096 -62.07429,73.56953c0,3.44857 0,5.74762 1.14952,8.04667c1.14952,5.74762 4.5981,11.49524 9.19619,16.09333c2.29905,2.29905 4.5981,4.5981 8.04667,5.74762c14.94381,6.89714 36.78477,6.89714 58.62572,-1.14952c39.08381,-14.94381 67.82191,-52.8781 62.07429,-80.46667c-2.29905,-8.04667 -5.74762,-13.79429 -10.34572,-17.24286z" class="st4"/>
   <path stroke="null" id="svg_109" fill="#89A9D6" d="m982.42633,1234.22521c39.08381,-13.79429 72.42001,-42.53238 93.11144,-79.31715c35.63524,-62.07429 26.43905,-132.19525 -14.94381,-175.87716c-9.19619,-10.34572 -21.84095,-18.39238 -34.48572,-25.28953c-18.39238,-9.19619 -37.93429,-13.79429 -59.77524,-13.79429c-58.62572,0 -114.95239,34.48572 -145.98954,88.51334c-20.69143,37.93429 -26.43905,79.31715 -17.24286,117.25144c9.19619,33.33619 28.7381,60.92477 56.32667,78.16763c3.44857,2.29905 6.89714,4.5981 11.49524,5.74762c33.33619,16.09333 73.56953,18.39238 111.50382,4.5981zm-117.25144,-162.08287c2.29905,-5.74762 4.5981,-12.64476 8.04667,-18.39238c0,0 0,0 0,0c-5.74762,-4.5981 -6.89714,-10.34572 -5.74762,-17.24286c0,0 0,-1.14952 0,-1.14952c1.14952,-6.89714 6.89714,-11.49524 13.79429,-13.79429c5.74762,-2.29905 12.64476,-1.14952 18.39238,2.29905c29.88762,-22.99048 68.97143,-28.7381 100.00858,-13.79429c28.7381,13.79429 45.98096,42.53238 44.83143,74.71905c0,14.94381 -4.5981,29.88762 -11.49524,44.83143l-3.44857,6.89714l-3.44857,-6.89714c-2.29905,-4.5981 -6.89714,-9.19619 -11.49524,-11.49524c-6.89714,-3.44857 -13.79429,-3.44857 -21.84095,-1.14952c-9.19619,2.29905 -16.09333,9.19619 -20.69143,17.24286c-3.44857,4.5981 -4.5981,10.34572 -4.5981,16.09333c0,9.19619 3.44857,17.24286 10.34572,22.99048l3.44857,2.29905l1.14952,1.14952l-5.74762,2.29905c-11.49524,4.5981 -22.99048,6.89714 -34.48572,6.89714c-13.79429,0 -26.43905,-3.44857 -37.93429,-8.04667c-37.93429,-19.54191 -54.02762,-64.37334 -39.08381,-105.7562z" class="st4"/>
   <path stroke="null" id="svg_110" fill="#89A9D6" d="m2079.07214,1148.01091c10.34572,-37.93429 3.44857,-80.46667 -17.24286,-117.25144c-29.88762,-55.17715 -86.21429,-89.66287 -144.84001,-89.66287c-21.84095,0 -41.38286,4.5981 -59.77524,13.79429c-12.64476,6.89714 -24.14,14.94381 -33.33619,24.14c-42.53238,43.68191 -51.72858,114.95239 -17.24286,178.17621c20.69143,37.93429 54.02762,65.52286 93.11144,79.31715c37.93429,13.79429 78.16763,11.49524 111.50382,-4.5981c4.5981,-2.29905 8.04667,-4.5981 12.64476,-6.89714c26.43905,-17.24286 45.98096,-43.68191 55.17715,-77.0181zm-101.1581,28.7381c-11.49524,5.74762 -24.14,8.04667 -37.93429,8.04667c-11.49524,0 -22.99048,-2.29905 -34.48572,-6.89714l-4.5981,-2.29905l-1.14952,0l4.5981,-3.44857c6.89714,-4.5981 10.34572,-13.79429 10.34572,-21.84095c0,-5.74762 -1.14952,-11.49524 -4.5981,-17.24286c-4.5981,-8.04667 -12.64476,-14.94381 -20.69143,-17.24286c-6.89714,-2.29905 -14.94381,-1.14952 -21.84095,1.14952c-4.5981,2.29905 -9.19619,6.89714 -11.49524,11.49524l-3.44857,6.89714l-3.44857,-6.89714c-6.89714,-13.79429 -11.49524,-28.7381 -11.49524,-43.68191c-1.14952,-32.18667 14.94381,-63.22382 44.83143,-77.0181c31.03715,-14.94381 70.12096,-10.34572 100.00858,13.79429c5.74762,-3.44857 11.49524,-4.5981 18.39238,-2.29905c6.89714,2.29905 12.64476,8.04667 13.79429,13.79429c0,1.14952 0,1.14952 0,2.29905c1.14952,5.74762 -1.14952,12.64476 -5.74762,16.09333c0,0 0,0 0,1.14952c8.04667,14.94381 12.64476,29.88762 13.79429,44.83143c1.14952,33.33619 -14.94381,64.37334 -44.83143,79.31715z" class="st4"/>
   <path stroke="null" id="svg_111" fill="#89A9D6" d="m2190.57596,1329.63569c-11.49524,-4.5981 -22.99048,-6.89714 -33.33619,-6.89714c-9.19619,0 -18.39238,2.29905 -24.14,4.5981c-4.5981,2.29905 -9.19619,5.74762 -11.49524,10.34572c-2.29905,3.44857 -4.5981,6.89714 -5.74762,11.49524c-5.74762,28.7381 22.99048,65.52286 62.07429,81.6162c21.84095,8.04667 43.68191,9.19619 58.62572,1.14952c2.29905,-1.14952 3.44857,-2.29905 5.74762,-3.44857c5.74762,-4.5981 9.19619,-10.34572 11.49524,-18.39238c4.5981,-27.58857 -24.14,-64.37334 -63.22382,-80.46667z" class="st4"/>
   <path stroke="null" id="svg_112" fill="#89A9D6" d="m2413.5836,1358.37379l0,0l-1.14952,-3.44857c0,-147.13906 -88.51334,-288.5305 -248.29716,-398.8848l-1.14952,-1.14952l0,-1.14952c-18.39238,-122.99906 -131.04573,-216.1105 -264.3905,-216.1105c0,0 0,0 -1.14952,0c-56.32667,0 -110.3543,16.09333 -155.18573,47.13048l-1.14952,1.14952l-1.14952,0c0,0 0,0 0,0c-96.56001,-19.54191 -196.56859,-28.7381 -298.87622,-28.7381c0,0 0,0 0,0c-102.30763,0 -202.31621,9.19619 -298.87622,28.7381l-1.14952,0l0,0l-1.14952,-1.14952c-45.98096,-31.03715 -100.00858,-47.13048 -156.33525,-47.13048c0,0 0,0 0,0c-133.34477,0 -245.99812,93.11144 -264.3905,216.1105l0,1.14952l-1.14952,1.14952c-159.78382,109.20477 -248.29716,251.74574 -248.29716,398.8848l0,2.29905l-1.14952,1.14952c-171.27906,103.45715 -260.94193,227.60573 -260.94193,359.80098c0,110.3543 65.52286,216.1105 188.52192,309.22193c0,0 1.14952,1.14952 1.14952,1.14952c-8.04667,-20.69143 -12.64476,-41.38286 -12.64476,-62.07429c0,-97.70953 91.96191,-191.97049 259.7924,-263.24098c18.39238,-8.04667 39.08381,-16.09333 59.77524,-22.99048c43.68191,-16.09333 90.81239,-29.88762 141.39144,-42.53238c0,0 1.14952,0 1.14952,0c3.44857,-1.14952 5.74762,-1.14952 9.19619,-2.29905c42.53238,-10.34572 86.21429,-19.54191 133.34477,-27.58857c127.59715,-21.84095 256.34383,-32.18667 385.09051,-32.18667l136.79335,0l1.14952,0c128.74668,0 258.64288,10.34572 385.09051,32.18667c45.98096,8.04667 89.66287,17.24286 131.04573,27.58857c3.44857,1.14952 6.89714,1.14952 10.34572,2.29905c0,0 0,0 0,0c50.57905,12.64476 98.85906,27.58857 142.54096,43.68191c20.69143,6.89714 41.38286,14.94381 59.77524,22.99048c167.83049,71.27048 259.7924,164.38192 259.7924,263.24098c0,20.69143 -4.5981,40.23334 -12.64476,60.92477c0,0 0,1.14952 0,1.14952c124.14858,-93.11144 188.52192,-200.01716 188.52192,-310.37146c-2.29905,-133.34477 -91.96191,-257.49336 -263.24098,-360.95051zm-1695.54777,105.7562c0,0 0,0 0,0c-16.09333,6.89714 -32.18667,9.19619 -48.28,9.19619c0,0 0,0 0,0c-16.09333,0 -29.88762,-3.44857 -42.53238,-9.19619c-19.54191,-9.19619 -32.18667,-26.43905 -36.78477,-45.98096c-1.14952,-5.74762 -1.14952,-11.49524 -1.14952,-17.24286c1.14952,-41.38286 35.63524,-83.91525 85.06477,-103.45715c0,0 1.14952,0 1.14952,0c16.09333,-6.89714 32.18667,-9.19619 48.28,-9.19619c16.09333,0 29.88762,3.44857 42.53238,9.19619c11.49524,5.74762 20.69143,13.79429 26.43905,22.99048c0,1.14952 1.14952,1.14952 1.14952,2.29905c0,0 0,1.14952 1.14952,1.14952c3.44857,5.74762 5.74762,12.64476 8.04667,19.54191c0,0 0,0 0,1.14952c1.14952,2.29905 1.14952,5.74762 1.14952,9.19619c3.44857,41.38286 -33.33619,89.66287 -86.21429,110.3543zm398.8848,-288.5305c-26.43905,47.13048 -67.82191,82.76572 -118.40096,100.00858c-22.99048,8.04667 -45.98096,12.64476 -67.82191,12.64476c-21.84095,0 -42.53238,-3.44857 -62.07429,-10.34572c-4.5981,-1.14952 -8.04667,-3.44857 -12.64476,-4.5981c-2.29905,-1.14952 -4.5981,-2.29905 -6.89714,-2.29905c0,0 -1.14952,0 -1.14952,-1.14952c-40.23334,-20.69143 -70.12096,-55.17715 -85.06477,-98.85906c-1.14952,0 -1.14952,0 -2.29905,0c-14.94381,2.29905 -26.43905,14.94381 -26.43905,32.18667c0,22.99048 -25.28953,41.38286 -49.42953,27.58857c0,0 0,0 0,0c-9.19619,-4.5981 -14.94381,-16.09333 -14.94381,-26.43905l0,-2.29905c0,-34.48572 28.7381,-63.22382 64.37334,-63.22382c8.04667,0 14.94381,1.14952 21.84095,3.44857c-1.14952,-1.14952 -1.14952,-1.14952 -1.14952,-2.29905c-2.29905,-4.5981 -4.5981,-10.34572 -9.19619,-13.79429c-4.5981,-4.5981 -9.19619,-6.89714 -13.79429,-9.19619c-14.94381,-5.74762 -32.18667,-3.44857 -43.68191,8.04667c-12.64476,11.49524 -29.88762,17.24286 -45.98096,10.34572c0,0 -1.14952,-1.14952 -1.14952,-1.14952c-27.58857,-12.64476 -31.03715,-47.13048 -12.64476,-65.52286c0,0 0,0 1.14952,-1.14952c0,0 0,-1.14952 1.14952,-1.14952c25.28953,-25.28953 64.37334,-29.88762 94.26096,-13.79429c8.04667,3.44857 14.94381,9.19619 21.84095,14.94381c3.44857,3.44857 5.74762,6.89714 8.04667,10.34572c1.14952,1.14952 1.14952,2.29905 2.29905,3.44857c3.44857,-24.14 11.49524,-48.28 24.14,-70.12096c26.43905,-47.13048 68.97143,-82.76572 119.55049,-100.00858c50.57905,-17.24286 102.30763,-14.94381 147.13906,6.89714c0,0 1.14952,0 1.14952,0c90.81239,43.68191 121.84953,160.93335 67.82191,257.49336zm94.26096,-205.76478c0,0 0,0 0,0c-3.44857,3.44857 -8.04667,4.5981 -13.79429,4.5981c-17.24286,0 -42.53238,-13.79429 -65.52286,-36.78477c-22.99048,-22.99048 -36.78477,-49.42953 -36.78477,-65.52286c0,-5.74762 1.14952,-10.34572 4.5981,-13.79429c12.64476,-12.64476 48.28,1.14952 79.31715,32.18667c22.99048,22.99048 36.78477,48.28 36.78477,65.52286c0,5.74762 -1.14952,10.34572 -4.5981,13.79429zm426.47337,303.47431c0,0 0,0 0,0c10.34572,3.44857 17.24286,12.64476 17.24286,22.99048c0,0 0,0 0,0c0,18.39238 -18.39238,32.18667 -35.63524,26.43905c-34.48572,-12.64476 -60.92477,-44.83143 -67.82191,-81.6162c-34.48572,-11.49524 -72.42001,-17.24286 -111.50382,-17.24286c-39.08381,0 -77.0181,5.74762 -111.50382,17.24286c0,0 0,0 0,0c0,0 0,1.14952 0,1.14952c-5.74762,36.78477 -32.18667,67.82191 -67.82191,81.6162c0,0 0,0 0,0c-17.24286,6.89714 -35.63524,-6.89714 -35.63524,-26.43905c0,0 0,0 0,0c0,-4.5981 1.14952,-10.34572 4.5981,-13.79429s6.89714,-6.89714 12.64476,-9.19619c0,0 0,0 0,0c6.89714,-2.29905 13.79429,-6.89714 19.54191,-12.64476c9.19619,-9.19619 14.94381,-21.84095 14.94381,-36.78477c0,0 0,0 0,0c0,-14.94381 -5.74762,-27.58857 -14.94381,-36.78477c-5.74762,-5.74762 -11.49524,-10.34572 -19.54191,-12.64476c0,0 0,0 0,0c-10.34572,-3.44857 -17.24286,-12.64476 -17.24286,-22.99048c0,-18.39238 18.39238,-32.18667 35.63524,-26.43905c0,0 0,0 0,0c29.88762,11.49524 52.8781,34.48572 63.22382,65.52286c0,0 0,0 0,0c35.63524,-10.34572 74.71905,-16.09333 112.65334,-16.09333c1.14952,0 1.14952,0 2.29905,0c40.23334,0 79.31715,5.74762 116.10191,16.09333c10.34572,-29.88762 33.33619,-54.02762 63.22382,-65.52286c0,0 0,0 0,0c3.44857,-1.14952 5.74762,-1.14952 9.19619,-1.14952c0,0 0,0 0,0c13.79429,0 27.58857,11.49524 27.58857,27.58857c0,0 0,0 0,0c0,2.29905 0,4.5981 -1.14952,8.04667c-1.14952,2.29905 -2.29905,4.5981 -3.44857,6.89714c-3.44857,3.44857 -6.89714,6.89714 -12.64476,9.19619c0,0 0,0 0,0c-19.54191,6.89714 -34.48572,26.43905 -34.48572,49.42953c0,0 0,0 0,0c0,20.69143 13.79429,40.23334 34.48572,47.13048zm32.18667,-303.47431c-12.64476,-12.64476 1.14952,-48.28 32.18667,-79.31715c22.99048,-22.99048 48.28,-36.78477 65.52286,-36.78477c5.74762,0 10.34572,1.14952 13.79429,4.5981c12.64476,12.64476 -1.14952,48.28 -32.18667,79.31715c-8.04667,8.04667 -16.09333,13.79429 -24.14,19.54191c-24.14,16.09333 -45.98096,21.84095 -55.17715,12.64476zm360.95051,298.87622c-25.28953,12.64476 -51.72858,18.39238 -80.46667,18.39238c-74.71905,0 -148.28858,-43.68191 -186.22287,-111.50382c-29.88762,-54.02762 -33.33619,-114.95239 -14.94381,-165.53144c14.94381,-40.23334 43.68191,-74.71905 83.91525,-94.26096c44.83143,-22.99048 98.85906,-25.28953 149.43811,-6.89714c49.42953,18.39238 91.96191,52.8781 118.40096,100.00858c12.64476,21.84095 20.69143,45.98096 24.14,70.12096c3.44857,-4.5981 6.89714,-9.19619 10.34572,-13.79429c32.18667,-32.18667 83.91525,-32.18667 116.10191,-1.14952l1.14952,1.14952c0,0 0,0 1.14952,1.14952c8.04667,8.04667 11.49524,19.54191 11.49524,29.88762c0,10.34572 -4.5981,19.54191 -12.64476,27.58857c-16.09333,16.09333 -41.38286,16.09333 -57.4762,1.14952c-13.79429,-12.64476 -34.48572,-17.24286 -50.57905,-8.04667c-9.19619,5.74762 -14.94381,12.64476 -18.39238,20.69143c0,1.14952 -1.14952,1.14952 -1.14952,2.29905c0,0 1.14952,0 1.14952,0c12.64476,-4.5981 25.28953,-5.74762 40.23334,-1.14952c27.58857,8.04667 44.83143,35.63524 44.83143,64.37334c0,0 0,1.14952 0,1.14952c0,9.19619 -4.5981,17.24286 -12.64476,21.84095c-25.28953,14.94381 -51.72858,-2.29905 -51.72858,-26.43905c0,-17.24286 -12.64476,-29.88762 -29.88762,-32.18667c-14.94381,45.98096 -44.83143,80.46667 -86.21429,101.1581zm258.64288,149.43811c-1.14952,2.29905 -1.14952,4.5981 -2.29905,6.89714c-4.5981,13.79429 -13.79429,26.43905 -27.58857,34.48572c-2.29905,1.14952 -4.5981,2.29905 -6.89714,3.44857c-12.64476,6.89714 -26.43905,9.19619 -42.53238,9.19619c-16.09333,0 -32.18667,-3.44857 -48.28,-9.19619c-56.32667,-21.84095 -94.26096,-74.71905 -85.06477,-120.70001c0,-2.29905 1.14952,-4.5981 2.29905,-6.89714c4.5981,-13.79429 13.79429,-26.43905 27.58857,-34.48572c2.29905,-1.14952 4.5981,-2.29905 6.89714,-3.44857c3.44857,-1.14952 6.89714,-3.44857 10.34572,-4.5981c10.34572,-3.44857 21.84095,-5.74762 33.33619,-5.74762c3.44857,0 8.04667,0 11.49524,1.14952c11.49524,1.14952 24.14,4.5981 36.78477,9.19619c56.32667,21.84095 93.11144,74.71905 83.91525,120.70001z" class="st4"/>
   <path stroke="null" id="svg_113" fill="#FFFFFF" d="m2986.04651,961.78804l-121.84953,-347.15622c-14.94381,-42.53238 -51.72858,-75.86858 -96.56001,-85.06477c-9.19619,-2.29905 -18.39238,-3.44857 -27.58857,-3.44857c-35.63524,0 -70.12096,14.94381 -95.41048,40.23334l-255.19431,265.54002c-37.93429,40.23334 -44.83143,100.00858 -13.79429,147.13906c17.24286,26.43905 43.68191,44.83143 74.71905,51.72858l396.58575,86.21429c8.04667,2.29905 17.24286,2.29905 25.28953,2.29905c22.99048,0 44.83143,-6.89714 64.37334,-19.54191c47.13048,-27.58857 67.82191,-85.06477 49.42953,-137.94287zm-75.86858,98.85906c-14.94381,10.34572 -33.33619,12.64476 -51.72858,9.19619l-396.58575,-86.21429c-18.39238,-3.44857 -33.33619,-14.94381 -43.68191,-29.88762c-6.89714,-10.34572 -10.34572,-21.84095 -10.34572,-33.33619c-1.14952,-18.39238 4.5981,-37.93429 18.39238,-52.8781l255.19431,-265.54002c19.54191,-19.54191 48.28,-28.7381 75.86858,-22.99048s49.42953,26.43905 58.62572,51.72858l121.84953,347.15622c2.29905,8.04667 3.44857,16.09333 3.44857,24.14c0,22.99048 -11.49524,45.98096 -31.03715,58.62572z" class="st1"/>
   <path stroke="null" id="svg_114" fill="#FFFFFF" d="m2897.53316,993.97471l-120.70001,-348.30574c-4.5981,-12.64476 -14.94381,-22.99048 -28.7381,-25.28953c-12.64476,-2.29905 -27.58857,1.14952 -36.78477,11.49524l-255.19431,265.54002c-5.74762,5.74762 -8.04667,12.64476 -8.04667,19.54191c0,4.5981 2.29905,9.19619 4.5981,12.64476c4.5981,5.74762 10.34572,10.34572 17.24286,11.49524l396.58575,86.21429c6.89714,2.29905 14.94381,0 20.69143,-3.44857c4.5981,-2.29905 6.89714,-5.74762 9.19619,-9.19619c3.44857,-6.89714 3.44857,-13.79429 1.14952,-20.69143zm-191.97049,-62.07429l-5.74762,29.88762l-49.42953,-10.34572l0,-1.14952l0,0l8.04667,-39.08381l2.29905,-9.19619l0,0l0,-1.14952l49.42953,10.34572l-4.5981,20.69143zm9.19619,-36.78477l0,0l-1.14952,1.14952l-49.42953,-10.34572l45.98096,-211.5124l1.14952,0l0,-1.14952l49.42953,10.34572l-45.98096,211.5124z" class="st1"/>
   <path stroke="null" id="svg_115" fill="#C63434" d="m2815.91697,631.87468c-9.19619,-26.43905 -32.18667,-45.98096 -58.62572,-51.72858c-27.58857,-5.74762 -56.32667,3.44857 -75.86858,22.99048l-255.19431,265.54002c-13.79429,13.79429 -19.54191,33.33619 -18.39238,51.72858c1.14952,11.49524 4.5981,22.99048 10.34572,33.33619c10.34572,14.94381 25.28953,26.43905 43.68191,29.88762l396.58575,86.21429c18.39238,3.44857 36.78477,1.14952 51.72858,-9.19619c19.54191,-12.64476 31.03715,-35.63524 31.03715,-58.62572c0,-6.89714 -1.14952,-14.94381 -3.44857,-21.84095l-121.84953,-348.30574zm80.46667,382.79146c-2.29905,3.44857 -5.74762,6.89714 -9.19619,9.19619c-5.74762,3.44857 -13.79429,5.74762 -20.69143,3.44857l-396.58575,-86.21429c-6.89714,-1.14952 -12.64476,-5.74762 -17.24286,-11.49524c-2.29905,-3.44857 -3.44857,-8.04667 -4.5981,-12.64476c0,-6.89714 2.29905,-14.94381 8.04667,-20.69143l255.19431,-265.54002c9.19619,-9.19619 22.99048,-13.79429 36.78477,-11.49524c12.64476,2.29905 24.14,12.64476 28.7381,25.28953l121.84953,347.15622c2.29905,8.04667 1.14952,16.09333 -2.29905,22.99048z" class="st5"/>
   <polygon stroke="null" id="svg_116" fill="#C63434" points="2711.3106331258714,674.4075748583982 2665.3296548651233,884.7696322507963 2713.6092030038526,895.1155918769928 2714.758487942843,895.1155918769928 2760.7394662035913,684.7521372990141 2711.3106331258714,673.256892733827 " class="st5"/>
   <polygon stroke="null" id="svg_117" fill="#C63434" points="2660.7313175215204,902.0124990985769 2658.432747643539,911.2091737857827 2650.385357895324,950.2934444228868 2650.385357895324,950.2934444228868 2699.8153885606844,960.6380068635026 2705.563010843278,931.899895450535 2710.161348186881,911.2091737857827 2660.7313175215204,900.8632141595863 " class="st5"/>
   <path stroke="null" id="svg_118" fill="#FFFFFF" d="m99.59197,1007.76899c4.5981,3.44857 10.34572,4.5981 16.09333,2.29905l308.07241,-66.67239c5.74762,-1.14952 10.34572,-4.5981 12.64476,-9.19619c1.14952,-1.14952 1.14952,-2.29905 2.29905,-4.5981c1.14952,-6.89714 0,-13.79429 -4.5981,-18.39238l-197.71811,-205.76478c-8.04667,-8.04667 -18.39238,-11.49524 -28.7381,-9.19619s-18.39238,9.19619 -21.84095,19.54191l-94.26096,268.9886c-1.14952,2.29905 -1.14952,4.5981 -1.14952,6.89714c0,5.74762 3.44857,12.64476 9.19619,16.09333zm175.87716,-93.11144l0,0l9.19619,37.93429l-37.93429,8.04667l0,-1.14952l0,0l-8.04667,-37.93429l36.78477,-6.89714l0,0zm-39.08381,-177.02668l0,0l0,0l36.78477,164.38192l-37.93429,8.04667l0,-1.14952l0,0l-35.63524,-163.2324l36.78477,-8.04667z" class="st1"/>
   <path stroke="null" id="svg_119" fill="#FFFFFF" d="m505.37391,980.18042c26.43905,-40.23334 20.69143,-93.11144 -12.64476,-127.59715l-197.71811,-205.76478c-20.69143,-21.84095 -50.57905,-34.48572 -81.6162,-34.48572c-8.04667,0 -16.09333,1.14952 -24.14,2.29905c-37.93429,8.04667 -70.12096,36.78477 -82.76572,73.56953l-94.26096,268.9886c-16.09333,45.98096 1.14952,95.41048 41.38286,121.84953c17.24286,10.34572 35.63524,16.09333 56.32667,16.09333c6.89714,0 14.94381,-1.14952 21.84095,-2.29905l308.07241,-66.67239c27.58857,-5.74762 50.57905,-21.84095 65.52286,-45.98096zm-382.79146,63.22382c-13.79429,3.44857 -27.58857,0 -40.23334,-6.89714c-8.04667,-5.74762 -13.79429,-12.64476 -18.39238,-19.54191c-8.04667,-12.64476 -10.34572,-29.88762 -4.5981,-44.83143l94.26096,-268.9886c6.89714,-20.69143 25.28953,-35.63524 45.98096,-40.23334c20.69143,-3.44857 43.68191,2.29905 58.62572,18.39238l197.71811,205.76478c6.89714,6.89714 11.49524,14.94381 13.79429,24.14c4.5981,14.94381 2.29905,31.03715 -5.74762,43.68191c-8.04667,11.49524 -19.54191,20.69143 -33.33619,22.99048l-308.07241,65.52286z" class="st1"/>
   <path stroke="null" id="svg_120" fill="#C63434" d="m81.19958,1034.20804c11.49524,8.04667 26.43905,10.34572 40.23334,6.89714l308.07241,-66.67239c13.79429,-1.14952 26.43905,-9.19619 33.33619,-21.84095c8.04667,-12.64476 10.34572,-27.58857 6.89714,-41.38286c-2.29905,-9.19619 -6.89714,-17.24286 -13.79429,-24.14l-197.71811,-205.76478c-14.94381,-16.09333 -37.93429,-21.84095 -58.62572,-18.39238c-20.69143,4.5981 -39.08381,19.54191 -45.98096,40.23334l-94.26096,268.9886c-5.74762,14.94381 -3.44857,31.03715 4.5981,44.83143c4.5981,6.89714 10.34572,12.64476 17.24286,17.24286zm10.34572,-49.42953l94.26096,-268.9886c3.44857,-10.34572 11.49524,-17.24286 21.84095,-19.54191s20.69143,1.14952 28.7381,9.19619l197.71811,205.76478c4.5981,4.5981 5.74762,11.49524 4.5981,18.39238c0,2.29905 -1.14952,3.44857 -2.29905,5.74762c-3.44857,4.5981 -8.04667,8.04667 -12.64476,9.19619l-308.07241,66.67239c-5.74762,1.14952 -11.49524,0 -16.09333,-2.29905c-5.74762,-4.5981 -9.19619,-10.34572 -9.19619,-17.24286c0,-2.29905 0,-4.5981 1.14952,-6.89714z" class="st5"/>
   <polygon stroke="null" id="svg_121" fill="#C63434" points="234.08655206648132,908.909406320161 235.23583700547192,910.0600884447322 273.1706231056453,902.0124990985769 237.53420728551305,738.7807049059174 236.38512194446253,738.7807049059174 198.45153343192965,746.8266974685521 " class="st5"/>
   <polygon stroke="null" id="svg_122" fill="#C63434" points="245.58179663166834,960.6380068635026 246.73108157065894,961.7886889880738 284.6658676708323,952.5918147029279 276.618278324677,914.6570286027545 275.4691929836265,914.6570286027545 237.53420728551305,922.7044183509697 " class="st5"/>
   <polygon stroke="null" id="svg_123" fill="#C63434" points="1380.1611328390684,330.69972243971824 1322.6849100131333,388.17594526565335 1322.6849100131333,388.17594526565335 1381.310417778059,446.801253432639 1439.9375223265054,388.17594526565335 1498.562630895551,446.801253432639 1557.1881386604766,389.32523020464396 1558.3374235994672,388.17594526565335 1498.562630895551,329.55043750072764 1498.562630895551,329.55043750072764 1557.1881386604766,270.92353255022135 1558.3374235994672,269.77444720917083 1498.562630895551,212.29822438323572 1498.562630895551,212.29822438323572 1439.9375223265054,270.92353255022135 1381.310417778059,212.29822438323572 1322.6849100131333,270.92353255022135 1381.310417778059,329.55043750072764 " class="st5"/>
   <path stroke="null" id="svg_124" fill="#C63434" d="m1174.39682,370.93275c1.14952,4.5981 1.14952,9.19619 2.29905,13.79429c25.28953,122.99906 133.34477,214.96097 263.24098,214.96097s237.95145,-91.96191 263.24098,-214.96097c1.14952,-4.5981 1.14952,-9.19619 2.29905,-13.79429c1.14952,-9.19619 2.29905,-18.39238 2.29905,-27.58857c0,-4.5981 0,-9.19619 0,-13.79429l0,0c0,-148.28858 -120.70001,-268.9886 -268.9886,-268.9886s-268.9886,120.70001 -268.9886,268.9886l0,0c0,4.5981 0,9.19619 0,13.79429c2.29905,9.19619 3.44857,18.39238 4.5981,27.58857zm62.07429,-104.60668c20.69143,-66.67239 73.56953,-119.55049 140.24192,-140.24192c19.54191,-5.74762 41.38286,-9.19619 63.22382,-9.19619c117.25144,0 212.66192,95.41048 212.66192,212.66192s-95.41048,212.66192 -212.66192,212.66192c-21.84095,0 -43.68191,-3.44857 -63.22382,-9.19619c-47.13048,-14.94381 -86.21429,-44.83143 -112.65334,-83.91525c-22.99048,-34.48572 -36.78477,-74.71905 -36.78477,-118.40096c0,-22.99048 3.44857,-44.83143 9.19619,-64.37334z" class="st5"/>
  </g>
 </g>
</svg>