<svg width="3000" height="2487" xmlns="http://www.w3.org/2000/svg" xml:space="preserve" version="1.1">

 <g>
  <title>Layer 1</title>
  <g stroke="null" id="svg_1">
   <path stroke="null" id="svg_2" fill="#FFFFFF" d="m1778.62945,912.34422c-12.5742,-13.34762 -48.01059,1.21342 -78.87453,33.97576c-30.86395,32.76234 -44.58126,69.16494 -32.00706,83.72598c12.5742,13.34762 48.01059,-1.21342 78.87453,-33.97576c30.86395,-32.76234 45.72437,-70.37836 32.00706,-83.72598z" class="st0"/>
   <path stroke="null" id="svg_3" fill="#FFFFFF" d="m2006.10817,1117.4122c5.71555,-4.85368 8.00176,-12.1342 5.71555,-19.41472c-1.14311,-7.28052 -6.85866,-12.1342 -13.71731,-14.56104c-5.71555,-2.42684 -12.5742,-1.21342 -18.28975,2.42684c-29.72084,-24.2684 -68.58655,-30.3355 -99.4505,-14.56104c-42.29504,21.84156 -57.15546,80.08572 -33.15017,127.4091l3.42933,7.28052l3.42933,-7.28052c2.28622,-4.85368 6.85866,-9.70736 11.43109,-12.1342c6.85866,-3.64026 13.71731,-3.64026 21.71907,-1.21342c9.14487,2.42684 16.00353,9.70736 20.57597,18.2013c8.00176,14.56104 5.71555,31.54892 -5.71555,41.25628l-4.57244,3.64026l5.71555,2.42684c11.43109,4.85368 22.86218,7.28052 34.29328,7.28052c13.71731,0 26.29151,-3.64026 37.7226,-8.49394c43.43815,-24.2684 58.29857,-83.72598 30.86395,-132.26278c0,0 0,0 0,0z" class="st0"/>
   <path stroke="null" id="svg_4" fill="#FFFFFF" d="m1636.88391,1247.24814c10.28798,-3.64026 17.14664,-13.34762 17.14664,-24.2684c0,-16.98788 -12.5742,-29.12208 -27.43462,-29.12208c-3.42933,0 -5.71555,0 -9.14487,1.21342c-29.72084,10.92078 -52.58302,36.4026 -62.871,69.16494c-36.57949,-10.92078 -75.44521,-16.98788 -115.45403,-16.98788c-40.00882,0 -78.87453,6.0671 -114.31092,16.98788c-10.28798,-31.54892 -33.15017,-57.03074 -62.871,-69.16494c-17.14664,-7.28052 -35.43638,7.28052 -35.43638,27.90866c0,10.92078 6.85866,20.62814 17.14664,24.2684c19.43286,7.28052 34.29328,27.90866 34.29328,52.17706c0,24.2684 -13.71731,43.68312 -34.29328,52.17706c-10.28798,3.64026 -17.14664,13.34762 -17.14664,24.2684c0,19.41472 18.28975,33.97576 35.43638,27.90866c35.43638,-13.34762 61.7279,-47.32338 67.44344,-87.36624c34.29328,-12.1342 72.01588,-18.2013 110.88159,-18.2013c38.86571,0 76.58832,6.0671 110.88159,18.2013c5.71555,40.04286 32.00706,72.8052 67.44344,86.15282c17.14664,7.28052 35.43638,-7.28052 35.43638,-27.90866c0,-10.92078 -6.85866,-20.62814 -17.14664,-24.2684c-19.43286,-7.28052 -34.29328,-27.90866 -34.29328,-52.17706c0,-23.05498 13.71731,-43.68312 34.29328,-50.96364z" class="st0"/>
   <path stroke="null" id="svg_5" fill="#FFFFFF" d="m770.40715,1375.87066c-25.1484,-13.34762 -58.29857,-13.34762 -90.30563,0c-57.15546,23.05498 -93.73495,80.08572 -84.59008,127.4091c4.57244,20.62814 17.14664,38.82944 36.57949,48.5368c12.5742,7.28052 26.29151,9.70736 42.29504,9.70736c16.00353,0 32.00706,-3.64026 48.01059,-9.70736c57.15546,-23.05498 93.73495,-78.8723 84.59008,-127.4091c-4.57244,-21.84156 -18.28975,-38.82944 -36.57949,-48.5368zm-62.871,140.75672l0,0c-21.71907,8.49394 -43.43815,9.70736 -58.29857,1.21342c-9.14487,-4.85368 -14.86042,-12.1342 -17.14664,-23.05498c0,-2.42684 -1.14311,-4.85368 -1.14311,-8.49394c0,-29.12208 27.43462,-63.09784 61.7279,-77.65888c11.43109,-4.85368 22.86218,-7.28052 33.15017,-7.28052c9.14487,0 18.28975,2.42684 24.00529,4.85368c9.14487,4.85368 14.86042,12.1342 17.14664,23.05498c8.00176,31.54892 -20.57597,71.59178 -59.44168,87.36624z" class="st0"/>
   <path stroke="null" id="svg_6" fill="#FFFFFF" d="m2143.28128,1275.1568c0,25.48182 26.29151,43.68312 51.43991,27.90866c8.00176,-4.85368 12.5742,-14.56104 12.5742,-24.2684c0,-30.3355 -17.14664,-58.24416 -44.58126,-67.95152c-14.86042,-4.85368 -28.57773,-3.64026 -41.15193,1.21342c0,-1.21342 1.14311,-1.21342 1.14311,-2.42684c3.42933,-8.49394 9.14487,-15.77446 18.28975,-21.84156c16.00353,-10.92078 36.57949,-6.0671 50.2968,8.49394c16.00353,15.77446 41.15193,15.77446 57.15546,-1.21342c16.00353,-16.98788 16.00353,-43.68312 1.14311,-60.671c0,0 -1.14311,0 -1.14311,-1.21342c0,0 0,-1.21342 -1.14311,-1.21342c-32.00706,-32.76234 -83.44697,-32.76234 -115.45403,1.21342c-4.57244,4.85368 -8.00176,9.70736 -10.28798,14.56104c-3.42933,-25.48182 -11.43109,-50.96364 -24.00529,-74.01862c-26.29151,-49.75022 -67.44344,-86.15282 -117.74025,-105.56754c-50.2968,-19.41472 -102.87983,-16.98788 -148.60419,7.28052c-92.59184,48.5368 -123.45579,171.09222 -68.58655,274.23292c37.7226,71.59178 110.88159,117.70174 185.18369,117.70174c28.57773,0 56.01235,-7.28052 80.01764,-19.41472c41.15193,-21.84156 70.87277,-58.24416 85.73319,-105.56754c16.00353,0 29.72084,14.56104 29.72084,32.76234zm-66.30033,-58.24416c-10.28798,40.04286 -33.15017,71.59178 -67.44344,88.57966c-33.15017,16.98788 -73.15899,19.41472 -110.88159,4.85368c-38.86571,-14.56104 -72.01588,-44.89654 -92.59184,-83.72598c-42.29504,-81.29914 -20.57597,-175.9459 50.2968,-213.56192c18.28975,-9.70736 37.7226,-14.56104 59.44168,-14.56104c58.29857,0 114.31092,36.4026 145.17487,93.43334c19.43286,40.04286 25.1484,84.9394 16.00353,124.98226z" class="st0"/>
   <path stroke="null" id="svg_7" fill="#FFFFFF" d="m1049.32579,973.01522c-44.58126,-23.05498 -97.16428,-26.69524 -147.46108,-7.28052c-50.2968,18.2013 -92.59184,55.81732 -118.88335,105.56754c-12.5742,24.2684 -20.57597,48.5368 -24.00529,74.01862c-3.42933,-4.85368 -6.85866,-9.70736 -10.28798,-14.56104c-32.00706,-33.97576 -83.44697,-33.97576 -115.45403,-1.21342c0,0 0,1.21342 -1.14311,1.21342c0,0 -1.14311,0 -1.14311,1.21342c-18.28975,20.62814 -13.71731,57.03074 13.71731,70.37836c16.00353,7.28052 33.15017,2.42684 45.72437,-10.92078c16.00353,-15.77446 41.15193,-15.77446 57.15546,1.21342c4.57244,4.85368 6.85866,9.70736 9.14487,14.56104c0,1.21342 1.14311,1.21342 1.14311,2.42684c-6.85866,-2.42684 -13.71731,-3.64026 -21.71907,-3.64026c-35.43638,0 -62.871,30.3355 -64.01411,66.7381l0,2.42684c0,10.92078 4.57244,21.84156 14.86042,27.90866c24.00529,14.56104 49.15369,-3.64026 49.15369,-29.12208c0,-18.2013 12.5742,-31.54892 28.57773,-33.97576c14.86042,46.10996 44.58126,83.72598 85.73319,105.56754c25.1484,13.34762 52.58302,19.41472 81.16075,19.41472c22.86218,0 45.72437,-4.85368 67.44344,-13.34762c49.15369,-18.2013 91.44873,-55.81732 117.74025,-105.56754c56.01235,-100.71386 25.1484,-224.4827 -67.44344,-273.0195zm29.72084,253.60478c-20.57597,40.04286 -53.72613,69.16494 -92.59184,83.72598c-37.7226,14.56104 -77.73142,12.1342 -110.88159,-4.85368c-33.15017,-18.2013 -57.15546,-48.5368 -67.44344,-88.57966c-10.28798,-40.04286 -3.42933,-84.9394 17.14664,-123.76884c29.72084,-57.03074 86.8763,-93.43334 145.17487,-93.43334c21.71907,0 41.15193,4.85368 59.44168,14.56104c68.58655,36.4026 91.44873,131.04936 49.15369,212.3485z" class="st0"/>
   <path stroke="null" id="svg_8" fill="#FFFFFF" d="m1101.90881,912.34422c-12.5742,13.34762 1.14311,50.96364 32.00706,83.72598c30.86395,32.76234 65.15722,47.32338 78.87453,33.97576c12.5742,-13.34762 -1.14311,-50.96364 -32.00706,-83.72598s-66.30033,-47.32338 -78.87453,-33.97576z" class="st0"/>
   <path stroke="null" id="svg_9" fill="#FFFFFF" d="m1440.26913,578.65372c116.59714,0 211.4752,-100.71386 211.4752,-224.4827c0,-123.76884 -94.87806,-224.4827 -211.4752,-224.4827c-116.59714,0 -211.4752,100.71386 -211.4752,224.4827c0,123.76884 94.87806,224.4827 211.4752,224.4827zm-58.29857,-348.25154l58.29857,61.88442l58.29857,-61.88442l58.29857,61.88442l-58.29857,63.09784l58.29857,61.88442l-58.29857,61.88442l-58.29857,-61.88442l-58.29857,61.88442l-58.29857,-61.88442l58.29857,-61.88442l-59.44168,-61.88442l59.44168,-63.09784z" class="st0"/>
   <path stroke="null" id="svg_10" fill="#FFFFFF" d="m2575.37655,1498.42608c-28.57773,-27.90866 -60.58479,-54.6039 -94.87806,-78.8723l-16.00353,-10.92078l-2.28622,-20.62814c-14.86042,-144.39698 -99.4505,-285.1537 -237.76671,-395.57492l-11.43109,-8.49394l-3.42933,-14.56104c-13.71731,-53.39048 -42.29504,-100.71386 -78.87453,-139.5433c20.57597,13.34762 44.58126,20.62814 70.87277,20.62814c44.58126,0 86.8763,-23.05498 113.16781,-60.671c11.43109,6.0671 25.1484,9.70736 38.86571,9.70736c48.01059,0 86.8763,-41.25628 86.8763,-94.64676s-38.86571,-94.64676 -86.8763,-94.64676c-12.5742,0 -25.1484,2.42684 -36.57949,8.49394c-26.29151,-40.04286 -68.58655,-63.09784 -114.31092,-63.09784c-29.72084,0 -57.15546,9.70736 -81.16075,27.90866c0,-2.42684 0,-6.0671 0,-8.49394c0,-38.82944 -19.43286,-70.37836 -50.2968,-86.15282c32.00706,-27.90866 50.2968,-69.16494 50.2968,-112.84806c0,-81.29914 -61.7279,-146.82382 -138.31621,-146.82382c-77.73142,0 -138.31621,64.31126 -138.31621,146.82382c0,15.77446 2.28622,30.3355 6.85866,44.89654c-2.28622,0 -3.42933,0 -5.71555,0c-14.86042,0 -29.72084,4.85368 -42.29504,14.56104c-13.71731,-10.92078 -30.86395,-16.98788 -48.01059,-15.77446c3.42933,-21.84156 5.71555,-43.68312 5.71555,-65.52468c0,-188.0801 -144.03176,-340.97102 -321.21368,-340.97102c-177.18192,0 -321.21368,152.89092 -321.21368,340.97102c0,21.84156 2.28622,43.68312 5.71555,65.52468c-17.14664,-1.21342 -34.29328,4.85368 -48.01059,15.77446c-12.5742,-9.70736 -27.43462,-14.56104 -42.29504,-14.56104c-2.28622,0 -3.42933,0 -5.71555,0c4.57244,-14.56104 6.85866,-30.3355 6.85866,-44.89654c0,-82.51256 -60.58479,-146.82382 -138.31621,-146.82382c-76.58832,0 -138.31621,65.52468 -138.31621,146.82382c0,43.68312 18.28975,84.9394 50.2968,112.84806c-30.86395,14.56104 -50.2968,47.32338 -50.2968,86.15282c0,2.42684 0,4.85368 0,8.49394c-24.00529,-18.2013 -51.43991,-27.90866 -81.16075,-27.90866c-45.72437,0 -88.01941,24.2684 -114.31092,63.09784c-11.43109,-4.85368 -22.86218,-8.49394 -36.57949,-8.49394c-49.15369,0 -86.8763,41.25628 -86.8763,94.64676s37.7226,94.64676 86.8763,94.64676c13.71731,0 26.29151,-3.64026 38.86571,-9.70736c26.29151,38.82944 68.58655,60.671 113.16781,60.671c26.29151,0 50.2968,-7.28052 70.87277,-20.62814c-36.57949,38.82944 -65.15722,86.15282 -78.87453,139.5433l-3.42933,14.56104l-11.43109,8.49394c-138.31621,110.42122 -222.90629,251.17794 -238.90982,395.57492l-2.28622,19.41472l-16.00353,10.92078c-69.72966,49.75022 -125.74201,105.56754 -166.89394,163.8117c-52.58302,75.23204 -78.87453,154.10434 -78.87453,236.6169c0,188.0801 138.31621,360.38574 390.94334,486.58142c240.05293,121.342 558.98039,188.0801 896.1976,188.0801c166.89394,0 330.35855,-16.98788 484.67829,-48.5368c153.17663,-32.76234 291.49284,-78.8723 410.3762,-139.5433c251.48402,-126.19568 390.94334,-299.71474 390.94334,-486.58142c0,-81.29914 -26.29151,-161.38486 -78.87453,-236.6169c-19.43286,-27.90866 -43.43815,-57.03074 -72.01588,-83.72598zm-222.90629,-832.40613c19.43286,0 33.15017,15.77446 33.15017,37.61602c0,21.84156 -13.71731,37.61602 -33.15017,37.61602c-20.57597,0 -33.15017,-15.77446 -33.15017,-37.61602c0,-21.84156 13.71731,-37.61602 33.15017,-37.61602zm-1825.54536,75.23204c-19.43286,0 -33.15017,-15.77446 -33.15017,-37.61602c0,-21.84156 13.71731,-37.61602 33.15017,-37.61602c19.43286,0 33.15017,15.77446 33.15017,37.61602c1.14311,21.84156 -12.5742,37.61602 -33.15017,37.61602zm1674.65495,-129.83594c48.01059,0 85.73319,41.25628 85.73319,91.0065c0,49.75022 -37.7226,91.0065 -85.73319,91.0065c-46.86748,0 -85.73319,-41.25628 -85.73319,-91.0065c0,-50.96364 38.86571,-91.0065 85.73319,-91.0065zm-218.33385,-327.6234c46.86748,0 84.59008,40.04286 84.59008,89.79308c0,49.75022 -37.7226,89.79308 -84.59008,89.79308c-46.86748,0 -84.59008,-40.04286 -84.59008,-89.79308c-1.14311,-49.75022 36.57949,-89.79308 84.59008,-89.79308zm84.59008,290.00738c0,21.84156 -13.71731,37.61602 -33.15017,37.61602c-20.57597,0 -33.15017,-15.77446 -33.15017,-37.61602c0,-21.84156 13.71731,-37.61602 33.15017,-37.61602c19.43286,0 33.15017,15.77446 33.15017,37.61602zm-347.50519,-19.41472c1.14311,0 2.28622,0 2.28622,0l65.15722,9.70736l0,-1.21342l-41.15193,-57.03074c-5.71555,-8.49394 -3.42933,-20.62814 4.57244,-26.69524l1.14311,0c9.14487,-4.85368 19.43286,-1.21342 24.00529,8.49394l26.29151,65.52468l1.14311,0l27.43462,-64.31126c3.42933,-9.70736 14.86042,-13.34762 24.00529,-8.49394l1.14311,1.21342c9.14487,4.85368 11.43109,18.2013 4.57244,25.48182l-41.15193,55.81732l0,1.21342l62.871,-8.49394c10.28798,-1.21342 18.28975,7.28052 18.28975,16.98788c0,10.92078 -9.14487,19.41472 -18.28975,18.2013l-64.01411,-8.49394l0,1.21342l41.15193,57.03074c5.71555,8.49394 3.42933,20.62814 -4.57244,25.48182l0,0c-9.14487,6.0671 -19.43286,2.42684 -24.00529,-7.28052l-28.57773,-65.52468l-1.14311,0l-26.29151,64.31126c-3.42933,9.70736 -14.86042,13.34762 -24.00529,8.49394l-2.28622,-1.21342c-9.14487,-6.0671 -11.43109,-18.2013 -4.57244,-26.69524l41.15193,-54.6039l0,-1.21342l-65.15722,8.49394c-10.28798,1.21342 -18.28975,-7.28052 -18.28975,-16.98788c1.14311,-10.92078 9.14487,-19.41472 18.28975,-19.41472zm-280.06175,-484.15458c147.46108,0 267.48755,127.4091 267.48755,283.94028c0,156.53118 -120.02646,283.94028 -267.48755,283.94028c-147.46108,0 -267.48755,-127.4091 -267.48755,-283.94028c0,-156.53118 120.02646,-283.94028 267.48755,-283.94028zm-442.38325,484.15458l62.871,8.49394l0,-1.21342l-41.15193,-55.81732c-5.71555,-8.49394 -3.42933,-20.62814 4.57244,-25.48182l1.14311,-1.21342c9.14487,-4.85368 19.43286,-1.21342 24.00529,8.49394l27.43462,64.31126l1.14311,0l26.29151,-65.52468c3.42933,-9.70736 14.86042,-13.34762 24.00529,-8.49394l1.14311,0c9.14487,4.85368 11.43109,16.98788 4.57244,26.69524l-41.15193,57.03074l0,1.21342l65.15722,-9.70736c0,0 1.14311,0 2.28622,0c9.14487,0 17.14664,7.28052 17.14664,18.2013c0,10.92078 -9.14487,19.41472 -18.28975,16.98788l-65.15722,-8.49394l0,1.21342l41.15193,54.6039c5.71555,8.49394 4.57244,20.62814 -4.57244,26.69524l-2.28622,1.21342c-9.14487,4.85368 -19.43286,1.21342 -24.00529,-8.49394l-26.29151,-64.31126l-1.14311,0l-28.57773,65.52468c-4.57244,9.70736 -16.00353,13.34762 -24.00529,7.28052l0,0c-8.00176,-6.0671 -10.28798,-16.98788 -4.57244,-25.48182l41.15193,-57.03074l0,-1.21342l-64.01411,8.49394c-10.28798,1.21342 -18.28975,-7.28052 -18.28975,-18.2013c1.14311,-8.49394 9.14487,-16.98788 19.43286,-15.77446zm-100.59361,-270.59266c48.01059,0 84.59008,40.04286 84.59008,89.79308c0,49.75022 -37.7226,89.79308 -84.59008,89.79308c-46.86748,0 -84.59008,-40.04286 -84.59008,-89.79308c0,-48.5368 37.7226,-89.79308 84.59008,-89.79308zm-18.28975,290.00738c0,21.84156 -12.5742,37.61602 -33.15017,37.61602c-19.43286,0 -33.15017,-15.77446 -33.15017,-37.61602c0,-21.84156 13.71731,-37.61602 33.15017,-37.61602c20.57597,0 33.15017,15.77446 33.15017,37.61602zm-200.04411,219.62902c-48.01059,0 -85.73319,-41.25628 -85.73319,-91.0065c0,-49.75022 37.7226,-91.0065 85.73319,-91.0065c46.86748,0 85.73319,41.25628 85.73319,91.0065c0,49.75022 -38.86571,91.0065 -85.73319,91.0065zm1738.66906,1376.01829c-19.43286,29.12208 -48.01059,54.6039 -81.16075,72.8052c-234.33738,126.19568 -553.26484,195.36062 -895.05449,195.36062c-338.36032,0 -664.14643,-71.59178 -895.05449,-195.36062c-33.15017,-18.2013 -61.7279,-42.4697 -81.16075,-72.8052c-19.43286,-29.12208 -29.72084,-58.24416 -29.72084,-87.36624c0,-140.75672 225.19251,-270.59266 555.55106,-333.6905c123.45579,-23.05498 249.1978,-33.97576 373.7967,-33.97576l153.17663,0c125.74201,0 250.34091,10.92078 373.7967,33.97576c330.35855,63.09784 555.55106,192.93378 555.55106,333.6905c0,29.12208 -10.28798,58.24416 -29.72084,87.36624zm62.871,-21.84156c8.00176,-21.84156 12.5742,-43.68312 12.5742,-65.52468c0,-103.1407 -91.44873,-202.64114 -258.34267,-277.87318c-94.87806,-43.68312 -211.4752,-77.65888 -341.78964,-101.92728c-126.88512,-23.05498 -254.91335,-33.97576 -382.94158,-33.97576l-137.1731,0c-128.02823,0 -257.19957,10.92078 -382.94158,33.97576c-130.31445,24.2684 -246.91158,59.45758 -341.78964,101.92728c-166.89394,75.23204 -258.34267,173.51906 -258.34267,277.87318c0,21.84156 4.57244,43.68312 12.5742,65.52468c-123.45579,-98.28702 -188.61301,-211.13508 -188.61301,-327.6234c0,-138.32988 90.30563,-270.59266 259.48578,-379.80046l1.14311,-1.21342l0,-2.42684c0,-155.31776 88.01941,-304.56842 246.91158,-421.05674l1.14311,-1.21342l0,-1.21342c18.28975,-129.83594 130.31445,-228.12296 262.91511,-228.12296c56.01235,0 109.73848,16.98788 155.46285,49.75022l1.14311,1.21342l1.14311,0c96.02117,-20.62814 195.47167,-30.3355 297.20839,-30.3355c100.59361,0 201.18722,9.70736 297.20839,30.3355l1.14311,0l1.14311,-1.21342c45.72437,-32.76234 99.4505,-49.75022 155.46285,-49.75022c131.45756,0 244.62536,98.28702 262.91511,228.12296l0,1.21342l1.14311,1.21342c158.89218,115.2749 246.91158,265.73898 246.91158,421.05674l0,2.42684l1.14311,1.21342c170.32327,109.2078 259.48578,240.25716 259.48578,379.80046c1.14311,116.48832 -64.01411,229.33638 -186.3268,327.6234z" class="st0"/>
   <path stroke="null" id="svg_11" fill="#FFFFFF" d="m1002.45831,1071.30224c-30.86395,-15.77446 -69.72966,-10.92078 -99.4505,14.56104c-5.71555,-3.64026 -11.43109,-4.85368 -18.28975,-2.42684c-6.85866,2.42684 -12.5742,8.49394 -13.71731,14.56104c-1.14311,7.28052 0,14.56104 5.71555,19.41472c0,0 0,0 0,0c-26.29151,48.5368 -12.5742,107.99438 30.86395,131.04936c11.43109,6.0671 24.00529,8.49394 37.7226,8.49394c11.43109,0 22.86218,-2.42684 34.29328,-7.28052l5.71555,-2.42684l-4.57244,-3.64026c-11.43109,-8.49394 -13.71731,-26.69524 -5.71555,-41.25628c4.57244,-8.49394 12.5742,-15.77446 20.57597,-18.2013c6.85866,-2.42684 14.86042,-1.21342 21.71907,1.21342c4.57244,2.42684 9.14487,7.28052 11.43109,12.1342l3.42933,7.28052l3.42933,-7.28052c25.1484,-47.32338 9.14487,-104.35412 -33.15017,-126.19568z" class="st0"/>
   <path stroke="null" id="svg_12" fill="#FFFFFF" d="m1983.24599,434.25673c30.86395,0 57.15546,-27.90866 57.15546,-60.671c0,-32.76234 -26.29151,-60.671 -57.15546,-60.671c-32.00706,0 -57.15546,26.69524 -57.15546,60.671c0,33.97576 26.29151,60.671 57.15546,60.671z" class="st0"/>
   <path stroke="null" id="svg_13" fill="#FFFFFF" d="m897.29227,434.25673c30.86395,0 57.15546,-27.90866 57.15546,-60.671c0,-33.97576 -25.1484,-60.671 -57.15546,-60.671c-30.86395,0 -57.15546,27.90866 -57.15546,60.671c1.14311,33.97576 27.43462,60.671 57.15546,60.671z" class="st0"/>
   <path stroke="null" id="svg_14" fill="#FFFFFF" d="m2200.43673,1375.87066c-32.00706,-13.34762 -65.15722,-13.34762 -90.30563,0c-19.43286,9.70736 -32.00706,27.90866 -36.57949,48.5368c-9.14487,48.5368 27.43462,104.35412 84.59008,127.4091c16.00353,7.28052 32.00706,9.70736 48.01059,9.70736c16.00353,0 29.72084,-3.64026 42.29504,-9.70736c19.43286,-9.70736 32.00706,-27.90866 36.57949,-48.5368c9.14487,-48.5368 -27.43462,-104.35412 -84.59008,-127.4091zm48.01059,120.12858c-2.28622,9.70736 -8.00176,18.2013 -17.14664,23.05498c-14.86042,7.28052 -36.57949,7.28052 -58.29857,-1.21342c-38.86571,-15.77446 -67.44344,-55.81732 -61.7279,-86.15282c2.28622,-9.70736 8.00176,-18.2013 17.14664,-23.05498c6.85866,-3.64026 14.86042,-4.85368 24.00529,-4.85368c10.28798,0 21.71907,2.42684 33.15017,7.28052c40.00882,15.77446 68.58655,54.6039 62.871,84.9394z" class="st0"/>
   <path stroke="null" id="svg_15" fill="#44679A" d="m678.95842,611.41606c-48.01059,0 -85.73319,41.25628 -85.73319,91.0065c0,49.75022 37.7226,91.0065 85.73319,91.0065c46.86748,0 85.73319,-41.25628 85.73319,-91.0065c0,-50.96364 -38.86571,-91.0065 -85.73319,-91.0065z" class="st1"/>
   <path stroke="null" id="svg_16" fill="#44679A" d="m812.70219,573.80004c0,21.84156 13.71731,37.61602 33.15017,37.61602c20.57597,0 33.15017,-15.77446 33.15017,-37.61602c0,-21.84156 -13.71731,-37.61602 -33.15017,-37.61602c-19.43286,0 -33.15017,15.77446 -33.15017,37.61602z" class="st1"/>
   <path stroke="null" id="svg_17" fill="#44679A" d="m897.29227,464.59223c46.86748,0 84.59008,-40.04286 84.59008,-89.79308c0,-50.96364 -37.7226,-89.79308 -84.59008,-89.79308c-46.86748,0 -84.59008,40.04286 -84.59008,89.79308c0,49.75022 37.7226,89.79308 84.59008,89.79308zm0,-150.46408c32.00706,0 57.15546,26.69524 57.15546,60.671c0,32.76234 -26.29151,60.671 -57.15546,60.671c-30.86395,0 -57.15546,-27.90866 -57.15546,-60.671c1.14311,-32.76234 27.43462,-60.671 57.15546,-60.671z" class="st1"/>
   <path stroke="null" id="svg_18" fill="#44679A" d="m997.88588,589.5745l64.01411,-8.49394l0,1.21342l-41.15193,57.03074c-5.71555,8.49394 -3.42933,20.62814 4.57244,25.48182l0,0c9.14487,6.0671 19.43286,2.42684 24.00529,-7.28052l28.57773,-65.52468l1.14311,0l26.29151,64.31126c3.42933,9.70736 14.86042,13.34762 24.00529,8.49394l2.28622,-1.21342c9.14487,-6.0671 11.43109,-18.2013 4.57244,-26.69524l-41.15193,-54.6039l0,-1.21342l65.15722,8.49394c10.28798,1.21342 18.28975,-7.28052 18.28975,-16.98788c0,-9.70736 -8.00176,-18.2013 -17.14664,-18.2013c-1.14311,0 -2.28622,0 -2.28622,0l-65.15722,9.70736l0,-1.21342l41.15193,-57.03074c5.71555,-8.49394 3.42933,-20.62814 -4.57244,-26.69524l-1.14311,0c-9.14487,-4.85368 -19.43286,-1.21342 -24.00529,8.49394l-26.29151,65.52468l-1.14311,0l-27.43462,-64.31126c-3.42933,-9.70736 -14.86042,-13.34762 -24.00529,-8.49394l-1.14311,1.21342c-9.14487,4.85368 -11.43109,18.2013 -4.57244,25.48182l41.15193,55.81732l0,1.21342l-62.871,-8.49394c-10.28798,-1.21342 -18.28975,7.28052 -18.28975,16.98788c-1.14311,9.70736 6.85866,18.2013 17.14664,16.98788z" class="st1"/>
   <path stroke="null" id="svg_19" fill="#44679A" d="m528.068,666.01996c-19.43286,0 -33.15017,15.77446 -33.15017,37.61602c0,21.84156 13.71731,37.61602 33.15017,37.61602c20.57597,0 33.15017,-15.77446 33.15017,-37.61602c0,-21.84156 -13.71731,-37.61602 -33.15017,-37.61602z" class="st1"/>
   <path stroke="null" id="svg_20" fill="#44679A" d="m2201.57984,793.42906c48.01059,0 85.73319,-41.25628 85.73319,-91.0065c0,-49.75022 -37.7226,-91.0065 -85.73319,-91.0065c-46.86748,0 -85.73319,41.25628 -85.73319,91.0065c0,49.75022 38.86571,91.0065 85.73319,91.0065z" class="st1"/>
   <path stroke="null" id="svg_21" fill="#44679A" d="m2001.53574,573.80004c0,21.84156 12.5742,37.61602 33.15017,37.61602c19.43286,0 33.15017,-15.77446 33.15017,-37.61602c0,-21.84156 -13.71731,-37.61602 -33.15017,-37.61602c-19.43286,0 -33.15017,15.77446 -33.15017,37.61602z" class="st1"/>
   <path stroke="null" id="svg_22" fill="#44679A" d="m1983.24599,464.59223c46.86748,0 84.59008,-40.04286 84.59008,-89.79308c0,-49.75022 -37.7226,-89.79308 -84.59008,-89.79308c-48.01059,0 -84.59008,40.04286 -84.59008,89.79308c-1.14311,49.75022 37.7226,89.79308 84.59008,89.79308zm0,-150.46408c30.86395,0 57.15546,27.90866 57.15546,60.671c0,32.76234 -26.29151,60.671 -57.15546,60.671c-30.86395,0 -57.15546,-27.90866 -57.15546,-60.671c0,-33.97576 25.1484,-60.671 57.15546,-60.671z" class="st1"/>
   <path stroke="null" id="svg_23" fill="#44679A" d="m1722.6171,589.5745l65.15722,-8.49394l0,1.21342l-41.15193,54.6039c-5.71555,8.49394 -4.57244,20.62814 4.57244,26.69524l2.28622,1.21342c9.14487,4.85368 19.43286,1.21342 24.00529,-8.49394l26.29151,-64.31126l1.14311,0l28.57773,65.52468c4.57244,9.70736 16.00353,13.34762 24.00529,7.28052l0,0c8.00176,-6.0671 10.28798,-16.98788 4.57244,-25.48182l-41.15193,-57.03074l0,-1.21342l64.01411,8.49394c10.28798,1.21342 18.28975,-7.28052 18.28975,-18.2013c0,-10.92078 -9.14487,-18.2013 -18.28975,-16.98788l-62.871,8.49394l0,-1.21342l41.15193,-55.81732c5.71555,-8.49394 3.42933,-20.62814 -4.57244,-25.48182l-1.14311,-1.21342c-9.14487,-4.85368 -19.43286,-1.21342 -24.00529,8.49394l-27.43462,64.31126l-1.14311,0l-26.29151,-65.52468c-3.42933,-9.70736 -14.86042,-13.34762 -24.00529,-8.49394l-1.14311,0c-9.14487,4.85368 -11.43109,16.98788 -4.57244,26.69524l41.15193,57.03074l0,1.21342l-65.15722,-9.70736c0,0 -1.14311,0 -2.28622,0c-9.14487,0 -17.14664,7.28052 -17.14664,18.2013c-2.28622,12.1342 6.85866,19.41472 17.14664,18.2013z" class="st1"/>
   <path stroke="null" id="svg_24" fill="#44679A" d="m2353.61336,741.252c19.43286,0 33.15017,-15.77446 33.15017,-37.61602c0,-21.84156 -13.71731,-37.61602 -33.15017,-37.61602c-19.43286,0 -33.15017,15.77446 -33.15017,37.61602c-1.14311,21.84156 12.5742,37.61602 33.15017,37.61602z" class="st1"/>
   <path stroke="null" id="svg_25" fill="#6F97C6" d="m1891.79726,1748.39061c-123.45579,-23.05498 -249.1978,-33.97576 -373.7967,-33.97576l-153.17663,0c-125.74201,0 -250.34091,10.92078 -373.7967,33.97576c-330.35855,63.09784 -555.55106,192.93378 -555.55106,333.6905c0,29.12208 10.28798,58.24416 29.72084,87.36624c19.43286,29.12208 48.01059,54.6039 81.16075,72.8052c230.90805,123.76884 557.83728,195.36062 895.05449,195.36062c342.93275,0 660.71711,-69.16494 895.05449,-195.36062c33.15017,-18.2013 61.7279,-42.4697 81.16075,-72.8052c19.43286,-29.12208 29.72084,-58.24416 29.72084,-87.36624c0,-141.97014 -226.33562,-270.59266 -555.55106,-333.6905z" class="st2"/>
   <path stroke="null" id="svg_26" fill="#89A9D6" d="m752.1174,1408.633c-6.85866,-3.64026 -14.86042,-4.85368 -24.00529,-4.85368c-10.28798,0 -21.71907,2.42684 -33.15017,7.28052c-35.43638,14.56104 -61.7279,48.5368 -61.7279,77.65888c0,3.64026 0,6.0671 1.14311,8.49394c2.28622,9.70736 8.00176,18.2013 17.14664,23.05498c14.86042,7.28052 36.57949,7.28052 58.29857,-1.21342l0,0c38.86571,-15.77446 67.44344,-55.81732 61.7279,-84.9394c-4.57244,-13.34762 -10.28798,-20.62814 -19.43286,-25.48182z" class="st3"/>
   <path stroke="null" id="svg_27" fill="#89A9D6" d="m1028.74983,1013.05808c-18.28975,-9.70736 -37.7226,-14.56104 -59.44168,-14.56104c-58.29857,0 -114.31092,36.4026 -145.17487,93.43334c-20.57597,40.04286 -26.29151,83.72598 -17.14664,123.76884c10.28798,40.04286 33.15017,71.59178 67.44344,88.57966c33.15017,16.98788 73.15899,19.41472 110.88159,4.85368c38.86571,-14.56104 72.01588,-44.89654 92.59184,-83.72598c43.43815,-80.08572 20.57597,-174.73248 -49.15369,-212.3485zm6.85866,185.65326l-3.42933,7.28052l-3.42933,-7.28052c-2.28622,-4.85368 -6.85866,-9.70736 -11.43109,-12.1342c-6.85866,-3.64026 -13.71731,-3.64026 -21.71907,-1.21342c-9.14487,2.42684 -16.00353,9.70736 -20.57597,18.2013c-8.00176,14.56104 -5.71555,31.54892 5.71555,41.25628l4.57244,3.64026l-5.71555,2.42684c-11.43109,4.85368 -22.86218,7.28052 -34.29328,7.28052c-13.71731,0 -26.29151,-3.64026 -37.7226,-8.49394c-43.43815,-23.05498 -58.29857,-82.51256 -30.86395,-131.04936c0,0 0,0 0,0c-5.71555,-4.85368 -8.00176,-12.1342 -5.71555,-19.41472c1.14311,-7.28052 6.85866,-12.1342 13.71731,-14.56104c5.71555,-2.42684 12.5742,-1.21342 18.28975,2.42684c29.72084,-24.2684 68.58655,-30.3355 99.4505,-14.56104c42.29504,20.62814 58.29857,77.65888 33.15017,126.19568z" class="st3"/>
   <path stroke="null" id="svg_28" fill="#89A9D6" d="m1914.65944,999.71046c-21.71907,0 -41.15193,4.85368 -59.44168,14.56104c-69.72966,36.4026 -92.59184,132.26278 -50.2968,213.56192c20.57597,40.04286 53.72613,69.16494 92.59184,83.72598c37.7226,14.56104 77.73142,12.1342 110.88159,-4.85368c33.15017,-18.2013 57.15546,-48.5368 67.44344,-88.57966c10.28798,-40.04286 3.42933,-84.9394 -17.14664,-123.76884c-29.72084,-58.24416 -85.73319,-94.64676 -144.03176,-94.64676zm60.58479,248.7511c-11.43109,6.0671 -24.00529,8.49394 -37.7226,8.49394c-11.43109,0 -22.86218,-2.42684 -34.29328,-7.28052l-5.71555,-2.42684l4.57244,-3.64026c11.43109,-8.49394 13.71731,-26.69524 5.71555,-41.25628c-4.57244,-8.49394 -12.5742,-15.77446 -20.57597,-18.2013c-6.85866,-2.42684 -14.86042,-1.21342 -21.71907,1.21342c-4.57244,2.42684 -9.14487,7.28052 -11.43109,12.1342l-3.42933,7.28052l-3.42933,-7.28052c-24.00529,-48.5368 -9.14487,-105.56754 33.15017,-127.4091c30.86395,-15.77446 69.72966,-10.92078 99.4505,14.56104c5.71555,-3.64026 11.43109,-4.85368 18.28975,-2.42684c6.85866,2.42684 12.5742,8.49394 13.71731,14.56104c1.14311,7.28052 0,14.56104 -5.71555,19.41472c0,0 0,0 0,0c27.43462,49.75022 12.5742,109.2078 -30.86395,132.26278z" class="st3"/>
   <path stroke="null" id="svg_29" fill="#89A9D6" d="m2186.71942,1409.84642c-11.43109,-4.85368 -22.86218,-7.28052 -33.15017,-7.28052c-9.14487,0 -18.28975,2.42684 -24.00529,4.85368c-9.14487,4.85368 -14.86042,12.1342 -17.14664,23.05498c-5.71555,30.3355 22.86218,69.16494 61.7279,86.15282c21.71907,8.49394 43.43815,9.70736 58.29857,1.21342c9.14487,-4.85368 14.86042,-12.1342 17.14664,-23.05498c4.57244,-29.12208 -24.00529,-67.95152 -62.871,-84.9394z" class="st3"/>
   <path stroke="null" id="svg_30" fill="#89A9D6" d="m2408.4826,1440.18192l-1.14311,-1.21342l0,-2.42684c0,-155.31776 -88.01941,-304.56842 -246.91158,-421.05674l-1.14311,-1.21342l0,-1.21342c-18.28975,-129.83594 -130.31445,-228.12296 -262.91511,-228.12296c-56.01235,0 -109.73848,16.98788 -155.46285,49.75022l-1.14311,1.21342l-1.14311,0c-96.02117,-20.62814 -195.47167,-30.3355 -297.20839,-30.3355c-101.73672,0 -201.18722,9.70736 -297.20839,30.3355l-1.14311,0l-1.14311,-1.21342c-45.72437,-32.76234 -99.4505,-49.75022 -155.46285,-49.75022c-132.60066,0 -244.62536,98.28702 -262.91511,228.12296l0,1.21342l-1.14311,1.21342c-158.89218,115.2749 -246.91158,265.73898 -246.91158,421.05674l0,2.42684l-1.14311,1.21342c-170.32327,109.2078 -259.48578,240.25716 -259.48578,379.80046c0,116.48832 65.15722,229.33638 188.61301,327.6234c-8.00176,-21.84156 -12.5742,-43.68312 -12.5742,-65.52468c0,-103.1407 91.44873,-202.64114 258.34267,-277.87318c94.87806,-43.68312 211.4752,-77.65888 341.78964,-101.92728c126.88512,-23.05498 254.91335,-33.97576 382.94158,-33.97576l137.1731,0c128.02823,0 257.19957,10.92078 382.94158,33.97576c130.31445,24.2684 246.91158,59.45758 341.78964,101.92728c166.89394,75.23204 258.34267,173.51906 258.34267,277.87318c0,21.84156 -4.57244,43.68312 -12.5742,65.52468c123.45579,-98.28702 187.46991,-211.13508 187.46991,-327.6234c-1.14311,-139.5433 -90.30563,-270.59266 -260.62889,-379.80046zm-1686.08604,111.63464c-16.00353,7.28052 -32.00706,9.70736 -48.01059,9.70736c-16.00353,0 -29.72084,-3.64026 -42.29504,-9.70736c-19.43286,-9.70736 -32.00706,-27.90866 -36.57949,-48.5368c-9.14487,-48.5368 27.43462,-104.35412 84.59008,-127.4091c32.00706,-13.34762 65.15722,-13.34762 90.30563,0c19.43286,9.70736 32.00706,27.90866 36.57949,48.5368c9.14487,47.32338 -28.57773,104.35412 -84.59008,127.4091zm396.65889,-304.56842c-26.29151,49.75022 -67.44344,87.36624 -117.74025,105.56754c-22.86218,8.49394 -45.72437,13.34762 -67.44344,13.34762c-28.57773,0 -56.01235,-7.28052 -81.16075,-19.41472c-41.15193,-21.84156 -70.87277,-58.24416 -85.73319,-105.56754c-16.00353,1.21342 -28.57773,15.77446 -28.57773,33.97576c0,24.2684 -25.1484,43.68312 -49.15369,29.12208c-9.14487,-4.85368 -14.86042,-16.98788 -14.86042,-27.90866l0,-2.42684c0,-36.4026 28.57773,-66.7381 64.01411,-66.7381c8.00176,0 14.86042,1.21342 21.71907,3.64026c-1.14311,-1.21342 -1.14311,-1.21342 -1.14311,-2.42684c-2.28622,-4.85368 -4.57244,-10.92078 -9.14487,-14.56104c-16.00353,-16.98788 -41.15193,-16.98788 -57.15546,-1.21342c-12.5742,12.1342 -29.72084,18.2013 -45.72437,10.92078c-28.57773,-13.34762 -33.15017,-49.75022 -13.71731,-70.37836c0,0 0,0 1.14311,-1.21342c0,0 0,-1.21342 1.14311,-1.21342c32.00706,-32.76234 83.44697,-32.76234 115.45403,1.21342c4.57244,4.85368 8.00176,9.70736 10.28798,14.56104c3.42933,-25.48182 11.43109,-50.96364 24.00529,-74.01862c26.29151,-49.75022 68.58655,-87.36624 118.88335,-105.56754c50.2968,-18.2013 102.87983,-15.77446 147.46108,7.28052c90.30563,47.32338 121.16957,171.09222 67.44344,273.0195zm93.73495,-217.20218c-12.5742,13.34762 -48.01059,-1.21342 -78.87453,-33.97576c-30.86395,-32.76234 -44.58126,-70.37836 -32.00706,-83.72598c12.5742,-13.34762 48.01059,1.21342 78.87453,33.97576s44.58126,69.16494 32.00706,83.72598zm424.09351,320.34288c10.28798,3.64026 17.14664,13.34762 17.14664,24.2684c0,19.41472 -18.28975,33.97576 -35.43638,27.90866c-34.29328,-13.34762 -60.58479,-47.32338 -67.44344,-86.15282c-34.29328,-12.1342 -72.01588,-18.2013 -110.88159,-18.2013c-38.86571,0 -76.58832,6.0671 -110.88159,18.2013c-5.71555,40.04286 -32.00706,72.8052 -67.44344,87.36624c-17.14664,7.28052 -35.43638,-7.28052 -35.43638,-27.90866c0,-10.92078 6.85866,-20.62814 17.14664,-24.2684c19.43286,-7.28052 34.29328,-27.90866 34.29328,-52.17706c0,-24.2684 -13.71731,-43.68312 -34.29328,-52.17706c-10.28798,-3.64026 -17.14664,-13.34762 -17.14664,-24.2684c0,-19.41472 18.28975,-33.97576 35.43638,-27.90866c29.72084,12.1342 52.58302,36.4026 62.871,69.16494c36.57949,-10.92078 75.44521,-16.98788 114.31092,-16.98788c40.00882,0 78.87453,6.0671 115.45403,16.98788c10.28798,-31.54892 33.15017,-57.03074 62.871,-69.16494c3.42933,-1.21342 5.71555,-1.21342 9.14487,-1.21342c13.71731,0 27.43462,12.1342 27.43462,29.12208c0,10.92078 -6.85866,20.62814 -17.14664,24.2684c-19.43286,7.28052 -34.29328,27.90866 -34.29328,52.17706c0,23.05498 13.71731,43.68312 34.29328,50.96364zm32.00706,-320.34288c-12.5742,-13.34762 1.14311,-50.96364 32.00706,-83.72598c30.86395,-32.76234 65.15722,-47.32338 78.87453,-33.97576c12.5742,13.34762 -1.14311,50.96364 -32.00706,83.72598c-32.00706,31.54892 -66.30033,47.32338 -78.87453,33.97576zm358.93628,315.4892c-25.1484,13.34762 -51.43991,19.41472 -80.01764,19.41472c-74.3021,0 -147.46108,-46.10996 -185.18369,-117.70174c-53.72613,-103.1407 -22.86218,-225.69612 68.58655,-274.23292c44.58126,-24.2684 98.30739,-26.69524 148.60419,-7.28052c49.15369,19.41472 91.44873,55.81732 117.74025,105.56754c12.5742,23.05498 20.57597,48.5368 24.00529,74.01862c3.42933,-4.85368 6.85866,-9.70736 10.28798,-14.56104c32.00706,-33.97576 83.44697,-33.97576 115.45403,-1.21342c0,0 1.14311,1.21342 1.14311,1.21342c0,0 0,0 1.14311,1.21342c14.86042,16.98788 14.86042,43.68312 -1.14311,60.671c-16.00353,16.98788 -41.15193,16.98788 -57.15546,1.21342c-13.71731,-13.34762 -34.29328,-18.2013 -50.2968,-8.49394c-9.14487,6.0671 -14.86042,13.34762 -18.28975,21.84156c0,1.21342 -1.14311,1.21342 -1.14311,2.42684c12.5742,-4.85368 26.29151,-6.0671 41.15193,-1.21342c27.43462,8.49394 44.58126,37.61602 44.58126,67.95152c0,9.70736 -4.57244,19.41472 -12.5742,24.2684c-25.1484,15.77446 -51.43991,-2.42684 -51.43991,-27.90866c0,-18.2013 -12.5742,-31.54892 -29.72084,-33.97576c-14.86042,48.5368 -44.58126,84.9394 -85.73319,106.78096zm257.19957,157.7446c-4.57244,20.62814 -17.14664,38.82944 -36.57949,48.5368c-12.5742,7.28052 -26.29151,9.70736 -42.29504,9.70736c-16.00353,0 -32.00706,-3.64026 -48.01059,-9.70736c-56.01235,-23.05498 -93.73495,-78.8723 -84.59008,-127.4091c4.57244,-20.62814 17.14664,-38.82944 36.57949,-48.5368c25.1484,-13.34762 58.29857,-13.34762 90.30563,0c57.15546,23.05498 93.73495,78.8723 84.59008,127.4091z" class="st3"/>
   <path stroke="null" id="svg_31" fill="#FFFFFF" d="m2977.75098,1021.55202l-121.16957,-366.45284c-14.86042,-44.89654 -51.43991,-80.08572 -96.02117,-89.79308c-9.14487,-2.42684 -18.28975,-3.64026 -27.43462,-3.64026c-35.43638,0 -69.72966,15.77446 -94.87806,42.4697l-253.77024,280.30002c-37.7226,42.4697 -44.58126,105.56754 -13.71731,155.31776c17.14664,27.90866 43.43815,47.32338 74.3021,54.6039l394.37267,91.0065c8.00176,2.42684 17.14664,2.42684 25.1484,2.42684c22.86218,0 44.58126,-7.28052 64.01411,-20.62814c46.86748,-29.12208 67.44344,-89.79308 49.15369,-145.6104zm-75.44521,103.1407c-14.86042,10.92078 -33.15017,13.34762 -51.43991,9.70736l-394.37267,-91.0065c-18.28975,-3.64026 -33.15017,-15.77446 -43.43815,-31.54892c-17.14664,-27.90866 -13.71731,-65.52468 8.00176,-89.79308l253.77024,-280.30002c19.43286,-20.62814 48.01059,-30.3355 75.44521,-24.2684c27.43462,6.0671 49.15369,27.90866 58.29857,54.6039l121.16957,366.45284c10.28798,32.76234 -1.14311,67.95152 -27.43462,86.15282z" class="st0"/>
   <path stroke="null" id="svg_32" fill="#FFFFFF" d="m2769.70511,687.86152c-4.57244,-13.34762 -14.86042,-24.2684 -28.57773,-26.69524c-12.5742,-2.42684 -27.43462,1.21342 -36.57949,12.1342l-253.77024,280.30002c-9.14487,9.70736 -10.28798,24.2684 -3.42933,35.18918c3.42933,6.0671 10.28798,10.92078 17.14664,12.1342l394.37267,91.0065c6.85866,1.21342 13.71731,0 20.57597,-3.64026c10.28798,-7.28052 14.86042,-20.62814 10.28798,-32.76234l-120.02646,-367.66626zm-76.58832,333.6905l-49.15369,-10.92078l10.28798,-52.17706l49.15369,10.92078l-10.28798,52.17706zm13.71731,-69.16494l-49.15369,-10.92078l45.72437,-223.26928l49.15369,10.92078l-45.72437,223.26928z" class="st0"/>
   <path stroke="null" id="svg_33" fill="#C63434" d="m2808.57082,673.30048c-9.14487,-27.90866 -32.00706,-48.5368 -58.29857,-54.6039c-27.43462,-6.0671 -56.01235,3.64026 -75.44521,24.2684l-253.77024,280.30002c-21.71907,24.2684 -25.1484,60.671 -8.00176,89.79308c10.28798,15.77446 25.1484,27.90866 43.43815,31.54892l394.37267,91.0065c18.28975,3.64026 36.57949,1.21342 51.43991,-9.70736c26.29151,-18.2013 37.7226,-53.39048 27.43462,-84.9394l-121.16957,-367.66626zm70.87277,413.77622c-5.71555,3.64026 -13.71731,6.0671 -20.57597,3.64026l-394.37267,-91.0065c-6.85866,-1.21342 -12.5742,-6.0671 -17.14664,-12.1342c-6.85866,-10.92078 -5.71555,-25.48182 3.42933,-35.18918l253.77024,-280.30002c9.14487,-9.70736 22.86218,-14.56104 36.57949,-12.1342c12.5742,2.42684 24.00529,13.34762 28.57773,26.69524l121.16957,366.45284c3.42933,13.34762 0,26.69524 -11.43109,33.97576z" class="st4"/>
   <rect stroke="null" id="svg_34" fill="#C63434" height="4.4" width="18.8" class="st4" transform="matrix(2.08915 -10.657 9.60716 2.31746 -724.525 28526.5)" y="-239.81075" x="2545.21058"/>
   <rect stroke="null" id="svg_35" fill="#C63434" height="4.4" width="4.4" class="st4" transform="matrix(2.08915 -10.657 9.60716 2.31746 -868.741 28606.3)" y="-227.11075" x="2549.61058"/>
   <path stroke="null" id="svg_36" fill="#FFFFFF" d="m211.40571,675.17593c-5.89879,-7.63399 -15.7301,-9.81513 -24.57828,-8.72456c-8.84818,2.18114 -15.7301,8.72456 -18.67949,18.53969l-80.61676,255.19336c-2.94939,8.72456 0,18.53969 6.88192,22.90197c3.93252,3.27171 8.84818,4.36228 13.76384,2.18114l263.47916,-63.25306c4.91566,-1.09057 8.84818,-4.36228 10.81444,-8.72456c4.91566,-7.63399 3.93252,-17.44912 -1.96626,-23.99254l-169.09857,-194.12145zm-32.44333,39.26052l32.44333,-7.63399l30.47707,154.86093l-32.44333,7.63399l-30.47707,-154.86093zm40.30838,203.93658l-6.88192,-35.98881l32.44333,-7.63399l6.88192,35.98881l-32.44333,7.63399z" class="st0"/>
   <path stroke="null" id="svg_37" fill="#FFFFFF" d="m441.45842,936.91271c22.61202,-38.16995 17.69636,-88.33616 -10.81444,-121.05326l-169.09857,-195.21202c-17.69636,-20.72083 -43.25777,-32.7171 -69.80232,-32.7171c-6.88192,0 -13.76384,1.09057 -20.64576,2.18114c-32.44333,7.63399 -59.971,34.89824 -70.78545,69.79648l-80.61676,255.19336c-13.76384,43.6228 0.98313,90.5173 35.39272,115.60041c14.74697,9.81513 30.47707,15.26798 48.17343,15.26798c5.89879,0 12.78071,-1.09057 18.67949,-2.18114l263.47916,-63.25306c23.59515,-5.45285 43.25777,-20.72083 56.03848,-43.6228zm-327.38269,59.98135c-11.79757,3.27171 -23.59515,0 -34.40959,-6.54342c-17.69636,-13.08684 -25.56141,-37.07938 -18.67949,-58.89078l80.61676,-255.19336c5.89879,-19.63026 20.64576,-33.80767 39.32525,-38.16995c17.69636,-4.36228 37.35899,2.18114 50.13969,17.44912l169.09857,195.21202c14.74697,17.44912 16.71323,42.53223 5.89879,62.16249c-6.88192,10.9057 -16.71323,19.63026 -28.51081,21.8114l-263.47916,62.16249z" class="st0"/>
   <path stroke="null" id="svg_38" fill="#C63434" d="m405.08256,910.73904c11.79757,-19.63026 8.84818,-45.80394 -5.89879,-62.16249l-169.09857,-195.21202c-12.78071,-15.26798 -32.44333,-20.72083 -50.13969,-17.44912c-17.69636,4.36228 -33.42646,18.53969 -39.32525,38.16995l-80.61676,255.19336c-6.88192,21.8114 0.98313,46.89451 18.67949,58.89078c9.83131,7.63399 22.61202,9.81513 34.40959,6.54342l263.47916,-63.25306c11.79757,-1.09057 22.61202,-8.72456 28.51081,-20.72083zm-22.61202,-16.35855c-2.94939,4.36228 -6.88192,7.63399 -10.81444,8.72456l-263.47916,63.25306c-4.91566,1.09057 -9.83131,0 -13.76384,-2.18114c-6.88192,-5.45285 -9.83131,-14.17741 -6.88192,-22.90197l80.61676,-255.19336c2.94939,-9.81513 9.83131,-16.35855 18.67949,-18.53969c8.84818,-2.18114 17.69636,1.09057 24.57828,8.72456l169.09857,195.21202c4.91566,5.45285 5.89879,15.26798 1.96626,22.90197z" class="st4"/>
   <rect stroke="null" id="svg_39" fill="#C63434" height="14.6" width="3.4" class="st4" transform="matrix(9.60716 -2.31746 2.08915 10.657 -2689.31 3377.99)" y="-176.57113" x="337.00251"/>
   <rect stroke="null" id="svg_40" fill="#C63434" height="3.4" width="3.4" class="st4" transform="matrix(9.60716 -2.31746 2.08915 10.657 -2709.49 3385.44)" y="-161.07113" x="339.20251"/>
   <polygon stroke="null" id="svg_41" fill="#C63434" points="1140.4644389790121,375.2694632902329 1190.6039552902514,430.88826995001534 1240.7445484919301,375.2694632902329 1290.8839930104734,430.88826995001534 1342.0062795367414,375.2694632902329 1290.8839930104734,319.6506566304505 1342.0062795367414,262.94022408038643 1290.8839930104734,208.41173309418434 1240.7445484919301,264.03053975396676 1190.6039552902514,208.41173309418434 1140.4644389790121,264.03053975396676 1190.6039552902514,319.6506566304505 " class="st4"/>
   <path stroke="null" id="svg_42" fill="#C63434" d="m1240.74409,574.8435c126.82393,0 230.0527,-114.50984 230.0527,-255.19336c0,-140.68352 -103.22878,-255.19336 -230.0527,-255.19336c-126.82393,0 -230.0527,114.50984 -230.0527,255.19336c0,140.68352 103.22878,255.19336 230.0527,255.19336zm0,-456.9488c100.27938,0 181.87927,90.5173 181.87927,201.75544c0,111.23813 -81.59989,201.75544 -181.87927,201.75544c-100.27938,0 -181.87927,-90.5173 -181.87927,-201.75544c0,-111.23813 81.59989,-201.75544 181.87927,-201.75544z" class="st4"/>
  </g>
 </g>
</svg>