<svg width="2916" height="557" xmlns="http://www.w3.org/2000/svg" xml:space="preserve" version="1.1">

 <g>
  <title>Layer 1</title>
  <g stroke="null" id="svg_1">
   <path stroke="null" id="svg_2" fill="#FFFFFF" d="m678.56371,214.2481l47.80437,0l0,35.85327l19.91849,0l0,-87.64134l-35.85327,-35.85327l-19.91849,0l-35.85327,35.85327l0,87.64134l19.91849,0l0,-35.85327l3.9837,0zm0,-47.80437l23.90218,-23.90218l0,0l23.90218,23.90218l0,23.90218l-47.80437,0l0,-23.90218z" class="st0"/>
   <polygon stroke="null" id="svg_3" fill="#FFFFFF" points="821.9749755859375,226.197265625 802.0562744140625,226.197265625 802.0562744140625,158.476318359375 762.2193603515625,158.476318359375 762.2193603515625,178.394775390625 782.1378173828125,178.394775390625 782.1378173828125,226.197265625 762.2193603515625,226.197265625 762.2193603515625,246.11572265625 821.9749755859375,246.11572265625 " class="st0"/>
   <rect stroke="null" id="svg_4" fill="#FFFFFF" height="19.91849" width="19.91849" class="st0" y="122.62306" x="782.13983"/>
   <polygon stroke="null" id="svg_5" fill="#FFFFFF" points="857.8292236328125,190.347900390625 857.8292236328125,122.6220703125 837.9105224609375,122.6220703125 837.9105224609375,246.11572265625 857.8292236328125,246.11572265625 857.8292236328125,214.2490234375 889.7005615234375,246.11572265625 909.6190185546875,246.11572265625 909.6190185546875,226.197265625 897.6661376953125,226.197265625 873.7647705078125,202.2960205078125 897.6661376953125,178.394775390625 909.6190185546875,178.394775390625 909.6190185546875,158.476318359375 889.7005615234375,158.476318359375 " class="st0"/>
   <path stroke="null" id="svg_6" fill="#FFFFFF" d="m1009.21057,230.18289l0,-51.78806l-15.93479,-15.93479l-51.78806,0l-15.93479,15.93479l0,51.78806l15.93479,15.93479l51.78806,0l15.93479,-15.93479zm-19.91849,-7.96739l-7.96739,7.96739l-35.85327,0l-7.96739,-7.96739l0,-35.85327l7.96739,-7.96739l35.85327,0l7.96739,7.96739l0,35.85327z" class="st0"/>
   <polygon stroke="null" id="svg_7" fill="#FFFFFF" points="1148.6409912109375,202.2960205078125 1124.7396240234375,226.197265625 1124.7396240234375,226.197265625 1100.8336181640625,202.2960205078125 1100.8336181640625,122.6220703125 1080.9151611328125,122.6220703125 1080.9151611328125,210.266357421875 1116.7694091796875,246.11572265625 1132.7052001953125,246.11572265625 1168.5594482421875,210.266357421875 1168.5594482421875,122.6220703125 1148.6409912109375,122.6220703125 " class="st0"/>
   <rect stroke="null" id="svg_8" fill="#FFFFFF" height="19.91849" width="19.91849" class="st0" y="122.62306" x="1204.41173"/>
   <polygon stroke="null" id="svg_9" fill="#FFFFFF" points="1244.2506103515625,226.197265625 1224.3321533203125,226.197265625 1224.3321533203125,158.476318359375 1184.4952392578125,158.476318359375 1184.4952392578125,178.394775390625 1204.4136962890625,178.394775390625 1204.4136962890625,226.197265625 1184.4952392578125,226.197265625 1184.4952392578125,246.11572265625 1244.2506103515625,246.11572265625 " class="st0"/>
   <polygon stroke="null" id="svg_10" fill="#FFFFFF" points="1311.9715576171875,226.197265625 1292.0531005859375,226.197265625 1292.0531005859375,178.394775390625 1311.9715576171875,178.394775390625 1319.9368896484375,186.3602294921875 1319.9368896484375,194.33056640625 1339.8555908203125,194.33056640625 1339.8555908203125,178.394775390625 1319.9368896484375,158.476318359375 1252.2161865234375,158.476318359375 1252.2161865234375,178.394775390625 1272.1346435546875,178.394775390625 1272.1346435546875,226.197265625 1252.2161865234375,226.197265625 1252.2161865234375,246.11572265625 1311.9715576171875,246.11572265625 " class="st0"/>
   <polygon stroke="null" id="svg_11" fill="#FFFFFF" points="1359.7740478515625,230.184814453125 1375.7098388671875,246.11572265625 1411.5640869140625,246.11572265625 1411.5640869140625,226.197265625 1383.6800537109375,226.197265625 1379.6925048828125,222.2144775390625 1379.6925048828125,178.394775390625 1403.5985107421875,178.394775390625 1403.5985107421875,158.476318359375 1379.6925048828125,158.476318359375 1379.6925048828125,130.5924072265625 1359.7740478515625,130.5924072265625 1359.7740478515625,158.476318359375 1339.8555908203125,158.476318359375 1339.8555908203125,178.394775390625 1359.7740478515625,178.394775390625 " class="st0"/>
   <polygon stroke="null" id="svg_12" fill="#FFFFFF" points="1515.1390380859375,246.11572265625 1515.1390380859375,158.476318359375 1495.2205810546875,158.476318359375 1495.2205810546875,226.197265625 1451.4010009765625,226.197265625 1443.4354248046875,222.2144775390625 1443.4354248046875,158.476318359375 1423.5169677734375,158.476318359375 1423.5169677734375,230.184814453125 1443.4354248046875,246.11572265625 " class="st0"/>
   <path stroke="null" id="svg_13" fill="#FFFFFF" d="m1618.71623,246.11767l0,-71.70655l-15.93479,-15.93479l-67.72285,0l0,19.91849l55.77176,0l7.96739,7.96739l0,7.96739l-51.78806,0l-15.93479,15.93479l0,19.91849l15.93479,15.93479l71.70655,0zm-67.72285,-27.88588l7.96739,-7.96739l43.82067,0l0,15.93479l-43.82067,0l-7.96739,-7.96739l0,0z" class="st0"/>
   <polygon stroke="null" id="svg_14" fill="#FFFFFF" points="1694.4053955078125,226.197265625 1670.5042724609375,226.197265625 1670.5042724609375,122.6220703125 1630.6673583984375,122.6220703125 1630.6673583984375,142.54052734375 1650.5858154296875,142.54052734375 1650.5858154296875,226.197265625 1630.6673583984375,226.197265625 1630.6673583984375,246.11572265625 1694.4053955078125,246.11572265625 " class="st0"/>
   <polygon stroke="null" id="svg_15" fill="#FFFFFF" points="1829.8521728515625,246.11572265625 1849.7706298828125,230.184814453125 1849.7706298828125,206.27880859375 1825.8695068359375,206.27880859375 1825.8695068359375,218.2318115234375 1821.8868408203125,222.2144775390625 1786.0325927734375,222.2144775390625 1782.0496826171875,218.2318115234375 1782.0496826171875,150.5108642578125 1786.0325927734375,146.5233154296875 1821.8868408203125,146.5233154296875 1825.8695068359375,150.5108642578125 1825.8695068359375,166.4417724609375 1849.7706298828125,166.4417724609375 1849.7706298828125,142.54052734375 1829.8521728515625,122.6220703125 1778.0621337890625,122.6220703125 1758.1436767578125,142.54052734375 1758.1436767578125,230.184814453125 1778.0621337890625,246.11572265625 " class="st0"/>
   <path stroke="null" id="svg_16" fill="#FFFFFF" d="m1937.412,246.11767l15.93479,-15.93479l0,-51.78806l-15.93479,-15.93479l-55.77176,0l-15.93479,15.93479l0,51.78806l15.93479,15.93479l55.77176,0zm-47.80437,-59.75546l0,0l35.85327,-3.9837l3.9837,3.9837l0,31.86958l-3.9837,3.9837l-31.86958,0l-3.9837,-3.9837l0,-31.86958z" class="st0"/>
   <polygon stroke="null" id="svg_17" fill="#FFFFFF" points="2037.0025634765625,186.3602294921875 2037.0025634765625,246.11572265625 2064.8912353515625,246.11572265625 2064.8912353515625,178.394775390625 2044.9727783203125,158.476318359375 1973.2642822265625,158.476318359375 1973.2642822265625,246.11572265625 1997.1654052734375,246.11572265625 1997.1654052734375,182.3775634765625 2037.0025634765625,182.3775634765625 " class="st0"/>
   <rect stroke="null" id="svg_18" fill="#FFFFFF" height="23.90218" width="23.90218" class="st0" y="122.62306" x="2164.48274"/>
   <polygon stroke="null" id="svg_19" fill="#FFFFFF" points="2088.7926025390625,246.11572265625 2116.6763916015625,246.11572265625 2116.6763916015625,198.3133544921875 2144.5653076171875,198.3133544921875 2144.5653076171875,182.3775634765625 2164.4837646484375,182.3775634765625 2164.4837646484375,222.2144775390625 2144.5653076171875,222.2144775390625 2144.5653076171875,246.11572265625 2212.2860107421875,246.11572265625 2212.2860107421875,222.2144775390625 2192.3675537109375,222.2144775390625 2192.3675537109375,158.476318359375 2144.5653076171875,158.476318359375 2144.5653076171875,174.412109375 2116.6763916015625,174.412109375 2116.6763916015625,150.5108642578125 2120.6639404296875,146.5233154296875 2152.5306396484375,146.5233154296875 2152.5306396484375,122.6220703125 2108.7110595703125,122.6220703125 2088.7926025390625,142.54052734375 2088.7926025390625,174.412109375 2072.8568115234375,174.412109375 2072.8568115234375,198.3133544921875 2088.7926025390625,198.3133544921875 " class="st0"/>
   <path stroke="null" id="svg_20" fill="#FFFFFF" d="m2311.87953,246.11767l0,-123.49461l-23.90218,0l0,35.85327l-47.80437,0l-15.93479,15.93479l0,51.78806l15.93479,15.93479l71.70655,0l0,3.9837zm-63.73915,-59.75546l0,0l39.83697,-3.9837l0,39.83697l-35.85327,0l-3.9837,-3.9837l0,-31.86958z" class="st0"/>
   <path stroke="null" id="svg_21" fill="#FFFFFF" d="m2415.45566,246.11767l0,-23.90218l-55.77176,0l-3.9837,-3.9837l0,-7.96739l63.73915,0l0,-35.85327l-15.93479,-15.93479l-55.77176,0l-15.93479,15.93479l0,51.78806l15.93479,15.93479l67.72285,0l0,3.9837zm-59.75546,-59.75546l0,0l35.85327,-3.9837l3.9837,3.9837l0,7.96739l-39.83697,0l0,-7.96739z" class="st0"/>
   <polygon stroke="null" id="svg_22" fill="#FFFFFF" points="2463.2611083984375,182.3775634765625 2499.1153564453125,182.3775634765625 2503.0980224609375,186.3602294921875 2503.0980224609375,246.11572265625 2526.9991455078125,246.11572265625 2526.9991455078125,178.394775390625 2511.0633544921875,158.476318359375 2439.3597412109375,158.476318359375 2439.3597412109375,246.11572265625 2463.2611083984375,246.11572265625 " class="st0"/>
   <polygon stroke="null" id="svg_23" fill="#FFFFFF" points="2554.8831787109375,230.184814453125 2570.8189697265625,246.11572265625 2610.6558837890625,246.11572265625 2610.6558837890625,222.2144775390625 2582.7718505859375,222.2144775390625 2578.7891845703125,218.2318115234375 2578.7891845703125,182.3775634765625 2598.7076416015625,182.3775634765625 2598.7076416015625,158.476318359375 2578.7891845703125,158.476318359375 2578.7891845703125,130.5924072265625 2554.8831787109375,130.5924072265625 2554.8831787109375,158.476318359375 2534.9647216796875,158.476318359375 2534.9647216796875,182.3775634765625 2554.8831787109375,182.3775634765625 " class="st0"/>
   <polygon stroke="null" id="svg_24" fill="#FFFFFF" points="2682.3643798828125,222.2144775390625 2662.4459228515625,222.2144775390625 2662.4459228515625,158.476318359375 2614.6387939453125,158.476318359375 2614.6387939453125,182.3775634765625 2638.5445556640625,182.3775634765625 2638.5445556640625,222.2144775390625 2614.6387939453125,222.2144775390625 2614.6387939453125,246.11572265625 2682.3643798828125,246.11572265625 " class="st0"/>
   <rect stroke="null" id="svg_25" fill="#FFFFFF" height="23.90218" width="23.90218" class="st0" y="122.62306" x="2638.5427"/>
   <path stroke="null" id="svg_26" fill="#FFFFFF" d="m2781.95579,246.11767l0,-71.70655l-15.93479,-15.93479l-67.72285,0l0,23.90218l55.77176,0l3.9837,3.9837l0,3.9837l-47.80437,0l-15.93479,15.93479l0,19.91849l15.93479,15.93479l71.70655,0l0,3.9837zm-67.72285,-27.88588l0,0l39.83697,-3.9837l0,7.96739l-35.85327,0l-3.9837,-3.9837l0,0z" class="st0"/>
   <polygon stroke="null" id="svg_27" fill="#FFFFFF" points="2837.7296142578125,122.6220703125 2793.9049072265625,122.6220703125 2793.9049072265625,146.5233154296875 2813.8233642578125,146.5233154296875 2813.8233642578125,222.2144775390625 2793.9049072265625,222.2144775390625 2793.9049072265625,246.11572265625 2861.6304931640625,246.11572265625 2861.6304931640625,222.2144775390625 2837.7296142578125,222.2144775390625 " class="st0"/>
   <path stroke="null" id="svg_28" fill="#FFFFFF" d="m662.62892,341.72641l0,19.91849l59.75546,0l7.96739,7.96739l0,7.96739l-55.77176,0l-19.91849,19.91849l0,19.91849l19.91849,19.91849l75.69025,0l0,-71.70655l-19.91849,-19.91849l-67.72285,0l0,-3.9837zm67.72285,71.70655l-43.82067,0l-7.96739,-7.96739l0,-3.9837l7.96739,-7.96739l43.82067,0l0,19.91849z" class="st0"/>
   <polygon stroke="null" id="svg_29" fill="#FFFFFF" points="806.0440673828125,305.8712158203125 762.2193603515625,305.8712158203125 762.2193603515625,325.7896728515625 786.1253662109375,325.7896728515625 786.1253662109375,413.4339599609375 762.2193603515625,413.4339599609375 762.2193603515625,433.3524169921875 829.9451904296875,433.3524169921875 829.9451904296875,413.4339599609375 806.0440673828125,413.4339599609375 " class="st0"/>
   <polygon stroke="null" id="svg_30" fill="#FFFFFF" points="881.7303466796875,305.8712158203125 837.9105224609375,305.8712158203125 837.9105224609375,325.7896728515625 857.8292236328125,325.7896728515625 857.8292236328125,413.4339599609375 837.9105224609375,413.4339599609375 837.9105224609375,433.3524169921875 901.6488037109375,433.3524169921875 901.6488037109375,413.4339599609375 881.7303466796875,413.4339599609375 " class="st0"/>
   <polygon stroke="null" id="svg_31" fill="#FFFFFF" points="969.3746337890625,361.6439208984375 969.3746337890625,417.4166259765625 989.2930908203125,433.3524169921875 1053.0311279296875,433.3524169921875 1053.0311279296875,413.4339599609375 997.2584228515625,413.4339599609375 989.2930908203125,405.463623046875 989.2930908203125,369.6142578125 997.2584228515625,361.6439208984375 1053.0311279296875,361.6439208984375 1053.0311279296875,341.7254638671875 989.2930908203125,341.7254638671875 " class="st0"/>
   <path stroke="null" id="svg_32" fill="#FFFFFF" d="m1084.90082,341.72641l-19.91849,19.91849l0,55.77176l19.91849,19.91849l55.77176,0l19.91849,-19.91849l0,-55.77176l-19.91849,-19.91849l-55.77176,0zm55.77176,63.73915l-7.96739,7.96739l-39.83697,0l-7.96739,-7.96739l0,-35.85327l7.96739,-7.96739l39.83697,0l7.96739,7.96739l0,35.85327z" class="st0"/>
   <path stroke="null" id="svg_33" fill="#FFFFFF" d="m1180.50955,341.72641l0,127.47831l19.91849,0l0,-35.85327l55.77176,0l19.91849,-19.91849l0,-55.77176l-19.91849,-19.91849l-75.69025,0l0,3.9837zm71.70655,63.73915l-7.96739,7.96739l-43.82067,0l0,-51.78806l43.82067,0l7.96739,7.96739l0,35.85327z" class="st0"/>
   <polygon stroke="null" id="svg_34" fill="#FFFFFF" points="1363.7615966796875,413.4339599609375 1319.9368896484375,413.4339599609375 1311.9715576171875,405.463623046875 1311.9715576171875,341.7254638671875 1292.0531005859375,341.7254638671875 1292.0531005859375,417.4166259765625 1311.9715576171875,433.3524169921875 1363.7615966796875,433.3524169921875 1363.7615966796875,445.300537109375 1359.7740478515625,449.2882080078125 1311.9715576171875,449.2882080078125 1311.9715576171875,473.1893310546875 1367.7442626953125,473.1893310546875 1387.6627197265625,453.2708740234375 1387.6627197265625,341.7254638671875 1363.7615966796875,341.7254638671875 " class="st0"/>
   <polygon stroke="null" id="svg_35" fill="#FFFFFF" points="1399.6109619140625,341.7254638671875 1399.6109619140625,361.6439208984375 1419.5294189453125,361.6439208984375 1419.5294189453125,413.4339599609375 1399.6109619140625,413.4339599609375 1399.6109619140625,433.3524169921875 1463.3538818359375,433.3524169921875 1463.3538818359375,413.4339599609375 1439.4478759765625,413.4339599609375 1439.4478759765625,361.6439208984375 1463.3538818359375,361.6439208984375 1471.3194580078125,369.6142578125 1471.3194580078125,381.5623779296875 1491.2379150390625,381.5623779296875 1491.2379150390625,361.6439208984375 1471.3194580078125,341.7254638671875 " class="st0"/>
   <rect stroke="null" id="svg_36" fill="#FFFFFF" height="19.91849" width="19.91849" class="st0" y="305.87313" x="1519.1238"/>
   <polygon stroke="null" id="svg_37" fill="#FFFFFF" points="1539.0404052734375,341.7254638671875 1499.2034912109375,341.7254638671875 1499.2034912109375,361.6439208984375 1519.1219482421875,361.6439208984375 1519.1219482421875,413.4339599609375 1499.2034912109375,413.4339599609375 1499.2034912109375,433.3524169921875 1562.9464111328125,433.3524169921875 1562.9464111328125,413.4339599609375 1539.0404052734375,413.4339599609375 " class="st0"/>
   <path stroke="null" id="svg_38" fill="#FFFFFF" d="m1574.89556,361.64489l0,55.77176l19.91849,19.91849l55.77176,0l0,7.96739l-7.96739,7.96739l-47.80437,0l0,19.91849l55.77176,0l19.91849,-19.91849l0,-111.54352l-75.69025,0l-19.91849,19.91849zm19.91849,7.96739l7.96739,-7.96739l43.82067,0l0,51.78806l-43.82067,0l-7.96739,-7.96739l0,-35.85327z" class="st0"/>
   <polygon stroke="null" id="svg_39" fill="#FFFFFF" points="1710.3411865234375,341.7254638671875 1710.3411865234375,305.8712158203125 1690.4227294921875,305.8712158203125 1690.4227294921875,433.3524169921875 1710.3411865234375,433.3524169921875 1710.3411865234375,361.6439208984375 1754.1610107421875,361.6439208984375 1762.1312255859375,369.6142578125 1762.1312255859375,433.3524169921875 1782.0496826171875,433.3524169921875 1782.0496826171875,361.6439208984375 1762.1312255859375,341.7254638671875 " class="st0"/>
   <polygon stroke="null" id="svg_40" fill="#FFFFFF" points="1829.8521728515625,405.463623046875 1829.8521728515625,361.6439208984375 1857.7362060546875,361.6439208984375 1857.7362060546875,341.7254638671875 1829.8521728515625,341.7254638671875 1829.8521728515625,313.841552734375 1809.9337158203125,313.841552734375 1809.9337158203125,341.7254638671875 1790.0152587890625,341.7254638671875 1790.0152587890625,361.6439208984375 1809.9337158203125,361.6439208984375 1809.9337158203125,417.4166259765625 1829.8521728515625,433.3524169921875 1865.7064208984375,433.3524169921875 1865.7064208984375,413.4339599609375 1837.8177490234375,413.4339599609375 " class="st0"/>
   <polygon stroke="null" id="svg_41" fill="#FFFFFF" points="1901.5606689453125,377.5797119140625 1897.5731201171875,373.596923828125 1897.5731201171875,369.6142578125 1901.5606689453125,361.6439208984375 1961.3160400390625,361.6439208984375 1961.3160400390625,341.7254638671875 1893.5904541015625,341.7254638671875 1877.6546630859375,361.6439208984375 1877.6546630859375,381.5623779296875 1893.5904541015625,397.4981689453125 1941.3975830078125,397.4981689453125 1945.3802490234375,405.463623046875 1945.3802490234375,409.451171875 1941.3975830078125,413.4339599609375 1877.6546630859375,413.4339599609375 1877.6546630859375,433.3524169921875 1949.3631591796875,433.3524169921875 1965.2989501953125,417.4166259765625 1965.2989501953125,397.4981689453125 1949.3631591796875,377.5797119140625 " class="st0"/>
   <polygon stroke="null" id="svg_42" fill="#FFFFFF" points="2033.0196533203125,341.7254638671875 2033.0196533203125,361.6439208984375 2048.9554443359375,361.6439208984375 2048.9554443359375,413.4339599609375 2033.0196533203125,413.4339599609375 2033.0196533203125,433.3524169921875 2096.7579345703125,433.3524169921875 2096.7579345703125,413.4339599609375 2072.8568115234375,413.4339599609375 2072.8568115234375,361.6439208984375 2092.7752685546875,361.6439208984375 2100.7454833984375,369.6142578125 2100.7454833984375,381.5623779296875 2120.6639404296875,381.5623779296875 2120.6639404296875,361.6439208984375 2104.7281494140625,341.7254638671875 " class="st0"/>
   <path stroke="null" id="svg_43" fill="#FFFFFF" d="m2152.53165,341.72641l-19.91849,19.91849l0,55.77176l19.91849,19.91849l67.72285,0l0,-19.91849l-59.75546,0l-7.96739,-7.96739l0,-7.96739l71.70655,0l0,-35.85327l-19.91849,-19.91849l-51.78806,0l0,-3.9837zm51.78806,35.85327l-51.78806,0l0,-7.96739l7.96739,-7.96739l35.85327,0l7.96739,7.96739l0,7.96739z" class="st0"/>
   <polygon stroke="null" id="svg_44" fill="#FFFFFF" points="2268.0589599609375,377.5797119140625 2260.0933837890625,373.596923828125 2260.0933837890625,369.6142578125 2268.0589599609375,361.6439208984375 2327.8143310546875,361.6439208984375 2327.8143310546875,341.7254638671875 2256.1058349609375,341.7254638671875 2240.1749267578125,361.6439208984375 2240.1749267578125,381.5623779296875 2256.1058349609375,397.4981689453125 2303.9132080078125,397.4981689453125 2307.8958740234375,405.463623046875 2307.8958740234375,409.451171875 2303.9132080078125,413.4339599609375 2240.1749267578125,413.4339599609375 2240.1749267578125,433.3524169921875 2311.8785400390625,433.3524169921875 2331.7969970703125,417.4166259765625 2331.7969970703125,397.4981689453125 2311.8785400390625,377.5797119140625 " class="st0"/>
   <path stroke="null" id="svg_45" fill="#FFFFFF" d="m2363.66759,341.72641l-19.91849,19.91849l0,55.77176l19.91849,19.91849l67.72285,0l0,-19.91849l-59.75546,0l-7.96739,-7.96739l0,-7.96739l71.70655,0l0,-35.85327l-19.91849,-19.91849l-51.78806,0l0,-3.9837zm51.78806,35.85327l-51.78806,0l0,-7.96739l7.96739,-7.96739l35.85327,0l7.96739,7.96739l0,7.96739z" class="st0"/>
   <polygon stroke="null" id="svg_46" fill="#FFFFFF" points="2447.3253173828125,341.7254638671875 2447.3253173828125,361.6439208984375 2467.2437744140625,361.6439208984375 2467.2437744140625,413.4339599609375 2447.3253173828125,413.4339599609375 2447.3253173828125,433.3524169921875 2511.0633544921875,433.3524169921875 2511.0633544921875,413.4339599609375 2487.1622314453125,413.4339599609375 2487.1622314453125,361.6439208984375 2511.0633544921875,361.6439208984375 2519.0338134765625,369.6142578125 2519.0338134765625,381.5623779296875 2538.9522705078125,381.5623779296875 2538.9522705078125,361.6439208984375 2519.0338134765625,341.7254638671875 " class="st0"/>
   <polygon stroke="null" id="svg_47" fill="#FFFFFF" points="2622.6090087890625,389.53271484375 2594.7200927734375,413.4339599609375 2594.7200927734375,413.4339599609375 2570.8189697265625,389.53271484375 2570.8189697265625,341.7254638671875 2546.9176025390625,341.7254638671875 2546.9176025390625,397.4981689453125 2586.7545166015625,433.3524169921875 2606.6729736328125,433.3524169921875 2642.5274658203125,397.4981689453125 2642.5274658203125,341.7254638671875 2622.6090087890625,341.7254638671875 " class="st0"/>
   <path stroke="null" id="svg_48" fill="#FFFFFF" d="m2674.39597,341.72641l-19.91849,19.91849l0,55.77176l19.91849,19.91849l67.72285,0l0,-19.91849l-59.75546,0l-7.96739,-7.96739l0,-7.96739l71.70655,0l0,-35.85327l-19.91849,-19.91849l-51.78806,0l0,-3.9837zm55.77176,35.85327l-51.78806,0l0,-7.96739l7.96739,-7.96739l35.85327,0l7.96739,7.96739l0,7.96739z" class="st0"/>
   <path stroke="null" id="svg_49" fill="#FFFFFF" d="m2837.72755,341.72641l-55.77176,0l-19.91849,19.91849l0,55.77176l19.91849,19.91849l75.69025,0l0,-127.47831l-19.91849,0l0,31.86958zm0,71.70655l-43.82067,0l-7.96739,-7.96739l0,-35.85327l7.96739,-7.96739l43.82067,0l0,51.78806z" class="st0"/>
   <rect stroke="null" id="svg_50" fill="#FFFFFF" height="19.91849" width="19.91849" class="st0" y="413.43295" x="2881.54822"/>
   <path stroke="null" id="svg_51" fill="#FFFFFF" d="m367.83533,449.28623l75.69025,-75.69025l-67.72285,0l-91.62503,-175.28267l-91.62503,175.28267l-67.72285,0l75.69025,75.69025l167.31528,0zm-79.67394,-175.28267c7.96739,0 15.93479,0 19.91849,3.9837c7.96739,3.9837 11.95109,7.96739 15.93479,15.93479c3.9837,3.9837 3.9837,11.95109 3.9837,19.91849c0,23.90218 -19.91849,39.83697 -39.83697,39.83697s-39.83697,-19.91849 -39.83697,-39.83697c-3.9837,-19.91849 15.93479,-39.83697 39.83697,-39.83697z" class="st0"/>
   <path stroke="null" id="svg_52" fill="#FFFFFF" d="m168.65048,23.03064l-139.4294,139.4294l0,235.03813l139.4294,139.4294l235.03813,0l139.4294,-139.4294l0,-235.03813l-139.4294,-139.4294l-235.03813,0zm199.18486,87.64134l-163.33158,0l-87.64134,87.64134l0,111.54352l43.82067,0l75.69025,-143.4131c11.95109,-19.91849 31.86958,-31.86958 51.78806,-31.86958c23.90218,0 43.82067,11.95109 51.78806,31.86958l75.69025,143.4131l99.59243,0l0,75.69025l-123.49461,123.49461l-211.13595,0l-123.49461,-123.49461l0,-211.13595l123.49461,-123.49461l211.13595,0l123.49461,123.49461l0,119.51091l-59.75546,0l0,-91.62503l-87.64134,-91.62503z" class="st0"/>
   <path stroke="null" id="svg_53" fill="#FFFFFF" d="m515.23213,34.98173c0,0 0,0 0,0c3.9837,-3.9837 3.9837,-3.9837 3.9837,-3.9837l11.95109,0c0,0 3.9837,0 3.9837,0c0,0 0,3.9837 0,3.9837l0,3.9837c0,0 0,3.9837 0,3.9837c0,0 0,0 0,0l-15.93479,3.9837c0,0 0,0 -3.9837,0c0,0 -3.9837,0 -3.9837,3.9837c0,0 -3.9837,3.9837 -3.9837,3.9837s0,3.9837 0,7.96739l0,11.95109l39.83697,0l0,-7.96739l-31.86958,0l0,-3.9837c0,0 0,-3.9837 0,-3.9837c0,0 0,0 0,0l15.93479,-3.9837c0,0 0,0 3.9837,0c0,0 3.9837,0 3.9837,-3.9837c0,0 3.9837,-3.9837 3.9837,-3.9837c0,0 0,-3.9837 0,-7.96739c0,-3.9837 0,-3.9837 0,-7.96739c0,0 0,-3.9837 -3.9837,-3.9837c0,0 -3.9837,-3.9837 -3.9837,-3.9837c0,0 -3.9837,0 -7.96739,0l-11.95109,0c-3.9837,0 -3.9837,0 -7.96739,0c0,0 -3.9837,0 -3.9837,3.9837c0,0 -3.9837,3.9837 -3.9837,3.9837s0,3.9837 0,7.96739l0,3.9837l15.93479,-7.96739l0,0z" class="st0"/>
  </g>
 </g>
</svg>