<svg width="2261" height="2329" xmlns="http://www.w3.org/2000/svg" xml:space="preserve" version="1.1">

 <g>
  <title>Layer 1</title>
  <g transform="rotate(179.724 1130.42 1177.97)" stroke="null" id="svg_1">
   <g stroke="null" id="svg_2">
    <polygon stroke="null" id="svg_3" fill="#FFFFFF" points="26.2003173828125,1385.588134765625 26.2003173828125,1781.991943359375 1120.988109588623,2310.491943359375 1460.756175994873,2140.60791015625 1460.756175994873,2310.491943359375 1894.878734588623,2310.491943359375 1894.878734588623,1932.9820556640625 2234.647045135498,1781.991943359375 2234.647045135498,1385.588134765625 1120.988109588623,1914.111083984375 " class="st0"/>
    <path stroke="null" id="svg_4" fill="#FFFFFF" d="m2234.6422,1159.09145l0,-1132.52957l-811.64619,0l0,566.26479c0,151.00394 -132.12845,283.13239 -283.13239,283.13239c-151.00394,0 -283.13239,-132.12845 -283.13239,-283.13239l0,-566.26479l-811.64619,0l0,1132.52957l1094.77859,528.5138l1094.77859,-528.5138z" class="st0"/>
    <path stroke="null" id="svg_5" fill="#FFFFFF" d="m158.33798,2140.61708c0,0 0,18.87549 0,0c0,18.87549 0,18.87549 0,0l-75.50197,37.75099c0,0 0,0 -18.87549,0c0,0 -18.87549,0 -18.87549,18.87549c0,0 -18.87549,18.87549 -18.87549,18.87549c0,0 0,18.87549 0,37.75099c0,18.87549 0,18.87549 0,37.75099c0,0 0,18.87549 18.87549,18.87549c0,0 18.87549,18.87549 18.87549,18.87549c0,0 18.87549,0 37.75099,0l37.75099,0c18.87549,0 18.87549,0 37.75099,0c0,0 18.87549,0 18.87549,-18.87549c0,0 18.87549,-18.87549 18.87549,-18.87549c0,0 0,-18.87549 0,-37.75099l0,-18.87549l-37.75099,0l0,18.87549c0,0 0,18.87549 0,18.87549c0,0 -18.87549,0 -18.87549,0l-37.75099,0c0,0 -18.87549,0 -18.87549,0c0,0 0,0 0,-18.87549l0,-18.87549c0,0 0,-18.87549 0,-18.87549c0,0 0,0 0,0l75.50197,-18.87549c0,0 0,0 18.87549,0c0,0 18.87549,0 18.87549,-18.87549c0,0 18.87549,-18.87549 18.87549,-18.87549c0,0 0,-18.87549 0,-37.75099l0,-37.75099l-169.87944,0l0,37.75099l94.37746,18.87549l0,0z" class="st0"/>
   </g>
  </g>
 </g>
</svg>