<svg width="3000" height="2564" xmlns="http://www.w3.org/2000/svg" xml:space="preserve" version="1.1">

 <g>
  <title>Layer 1</title>
  <g stroke="null" id="svg_1">
   <path stroke="null" id="svg_2" fill="#FFFFFF" d="m2583.34901,1442.84022c-11.07982,-160.04191 -105.87388,-311.46617 -270.84015,-430.88206c-14.7731,-61.55458 -46.78148,-116.9537 -91.10078,-160.04191l96.02514,34.47056l39.39493,-107.10497c8.61764,0 16.00419,0 23.39074,-1.23109c16.00419,32.00838 48.01257,51.70585 86.17641,51.70585c54.16803,0 97.25624,-43.08821 97.25624,-99.71842c0,-50.47476 -34.47056,-89.86969 -81.25205,-98.48733c-1.23109,-12.31092 -3.69327,-23.39074 -8.61764,-34.47056c-12.31092,-25.85292 -34.47056,-44.3193 -65.24785,-55.39912l-94.79405,-34.47056c-46.78148,-17.23528 -89.86969,-7.38655 -118.18479,23.39074c-7.38655,-8.61764 -16.00419,-14.7731 -25.85292,-20.92856c33.23947,-30.77729 54.16803,-75.09659 51.70585,-124.34025c-4.92437,-80.02095 -73.8655,-142.80663 -152.65536,-142.80663c-86.17641,0 -152.65536,67.71004 -152.65536,153.88645c0,14.7731 2.46218,28.31511 6.15546,41.85711c-8.61764,0 -17.23528,1.23109 -25.85292,3.69327c-7.38655,2.46218 -14.7731,6.15546 -20.92856,9.84873c-6.15546,-4.92437 -13.54201,-8.61764 -20.92856,-11.07982c-8.61764,-2.46218 -17.23528,-3.69327 -25.85292,-3.69327c3.69327,-19.69747 6.15546,-40.62602 6.15546,-61.55458c0,-193.28138 -156.34863,-349.63001 -349.63001,-349.63001c-193.28138,0 -349.63001,156.34863 -349.63001,349.63001c0,20.92856 2.46218,41.85711 6.15546,61.55458c-8.61764,0 -17.23528,1.23109 -25.85292,3.69327c-7.38655,2.46218 -14.7731,6.15546 -20.92856,11.07982c-6.15546,-4.92437 -13.54201,-7.38655 -20.92856,-9.84873c-8.61764,-2.46218 -17.23528,-3.69327 -25.85292,-3.69327c7.38655,-27.08402 8.61764,-56.63021 -1.23109,-88.6386c-18.46637,-56.63021 -68.94113,-99.71842 -128.03353,-105.87388c-54.16803,-6.15546 -103.41169,16.00419 -135.42008,54.16803c-8.61764,-17.23528 -20.92856,-32.00838 -36.93275,-40.62602c-23.39074,-14.7731 -52.93694,-17.23528 -86.17641,-9.84873l-98.48733,23.39074c-66.47895,16.00419 -97.25624,67.71004 -81.25205,134.18898l20.92856,83.71423l56.63021,-13.54201l29.5462,120.64698c-18.46637,11.07982 -34.47056,25.85292 -48.01257,43.08821c-11.07982,-4.92437 -24.62183,-7.38655 -36.93275,-7.38655c-55.39912,0 -97.25624,43.08821 -97.25624,99.71842s43.08821,99.71842 97.25624,99.71842c14.7731,0 28.31511,-2.46218 40.62602,-8.61764c28.31511,36.93275 72.6344,61.55458 121.87807,61.55458c23.39074,0 45.55039,-4.92437 65.24785,-14.7731c-35.70166,40.62602 -62.78567,88.6386 -75.09659,142.80663c-164.96627,119.41589 -259.76033,270.84015 -270.84015,430.88206c-184.66374,119.41589 -283.15107,264.68469 -283.15107,421.03333c0,109.56715 49.24366,215.44103 144.03772,310.23508c1.23109,1.23109 1.23109,1.23109 2.46218,2.46218c39.39493,39.39493 113.26043,107.10497 246.21832,171.12173c193.28138,93.56296 428.41988,146.4999 428.41988,146.4999c94.79405,20.92856 299.15526,60.32349 563.83995,57.86131c44.3193,0 253.60487,-2.46218 523.21393,-56.63021c146.4999,-29.5462 294.23089,-60.32349 469.0459,-147.73099c167.42846,-83.71423 232.67631,-155.11754 248.6805,-173.58392c40.62602,-45.55039 142.80663,-158.81082 142.80663,-310.23508c-3.69327,-156.34863 -102.1806,-301.61744 -286.84434,-421.03333z" class="st0"/>
   <g stroke="null" id="svg_3">
    <path stroke="null" id="svg_4" fill="#89A9D6" d="m1481.52203,476.43332c-18.46637,0 -33.23947,14.7731 -33.23947,33.23947c0,18.46637 14.7731,33.23947 33.23947,33.23947s33.23947,-14.7731 33.23947,-33.23947c0,-18.46637 -14.7731,-33.23947 -33.23947,-33.23947z" class="st1"/>
    <path stroke="null" id="svg_5" fill="#89A9D6" d="m1365.79942,446.88712c-12.31092,12.31092 -12.31092,33.23947 0,46.78148c12.31092,12.31092 33.23947,12.31092 46.78148,0c12.31092,-12.31092 12.31092,-33.23947 0,-46.78148c-13.54201,-12.31092 -34.47056,-12.31092 -46.78148,0z" class="st1"/>
    <circle stroke="null" id="svg_6" fill="#89A9D6" r="33.23888" cy="377.94599" cx="1349.79522" class="st1"/>
    <path stroke="null" id="svg_7" fill="#89A9D6" d="m1412.5809,307.77377c12.31092,-12.31092 12.31092,-33.23947 0,-46.78148c-12.31092,-12.31092 -33.23947,-12.31092 -46.78148,0c-12.31092,12.31092 -12.31092,33.23947 0,46.78148c12.31092,12.31092 33.23947,12.31092 46.78148,0z" class="st1"/>
    <path stroke="null" id="svg_8" fill="#89A9D6" d="m1481.52203,278.22757c18.46637,0 33.23947,-14.7731 33.23947,-33.23947c0,-18.46637 -14.7731,-33.23947 -33.23947,-33.23947c-18.46637,0 -33.23947,14.7731 -33.23947,33.23947c1.23109,18.46637 16.00419,33.23947 33.23947,33.23947z" class="st1"/>
    <path stroke="null" id="svg_9" fill="#89A9D6" d="m1598.47573,307.77377c12.31092,-12.31092 12.31092,-33.23947 0,-46.78148c-12.31092,-12.31092 -33.23947,-12.31092 -46.78148,0s-12.31092,33.23947 0,46.78148c13.54201,12.31092 34.47056,12.31092 46.78148,0z" class="st1"/>
    <path stroke="null" id="svg_10" fill="#89A9D6" d="m1581.24045,377.94599c0,18.46637 14.7731,33.23947 33.23947,33.23947c18.46637,0 33.23947,-14.7731 33.23947,-33.23947c0,-18.46637 -14.7731,-33.23947 -33.23947,-33.23947c-18.46637,0 -33.23947,14.7731 -33.23947,33.23947z" class="st1"/>
    <path stroke="null" id="svg_11" fill="#89A9D6" d="m1598.47573,493.6686c12.31092,-12.31092 12.31092,-33.23947 0,-46.78148s-33.23947,-12.31092 -46.78148,0c-12.31092,12.31092 -12.31092,33.23947 0,46.78148c13.54201,13.54201 33.23947,13.54201 46.78148,0z" class="st1"/>
    <circle stroke="null" id="svg_12" fill="#44679A" r="92.33187" cy="730.03819" cx="661.61502" class="st2"/>
    <path stroke="null" id="svg_13" fill="#44679A" d="m806.88383,599.54248c0,22.15965 14.7731,38.16384 35.70166,38.16384c22.15965,0 35.70166,-16.00419 35.70166,-38.16384c0,-22.15965 -14.7731,-38.16384 -35.70166,-38.16384c-20.92856,1.23109 -35.70166,16.00419 -35.70166,38.16384z" class="st2"/>
    <path stroke="null" id="svg_14" fill="#44679A" d="m897.98461,489.97533c50.47476,0 92.33187,-40.62602 92.33187,-92.33187c0,-51.70585 -40.62602,-92.33187 -92.33187,-92.33187c-50.47476,0 -91.10078,41.85711 -91.10078,92.33187c-1.23109,51.70585 40.62602,92.33187 91.10078,92.33187zm0,-152.65536c34.47056,0 61.55458,27.08402 61.55458,61.55458c0,33.23947 -28.31511,61.55458 -61.55458,61.55458s-61.55458,-28.31511 -61.55458,-61.55458c0,-34.47056 28.31511,-61.55458 61.55458,-61.55458z" class="st2"/>
    <path stroke="null" id="svg_15" fill="#44679A" d="m1005.08958,616.77776l68.94113,-8.61764l0,1.23109l-44.3193,57.86131c-6.15546,8.61764 -3.69327,20.92856 4.92437,25.85292l0,0c9.84873,6.15546 20.92856,2.46218 25.85292,-7.38655l30.77729,-66.47895l1.23109,0l28.31511,65.24785c3.69327,9.84873 16.00419,13.54201 25.85292,8.61764l2.46218,-1.23109c9.84873,-6.15546 12.31092,-18.46637 4.92437,-27.08402l-44.3193,-55.39912l0,-1.23109l70.17222,8.61764c11.07982,1.23109 19.69747,-7.38655 19.69747,-17.23528c0,-9.84873 -8.61764,-18.46637 -18.46637,-18.46637c-1.23109,0 -2.46218,0 -2.46218,0l-70.17222,9.84873l0,-1.23109l44.3193,-57.86131c6.15546,-8.61764 3.69327,-20.92856 -4.92437,-27.08402l-1.23109,0c-9.84873,-4.92437 -20.92856,-1.23109 -25.85292,8.61764l-28.31511,66.47895l-1.23109,0l-29.5462,-65.24785c-3.69327,-9.84873 -16.00419,-13.54201 -25.85292,-8.61764l-1.23109,1.23109c-9.84873,4.92437 -12.31092,18.46637 -4.92437,25.85292l44.3193,56.63021l0,1.23109l-67.71004,-8.61764c-11.07982,-1.23109 -19.69747,7.38655 -19.69747,17.23528c-1.23109,9.84873 8.61764,18.46637 18.46637,17.23528z" class="st2"/>
    <path stroke="null" id="svg_16" fill="#44679A" d="m499.11093,770.66421c22.15965,0 35.70166,-16.00419 35.70166,-38.16384c0,-22.15965 -14.7731,-38.16384 -35.70166,-38.16384c-20.92856,0 -35.70166,16.00419 -35.70166,38.16384c0,20.92856 14.7731,38.16384 35.70166,38.16384z" class="st2"/>
    <path stroke="null" id="svg_17" fill="#44679A" d="m2085.988,599.54248c0,22.15965 13.54201,38.16384 35.70166,38.16384c20.92856,0 35.70166,-16.00419 35.70166,-38.16384c0,-22.15965 -14.7731,-38.16384 -35.70166,-38.16384s-35.70166,16.00419 -35.70166,38.16384z" class="st2"/>
    <path stroke="null" id="svg_18" fill="#44679A" d="m2066.29054,489.97533c50.47476,0 92.33187,-40.62602 92.33187,-92.33187c0,-50.47476 -40.62602,-92.33187 -92.33187,-92.33187c-51.70585,0 -91.10078,40.62602 -91.10078,92.33187c0,51.70585 40.62602,92.33187 91.10078,92.33187zm0,-152.65536c33.23947,0 61.55458,28.31511 61.55458,61.55458c0,33.23947 -28.31511,61.55458 -61.55458,61.55458c-33.23947,0 -61.55458,-28.31511 -61.55458,-61.55458c0,-34.47056 27.08402,-61.55458 61.55458,-61.55458z" class="st2"/>
    <path stroke="null" id="svg_19" fill="#44679A" d="m1785.60165,616.77776l70.17222,-8.61764l0,1.23109l-44.3193,55.39912c-6.15546,8.61764 -4.92437,20.92856 4.92437,27.08402l2.46218,1.23109c9.84873,4.92437 20.92856,1.23109 25.85292,-8.61764l28.31511,-65.24785l1.23109,0l30.77729,66.47895c4.92437,9.84873 17.23528,13.54201 25.85292,7.38655l0,0c8.61764,-6.15546 11.07982,-17.23528 4.92437,-25.85292l-44.3193,-57.86131l0,-1.23109l68.94113,8.61764c11.07982,1.23109 19.69747,-7.38655 19.69747,-18.46637c0,-11.07982 -9.84873,-18.46637 -19.69747,-17.23528l-67.71004,8.61764l0,-1.23109l44.3193,-56.63021c6.15546,-8.61764 3.69327,-20.92856 -4.92437,-25.85292l-1.23109,-1.23109c-9.84873,-4.92437 -20.92856,-1.23109 -25.85292,8.61764l-29.5462,65.24785l-1.23109,0l-28.31511,-66.47895c-3.69327,-9.84873 -16.00419,-13.54201 -25.85292,-8.61764l-1.23109,0c-9.84873,4.92437 -12.31092,17.23528 -4.92437,27.08402l44.3193,57.86131l0,1.23109l-70.17222,-9.84873c0,0 -1.23109,0 -2.46218,0c-9.84873,0 -18.46637,7.38655 -18.46637,18.46637c-1.23109,11.07982 7.38655,19.69747 18.46637,18.46637z" class="st2"/>
    <path stroke="null" id="svg_20" fill="#44679A" d="m2465.16421,770.66421c20.92856,0 35.70166,-16.00419 35.70166,-38.16384c0,-22.15965 -14.7731,-38.16384 -35.70166,-38.16384c-20.92856,0 -35.70166,16.00419 -35.70166,38.16384c0,20.92856 13.54201,38.16384 35.70166,38.16384z" class="st2"/>
    <path stroke="null" id="svg_21" fill="#6F97C6" d="m1967.80321,1791.23915c-132.95789,-23.39074 -268.37797,-34.47056 -402.56695,-34.47056l-164.96627,0c-135.42008,0 -269.60906,11.07982 -402.56695,34.47056c-355.78547,64.01676 -598.31052,195.74356 -598.31052,338.55019c0,29.5462 11.07982,59.0924 32.00838,88.6386c20.92856,29.5462 51.70585,55.39912 87.4075,73.8655c248.6805,125.57134 600.7727,198.20575 963.94472,198.20575c369.32748,0 711.57095,-70.17222 963.94472,-198.20575c35.70166,-18.46637 66.47895,-43.08821 87.4075,-73.8655c20.92856,-29.5462 32.00838,-59.0924 32.00838,-88.6386c0,-142.80663 -242.52505,-274.53343 -598.31052,-338.55019z" class="st3"/>
    <path stroke="null" id="svg_22" fill="#89A9D6" d="m741.63597,1447.76459c-7.38655,-3.69327 -16.00419,-4.92437 -25.85292,-4.92437c-11.07982,0 -23.39074,2.46218 -35.70166,7.38655c-36.93275,14.7731 -66.47895,49.24366 -66.47895,78.78986c0,3.69327 0,6.15546 1.23109,8.61764c2.46218,9.84873 8.61764,18.46637 18.46637,23.39074c16.00419,7.38655 39.39493,7.38655 62.78567,-1.23109l0,0c41.85711,-16.00419 72.6344,-56.63021 66.47895,-86.17641c-4.92437,-13.54201 -12.31092,-20.92856 -20.92856,-25.85292z" class="st1"/>
    <path stroke="null" id="svg_23" fill="#89A9D6" d="m2285.42484,1448.99568c-12.31092,-4.92437 -24.62183,-7.38655 -35.70166,-7.38655c-9.84873,0 -19.69747,2.46218 -25.85292,4.92437c-9.84873,4.92437 -16.00419,12.31092 -18.46637,23.39074c-6.15546,30.77729 24.62183,70.17222 66.47895,87.4075c23.39074,8.61764 46.78148,9.84873 62.78567,1.23109c9.84873,-4.92437 16.00419,-12.31092 18.46637,-23.39074c4.92437,-29.5462 -24.62183,-70.17222 -67.71004,-86.17641z" class="st1"/>
    <path stroke="null" id="svg_24" fill="#89A9D6" d="m2524.25661,1478.54188l-1.23109,-1.23109l0,-2.46218c0,-157.57972 -94.79405,-309.00399 -265.91579,-427.18879l-1.23109,-1.23109l0,-1.23109c-18.46637,-131.7268 -140.34444,-231.44522 -283.15107,-231.44522c-60.32349,0 -118.18479,17.23528 -167.42846,51.70585l-1.23109,1.23109l-2.46218,0c-103.41169,-19.69747 -210.51666,-30.77729 -320.08382,-30.77729c-109.56715,0 -216.67212,9.84873 -320.08382,30.77729l-1.23109,0l-1.23109,-1.23109c-49.24366,-33.23947 -107.10497,-51.70585 -167.42846,-51.70585c-142.80663,0 -263.4536,99.71842 -283.15107,231.44522l0,1.23109l-1.23109,1.23109c-171.12173,116.9537 -265.91579,268.37797 -265.91579,427.18879l0,2.46218l-2.46218,1.23109c-183.43265,110.79824 -279.45779,243.75614 -279.45779,385.33167c0,118.18479 70.17222,232.67631 203.13011,333.62582c-8.61764,-22.15965 -13.54201,-44.3193 -13.54201,-66.47895c0,-104.64279 98.48733,-205.5923 278.2267,-281.91998c102.1806,-44.3193 227.75195,-78.78986 368.09639,-103.41169c136.65117,-23.39074 274.53343,-34.47056 412.41569,-34.47056l147.73099,0c137.88226,0 276.99561,11.07982 412.41569,34.47056c140.34444,24.62183 265.91579,60.32349 368.09639,103.41169c179.73937,76.32768 278.2267,177.27719 278.2267,281.91998c0,22.15965 -4.92437,44.3193 -13.54201,66.47895c132.95789,-99.71842 201.89902,-214.20994 201.89902,-333.62582c2.46218,-140.34444 -94.79405,-273.30234 -278.2267,-385.33167zm-1815.86011,113.26043c-17.23528,6.15546 -34.47056,9.84873 -51.70585,9.84873c-17.23528,0 -32.00838,-3.69327 -45.55039,-9.84873c-20.92856,-9.84873 -34.47056,-28.31511 -38.16384,-49.24366c-9.84873,-49.24366 29.5462,-105.87388 91.10078,-129.26462c34.47056,-13.54201 70.17222,-13.54201 97.25624,0c20.92856,9.84873 34.47056,28.31511 39.39493,49.24366c8.61764,49.24366 -30.77729,105.87388 -92.33187,129.26462zm427.18879,-307.7729c-28.31511,50.47476 -72.6344,88.6386 -125.57134,107.10497c-24.62183,8.61764 -49.24366,13.54201 -72.6344,13.54201c-30.77729,0 -60.32349,-7.38655 -87.4075,-19.69747c-44.3193,-22.15965 -76.32768,-59.0924 -92.33187,-105.87388c-17.23528,1.23109 -30.77729,16.00419 -30.77729,34.47056c0,24.62183 -27.08402,44.3193 -52.93694,29.5462c-9.84873,-4.92437 -14.7731,-16.00419 -14.7731,-28.31511l0,-2.46218c0,-38.16384 30.77729,-67.71004 68.94113,-67.71004c8.61764,0 16.00419,1.23109 23.39074,4.92437c-1.23109,-1.23109 -1.23109,-1.23109 -1.23109,-2.46218c-2.46218,-4.92437 -4.92437,-11.07982 -9.84873,-14.7731c-17.23528,-17.23528 -44.3193,-17.23528 -61.55458,-1.23109c-13.54201,12.31092 -32.00838,18.46637 -49.24366,11.07982c-30.77729,-13.54201 -35.70166,-50.47476 -14.7731,-71.40331c0,0 0,0 1.23109,-1.23109c0,0 1.23109,-1.23109 1.23109,-1.23109c34.47056,-33.23947 89.86969,-33.23947 124.34025,1.23109c4.92437,4.92437 8.61764,9.84873 11.07982,14.7731c3.69327,-25.85292 13.54201,-50.47476 25.85292,-75.09659c28.31511,-50.47476 73.8655,-88.6386 128.03353,-107.10497c54.16803,-18.46637 110.79824,-16.00419 158.81082,7.38655c96.02514,45.55039 129.26462,169.89064 70.17222,274.53343zm619.23908,-1.23109l-41.85711,41.85711c-17.23528,17.23528 -39.39493,25.85292 -64.01676,25.85292c-24.62183,0 -46.78148,-9.84873 -64.01676,-25.85292c-11.07982,-11.07982 -29.5462,-11.07982 -39.39493,0c-17.23528,17.23528 -39.39493,25.85292 -64.01676,25.85292c-24.62183,0 -46.78148,-9.84873 -64.01676,-25.85292c-11.07982,-11.07982 -29.5462,-11.07982 -39.39493,0c-17.23528,17.23528 -39.39493,25.85292 -64.01676,25.85292s-46.78148,-9.84873 -64.01676,-25.85292l-41.85711,-41.85711c-12.31092,-12.31092 -12.31092,-32.00838 0,-43.08821c12.31092,-12.31092 32.00838,-12.31092 43.08821,0l41.85711,41.85711c11.07982,11.07982 29.5462,11.07982 39.39493,0c17.23528,-17.23528 39.39493,-25.85292 64.01676,-25.85292c23.39074,0 46.78148,9.84873 64.01676,25.85292c11.07982,11.07982 29.5462,11.07982 39.39493,0c35.70166,-35.70166 92.33187,-35.70166 126.80243,0c4.92437,4.92437 12.31092,8.61764 19.69747,8.61764s14.7731,-2.46218 19.69747,-8.61764l41.85711,-41.85711c12.31092,-12.31092 32.00838,-12.31092 43.08821,0c14.7731,11.07982 14.7731,30.77729 3.69327,43.08821zm359.47875,100.94951c-27.08402,13.54201 -55.39912,19.69747 -86.17641,19.69747c-80.02095,0 -158.81082,-46.78148 -199.43684,-120.64698c-57.86131,-104.64279 -24.62183,-228.98304 73.8655,-278.2267c48.01257,-24.62183 105.87388,-27.08402 160.04191,-7.38655c52.93694,18.46637 98.48733,56.63021 126.80243,107.10497c13.54201,23.39074 22.15965,49.24366 25.85292,75.09659c3.69327,-4.92437 7.38655,-9.84873 11.07982,-14.7731c34.47056,-34.47056 89.86969,-34.47056 124.34025,-1.23109c0,0 1.23109,1.23109 1.23109,1.23109c0,0 0,1.23109 1.23109,1.23109c16.00419,17.23528 16.00419,44.3193 -1.23109,61.55458s-44.3193,17.23528 -61.55458,0c-14.7731,-13.54201 -36.93275,-18.46637 -54.16803,-8.61764c-9.84873,6.15546 -16.00419,13.54201 -19.69747,22.15965c0,1.23109 -1.23109,2.46218 -1.23109,2.46218c13.54201,-4.92437 28.31511,-6.15546 44.3193,-1.23109c29.5462,9.84873 48.01257,38.16384 48.01257,68.94113c0,9.84873 -4.92437,19.69747 -13.54201,24.62183c-27.08402,16.00419 -55.39912,-2.46218 -55.39912,-28.31511c0,-18.46637 -13.54201,-32.00838 -32.00838,-34.47056c-14.7731,51.70585 -46.78148,88.6386 -92.33187,110.79824zm278.2267,158.81082c-4.92437,20.92856 -18.46637,39.39493 -39.39493,49.24366c-13.54201,6.15546 -28.31511,9.84873 -45.55039,9.84873c-17.23528,0 -34.47056,-3.69327 -51.70585,-9.84873c-61.55458,-23.39074 -100.94951,-80.02095 -91.10078,-129.26462c4.92437,-22.15965 18.46637,-39.39493 39.39493,-49.24366c27.08402,-13.54201 62.78567,-13.54201 97.25624,0c60.32349,24.62183 100.94951,81.25205 91.10078,129.26462z" class="st1"/>
    <path stroke="null" id="svg_25" fill="#BFBFBF" d="m1482.75312,666.02142c158.81082,0 288.07543,-129.26462 288.07543,-288.07543c0,-158.81082 -129.26462,-288.07543 -288.07543,-288.07543c-158.81082,0 -288.07543,129.26462 -288.07543,288.07543c-1.23109,158.81082 128.03353,288.07543 288.07543,288.07543zm-1.23109,-517.05847c125.57134,0 227.75195,102.1806 227.75195,227.75195c0,125.57134 -102.1806,227.75195 -227.75195,227.75195c-125.57134,0 -227.75195,-102.1806 -227.75195,-227.75195c0,-125.57134 102.1806,-227.75195 227.75195,-227.75195z" class="st4"/>
    <path stroke="null" id="svg_26" fill="#89A9D6" d="m1042.02232,1045.19764c-19.69747,-9.84873 -41.85711,-14.7731 -64.01676,-14.7731c-62.78567,0 -124.34025,38.16384 -157.57972,96.02514c-2.46218,3.69327 -4.92437,8.61764 -6.15546,12.31092c32.00838,-55.39912 93.56296,-94.79405 157.57972,-96.02514c99.71842,-3.69327 161.273,92.33187 129.26462,184.66374c-18.46637,56.63021 -66.47895,100.94951 -124.34025,116.9537c-148.96208,39.39493 -222.82758,-129.26462 -119.41589,-230.21413c64.01676,-68.94113 196.97466,-68.94113 225.28976,34.47056c24.62183,92.33187 -66.47895,189.58811 -161.273,172.35282c-66.47895,-8.61764 -100.94951,-86.17641 -75.09659,-145.26881c33.23947,-92.33187 183.43265,-123.10916 208.05448,-9.84873c14.7731,78.78986 -77.55877,155.11754 -150.19318,114.49152c-41.85711,-24.62183 -45.55039,-87.4075 -13.54201,-121.87807c40.62602,-51.70585 135.42008,-43.08821 131.7268,33.23947c-1.23109,65.24785 -107.10497,99.71842 -119.41589,23.39074c-3.69327,-29.5462 22.15965,-57.86131 50.47476,-57.86131c-45.55039,1.23109 -67.71004,66.47895 -25.85292,89.86969c38.16384,19.69747 87.4075,-16.00419 87.4075,-56.63021c-2.46218,-88.6386 -120.64698,-62.78567 -131.7268,9.84873c-8.61764,40.62602 24.62183,80.02095 65.24785,76.32768c52.93694,-1.23109 99.71842,-55.39912 88.6386,-108.33606c-20.92856,-94.79405 -147.73099,-61.55458 -173.58392,13.54201c-33.23947,91.10078 59.0924,151.42427 136.65117,103.41169c70.17222,-36.93275 94.79405,-151.42427 16.00419,-192.05029c-73.8655,-36.93275 -167.42846,23.39074 -184.66374,100.94951c-22.15965,88.6386 55.39912,157.57972 141.57553,132.95789c108.33606,-24.62183 176.0461,-177.27719 77.55877,-253.60487c-57.86131,-40.62602 -131.7268,-27.08402 -185.89483,13.54201c-50.47476,38.16384 -77.55877,102.1806 -61.55458,163.73518c0,0 0,1.23109 0,1.23109c11.07982,40.62602 35.70166,72.6344 72.6344,91.10078c35.70166,17.23528 78.78986,19.69747 120.64698,4.92437c43.08821,-14.7731 78.78986,-45.55039 100.94951,-86.17641c45.55039,-81.25205 20.92856,-179.73937 -55.39912,-216.67212z" class="st1"/>
    <path stroke="null" id="svg_27" fill="#89A9D6" d="m2100.7611,1088.28584c-54.16803,-40.62602 -128.03353,-55.39912 -187.12592,-13.54201c-99.71842,76.32768 -30.77729,230.21413 77.55877,256.06705c87.4075,24.62183 166.19737,-44.3193 142.80663,-134.18898c-17.23528,-77.55877 -112.02934,-137.88226 -185.89483,-100.94951c-80.02095,40.62602 -54.16803,156.34863 16.00419,193.28138c78.78986,48.01257 172.35282,-12.31092 137.88226,-104.64279c-25.85292,-76.32768 -153.88645,-108.33606 -174.81501,-13.54201c-11.07982,52.93694 35.70166,107.10497 89.86969,108.33606c41.85711,3.69327 75.09659,-35.70166 66.47895,-76.32768c-11.07982,-72.6344 -130.49571,-99.71842 -132.95789,-9.84873c0,40.62602 49.24366,77.55877 87.4075,56.63021c41.85711,-23.39074 19.69747,-89.86969 -25.85292,-91.10078c29.5462,0 55.39912,28.31511 51.70585,57.86131c-12.31092,76.32768 -118.18479,41.85711 -120.64698,-23.39074c-3.69327,-77.55877 92.33187,-86.17641 132.95789,-34.47056c30.77729,34.47056 28.31511,97.25624 -13.54201,123.10916c-72.6344,41.85711 -166.19737,-35.70166 -151.42427,-114.49152c24.62183,-114.49152 176.0461,-82.48314 209.28557,9.84873c25.85292,59.0924 -8.61764,136.65117 -75.09659,145.26881c-94.79405,16.00419 -185.89483,-81.25205 -162.50409,-173.58392c27.08402,-104.64279 161.273,-104.64279 226.52085,-35.70166c103.41169,102.1806 29.5462,272.07124 -120.64698,232.67631c-57.86131,-16.00419 -105.87388,-61.55458 -125.57134,-118.18479c-33.23947,-92.33187 29.5462,-189.58811 129.26462,-185.89483c65.24785,1.23109 125.57134,41.85711 158.81082,97.25624c-2.46218,-4.92437 -3.69327,-8.61764 -6.15546,-13.54201c-33.23947,-59.0924 -94.79405,-96.02514 -158.81082,-96.02514c-23.39074,0 -45.55039,4.92437 -65.24785,14.7731c-76.32768,38.16384 -100.94951,136.65117 -54.16803,219.1343c23.39074,40.62602 59.0924,71.40331 102.1806,86.17641c41.85711,14.7731 84.94532,13.54201 121.87807,-4.92437c36.93275,-18.46637 62.78567,-50.47476 72.6344,-91.10078c0,0 0,-1.23109 0,-1.23109c14.7731,-61.55458 -12.31092,-125.57134 -62.78567,-163.73518z" class="st1"/>
    <path stroke="null" id="svg_28" fill="#89A9D6" d="m2273.11392,626.62649c4.92437,-12.31092 9.84873,-14.7731 22.15965,-9.84873l52.93694,19.69747c12.31092,4.92437 14.7731,9.84873 11.07982,22.15965l-2.46218,6.15546c-3.69327,11.07982 -9.84873,13.54201 -22.15965,12.31092l-27.08402,-2.46218c-14.7731,-1.23109 -25.85292,0 -33.23947,3.69327c-7.38655,3.69327 -12.31092,12.31092 -17.23528,25.85292l-8.61764,22.15965l48.01257,17.23528l4.92437,-13.54201c3.69327,-11.07982 8.61764,-13.54201 19.69747,-12.31092l25.85292,2.46218c34.47056,2.46218 49.24366,-6.15546 59.0924,-33.23947l7.38655,-20.92856c12.31092,-32.00838 2.46218,-51.70585 -29.5462,-62.78567l-94.79405,-34.47056c-32.00838,-11.07982 -51.70585,-2.46218 -62.78567,29.5462l-8.61764,23.39074l49.24366,18.46637l6.15546,-13.54201z" class="st1"/>
    <rect stroke="null" id="svg_29" fill="#89A9D6" height="5.1" width="3.9" class="st1" transform="matrix(4.21772 -11.5661 11.5661 4.21772 -18953.1 16440.9)" y="1180.13175" x="1783.88835"/>
    <rect stroke="null" id="svg_30" fill="#89A9D6" height="3.9" width="5.1" class="st1" transform="matrix(11.9588 -2.92384 2.92384 11.9588 -20051.8 -9476.89)" y="1186.84433" x="1438.96979"/>
    <path stroke="null" id="svg_31" fill="#89A9D6" d="m543.43023,416.10983l51.70585,-12.31092l-2.46218,-12.31092c-2.46218,-12.31092 0,-18.46637 13.54201,-20.92856l55.39912,-13.54201c12.31092,-3.69327 18.46637,0 20.92856,12.31092l1.23109,6.15546c2.46218,11.07982 0,16.00419 -11.07982,22.15965l-24.62183,12.31092c-13.54201,7.38655 -22.15965,14.7731 -25.85292,20.92856c-3.69327,7.38655 -3.69327,17.23528 0,30.77729l6.15546,22.15965l49.24366,-12.31092l-3.69327,-13.54201c-2.46218,-11.07982 -1.23109,-16.00419 9.84873,-20.92856l22.15965,-12.31092c29.5462,-16.00419 36.93275,-32.00838 30.77729,-61.55458l-4.92437,-20.92856c-8.61764,-33.23947 -27.08402,-44.3193 -60.32349,-35.70166l-98.48733,23.39074c-33.23947,8.61764 -44.3193,25.85292 -35.70166,60.32349l6.15546,25.85292z" class="st1"/>
   </g>
   <path stroke="null" id="svg_32" fill="#FFFFFF" d="m430.1698,997.18506l0,0c-9.84873,-33.23947 -30.77729,-62.78567 -59.0924,-82.48314c14.7731,-30.77729 19.69747,-66.47895 11.07982,-100.94951l0,0l-38.16384,-142.80663l-322.546,86.17641l38.16384,142.80663l0,0c9.84873,33.23947 30.77729,62.78567 59.0924,82.48314c-14.7731,30.77729 -19.69747,66.47895 -11.07982,100.94951l0,0l38.16384,142.80663l322.546,-86.17641l-38.16384,-142.80663z" class="st0"/>
   <g stroke="null" id="svg_33">
    <path stroke="null" id="svg_34" fill="#BFBFBF" d="m117.47253,881.46245c6.15546,22.15965 20.92856,41.85711 40.62602,52.93694l44.3193,25.85292l-25.85292,44.3193c-11.07982,19.69747 -14.7731,44.3193 -8.61764,66.47895l12.31092,44.3193l204.36121,-54.16803l-12.31092,-44.3193c-6.15546,-22.15965 -20.92856,-41.85711 -40.62602,-52.93694l-44.3193,-25.85292l25.85292,-44.3193c11.07982,-19.69747 14.7731,-44.3193 8.61764,-66.47895l-12.31092,-44.3193l-204.36121,54.16803l12.31092,44.3193zm9.84873,-32.00838l168.65955,-45.55039l7.38655,27.08402c4.92437,18.46637 2.46218,36.93275 -7.38655,52.93694l-25.85292,44.3193l-8.61764,16.00419l16.00419,8.61764l44.3193,25.85292c16.00419,9.84873 27.08402,24.62183 32.00838,41.85711l7.38655,27.08402l-168.65955,45.55039l-7.38655,-27.08402c-4.92437,-18.46637 -2.46218,-36.93275 7.38655,-52.93694l25.85292,-44.3193l8.61764,-16.00419l-16.00419,-8.61764l-44.3193,-25.85292c-16.00419,-9.84873 -27.08402,-24.62183 -32.00838,-41.85711l-7.38655,-27.08402z" class="st4"/>
    <rect stroke="null" id="svg_35" fill="#89A9D6" height="2" width="17.2" class="st1" transform="matrix(11.8985 -3.16144 3.16144 11.8985 -20366 -9129.66)" y="1206.35691" x="1399.23519"/>
    <rect stroke="null" id="svg_36" fill="#89A9D6" height="2" width="17.2" class="st1" transform="matrix(11.8985 -3.16144 3.16144 11.8985 -20446.8 -9096.51)" y="1232.85691" x="1406.23519"/>
   </g>
   <path stroke="null" id="svg_37" fill="#FFFFFF" d="m2727.38673,759.58439c-134.18898,0 -243.75614,109.56715 -243.75614,243.75614c0,134.18898 109.56715,243.75614 243.75614,243.75614s243.75614,-109.56715 243.75614,-243.75614c0,-134.18898 -109.56715,-243.75614 -243.75614,-243.75614z" class="st0"/>
   <g stroke="null" id="svg_38">
    <path stroke="null" id="svg_39" fill="#BFBFBF" d="m2772.93711,827.29442c-14.7731,-3.69327 -29.5462,-6.15546 -45.55039,-6.15546c-16.00419,0 -30.77729,2.46218 -45.55039,4.92437l0,28.31511c-9.84873,2.46218 -18.46637,7.38655 -27.08402,11.07982l-20.92856,-20.92856c-25.85292,16.00419 -48.01257,36.93275 -64.01676,64.01676l20.92856,20.92856c-4.92437,8.61764 -8.61764,17.23528 -11.07982,27.08402l-28.31511,0c-3.69327,14.7731 -6.15546,29.5462 -6.15546,45.55039s2.46218,30.77729 6.15546,45.55039l28.31511,0c2.46218,8.61764 6.15546,17.23528 11.07982,27.08402l-20.92856,20.92856c16.00419,25.85292 38.16384,48.01257 64.01676,64.01676l20.92856,-20.92856c9.84873,4.92437 18.46637,8.61764 27.08402,11.07982l0,28.31511c14.7731,3.69327 29.5462,6.15546 45.55039,6.15546c16.00419,0 30.77729,-2.46218 45.55039,-6.15546l0,-28.31511c9.84873,-2.46218 18.46637,-6.15546 27.08402,-11.07982l20.92856,20.92856c25.85292,-16.00419 48.01257,-38.16384 64.01676,-64.01676l-20.92856,-20.92856c4.92437,-8.61764 8.61764,-17.23528 11.07982,-27.08402l28.31511,0c3.69327,-14.7731 6.15546,-29.5462 6.15546,-45.55039s-2.46218,-30.77729 -6.15546,-45.55039l-28.31511,0c-2.46218,-9.84873 -7.38655,-18.46637 -11.07982,-27.08402l20.92856,-19.69747c-16.00419,-25.85292 -38.16384,-48.01257 -64.01676,-64.01676l-19.69747,19.69747c-8.61764,-4.92437 -17.23528,-8.61764 -27.08402,-11.07982l0,-27.08402l-1.23109,0zm54.16803,176.0461c0,55.39912 -45.55039,99.71842 -100.94951,99.71842s-100.94951,-45.55039 -100.94951,-99.71842c0,-55.39912 45.55039,-100.94951 100.94951,-100.94951s100.94951,45.55039 100.94951,100.94951z" class="st4"/>
    <path stroke="null" id="svg_40" fill="#89A9D6" d="m2662.13887,1003.34052c0,17.23528 6.15546,33.23947 18.46637,45.55039c12.31092,12.31092 28.31511,18.46637 45.55039,18.46637c35.70166,0 65.24785,-29.5462 65.24785,-65.24785c0,-35.70166 -29.5462,-65.24785 -65.24785,-65.24785c-34.47056,1.23109 -64.01676,30.77729 -64.01676,66.47895z" class="st1"/>
   </g>
  </g>
 </g>
</svg>