<svg width="3000" height="2598" xmlns="http://www.w3.org/2000/svg" xml:space="preserve" version="1.1">

 <g>
  <title>Layer 1</title>
  <g stroke="null" id="svg_1">
   <path stroke="null" id="svg_2" fill="#44679A" d="m820.00938,662.77728c14.45042,0 27.29524,-12.84482 27.29524,-27.29524c0,-14.45042 -11.23922,-27.29524 -27.29524,-27.29524c-14.45042,0 -27.29524,12.84482 -27.29524,27.29524c1.6056,14.45042 12.84482,27.29524 27.29524,27.29524z" class="st0"/>
   <circle stroke="null" id="svg_3" fill="#44679A" r="27.29445" cy="234.08138" cx="1804.24379" class="st0"/>
   <path stroke="null" id="svg_4" fill="#44679A" d="m1784.97656,735.0294l-165.37707,-165.37707l-234.41798,0l-165.37707,165.37707l0,234.41798l165.37707,165.37707l234.41798,0l165.37707,-165.37707l0,-234.41798zm-264.92443,287.40287l-64.22411,0l0,-64.22411l64.22411,0l0,64.22411zm126.84261,-237.62919c0,43.35127 -17.66163,64.22411 -65.82971,75.46332l-38.53446,9.63362c-19.26723,4.81681 -22.47844,9.63362 -22.47844,30.50645l0,30.50645l-64.22411,0l0,-40.14007c0,-20.87283 3.21121,-36.92886 11.23922,-46.56248c8.02801,-9.63362 22.47844,-16.05603 44.95687,-22.47844l38.53446,-9.63362c20.87283,-4.81681 27.29524,-11.23922 27.29524,-30.50645l0,-16.05603c0,-20.87283 -6.42241,-27.29524 -27.29524,-27.29524l-97.94176,0c-20.87283,0 -27.29524,6.42241 -27.29524,27.29524l0,24.08404l-65.82971,0l0,-35.32326c0,-48.16808 24.08404,-72.25212 72.25212,-72.25212l142.89863,0c48.16808,0 72.25212,24.08404 72.25212,72.25212l0,30.50645z" class="st0"/>
   <path stroke="null" id="svg_5" fill="#44679A" d="m1202.1428,259.77102c14.45042,0 27.29524,-12.84482 27.29524,-27.29524c0,-14.45042 -11.23922,-27.29524 -27.29524,-27.29524c-14.45042,0 -27.29524,12.84482 -27.29524,27.29524c0,16.05603 12.84482,27.29524 27.29524,27.29524z" class="st0"/>
   <path stroke="null" id="svg_6" fill="#44679A" d="m2186.37722,662.77728c14.45042,0 27.29524,-12.84482 27.29524,-27.29524c0,-14.45042 -12.84482,-27.29524 -27.29524,-27.29524c-14.45042,0 -27.29524,11.23922 -27.29524,27.29524c0,14.45042 12.84482,27.29524 27.29524,27.29524z" class="st0"/>
   <path stroke="null" id="svg_7" fill="#44679A" d="m2981.15052,1020.82667l-610.129,-199.09473c22.47844,-20.87283 35.32326,-51.37928 35.32326,-85.09694c0,-64.22411 -51.37928,-115.60339 -113.99779,-117.20899c-8.02801,-51.37928 -52.98489,-93.12495 -105.96977,-93.12495c-1.6056,0 -4.81681,0 -6.42241,0c0,-1.6056 0,-3.21121 0,-6.42241c0,-14.45042 -3.21121,-28.90085 -8.02801,-43.35127c0,0 0,0 0,0c14.45042,-11.23922 24.08404,-25.68964 27.29524,-43.35127c12.84482,-14.45042 19.26723,-32.11205 19.26723,-49.77368c0,-19.26723 -6.42241,-36.92886 -19.26723,-51.37928c-4.81681,-19.26723 -16.05603,-36.92886 -33.71766,-48.16808l-1.6056,-1.6056c-17.66163,-9.63362 -38.53446,-12.84482 -57.80169,-8.02801c-6.42241,-1.6056 -14.45042,-3.21121 -20.87283,-3.21121c-14.45042,-22.47844 -40.14007,-35.32326 -69.04091,-35.32326c-1.6056,0 -1.6056,0 -3.21121,0c-19.26723,-16.05603 -43.35127,-25.68964 -69.04091,-25.68964c-11.23922,0 -22.47844,1.6056 -33.71766,4.81681c-6.42241,-52.98489 -51.37928,-93.12495 -105.96977,-93.12495c-25.68964,0 -51.37928,9.63362 -69.04091,25.68964c-6.42241,-28.90085 -20.87283,-54.59049 -41.74567,-75.46332c-28.90085,-28.90085 -67.43531,-44.95687 -109.18098,-44.95687c-28.90085,0 -56.19609,8.02801 -80.28013,22.47844c-24.08404,-14.45042 -51.37928,-22.47844 -80.28013,-22.47844c-41.74567,0 -80.28013,16.05603 -109.18098,44.95687c-20.87283,20.87283 -35.32326,46.56248 -41.74567,75.46332c-19.26723,-16.05603 -43.35127,-25.68964 -69.04091,-25.68964c-54.59049,0 -99.54736,40.14007 -105.96977,93.12495c-11.23922,-3.21121 -22.47844,-4.81681 -33.71766,-4.81681c-25.68964,0 -49.77368,9.63362 -69.04091,25.68964c-1.6056,0 -1.6056,0 -3.21121,0c-28.90085,0 -54.59049,14.45042 -69.04091,35.32326c-6.42241,0 -14.45042,1.6056 -20.87283,3.21121c-19.26723,-4.81681 -40.14007,-3.21121 -57.80169,8.02801l-1.6056,1.6056c-17.66163,11.23922 -30.50645,27.29524 -33.71766,48.16808c-12.84482,14.45042 -19.26723,32.11205 -19.26723,51.37928c0,19.26723 6.42241,36.92886 19.26723,49.77368c3.21121,17.66163 12.84482,33.71766 27.29524,43.35127c0,0 0,0 0,0c-4.81681,12.84482 -8.02801,27.29524 -8.02801,43.35127l0,0c0,1.6056 0,3.21121 0,6.42241c-1.6056,0 -4.81681,0 -6.42241,0c-54.59049,0 -99.54736,40.14007 -105.96977,93.12495c-62.6185,1.6056 -113.99779,54.59049 -113.99779,117.20899c0,33.71766 14.45042,62.6185 35.32326,85.09694l-610.129,199.09473l435.11831,141.29303l-435.11831,141.29303l552.32731,179.8275l0,794.7733l924.82712,301.8533l924.82712,-301.8533l0,-794.7733l552.32731,-179.8275l-435.11831,-141.29303l435.11831,-141.29303zm-692.01474,-333.96535c27.29524,0 51.37928,22.47844 51.37928,51.37928c0,27.29524 -22.47844,51.37928 -51.37928,51.37928c-27.29524,0 -51.37928,-22.47844 -51.37928,-51.37928c0,-28.90085 22.47844,-51.37928 51.37928,-51.37928zm-102.75857,-91.51935c22.47844,0 40.14007,17.66163 40.14007,40.14007c0,22.47844 -17.66163,40.14007 -40.14007,40.14007c-22.47844,0 -40.14007,-17.66163 -40.14007,-40.14007c-1.6056,-22.47844 17.66163,-40.14007 40.14007,-40.14007zm33.71766,142.89863c0,19.26723 -16.05603,33.71766 -33.71766,33.71766c-17.66163,0 -33.71766,-16.05603 -33.71766,-33.71766c0,-17.66163 14.45042,-33.71766 33.71766,-33.71766c17.66163,0 33.71766,14.45042 33.71766,33.71766zm-154.13785,-361.26059c0,0 0,0 0,0l32.11205,4.81681l0,0l-19.26723,-25.68964c-3.21121,-3.21121 -1.6056,-9.63362 1.6056,-11.23922l0,0c4.81681,-1.6056 9.63362,0 11.23922,3.21121l12.84482,28.90085l0,0l12.84482,-28.90085c1.6056,-4.81681 6.42241,-6.42241 11.23922,-3.21121l0,0c4.81681,1.6056 4.81681,8.02801 1.6056,11.23922l-19.26723,25.68964l0,0l30.50645,-3.21121c4.81681,0 9.63362,3.21121 9.63362,8.02801c0,4.81681 -4.81681,8.02801 -9.63362,8.02801l-30.50645,-3.21121l0,0l19.26723,25.68964c3.21121,3.21121 1.6056,9.63362 -1.6056,11.23922l0,0c-4.81681,3.21121 -9.63362,1.6056 -11.23922,-3.21121l-12.84482,-28.90085l0,0l-12.84482,28.90085c-1.6056,4.81681 -6.42241,6.42241 -11.23922,3.21121l-1.6056,0c-4.81681,-3.21121 -4.81681,-8.02801 -1.6056,-11.23922l19.26723,-24.08404l0,0l-30.50645,3.21121c-4.81681,0 -9.63362,-3.21121 -9.63362,-8.02801c1.6056,-8.02801 4.81681,-11.23922 9.63362,-11.23922zm16.05603,292.21968c-17.66163,0 -33.71766,-16.05603 -33.71766,-33.71766c0,-19.26723 14.45042,-33.71766 33.71766,-33.71766c17.66163,0 33.71766,16.05603 33.71766,33.71766c1.6056,17.66163 -14.45042,33.71766 -33.71766,33.71766zm17.66163,69.04091c0,9.63362 -8.02801,17.66163 -17.66163,17.66163c-9.63362,0 -17.66163,-8.02801 -17.66163,-17.66163c0,-9.63362 8.02801,-17.66163 17.66163,-17.66163c9.63362,0 17.66163,8.02801 17.66163,17.66163zm-43.35127,-272.95245c30.50645,0 56.19609,25.68964 56.19609,56.19609l0,0c0,30.50645 -25.68964,56.19609 -56.19609,56.19609l-130.05381,0l0,-130.05381c0,-30.50645 25.68964,-56.19609 56.19609,-56.19609c30.50645,0 56.19609,25.68964 56.19609,56.19609l0,17.66163l17.66163,0zm-40.14007,-158.95466c9.63362,0 16.05603,6.42241 16.05603,16.05603c0,9.63362 -6.42241,16.05603 -16.05603,16.05603c-9.63362,0 -16.05603,-6.42241 -16.05603,-16.05603c0,-9.63362 6.42241,-16.05603 16.05603,-16.05603zm-72.25212,-25.68964c22.47844,0 40.14007,17.66163 40.14007,40.14007c0,22.47844 -17.66163,40.14007 -40.14007,40.14007c-22.47844,0 -40.14007,-17.66163 -40.14007,-40.14007c0,-20.87283 17.66163,-40.14007 40.14007,-40.14007zm-52.98489,486.4976l46.56248,-16.05603l826.88536,269.74124l-390.16144,126.84261l-484.892,-157.34906l0,-223.17877l1.6056,0zm-86.70254,-574.80574c22.47844,0 40.14007,17.66163 40.14007,40.14007c0,22.47844 -17.66163,40.14007 -40.14007,40.14007c-22.47844,0 -40.14007,-17.66163 -40.14007,-40.14007c0,-22.47844 17.66163,-40.14007 40.14007,-40.14007zm40.14007,130.05381c0,9.63362 -6.42241,16.05603 -16.05603,16.05603c-9.63362,0 -16.05603,-6.42241 -16.05603,-16.05603c0,-9.63362 6.42241,-16.05603 16.05603,-16.05603c9.63362,0 16.05603,6.42241 16.05603,16.05603zm-165.37707,-8.02801c0,0 0,0 0,0l32.11205,4.81681l0,0l-19.26723,-25.68964c-3.21121,-3.21121 -1.6056,-9.63362 1.6056,-11.23922l0,0c4.81681,-1.6056 9.63362,0 11.23922,3.21121l12.84482,28.90085l0,0l12.84482,-28.90085c1.6056,-4.81681 6.42241,-6.42241 11.23922,-3.21121l0,0c4.81681,1.6056 4.81681,8.02801 1.6056,11.23922l-19.26723,25.68964l0,0l30.50645,-3.21121c4.81681,0 9.63362,3.21121 9.63362,8.02801c0,4.81681 -4.81681,8.02801 -9.63362,8.02801l-30.50645,-3.21121l0,0l19.26723,25.68964c3.21121,3.21121 1.6056,9.63362 -1.6056,11.23922l0,0c-4.81681,3.21121 -9.63362,1.6056 -11.23922,-3.21121l-12.84482,-28.90085l0,0l-12.84482,28.90085c-1.6056,4.81681 -6.42241,6.42241 -11.23922,3.21121l-1.6056,0c-4.81681,-3.21121 -4.81681,-8.02801 -1.6056,-11.23922l19.26723,-24.08404l0,0l-30.50645,3.21121c-4.81681,0 -9.63362,-3.21121 -9.63362,-8.02801c1.6056,-8.02801 4.81681,-11.23922 9.63362,-11.23922zm-317.90932,-191.06671c33.71766,-33.71766 88.30814,-33.71766 122.0258,0l19.26723,19.26723l19.26723,-19.26723c33.71766,-33.71766 88.30814,-33.71766 122.0258,0c33.71766,33.71766 33.71766,88.30814 0,122.0258l-142.89863,142.89863l-142.89863,-142.89863c-30.50645,-33.71766 -30.50645,-88.30814 3.21121,-122.0258zm-110.78658,191.06671l30.50645,3.21121l0,0l-19.26723,-25.68964c-3.21121,-3.21121 -1.6056,-9.63362 1.6056,-11.23922l0,0c4.81681,-1.6056 9.63362,0 11.23922,3.21121l12.84482,28.90085l0,0l12.84482,-28.90085c1.6056,-4.81681 6.42241,-6.42241 11.23922,-3.21121l0,0c4.81681,1.6056 4.81681,8.02801 1.6056,11.23922l-19.26723,25.68964l0,0l30.50645,-4.81681c0,0 0,0 1.6056,0c4.81681,0 8.02801,3.21121 8.02801,8.02801c0,4.81681 -4.81681,8.02801 -9.63362,8.02801l-30.50645,-3.21121l0,0l19.26723,24.08404c3.21121,3.21121 1.6056,9.63362 -1.6056,11.23922l-1.6056,0c-4.81681,1.6056 -9.63362,0 -11.23922,-3.21121l-12.84482,-28.90085l0,0l-12.84482,28.90085c-1.6056,4.81681 -8.02801,6.42241 -11.23922,3.21121l0,0c-3.21121,-3.21121 -4.81681,-8.02801 -1.6056,-11.23922l19.26723,-25.68964l0,0l-30.50645,3.21121c-4.81681,0 -9.63362,-3.21121 -9.63362,-8.02801c1.6056,-1.6056 6.42241,-6.42241 11.23922,-4.81681zm-48.16808,-122.0258c22.47844,0 40.14007,17.66163 40.14007,40.14007c0,22.47844 -17.66163,40.14007 -40.14007,40.14007s-40.14007,-17.66163 -40.14007,-40.14007c0,-20.87283 17.66163,-40.14007 40.14007,-40.14007zm-8.02801,130.05381c0,9.63362 -6.42241,16.05603 -16.05603,16.05603c-9.63362,0 -16.05603,-6.42241 -16.05603,-16.05603c0,-9.63362 6.42241,-16.05603 16.05603,-16.05603c9.63362,0 16.05603,6.42241 16.05603,16.05603zm-131.65942,-41.74567c22.47844,0 40.14007,17.66163 40.14007,40.14007c0,22.47844 -17.66163,40.14007 -40.14007,40.14007c-22.47844,0 -40.14007,-17.66163 -40.14007,-40.14007c0,-20.87283 17.66163,-40.14007 40.14007,-40.14007zm-72.25212,25.68964c9.63362,0 16.05603,6.42241 16.05603,16.05603c0,9.63362 -6.42241,16.05603 -16.05603,16.05603c-9.63362,0 -16.05603,-6.42241 -16.05603,-16.05603c0,-9.63362 8.02801,-16.05603 16.05603,-16.05603zm-22.47844,158.95466l0,-17.66163c0,-30.50645 25.68964,-56.19609 56.19609,-56.19609c30.50645,0 56.19609,25.68964 56.19609,56.19609l0,130.05381l-130.05381,0c-30.50645,0 -56.19609,-25.68964 -56.19609,-56.19609l0,0c0,-30.50645 25.68964,-56.19609 56.19609,-56.19609l17.66163,0zm-43.35127,203.91153c-17.66163,0 -33.71766,-16.05603 -33.71766,-33.71766c0,-17.66163 16.05603,-33.71766 33.71766,-33.71766c19.26723,0 33.71766,14.45042 33.71766,33.71766c0,17.66163 -16.05603,33.71766 -33.71766,33.71766zm16.05603,69.04091c0,9.63362 -8.02801,17.66163 -17.66163,17.66163c-9.63362,0 -17.66163,-8.02801 -17.66163,-17.66163c0,-9.63362 8.02801,-17.66163 17.66163,-17.66163c11.23922,0 17.66163,8.02801 17.66163,17.66163zm-77.06893,-361.26059l30.50645,3.21121l0,0l-19.26723,-25.68964c-3.21121,-3.21121 -1.6056,-9.63362 1.6056,-11.23922l0,0c4.81681,-1.6056 9.63362,0 11.23922,3.21121l12.84482,28.90085l0,0l12.84482,-28.90085c1.6056,-4.81681 6.42241,-6.42241 11.23922,-3.21121l0,0c4.81681,1.6056 4.81681,8.02801 1.6056,11.23922l-19.26723,25.68964l0,0l30.50645,-4.81681c0,0 0,0 1.6056,0c4.81681,0 8.02801,3.21121 8.02801,8.02801c0,4.81681 -4.81681,8.02801 -9.63362,8.02801l-30.50645,-3.21121l0,0l19.26723,24.08404c3.21121,3.21121 1.6056,9.63362 -1.6056,11.23922l-1.6056,0c-4.81681,1.6056 -9.63362,0 -11.23922,-3.21121l-12.84482,-28.90085l0,0l-12.84482,28.90085c-1.6056,4.81681 -8.02801,6.42241 -11.23922,3.21121l0,0c-3.21121,-3.21121 -4.81681,-8.02801 -1.6056,-11.23922l19.26723,-25.68964l0,0l-30.50645,3.21121c-4.81681,0 -9.63362,-3.21121 -9.63362,-8.02801c3.21121,-1.6056 6.42241,-4.81681 11.23922,-4.81681zm-43.35127,218.36196c22.47844,0 40.14007,17.66163 40.14007,40.14007c0,22.47844 -17.66163,40.14007 -40.14007,40.14007c-22.47844,0 -40.14007,-17.66163 -40.14007,-40.14007c0,-22.47844 17.66163,-40.14007 40.14007,-40.14007zm33.71766,142.89863c0,19.26723 -16.05603,33.71766 -33.71766,33.71766c-17.66163,0 -33.71766,-16.05603 -33.71766,-33.71766c0,-17.66163 16.05603,-33.71766 33.71766,-33.71766c19.26723,0 33.71766,14.45042 33.71766,33.71766zm-136.47622,-51.37928c27.29524,0 51.37928,22.47844 51.37928,51.37928c0,27.29524 -22.47844,51.37928 -51.37928,51.37928c-27.29524,0 -51.37928,-22.47844 -51.37928,-51.37928c1.6056,-28.90085 24.08404,-51.37928 51.37928,-51.37928zm-475.25838,333.96535l826.88536,-269.74124l46.56248,16.05603l0,223.17877l-484.892,157.34906l-388.55584,-126.84261zm0,284.19167l390.16144,-126.84261l826.88536,269.74124l-390.16144,126.84261l-4.81681,-1.6056l-822.06855,-268.13564zm1247.55325,1199.38517l-844.54699,-274.55805l0,-764.26685l423.8791,138.08183l420.66789,-136.47622l0,1037.2193zm-133.26502,-1295.72133l-208.72834,-208.72834l0,-293.82528l208.72834,-208.72834l295.43088,0l208.72834,208.72834l0,295.43088l-208.72834,208.72834l-295.43088,0l0,-1.6056zm1005.10725,1021.16328l-844.54699,274.55805l0,-1038.82491l420.66789,136.47622l423.8791,-138.08183l0,765.87246zm403.00626,-924.82712l-826.88536,269.74124l-390.16144,-126.84261l826.88536,-269.74124l390.16144,126.84261z" class="st0"/>
   <polygon stroke="null" id="svg_8" fill="#A8CBEF" points="644.9986607861938,1465.57768823487 644.9986607861938,2229.8462281335496 1489.5453517470742,2504.404047332483 1489.5453517470742,1465.57768823487 1068.878137893742,1603.661103156407 " class="st1"/>
   <polyline stroke="null" id="svg_9" fill="#A8CBEF" points="1654.9232876469614,2459.446396981494 2361.38836307195,2229.8462281335496 2361.38836307195,1465.57768823487 1937.508885964402,1603.661103156407 1516.8416721110698,1465.57768823487 1516.8416721110698,2504.404047332483 1654.9232876469614,2459.446396981494 " class="st1"/>
   <polygon stroke="null" id="svg_10" fill="#A8CBEF" points="1115.4412001175806,990.3198129777566 1115.4412001175806,767.1407518055175 1068.878137893742,751.0846537528096 241.9927769198548,1020.8265972103227 630.5477946677711,1147.669789820572 " class="st1"/>
   <polygon stroke="null" id="svg_11" fill="#A8CBEF" points="1548.9538682164857,1446.311306252156 1937.508885964402,1574.7597307966907 2764.394246938289,1305.0174274620485 2375.839229190373,1178.1765740531382 " class="st1"/>
   <polygon stroke="null" id="svg_12" fill="#A8CBEF" points="1068.878137893742,1574.7597307966907 1457.4331556416582,1446.311306252156 630.5477946677711,1178.1765740531382 241.9927769198548,1305.0174274620485 1064.0604627666762,1573.154318923841 " class="st1"/>
   <polygon stroke="null" id="svg_13" fill="#A8CBEF" points="2764.394246938289,1020.8265972103227 1937.508885964402,751.0846537528096 1890.9458237405634,767.1407518055175 1890.9458237405634,990.3198129777566 2375.839229190373,1147.669789820572 " class="st1"/>
   <path stroke="null" id="svg_14" fill="#FFCF61" d="m1858.83428,999.95384l0,-295.43088l-208.72834,-208.72834l-295.43088,0l-208.72834,208.72834l0,293.82528l208.72834,208.72834l295.43088,0l208.72834,-207.12274zm-472.04717,134.87062l-165.37707,-165.37707l0,-234.41798l165.37707,-165.37707l234.41798,0l165.37707,165.37707l0,234.41798l-165.37707,165.37707l-234.41798,0z" class="st2"/>
   <rect stroke="null" id="svg_15" fill="#FFFFFF" height="64.22411" width="64.22411" class="st3" y="958.20817" x="1455.82802"/>
   <path stroke="null" id="svg_16" fill="#FFFFFF" d="m1574.64262,682.04452l-142.89863,0c-48.16808,0 -72.25212,24.08404 -72.25212,72.25212l0,35.32326l65.82971,0l0,-24.08404c0,-20.87283 6.42241,-27.29524 27.29524,-27.29524l97.94176,0c20.87283,0 27.29524,6.42241 27.29524,27.29524l0,16.05603c0,19.26723 -6.42241,25.68964 -27.29524,30.50645l-38.53446,9.63362c-22.47844,6.42241 -36.92886,12.84482 -44.95687,22.47844c-8.02801,9.63362 -11.23922,25.68964 -11.23922,46.56248l0,40.14007l64.22411,0l0,-30.50645c0,-19.26723 4.81681,-25.68964 22.47844,-30.50645l38.53446,-9.63362c48.16808,-11.23922 65.82971,-32.11205 65.82971,-75.46332l0,-32.11205c0,-46.56248 -24.08404,-70.64652 -72.25212,-70.64652z" class="st3"/>
   <path stroke="null" id="svg_17" fill="#FFFFFF" d="m2117.33631,635.48204c0,-17.66163 -16.05603,-33.71766 -33.71766,-33.71766c-19.26723,0 -33.71766,14.45042 -33.71766,33.71766c0,17.66163 16.05603,33.71766 33.71766,33.71766c17.66163,0 33.71766,-16.05603 33.71766,-33.71766z" class="st3"/>
   <path stroke="null" id="svg_18" fill="#FFFFFF" d="m1062.45537,362.52959c22.47844,0 40.14007,-17.66163 40.14007,-40.14007c0,-22.47844 -17.66163,-40.14007 -40.14007,-40.14007c-22.47844,0 -40.14007,17.66163 -40.14007,40.14007c0,22.47844 17.66163,40.14007 40.14007,40.14007z" class="st3"/>
   <path stroke="null" id="svg_19" fill="#FFFFFF" d="m1162.00274,322.38953c0,9.63362 6.42241,16.05603 16.05603,16.05603c9.63362,0 16.05603,-6.42241 16.05603,-16.05603c0,-9.63362 -6.42241,-16.05603 -16.05603,-16.05603c-9.63362,0 -16.05603,6.42241 -16.05603,16.05603z" class="st3"/>
   <path stroke="null" id="svg_20" fill="#FFFFFF" d="m820.00938,704.52295c-17.66163,0 -33.71766,16.05603 -33.71766,33.71766c0,19.26723 16.05603,33.71766 33.71766,33.71766c17.66163,0 33.71766,-16.05603 33.71766,-33.71766c0,-19.26723 -14.45042,-33.71766 -33.71766,-33.71766z" class="st3"/>
   <path stroke="null" id="svg_21" fill="#FFFFFF" d="m820.00938,675.62211c22.47844,0 40.14007,-17.66163 40.14007,-40.14007c0,-22.47844 -17.66163,-40.14007 -40.14007,-40.14007c-22.47844,0 -40.14007,17.66163 -40.14007,40.14007c0,22.47844 17.66163,40.14007 40.14007,40.14007zm0,-67.43531c14.45042,0 27.29524,11.23922 27.29524,27.29524c0,14.45042 -12.84482,27.29524 -27.29524,27.29524s-27.29524,-12.84482 -27.29524,-27.29524c1.6056,-14.45042 12.84482,-27.29524 27.29524,-27.29524z" class="st3"/>
   <path stroke="null" id="svg_22" fill="#FFFFFF" d="m1202.1428,274.22145c22.47844,0 40.14007,-17.66163 40.14007,-40.14007c0,-22.47844 -17.66163,-40.14007 -40.14007,-40.14007c-22.47844,0 -40.14007,17.66163 -40.14007,40.14007c0,20.87283 17.66163,40.14007 40.14007,40.14007zm0,-67.43531c14.45042,0 27.29524,11.23922 27.29524,27.29524c0,14.45042 -12.84482,27.29524 -27.29524,27.29524s-27.29524,-12.84482 -27.29524,-27.29524c0,-16.05603 12.84482,-27.29524 27.29524,-27.29524z" class="st3"/>
   <path stroke="null" id="svg_23" fill="#FFFFFF" d="m863.36065,393.03604l30.50645,-3.21121l0,0l-19.26723,25.68964c-3.21121,3.21121 -1.6056,9.63362 1.6056,11.23922l0,0c4.81681,3.21121 9.63362,1.6056 11.23922,-3.21121l12.84482,-28.90085l0,0l12.84482,28.90085c1.6056,4.81681 6.42241,6.42241 11.23922,3.21121l1.6056,0c4.81681,-3.21121 4.81681,-8.02801 1.6056,-11.23922l-19.26723,-24.08404l0,0l30.50645,3.21121c4.81681,0 9.63362,-3.21121 9.63362,-8.02801c0,-4.81681 -3.21121,-8.02801 -8.02801,-8.02801c0,0 -1.6056,0 -1.6056,0l-30.50645,4.81681l0,0l19.26723,-25.68964c3.21121,-3.21121 1.6056,-9.63362 -1.6056,-11.23922l0,0c-4.81681,-1.6056 -9.63362,0 -11.23922,3.21121l-12.84482,28.90085l0,0l-12.84482,-28.90085c-1.6056,-4.81681 -6.42241,-6.42241 -11.23922,-3.21121l0,0c-4.81681,1.6056 -4.81681,8.02801 -1.6056,11.23922l19.26723,25.68964l0,0l-30.50645,-3.21121c-4.81681,0 -9.63362,3.21121 -9.63362,8.02801c0,1.6056 3.21121,4.81681 8.02801,4.81681z" class="st3"/>
   <path stroke="null" id="svg_24" fill="#FFFFFF" d="m1250.31088,330.41754l30.50645,-3.21121l0,0l-19.26723,25.68964c-3.21121,3.21121 -1.6056,9.63362 1.6056,11.23922l0,0c4.81681,3.21121 9.63362,1.6056 11.23922,-3.21121l12.84482,-28.90085l0,0l12.84482,28.90085c1.6056,4.81681 6.42241,6.42241 11.23922,3.21121l1.6056,0c4.81681,-3.21121 4.81681,-8.02801 1.6056,-11.23922l-19.26723,-24.08404l0,0l30.50645,3.21121c4.81681,0 9.63362,-3.21121 9.63362,-8.02801c0,-4.81681 -3.21121,-8.02801 -8.02801,-8.02801c0,0 -1.6056,0 -1.6056,0l-30.50645,4.81681l0,0l19.26723,-25.68964c3.21121,-3.21121 1.6056,-9.63362 -1.6056,-11.23922l0,0c-4.81681,-1.6056 -9.63362,0 -11.23922,3.21121l-12.84482,28.90085l0,0l-12.84482,-28.90085c-1.6056,-4.81681 -6.42241,-6.42241 -11.23922,-3.21121l0,0c-4.81681,1.6056 -4.81681,8.02801 -1.6056,11.23922l19.26723,25.68964l0,0l-30.50645,-3.21121c-4.81681,0 -9.63362,3.21121 -9.63362,8.02801c-1.6056,1.6056 3.21121,4.81681 8.02801,4.81681z" class="st3"/>
   <path stroke="null" id="svg_25" fill="#FFFFFF" d="m958.0912,635.48204c0,-19.26723 -14.45042,-33.71766 -33.71766,-33.71766c-17.66163,0 -33.71766,16.05603 -33.71766,33.71766c0,17.66163 16.05603,33.71766 33.71766,33.71766c17.66163,0 33.71766,-16.05603 33.71766,-33.71766z" class="st3"/>
   <path stroke="null" id="svg_26" fill="#FFFFFF" d="m990.20326,340.05115c9.63362,0 16.05603,-6.42241 16.05603,-16.05603c0,-9.63362 -6.42241,-16.05603 -16.05603,-16.05603c-9.63362,0 -16.05603,6.42241 -16.05603,16.05603c0,8.02801 6.42241,16.05603 16.05603,16.05603z" class="st3"/>
   <path stroke="null" id="svg_27" fill="#FFFFFF" d="m906.71192,738.24061c0,9.63362 8.02801,17.66163 17.66163,17.66163c9.63362,0 17.66163,-8.02801 17.66163,-17.66163c0,-9.63362 -8.02801,-17.66163 -17.66163,-17.66163c-9.63362,0 -17.66163,8.02801 -17.66163,17.66163z" class="st3"/>
   <circle stroke="null" id="svg_28" fill="#FFFFFF" r="51.37851" cy="738.24061" cx="717.25081" class="st3"/>
   <path stroke="null" id="svg_29" fill="#FFFFFF" d="m1503.9961,388.21923l142.89863,-142.89863c33.71766,-33.71766 33.71766,-88.30814 0,-122.0258c-33.71766,-33.71766 -88.30814,-33.71766 -122.0258,0l-19.26723,19.26723l-19.26723,-19.26723c-33.71766,-33.71766 -88.30814,-33.71766 -122.0258,0c-33.71766,33.71766 -33.71766,88.30814 0,122.0258l139.68743,142.89863z" class="st3"/>
   <path stroke="null" id="svg_30" fill="#FFFFFF" d="m893.8671,521.48425l0,0c0,30.50645 25.68964,56.19609 56.19609,56.19609l130.05381,0l0,-130.05381c0,-30.50645 -25.68964,-56.19609 -56.19609,-56.19609c-30.50645,0 -56.19609,25.68964 -56.19609,56.19609l0,17.66163l-17.66163,0c-30.50645,0 -56.19609,25.68964 -56.19609,56.19609z" class="st3"/>
   <path stroke="null" id="svg_31" fill="#FFFFFF" d="m1943.93122,362.52959c22.47844,0 40.14007,-17.66163 40.14007,-40.14007c0,-22.47844 -17.66163,-40.14007 -40.14007,-40.14007c-22.47844,0 -40.14007,17.66163 -40.14007,40.14007c0,22.47844 17.66163,40.14007 40.14007,40.14007z" class="st3"/>
   <path stroke="null" id="svg_32" fill="#FFFFFF" d="m1812.27181,322.38953c0,9.63362 6.42241,16.05603 16.05603,16.05603c9.63362,0 16.05603,-6.42241 16.05603,-16.05603c0,-9.63362 -6.42241,-16.05603 -16.05603,-16.05603c-9.63362,0 -16.05603,6.42241 -16.05603,16.05603z" class="st3"/>
   <path stroke="null" id="svg_33" fill="#FFFFFF" d="m2186.37722,704.52295c-19.26723,0 -33.71766,16.05603 -33.71766,33.71766c0,19.26723 16.05603,33.71766 33.71766,33.71766c17.66163,0 33.71766,-16.05603 33.71766,-33.71766c0,-19.26723 -16.05603,-33.71766 -33.71766,-33.71766z" class="st3"/>
   <path stroke="null" id="svg_34" fill="#FFFFFF" d="m2186.37722,675.62211c22.47844,0 40.14007,-17.66163 40.14007,-40.14007c0,-22.47844 -17.66163,-40.14007 -40.14007,-40.14007c-22.47844,0 -40.14007,17.66163 -40.14007,40.14007c-1.6056,22.47844 17.66163,40.14007 40.14007,40.14007zm0,-67.43531c14.45042,0 27.29524,12.84482 27.29524,27.29524c0,14.45042 -12.84482,27.29524 -27.29524,27.29524c-14.45042,0 -27.29524,-12.84482 -27.29524,-27.29524c0,-16.05603 11.23922,-27.29524 27.29524,-27.29524z" class="st3"/>
   <path stroke="null" id="svg_35" fill="#FFFFFF" d="m1804.24379,274.22145c22.47844,0 40.14007,-17.66163 40.14007,-40.14007c0,-22.47844 -17.66163,-40.14007 -40.14007,-40.14007c-22.47844,0 -40.14007,17.66163 -40.14007,40.14007c0,20.87283 17.66163,40.14007 40.14007,40.14007zm0,-67.43531c14.45042,0 27.29524,12.84482 27.29524,27.29524c0,14.45042 -12.84482,27.29524 -27.29524,27.29524c-14.45042,0 -27.29524,-12.84482 -27.29524,-27.29524c0,-16.05603 11.23922,-27.29524 27.29524,-27.29524z" class="st3"/>
   <path stroke="null" id="svg_36" fill="#FFFFFF" d="m2065.95702,393.03604l30.50645,-3.21121l0,0l-19.26723,24.08404c-3.21121,3.21121 -1.6056,9.63362 1.6056,11.23922l1.6056,0c4.81681,1.6056 9.63362,0 11.23922,-3.21121l12.84482,-28.90085l0,0l12.84482,28.90085c1.6056,4.81681 8.02801,6.42241 11.23922,3.21121l0,0c3.21121,-3.21121 4.81681,-8.02801 1.6056,-11.23922l-19.26723,-25.68964l0,0l30.50645,3.21121c4.81681,0 9.63362,-3.21121 9.63362,-8.02801c0,-4.81681 -4.81681,-8.02801 -9.63362,-8.02801l-30.50645,3.21121l0,0l19.26723,-25.68964c3.21121,-3.21121 1.6056,-9.63362 -1.6056,-11.23922l0,0c-4.81681,-1.6056 -9.63362,0 -11.23922,3.21121l-12.84482,28.90085l0,0l-12.84482,-28.90085c-1.6056,-4.81681 -6.42241,-6.42241 -11.23922,-3.21121l0,0c-4.81681,1.6056 -4.81681,8.02801 -1.6056,11.23922l19.26723,25.68964l0,0l-30.50645,-4.81681c0,0 0,0 -1.6056,0c-4.81681,0 -8.02801,3.21121 -8.02801,8.02801c0,8.02801 3.21121,11.23922 8.02801,11.23922z" class="st3"/>
   <path stroke="null" id="svg_37" fill="#FFFFFF" d="m1679.00679,330.41754l30.50645,-3.21121l0,0l-19.26723,24.08404c-3.21121,3.21121 -1.6056,9.63362 1.6056,11.23922l1.6056,0c4.81681,1.6056 9.63362,0 11.23922,-3.21121l12.84482,-28.90085l0,0l12.84482,28.90085c1.6056,4.81681 8.02801,6.42241 11.23922,3.21121l0,0c3.21121,-3.21121 4.81681,-8.02801 1.6056,-11.23922l-19.26723,-25.68964l0,0l30.50645,3.21121c4.81681,0 9.63362,-3.21121 9.63362,-8.02801c0,-4.81681 -4.81681,-8.02801 -9.63362,-8.02801l-30.50645,3.21121l0,0l19.26723,-25.68964c3.21121,-3.21121 1.6056,-9.63362 -1.6056,-11.23922l0,0c-4.81681,-1.6056 -9.63362,0 -11.23922,3.21121l-12.84482,28.90085l0,0l-12.84482,-28.90085c-1.6056,-4.81681 -6.42241,-6.42241 -11.23922,-3.21121l0,0c-4.81681,1.6056 -4.81681,8.02801 -1.6056,11.23922l19.26723,25.68964l0,0l-30.50645,-4.81681c0,0 0,0 -1.6056,0c-4.81681,0 -8.02801,3.21121 -8.02801,8.02801c0,8.02801 4.81681,11.23922 8.02801,11.23922z" class="st3"/>
   <path stroke="null" id="svg_38" fill="#FFFFFF" d="m2016.18334,340.05115c9.63362,0 16.05603,-6.42241 16.05603,-16.05603c0,-9.63362 -6.42241,-16.05603 -16.05603,-16.05603c-9.63362,0 -16.05603,6.42241 -16.05603,16.05603c0,8.02801 6.42241,16.05603 16.05603,16.05603z" class="st3"/>
   <path stroke="null" id="svg_39" fill="#FFFFFF" d="m2065.95702,738.24061c0,9.63362 8.02801,17.66163 17.66163,17.66163c9.63362,0 17.66163,-8.02801 17.66163,-17.66163c0,-9.63362 -8.02801,-17.66163 -17.66163,-17.66163c-11.23922,0 -17.66163,8.02801 -17.66163,17.66163z" class="st3"/>
   <path stroke="null" id="svg_40" fill="#FFFFFF" d="m2289.13579,788.01429c27.29524,0 51.37928,-22.47844 51.37928,-51.37928c0,-27.29524 -22.47844,-51.37928 -51.37928,-51.37928c-27.29524,0 -51.37928,22.47844 -51.37928,51.37928c0,28.90085 22.47844,51.37928 51.37928,51.37928z" class="st3"/>
   <path stroke="null" id="svg_41" fill="#FFFFFF" d="m1982.46569,391.43044c-30.50645,0 -56.19609,25.68964 -56.19609,56.19609l0,130.05381l130.05381,0c30.50645,0 56.19609,-25.68964 56.19609,-56.19609l0,0c0,-30.50645 -25.68964,-56.19609 -56.19609,-56.19609l-17.66163,0l0,-17.66163c0,-30.50645 -25.68964,-56.19609 -56.19609,-56.19609z" class="st3"/>
  </g>
 </g>
</svg>