<svg width="1465" height="1103" xmlns="http://www.w3.org/2000/svg" xml:space="preserve" version="1.1">

 <g>
  <title>Layer 1</title>
  <g stroke="null" id="svg_52" opacity="0.1" class="st0">
   <path stroke="null" id="svg_53" fill="#231F20" d="m907.48324,72.32468c-11.27893,0 -20.54376,9.26483 -20.54376,20.54376c0,11.27893 9.26483,20.54376 20.54376,20.54376c11.27893,0 20.54376,-9.26483 20.54376,-20.54376c0,-11.27893 -9.26483,-20.54376 -20.54376,-20.54376z" class="st1"/>
   <path stroke="null" id="svg_54" fill="#231F20" d="m955.01586,113.4122c11.27893,0 20.54376,-9.26483 20.54376,-20.54376c0,-11.27893 -9.26483,-20.54376 -20.54376,-20.54376c-11.27893,0 -20.54376,9.26483 -20.54376,20.54376c0,11.27893 9.26483,20.54376 20.54376,20.54376z" class="st1"/>
   <circle stroke="null" id="svg_55" fill="#231F20" r="20.54366" cy="139.99824" cx="907.48324" class="st1"/>
   <path stroke="null" id="svg_56" fill="#231F20" d="m955.01586,119.8573c-11.27893,0 -20.54376,9.26483 -20.54376,20.54376c0,11.27893 9.26483,20.54376 20.54376,20.54376c11.27893,0 20.54376,-9.26483 20.54376,-20.54376c0,-11.68175 -9.26483,-20.54376 -20.54376,-20.54376z" class="st1"/>
   <path stroke="null" id="svg_57" fill="#231F20" d="m1393.68556,366.38242c10.07047,0 17.72403,-8.05638 17.72403,-17.72403c0,-10.07047 -8.05638,-17.72403 -17.72403,-17.72403c-10.07047,0 -17.72403,8.05638 -17.72403,17.72403c-0.40282,9.66765 7.65356,17.72403 17.72403,17.72403z" class="st1"/>
   <path stroke="null" id="svg_58" fill="#231F20" d="m1435.1759,366.38242c10.07047,0 17.72403,-8.05638 17.72403,-17.72403c0,-10.07047 -8.05638,-17.72403 -17.72403,-17.72403c-10.07047,0 -17.72403,8.05638 -17.72403,17.72403c0,9.66765 7.65356,17.72403 17.72403,17.72403z" class="st1"/>
   <circle stroke="null" id="svg_59" fill="#231F20" r="17.72413" cy="389.74591" cx="1393.68556" class="st1"/>
   <path stroke="null" id="svg_60" fill="#231F20" d="m1435.1759,372.02188c-10.07047,0 -17.72403,8.05638 -17.72403,17.72403s8.05638,17.72403 17.72403,17.72403c10.07047,0 17.72403,-8.05638 17.72403,-17.72403s-7.65356,-17.72403 -17.72403,-17.72403z" class="st1"/>
   <path stroke="null" id="svg_61" fill="#231F20" d="m1062.56849,181.08576c11.27893,0 20.54376,-9.26483 20.54376,-20.54376c0,-11.27893 -9.26483,-20.54376 -20.54376,-20.54376s-20.54376,9.26483 -20.54376,20.54376c0,11.27893 9.26483,20.54376 20.54376,20.54376z" class="st1"/>
   <path stroke="null" id="svg_62" fill="#231F20" d="m1334.06837,542.81707c-7.65356,7.65356 -7.65356,20.14094 0,27.7945c7.65356,7.65356 20.14094,7.65356 27.7945,0s7.65356,-20.14094 0,-27.7945c-7.25074,-7.65356 -20.14094,-7.65356 -27.7945,0z" class="st1"/>
   <path stroke="null" id="svg_63" fill="#231F20" d="m1281.29911,306.76524c15.30712,0 27.39168,-12.08456 27.39168,-27.39168c0,-15.30712 -12.08456,-27.39168 -27.39168,-27.39168c-15.30712,0 -27.39168,12.08456 -27.39168,27.39168c0,14.9043 12.08456,27.39168 27.39168,27.39168z" class="st1"/>
   <path stroke="null" id="svg_64" fill="#231F20" d="m1166.09292,349.86685c-20.94658,0 -38.26779,17.32121 -38.26779,38.26779c0,20.94658 17.32121,38.26779 38.26779,38.26779c20.94658,0 38.26779,-17.32121 38.26779,-38.26779c0,-20.94658 -17.32121,-38.26779 -38.26779,-38.26779z" class="st1"/>
   <path stroke="null" id="svg_65" fill="#231F20" d="m1166.09292,81.58951c18.93248,0 34.64242,-15.70993 34.64242,-34.64242c0,-18.93248 -15.70993,-34.64242 -34.64242,-34.64242c-18.93248,0 -34.64242,15.70993 -34.64242,34.64242c0,18.93248 15.30712,34.64242 34.64242,34.64242zm0,-62.83974c15.70993,0 28.19732,12.48738 28.19732,28.19732c0,15.70993 -12.48738,28.19732 -28.19732,28.19732c-15.70993,0 -28.19732,-12.48738 -28.19732,-28.19732c0,-15.70993 12.48738,-28.19732 28.19732,-28.19732z" class="st1"/>
   <path stroke="null" id="svg_66" fill="#231F20" d="m1348.16703,505.35492c4.02819,0 7.65356,-1.61128 10.47329,-4.43101c5.63946,-5.63946 5.63946,-15.30712 0,-21.3494c-5.63946,-5.63946 -15.30712,-5.63946 -21.3494,0c-5.63946,5.63946 -5.63946,15.30712 0,21.3494c3.22255,3.22255 6.84792,4.43101 10.87611,4.43101zm-6.04228,-20.94658c3.22255,-3.22255 8.86201,-3.22255 12.08456,0c3.22255,3.22255 3.22255,8.86201 0,12.08456c-3.22255,3.22255 -8.86201,3.22255 -12.08456,0c-3.22255,-3.22255 -3.22255,-8.4592 0,-12.08456z" class="st1"/>
   <path stroke="null" id="svg_67" fill="#231F20" d="m1403.75603,546.44244c-5.63946,5.63946 -5.63946,15.30712 0,21.3494c2.81973,2.81973 6.84792,4.43101 10.47329,4.43101c4.02819,0 7.65356,-1.61128 10.47329,-4.43101c5.63946,-5.63946 5.63946,-15.30712 0,-21.3494c-5.23664,-6.04228 -14.9043,-6.04228 -20.94658,0zm16.91839,16.51557c-3.22255,3.22255 -8.86201,3.22255 -12.08456,0c-3.22255,-3.22255 -3.22255,-8.86201 0,-12.08456c1.61128,-1.61128 4.02819,-2.41691 6.04228,-2.41691s4.43101,0.80564 6.04228,2.41691c3.22255,3.22255 3.22255,8.86201 0,12.08456z" class="st1"/>
   <path stroke="null" id="svg_68" fill="#231F20" d="m1370.72489,513.00847c-5.63946,5.63946 -5.63946,15.30712 0,21.3494c2.81973,2.81973 6.84792,4.43101 10.47329,4.43101c4.02819,0 7.65356,-1.61128 10.47329,-4.43101c2.81973,-2.81973 4.43101,-6.4451 4.43101,-10.47329c0,-4.02819 -1.61128,-7.65356 -4.43101,-10.47329c-5.63946,-6.04228 -14.9043,-6.04228 -20.94658,-0.40282zm16.51557,16.91839c-3.22255,3.22255 -8.86201,3.22255 -12.08456,0c-3.22255,-3.22255 -3.22255,-8.86201 0,-12.08456c3.22255,-3.22255 8.86201,-3.22255 12.08456,0c1.61128,1.61128 2.41691,3.62537 2.41691,6.04228c0,2.01409 -0.80564,4.43101 -2.41691,6.04228z" class="st1"/>
   <path stroke="null" id="svg_69" fill="#231F20" d="m1315.13589,508.57747c-4.02819,0 -7.65356,1.61128 -10.47329,4.43101c-2.81973,2.81973 -4.43101,6.4451 -4.43101,10.47329c0,4.02819 1.61128,7.65356 4.43101,10.47329c2.81973,2.81973 6.4451,4.43101 10.47329,4.43101s7.65356,-1.61128 10.47329,-4.43101c5.63946,-5.63946 5.63946,-15.30712 0,-21.3494c-2.81973,-2.41691 -6.84792,-4.02819 -10.47329,-4.02819zm6.04228,21.3494c-3.22255,3.22255 -8.86201,3.22255 -12.08456,0c-1.61128,-1.61128 -2.41691,-3.62537 -2.41691,-6.04228c0,-2.41691 0.80564,-4.43101 2.41691,-6.04228c1.61128,-1.61128 3.62537,-2.41691 6.04228,-2.41691c2.41691,0 4.43101,0.80564 6.04228,2.41691c3.22255,3.22255 3.22255,8.4592 0,12.08456z" class="st1"/>
   <path stroke="null" id="svg_70" fill="#231F20" d="m1370.72489,579.47358c-5.63946,5.63946 -5.63946,15.30712 0,21.3494c2.81973,2.81973 6.84792,4.43101 10.47329,4.43101c4.02819,0 7.65356,-1.61128 10.47329,-4.43101c2.81973,-2.81973 4.43101,-6.4451 4.43101,-10.47329c0,-4.02819 -1.61128,-7.65356 -4.43101,-10.47329c-5.63946,-6.04228 -14.9043,-6.04228 -20.94658,-0.40282zm16.51557,16.51557c-3.22255,3.22255 -8.86201,3.22255 -12.08456,0c-3.22255,-3.22255 -3.22255,-8.86201 0,-12.08456c3.22255,-3.22255 8.86201,-3.22255 12.08456,0c1.61128,1.61128 2.41691,3.62537 2.41691,6.04228s-0.80564,4.43101 -2.41691,6.04228z" class="st1"/>
   <path stroke="null" id="svg_71" fill="#231F20" d="m1281.70193,542.01143c-4.02819,0 -7.65356,1.61128 -10.47329,4.43101c-2.81973,2.81973 -4.43101,6.4451 -4.43101,10.47329c0,4.02819 1.61128,7.65356 4.43101,10.47329c2.81973,2.81973 6.84792,4.43101 10.47329,4.43101c4.02819,0 7.65356,-1.61128 10.47329,-4.43101c5.63946,-5.63946 5.63946,-15.30712 0,-21.3494c-2.81973,-2.41691 -6.4451,-4.02819 -10.47329,-4.02819zm6.04228,20.94658c-3.22255,3.22255 -8.86201,3.22255 -12.08456,0c-1.61128,-1.61128 -2.41691,-3.62537 -2.41691,-6.04228s0.80564,-4.43101 2.41691,-6.04228c1.61128,-1.61128 3.62537,-2.41691 6.04228,-2.41691s4.43101,0.80564 6.04228,2.41691c3.22255,3.22255 3.22255,8.86201 0,12.08456z" class="st1"/>
   <path stroke="null" id="svg_72" fill="#231F20" d="m1337.69374,612.90754c-5.63946,5.63946 -5.63946,15.30712 0,21.3494c2.81973,2.81973 6.4451,4.43101 10.47329,4.43101c4.02819,0 7.65356,-1.61128 10.47329,-4.43101c5.63946,-5.63946 5.63946,-15.30712 0,-21.3494c-5.63946,-6.04228 -15.30712,-6.04228 -20.94658,0zm16.51557,16.51557c-3.22255,3.22255 -8.86201,3.22255 -12.08456,0c-3.22255,-3.22255 -3.22255,-8.86201 0,-12.08456c1.61128,-1.61128 4.02819,-2.41691 6.04228,-2.41691c2.01409,0 4.43101,0.80564 6.04228,2.41691c3.22255,3.22255 3.22255,8.4592 0,12.08456z" class="st1"/>
   <path stroke="null" id="svg_73" fill="#231F20" d="m1315.13589,575.04257c-4.02819,0 -7.65356,1.61128 -10.47329,4.43101c-2.81973,2.81973 -4.43101,6.4451 -4.43101,10.47329c0,4.02819 1.61128,7.65356 4.43101,10.47329c2.81973,2.81973 6.4451,4.43101 10.47329,4.43101s7.65356,-1.61128 10.47329,-4.43101c5.63946,-5.63946 5.63946,-15.30712 0,-21.3494c-2.81973,-2.41691 -6.84792,-4.02819 -10.47329,-4.02819zm6.04228,20.94658c-3.22255,3.22255 -8.86201,3.22255 -12.08456,0c-1.61128,-1.61128 -2.41691,-3.62537 -2.41691,-6.04228s0.80564,-4.43101 2.41691,-6.04228c1.61128,-1.61128 3.62537,-2.41691 6.04228,-2.41691c2.41691,0 4.43101,0.80564 6.04228,2.41691c3.22255,3.62537 3.22255,8.86201 0,12.08456z" class="st1"/>
   <path stroke="null" id="svg_74" fill="#231F20" d="m1062.56849,243.11986c-16.11275,0 -29.00296,12.8902 -29.00296,29.00296c0,16.11275 12.8902,29.00296 29.00296,29.00296c16.11275,0 29.00296,-12.8902 29.00296,-29.00296c0,-15.70993 -12.8902,-29.00296 -29.00296,-29.00296zm0,51.96363c-12.48738,0 -22.55785,-10.07047 -22.55785,-22.55785c0,-12.48738 10.07047,-22.55785 22.55785,-22.55785s22.55785,10.07047 22.55785,22.55785c0,12.48738 -10.07047,22.55785 -22.55785,22.55785z" class="st1"/>
   <path stroke="null" id="svg_75" fill="#231F20" d="m1131.85332,272.52564c0,18.93248 15.30712,33.83678 33.83678,33.83678c18.93248,0 33.83678,-15.30712 33.83678,-33.83678c0,-18.93248 -15.30712,-33.83678 -33.83678,-33.83678c-18.52967,-0.40282 -33.83678,14.9043 -33.83678,33.83678zm34.2396,-27.7945c15.30712,0 27.39168,12.48738 27.39168,27.39168c0,15.30712 -12.48738,27.39168 -27.39168,27.39168c-15.30712,0 -27.39168,-12.48738 -27.39168,-27.39168c-0.40282,-14.9043 12.08456,-27.39168 27.39168,-27.39168z" class="st1"/>
   <path stroke="null" id="svg_76" fill="#231F20" d="m1326.41482,388.13464c0,-22.96067 -18.52967,-41.49034 -41.49034,-41.49034c-22.96067,0 -41.49034,18.52967 -41.49034,41.49034c0,22.96067 18.52967,41.49034 41.49034,41.49034c22.55785,0 41.49034,-18.52967 41.49034,-41.49034zm-76.53558,0c0,-19.3353 15.70993,-35.04524 35.04524,-35.04524c19.3353,0 35.04524,15.70993 35.04524,35.04524c0,19.3353 -15.70993,35.04524 -35.04524,35.04524c-19.3353,0 -35.04524,-15.70993 -35.04524,-35.04524z" class="st1"/>
   <path stroke="null" id="svg_77" fill="#231F20" d="m1189.85923,155.70818c0,-12.8902 -10.47329,-23.76631 -23.76631,-23.76631c-12.8902,0 -23.76631,10.47329 -23.76631,23.76631c0,12.8902 10.47329,23.76631 23.76631,23.76631c12.8902,-0.40282 23.76631,-10.87611 23.76631,-23.76631zm-41.08752,0c0,-9.66765 7.65356,-17.32121 17.32121,-17.32121c9.66765,0 17.32121,7.65356 17.32121,17.32121c0,9.66765 -7.65356,17.32121 -17.32121,17.32121c-9.66765,-0.40282 -17.32121,-8.05638 -17.32121,-17.32121z" class="st1"/>
   <path stroke="null" id="svg_78" fill="#231F20" d="m555.01677,982.69522c-11.27893,0 -20.54376,9.26483 -20.54376,20.54376c0,11.27893 9.26483,20.54376 20.54376,20.54376c11.27893,0 20.54376,-9.26483 20.54376,-20.54376c-0.40282,-11.68175 -9.26483,-20.54376 -20.54376,-20.54376z" class="st1"/>
   <path stroke="null" id="svg_79" fill="#231F20" d="m507.48415,982.69522c-11.27893,0 -20.54376,9.26483 -20.54376,20.54376c0,11.27893 9.26483,20.54376 20.54376,20.54376c11.27893,0 20.54376,-9.26483 20.54376,-20.54376c0,-11.68175 -9.26483,-20.54376 -20.54376,-20.54376z" class="st1"/>
   <path stroke="null" id="svg_80" fill="#231F20" d="m555.01677,935.1626c-11.27893,0 -20.54376,9.26483 -20.54376,20.54376s9.26483,20.54376 20.54376,20.54376c11.27893,0 20.54376,-9.26483 20.54376,-20.54376s-9.26483,-20.54376 -20.54376,-20.54376z" class="st1"/>
   <path stroke="null" id="svg_81" fill="#231F20" d="m507.48415,935.1626c-11.27893,0 -20.54376,9.26483 -20.54376,20.54376s9.26483,20.54376 20.54376,20.54376c11.27893,0 20.54376,-9.26483 20.54376,-20.54376s-9.26483,-20.54376 -20.54376,-20.54376z" class="st1"/>
   <path stroke="null" id="svg_82" fill="#231F20" d="m68.81445,729.32218c-10.07047,0 -17.72403,8.05638 -17.72403,17.72403c0,10.07047 8.05638,17.72403 17.72403,17.72403c10.07047,0 17.72403,-8.05638 17.72403,-17.72403c0,-9.66765 -8.05638,-17.72403 -17.72403,-17.72403z" class="st1"/>
   <path stroke="null" id="svg_83" fill="#231F20" d="m27.32411,729.32218c-10.07047,0 -17.72403,8.05638 -17.72403,17.72403c0,10.07047 8.05638,17.72403 17.72403,17.72403c10.07047,0 17.72403,-8.05638 17.72403,-17.72403c0,-9.66765 -8.05638,-17.72403 -17.72403,-17.72403z" class="st1"/>
   <path stroke="null" id="svg_84" fill="#231F20" d="m68.81445,687.83184c-10.07047,0 -17.72403,8.05638 -17.72403,17.72403c0,10.07047 8.05638,17.72403 17.72403,17.72403c10.07047,0 17.72403,-8.05638 17.72403,-17.72403c0,-9.66765 -8.05638,-17.72403 -17.72403,-17.72403z" class="st1"/>
   <path stroke="null" id="svg_85" fill="#231F20" d="m27.32411,687.83184c-10.07047,0 -17.72403,8.05638 -17.72403,17.72403c0,10.07047 8.05638,17.72403 17.72403,17.72403c10.07047,0 17.72403,-8.05638 17.72403,-17.72403c0,-9.66765 -8.05638,-17.72403 -17.72403,-17.72403z" class="st1"/>
   <path stroke="null" id="svg_86" fill="#231F20" d="m399.93152,914.61884c-11.27893,0 -20.54376,9.26483 -20.54376,20.54376c0,11.27893 9.26483,20.54376 20.54376,20.54376c11.27893,0 20.54376,-9.26483 20.54376,-20.54376c-0.40282,-11.27893 -9.26483,-20.54376 -20.54376,-20.54376z" class="st1"/>
   <path stroke="null" id="svg_87" fill="#231F20" d="m100.23432,524.69022c-7.65356,7.65356 -7.65356,20.14094 0,27.7945c7.65356,7.65356 20.14094,7.65356 27.7945,0c7.65356,-7.65356 7.65356,-20.14094 0,-27.7945c-7.65356,-7.65356 -20.14094,-7.65356 -27.7945,0z" class="st1"/>
   <path stroke="null" id="svg_88" fill="#231F20" d="m181.2009,789.34219c-15.30712,0 -27.39168,12.08456 -27.39168,27.39168s12.08456,27.39168 27.39168,27.39168c15.30712,0 27.39168,-12.08456 27.39168,-27.39168s-12.48738,-27.39168 -27.39168,-27.39168z" class="st1"/>
   <path stroke="null" id="svg_89" fill="#231F20" d="m296.40709,669.30218c-20.94658,0 -38.26779,17.32121 -38.26779,38.26779c0,20.94658 17.32121,38.26779 38.26779,38.26779c20.94658,0 38.26779,-17.32121 38.26779,-38.26779c0,-21.3494 -17.32121,-38.26779 -38.26779,-38.26779z" class="st1"/>
   <path stroke="null" id="svg_90" fill="#231F20" d="m296.40709,1014.11509c-18.93248,0 -34.64242,15.70993 -34.64242,34.64242c0,18.93248 15.70993,34.64242 34.64242,34.64242c18.93248,0 34.64242,-15.70993 34.64242,-34.64242c0,-18.93248 -15.70993,-34.64242 -34.64242,-34.64242zm0,62.83974c-15.70993,0 -28.19732,-12.48738 -28.19732,-28.19732c0,-15.70993 12.48738,-28.19732 28.19732,-28.19732c15.70993,0 28.19732,12.48738 28.19732,28.19732c0,15.70993 -12.8902,28.19732 -28.19732,28.19732z" class="st1"/>
   <path stroke="null" id="svg_91" fill="#231F20" d="m114.33298,590.34969c-4.02819,0 -7.65356,1.61128 -10.47329,4.43101c-5.63946,5.63946 -5.63946,15.30712 0,21.3494c5.63946,5.63946 15.30712,5.63946 21.3494,0c5.63946,-5.63946 5.63946,-15.30712 0,-21.3494c-3.22255,-2.81973 -6.84792,-4.43101 -10.87611,-4.43101zm6.04228,20.94658c-3.22255,3.22255 -8.86201,3.22255 -12.08456,0c-3.22255,-3.22255 -3.22255,-8.86201 0,-12.08456c3.22255,-3.22255 8.86201,-3.22255 12.08456,0c3.22255,3.22255 3.22255,8.86201 0,12.08456z" class="st1"/>
   <path stroke="null" id="svg_92" fill="#231F20" d="m58.34116,528.31559c-2.81973,-2.81973 -6.84792,-4.43101 -10.47329,-4.43101c-4.02819,0 -7.65356,1.61128 -10.47329,4.43101c-5.63946,5.63946 -5.63946,15.30712 0,21.3494c5.63946,5.63946 15.30712,5.63946 21.3494,0c5.63946,-6.04228 5.63946,-15.70993 -0.40282,-21.3494zm-4.43101,16.51557c-1.61128,1.61128 -4.02819,2.41691 -6.04228,2.41691c-2.01409,0 -4.43101,-0.80564 -6.04228,-2.41691c-3.22255,-3.22255 -3.22255,-8.86201 0,-12.08456c3.22255,-3.22255 8.86201,-3.22255 12.08456,0c3.22255,3.22255 3.22255,8.86201 0,12.08456z" class="st1"/>
   <path stroke="null" id="svg_93" fill="#231F20" d="m80.89902,556.91572c-4.02819,0 -7.65356,1.61128 -10.47329,4.43101c-2.81973,2.81973 -4.43101,6.4451 -4.43101,10.47329c0,4.02819 1.61128,7.65356 4.43101,10.47329c5.63946,5.63946 15.30712,5.63946 21.3494,0c5.63946,-5.63946 5.63946,-15.30712 0,-21.3494c-3.22255,-2.41691 -6.84792,-4.02819 -10.87611,-4.02819zm6.04228,21.3494c-3.22255,3.22255 -8.86201,3.22255 -12.08456,0c-1.61128,-1.61128 -2.41691,-3.62537 -2.41691,-6.04228c0,-2.41691 0.80564,-4.43101 2.41691,-6.04228c3.22255,-3.22255 8.86201,-3.22255 12.08456,0c3.22255,3.22255 3.22255,8.4592 0,12.08456z" class="st1"/>
   <path stroke="null" id="svg_94" fill="#231F20" d="m147.36412,587.12714c4.02819,0 7.65356,-1.61128 10.47329,-4.43101c2.81973,-2.81973 4.43101,-6.4451 4.43101,-10.47329c0,-4.02819 -1.61128,-7.65356 -4.43101,-10.47329c-2.81973,-2.81973 -6.4451,-4.43101 -10.47329,-4.43101c-4.02819,0 -7.65356,1.61128 -10.47329,4.43101c-5.63946,5.63946 -5.63946,15.30712 0,21.3494c2.81973,2.41691 6.4451,4.02819 10.47329,4.02819zm-6.04228,-20.94658c3.22255,-3.22255 8.86201,-3.22255 12.08456,0c1.61128,1.61128 2.41691,3.62537 2.41691,6.04228c0,2.41691 -0.80564,4.43101 -2.41691,6.04228c-1.61128,1.61128 -3.62537,2.41691 -6.04228,2.41691c-2.41691,0 -4.43101,-0.80564 -6.04228,-2.41691c-3.22255,-3.62537 -3.22255,-8.86201 0,-12.08456z" class="st1"/>
   <path stroke="null" id="svg_95" fill="#231F20" d="m91.77512,516.23102c5.63946,-5.63946 5.63946,-15.30712 0,-21.3494c-2.81973,-2.81973 -6.84792,-4.43101 -10.47329,-4.43101c-4.02819,0 -7.65356,1.61128 -10.47329,4.43101c-2.81973,2.81973 -4.43101,6.4451 -4.43101,10.47329s1.61128,7.65356 4.43101,10.47329c5.23664,6.4451 14.9043,6.4451 20.94658,0.40282zm-16.91839,-16.51557c3.22255,-3.22255 8.86201,-3.22255 12.08456,0c3.22255,3.22255 3.22255,8.86201 0,12.08456c-3.22255,3.22255 -8.86201,3.22255 -12.08456,0c-1.61128,-1.61128 -2.41691,-3.62537 -2.41691,-6.04228s0.80564,-4.43101 2.41691,-6.04228z" class="st1"/>
   <path stroke="null" id="svg_96" fill="#231F20" d="m180.39526,553.69317c4.02819,0 7.65356,-1.61128 10.47329,-4.43101c2.81973,-2.81973 4.43101,-6.4451 4.43101,-10.47329c0,-4.02819 -1.61128,-7.65356 -4.43101,-10.47329c-2.81973,-2.81973 -6.84792,-4.43101 -10.47329,-4.43101c-4.02819,0 -7.65356,1.61128 -10.47329,4.43101c-5.63946,5.63946 -5.63946,15.30712 0,21.3494c2.81973,2.41691 6.4451,4.02819 10.47329,4.02819zm-6.04228,-20.94658c3.22255,-3.22255 8.86201,-3.22255 12.08456,0c1.61128,1.61128 2.41691,3.62537 2.41691,6.04228s-0.80564,4.43101 -2.41691,6.04228c-1.61128,1.61128 -3.62537,2.41691 -6.04228,2.41691s-4.43101,-0.80564 -6.04228,-2.41691c-3.22255,-3.22255 -3.22255,-8.86201 0,-12.08456z" class="st1"/>
   <path stroke="null" id="svg_97" fill="#231F20" d="m124.80627,483.19988c5.63946,-5.63946 5.63946,-15.30712 0,-21.3494c-2.81973,-2.81973 -6.4451,-4.43101 -10.47329,-4.43101s-7.65356,1.61128 -10.47329,4.43101c-5.63946,5.63946 -5.63946,15.30712 0,21.3494c5.63946,5.63946 14.9043,5.63946 20.94658,0zm-16.51557,-16.51557c3.22255,-3.22255 8.86201,-3.22255 12.08456,0c3.22255,3.22255 3.22255,8.86201 0,12.08456c-1.61128,1.61128 -4.02819,2.41691 -6.04228,2.41691c-2.01409,0 -4.43101,-0.80564 -6.04228,-2.41691c-3.62537,-3.62537 -3.62537,-8.86201 0,-12.08456z" class="st1"/>
   <path stroke="null" id="svg_98" fill="#231F20" d="m147.36412,520.66203c4.02819,0 7.65356,-1.61128 10.47329,-4.43101c2.81973,-2.81973 4.43101,-6.4451 4.43101,-10.47329s-1.61128,-7.65356 -4.43101,-10.47329c-2.81973,-2.81973 -6.4451,-4.43101 -10.47329,-4.43101c-4.02819,0 -7.65356,1.61128 -10.47329,4.43101c-5.63946,5.63946 -5.63946,15.30712 0,21.3494c2.81973,2.41691 6.4451,4.02819 10.47329,4.02819zm-6.04228,-20.94658c3.22255,-3.22255 8.86201,-3.22255 12.08456,0c1.61128,1.61128 2.41691,3.62537 2.41691,6.04228s-0.80564,4.43101 -2.41691,6.04228c-1.61128,1.61128 -3.62537,2.41691 -6.04228,2.41691c-2.41691,0 -4.43101,-0.80564 -6.04228,-2.41691c-3.22255,-3.22255 -3.22255,-8.86201 0,-12.08456z" class="st1"/>
   <path stroke="null" id="svg_99" fill="#231F20" d="m399.93152,794.57883c-16.11275,0 -29.00296,12.8902 -29.00296,29.00296c0,16.11275 12.8902,29.00296 29.00296,29.00296c16.11275,0 29.00296,-12.8902 29.00296,-29.00296c0,-16.11275 -13.29302,-29.00296 -29.00296,-29.00296zm0,51.56081c-12.48738,0 -22.55785,-10.07047 -22.55785,-22.55785s10.07047,-22.55785 22.55785,-22.55785c12.48738,0 22.55785,10.07047 22.55785,22.55785s-10.07047,22.55785 -22.55785,22.55785z" class="st1"/>
   <path stroke="null" id="svg_100" fill="#231F20" d="m330.24387,823.58179c0,-18.93248 -15.30712,-33.83678 -33.83678,-33.83678c-18.93248,0 -33.83678,15.30712 -33.83678,33.83678c0,18.93248 15.30712,33.83678 33.83678,33.83678c18.52967,0 33.83678,-15.30712 33.83678,-33.83678zm-33.83678,27.39168c-15.30712,0 -27.39168,-12.48738 -27.39168,-27.39168c0,-15.30712 12.48738,-27.39168 27.39168,-27.39168c15.30712,0 27.39168,12.48738 27.39168,27.39168c0,14.9043 -12.08456,27.39168 -27.39168,27.39168z" class="st1"/>
   <path stroke="null" id="svg_101" fill="#231F20" d="m177.57553,666.07963c-22.96067,0 -41.49034,18.52967 -41.49034,41.49034c0,22.96067 18.52967,41.49034 41.49034,41.49034c22.96067,0 41.49034,-18.52967 41.49034,-41.49034c0,-22.96067 -18.52967,-41.49034 -41.49034,-41.49034zm0,76.53558c-19.3353,0 -35.04524,-15.70993 -35.04524,-35.04524c0,-19.3353 15.70993,-35.04524 35.04524,-35.04524c19.3353,0 35.04524,15.70993 35.04524,35.04524c0,19.3353 -15.70993,35.04524 -35.04524,35.04524z" class="st1"/>
   <path stroke="null" id="svg_102" fill="#231F20" d="m272.64078,940.39924c0,12.8902 10.47329,23.76631 23.76631,23.76631c12.8902,0 23.76631,-10.47329 23.76631,-23.76631c0,-12.8902 -10.47329,-23.76631 -23.76631,-23.76631c-13.29302,0 -23.76631,10.47329 -23.76631,23.76631zm41.08752,0c0,9.66765 -7.65356,17.32121 -17.32121,17.32121c-9.66765,0 -17.32121,-7.65356 -17.32121,-17.32121c0,-9.66765 7.65356,-17.32121 17.32121,-17.32121c9.26483,0 17.32121,7.65356 17.32121,17.32121z" class="st1"/>
  </g>
 </g>
</svg>