<svg width="3000" height="3000" xmlns="http://www.w3.org/2000/svg" xml:space="preserve" version="1.1">

 <g>
  <title>Layer 1</title>
  <path stroke="null" id="svg_1" fill="#FFFFFF" d="m821.12822,13.38988l-807.84089,807.84089l0,1358.64149l807.84089,807.84089l1358.64149,0l807.84089,-807.84089l0,-1358.64149l-807.84089,-807.84089l-1358.64149,0zm-122.40013,1591.20175l0,0l391.68043,-612.00067c0,-12.24001 24.48003,-12.24001 24.48003,0c61.20007,146.88016 122.40013,318.24035 97.92011,428.40047c-12.24001,48.96005 -36.72004,110.16012 -73.44008,159.12017c0,12.24001 -12.24001,12.24001 -12.24001,24.48003c0,0 -12.24001,0 -12.24001,0l-391.68043,0c-24.48003,24.48003 -24.48003,12.24001 -24.48003,0zm1713.60188,110.16012l0,97.92011c0,0 0,12.24001 -12.24001,12.24001c-24.48003,12.24001 -134.64015,61.20007 -171.36019,122.40013c-110.16012,146.88016 -183.6002,367.2004 -367.2004,367.2004l-771.12085,0c-269.2803,0 -489.60054,-220.32024 -489.60054,-489.60054l0,-12.24001c0,-12.24001 0,-12.24001 12.24001,-12.24001l428.40047,0c12.24001,0 12.24001,12.24001 12.24001,12.24001c0,24.48003 0,61.20007 12.24001,85.68009c24.48003,48.96005 73.44008,85.68009 134.64015,85.68009l208.08023,0l0,-159.12017l-208.08023,0c-12.24001,0 -12.24001,-12.24001 -12.24001,-24.48003c0,0 0,-12.24001 12.24001,-12.24001c24.48003,-24.48003 48.96005,-73.44008 73.44008,-122.40013c24.48003,-36.72004 36.72004,-73.44008 48.96005,-110.16012c0,-12.24001 0,-12.24001 12.24001,-24.48003c0,-12.24001 12.24001,-24.48003 12.24001,-36.72004c0,-12.24001 0,-24.48003 12.24001,-24.48003c12.24001,-24.48003 12.24001,-61.20007 12.24001,-97.92011c0,-12.24001 0,-24.48003 0,-36.72004c0,-12.24001 0,-24.48003 0,-48.96005c0,-12.24001 0,-24.48003 0,-36.72004c0,-24.48003 -12.24001,-36.72004 -12.24001,-61.20007l0,-12.24001c0,-12.24001 -12.24001,-24.48003 -12.24001,-36.72004c-12.24001,-36.72004 -24.48003,-85.68009 -36.72004,-122.40013c0,-12.24001 -12.24001,-24.48003 -12.24001,-48.96005c-12.24001,-24.48003 -12.24001,-36.72004 -24.48003,-61.20007c0,-12.24001 -12.24001,-12.24001 -12.24001,-24.48003c0,-12.24001 -12.24001,-12.24001 -12.24001,-24.48003c0,-12.24001 -12.24001,-12.24001 -12.24001,-24.48003l-24.48003,-48.96005c0,-12.24001 0,-12.24001 12.24001,-12.24001l220.32024,61.20007l0,-97.92011c0,-48.96005 36.72004,-85.68009 85.68009,-85.68009c24.48003,0 48.96005,12.24001 61.20007,24.48003c12.24001,12.24001 24.48003,36.72004 24.48003,61.20007l0,146.88016l12.24001,0c0,0 0,0 0,0c0,0 12.24001,12.24001 12.24001,12.24001c0,0 12.24001,12.24001 24.48003,12.24001c12.24001,12.24001 36.72004,24.48003 48.96005,48.96005c0,0 12.24001,12.24001 12.24001,12.24001c24.48003,24.48003 61.20007,48.96005 85.68009,85.68009c12.24001,12.24001 12.24001,12.24001 24.48003,24.48003c12.24001,12.24001 12.24001,24.48003 24.48003,24.48003c12.24001,12.24001 24.48003,24.48003 24.48003,36.72004c0,12.24001 12.24001,12.24001 12.24001,24.48003c12.24001,12.24001 24.48003,36.72004 36.72004,48.96005c0,12.24001 12.24001,12.24001 12.24001,24.48003c12.24001,24.48003 24.48003,48.96005 24.48003,73.44008c0,0 0,12.24001 0,12.24001l0,0c0,12.24001 0,12.24001 0,24.48003c0,24.48003 0,48.96005 0,73.44008c0,12.24001 0,24.48003 -12.24001,36.72004c0,12.24001 -12.24001,24.48003 -12.24001,36.72004c-12.24001,24.48003 -24.48003,36.72004 -36.72004,61.20007c0,12.24001 -12.24001,12.24001 -12.24001,24.48003c0,12.24001 -12.24001,12.24001 -12.24001,24.48003c-12.24001,12.24001 -12.24001,24.48003 -24.48003,24.48003c-12.24001,12.24001 -12.24001,12.24001 -24.48003,24.48003c-12.24001,12.24001 -24.48003,24.48003 -24.48003,36.72004c0,12.24001 -12.24001,12.24001 -24.48003,24.48003c-12.24001,12.24001 -12.24001,12.24001 -24.48003,24.48003c-12.24001,12.24001 -24.48003,12.24001 -24.48003,24.48003l-12.24001,12.24001c0,0 0,0 -12.24001,0l-134.64015,0l0,159.12017l159.12017,0c36.72004,0 73.44008,-12.24001 97.92011,-36.72004c12.24001,-12.24001 48.96005,-48.96005 97.92011,-97.92011c0,0 0,0 12.24001,0l452.8805,-134.64015c0,36.72004 12.24001,36.72004 12.24001,48.96005z" class="st0"/>
 </g>
</svg>