<svg width="3000" height="1978" xmlns="http://www.w3.org/2000/svg" xml:space="preserve" version="1.1">

 <g>
  <title>Layer 1</title>
  <g stroke="null" id="svg_1" opacity="0.07" class="st0">
   <path stroke="null" id="svg_2" fill="#FFFFFF" d="m999.9195,1753.96435c-20.12554,0 -36.65722,16.53169 -36.65722,36.65722c0,20.12554 16.53169,36.65722 36.65722,36.65722c20.12554,0 36.65722,-16.53169 36.65722,-36.65722c0,-20.12554 -16.53169,-36.65722 -36.65722,-36.65722z" class="st1"/>
   <path stroke="null" id="svg_3" fill="#FFFFFF" d="m915.10474,1753.96435c-20.12554,0 -36.65722,16.53169 -36.65722,36.65722c0,20.12554 16.53169,36.65722 36.65722,36.65722s36.65722,-16.53169 36.65722,-36.65722c0,-20.12554 -16.53169,-36.65722 -36.65722,-36.65722z" class="st1"/>
   <path stroke="null" id="svg_4" fill="#FFFFFF" d="m999.9195,1669.86836c-20.12554,0 -36.65722,16.53169 -36.65722,36.65722c0,20.12554 16.53169,36.65722 36.65722,36.65722c20.12554,0 36.65722,-16.53169 36.65722,-36.65722c0,-20.8443 -16.53169,-36.65722 -36.65722,-36.65722z" class="st1"/>
   <path stroke="null" id="svg_5" fill="#FFFFFF" d="m915.10474,1669.86836c-20.12554,0 -36.65722,16.53169 -36.65722,36.65722c0,20.12554 16.53169,36.65722 36.65722,36.65722s36.65722,-16.53169 36.65722,-36.65722c0,-20.8443 -16.53169,-36.65722 -36.65722,-36.65722z" class="st1"/>
   <path stroke="null" id="svg_6" fill="#FFFFFF" d="m132.36518,1302.57734c-17.96923,0 -31.62584,14.37538 -31.62584,31.62584s14.37538,31.62584 31.62584,31.62584c17.96923,0 31.62584,-14.37538 31.62584,-31.62584s-13.65661,-31.62584 -31.62584,-31.62584z" class="st1"/>
   <path stroke="null" id="svg_7" fill="#FFFFFF" d="m58.33196,1302.57734c-17.96923,0 -31.62584,14.37538 -31.62584,31.62584c0,17.96923 14.37538,31.62584 31.62584,31.62584c17.96923,0 31.62584,-14.37538 31.62584,-31.62584s-13.65661,-31.62584 -31.62584,-31.62584z" class="st1"/>
   <path stroke="null" id="svg_8" fill="#FFFFFF" d="m132.36518,1228.54413c-17.96923,0 -31.62584,14.37538 -31.62584,31.62584s14.37538,31.62584 31.62584,31.62584c17.96923,0 31.62584,-14.37538 31.62584,-31.62584s-13.65661,-31.62584 -31.62584,-31.62584z" class="st1"/>
   <circle stroke="null" id="svg_9" fill="#FFFFFF" r="31.62601" cy="1260.88874" cx="58.33196" class="st1"/>
   <path stroke="null" id="svg_10" fill="#FFFFFF" d="m723.19339,1633.21114c-20.12554,0 -36.65722,16.53169 -36.65722,36.65722c0,20.12554 16.53169,36.65722 36.65722,36.65722c20.12554,0 36.65722,-16.53169 36.65722,-36.65722c0,-20.12554 -16.53169,-36.65722 -36.65722,-36.65722z" class="st1"/>
   <path stroke="null" id="svg_11" fill="#FFFFFF" d="m188.42917,937.44264c-13.65661,13.65661 -13.65661,35.93846 0,49.59507c13.65661,13.65661 35.93846,13.65661 49.59507,0c13.65661,-13.65661 13.65661,-35.93846 0,-49.59507c-12.93784,-13.65661 -35.93846,-13.65661 -49.59507,0z" class="st1"/>
   <path stroke="null" id="svg_12" fill="#FFFFFF" d="m332.90176,1408.95517c-27.31323,0 -48.8763,21.56307 -48.8763,48.8763c0,27.31323 21.56307,48.8763 48.8763,48.8763c27.31323,0 48.8763,-21.56307 48.8763,-48.8763c0,-26.59446 -21.56307,-48.8763 -48.8763,-48.8763z" class="st1"/>
   <path stroke="null" id="svg_13" fill="#FFFFFF" d="m538.46973,1195.48075c-37.37599,0 -68.28307,30.90707 -68.28307,68.28307c0,37.37599 30.90707,68.28307 68.28307,68.28307c37.37599,0 68.28307,-30.90707 68.28307,-68.28307c0,-38.09476 -30.1883,-68.28307 -68.28307,-68.28307z" class="st1"/>
   <path stroke="null" id="svg_14" fill="#FFFFFF" d="m538.46973,1810.74711c-33.78215,0 -61.81414,28.032 -61.81414,61.81414c0,33.78215 28.032,61.81414 61.81414,61.81414c33.78215,0 61.81414,-28.032 61.81414,-61.81414c0,-34.50092 -27.31323,-61.81414 -61.81414,-61.81414zm0,112.12798c-28.032,0 -50.31384,-22.28184 -50.31384,-50.31384c0,-28.032 22.28184,-50.31384 50.31384,-50.31384c28.032,0 50.31384,22.28184 50.31384,50.31384c0,28.032 -22.28184,50.31384 -50.31384,50.31384z" class="st1"/>
   <path stroke="null" id="svg_15" fill="#FFFFFF" d="m213.58609,1053.88323c-7.18769,0 -13.65661,2.87508 -18.688,7.90646c-10.06277,10.06277 -10.06277,27.31323 0,38.09476c10.06277,10.06277 27.31323,10.06277 38.09476,0c10.06277,-10.06277 10.06277,-27.31323 0,-38.09476c-5.75015,-5.03138 -12.21907,-7.90646 -19.40677,-7.90646zm10.78154,38.09476c-5.75015,5.75015 -15.81292,5.75015 -21.56307,0c-5.75015,-5.75015 -5.75015,-15.81292 0,-21.56307c5.75015,-5.75015 15.81292,-5.75015 21.56307,0c5.75015,5.75015 5.75015,15.09415 0,21.56307z" class="st1"/>
   <path stroke="null" id="svg_16" fill="#FFFFFF" d="m114.39595,943.91156c-5.03138,-5.03138 -12.21907,-7.90646 -18.688,-7.90646c-7.18769,0 -13.65661,2.87508 -18.688,7.90646c-10.06277,10.06277 -10.06277,27.31323 0,38.09476c10.06277,10.06277 27.31323,10.06277 38.09476,0c9.344,-10.78154 9.344,-28.032 -0.71877,-38.09476zm-8.62523,29.46953c-2.87508,2.87508 -7.18769,4.31261 -10.78154,4.31261c-3.59385,0 -7.90646,-1.43754 -10.78154,-4.31261c-5.75015,-5.75015 -5.75015,-15.81292 0,-21.56307c5.75015,-5.75015 15.81292,-5.75015 21.56307,0c5.75015,5.75015 5.75015,15.81292 0,21.56307z" class="st1"/>
   <path stroke="null" id="svg_17" fill="#FFFFFF" d="m154.64702,994.94416c-7.18769,0 -13.65661,2.87508 -18.688,7.90646c-5.03138,5.03138 -7.90646,11.50031 -7.90646,18.688c0,7.18769 2.87508,13.65661 7.90646,18.688c10.06277,10.06277 27.31323,10.06277 38.09476,0c10.06277,-10.06277 10.06277,-27.31323 0,-38.09476c-5.75015,-4.31261 -12.93784,-7.18769 -19.40677,-7.18769zm10.78154,37.37599c-5.75015,5.75015 -15.81292,5.75015 -21.56307,0c-2.87508,-2.87508 -4.31261,-6.46892 -4.31261,-10.78154s1.43754,-7.90646 4.31261,-10.78154c5.75015,-5.75015 15.81292,-5.75015 21.56307,0c5.75015,6.46892 5.75015,15.81292 0,21.56307z" class="st1"/>
   <path stroke="null" id="svg_18" fill="#FFFFFF" d="m272.52515,1048.13308c7.18769,0 13.65661,-2.87508 18.688,-7.90646c5.03138,-5.03138 7.90646,-11.50031 7.90646,-18.688c0,-7.18769 -2.87508,-13.65661 -7.90646,-18.688c-5.03138,-5.03138 -11.50031,-7.90646 -18.688,-7.90646c-7.18769,0 -13.65661,2.87508 -18.688,7.90646c-10.06277,10.06277 -10.06277,27.31323 0,38.09476c5.03138,5.03138 11.50031,7.18769 18.688,7.18769zm-10.78154,-37.37599c5.75015,-5.75015 15.81292,-5.75015 21.56307,0c2.87508,2.87508 4.31261,6.46892 4.31261,10.78154s-1.43754,7.90646 -4.31261,10.78154c-2.87508,2.87508 -6.46892,4.31261 -10.78154,4.31261c-4.31261,0 -7.90646,-1.43754 -10.78154,-4.31261c-5.75015,-5.75015 -5.75015,-15.09415 0,-21.56307z" class="st1"/>
   <path stroke="null" id="svg_19" fill="#FFFFFF" d="m135.24025,884.25372c-5.03138,5.03138 -7.90646,11.50031 -7.90646,18.688c0,7.18769 2.87508,13.65661 7.90646,18.688c10.06277,10.06277 27.31323,10.06277 38.09476,0c10.06277,-10.06277 10.06277,-27.31323 0,-38.09476c-5.03138,-5.03138 -12.21907,-7.90646 -18.688,-7.90646c-7.18769,0.71877 -13.65661,3.59385 -19.40677,8.62523zm30.1883,29.46953c-5.75015,5.75015 -15.81292,5.75015 -21.56307,0c-2.87508,-2.87508 -4.31261,-6.46892 -4.31261,-10.78154c0,-4.31261 1.43754,-7.90646 4.31261,-10.78154c5.75015,-5.75015 15.81292,-5.75015 21.56307,0c5.75015,6.46892 5.75015,15.81292 0,21.56307z" class="st1"/>
   <path stroke="null" id="svg_20" fill="#FFFFFF" d="m350.87099,981.28755c5.03138,-5.03138 7.90646,-11.50031 7.90646,-18.688c0,-7.18769 -2.87508,-13.65661 -7.90646,-18.688c-5.03138,-5.03138 -12.21907,-7.90646 -18.688,-7.90646c-7.18769,0 -13.65661,2.87508 -18.688,7.90646c-10.06277,10.06277 -10.06277,27.31323 0,38.09476c5.03138,5.03138 11.50031,7.90646 18.688,7.90646c7.18769,-0.71877 13.65661,-3.59385 18.688,-8.62523zm-29.46953,-29.46953c5.75015,-5.75015 15.81292,-5.75015 21.56307,0c2.87508,2.87508 4.31261,6.46892 4.31261,10.78154s-1.43754,7.90646 -4.31261,10.78154c-2.87508,2.87508 -6.46892,4.31261 -10.78154,4.31261s-7.90646,-1.43754 -10.78154,-4.31261c-5.75015,-5.75015 -5.75015,-15.81292 0,-21.56307z" class="st1"/>
   <path stroke="null" id="svg_21" fill="#FFFFFF" d="m232.27408,862.69065c10.06277,-10.06277 10.06277,-27.31323 0,-38.09476c-5.03138,-5.03138 -11.50031,-7.90646 -18.688,-7.90646s-13.65661,2.87508 -18.688,7.90646c-10.06277,10.06277 -10.06277,27.31323 0,38.09476c10.06277,10.78154 27.31323,10.78154 37.37599,0zm-29.46953,-29.46953c5.75015,-5.75015 15.81292,-5.75015 21.56307,0c5.75015,5.75015 5.75015,15.81292 0,21.56307c-2.87508,2.87508 -7.18769,4.31261 -10.78154,4.31261c-3.59385,0 -7.90646,-1.43754 -10.78154,-4.31261c-5.75015,-5.75015 -5.75015,-15.81292 0,-21.56307z" class="st1"/>
   <path stroke="null" id="svg_22" fill="#FFFFFF" d="m272.52515,930.25494c7.18769,0 13.65661,-2.87508 18.688,-7.90646c5.03138,-5.03138 7.90646,-11.50031 7.90646,-18.688c0,-7.18769 -2.87508,-13.65661 -7.90646,-18.688c-5.03138,-5.03138 -11.50031,-7.90646 -18.688,-7.90646c-7.18769,0 -13.65661,2.87508 -18.688,7.90646c-10.06277,10.06277 -10.06277,27.31323 0,38.09476c5.03138,4.31261 11.50031,7.18769 18.688,7.18769zm-10.78154,-37.37599c5.75015,-5.75015 15.81292,-5.75015 21.56307,0c2.87508,2.87508 4.31261,6.46892 4.31261,10.78154c0,4.31261 -1.43754,7.90646 -4.31261,10.78154c-2.87508,2.87508 -6.46892,4.31261 -10.78154,4.31261c-4.31261,0 -7.90646,-1.43754 -10.78154,-4.31261c-5.75015,-6.46892 -5.75015,-15.81292 0,-21.56307z" class="st1"/>
   <path stroke="null" id="svg_23" fill="#FFFFFF" d="m723.19339,1418.29917c-28.75076,0 -51.75138,23.00061 -51.75138,51.75138c0,28.75076 23.00061,51.75138 51.75138,51.75138c28.75076,0 51.75138,-23.00061 51.75138,-51.75138c0,-28.032 -23.00061,-51.75138 -51.75138,-51.75138zm0,92.00245c-22.28184,0 -40.25107,-17.96923 -40.25107,-40.25107s17.96923,-40.25107 40.25107,-40.25107c22.28184,0 40.25107,17.96923 40.25107,40.25107s-17.96923,40.25107 -40.25107,40.25107z" class="st1"/>
   <path stroke="null" id="svg_24" fill="#FFFFFF" d="m599.5651,1470.05055c0,-33.78215 -27.31323,-60.37661 -60.37661,-60.37661c-33.78215,0 -60.37661,27.31323 -60.37661,60.37661c0,33.78215 27.31323,60.37661 60.37661,60.37661c33.06338,0.71877 60.37661,-26.59446 60.37661,-60.37661zm-61.09537,49.59507c-27.31323,0 -48.8763,-22.28184 -48.8763,-48.8763c0,-27.31323 22.28184,-48.8763 48.8763,-48.8763c27.31323,0 48.8763,22.28184 48.8763,48.8763c0.71877,26.59446 -21.56307,48.8763 -48.8763,48.8763z" class="st1"/>
   <path stroke="null" id="svg_25" fill="#FFFFFF" d="m326.43284,1189.73059c-40.96984,0 -74.03322,33.06338 -74.03322,74.03322c0,40.96984 33.06338,74.03322 74.03322,74.03322c40.96984,0 74.03322,-33.06338 74.03322,-74.03322c0,-40.96984 -33.06338,-74.03322 -74.03322,-74.03322zm0,136.56613c-34.50092,0 -62.53291,-28.032 -62.53291,-62.53291c0,-34.50092 28.032,-62.53291 62.53291,-62.53291c34.50092,0 62.53291,28.032 62.53291,62.53291c0,34.50092 -28.032,62.53291 -62.53291,62.53291z" class="st1"/>
   <path stroke="null" id="svg_26" fill="#FFFFFF" d="m496.06235,1678.49359c0,23.00061 18.688,42.40738 42.40738,42.40738c23.00061,0 42.40738,-18.688 42.40738,-42.40738c0,-23.00061 -18.688,-42.40738 -42.40738,-42.40738c-23.00061,0.71877 -42.40738,19.40677 -42.40738,42.40738zm73.31445,0c0,17.25046 -13.65661,30.90707 -30.90707,30.90707c-17.25046,0 -30.90707,-13.65661 -30.90707,-30.90707c0,-17.25046 13.65661,-30.90707 30.90707,-30.90707c17.25046,0.71877 30.90707,14.37538 30.90707,30.90707z" class="st1"/>
   <path stroke="null" id="svg_27" fill="#FFFFFF" d="m1992.53964,1753.96435c-20.12554,0 -36.65722,16.53169 -36.65722,36.65722c0,20.12554 16.53169,36.65722 36.65722,36.65722c20.12554,0 36.65722,-16.53169 36.65722,-36.65722c0,-20.12554 -16.53169,-36.65722 -36.65722,-36.65722z" class="st1"/>
   <path stroke="null" id="svg_28" fill="#FFFFFF" d="m2077.3544,1753.96435c-20.12554,0 -36.65722,16.53169 -36.65722,36.65722c0,20.12554 16.53169,36.65722 36.65722,36.65722s36.65722,-16.53169 36.65722,-36.65722c0,-20.12554 -16.53169,-36.65722 -36.65722,-36.65722z" class="st1"/>
   <path stroke="null" id="svg_29" fill="#FFFFFF" d="m1992.53964,1669.86836c-20.12554,0 -36.65722,16.53169 -36.65722,36.65722c0,20.12554 16.53169,36.65722 36.65722,36.65722c20.12554,0 36.65722,-16.53169 36.65722,-36.65722c0,-20.8443 -16.53169,-36.65722 -36.65722,-36.65722z" class="st1"/>
   <path stroke="null" id="svg_30" fill="#FFFFFF" d="m2077.3544,1669.86836c-20.12554,0 -36.65722,16.53169 -36.65722,36.65722c0,20.12554 16.53169,36.65722 36.65722,36.65722s36.65722,-16.53169 36.65722,-36.65722c0,-20.8443 -16.53169,-36.65722 -36.65722,-36.65722z" class="st1"/>
   <path stroke="null" id="svg_31" fill="#FFFFFF" d="m2860.09396,1302.57734c-17.96923,0 -31.62584,14.37538 -31.62584,31.62584s14.37538,31.62584 31.62584,31.62584c17.96923,0 31.62584,-14.37538 31.62584,-31.62584s-13.65661,-31.62584 -31.62584,-31.62584z" class="st1"/>
   <path stroke="null" id="svg_32" fill="#FFFFFF" d="m2934.12718,1302.57734c-17.96923,0 -31.62584,14.37538 -31.62584,31.62584s14.37538,31.62584 31.62584,31.62584c17.96923,0 31.62584,-14.37538 31.62584,-31.62584c0.71877,-17.25046 -13.65661,-31.62584 -31.62584,-31.62584z" class="st1"/>
   <path stroke="null" id="svg_33" fill="#FFFFFF" d="m2860.09396,1228.54413c-17.96923,0 -31.62584,14.37538 -31.62584,31.62584s14.37538,31.62584 31.62584,31.62584c17.96923,0 31.62584,-14.37538 31.62584,-31.62584s-13.65661,-31.62584 -31.62584,-31.62584z" class="st1"/>
   <circle stroke="null" id="svg_34" fill="#FFFFFF" r="31.62593" cy="1260.88874" cx="2934.12718" class="st1"/>
   <path stroke="null" id="svg_35" fill="#FFFFFF" d="m2269.26575,1633.21114c-20.12554,0 -36.65722,16.53169 -36.65722,36.65722c0,20.12554 16.53169,36.65722 36.65722,36.65722c20.12554,0 36.65722,-16.53169 36.65722,-36.65722c0,-20.12554 -16.53169,-36.65722 -36.65722,-36.65722z" class="st1"/>
   <path stroke="null" id="svg_36" fill="#FFFFFF" d="m2754.4349,937.44264c-13.65661,13.65661 -13.65661,35.93846 0,49.59507c13.65661,13.65661 35.93846,13.65661 49.59507,0c13.65661,-13.65661 13.65661,-35.93846 0,-49.59507c-13.65661,-13.65661 -35.93846,-13.65661 -49.59507,0z" class="st1"/>
   <path stroke="null" id="svg_37" fill="#FFFFFF" d="m2659.55738,1408.95517c-27.31323,0 -48.8763,21.56307 -48.8763,48.8763c0,27.31323 21.56307,48.8763 48.8763,48.8763c27.31323,0 48.8763,-21.56307 48.8763,-48.8763c0,-26.59446 -21.56307,-48.8763 -48.8763,-48.8763z" class="st1"/>
   <path stroke="null" id="svg_38" fill="#FFFFFF" d="m2453.98941,1195.48075c-37.37599,0 -68.28307,30.90707 -68.28307,68.28307c0,37.37599 30.90707,68.28307 68.28307,68.28307c37.37599,0 68.28307,-30.90707 68.28307,-68.28307c0,-38.09476 -30.1883,-68.28307 -68.28307,-68.28307z" class="st1"/>
   <path stroke="null" id="svg_39" fill="#FFFFFF" d="m2453.98941,1810.74711c-33.78215,0 -61.81414,28.032 -61.81414,61.81414c0,33.78215 28.032,61.81414 61.81414,61.81414c33.78215,0 61.81414,-28.032 61.81414,-61.81414c0,-34.50092 -27.31323,-61.81414 -61.81414,-61.81414zm0,112.12798c-28.032,0 -50.31384,-22.28184 -50.31384,-50.31384c0,-28.032 22.28184,-50.31384 50.31384,-50.31384c28.032,0 50.31384,22.28184 50.31384,50.31384c0,28.032 -22.28184,50.31384 -50.31384,50.31384z" class="st1"/>
   <path stroke="null" id="svg_40" fill="#FFFFFF" d="m2778.87305,1053.88323c-7.18769,0 -13.65661,2.87508 -18.688,7.90646c-10.06277,10.06277 -10.06277,27.31323 0,38.09476c10.06277,10.06277 27.31323,10.06277 38.09476,0c10.06277,-10.06277 10.06277,-27.31323 0,-38.09476c-5.03138,-5.03138 -12.21907,-7.90646 -19.40677,-7.90646zm10.78154,38.09476c-5.75015,5.75015 -15.81292,5.75015 -21.56307,0c-5.75015,-5.75015 -5.75015,-15.81292 0,-21.56307c5.75015,-5.75015 15.81292,-5.75015 21.56307,0c5.75015,5.75015 5.75015,15.09415 0,21.56307z" class="st1"/>
   <path stroke="null" id="svg_41" fill="#FFFFFF" d="m2916.15795,943.91156c-5.03138,-5.03138 -12.21907,-7.90646 -18.688,-7.90646c-7.18769,0 -13.65661,2.87508 -18.688,7.90646c-10.06277,10.06277 -10.06277,27.31323 0,38.09476c10.06277,10.06277 27.31323,10.06277 38.09476,0c10.06277,-10.78154 10.06277,-28.032 -0.71877,-38.09476zm-7.90646,29.46953c-2.87508,2.87508 -7.18769,4.31261 -10.78154,4.31261c-3.59385,0 -7.90646,-1.43754 -10.78154,-4.31261c-5.75015,-5.75015 -5.75015,-15.81292 0,-21.56307c5.75015,-5.75015 15.81292,-5.75015 21.56307,0c5.75015,5.75015 5.75015,15.81292 0,21.56307z" class="st1"/>
   <path stroke="null" id="svg_42" fill="#FFFFFF" d="m2857.21888,1040.94539c5.03138,-5.03138 7.90646,-11.50031 7.90646,-18.688c0,-7.18769 -2.87508,-13.65661 -7.90646,-18.688c-5.03138,-5.03138 -12.21907,-7.90646 -18.688,-7.90646c-7.18769,0 -13.65661,2.87508 -18.688,7.90646c-10.06277,10.06277 -10.06277,27.31323 0,38.09476c10.06277,9.344 27.31323,9.344 37.37599,-0.71877zm-29.46953,-8.62523c-5.75015,-5.75015 -5.75015,-15.81292 0,-21.56307c5.75015,-5.75015 15.81292,-5.75015 21.56307,0c2.87508,2.87508 4.31261,6.46892 4.31261,10.78154s-1.43754,7.90646 -4.31261,10.78154c-6.46892,5.75015 -15.81292,5.75015 -21.56307,0z" class="st1"/>
   <path stroke="null" id="svg_43" fill="#FFFFFF" d="m2719.93398,994.94416c-7.18769,0 -13.65661,2.87508 -18.688,7.90646c-5.03138,5.03138 -7.90646,11.50031 -7.90646,18.688c0,7.18769 2.87508,13.65661 7.90646,18.688c5.03138,5.03138 11.50031,7.90646 18.688,7.90646c7.18769,0 13.65661,-2.87508 18.688,-7.90646c10.06277,-10.06277 10.06277,-27.31323 0,-38.09476c-5.03138,-4.31261 -11.50031,-7.18769 -18.688,-7.18769zm10.78154,37.37599c-2.87508,2.87508 -6.46892,4.31261 -10.78154,4.31261c-4.31261,0 -7.90646,-1.43754 -10.78154,-4.31261c-2.87508,-2.87508 -4.31261,-6.46892 -4.31261,-10.78154s1.43754,-7.90646 4.31261,-10.78154c5.75015,-5.75015 15.81292,-5.75015 21.56307,0c5.75015,6.46892 5.75015,15.81292 0,21.56307z" class="st1"/>
   <path stroke="null" id="svg_44" fill="#FFFFFF" d="m2857.21888,922.34848c5.03138,-5.03138 7.90646,-11.50031 7.90646,-18.688c0,-7.18769 -2.87508,-13.65661 -7.90646,-18.688c-5.03138,-5.03138 -12.21907,-7.90646 -18.688,-7.90646c-7.18769,0 -13.65661,2.87508 -18.688,7.90646c-10.06277,10.06277 -10.06277,27.31323 0,38.09476c10.06277,9.344 27.31323,9.344 37.37599,-0.71877zm-29.46953,-29.46953c5.75015,-5.75015 15.81292,-5.75015 21.56307,0c2.87508,2.87508 4.31261,6.46892 4.31261,10.78154c0,4.31261 -1.43754,7.90646 -4.31261,10.78154c-5.75015,5.75015 -15.81292,5.75015 -21.56307,0c-5.75015,-6.46892 -5.75015,-15.81292 0,-21.56307z" class="st1"/>
   <path stroke="null" id="svg_45" fill="#FFFFFF" d="m2641.58815,943.91156c-5.03138,5.03138 -7.90646,11.50031 -7.90646,18.688c0,7.18769 2.87508,13.65661 7.90646,18.688c5.03138,5.03138 11.50031,7.90646 18.688,7.90646c7.18769,0 13.65661,-2.87508 18.688,-7.90646c10.06277,-10.06277 10.06277,-27.31323 0,-38.09476c-5.03138,-5.03138 -12.21907,-7.90646 -18.688,-7.90646c-6.46892,0.71877 -12.93784,2.87508 -18.688,8.62523zm30.1883,7.90646c5.75015,5.75015 5.75015,15.81292 0,21.56307c-2.87508,2.87508 -6.46892,4.31261 -10.78154,4.31261s-7.90646,-1.43754 -10.78154,-4.31261c-2.87508,-2.87508 -4.31261,-6.46892 -4.31261,-10.78154s1.43754,-7.90646 4.31261,-10.78154c5.75015,-5.75015 15.09415,-5.75015 21.56307,0z" class="st1"/>
   <path stroke="null" id="svg_46" fill="#FFFFFF" d="m2798.27982,862.69065c10.06277,-10.06277 10.06277,-27.31323 0,-38.09476c-5.03138,-5.03138 -11.50031,-7.90646 -18.688,-7.90646s-13.65661,2.87508 -18.688,7.90646c-10.06277,10.06277 -10.06277,27.31323 0,38.09476c10.06277,10.78154 26.59446,10.78154 37.37599,0zm-30.1883,-29.46953c5.75015,-5.75015 15.81292,-5.75015 21.56307,0c5.75015,5.75015 5.75015,15.81292 0,21.56307c-2.87508,2.87508 -7.18769,4.31261 -10.78154,4.31261c-3.59385,0 -7.90646,-1.43754 -10.78154,-4.31261c-5.75015,-5.75015 -5.75015,-15.81292 0,-21.56307z" class="st1"/>
   <path stroke="null" id="svg_47" fill="#FFFFFF" d="m2719.93398,876.34726c-7.18769,0 -13.65661,2.87508 -18.688,7.90646c-5.03138,5.03138 -7.90646,11.50031 -7.90646,18.688c0,7.18769 2.87508,13.65661 7.90646,18.688c5.03138,5.03138 11.50031,7.90646 18.688,7.90646c7.18769,0 13.65661,-2.87508 18.688,-7.90646c10.06277,-10.06277 10.06277,-27.31323 0,-38.09476c-5.03138,-4.31261 -11.50031,-7.18769 -18.688,-7.18769zm10.78154,37.37599c-2.87508,2.87508 -6.46892,4.31261 -10.78154,4.31261c-4.31261,0 -7.90646,-1.43754 -10.78154,-4.31261c-2.87508,-2.87508 -4.31261,-6.46892 -4.31261,-10.78154c0,-4.31261 1.43754,-7.90646 4.31261,-10.78154c5.75015,-5.75015 15.81292,-5.75015 21.56307,0c5.75015,6.46892 5.75015,15.81292 0,21.56307z" class="st1"/>
   <path stroke="null" id="svg_48" fill="#FFFFFF" d="m2269.26575,1418.29917c-28.75076,0 -51.75138,23.00061 -51.75138,51.75138c0,28.75076 23.00061,51.75138 51.75138,51.75138c28.75076,0 51.75138,-23.00061 51.75138,-51.75138c0,-28.032 -23.00061,-51.75138 -51.75138,-51.75138zm0,92.00245c-22.28184,0 -40.25107,-17.96923 -40.25107,-40.25107s17.96923,-40.25107 40.25107,-40.25107c22.28184,0 40.25107,17.96923 40.25107,40.25107s-17.96923,40.25107 -40.25107,40.25107z" class="st1"/>
   <path stroke="null" id="svg_49" fill="#FFFFFF" d="m2515.08479,1470.05055c0,-33.78215 -27.31323,-60.37661 -60.37661,-60.37661c-33.78215,0 -60.37661,27.31323 -60.37661,60.37661c0,33.78215 27.31323,60.37661 60.37661,60.37661c33.06338,0.71877 60.37661,-26.59446 60.37661,-60.37661zm-61.09537,49.59507c-27.31323,0 -48.8763,-22.28184 -48.8763,-48.8763c0,-27.31323 22.28184,-48.8763 48.8763,-48.8763c27.31323,0 48.8763,22.28184 48.8763,48.8763c0.71877,26.59446 -21.56307,48.8763 -48.8763,48.8763z" class="st1"/>
   <path stroke="null" id="svg_50" fill="#FFFFFF" d="m2666.0263,1189.73059c-40.96984,0 -74.03322,33.06338 -74.03322,74.03322c0,40.96984 33.06338,74.03322 74.03322,74.03322c40.96984,0 74.03322,-33.06338 74.03322,-74.03322c0,-40.96984 -33.06338,-74.03322 -74.03322,-74.03322zm0,136.56613c-34.50092,0 -62.53291,-28.032 -62.53291,-62.53291c0,-34.50092 28.032,-62.53291 62.53291,-62.53291c34.50092,0 62.53291,28.032 62.53291,62.53291c0,34.50092 -28.032,62.53291 -62.53291,62.53291z" class="st1"/>
   <path stroke="null" id="svg_51" fill="#FFFFFF" d="m2411.58203,1678.49359c0,23.00061 18.688,42.40738 42.40738,42.40738c23.00061,0 42.40738,-18.688 42.40738,-42.40738c0,-23.00061 -18.688,-42.40738 -42.40738,-42.40738c-23.00061,0.71877 -42.40738,19.40677 -42.40738,42.40738zm73.31445,0c0,17.25046 -13.65661,30.90707 -30.90707,30.90707c-17.25046,0 -30.90707,-13.65661 -30.90707,-30.90707c0,-17.25046 13.65661,-30.90707 30.90707,-30.90707c17.25046,0.71877 30.90707,14.37538 30.90707,30.90707z" class="st1"/>
   <path stroke="null" id="svg_52" fill="#FFFFFF" d="m1992.53964,136.01507c-20.12554,0 -36.65722,16.53169 -36.65722,36.65722c0,20.12554 16.53169,36.65722 36.65722,36.65722c20.12554,0 36.65722,-16.53169 36.65722,-36.65722c0,-20.12554 -16.53169,-36.65722 -36.65722,-36.65722z" class="st1"/>
   <path stroke="null" id="svg_53" fill="#FFFFFF" d="m2077.3544,136.01507c-20.12554,0 -36.65722,16.53169 -36.65722,36.65722c0,20.12554 16.53169,36.65722 36.65722,36.65722s36.65722,-16.53169 36.65722,-36.65722c0,-20.12554 -16.53169,-36.65722 -36.65722,-36.65722z" class="st1"/>
   <path stroke="null" id="svg_54" fill="#FFFFFF" d="m1992.53964,220.82983c-20.12554,0 -36.65722,16.53169 -36.65722,36.65722c0,20.12554 16.53169,36.65722 36.65722,36.65722c20.12554,0 36.65722,-16.53169 36.65722,-36.65722c0,-20.8443 -16.53169,-36.65722 -36.65722,-36.65722z" class="st1"/>
   <path stroke="null" id="svg_55" fill="#FFFFFF" d="m2077.3544,220.82983c-20.12554,0 -36.65722,16.53169 -36.65722,36.65722c0,20.12554 16.53169,36.65722 36.65722,36.65722s36.65722,-16.53169 36.65722,-36.65722c0,-20.8443 -16.53169,-36.65722 -36.65722,-36.65722z" class="st1"/>
   <path stroke="null" id="svg_56" fill="#FFFFFF" d="m2860.09396,660.71653c17.96923,0 31.62584,-14.37538 31.62584,-31.62584s-14.37538,-31.62584 -31.62584,-31.62584c-17.96923,0 -31.62584,14.37538 -31.62584,31.62584s14.37538,31.62584 31.62584,31.62584z" class="st1"/>
   <path stroke="null" id="svg_57" fill="#FFFFFF" d="m2934.12718,660.71653c17.96923,0 31.62584,-14.37538 31.62584,-31.62584c0,-17.96923 -14.37538,-31.62584 -31.62584,-31.62584c-17.96923,0 -31.62584,14.37538 -31.62584,31.62584s14.37538,31.62584 31.62584,31.62584z" class="st1"/>
   <path stroke="null" id="svg_58" fill="#FFFFFF" d="m2860.09396,734.74975c17.96923,0 31.62584,-14.37538 31.62584,-31.62584s-14.37538,-31.62584 -31.62584,-31.62584c-17.96923,0 -31.62584,14.37538 -31.62584,31.62584s14.37538,31.62584 31.62584,31.62584z" class="st1"/>
   <circle stroke="null" id="svg_59" fill="#FFFFFF" r="31.62593" cy="702.40514" cx="2934.12718" class="st1"/>
   <path stroke="null" id="svg_60" fill="#FFFFFF" d="m2269.26575,330.08274c20.12554,0 36.65722,-16.53169 36.65722,-36.65722c0,-20.12554 -16.53169,-36.65722 -36.65722,-36.65722c-20.12554,0 -36.65722,16.53169 -36.65722,36.65722c0.71877,20.12554 16.53169,36.65722 36.65722,36.65722z" class="st1"/>
   <path stroke="null" id="svg_61" fill="#FFFFFF" d="m2659.55738,554.3387c27.31323,0 48.8763,-21.56307 48.8763,-48.8763c0,-27.31323 -21.56307,-48.8763 -48.8763,-48.8763c-27.31323,0 -48.8763,21.56307 -48.8763,48.8763c0,26.59446 22.28184,48.8763 48.8763,48.8763z" class="st1"/>
   <path stroke="null" id="svg_62" fill="#FFFFFF" d="m2453.98941,631.24699c-37.37599,0 -68.28307,30.90707 -68.28307,68.28307c0,37.37599 30.90707,68.28307 68.28307,68.28307c37.37599,0 68.28307,-30.90707 68.28307,-68.28307c0,-37.37599 -30.1883,-68.28307 -68.28307,-68.28307z" class="st1"/>
   <path stroke="null" id="svg_63" fill="#FFFFFF" d="m2453.98941,152.54676c33.78215,0 61.81414,-28.032 61.81414,-61.81414c0,-33.78215 -28.032,-61.81414 -61.81414,-61.81414c-33.78215,0 -61.81414,28.032 -61.81414,61.81414c0,33.78215 28.032,61.81414 61.81414,61.81414zm0,-112.12798c28.032,0 50.31384,22.28184 50.31384,50.31384c0,28.032 -22.28184,50.31384 -50.31384,50.31384c-28.032,0 -50.31384,-22.28184 -50.31384,-50.31384c0,-28.032 23.00061,-50.31384 50.31384,-50.31384z" class="st1"/>
   <path stroke="null" id="svg_64" fill="#FFFFFF" d="m2269.26575,440.77318c-28.75076,0 -51.75138,23.00061 -51.75138,51.75138c0,28.75076 23.00061,51.75138 51.75138,51.75138c28.75076,0 51.75138,-23.00061 51.75138,-51.75138c0,-28.032 -23.00061,-51.75138 -51.75138,-51.75138zm0,92.72122c-22.28184,0 -40.25107,-17.96923 -40.25107,-40.25107s17.96923,-40.25107 40.25107,-40.25107c22.28184,0 40.25107,17.96923 40.25107,40.25107s-17.96923,40.25107 -40.25107,40.25107z" class="st1"/>
   <path stroke="null" id="svg_65" fill="#FFFFFF" d="m2393.61281,493.24332c0,33.78215 27.31323,60.37661 60.37661,60.37661c33.78215,0 60.37661,-27.31323 60.37661,-60.37661c0,-33.78215 -27.31323,-60.37661 -60.37661,-60.37661c-33.06338,-0.71877 -60.37661,26.59446 -60.37661,60.37661zm60.37661,-49.59507c27.31323,0 48.8763,22.28184 48.8763,48.8763c0,27.31323 -22.28184,48.8763 -48.8763,48.8763c-27.31323,0 -48.8763,-22.28184 -48.8763,-48.8763c0,-26.59446 21.56307,-48.8763 48.8763,-48.8763z" class="st1"/>
   <path stroke="null" id="svg_66" fill="#FFFFFF" d="m2666.0263,773.56328c40.96984,0 74.03322,-33.06338 74.03322,-74.03322c0,-40.96984 -33.06338,-74.03322 -74.03322,-74.03322c-40.96984,0 -74.03322,33.06338 -74.03322,74.03322c0,40.96984 33.06338,74.03322 74.03322,74.03322zm0,-136.56613c34.50092,0 62.53291,28.032 62.53291,62.53291c0,34.50092 -28.032,62.53291 -62.53291,62.53291c-34.50092,0 -62.53291,-28.032 -62.53291,-62.53291c0,-34.50092 28.032,-62.53291 62.53291,-62.53291z" class="st1"/>
   <path stroke="null" id="svg_67" fill="#FFFFFF" d="m2496.39679,284.80028c0,-23.00061 -18.688,-42.40738 -42.40738,-42.40738c-23.00061,0 -42.40738,18.688 -42.40738,42.40738c0,23.00061 18.688,42.40738 42.40738,42.40738c23.71938,-0.71877 42.40738,-19.40677 42.40738,-42.40738zm-73.31445,0c0,-17.25046 13.65661,-30.90707 30.90707,-30.90707c17.25046,0 30.90707,13.65661 30.90707,30.90707c0,17.25046 -13.65661,30.90707 -30.90707,30.90707c-16.53169,-0.71877 -30.90707,-14.37538 -30.90707,-30.90707z" class="st1"/>
   <path stroke="null" id="svg_68" fill="#FFFFFF" d="m999.9195,136.01507c-20.12554,0 -36.65722,16.53169 -36.65722,36.65722c0,20.12554 16.53169,36.65722 36.65722,36.65722c20.12554,0 36.65722,-16.53169 36.65722,-36.65722c0,-20.12554 -16.53169,-36.65722 -36.65722,-36.65722z" class="st1"/>
   <path stroke="null" id="svg_69" fill="#FFFFFF" d="m915.10474,136.01507c-20.12554,0 -36.65722,16.53169 -36.65722,36.65722c0,20.12554 16.53169,36.65722 36.65722,36.65722s36.65722,-16.53169 36.65722,-36.65722c0,-20.12554 -16.53169,-36.65722 -36.65722,-36.65722z" class="st1"/>
   <path stroke="null" id="svg_70" fill="#FFFFFF" d="m999.9195,220.82983c-20.12554,0 -36.65722,16.53169 -36.65722,36.65722c0,20.12554 16.53169,36.65722 36.65722,36.65722c20.12554,0 36.65722,-16.53169 36.65722,-36.65722c0,-20.8443 -16.53169,-36.65722 -36.65722,-36.65722z" class="st1"/>
   <path stroke="null" id="svg_71" fill="#FFFFFF" d="m915.10474,220.82983c-20.12554,0 -36.65722,16.53169 -36.65722,36.65722c0,20.12554 16.53169,36.65722 36.65722,36.65722s36.65722,-16.53169 36.65722,-36.65722c0,-20.8443 -16.53169,-36.65722 -36.65722,-36.65722z" class="st1"/>
   <path stroke="null" id="svg_72" fill="#FFFFFF" d="m132.36518,660.71653c17.96923,0 31.62584,-14.37538 31.62584,-31.62584s-14.37538,-31.62584 -31.62584,-31.62584c-17.96923,0 -31.62584,14.37538 -31.62584,31.62584s14.37538,31.62584 31.62584,31.62584z" class="st1"/>
   <path stroke="null" id="svg_73" fill="#FFFFFF" d="m58.33196,660.71653c17.96923,0 31.62584,-14.37538 31.62584,-31.62584s-14.37538,-31.62584 -31.62584,-31.62584c-17.96923,0 -31.62584,14.37538 -31.62584,31.62584c0,17.25046 13.65661,31.62584 31.62584,31.62584z" class="st1"/>
   <path stroke="null" id="svg_74" fill="#FFFFFF" d="m132.36518,734.74975c17.96923,0 31.62584,-14.37538 31.62584,-31.62584s-14.37538,-31.62584 -31.62584,-31.62584c-17.96923,0 -31.62584,14.37538 -31.62584,31.62584s14.37538,31.62584 31.62584,31.62584z" class="st1"/>
   <circle stroke="null" id="svg_75" fill="#FFFFFF" r="31.62601" cy="702.40514" cx="58.33196" class="st1"/>
   <path stroke="null" id="svg_76" fill="#FFFFFF" d="m723.19339,330.08274c20.12554,0 36.65722,-16.53169 36.65722,-36.65722c0,-20.12554 -16.53169,-36.65722 -36.65722,-36.65722c-20.12554,0 -36.65722,16.53169 -36.65722,36.65722c0,20.12554 16.53169,36.65722 36.65722,36.65722z" class="st1"/>
   <path stroke="null" id="svg_77" fill="#FFFFFF" d="m332.90176,554.3387c27.31323,0 48.8763,-21.56307 48.8763,-48.8763c0,-27.31323 -21.56307,-48.8763 -48.8763,-48.8763c-27.31323,0 -48.8763,21.56307 -48.8763,48.8763c0,26.59446 22.28184,48.8763 48.8763,48.8763z" class="st1"/>
   <path stroke="null" id="svg_78" fill="#FFFFFF" d="m538.46973,631.24699c-37.37599,0 -68.28307,30.90707 -68.28307,68.28307c0,37.37599 30.90707,68.28307 68.28307,68.28307c37.37599,0 68.28307,-30.90707 68.28307,-68.28307c0,-37.37599 -30.1883,-68.28307 -68.28307,-68.28307z" class="st1"/>
   <path stroke="null" id="svg_79" fill="#FFFFFF" d="m538.46973,152.54676c33.78215,0 61.81414,-28.032 61.81414,-61.81414c0,-33.78215 -28.032,-61.81414 -61.81414,-61.81414c-33.78215,0 -61.81414,28.032 -61.81414,61.81414c0,33.78215 28.032,61.81414 61.81414,61.81414zm0,-112.12798c28.032,0 50.31384,22.28184 50.31384,50.31384c0,28.032 -22.28184,50.31384 -50.31384,50.31384c-28.032,0 -50.31384,-22.28184 -50.31384,-50.31384c0,-28.032 23.00061,-50.31384 50.31384,-50.31384z" class="st1"/>
   <path stroke="null" id="svg_80" fill="#FFFFFF" d="m723.19339,440.77318c-28.75076,0 -51.75138,23.00061 -51.75138,51.75138c0,28.75076 23.00061,51.75138 51.75138,51.75138c28.75076,0 51.75138,-23.00061 51.75138,-51.75138c0,-28.032 -23.00061,-51.75138 -51.75138,-51.75138zm0,92.72122c-22.28184,0 -40.25107,-17.96923 -40.25107,-40.25107s17.96923,-40.25107 40.25107,-40.25107c22.28184,0 40.25107,17.96923 40.25107,40.25107s-17.96923,40.25107 -40.25107,40.25107z" class="st1"/>
   <path stroke="null" id="svg_81" fill="#FFFFFF" d="m478.09312,493.24332c0,33.78215 27.31323,60.37661 60.37661,60.37661c33.78215,0 60.37661,-27.31323 60.37661,-60.37661c0,-33.78215 -27.31323,-60.37661 -60.37661,-60.37661c-33.06338,-0.71877 -60.37661,26.59446 -60.37661,60.37661zm60.37661,-49.59507c27.31323,0 48.8763,22.28184 48.8763,48.8763c0,27.31323 -22.28184,48.8763 -48.8763,48.8763c-27.31323,0 -48.8763,-22.28184 -48.8763,-48.8763c0,-26.59446 21.56307,-48.8763 48.8763,-48.8763z" class="st1"/>
   <path stroke="null" id="svg_82" fill="#FFFFFF" d="m326.43284,625.49684c-40.96984,0 -74.03322,33.06338 -74.03322,74.03322c0,40.96984 33.06338,74.03322 74.03322,74.03322c40.96984,0 74.03322,-33.06338 74.03322,-74.03322c0,-40.96984 -33.06338,-74.03322 -74.03322,-74.03322zm0,136.56613c-34.50092,0 -62.53291,-28.032 -62.53291,-62.53291c0,-34.50092 28.032,-62.53291 62.53291,-62.53291c34.50092,0 62.53291,28.032 62.53291,62.53291c0,34.50092 -28.032,62.53291 -62.53291,62.53291z" class="st1"/>
   <path stroke="null" id="svg_83" fill="#FFFFFF" d="m580.8771,284.80028c0,-23.00061 -18.688,-42.40738 -42.40738,-42.40738c-23.00061,0 -42.40738,18.688 -42.40738,42.40738c0,23.00061 18.688,42.40738 42.40738,42.40738c23.71938,-0.71877 42.40738,-19.40677 42.40738,-42.40738zm-73.31445,0c0,-17.25046 13.65661,-30.90707 30.90707,-30.90707c17.25046,0 30.90707,13.65661 30.90707,30.90707c0,17.25046 -13.65661,30.90707 -30.90707,30.90707c-16.53169,-0.71877 -30.90707,-14.37538 -30.90707,-30.90707z" class="st1"/>
  </g>
 </g>
</svg>