
<svg width="3000" height="298" xmlns="http://www.w3.org/2000/svg" xml:space="preserve" version="1.1">

 <g>
  <title>Layer 1</title>
  <g stroke="null" id="svg_1">
   <g stroke="null" id="svg_2">
    <polygon stroke="null" id="svg_3" fill="#43679A" points="41.18448695442203,301.2000734330665 7.95135498046875,334.4318840906796 7.95135498046875,500.59446088898557 41.18448695442203,535.0142230241779 145.63013925796986,535.0142230241779 178.86186182782694,500.59446088898557 178.86186182782694,460.24181221086627 136.13454342313344,460.24181221086627 136.13454342313344,482.79139687240394 126.63903567605303,492.28690461948435 60.174181132242666,492.28690461948435 50.68008278925845,482.79139687240394 50.68008278925845,352.23494810726123 60.174181132242666,342.740849764277 126.63903567605303,342.740849764277 136.13454342313344,352.23494810726123 136.13454342313344,374.7859421728951 178.86186182782694,374.7859421728951 178.86186182782694,334.4318840906796 145.63013925796986,301.2000734330665 " class="st0"/>
    <path stroke="null" id="svg_4" fill="#43679A" d="m350.95882,535.01451l33.23254,-33.23254l0,-166.1627l-33.23254,-33.23254l-103.25825,0l-33.23254,33.23254l0,166.1627l33.23254,33.23254l103.25825,0zm-94.95011,-182.77896l9.49501,-9.49501l66.46508,0l9.49501,9.49501l0,130.5564l-9.49501,9.49501l-66.46508,0l-9.49501,-9.49501l0,-130.5564z" class="st0"/>
    <polygon stroke="null" id="svg_5" fill="#43679A" points="468.4599612830134,360.54391378085865 553.9144219168884,445.99855059024566 553.9144219168884,535.0142230241779 596.6431497256781,535.0142230241779 596.6431497256781,301.2000734330665 553.9144219168884,301.2000734330665 553.9144219168884,386.6547102424535 468.4599612830134,301.2000734330665 425.7326428783199,301.2000734330665 425.7326428783199,535.0142230241779 468.4599612830134,535.0142230241779 " class="st0"/>
    <polygon stroke="null" id="svg_6" fill="#43679A" points="809.0928473246386,535.0142230241779 809.0928473246386,408.01898605909236 733.134070613356,408.01898605909236 733.134070613356,447.18509266372865 766.3657050954571,447.18509266372865 766.3657050954571,492.28690461948435 690.4053428045663,492.28690461948435 680.9110682860701,482.79139687240394 680.9110682860701,352.23494810726123 690.4053428045663,342.740849764277 758.0581488259559,342.740849764277 766.3657050954571,352.23494810726123 766.3657050954571,374.7859421728951 809.0928473246386,374.7859421728951 809.0928473246386,334.4318840906796 775.8612128425375,301.2000734330665 672.6021026124727,301.2000734330665 639.3704681303716,334.4318840906796 639.3704681303716,500.59446088898557 672.6021026124727,535.0142230241779 " class="st0"/>
    <path stroke="null" id="svg_7" fill="#43679A" d="m851.82066,301.19986l0,233.81465l42.72755,0l0,-96.13699l9.49501,0l75.96009,75.96009l0,20.1769l42.72755,0l0,-36.79317l-58.15694,-58.15694l24.9244,0l33.23254,-33.23254l0,-70.02571l-33.23254,-33.23254l-137.67766,0l0,-2.37375zm126.99577,86.64198l-9.49501,9.49501l-75.96009,0l0,-53.40944l75.96009,0l9.49501,9.49501l0,34.41942z" class="st0"/>
    <path stroke="null" id="svg_8" fill="#43679A" d="m1099.87783,472.11006l85.4551,0l0,62.90445l42.72755,0l0,-166.1627l-67.65195,-67.65195l-35.60629,0l-67.65195,67.65195l0,166.1627l42.72755,0l0,-62.90445zm0,-85.4551l42.72755,-42.72755l42.72755,42.72755l0,43.91443l-85.4551,0l0,-43.91443z" class="st0"/>
    <polygon stroke="null" id="svg_9" fill="#43679A" points="1236.368497828742,342.740849764277 1300.4600920500743,342.740849764277 1300.4600920500743,535.0142230241779 1343.1872342792558,535.0142230241779 1343.1872342792558,342.740849764277 1407.2788285005881,342.740849764277 1407.2788285005881,301.2000734330665 1236.368497828742,301.2000734330665 " class="st0"/>
    <polygon stroke="null" id="svg_10" fill="#43679A" points="1566.320567278388,535.0142230241779 1599.5537873400972,500.59446088898557 1599.5537873400972,301.2000734330665 1556.8250595313075,301.2000734330665 1556.8250595313075,482.79139687240394 1547.3309611883233,492.28690461948435 1480.866106644513,492.28690461948435 1471.3705988974325,482.79139687240394 1471.3705988974325,301.2000734330665 1428.643280492739,301.2000734330665 1428.643280492739,500.59446088898557 1461.87491497484,535.0142230241779 " class="st0"/>
    <polygon stroke="null" id="svg_11" fill="#43679A" points="1787.0794067264578,492.28690461948435 1685.0082479739722,492.28690461948435 1685.0082479739722,301.2000734330665 1642.2811057447907,301.2000734330665 1642.2811057447907,535.0142230241779 1787.0794067264578,535.0142230241779 " class="st0"/>
    <path stroke="null" id="svg_12" fill="#43679A" d="m1873.72124,301.19986l-67.65195,67.65195l0,166.1627l42.72755,0l0,-62.90445l85.4551,0l0,62.90445l42.72755,0l0,-166.1627l-67.65195,-67.65195l-35.60629,0zm61.71757,128.18265l-85.4551,0l0,-43.91443l42.72755,-42.72755l42.72755,42.72755l0,43.91443z" class="st0"/>
    <polygon stroke="null" id="svg_13" fill="#43679A" points="2093.294644739035,535.0142230241779 2093.294644739035,342.740849764277 2157.3862389603673,342.740849764277 2157.3862389603673,301.2000734330665 1986.4759082885212,301.2000734330665 1986.4759082885212,342.740849764277 2050.5675025098535,342.740849764277 2050.5675025098535,535.0142230241779 " class="st0"/>
    <polygon stroke="null" id="svg_14" fill="#43679A" points="2170.441901454433,342.740849764277 2210.7959595366483,342.740849764277 2210.7959595366483,492.28690461948435 2170.441901454433,492.28690461948435 2170.441901454433,535.0142230241779 2292.687622790858,535.0142230241779 2292.687622790858,492.28690461948435 2252.3363835168348,492.28690461948435 2252.3363835168348,342.740849764277 2292.687622790858,342.740849764277 2292.687622790858,301.2000734330665 2170.441901454433,301.2000734330665 " class="st0"/>
    <path stroke="null" id="svg_15" fill="#43679A" d="m2463.5988,535.01451l33.23254,-33.23254l0,-166.1627l-33.23254,-33.23254l-103.25825,0l-33.23254,33.23254l0,166.1627l33.23254,33.23254l103.25825,0zm-94.95011,-182.77896l9.49501,-9.49501l66.46508,0l9.49501,9.49501l0,130.5564l-9.49501,9.49501l-66.46508,0l-9.49501,-9.49501l0,-130.5564z" class="st0"/>
    <polygon stroke="null" id="svg_16" fill="#43679A" points="2666.5553144738005,386.6547102424535 2581.0992682603173,301.2000734330665 2538.373535435232,301.2000734330665 2538.373535435232,535.0142230241779 2581.0992682603173,535.0142230241779 2581.0992682603173,360.54391378085865 2666.5553144738005,445.99855059024566 2666.5553144738005,535.0142230241779 2709.283866107078,535.0142230241779 2709.283866107078,301.2000734330665 2666.5553144738005,301.2000734330665 " class="st0"/>
    <polygon stroke="null" id="svg_17" fill="#43679A" points="2915.7992677590155,430.5699801247262 2881.3809150279194,397.3367600630169 2797.111587063431,397.3367600630169 2787.617488720447,387.8412523159365 2787.617488720447,352.23494810726123 2797.111587063431,342.740849764277 2863.5776748358257,342.740849764277 2873.072125529834,352.23494810726123 2873.072125529834,372.4126818504171 2915.7992677590155,372.4126818504171 2915.7992677590155,334.4318840906796 2881.3809150279194,301.2000734330665 2778.1219809733666,301.2000734330665 2744.8903464912655,334.4318840906796 2744.8903464912655,405.64431633251814 2778.1219809733666,438.87753639422743 2863.5776748358257,438.87753639422743 2873.072125529834,448.37304414130784 2873.072125529834,482.79139687240394 2863.5776748358257,492.28690461948435 2797.111587063431,492.28690461948435 2787.617488720447,482.79139687240394 2787.617488720447,462.6150725333443 2744.8903464912655,462.6150725333443 2744.8903464912655,500.59446088898557 2778.1219809733666,535.0142230241779 2881.3809150279194,535.0142230241779 2915.7992677590155,500.59446088898557 " class="st0"/>
    <rect stroke="null" id="svg_18" fill="#43679A" height="167.34957" width="42.72755" class="st0" y="301.19986" x="2950.21812"/>
    <rect stroke="null" id="svg_19" fill="#43679A" height="42.72755" width="42.72755" class="st0" y="492.28696" x="2950.21812"/>
    <polygon stroke="null" id="svg_20" fill="#44679A" points="134.94800134965044,729.662266010653 120.70465164127381,743.9041182271774 104.08953910227137,743.9041182271774 91.03273146737774,729.662266010653 91.03273146737774,640.6464174012087 70.8564071283181,640.6464174012087 70.8564071283181,729.662266010653 57.80100889752066,743.9041182271774 41.18448695442203,743.9041182271774 26.942546650141594,729.662266010653 26.942546650141594,591.984803049492 7.95135498046875,591.984803049492 7.95135498046875,737.9698222801542 32.87693068492081,762.8953098968502 66.10856516702188,762.8953098968502 81.53854503663752,747.4653300272346 95.78048534091795,762.8953098968502 129.01361731487123,762.8953098968502 153.93769552747108,737.9698222801542 153.93769552747108,591.984803049492 134.94800134965044,591.984803049492 " class="st1"/>
    <polygon stroke="null" id="svg_21" fill="#44679A" points="185.98278793608915,762.8953098968502 297.5494544356552,762.8953098968502 297.5494544356552,743.9041182271774 204.973979605762,743.9041182271774 204.973979605762,686.9349476059595 273.81191829653835,686.9349476059595 273.81191829653835,667.9451653403828 204.973979605762,667.9451653403828 204.973979605762,610.9745853150687 297.5494544356552,610.9745853150687 297.5494544356552,591.984803049492 185.98278793608915,591.984803049492 " class="st1"/>
    <polygon stroke="null" id="svg_22" fill="#44679A" points="342.6514425669229,591.984803049492 323.6616603013463,591.984803049492 323.6616603013463,762.8953098968502 425.7326428783199,762.8953098968502 425.7326428783199,743.9041182271774 342.6514425669229,743.9041182271774 " class="st1"/>
    <polygon stroke="null" id="svg_23" fill="#44679A" points="464.8987494829562,591.984803049492 439.97467127035634,616.9090574376039 439.97467127035634,737.9698222801542 464.8987494829562,762.8953098968502 537.299309377886,762.8953098968502 562.2235637659978,737.9698222801542 562.2235637659978,717.7934979410945 542.04565384733,717.7934979410945 542.04565384733,729.662266010653 528.9903437042885,743.9041182271774 473.2077151565536,743.9041182271774 460.1524050135122,729.662266010653 460.1524050135122,625.2166137071051 473.2077151565536,610.9745853150687 528.9903437042885,610.9745853150687 542.04565384733,625.2166137071051 542.04565384733,638.2733332542427 562.2235637659978,638.2733332542427 562.2235637659978,616.9090574376039 537.299309377886,591.984803049492 " class="st1"/>
    <path stroke="null" id="svg_24" fill="#44679A" d="m612.07163,591.98457l-24.9244,24.9244l0,121.06139l24.9244,24.9244l72.39946,0l24.9244,-24.9244l0,-121.06139l-24.9244,-24.9244l-72.39946,0zm77.14697,137.67766l-13.05564,13.05564l-55.78319,0l-13.05564,-13.05564l0,-105.632l13.05564,-13.05564l55.78319,0l13.05564,13.05564l0,105.632z" class="st1"/>
    <polygon stroke="null" id="svg_25" fill="#44679A" points="800.7852910551373,679.8139334099412 759.2446908994389,591.984803049492 740.2549086338622,591.984803049492 740.2549086338622,762.8953098968502 759.2446908994389,762.8953098968502 759.2446908994389,635.8986635276685 793.6644530346312,710.6724837450763 806.7197631776726,710.6724837450763 842.3260673863479,635.8986635276685 842.3260673863479,762.8953098968502 861.3158496519245,762.8953098968502 861.3158496519245,591.984803049492 842.3260673863479,591.984803049492 " class="st1"/>
    <polygon stroke="null" id="svg_26" fill="#44679A" points="893.3623514646388,762.8953098968502 1004.9276085601086,762.8953098968502 1004.9276085601086,743.9041182271774 912.3519575547034,743.9041182271774 912.3519575547034,686.9349476059595 981.1900724209918,686.9349476059595 981.1900724209918,667.9451653403828 912.3519575547034,667.9451653403828 912.3519575547034,610.9745853150687 1004.9276085601086,610.9745853150687 1004.9276085601086,591.984803049492 893.3623514646388,591.984803049492 " class="st1"/>
    <polygon stroke="null" id="svg_27" fill="#44679A" points="1088.0088088715056,610.9745853150687 1139.0450929497965,610.9745853150687 1139.0450929497965,762.8953098968502 1158.0348752153732,762.8953098968502 1158.0348752153732,610.9745853150687 1209.071159293664,610.9745853150687 1209.071159293664,591.984803049492 1088.0088088715056,591.984803049492 " class="st1"/>
    <path stroke="null" id="svg_28" fill="#44679A" d="m1248.23738,591.98457l-24.9244,24.9244l0,121.06139l24.9244,24.9244l72.39946,0l24.9244,-24.9244l0,-121.06139l-24.9244,-24.9244l-72.39946,0zm78.33384,137.67766l-13.05564,13.05564l-55.78319,0l-13.05564,-13.05564l0,-105.632l13.05564,-13.05564l55.78319,0l13.05564,13.05564l0,105.632z" class="st1"/>
    <path stroke="null" id="svg_29" fill="#44679A" d="m1497.48142,591.98457l-48.66193,48.66193l0,121.06139l18.99002,0l0,-52.22256l83.08135,0l0,52.22256l18.99002,0l0,-121.06139l-48.66193,-48.66193l-23.73753,0zm53.40944,99.69762l-83.08135,0l0,-42.72755l37.98004,-37.98004l5.93438,0l37.98004,37.98004l0,42.72755l1.18688,0z" class="st1"/>
    <polygon stroke="null" id="svg_30" fill="#44679A" points="1594.806033466557,610.9745853150687 1623.291323479214,610.9745853150687 1623.291323479214,743.9041182271774 1594.806033466557,743.9041182271774 1594.806033466557,762.8953098968502 1671.9529378309308,762.8953098968502 1671.9529378309308,743.9041182271774 1643.4676478182737,743.9041182271774 1643.4676478182737,610.9745853150687 1671.9529378309308,610.9745853150687 1671.9529378309308,591.984803049492 1594.806033466557,591.984803049492 " class="st1"/>
    <polygon stroke="null" id="svg_31" fill="#44679A" points="1717.0533403825902,673.879637462918 1717.0533403825902,591.984803049492 1698.0635581170136,591.984803049492 1698.0635581170136,762.8953098968502 1717.0533403825902,762.8953098968502 1717.0533403825902,681.0006516589362 1798.9479986205042,762.8953098968502 1819.12573236366,762.8953098968502 1819.12573236366,743.9041182271774 1807.2571404696137,743.9041182271774 1740.7910526972191,677.439439858879 1807.2571404696137,610.9745853150687 1819.12573236366,610.9745853150687 1819.12573236366,591.984803049492 1798.9479986205042,591.984803049492 " class="st1"/>
    <path stroke="null" id="svg_32" fill="#44679A" d="m1867.78685,591.98457l-24.9244,24.9244l0,121.06139l24.9244,24.9244l72.39946,0l24.9244,-24.9244l0,-121.06139l-24.9244,-24.9244l-72.39946,0zm77.14697,137.67766l-13.05564,13.05564l-55.78319,0l-13.05564,-13.05564l0,-105.632l13.05564,-13.05564l55.78319,0l13.05564,13.05564l0,105.632z" class="st1"/>
    <polygon stroke="null" id="svg_33" fill="#44679A" points="2169.255183205438,705.9247298715361 2130.086081617097,743.9041182271774 2124.15319507417,743.9041182271774 2086.1736305430168,705.9247298715361 2086.1736305430168,591.984803049492 2067.1812056447598,591.984803049492 2067.1812056447598,714.2322861410373 2115.845814980181,762.8953098968502 2139.5833511192977,762.8953098968502 2188.2447892955024,714.2322861410373 2188.2447892955024,591.984803049492 2169.255183205438,591.984803049492 " class="st1"/>
    <polygon stroke="null" id="svg_34" fill="#44679A" points="2213.167634279518,610.9745853150687 2241.6541575207593,610.9745853150687 2241.6541575207593,743.9041182271774 2213.167634279518,743.9041182271774 2213.167634279518,762.8953098968502 2290.315948047988,762.8953098968502 2290.315948047988,743.9041182271774 2261.829072455723,743.9041182271774 2261.829072455723,610.9745853150687 2290.315948047988,610.9745853150687 2290.315948047988,591.984803049492 2213.167634279518,591.984803049492 " class="st1"/>
    <path stroke="null" id="svg_35" fill="#44679A" d="m2316.42613,591.98457l0,170.9102l18.99002,0l0,-74.77321l22.55065,0l59.34382,59.34382l0,15.42939l18.99002,0l0,-22.55065l-52.22256,-52.22256l27.29816,0l24.9244,-24.9244l0,-46.28818l-24.9244,-24.9244l-94.95011,0zm102.07137,62.90445l-13.05564,13.05564l-68.83883,0l0,-56.97007l68.83883,0l13.05564,13.05564l0,30.85879z" class="st1"/>
    <polygon stroke="null" id="svg_36" fill="#44679A" points="2449.357686825788,610.9745853150687 2500.3925614999825,610.9745853150687 2500.3925614999825,762.8953098968502 2519.3835769941434,762.8953098968502 2519.3835769941434,610.9745853150687 2570.417042264242,610.9745853150687 2570.417042264242,591.984803049492 2449.357686825788,591.984803049492 " class="st1"/>
    <polygon stroke="null" id="svg_37" fill="#44679A" points="2689.104722959826,729.662266010653 2674.864103971886,743.9041182271774 2619.080242195567,743.9041182271774 2606.023522648429,729.662266010653 2606.023522648429,591.984803049492 2587.0349736114367,591.984803049492 2587.0349736114367,737.9698222801542 2610.7725097505536,762.8953098968502 2683.171836416899,762.8953098968502 2708.094329049891,737.9698222801542 2708.094329049891,591.984803049492 2689.104722959826,591.984803049492 " class="st1"/>
    <path stroke="null" id="svg_38" fill="#44679A" d="m2787.61606,591.98457l-48.66193,48.66193l0,121.06139l18.99002,0l0,-52.22256l83.08135,0l0,52.22256l18.99002,0l0,-121.06139l-48.66193,-48.66193l-23.73753,0zm53.40944,99.69762l-83.08135,0l0,-42.72755l37.98004,-37.98004l5.93438,0l37.98004,37.98004l0,42.72755l1.18688,0z" class="st1"/>
    <polygon stroke="null" id="svg_39" fill="#44679A" points="2909.863562407896,591.984803049492 2890.8736039668074,591.984803049492 2890.8736039668074,762.8953098968502 2992.944938894805,762.8953098968502 2992.944938894805,743.9041182271774 2909.863562407896,743.9041182271774 " class="st1"/>
   </g>
   <g stroke="null" id="svg_40">
    <path stroke="null" id="svg_41" fill="#43679A" d="m1493.92079,190.82035c-2.37375,-4.74751 -7.12126,-9.49501 -11.86876,-11.86876c-3.56063,-2.37375 -8.30813,-3.56063 -13.05564,-3.56063c-15.42939,0 -28.48503,13.05564 -28.48503,28.48503c0,15.42939 13.05564,28.48503 28.48503,28.48503c15.42939,0 28.48503,-13.05564 28.48503,-28.48503c0,-3.56063 -1.18688,-8.30813 -3.56063,-13.05564zm-24.9244,27.29816c-7.12126,0 -13.05564,-5.93438 -13.05564,-13.05564c0,-7.12126 5.93438,-13.05564 13.05564,-13.05564c2.37375,0 4.74751,0 5.93438,1.18688c2.37375,1.18688 3.56063,3.56063 4.74751,4.74751c1.18688,2.37375 1.18688,3.56063 1.18688,5.93438c1.18688,8.30813 -4.74751,14.24252 -11.86876,14.24252z" class="st2"/>
    <polygon stroke="null" id="svg_42" fill="#43679A" points="1490.3602049874971,82.81458239523062 1468.9973385749545,123.16872856520212 1407.2788285005881,243.0429513342694 7.95135498046875,243.0429513342694 7.95135498046875,201.5022630908149 1382.3547502879883,201.5022630908149 1444.0718509582584,82.81458239523062 " class="st2"/>
    <polygon stroke="null" id="svg_43" fill="#43679A" points="2992.944938894805,201.5022630908149 2992.944938894805,243.0429513342694 1530.7142630697126,243.0429513342694 1471.3705988974325,129.10302451222532 1495.1081350365494,84.00121255646962 1555.6385174578245,201.5022630908149 " class="st2"/>
    <path stroke="null" id="svg_44" fill="#43679A" d="m1622.10344,159.96156c0,11.86876 -1.18688,24.9244 -4.74751,36.79317l-39.16692,0c0,0 0,0 0,-1.18688c3.56063,-11.86876 5.93438,-23.73753 5.93438,-35.60629c0,-62.90445 -51.03568,-115.12701 -115.12701,-115.12701c-62.90445,0 -115.12701,51.03568 -115.12701,115.12701c0,11.86876 2.37375,24.9244 5.93438,35.60629c0,0 0,0 0,1.18688l-39.16692,0c-2.37375,-11.86876 -4.74751,-23.73753 -4.74751,-36.79317c0,-40.3538 15.42939,-79.52072 45.1013,-108.00575c28.48503,-28.48503 67.65195,-45.1013 108.00575,-45.1013c40.3538,0 79.52072,15.42939 108.00575,45.1013c28.48503,28.48503 45.1013,67.65195 45.1013,108.00575z" class="st2"/>
   </g>
  </g>
 </g>
</svg>