<svg width="2620" height="3000" xmlns="http://www.w3.org/2000/svg" xml:space="preserve" version="1.1">

 <g>
  <title>Layer 1</title>
  <g stroke="null" id="svg_1">
   <g stroke="null" id="svg_2">
    <g stroke="null" id="svg_3">
     <g stroke="null" id="svg_4">
      <g stroke="null" id="svg_5">
       <polygon stroke="null" id="svg_6" fill="#FFFFFF" points="2069.890424129856,1149.998752470594 1785.5165098487169,656.9529343848117 813.9835631845754,656.9529343848117 529.6096489034362,1149.998752470594 410.2300816411853,1149.998752470594 410.2300816411853,1846.8625030015828 529.6096489034362,1846.8625030015828 813.9835631845754,2339.9070808677934 1785.5165098487169,2339.9070808677934 2069.890424129856,1846.8625030015828 2189.269991392107,1846.8625030015828 2189.269991392107,1149.998752470594 " class="st0"/>
       <g stroke="null" id="svg_7">
        <path stroke="null" id="svg_8" fill="#44679A" d="m595.60758,1594.51592l105.79122,0c28.14629,0 41.73415,-13.58786 41.73415,-41.73415l0,-31.05797c0,-27.17573 -11.64674,-38.82247 -41.73415,-41.73415l-81.52718,-7.76449c-11.64674,-0.97056 -14.55842,-3.88225 -14.55842,-14.55842l0,-3.88225c0,-10.67618 3.88225,-14.55842 14.55842,-14.55842l58.2337,0c10.67618,0 14.55842,3.88225 14.55842,14.55842l0,4.85281l46.58696,0l0,-15.52899c0,-28.14629 -13.58786,-41.73415 -41.73415,-41.73415l-98.99729,0c-28.14629,0 -41.73415,13.58786 -41.73415,41.73415l0,26.20516c0,27.17573 11.64674,38.82247 41.73415,41.73415l81.52718,7.76449c11.64674,0.97056 14.55842,3.88225 14.55842,14.55842l0,8.73505c0,10.67618 -3.88225,14.55842 -14.55842,14.55842l-65.02763,0c-10.67618,0 -14.55842,-3.88225 -14.55842,-14.55842l0,-8.73505l-46.58696,0l0,18.44067c0,29.11685 12.6173,42.70471 41.73415,42.70471z" class="st1"/>
        <path stroke="null" id="svg_9" fill="#44679A" d="m906.1873,1594.51592c36.88134,0 53.38089,-16.49955 53.38089,-53.38089l0,-84.43886c0,-36.88134 -16.49955,-53.38089 -53.38089,-53.38089l-87.35055,0c-36.88134,0 -53.38089,16.49955 -53.38089,53.38089l0,84.43886c0,36.88134 16.49955,53.38089 53.38089,53.38089l87.35055,0zm-92.20336,-63.08651l0,-65.99819c0,-15.52899 5.82337,-21.35236 21.35236,-21.35236l54.35145,0c15.52899,0 21.35236,5.82337 21.35236,21.35236l0,65.99819c0,15.52899 -5.82337,21.35236 -21.35236,21.35236l-54.35145,0c-15.52899,0 -21.35236,-5.82337 -21.35236,-21.35236z" class="st1"/>
        <polygon stroke="null" id="svg_10" fill="#44679A" points="984.8032215313988,1403.3150882390328 984.8032215313988,1594.516266982071 1135.24036730635,1594.516266982071 1135.24036730635,1550.8411906354595 1033.3312770617895,1550.8411906354595 1033.3312770617895,1403.3150882390328 " class="st1"/>
        <path stroke="null" id="svg_11" fill="#44679A" d="m1342.94003,1528.51772l0,-59.20426c0,-42.70471 -22.32292,-65.99819 -65.99819,-65.99819l-125.20245,0l0,191.20064l125.20245,0c43.67527,0 65.99819,-23.29348 65.99819,-65.99819zm-48.52808,-2.91168c0,18.44067 -8.73505,27.17573 -27.17573,27.17573l-66.96875,0l0,-108.7029l66.96875,0c18.44067,0 27.17573,8.73505 27.17573,27.17573l0,54.35145z" class="st1"/>
        <path stroke="null" id="svg_12" fill="#44679A" d="m1587.52157,1594.51592c36.88134,0 53.38089,-16.49955 53.38089,-53.38089l0,-84.43886c0,-36.88134 -16.49955,-53.38089 -53.38089,-53.38089l-87.35055,0c-36.88134,0 -53.38089,16.49955 -53.38089,53.38089l0,84.43886c0,36.88134 16.49955,53.38089 53.38089,53.38089l87.35055,0zm-91.23279,-63.08651l0,-65.99819c0,-15.52899 5.82337,-21.35236 21.35236,-21.35236l54.35145,0c15.52899,0 21.35236,5.82337 21.35236,21.35236l0,65.99819c0,15.52899 -5.82337,21.35236 -21.35236,21.35236l-54.35145,0c-16.49955,0 -21.35236,-5.82337 -21.35236,-21.35236z" class="st1"/>
        <path stroke="null" id="svg_13" fill="#44679A" d="m1665.1665,1403.31527l0,137.81975c0,36.88134 16.49955,53.38089 53.38089,53.38089l78.61549,0c36.88134,0 53.38089,-16.49955 53.38089,-53.38089l0,-137.81975l-48.52808,0l0,128.11414c0,15.52899 -5.82337,21.35236 -21.35236,21.35236l-46.58696,0c-15.52899,0 -21.35236,-5.82337 -21.35236,-21.35236l0,-128.11414l-47.55752,0z" class="st1"/>
        <path stroke="null" id="svg_14" fill="#6C9CD1" d="m1985.45184,1291.70069l-283.404,-490.13363l-805.56616,0l-284.37456,493.04531l-58.2337,0l0,48.52808l1490.78267,0l0,-48.52808l-58.2337,0l-0.97056,-2.91168zm-705.59831,-358.13724l19.41123,-61.14538l19.41123,61.14538l64.05707,0l-51.43977,37.8519l19.41123,61.14538l-51.43977,-37.8519l-51.43977,37.8519l19.41123,-61.14538l-51.43977,-37.8519l64.05707,0zm-318.34422,360.07837l109.67346,-190.23008l456.16397,0l109.67346,190.23008l-675.5109,0z" class="st2"/>
        <polygon stroke="null" id="svg_15" fill="#44679A" points="1866.0724916846493,1446.0200648367172 1931.1009244838033,1446.0200648367172 1931.1009244838033,1594.516266982071 1979.628980014194,1594.516266982071 1979.628980014194,1446.0200648367172 2045.6265203866178,1446.0200648367172 2045.6265203866178,1403.3150882390328 1866.0724916846493,1403.3150882390328 " class="st1"/>
        <path stroke="null" id="svg_16" fill="#6C9CD1" d="m553.87343,1703.21882l58.2337,0l0.97056,1.94112l283.404,490.13363l805.56616,0l284.37456,-493.04531l58.2337,0l0,-48.52808l-1490.78267,0l0,49.49864zm797.80166,421.22375l-51.43977,-37.8519l-51.43977,37.8519l19.41123,-61.14538l-51.43977,-37.8519l64.05707,0l19.41123,-61.14538l19.41123,61.14538l64.05707,0l-51.43977,37.8519l19.41123,61.14538zm285.34512,-421.22375l-109.67346,190.23008l-456.16397,0l-109.67346,-190.23008l675.5109,0z" class="st2"/>
        <path stroke="null" id="svg_17" fill="#44679A" d="m2069.8907,1149.99869l-256.22827,-443.54667l-0.97056,-1.94112l-27.17573,-46.58696l-971.5322,0l-27.17573,46.58696l-257.19883,446.45835l-119.37908,0l0,696.86325l119.37908,0l256.22827,443.54667l0.97056,1.94112l27.17573,46.58696l971.5322,0l27.17573,-46.58696l257.19883,-446.45835l119.37908,0l0,-696.86325l-119.37908,0zm26.20516,604.6599l-79.58605,0l-284.37456,493.04531l-864.77042,0l-0.97056,-1.94112l-283.404,-490.13363l-79.58605,0l0,-511.48598l79.58605,0l284.37456,-493.04531l864.77042,0l0.97056,1.94112l283.404,490.13363l79.58605,0l0,511.48598z" class="st1"/>
       </g>
      </g>
     </g>
    </g>
    <path stroke="null" id="svg_18" fill="#6C9CD1" d="m553.87343,1703.21882l58.2337,0l0.97056,1.94112l283.404,490.13363l805.56616,0l284.37456,-493.04531l58.2337,0l0,-48.52808l-1490.78267,0l0,49.49864zm797.80166,421.22375l-51.43977,-37.8519l-51.43977,37.8519l19.41123,-61.14538l-51.43977,-37.8519l64.05707,0l19.41123,-61.14538l19.41123,61.14538l64.05707,0l-51.43977,37.8519l19.41123,61.14538zm285.34512,-421.22375l-109.67346,190.23008l-456.16397,0l-109.67346,-190.23008l675.5109,0z" class="st2"/>
   </g>
   <polygon stroke="null" id="svg_19" fill="#FFFFFF" points="2141.7122836545577,1911.8894475372508 2082.5081700076817,1892.4782749338774 2027.1854475321716,1920.6248100680532 2006.8039271359567,1979.8289237149293 2034.9504622701324,2035.1504059708677 2094.1545759170085,2054.561578574241 2149.4772983925186,2026.416283659637 2168.888470995892,1968.1825178056024 " class="st0"/>
   <g stroke="null" id="svg_20">
    <g stroke="null" id="svg_21">
     <path stroke="null" id="svg_22" fill="#C63434" d="m2130.06552,1847.8325l-92.20336,-31.05797c0.97056,-0.97056 0.97056,-2.91168 1.94112,-3.88225c10.67618,-25.2346 6.79393,-63.08651 -11.64674,-99.96785c-3.88225,-7.76449 -8.73505,-15.52899 -13.58786,-22.32292c-10.67618,-14.55842 -22.32292,-26.20516 -33.96966,-34.94022c-19.41123,-13.58786 -39.79303,-17.47011 -56.29257,-9.70562c-4.85281,1.94112 -8.73505,5.82337 -11.64674,8.73505l12.6173,0c0.97056,-0.97056 1.94112,-0.97056 2.91168,-1.94112c10.67618,-5.82337 23.29348,-3.88225 36.88134,1.94112c13.58786,6.79393 27.17573,18.44067 39.79303,34.94022c5.82337,7.76449 11.64674,16.49955 16.49955,26.20516c17.47011,34.94022 21.35236,71.82156 11.64674,94.14448c-0.97056,0.97056 -0.97056,2.91168 -1.94112,3.88225l-26.20516,-8.73505l-11.64674,33.96966l-31.05797,92.20336l84.43886,167.90716l167.90716,-84.43886l-84.43886,-166.9366zm-124.23189,-9.70562c-0.97056,-1.94112 -0.97056,-3.88225 -0.97056,-6.79393c0,-3.88225 2.91168,-8.73505 6.79393,-10.67618c3.88225,-1.94112 8.73505,-1.94112 12.6173,0.97056c-0.97056,0.97056 -1.94112,1.94112 -2.91168,2.91168c-1.94112,1.94112 -3.88225,2.91168 -5.82337,3.88225c-1.94112,0.97056 -3.88225,1.94112 -5.82337,1.94112c0,1.94112 0,2.91168 0.97056,4.85281c0.97056,0.97056 0.97056,1.94112 1.94112,2.91168c1.94112,-0.97056 4.85281,-1.94112 6.79393,-2.91168c1.94112,-0.97056 4.85281,-2.91168 6.79393,-3.88225c0.97056,-0.97056 2.91168,-1.94112 3.88225,-2.91168c1.94112,5.82337 -0.97056,11.64674 -6.79393,14.55842c-5.82337,2.91168 -11.64674,0.97056 -15.52899,-3.88225c-0.97056,0 -0.97056,-0.97056 -1.94112,-0.97056zm88.32111,211.58244l-55.32201,-18.44067l-26.20516,-51.43977l18.44067,-55.32201l52.41033,-26.20516l55.32201,18.44067l26.20516,52.41033l-18.44067,55.32201l-52.41033,25.2346zm-157.23098,-261.08108l-4.85281,7.76449c16.49955,21.35236 36.88134,36.88134 56.29257,41.73415l2.91168,-7.76449c-17.47011,-3.88225 -37.8519,-19.41123 -54.35145,-41.73415z" class="st3"/>
     <g stroke="null" id="svg_23">
      <path stroke="null" id="svg_24" fill="#C63434" d="m2143.65338,1955.56484l-24.26404,11.64674l-32.02853,-23.29348c-3.88225,-2.91168 -9.70562,-2.91168 -14.55842,-0.97056c-4.85281,1.94112 -7.76449,6.79393 -7.76449,11.64674l0,39.79303l-12.6173,5.82337l-11.64674,-24.26404l0,0l11.64674,-34.94022l0,0l32.02853,-16.49955l34.94022,11.64674l8.73505,18.44067l11.64674,-5.82337l-11.64674,-23.29348l-44.64584,-14.55842l-42.70471,21.35236l-14.55842,44.64584l21.35236,42.70471l44.64584,14.55842l42.70471,-21.35236l14.55842,-44.64584l-5.82337,-12.6173zm-19.41123,49.49864l0,0l-32.9991,16.49955l0,0l-30.08741,-9.70562l16.49955,-7.76449l0.97056,-49.49864l39.79303,29.11685l16.49955,-8.73505l-10.67618,30.08741z" class="st3"/>
      <path stroke="null" id="svg_25" fill="#C63434" d="m2097.06642,1974.00551c-0.97056,-0.97056 -2.91168,-1.94112 -4.85281,-1.94112l0,0c-0.97056,0 -2.91168,0 -3.88225,0.97056c-4.85281,1.94112 -6.79393,7.76449 -3.88225,12.6173c0.97056,1.94112 2.91168,3.88225 5.82337,4.85281c1.94112,0.97056 4.85281,0.97056 6.79393,0c1.94112,-0.97056 3.88225,-2.91168 4.85281,-5.82337c0.97056,-1.94112 0.97056,-4.85281 -0.97056,-6.79393c-0.97056,-1.94112 -1.94112,-2.91168 -3.88225,-3.88225z" class="st3"/>
     </g>
    </g>
   </g>
   <g stroke="null" id="svg_26">
    <path stroke="null" id="svg_27" fill="#FFCF61" d="m1487.55372,2647.57529l-103.85009,-53.38089c-47.55752,-24.26404 -100.93841,-35.91078 -154.3193,-32.02853l-116.4674,7.76449c-4.85281,0 -5.82337,6.79393 -1.94112,8.73505l103.85009,53.38089c47.55752,24.26404 100.93841,34.94022 154.3193,32.02853l116.4674,-7.76449c4.85281,0 5.82337,-5.82337 1.94112,-8.73505z" class="st4"/>
    <path stroke="null" id="svg_28" fill="#FFCF61" d="m1155.62164,2654.36922l-84.43886,-80.55662c-38.82247,-36.88134 -86.37999,-62.11594 -138.79031,-73.76268l-113.55571,-25.2346c-4.85281,-0.97056 -7.76449,4.85281 -4.85281,7.76449l84.43886,80.55662c38.82247,36.88134 86.37999,62.11594 138.79031,73.76268l113.55571,25.2346c5.82337,0.97056 8.73505,-4.85281 4.85281,-7.76449z" class="st4"/>
    <path stroke="null" id="svg_29" fill="#FFCF61" d="m727.60396,2517.52003l101.90897,56.29257c3.88225,1.94112 8.73505,-1.94112 6.79393,-6.79393l-58.2337,-100.93841c-27.17573,-46.58696 -65.99819,-84.43886 -112.58515,-109.67346l-101.90897,-56.29257c-3.88225,-1.94112 -8.73505,1.94112 -6.79393,6.79393l58.2337,100.93841c27.17573,45.6164 65.99819,83.4683 112.58515,109.67346z" class="st4"/>
    <path stroke="null" id="svg_30" fill="#FFCF61" d="m546.10893,2397.17039c3.88225,3.88225 9.70562,0 7.76449,-4.85281l-27.17573,-112.58515c-12.6173,-51.43977 -38.82247,-98.99729 -76.67437,-136.84919l-81.52718,-82.49774c-3.88225,-3.88225 -9.70562,0 -7.76449,4.85281l27.17573,112.58515c12.6173,51.43977 38.82247,98.99729 76.67437,136.84919l81.52718,82.49774z" class="st4"/>
    <path stroke="null" id="svg_31" fill="#FFCF61" d="m332.58537,2146.76549l5.82337,-116.4674c2.91168,-53.38089 -9.70562,-106.76178 -34.94022,-153.34874l-55.32201,-101.90897c-1.94112,-3.88225 -8.73505,-2.91168 -8.73505,1.94112l-5.82337,116.4674c-2.91168,53.38089 9.70562,106.76178 34.94022,153.34874l55.32201,101.90897c1.94112,4.85281 7.76449,2.91168 8.73505,-1.94112z" class="st4"/>
    <path stroke="null" id="svg_32" fill="#FFCF61" d="m188.94225,1847.8325l37.8519,-109.67346c17.47011,-50.4692 20.38179,-104.82066 9.70562,-157.23098l-24.26404,-113.55571c-0.97056,-4.85281 -7.76449,-4.85281 -9.70562,-0.97056l-37.8519,109.67346c-17.47011,50.4692 -20.38179,104.82066 -9.70562,157.23098l24.26404,113.55571c0.97056,4.85281 7.76449,5.82337 9.70562,0.97056z" class="st4"/>
    <path stroke="null" id="svg_33" fill="#FFCF61" d="m126.82631,1517.84155c0,4.85281 5.82337,6.79393 8.73505,2.91168l66.96875,-95.11504c31.05797,-43.67527 49.49864,-95.11504 53.38089,-147.52537l8.73505,-115.49683c0,-4.85281 -5.82337,-6.79393 -8.73505,-2.91168l-66.96875,95.11504c-31.05797,43.67527 -49.49864,95.11504 -53.38089,147.52537l-8.73505,115.49683z" class="st4"/>
    <path stroke="null" id="svg_34" fill="#FFCF61" d="m168.56046,1186.88003c-1.94112,4.85281 3.88225,8.73505 7.76449,5.82337l91.23279,-71.82156c41.73415,-32.9991 73.76268,-76.67437 93.17392,-127.14357l40.76359,-108.7029c1.94112,-4.85281 -3.88225,-8.73505 -7.76449,-5.82337l-91.23279,71.82156c-41.73415,32.9991 -73.76268,76.67437 -93.17392,127.14357l-40.76359,108.7029z" class="st4"/>
    <path stroke="null" id="svg_35" fill="#FFCF61" d="m302.49796,880.18255c-2.91168,3.88225 0.97056,9.70562 5.82337,7.76449l107.73234,-43.67527c49.49864,-20.38179 93.17392,-53.38089 125.20245,-95.11504l69.88044,-92.20336c2.91168,-3.88225 -0.97056,-9.70562 -5.82337,-7.76449l-107.73234,43.67527c-49.49864,20.38179 -93.17392,53.38089 -125.20245,95.11504l-69.88044,92.20336z" class="st4"/>
    <path stroke="null" id="svg_36" fill="#FFCF61" d="m520.87433,633.6599l115.49683,-11.64674c53.38089,-4.85281 103.85009,-24.26404 146.55481,-56.29257l93.17392,-68.90988c3.88225,-2.91168 1.94112,-8.73505 -2.91168,-8.73505l-115.49683,11.64674c-53.38089,4.85281 -103.85009,24.26404 -146.55481,56.29257l-93.17392,68.90988c-4.85281,2.91168 -2.91168,8.73505 2.91168,8.73505z" class="st4"/>
    <path stroke="null" id="svg_37" fill="#FFCF61" d="m1175.03287,408.4896l-114.52627,-21.35236c-52.41033,-9.70562 -106.76178,-5.82337 -157.23098,12.6173l-108.7029,39.79303c-4.85281,1.94112 -3.88225,8.73505 0.97056,9.70562l114.52627,21.35236c52.41033,9.70562 106.76178,5.82337 157.23098,-12.6173l108.7029,-39.79303c4.85281,-1.94112 3.88225,-8.73505 -0.97056,-9.70562z" class="st4"/>
    <path stroke="null" id="svg_38" fill="#FFCF61" d="m1111.94637,349.28534l103.85009,53.38089c47.55752,24.26404 100.93841,35.91078 154.3193,32.02853l116.4674,-7.76449c4.85281,0 5.82337,-6.79393 1.94112,-8.73505l-103.85009,-53.38089c-47.55752,-24.26404 -100.93841,-34.94022 -154.3193,-32.02853l-116.4674,7.76449c-4.85281,0 -6.79393,6.79393 -1.94112,8.73505z" class="st4"/>
    <path stroke="null" id="svg_39" fill="#FFCF61" d="m1442.90788,343.46197l84.43886,80.55662c38.82247,36.88134 86.37999,62.11594 138.79031,73.76268l113.55571,25.2346c4.85281,0.97056 7.76449,-4.85281 4.85281,-7.76449l-84.43886,-80.55662c-38.82247,-36.88134 -86.37999,-62.11594 -138.79031,-73.76268l-113.55571,-25.2346c-4.85281,-1.94112 -7.76449,3.88225 -4.85281,7.76449z" class="st4"/>
    <path stroke="null" id="svg_40" fill="#FFCF61" d="m1870.92556,480.31116l-101.90897,-56.29257c-3.88225,-1.94112 -8.73505,1.94112 -6.79393,6.79393l58.2337,100.93841c27.17573,46.58696 65.99819,84.43886 112.58515,109.67346l101.90897,56.29257c3.88225,1.94112 8.73505,-1.94112 6.79393,-6.79393l-58.2337,-100.93841c-26.20516,-45.6164 -65.02763,-84.43886 -112.58515,-109.67346z" class="st4"/>
    <path stroke="null" id="svg_41" fill="#FFCF61" d="m2053.39115,599.69024c-3.88225,-3.88225 -9.70562,0 -7.76449,4.85281l27.17573,112.58515c12.6173,51.43977 38.82247,98.99729 76.67437,136.84919l81.52718,82.49774c3.88225,3.88225 9.70562,0 7.76449,-4.85281l-27.17573,-112.58515c-12.6173,-51.43977 -38.82247,-98.99729 -76.67437,-136.84919l-81.52718,-82.49774z" class="st4"/>
    <path stroke="null" id="svg_42" fill="#FFCF61" d="m2266.91471,850.09514l-5.82337,116.4674c-2.91168,53.38089 9.70562,106.76178 34.94022,153.34874l55.32201,101.90897c1.94112,3.88225 8.73505,2.91168 8.73505,-1.94112l5.82337,-116.4674c2.91168,-53.38089 -9.70562,-106.76178 -34.94022,-153.34874l-55.32201,-101.90897c-1.94112,-3.88225 -8.73505,-2.91168 -8.73505,1.94112z" class="st4"/>
    <path stroke="null" id="svg_43" fill="#FFCF61" d="m2363.00031,1415.93257l24.26404,113.55571c0.97056,4.85281 7.76449,4.85281 9.70562,0.97056l37.8519,-109.67346c17.47011,-50.4692 20.38179,-104.82066 9.70562,-157.23098l-24.26404,-113.55571c-0.97056,-4.85281 -7.76449,-4.85281 -9.70562,-0.97056l-37.8519,109.67346c-17.47011,51.43977 -20.38179,104.82066 -9.70562,157.23098z" class="st4"/>
    <path stroke="null" id="svg_44" fill="#FFCF61" d="m2472.67378,1479.98964c0,-4.85281 -5.82337,-6.79393 -8.73505,-2.91168l-66.96875,95.11504c-31.05797,43.67527 -49.49864,95.11504 -53.38089,147.52537l-8.73505,115.49683c0,4.85281 5.82337,6.79393 8.73505,2.91168l66.96875,-95.11504c31.05797,-43.67527 49.49864,-95.11504 53.38089,-147.52537l8.73505,-115.49683z" class="st4"/>
    <path stroke="null" id="svg_45" fill="#FFCF61" d="m2430.93963,1810.95116c1.94112,-4.85281 -3.88225,-8.73505 -7.76449,-5.82337l-91.23279,71.82156c-41.73415,32.9991 -73.76268,76.67437 -93.17392,127.14357l-40.76359,108.7029c-1.94112,4.85281 3.88225,8.73505 7.76449,5.82337l91.23279,-71.82156c41.73415,-32.9991 73.76268,-76.67437 93.17392,-127.14357l40.76359,-108.7029z" class="st4"/>
    <path stroke="null" id="svg_46" fill="#FFCF61" d="m2297.00212,2116.67807c2.91168,-3.88225 -0.97056,-9.70562 -5.82337,-7.76449l-107.73234,43.67527c-49.49864,20.38179 -93.17392,53.38089 -125.20245,95.11504l-69.88044,92.20336c-2.91168,3.88225 0.97056,9.70562 5.82337,7.76449l107.73234,-43.67527c49.49864,-20.38179 93.17392,-53.38089 125.20245,-95.11504l69.88044,-92.20336z" class="st4"/>
    <path stroke="null" id="svg_47" fill="#FFCF61" d="m2078.62575,2364.17129l-115.49683,11.64674c-53.38089,4.85281 -103.85009,24.26404 -146.55481,56.29257l-93.17392,68.90988c-3.88225,2.91168 -1.94112,8.73505 2.91168,8.73505l115.49683,-11.64674c53.38089,-4.85281 103.85009,-24.26404 146.55481,-56.29257l93.17392,-68.90988c4.85281,-2.91168 1.94112,-9.70562 -2.91168,-8.73505z" class="st4"/>
    <path stroke="null" id="svg_48" fill="#FFCF61" d="m1802.98625,2548.578l-114.52627,-21.35236c-52.41033,-9.70562 -106.76178,-5.82337 -157.23098,12.6173l-108.7029,39.79303c-4.85281,1.94112 -3.88225,8.73505 0.97056,9.70562l114.52627,21.35236c52.41033,9.70562 106.76178,5.82337 157.23098,-12.6173l108.7029,-39.79303c4.85281,-1.94112 3.88225,-8.73505 -0.97056,-9.70562z" class="st4"/>
    <path stroke="null" id="svg_49" fill="#FFCF61" d="m1321.58768,2748.5137c0,-11.64674 -9.70562,-21.35236 -21.35236,-21.35236c-11.64674,0 -21.35236,9.70562 -21.35236,21.35236c0,11.64674 9.70562,21.35236 21.35236,21.35236c11.64674,0 21.35236,-9.70562 21.35236,-21.35236z" class="st4"/>
    <path stroke="null" id="svg_50" fill="#FFCF61" d="m1011.00796,2715.5146c-4.85281,24.26404 10.67618,48.52808 35.91078,53.38089c24.26404,4.85281 48.52808,-10.67618 53.38089,-35.91078c4.85281,-24.26404 -10.67618,-48.52808 -35.91078,-53.38089c-24.26404,-4.85281 -48.52808,11.64674 -53.38089,35.91078z" class="st4"/>
    <path stroke="null" id="svg_51" fill="#FFCF61" d="m813.01338,2672.80989c2.91168,0.97056 5.82337,1.94112 7.76449,1.94112c8.73505,0 16.49955,-4.85281 20.38179,-13.58786c1.94112,-4.85281 1.94112,-11.64674 0,-16.49955c-1.94112,-4.85281 -6.79393,-9.70562 -11.64674,-11.64674c-2.91168,-0.97056 -5.82337,-1.94112 -7.76449,-1.94112c-8.73505,0 -16.49955,4.85281 -20.38179,13.58786c-1.94112,4.85281 -1.94112,11.64674 0,16.49955c1.94112,5.82337 6.79393,9.70562 11.64674,11.64674z" class="st4"/>
    <path stroke="null" id="svg_52" fill="#FFCF61" d="m567.46129,2512.66722c-13.58786,20.38179 -8.73505,48.52808 12.6173,63.08651c20.38179,13.58786 48.52808,8.73505 63.08651,-12.6173c13.58786,-20.38179 8.73505,-48.52808 -12.6173,-63.08651c-20.38179,-13.58786 -48.52808,-8.73505 -63.08651,12.6173z" class="st4"/>
    <path stroke="null" id="svg_53" fill="#FFCF61" d="m400.52469,2367.08298c-8.73505,8.73505 -8.73505,22.32292 0,30.08741c3.88225,3.88225 9.70562,6.79393 15.52899,6.79393c5.82337,0 11.64674,-1.94112 15.52899,-6.79393c3.88225,-3.88225 6.79393,-9.70562 6.79393,-15.52899s-1.94112,-11.64674 -6.79393,-15.52899s-9.70562,-6.79393 -15.52899,-6.79393c-5.82337,0.97056 -11.64674,3.88225 -15.52899,7.76449z" class="st4"/>
    <path stroke="null" id="svg_54" fill="#FFCF61" d="m285.99842,2230.23379c20.38179,-13.58786 26.20516,-41.73415 12.6173,-63.08651c-13.58786,-20.38179 -41.73415,-26.20516 -63.08651,-12.6173c-20.38179,13.58786 -26.20516,41.73415 -12.6173,63.08651c13.58786,21.35236 41.73415,27.17573 63.08651,12.6173z" class="st4"/>
    <path stroke="null" id="svg_55" fill="#FFCF61" d="m124.88518,1984.68169c2.91168,7.76449 11.64674,13.58786 20.38179,13.58786c2.91168,0 5.82337,-0.97056 7.76449,-1.94112c10.67618,-4.85281 16.49955,-17.47011 11.64674,-28.14629c-2.91168,-7.76449 -11.64674,-13.58786 -20.38179,-13.58786c-2.91168,0 -5.82337,0.97056 -7.76449,1.94112c-4.85281,1.94112 -9.70562,6.79393 -11.64674,11.64674c-1.94112,5.82337 -1.94112,11.64674 0,16.49955z" class="st4"/>
    <path stroke="null" id="svg_56" fill="#FFCF61" d="m83.15103,1786.68712c24.26404,-4.85281 40.76359,-29.11685 35.91078,-53.38089c-4.85281,-24.26404 -29.11685,-40.76359 -53.38089,-35.91078c-24.26404,4.85281 -40.76359,29.11685 -35.91078,53.38089c4.85281,25.2346 28.14629,40.76359 53.38089,35.91078z" class="st4"/>
    <path stroke="null" id="svg_57" fill="#FFCF61" d="m71.50429,1498.43031c0,-11.64674 -9.70562,-21.35236 -21.35236,-21.35236c-11.64674,0 -21.35236,9.70562 -21.35236,21.35236c0,11.64674 9.70562,21.35236 21.35236,21.35236c11.64674,0 21.35236,-9.70562 21.35236,-21.35236z" class="st4"/>
    <path stroke="null" id="svg_58" fill="#FFCF61" d="m83.15103,1210.17351c-24.26404,-4.85281 -48.52808,10.67618 -53.38089,35.91078c-4.85281,24.26404 10.67618,48.52808 35.91078,53.38089c24.26404,4.85281 48.52808,-10.67618 53.38089,-35.91078c3.88225,-24.26404 -11.64674,-48.52808 -35.91078,-53.38089z" class="st4"/>
    <path stroke="null" id="svg_59" fill="#FFCF61" d="m153.03147,1000.5322c-2.91168,-0.97056 -5.82337,-1.94112 -7.76449,-1.94112c-8.73505,0 -16.49955,4.85281 -20.38179,13.58786c-1.94112,4.85281 -1.94112,11.64674 0,16.49955c1.94112,4.85281 6.79393,9.70562 11.64674,11.64674c2.91168,0.97056 5.82337,1.94112 7.76449,1.94112c8.73505,0 16.49955,-4.85281 20.38179,-13.58786c1.94112,-4.85281 1.94112,-11.64674 0,-16.49955c-1.94112,-4.85281 -5.82337,-9.70562 -11.64674,-11.64674z" class="st4"/>
    <path stroke="null" id="svg_60" fill="#FFCF61" d="m285.99842,766.62684c-20.38179,-13.58786 -48.52808,-8.73505 -63.08651,12.6173c-13.58786,20.38179 -8.73505,48.52808 12.6173,63.08651c20.38179,13.58786 48.52808,8.73505 63.08651,-12.6173c13.58786,-21.35236 7.76449,-49.49864 -12.6173,-63.08651z" class="st4"/>
    <path stroke="null" id="svg_61" fill="#FFCF61" d="m416.05367,636.57158c5.82337,0 11.64674,-1.94112 15.52899,-6.79393c8.73505,-8.73505 8.73505,-22.32292 0,-30.08741c-3.88225,-3.88225 -9.70562,-6.79393 -15.52899,-6.79393c-5.82337,0 -11.64674,1.94112 -15.52899,6.79393c-8.73505,8.73505 -8.73505,22.32292 0,30.08741c3.88225,4.85281 9.70562,6.79393 15.52899,6.79393z" class="st4"/>
    <path stroke="null" id="svg_62" fill="#FFCF61" d="m630.5478,497.78127c20.38179,-13.58786 26.20516,-41.73415 12.6173,-63.08651c-13.58786,-20.38179 -41.73415,-26.20516 -63.08651,-12.6173c-20.38179,13.58786 -26.20516,41.73415 -12.6173,63.08651c14.55842,20.38179 42.70471,26.20516 63.08651,12.6173z" class="st4"/>
    <path stroke="null" id="svg_63" fill="#FFCF61" d="m821.74844,365.78489c2.91168,0 5.82337,-0.97056 7.76449,-1.94112c10.67618,-4.85281 16.49955,-17.47011 11.64674,-28.14629c-2.91168,-7.76449 -11.64674,-13.58786 -20.38179,-13.58786c-2.91168,0 -5.82337,0.97056 -7.76449,1.94112c-10.67618,4.85281 -16.49955,17.47011 -11.64674,28.14629c3.88225,8.73505 11.64674,13.58786 20.38179,13.58786z" class="st4"/>
    <path stroke="null" id="svg_64" fill="#FFCF61" d="m1064.38885,317.25681c24.26404,-4.85281 40.76359,-29.11685 35.91078,-53.38089c-4.85281,-24.26404 -29.11685,-40.76359 -53.38089,-35.91078c-24.26404,4.85281 -40.76359,29.11685 -35.91078,53.38089s29.11685,40.76359 53.38089,35.91078z" class="st4"/>
    <path stroke="null" id="svg_65" fill="#FFCF61" d="m1277.91241,249.31749c0,11.64674 9.70562,21.35236 21.35236,21.35236c11.64674,0 21.35236,-9.70562 21.35236,-21.35236c0,-11.64674 -9.70562,-21.35236 -21.35236,-21.35236c-11.64674,0 -21.35236,9.70562 -21.35236,21.35236z" class="st4"/>
    <path stroke="null" id="svg_66" fill="#FFCF61" d="m1587.52157,282.31659c4.85281,-24.26404 -10.67618,-48.52808 -35.91078,-53.38089c-24.26404,-4.85281 -48.52808,10.67618 -53.38089,35.91078c-4.85281,24.26404 10.67618,48.52808 35.91078,53.38089c25.2346,3.88225 48.52808,-11.64674 53.38089,-35.91078z" class="st4"/>
    <path stroke="null" id="svg_67" fill="#FFCF61" d="m1786.4867,324.05074c-2.91168,-0.97056 -5.82337,-1.94112 -7.76449,-1.94112c-8.73505,0 -16.49955,4.85281 -20.38179,13.58786c-1.94112,4.85281 -1.94112,11.64674 0,16.49955c1.94112,4.85281 6.79393,9.70562 11.64674,11.64674c2.91168,0.97056 5.82337,1.94112 7.76449,1.94112c8.73505,0 16.49955,-4.85281 20.38179,-13.58786c1.94112,-4.85281 1.94112,-11.64674 0,-16.49955c-2.91168,-4.85281 -6.79393,-8.73505 -11.64674,-11.64674z" class="st4"/>
    <path stroke="null" id="svg_68" fill="#FFCF61" d="m2031.06823,485.16397c13.58786,-20.38179 8.73505,-48.52808 -12.6173,-63.08651c-20.38179,-13.58786 -48.52808,-8.73505 -63.08651,12.6173c-13.58786,20.38179 -8.73505,48.52808 12.6173,63.08651c21.35236,13.58786 49.49864,7.76449 63.08651,-12.6173z" class="st4"/>
    <path stroke="null" id="svg_69" fill="#FFCF61" d="m2198.00483,630.74821c3.88225,-3.88225 6.79393,-9.70562 6.79393,-15.52899c0,-5.82337 -1.94112,-11.64674 -6.79393,-15.52899c-3.88225,-3.88225 -9.70562,-6.79393 -15.52899,-6.79393s-11.64674,1.94112 -15.52899,6.79393c-3.88225,3.88225 -6.79393,9.70562 -6.79393,15.52899c0,5.82337 1.94112,11.64674 6.79393,15.52899c3.88225,3.88225 9.70562,6.79393 15.52899,6.79393c6.79393,-0.97056 11.64674,-2.91168 15.52899,-6.79393z" class="st4"/>
    <path stroke="null" id="svg_70" fill="#FFCF61" d="m2313.50167,766.62684c-20.38179,13.58786 -26.20516,41.73415 -12.6173,63.08651c13.58786,20.38179 41.73415,26.20516 63.08651,12.6173c20.38179,-13.58786 26.20516,-41.73415 12.6173,-63.08651c-14.55842,-20.38179 -42.70471,-26.20516 -63.08651,-12.6173z" class="st4"/>
    <path stroke="null" id="svg_71" fill="#FFCF61" d="m2473.64434,1012.17894c-2.91168,-7.76449 -11.64674,-13.58786 -20.38179,-13.58786c-2.91168,0 -5.82337,0.97056 -7.76449,1.94112c-10.67618,4.85281 -16.49955,17.47011 -11.64674,28.14629c2.91168,7.76449 11.64674,13.58786 20.38179,13.58786c2.91168,0 5.82337,-0.97056 7.76449,-1.94112c4.85281,-1.94112 9.70562,-6.79393 11.64674,-11.64674c2.91168,-4.85281 2.91168,-10.67618 0,-16.49955z" class="st4"/>
    <path stroke="null" id="svg_72" fill="#FFCF61" d="m2533.81916,1299.46518c24.26404,-4.85281 40.76359,-29.11685 35.91078,-53.38089c-4.85281,-24.26404 -29.11685,-40.76359 -53.38089,-35.91078c-24.26404,4.85281 -40.76359,29.11685 -35.91078,53.38089c4.85281,24.26404 29.11685,40.76359 53.38089,35.91078z" class="st4"/>
    <path stroke="null" id="svg_73" fill="#FFCF61" d="m2549.34815,1477.07796c-11.64674,0 -21.35236,9.70562 -21.35236,21.35236c0,11.64674 9.70562,21.35236 21.35236,21.35236c11.64674,0 21.35236,-9.70562 21.35236,-21.35236c0,-11.64674 -9.70562,-21.35236 -21.35236,-21.35236z" class="st4"/>
    <path stroke="null" id="svg_74" fill="#FFCF61" d="m2516.34905,1786.68712c24.26404,4.85281 48.52808,-10.67618 53.38089,-35.91078c4.85281,-24.26404 -10.67618,-48.52808 -35.91078,-53.38089c-24.26404,-4.85281 -48.52808,10.67618 -53.38089,35.91078c-4.85281,25.2346 11.64674,48.52808 35.91078,53.38089z" class="st4"/>
    <path stroke="null" id="svg_75" fill="#FFCF61" d="m2445.49805,1996.32843c2.91168,0.97056 5.82337,1.94112 7.76449,1.94112c8.73505,0 16.49955,-4.85281 20.38179,-13.58786c4.85281,-10.67618 -0.97056,-23.29348 -11.64674,-28.14629c-2.91168,-0.97056 -5.82337,-1.94112 -7.76449,-1.94112c-8.73505,0 -16.49955,4.85281 -20.38179,13.58786c-3.88225,11.64674 0.97056,24.26404 11.64674,28.14629z" class="st4"/>
    <path stroke="null" id="svg_76" fill="#FFCF61" d="m2313.50167,2230.23379c20.38179,13.58786 48.52808,8.73505 63.08651,-12.6173c13.58786,-20.38179 8.73505,-48.52808 -12.6173,-63.08651c-20.38179,-13.58786 -48.52808,-8.73505 -63.08651,12.6173c-13.58786,21.35236 -8.73505,49.49864 12.6173,63.08651z" class="st4"/>
    <path stroke="null" id="svg_77" fill="#FFCF61" d="m2183.44641,2360.28904c-5.82337,0 -11.64674,1.94112 -15.52899,6.79393c-8.73505,8.73505 -8.73505,22.32292 0,30.08741c3.88225,3.88225 9.70562,6.79393 15.52899,6.79393s11.64674,-1.94112 15.52899,-6.79393c8.73505,-8.73505 8.73505,-22.32292 0,-30.08741c-4.85281,-3.88225 -9.70562,-6.79393 -15.52899,-6.79393z" class="st4"/>
    <path stroke="null" id="svg_78" fill="#FFCF61" d="m1968.95229,2500.04992c-20.38179,13.58786 -26.20516,41.73415 -12.6173,63.08651c13.58786,20.38179 41.73415,26.20516 63.08651,12.6173c20.38179,-13.58786 26.20516,-41.73415 12.6173,-63.08651c-14.55842,-21.35236 -42.70471,-26.20516 -63.08651,-12.6173z" class="st4"/>
    <path stroke="null" id="svg_79" fill="#FFCF61" d="m1777.75165,2631.07574c-2.91168,0 -5.82337,0.97056 -7.76449,1.94112c-10.67618,4.85281 -16.49955,17.47011 -11.64674,28.14629c2.91168,7.76449 11.64674,13.58786 20.38179,13.58786c2.91168,0 5.82337,-0.97056 7.76449,-1.94112c10.67618,-4.85281 16.49955,-17.47011 11.64674,-28.14629c-3.88225,-7.76449 -11.64674,-13.58786 -20.38179,-13.58786z" class="st4"/>
    <path stroke="null" id="svg_80" fill="#FFCF61" d="m1534.14068,2679.60382c-24.26404,4.85281 -40.76359,29.11685 -35.91078,53.38089c4.85281,24.26404 29.11685,40.76359 53.38089,35.91078c24.26404,-4.85281 40.76359,-29.11685 35.91078,-53.38089c-4.85281,-24.26404 -28.14629,-40.76359 -53.38089,-35.91078z" class="st4"/>
    <polygon stroke="null" id="svg_81" fill="#FFCF61" points="1261.4133612941487,147.40810327179497 1299.2643665323967,119.26268433523364 1338.0867117391435,147.40810327179497 1323.528270275635,101.79208329558605 1361.3805157334546,73.64554816141026 1313.8228079959054,73.64554816141026 1299.2643665323967,29 1284.705925068888,73.64554816141026 1237.1492095069962,73.64554816141026 1275.9718027576573,101.79208329558605 " class="st4"/>
    <polygon stroke="null" id="svg_82" fill="#FFCF61" points="1313.8228079959054,2895.0690481546335 1299.2643665323967,2850.4221357516944 1284.705925068888,2895.0690481546335 1237.1492095069962,2895.0690481546335 1275.9718027576573,2923.2140950253233 1261.4133612941487,2968.831355221104 1299.2643665323967,2940.684820086928 1338.0867117391435,2968.831355221104 1323.528270275635,2923.2140950253233 1361.3805157334546,2895.0690481546335 " class="st4"/>
   </g>
  </g>
 </g>
</svg>