<?xml version="1.0" encoding="utf-8"?>
<!-- Generator: Adobe Illustrator 26.2.1, SVG Export Plug-In . SVG Version: 6.00 Build 0)  -->
<svg version="1.1" id="Layer_1" xmlns="http://www.w3.org/2000/svg" xmlns:xlink="http://www.w3.org/1999/xlink" x="0px" y="0px"
	 viewBox="0 0 3000 3000" style="enable-background:new 0 0 3000 3000;" xml:space="preserve">
<style type="text/css">
	.st0{fill:#FFFFFF;}
	.st1{fill:#44679A;}
	.st2{fill:#6C9CD1;}
	.st3{fill:#C63434;}
	.st4{fill:#FFCF61;}
</style>
<g>
	<g>
		<g>
			<g>
				<g>
					<polygon class="st0" points="1579.1,1464.5 1549.8,1413.7 1449.7,1413.7 1420.4,1464.5 1408.1,1464.5 1408.1,1536.3 
						1420.4,1536.3 1449.7,1587.1 1549.8,1587.1 1579.1,1536.3 1591.4,1536.3 1591.4,1464.5 					"/>
					<g>
						<path class="st1" d="M1427.2,1510.3h10.9c2.9,0,4.3-1.4,4.3-4.3v-3.2c0-2.8-1.2-4-4.3-4.3l-8.4-0.8c-1.2-0.1-1.5-0.4-1.5-1.5
							v-0.4c0-1.1,0.4-1.5,1.5-1.5h6c1.1,0,1.5,0.4,1.5,1.5v0.5h4.8v-1.6c0-2.9-1.4-4.3-4.3-4.3h-10.2c-2.9,0-4.3,1.4-4.3,4.3v2.7
							c0,2.8,1.2,4,4.3,4.3l8.4,0.8c1.2,0.1,1.5,0.4,1.5,1.5v0.9c0,1.1-0.4,1.5-1.5,1.5h-6.7c-1.1,0-1.5-0.4-1.5-1.5v-0.9h-4.8v1.9
							C1422.9,1508.9,1424.2,1510.3,1427.2,1510.3z"/>
						<path class="st1" d="M1459.2,1510.3c3.8,0,5.5-1.7,5.5-5.5v-8.7c0-3.8-1.7-5.5-5.5-5.5h-9c-3.8,0-5.5,1.7-5.5,5.5v8.7
							c0,3.8,1.7,5.5,5.5,5.5H1459.2z M1449.7,1503.8v-6.8c0-1.6,0.6-2.2,2.2-2.2h5.6c1.6,0,2.2,0.6,2.2,2.2v6.8
							c0,1.6-0.6,2.2-2.2,2.2h-5.6C1450.3,1506,1449.7,1505.4,1449.7,1503.8z"/>
						<polygon class="st1" points="1467.3,1490.6 1467.3,1510.3 1482.8,1510.3 1482.8,1505.8 1472.3,1505.8 1472.3,1490.6 						"/>
						<path class="st1" d="M1504.2,1503.5v-6.1c0-4.4-2.3-6.8-6.8-6.8h-12.9v19.7h12.9C1501.9,1510.3,1504.2,1507.9,1504.2,1503.5z
							 M1499.2,1503.2c0,1.9-0.9,2.8-2.8,2.8h-6.9v-11.2h6.9c1.9,0,2.8,0.9,2.8,2.8V1503.2z"/>
						<path class="st1" d="M1529.4,1510.3c3.8,0,5.5-1.7,5.5-5.5v-8.7c0-3.8-1.7-5.5-5.5-5.5h-9c-3.8,0-5.5,1.7-5.5,5.5v8.7
							c0,3.8,1.7,5.5,5.5,5.5H1529.4z M1520,1503.8v-6.8c0-1.6,0.6-2.2,2.2-2.2h5.6c1.6,0,2.2,0.6,2.2,2.2v6.8
							c0,1.6-0.6,2.2-2.2,2.2h-5.6C1520.5,1506,1520,1505.4,1520,1503.8z"/>
						<path class="st1" d="M1537.4,1490.6v14.2c0,3.8,1.7,5.5,5.5,5.5h8.1c3.8,0,5.5-1.7,5.5-5.5v-14.2h-5v13.2
							c0,1.6-0.6,2.2-2.2,2.2h-4.8c-1.6,0-2.2-0.6-2.2-2.2v-13.2H1537.4z"/>
						<path class="st2" d="M1570.4,1479.1l-29.2-50.5h-83l-29.3,50.8h-6v5h153.6v-5h-6L1570.4,1479.1z M1497.7,1442.2l2-6.3l2,6.3
							h6.6l-5.3,3.9l2,6.3l-5.3-3.9l-5.3,3.9l2-6.3l-5.3-3.9H1497.7z M1464.9,1479.3l11.3-19.6h47l11.3,19.6H1464.9z"/>
						<polygon class="st1" points="1558.1,1495 1564.8,1495 1564.8,1510.3 1569.8,1510.3 1569.8,1495 1576.6,1495 1576.6,1490.6 
							1558.1,1490.6 						"/>
						<path class="st2" d="M1422.9,1521.5h6l0.1,0.2l29.2,50.5h83l29.3-50.8h6v-5h-153.6V1521.5z M1505.1,1564.9l-5.3-3.9l-5.3,3.9
							l2-6.3l-5.3-3.9h6.6l2-6.3l2,6.3h6.6l-5.3,3.9L1505.1,1564.9z M1534.5,1521.5l-11.3,19.6h-47l-11.3-19.6H1534.5z"/>
						<path class="st1" d="M1579.1,1464.5l-26.4-45.7l-0.1-0.2l-2.8-4.8h-100.1l-2.8,4.8l-26.5,46h-12.3v71.8h12.3l26.4,45.7
							l0.1,0.2l2.8,4.8h100.1l2.8-4.8l26.5-46h12.3v-71.8H1579.1z M1581.8,1526.8h-8.2l-29.3,50.8h-89.1l-0.1-0.2l-29.2-50.5h-8.2
							v-52.7h8.2l29.3-50.8h89.1l0.1,0.2l29.2,50.5h8.2V1526.8z"/>
					</g>
				</g>
			</g>
		</g>
		<path class="st2" d="M1422.9,1521.5h6l0.1,0.2l29.2,50.5h83l29.3-50.8h6v-5h-153.6V1521.5z M1505.1,1564.9l-5.3-3.9l-5.3,3.9
			l2-6.3l-5.3-3.9h6.6l2-6.3l2,6.3h6.6l-5.3,3.9L1505.1,1564.9z M1534.5,1521.5l-11.3,19.6h-47l-11.3-19.6H1534.5z"/>
	</g>
	<polygon class="st0" points="1586.5,1543 1580.4,1541 1574.7,1543.9 1572.6,1550 1575.5,1555.7 1581.6,1557.7 1587.3,1554.8 
		1589.3,1548.8 	"/>
	<g>
		<g>
			<path class="st3" d="M1585.3,1536.4l-9.5-3.2c0.1-0.1,0.1-0.3,0.2-0.4c1.1-2.6,0.7-6.5-1.2-10.3c-0.4-0.8-0.9-1.6-1.4-2.3
				c-1.1-1.5-2.3-2.7-3.5-3.6c-2-1.4-4.1-1.8-5.8-1c-0.5,0.2-0.9,0.6-1.2,0.9h1.3c0.1-0.1,0.2-0.1,0.3-0.2c1.1-0.6,2.4-0.4,3.8,0.2
				c1.4,0.7,2.8,1.9,4.1,3.6c0.6,0.8,1.2,1.7,1.7,2.7c1.8,3.6,2.2,7.4,1.2,9.7c-0.1,0.1-0.1,0.3-0.2,0.4l-2.7-0.9l-1.2,3.5l-3.2,9.5
				l8.7,17.3l17.3-8.7L1585.3,1536.4z M1572.5,1535.4c-0.1-0.2-0.1-0.4-0.1-0.7c0-0.4,0.3-0.9,0.7-1.1c0.4-0.2,0.9-0.2,1.3,0.1
				c-0.1,0.1-0.2,0.2-0.3,0.3c-0.2,0.2-0.4,0.3-0.6,0.4c-0.2,0.1-0.4,0.2-0.6,0.2c0,0.2,0,0.3,0.1,0.5c0.1,0.1,0.1,0.2,0.2,0.3
				c0.2-0.1,0.5-0.2,0.7-0.3c0.2-0.1,0.5-0.3,0.7-0.4c0.1-0.1,0.3-0.2,0.4-0.3c0.2,0.6-0.1,1.2-0.7,1.5c-0.6,0.3-1.2,0.1-1.6-0.4
				C1572.6,1535.5,1572.6,1535.4,1572.5,1535.4z M1581.6,1557.2l-5.7-1.9l-2.7-5.3l1.9-5.7l5.4-2.7l5.7,1.9l2.7,5.4l-1.9,5.7
				L1581.6,1557.2z M1565.4,1530.3l-0.5,0.8c1.7,2.2,3.8,3.8,5.8,4.3l0.3-0.8C1569.2,1534.2,1567.1,1532.6,1565.4,1530.3z"/>
			<g>
				<path class="st3" d="M1586.7,1547.5l-2.5,1.2l-3.3-2.4c-0.4-0.3-1-0.3-1.5-0.1c-0.5,0.2-0.8,0.7-0.8,1.2l0,4.1l-1.3,0.6
					l-1.2-2.5l0,0l1.2-3.6l0,0l3.3-1.7l3.6,1.2l0.9,1.9l1.2-0.6l-1.2-2.4l-4.6-1.5l-4.4,2.2l-1.5,4.6l2.2,4.4l4.6,1.5l4.4-2.2
					l1.5-4.6L1586.7,1547.5z M1584.7,1552.6L1584.7,1552.6l-3.4,1.7l0,0l-3.1-1l1.7-0.8l0.1-5.1l4.1,3l1.7-0.9L1584.7,1552.6z"/>
				<path class="st3" d="M1581.9,1549.4c-0.1-0.1-0.3-0.2-0.5-0.2h0c-0.1,0-0.3,0-0.4,0.1c-0.5,0.2-0.7,0.8-0.4,1.3
					c0.1,0.2,0.3,0.4,0.6,0.5c0.2,0.1,0.5,0.1,0.7,0c0.2-0.1,0.4-0.3,0.5-0.6c0.1-0.2,0.1-0.5-0.1-0.7
					C1582.2,1549.6,1582.1,1549.5,1581.9,1549.4z"/>
			</g>
		</g>
	</g>
	<g>
		<path class="st4" d="M1519.1,1618.8l-10.7-5.5c-4.9-2.5-10.4-3.7-15.9-3.3l-12,0.8c-0.5,0-0.6,0.7-0.2,0.9l10.7,5.5
			c4.9,2.5,10.4,3.6,15.9,3.3l12-0.8C1519.4,1619.7,1519.5,1619.1,1519.1,1618.8z"/>
		<path class="st4" d="M1484.9,1619.5l-8.7-8.3c-4-3.8-8.9-6.4-14.3-7.6l-11.7-2.6c-0.5-0.1-0.8,0.5-0.5,0.8l8.7,8.3
			c4,3.8,8.9,6.4,14.3,7.6l11.7,2.6C1485,1620.4,1485.3,1619.8,1484.9,1619.5z"/>
		<path class="st4" d="M1440.8,1605.4l10.5,5.8c0.4,0.2,0.9-0.2,0.7-0.7l-6-10.4c-2.8-4.8-6.8-8.7-11.6-11.3l-10.5-5.8
			c-0.4-0.2-0.9,0.2-0.7,0.7l6,10.4C1432,1598.8,1436,1602.7,1440.8,1605.4z"/>
		<path class="st4" d="M1422.1,1593c0.4,0.4,1,0,0.8-0.5l-2.8-11.6c-1.3-5.3-4-10.2-7.9-14.1l-8.4-8.5c-0.4-0.4-1,0-0.8,0.5
			l2.8,11.6c1.3,5.3,4,10.2,7.9,14.1L1422.1,1593z"/>
		<path class="st4" d="M1400.1,1567.2l0.6-12c0.3-5.5-1-11-3.6-15.8l-5.7-10.5c-0.2-0.4-0.9-0.3-0.9,0.2l-0.6,12
			c-0.3,5.5,1,11,3.6,15.8l5.7,10.5C1399.4,1567.9,1400,1567.7,1400.1,1567.2z"/>
		<path class="st4" d="M1385.3,1536.4l3.9-11.3c1.8-5.2,2.1-10.8,1-16.2l-2.5-11.7c-0.1-0.5-0.8-0.5-1-0.1l-3.9,11.3
			c-1.8,5.2-2.1,10.8-1,16.2l2.5,11.7C1384.4,1536.8,1385.1,1536.9,1385.3,1536.4z"/>
		<path class="st4" d="M1378.9,1502.4c0,0.5,0.6,0.7,0.9,0.3l6.9-9.8c3.2-4.5,5.1-9.8,5.5-15.2l0.9-11.9c0-0.5-0.6-0.7-0.9-0.3
			l-6.9,9.8c-3.2,4.5-5.1,9.8-5.5,15.2L1378.9,1502.4z"/>
		<path class="st4" d="M1383.2,1468.3c-0.2,0.5,0.4,0.9,0.8,0.6l9.4-7.4c4.3-3.4,7.6-7.9,9.6-13.1l4.2-11.2c0.2-0.5-0.4-0.9-0.8-0.6
			l-9.4,7.4c-4.3,3.4-7.6,7.9-9.6,13.1L1383.2,1468.3z"/>
		<path class="st4" d="M1397,1436.7c-0.3,0.4,0.1,1,0.6,0.8l11.1-4.5c5.1-2.1,9.6-5.5,12.9-9.8l7.2-9.5c0.3-0.4-0.1-1-0.6-0.8
			l-11.1,4.5c-5.1,2.1-9.6,5.5-12.9,9.8L1397,1436.7z"/>
		<path class="st4" d="M1419.5,1411.3l11.9-1.2c5.5-0.5,10.7-2.5,15.1-5.8l9.6-7.1c0.4-0.3,0.2-0.9-0.3-0.9l-11.9,1.2
			c-5.5,0.5-10.7,2.5-15.1,5.8l-9.6,7.1C1418.7,1410.7,1418.9,1411.3,1419.5,1411.3z"/>
		<path class="st4" d="M1486.9,1388.1l-11.8-2.2c-5.4-1-11-0.6-16.2,1.3l-11.2,4.1c-0.5,0.2-0.4,0.9,0.1,1l11.8,2.2
			c5.4,1,11,0.6,16.2-1.3l11.2-4.1C1487.5,1388.9,1487.4,1388.2,1486.9,1388.1z"/>
		<path class="st4" d="M1480.4,1382l10.7,5.5c4.9,2.5,10.4,3.7,15.9,3.3l12-0.8c0.5,0,0.6-0.7,0.2-0.9l-10.7-5.5
			c-4.9-2.5-10.4-3.6-15.9-3.3l-12,0.8C1480.1,1381.1,1479.9,1381.8,1480.4,1382z"/>
		<path class="st4" d="M1514.5,1381.4l8.7,8.3c4,3.8,8.9,6.4,14.3,7.6l11.7,2.6c0.5,0.1,0.8-0.5,0.5-0.8l-8.7-8.3
			c-4-3.8-8.9-6.4-14.3-7.6l-11.7-2.6C1514.5,1380.4,1514.2,1381,1514.5,1381.4z"/>
		<path class="st4" d="M1558.6,1395.5l-10.5-5.8c-0.4-0.2-0.9,0.2-0.7,0.7l6,10.4c2.8,4.8,6.8,8.7,11.6,11.3l10.5,5.8
			c0.4,0.2,0.9-0.2,0.7-0.7l-6-10.4C1567.5,1402.1,1563.5,1398.1,1558.6,1395.5z"/>
		<path class="st4" d="M1577.4,1407.8c-0.4-0.4-1,0-0.8,0.5l2.8,11.6c1.3,5.3,4,10.2,7.9,14.1l8.4,8.5c0.4,0.4,1,0,0.8-0.5
			l-2.8-11.6c-1.3-5.3-4-10.2-7.9-14.1L1577.4,1407.8z"/>
		<path class="st4" d="M1599.4,1433.6l-0.6,12c-0.3,5.5,1,11,3.6,15.8l5.7,10.5c0.2,0.4,0.9,0.3,0.9-0.2l0.6-12
			c0.3-5.5-1-11-3.6-15.8l-5.7-10.5C1600.1,1433,1599.4,1433.1,1599.4,1433.6z"/>
		<path class="st4" d="M1609.3,1491.9l2.5,11.7c0.1,0.5,0.8,0.5,1,0.1l3.9-11.3c1.8-5.2,2.1-10.8,1-16.2l-2.5-11.7
			c-0.1-0.5-0.8-0.5-1-0.1l-3.9,11.3C1608.5,1481,1608.2,1486.5,1609.3,1491.9z"/>
		<path class="st4" d="M1620.6,1498.5c0-0.5-0.6-0.7-0.9-0.3l-6.9,9.8c-3.2,4.5-5.1,9.8-5.5,15.2l-0.9,11.9c0,0.5,0.6,0.7,0.9,0.3
			l6.9-9.8c3.2-4.5,5.1-9.8,5.5-15.2L1620.6,1498.5z"/>
		<path class="st4" d="M1616.3,1532.6c0.2-0.5-0.4-0.9-0.8-0.6l-9.4,7.4c-4.3,3.4-7.6,7.9-9.6,13.1l-4.2,11.2
			c-0.2,0.5,0.4,0.9,0.8,0.6l9.4-7.4c4.3-3.4,7.6-7.9,9.6-13.1L1616.3,1532.6z"/>
		<path class="st4" d="M1602.5,1564.1c0.3-0.4-0.1-1-0.6-0.8l-11.1,4.5c-5.1,2.1-9.6,5.5-12.9,9.8l-7.2,9.5c-0.3,0.4,0.1,1,0.6,0.8
			l11.1-4.5c5.1-2.1,9.6-5.5,12.9-9.8L1602.5,1564.1z"/>
		<path class="st4" d="M1580,1589.6l-11.9,1.2c-5.5,0.5-10.7,2.5-15.1,5.8l-9.6,7.1c-0.4,0.3-0.2,0.9,0.3,0.9l11.9-1.2
			c5.5-0.5,10.7-2.5,15.1-5.8l9.6-7.1C1580.8,1590.2,1580.5,1589.5,1580,1589.6z"/>
		<path class="st4" d="M1551.6,1608.6l-11.8-2.2c-5.4-1-11-0.6-16.2,1.3l-11.2,4.1c-0.5,0.2-0.4,0.9,0.1,1l11.8,2.2
			c5.4,1,11,0.6,16.2-1.3l11.2-4.1C1552.2,1609.4,1552.1,1608.7,1551.6,1608.6z"/>
		<path class="st4" d="M1502,1629.2c0-1.2-1-2.2-2.2-2.2c-1.2,0-2.2,1-2.2,2.2c0,1.2,1,2.2,2.2,2.2
			C1501,1631.4,1502,1630.4,1502,1629.2z"/>
		<path class="st4" d="M1470,1625.8c-0.5,2.5,1.1,5,3.7,5.5c2.5,0.5,5-1.1,5.5-3.7c0.5-2.5-1.1-5-3.7-5.5
			C1473,1621.6,1470.5,1623.3,1470,1625.8z"/>
		<path class="st4" d="M1449.6,1621.4c0.3,0.1,0.6,0.2,0.8,0.2c0.9,0,1.7-0.5,2.1-1.4c0.2-0.5,0.2-1.2,0-1.7c-0.2-0.5-0.7-1-1.2-1.2
			c-0.3-0.1-0.6-0.2-0.8-0.2c-0.9,0-1.7,0.5-2.1,1.4c-0.2,0.5-0.2,1.2,0,1.7C1448.6,1620.8,1449.1,1621.2,1449.6,1621.4z"/>
		<path class="st4" d="M1424.3,1604.9c-1.4,2.1-0.9,5,1.3,6.5c2.1,1.4,5,0.9,6.5-1.3c1.4-2.1,0.9-5-1.3-6.5
			C1428.7,1602.2,1425.8,1602.7,1424.3,1604.9z"/>
		<path class="st4" d="M1407.1,1589.9c-0.9,0.9-0.9,2.3,0,3.1c0.4,0.4,1,0.7,1.6,0.7c0.6,0,1.2-0.2,1.6-0.7c0.4-0.4,0.7-1,0.7-1.6
			s-0.2-1.2-0.7-1.6s-1-0.7-1.6-0.7C1408.1,1589.2,1407.5,1589.5,1407.1,1589.9z"/>
		<path class="st4" d="M1395.3,1575.8c2.1-1.4,2.7-4.3,1.3-6.5c-1.4-2.1-4.3-2.7-6.5-1.3c-2.1,1.4-2.7,4.3-1.3,6.5
			C1390.2,1576.7,1393.1,1577.3,1395.3,1575.8z"/>
		<path class="st4" d="M1378.7,1550.5c0.3,0.8,1.2,1.4,2.1,1.4c0.3,0,0.6-0.1,0.8-0.2c1.1-0.5,1.7-1.8,1.2-2.9
			c-0.3-0.8-1.2-1.4-2.1-1.4c-0.3,0-0.6,0.1-0.8,0.2c-0.5,0.2-1,0.7-1.2,1.2C1378.5,1549.4,1378.5,1550,1378.7,1550.5z"/>
		<path class="st4" d="M1374.4,1530.1c2.5-0.5,4.2-3,3.7-5.5c-0.5-2.5-3-4.2-5.5-3.7c-2.5,0.5-4.2,3-3.7,5.5
			C1369.4,1529,1371.8,1530.6,1374.4,1530.1z"/>
		<path class="st4" d="M1373.2,1500.4c0-1.2-1-2.2-2.2-2.2c-1.2,0-2.2,1-2.2,2.2c0,1.2,1,2.2,2.2,2.2
			C1372.2,1502.6,1373.2,1501.6,1373.2,1500.4z"/>
		<path class="st4" d="M1374.4,1470.7c-2.5-0.5-5,1.1-5.5,3.7c-0.5,2.5,1.1,5,3.7,5.5c2.5,0.5,5-1.1,5.5-3.7
			C1378.5,1473.7,1376.9,1471.2,1374.4,1470.7z"/>
		<path class="st4" d="M1381.6,1449.1c-0.3-0.1-0.6-0.2-0.8-0.2c-0.9,0-1.7,0.5-2.1,1.4c-0.2,0.5-0.2,1.2,0,1.7
			c0.2,0.5,0.7,1,1.2,1.2c0.3,0.1,0.6,0.2,0.8,0.2c0.9,0,1.7-0.5,2.1-1.4c0.2-0.5,0.2-1.2,0-1.7
			C1382.6,1449.8,1382.2,1449.3,1381.6,1449.1z"/>
		<path class="st4" d="M1395.3,1425c-2.1-1.4-5-0.9-6.5,1.3c-1.4,2.1-0.9,5,1.3,6.5c2.1,1.4,5,0.9,6.5-1.3
			C1398,1429.3,1397.4,1426.4,1395.3,1425z"/>
		<path class="st4" d="M1408.7,1411.6c0.6,0,1.2-0.2,1.6-0.7c0.9-0.9,0.9-2.3,0-3.1c-0.4-0.4-1-0.7-1.6-0.7c-0.6,0-1.2,0.2-1.6,0.7
			c-0.9,0.9-0.9,2.3,0,3.1C1407.5,1411.4,1408.1,1411.6,1408.7,1411.6z"/>
		<path class="st4" d="M1430.8,1397.3c2.1-1.4,2.7-4.3,1.3-6.5c-1.4-2.1-4.3-2.7-6.5-1.3c-2.1,1.4-2.7,4.3-1.3,6.5
			C1425.8,1398.1,1428.7,1398.7,1430.8,1397.3z"/>
		<path class="st4" d="M1450.5,1383.7c0.3,0,0.6-0.1,0.8-0.2c1.1-0.5,1.7-1.8,1.2-2.9c-0.3-0.8-1.2-1.4-2.1-1.4
			c-0.3,0-0.6,0.1-0.8,0.2c-1.1,0.5-1.7,1.8-1.2,2.9C1448.8,1383.2,1449.6,1383.7,1450.5,1383.7z"/>
		<path class="st4" d="M1475.5,1378.7c2.5-0.5,4.2-3,3.7-5.5c-0.5-2.5-3-4.2-5.5-3.7c-2.5,0.5-4.2,3-3.7,5.5
			S1473,1379.2,1475.5,1378.7z"/>
		<path class="st4" d="M1497.5,1371.7c0,1.2,1,2.2,2.2,2.2c1.2,0,2.2-1,2.2-2.2c0-1.2-1-2.2-2.2-2.2
			C1498.5,1369.5,1497.5,1370.5,1497.5,1371.7z"/>
		<path class="st4" d="M1529.4,1375.1c0.5-2.5-1.1-5-3.7-5.5c-2.5-0.5-5,1.1-5.5,3.7c-0.5,2.5,1.1,5,3.7,5.5
			C1526.5,1379.2,1528.9,1377.6,1529.4,1375.1z"/>
		<path class="st4" d="M1549.9,1379.4c-0.3-0.1-0.6-0.2-0.8-0.2c-0.9,0-1.7,0.5-2.1,1.4c-0.2,0.5-0.2,1.2,0,1.7
			c0.2,0.5,0.7,1,1.2,1.2c0.3,0.1,0.6,0.2,0.8,0.2c0.9,0,1.7-0.5,2.1-1.4c0.2-0.5,0.2-1.2,0-1.7
			C1550.8,1380.1,1550.4,1379.7,1549.9,1379.4z"/>
		<path class="st4" d="M1575.1,1396c1.4-2.1,0.9-5-1.3-6.5c-2.1-1.4-5-0.9-6.5,1.3c-1.4,2.1-0.9,5,1.3,6.5
			C1570.8,1398.7,1573.7,1398.1,1575.1,1396z"/>
		<path class="st4" d="M1592.3,1411c0.4-0.4,0.7-1,0.7-1.6c0-0.6-0.2-1.2-0.7-1.6c-0.4-0.4-1-0.7-1.6-0.7s-1.2,0.2-1.6,0.7
			c-0.4,0.4-0.7,1-0.7,1.6c0,0.6,0.2,1.2,0.7,1.6c0.4,0.4,1,0.7,1.6,0.7C1591.4,1411.6,1591.9,1411.4,1592.3,1411z"/>
		<path class="st4" d="M1604.2,1425c-2.1,1.4-2.7,4.3-1.3,6.5c1.4,2.1,4.3,2.7,6.5,1.3c2.1-1.4,2.7-4.3,1.3-6.5
			C1609.2,1424.2,1606.3,1423.6,1604.2,1425z"/>
		<path class="st4" d="M1620.7,1450.3c-0.3-0.8-1.2-1.4-2.1-1.4c-0.3,0-0.6,0.1-0.8,0.2c-1.1,0.5-1.7,1.8-1.2,2.9
			c0.3,0.8,1.2,1.4,2.1,1.4c0.3,0,0.6-0.1,0.8-0.2c0.5-0.2,1-0.7,1.2-1.2C1621,1451.5,1621,1450.9,1620.7,1450.3z"/>
		<path class="st4" d="M1626.9,1479.9c2.5-0.5,4.2-3,3.7-5.5c-0.5-2.5-3-4.2-5.5-3.7c-2.5,0.5-4.2,3-3.7,5.5
			C1621.9,1478.7,1624.4,1480.4,1626.9,1479.9z"/>
		<path class="st4" d="M1628.5,1498.2c-1.2,0-2.2,1-2.2,2.2c0,1.2,1,2.2,2.2,2.2c1.2,0,2.2-1,2.2-2.2
			C1630.7,1499.2,1629.7,1498.2,1628.5,1498.2z"/>
		<path class="st4" d="M1625.1,1530.1c2.5,0.5,5-1.1,5.5-3.7c0.5-2.5-1.1-5-3.7-5.5c-2.5-0.5-5,1.1-5.5,3.7
			C1620.9,1527.2,1622.6,1529.6,1625.1,1530.1z"/>
		<path class="st4" d="M1617.8,1551.7c0.3,0.1,0.6,0.2,0.8,0.2c0.9,0,1.7-0.5,2.1-1.4c0.5-1.1-0.1-2.4-1.2-2.9
			c-0.3-0.1-0.6-0.2-0.8-0.2c-0.9,0-1.7,0.5-2.1,1.4C1616.2,1550,1616.7,1551.3,1617.8,1551.7z"/>
		<path class="st4" d="M1604.2,1575.8c2.1,1.4,5,0.9,6.5-1.3c1.4-2.1,0.9-5-1.3-6.5c-2.1-1.4-5-0.9-6.5,1.3
			C1601.5,1571.5,1602,1574.4,1604.2,1575.8z"/>
		<path class="st4" d="M1590.8,1589.2c-0.6,0-1.2,0.2-1.6,0.7c-0.9,0.9-0.9,2.3,0,3.1c0.4,0.4,1,0.7,1.6,0.7s1.2-0.2,1.6-0.7
			c0.9-0.9,0.9-2.3,0-3.1C1591.9,1589.5,1591.4,1589.2,1590.8,1589.2z"/>
		<path class="st4" d="M1568.7,1603.6c-2.1,1.4-2.7,4.3-1.3,6.5c1.4,2.1,4.3,2.7,6.5,1.3c2.1-1.4,2.7-4.3,1.3-6.5
			C1573.7,1602.7,1570.8,1602.2,1568.7,1603.6z"/>
		<path class="st4" d="M1549,1617.1c-0.3,0-0.6,0.1-0.8,0.2c-1.1,0.5-1.7,1.8-1.2,2.9c0.3,0.8,1.2,1.4,2.1,1.4
			c0.3,0,0.6-0.1,0.8-0.2c1.1-0.5,1.7-1.8,1.2-2.9C1550.7,1617.7,1549.9,1617.1,1549,1617.1z"/>
		<path class="st4" d="M1523.9,1622.1c-2.5,0.5-4.2,3-3.7,5.5c0.5,2.5,3,4.2,5.5,3.7c2.5-0.5,4.2-3,3.7-5.5
			C1528.9,1623.3,1526.5,1621.6,1523.9,1622.1z"/>
		<polygon class="st4" points="1495.8,1361.2 1499.7,1358.3 1503.7,1361.2 1502.2,1356.5 1506.1,1353.6 1501.2,1353.6 1499.7,1349 
			1498.2,1353.6 1493.3,1353.6 1497.3,1356.5 		"/>
		<polygon class="st4" points="1501.2,1644.3 1499.7,1639.7 1498.2,1644.3 1493.3,1644.3 1497.3,1647.2 1495.8,1651.9 1499.7,1649 
			1503.7,1651.9 1502.2,1647.2 1506.1,1644.3 		"/>
	</g>
</g>
</svg>
