<svg width="2970" height="2973" xmlns="http://www.w3.org/2000/svg" xml:space="preserve" version="1.1">

 <g>
  <title>Layer 1</title>
  <g stroke="null" id="svg_1">
   <path stroke="null" id="svg_2" fill="#FFFFFF" d="m1482.56592,922.99778c-355.24471,0 -651.28198,296.03726 -651.28198,651.28198c0,355.24471 296.03726,651.28198 651.28198,651.28198c355.24471,0 651.28198,-296.03726 651.28198,-651.28198c0,-355.24471 -266.43354,-651.28198 -651.28198,-651.28198zm532.86707,769.69688l-651.28198,0l0,-651.28198l236.82981,0l0,414.45217l414.45217,0l0,236.82981z" class="st0"/>
   <path stroke="null" id="svg_3" fill="#FFFFFF" d="m2163.45162,5.28227l-1361.77141,0l-799.30061,799.30061l0,1361.77141l799.30061,799.30061l1361.77141,0l799.30061,-799.30061l0,-1361.77141l-799.30061,-799.30061zm-680.8857,2457.10928c-503.26335,0 -888.11179,-414.45217 -888.11179,-888.11179c0,-325.64099 177.62236,-621.67825 444.05589,-769.69688l-29.60373,-88.81118l148.01863,-88.81118l29.60373,88.81118c88.81118,-29.60373 148.01863,-59.20745 236.82981,-59.20745l0,-59.20745l-118.4149,0l0,-88.81118c0,-29.60373 29.60373,-59.20745 59.20745,-59.20745l266.43354,0c29.60373,0 59.20745,29.60373 59.20745,59.20745l0,88.81118l-118.4149,0l0,59.20745c88.81118,0 177.62236,29.60373 236.82981,59.20745l29.60373,-88.81118l148.01863,88.81118l-29.60373,88.81118c266.43354,148.01863 444.05589,444.05589 444.05589,769.69688c0,503.26335 -414.45217,888.11179 -917.71551,888.11179z" class="st0"/>
  </g>
 </g>
</svg>