<?xml version="1.0" encoding="utf-8"?>
<!-- Generator: Adobe Illustrator 26.2.1, SVG Export Plug-In . SVG Version: 6.00 Build 0)  -->
<svg version="1.1" id="Layer_1" xmlns="http://www.w3.org/2000/svg" xmlns:xlink="http://www.w3.org/1999/xlink" x="0px" y="0px"
	 viewBox="0 0 556.88 326.26" style="enable-background:new 0 0 556.88 326.26;" xml:space="preserve">
<style type="text/css">
	.st0{fill:none;}
	.st1{fill:#DCEAFF;}
	.st2{fill:#C3DCFF;}
	.st3{fill:#AACDFF;}
	.st4{fill:#93BCFF;}
	.st5{fill:#ABCDFF;}
	.st6{fill:#94BCFF;}
	.st7{fill:#95B8EA;}
	.st8{fill:#FFFFFF;}
	.st9{fill:#FFCF61;}
	.st10{fill:#FFC049;}
	.st11{fill:#C4DDFF;}
	.st12{fill:#DCEBFF;}
	.st13{fill:url(#SVGID_1_);}
	.st14{fill:url(#SVGID_00000166637212342252776010000000532892879099264392_);}
	.st15{fill:url(#SVGID_00000090293140401447009840000017715085894051402899_);}
	.st16{fill:url(#SVGID_00000068665141869891747710000005523178470394600616_);}
	.st17{fill:url(#SVGID_00000145762517555201685290000017961875331683086211_);}
	.st18{fill:url(#SVGID_00000097476019104524125550000010198634160910064784_);}
	.st19{fill:url(#SVGID_00000174599072648576305650000012383769747291032244_);}
	.st20{fill:url(#SVGID_00000094593278640237369090000010009938004236561803_);}
	.st21{fill:url(#SVGID_00000052096240013977746240000001836905252232071056_);}
	.st22{fill:url(#SVGID_00000123430537736568933850000003242485779245028771_);}
	.st23{fill:url(#SVGID_00000015344126595966804750000017809890571416696988_);}
	.st24{fill:url(#SVGID_00000110449647042648846040000009925335116694833558_);}
	.st25{fill:url(#SVGID_00000085970399275148582510000007027241703059589270_);}
	.st26{fill:url(#SVGID_00000049213432179307757730000016861778496955711673_);}
	.st27{fill:url(#SVGID_00000132796374592212491040000011954712899162995376_);}
	.st28{fill:url(#SVGID_00000044178279224114213400000001477917625851728034_);}
	.st29{fill:url(#SVGID_00000023996981564827913740000010439706343415419037_);}
	.st30{fill:url(#SVGID_00000171684769627503079570000013198488402866679447_);}
	.st31{fill:url(#SVGID_00000175281568331344146370000004629668787638179249_);}
	.st32{fill:url(#SVGID_00000112614480994171617120000007057764708520556732_);}
	.st33{fill:url(#SVGID_00000175308998212332966220000002424777115690377605_);}
	.st34{fill:url(#SVGID_00000091706922615447044010000007675652669502925440_);}
	.st35{fill:url(#SVGID_00000060737451973384587090000001117972113028958086_);}
	.st36{fill:url(#SVGID_00000079452155519177511580000013020426984730129025_);}
	.st37{fill:url(#SVGID_00000150100389469647877630000007888126068074076855_);}
	.st38{fill:url(#SVGID_00000158027869526455290960000015532208226697498281_);}
	.st39{fill:url(#SVGID_00000019645135095350214360000002958534778141055142_);}
	.st40{fill:url(#SVGID_00000147916983920498625240000015352695995187508367_);}
</style>
<g>
	<path class="st0" d="M380.05,226.37c-0.01,0-0.02-0.01-0.02-0.02C380.04,226.35,380.04,226.36,380.05,226.37z"/>
	<path class="st0" d="M385.79,229.02c-0.17,0-0.33,0.04-0.48,0.1C385.46,229.05,385.62,229.02,385.79,229.02
		C385.79,229.02,385.79,229.02,385.79,229.02z"/>
	<path class="st0" d="M381.39,224.1c-0.24-0.2-0.52-0.32-0.83-0.32c-0.26,0-0.5,0.1-0.71,0.24c0.21-0.14,0.45-0.23,0.71-0.23
		C380.87,223.78,381.15,223.9,381.39,224.1z"/>
	<path class="st0" d="M384.85,229.41L384.85,229.41c0.01-0.01,0.02-0.01,0.03-0.02C384.87,229.4,384.86,229.4,384.85,229.41z"/>
	<path class="st0" d="M381.51,224.18C381.51,224.18,381.51,224.18,381.51,224.18c0.39,0.39,0.49,0.97,0.29,1.45
		C382,225.15,381.9,224.57,381.51,224.18z"/>
	<path class="st0" d="M380.11,226.38c0.24,0.08,0.49,0.08,0.73,0.03C380.6,226.46,380.35,226.46,380.11,226.38z"/>
	<path class="st0" d="M381.51,226.07c0.12-0.12,0.21-0.26,0.27-0.41C381.71,225.81,381.63,225.95,381.51,226.07
		C381.51,226.07,381.51,226.07,381.51,226.07z"/>
	<path class="st0" d="M381.03,192.98c1.63,0,3.09,0.71,4.1,1.83C384.11,193.69,382.65,192.98,381.03,192.98
		c-2.86,0-5.22,2.18-5.5,4.96C375.81,195.16,378.17,192.98,381.03,192.98z"/>
	<path class="st0" d="M345.96,183.78c-0.74,0-1.42-0.22-1.99-0.61C344.54,183.56,345.22,183.79,345.96,183.78
		c1.15,0,2.16-0.55,2.81-1.4C348.12,183.23,347.11,183.78,345.96,183.78z"/>
	<path class="st0" d="M378.88,203.6c0.66,0.28,1.39,0.44,2.15,0.44c0.76,0,1.49-0.16,2.15-0.44c-0.66,0.28-1.39,0.43-2.15,0.43
		S379.54,203.88,378.88,203.6z"/>
	<path class="st0" d="M368.33,198.51c0,3.33-2.7,6.04-6.04,6.04c-3.33,0-6.04-2.7-6.04-6.04c0-1.11,0.3-2.14,0.82-3.04
		c-0.52,0.89-0.83,1.93-0.83,3.03c0,3.34,2.71,6.04,6.04,6.04S368.33,201.85,368.33,198.51c0-1.25-0.38-2.41-1.03-3.37
		C367.95,196.1,368.33,197.26,368.33,198.51z"/>
	<path class="st0" d="M385.23,231.56c0.39,0.18,0.84,0.15,1.21-0.05C386.07,231.71,385.62,231.73,385.23,231.56z"/>
	<path class="st0" d="M386.74,229.41c-0.07-0.07-0.15-0.1-0.23-0.15C386.59,229.31,386.67,229.34,386.74,229.41
		C386.74,229.41,386.74,229.41,386.74,229.41z"/>
	<path class="st0" d="M391.98,236.54c-0.11,0.11-0.23,0.18-0.37,0.24C391.74,236.72,391.87,236.65,391.98,236.54
		c0.09-0.09,0.15-0.2,0.21-0.31C392.13,236.34,392.07,236.45,391.98,236.54z"/>
	<path class="st0" d="M395.32,229.41C395.32,229.41,395.32,229.41,395.32,229.41c0.52-0.52,1.37-0.52,1.9,0
		c0.25,0.25,0.39,0.59,0.39,0.95c0,0.36-0.14,0.7-0.39,0.95c-0.07,0.07-0.16,0.11-0.24,0.16c0.08-0.05,0.17-0.09,0.24-0.16
		c0.25-0.25,0.39-0.59,0.39-0.95c0-0.36-0.14-0.69-0.39-0.95C396.69,228.89,395.84,228.89,395.32,229.41z"/>
	<path class="st0" d="M395.32,229.41c-0.47,0.47-0.5,1.18-0.13,1.7C394.82,230.59,394.85,229.88,395.32,229.41z"/>
	<path class="st0" d="M406.36,194.54c0.74-0.51,1.23-1.36,1.23-2.32c0-0.78-0.32-1.49-0.83-2c0.51,0.51,0.83,1.22,0.83,2
		C407.59,193.18,407.1,194.03,406.36,194.54z"/>
	<path class="st0" d="M406.05,189.71c-0.39-0.2-0.82-0.33-1.29-0.33c-0.48,0-0.92,0.13-1.31,0.34c0.39-0.21,0.83-0.34,1.31-0.34
		C405.23,189.39,405.66,189.51,406.05,189.71z"/>
	<path class="st0" d="M389.8,236.12c0.06,0.15,0.15,0.3,0.28,0.43c0.13,0.12,0.27,0.21,0.43,0.28c-0.16-0.06-0.31-0.16-0.43-0.28
		C389.96,236.42,389.87,236.27,389.8,236.12z"/>
	<path class="st0" d="M384.68,229.65c-0.14,0.21-0.23,0.45-0.23,0.71c0,0.24,0.08,0.45,0.2,0.65c-0.11-0.2-0.19-0.42-0.19-0.65
		C384.45,230.1,384.55,229.87,384.68,229.65z"/>
	<path class="st0" d="M390.16,234.59c-0.03,0.02-0.06,0.03-0.08,0.05c-0.2,0.2-0.29,0.44-0.34,0.7c0.05-0.25,0.15-0.5,0.34-0.7
		C390.1,234.62,390.14,234.62,390.16,234.59z"/>
	<path class="st0" d="M347.35,176.94c0.04,0.02,0.08,0.05,0.12,0.07C347.43,176.98,347.39,176.96,347.35,176.94z"/>
	<path class="st0" d="M391.98,234.65C391.98,234.65,391.98,234.65,391.98,234.65c0.06,0.06,0.09,0.14,0.14,0.21
		C392.07,234.79,392.04,234.71,391.98,234.65z"/>
	<path class="st0" d="M407.59,198.77c0,0.83-0.36,1.57-0.93,2.08C407.22,200.33,407.59,199.6,407.59,198.77
		c0-1.56-1.27-2.83-2.83-2.83c-0.61,0-1.18,0.2-1.64,0.54c0.46-0.33,1.03-0.53,1.64-0.53C406.32,195.94,407.59,197.21,407.59,198.77
		z"/>
	<path class="st0" d="M386.93,231.02c0.23-0.39,0.25-0.86,0.04-1.27C387.18,230.16,387.16,230.63,386.93,231.02z"/>
	<path class="st0" d="M319.39,156.94c0.1-0.09,0.2-0.18,0.31-0.25C319.58,156.77,319.49,156.86,319.39,156.94z"/>
	<path class="st0" d="M322.39,156.28c-0.29-0.08-0.58-0.14-0.89-0.14c-0.56,0-1.08,0.16-1.54,0.41c0.46-0.25,0.98-0.41,1.54-0.41
		C321.81,156.14,322.11,156.2,322.39,156.28z"/>
	<path class="st0" d="M345.96,165.82c1.78,0,3.23-1.45,3.23-3.23c0-0.89-0.37-1.7-0.95-2.28c0.59,0.58,0.95,1.39,0.95,2.28
		C349.19,164.37,347.74,165.82,345.96,165.82c-1.78,0-3.23-1.45-3.23-3.23c0-0.96,0.43-1.81,1.09-2.4c-0.67,0.59-1.1,1.44-1.1,2.4
		C342.73,164.37,344.18,165.82,345.96,165.82z"/>
	<path class="st0" d="M385,220.94c0.33,0.25,0.76,0.32,1.15,0.21C385.76,221.25,385.33,221.18,385,220.94z"/>
	<path class="st0" d="M324.73,159.36c0,0.97-0.44,1.83-1.12,2.43C324.29,161.2,324.73,160.34,324.73,159.36
		c0-0.66-0.2-1.29-0.55-1.8C324.52,158.08,324.73,158.7,324.73,159.36z"/>
	<path class="st0" d="M318.27,159.36c0-0.89,0.36-1.7,0.94-2.28C318.63,157.67,318.27,158.48,318.27,159.36
		c-0.01,1.12,0.56,2.1,1.42,2.67C318.84,161.46,318.27,160.48,318.27,159.36z"/>
	<path class="st0" d="M332.21,151.88c0,0.98-0.45,1.85-1.13,2.44C331.76,153.73,332.21,152.87,332.21,151.88
		c0-0.66-0.2-1.29-0.55-1.8C332,150.6,332.21,151.22,332.21,151.88z"/>
	<path class="st0" d="M388.82,222.92C388.82,222.92,388.82,222.92,388.82,222.92c-1.07,1.07-1.2,2.71-0.4,3.92
		C387.62,225.63,387.75,223.98,388.82,222.92z"/>
	<path class="st0" d="M362.29,149.11c2.46,0,4.46-2,4.46-4.46s-2-4.46-4.46-4.46s-4.46,2-4.46,4.46S359.83,149.11,362.29,149.11z
		 M362.29,140.19c2.46,0,4.46,2,4.46,4.46c0,2.46-2,4.46-4.46,4.46s-4.46-2-4.46-4.46C357.83,142.19,359.83,140.19,362.29,140.19z"
		/>
	<path class="st0" d="M357.94,180.22c0-2.4,1.95-4.35,4.35-4.35c2.4,0,4.35,1.95,4.35,4.35c0,0.9-0.27,1.74-0.74,2.43
		c0.47-0.69,0.74-1.53,0.74-2.43c0-2.39-1.95-4.35-4.35-4.35S357.94,177.83,357.94,180.22
		C357.94,180.22,357.94,180.22,357.94,180.22z"/>
	<path class="st0" d="M359.57,161.79c0-1.5,1.22-2.72,2.72-2.72c1.5,0,2.72,1.22,2.72,2.72c0,0.94-0.48,1.76-1.2,2.25
		c0.72-0.49,1.2-1.31,1.2-2.25c0-1.5-1.22-2.72-2.72-2.72S359.57,160.29,359.57,161.79c0,0.88,0.42,1.66,1.08,2.15
		C360,163.44,359.57,162.67,359.57,161.79z"/>
	<path class="st0" d="M384.78,181.31c0,1.74-1.04,3.24-2.53,3.92C383.74,184.55,384.78,183.06,384.78,181.31
		c0-1.49-0.75-2.8-1.9-3.58C384.02,178.51,384.78,179.82,384.78,181.31z"/>
	<path class="st0" d="M387.04,220.39c0.17-0.4,0.1-0.85-0.14-1.22C387.13,219.54,387.2,219.99,387.04,220.39z"/>
	<path class="st0" d="M322.66,148.88c-0.36-0.14-0.75-0.23-1.16-0.23c-0.63,0-1.21,0.19-1.71,0.5c0.5-0.31,1.08-0.5,1.71-0.5
		C321.91,148.66,322.3,148.74,322.66,148.88z"/>
	<path class="st0" d="M330.12,148.87c-0.35-0.13-0.74-0.22-1.14-0.22c-0.64,0-1.24,0.19-1.74,0.52c0.5-0.32,1.1-0.52,1.74-0.52
		C329.38,148.66,329.76,148.74,330.12,148.87z"/>
	<path class="st0" d="M386.74,220.84L386.74,220.84c-0.02,0.02-0.04,0.02-0.06,0.04C386.7,220.86,386.72,220.85,386.74,220.84z"/>
	<polygon class="st0" points="188.96,161.44 220.23,130.19 270.72,130.19 270.73,130.18 220.2,130.18 188.93,161.43 188.93,215.67 
		220.2,246.93 220.22,246.93 188.96,215.68 	"/>
	<path class="st0" d="M325.75,159.36c0-0.89,0.36-1.7,0.94-2.28C326.11,157.67,325.75,158.48,325.75,159.36
		c0,1.12,0.56,2.1,1.42,2.67C326.32,161.46,325.75,160.48,325.75,159.36z"/>
	<path class="st0" d="M325.75,151.88c0-1.11,0.56-2.09,1.42-2.67C326.32,149.79,325.75,150.77,325.75,151.88
		c0,1.12,0.56,2.1,1.42,2.67C326.32,153.98,325.75,153,325.75,151.88z"/>
	<path class="st0" d="M332.21,159.36c0,0.97-0.43,1.82-1.1,2.41C331.77,161.19,332.21,160.33,332.21,159.36
		c0-0.66-0.2-1.29-0.55-1.8C332,158.08,332.21,158.7,332.21,159.36z"/>
	<path class="st0" d="M318.27,151.88c0-1.11,0.56-2.09,1.42-2.67C318.84,149.79,318.27,150.77,318.27,151.88
		c-0.01,1.12,0.56,2.1,1.42,2.67C318.84,153.98,318.27,153,318.27,151.88z"/>
	<path class="st0" d="M384.67,219.2c-0.13,0.21-0.22,0.44-0.22,0.69c0,0.23,0.08,0.44,0.19,0.64c-0.11-0.2-0.19-0.41-0.19-0.64
		C384.45,219.64,384.54,219.41,384.67,219.2z"/>
	<path class="st0" d="M324.73,151.88c0,0.99-0.45,1.86-1.15,2.45C324.28,153.74,324.73,152.87,324.73,151.88
		c0-0.66-0.2-1.29-0.55-1.8C324.52,150.6,324.73,151.22,324.73,151.88z"/>
	<path class="st0" d="M326.84,156.97c0.11-0.1,0.22-0.2,0.34-0.28C327.05,156.77,326.95,156.87,326.84,156.97z"/>
	<path class="st0" d="M329.84,156.27c-0.28-0.08-0.56-0.13-0.86-0.13c-0.57,0-1.1,0.16-1.57,0.42c0.47-0.26,0.99-0.42,1.57-0.42
		C329.28,156.14,329.56,156.19,329.84,156.27z"/>
	<path class="st0" d="M393.92,226.3c0.38-0.94,0.29-2.02-0.28-2.88C394.21,224.28,394.3,225.36,393.92,226.3z"/>
	<path class="st0" d="M395.32,220.84c0.26,0.26,0.6,0.39,0.95,0.39C395.92,221.23,395.58,221.1,395.32,220.84
		C395.32,220.84,395.32,220.84,395.32,220.84z"/>
	<path class="st0" d="M396.53,201.03c-0.69-0.51-1.15-1.33-1.15-2.26c0-1.56,1.26-2.83,2.83-2.83c0.58,0,1.12,0.18,1.56,0.47
		c-0.45-0.3-0.98-0.48-1.56-0.48c-1.56,0-2.83,1.27-2.83,2.83C395.38,199.7,395.84,200.51,396.53,201.03z"/>
	<path class="st0" d="M396.83,194.66c-0.86-0.49-1.44-1.39-1.44-2.45c0-1.56,1.26-2.83,2.83-2.83c0.4,0,0.78,0.08,1.12,0.23
		c-0.34-0.15-0.72-0.23-1.12-0.23c-1.56,0-2.83,1.27-2.83,2.83C395.38,193.27,395.97,194.18,396.83,194.66z"/>
	<path class="st0" d="M397.21,218.94c0.25,0.25,0.39,0.59,0.39,0.95c0,0.36-0.14,0.7-0.39,0.95c-0.2,0.2-0.45,0.3-0.71,0.35
		c0.26-0.05,0.52-0.15,0.72-0.34c0.25-0.26,0.39-0.59,0.39-0.95C397.61,219.53,397.47,219.19,397.21,218.94
		c-0.1-0.1-0.22-0.16-0.34-0.22C397,218.78,397.12,218.84,397.21,218.94z"/>
	<path class="st0" d="M390.08,215.6C390.08,215.6,390.08,215.6,390.08,215.6c-0.21-0.21-0.31-0.47-0.35-0.74
		C389.77,215.13,389.87,215.39,390.08,215.6z"/>
	<path class="st0" d="M390.23,215.69c0.38,0.28,0.88,0.36,1.31,0.19C391.11,216.05,390.6,215.98,390.23,215.69z"/>
	<polygon class="st0" points="242.9,166.28 242.9,164.1 242.9,161.44 244.09,160.26 246.69,157.66 247.95,156.4 252.12,152.23 
		255.19,149.16 274.17,130.19 279.71,130.19 392.6,130.19 406.79,130.19 408.98,130.19 414.01,130.19 419.21,130.19 421.75,130.19 
		430.43,130.19 438.96,130.19 503.38,130.19 534.64,161.44 534.64,161.43 503.38,130.18 274.17,130.18 242.9,161.43 242.9,215.67 
		242.9,215.67 242.9,180.42 	"/>
	<path class="st0" d="M389.76,214.3c0.06-0.22,0.15-0.43,0.32-0.6c0.52-0.52,1.37-0.52,1.9,0c0.11,0.11,0.18,0.23,0.24,0.36
		c-0.06-0.13-0.13-0.26-0.24-0.37c-0.52-0.52-1.37-0.52-1.9,0C389.91,213.87,389.82,214.08,389.76,214.3z"/>
	<path class="st0" d="M400.55,226.07c-0.52-0.52-0.52-1.37,0-1.89c0,0,0,0,0,0C400.03,224.7,400.03,225.55,400.55,226.07
		C400.55,226.07,400.55,226.07,400.55,226.07z"/>
	<path class="st0" d="M401,226.37c-0.01,0-0.01-0.01-0.02-0.01C400.98,226.35,400.99,226.36,401,226.37z"/>
	<path class="st0" d="M402.03,223.9c-0.17-0.08-0.35-0.12-0.53-0.12c-0.16,0-0.33,0.04-0.48,0.1c0.16-0.06,0.32-0.09,0.48-0.09
		C401.68,223.78,401.86,223.82,402.03,223.9z"/>
	<path class="st0" d="M401.11,226.39c0.25,0.08,0.52,0.08,0.77,0C401.63,226.47,401.36,226.47,401.11,226.39z"/>
	<polygon class="st1" points="438.96,130.19 530.11,220.21 534.64,215.67 534.64,161.44 503.38,130.19 	"/>
	<polygon class="st2" points="430.43,130.19 525.88,224.44 530.11,220.21 438.96,130.19 	"/>
	<polygon class="st3" points="421.75,130.19 521.57,228.75 525.88,224.44 430.43,130.19 	"/>
	<polygon class="st4" points="419.21,130.19 520.3,230.02 521.57,228.75 421.75,130.19 	"/>
	<polygon class="st5" points="414.01,130.19 517.72,232.6 520.3,230.02 419.21,130.19 	"/>
	<polygon class="st6" points="408.98,130.19 515.21,235.11 517.72,232.6 414.01,130.19 	"/>
	<polygon class="st5" points="406.79,130.19 514.13,236.19 515.21,235.11 408.98,130.19 	"/>
	<polygon class="st6" points="392.6,130.19 507.08,243.24 514.13,236.19 406.79,130.19 	"/>
	<path class="st5" d="M362.29,175.87c-2.4,0-4.35,1.95-4.35,4.35c0,2.4,1.95,4.35,4.35,4.35c1.5,0,2.82-0.76,3.61-1.92
		c0.47-0.69,0.74-1.53,0.74-2.43C366.64,177.82,364.69,175.87,362.29,175.87z"/>
	<path class="st5" d="M362.29,149.1c2.46,0,4.46-2,4.46-4.46c0-2.46-2-4.46-4.46-4.46s-4.46,2-4.46,4.46
		C357.83,147.1,359.83,149.1,362.29,149.1z"/>
	<path class="st5" d="M365,161.79c0-1.5-1.22-2.72-2.72-2.72c-1.5,0-2.72,1.22-2.72,2.72c0,0.88,0.43,1.65,1.08,2.15
		c0.46,0.35,1.02,0.56,1.64,0.56c0.56,0,1.09-0.17,1.52-0.46C364.53,163.55,365,162.72,365,161.79z"/>
	<path class="st5" d="M386.89,219.17c-0.05-0.08-0.09-0.16-0.16-0.23c-0.25-0.25-0.59-0.39-0.95-0.39c-0.35,0-0.69,0.14-0.94,0.39
		c-0.08,0.08-0.12,0.17-0.18,0.26c-0.13,0.21-0.22,0.44-0.22,0.68c0,0.23,0.08,0.44,0.19,0.64c0.06,0.11,0.12,0.22,0.21,0.31
		c0.04,0.04,0.1,0.06,0.15,0.1c0.33,0.25,0.76,0.32,1.15,0.21c0.2-0.05,0.38-0.14,0.53-0.27c0.02-0.02,0.04-0.02,0.06-0.04
		c0.13-0.13,0.23-0.28,0.3-0.45C387.2,219.99,387.13,219.54,386.89,219.17z"/>
	<path class="st5" d="M400.55,226.07c0.13,0.12,0.27,0.22,0.42,0.28c0.01,0,0.01,0.01,0.02,0.01c0.04,0.02,0.08,0.01,0.12,0.02
		c0.25,0.08,0.51,0.08,0.77,0c0.21-0.06,0.41-0.16,0.57-0.32c0.52-0.52,0.52-1.37,0-1.89c-0.12-0.12-0.27-0.21-0.42-0.28
		c-0.17-0.07-0.35-0.11-0.53-0.11c-0.16,0-0.33,0.03-0.48,0.09c-0.17,0.07-0.33,0.17-0.46,0.3
		C400.03,224.7,400.03,225.55,400.55,226.07z"/>
	<path class="st5" d="M397.61,230.36c0-0.36-0.14-0.7-0.39-0.95c-0.52-0.52-1.37-0.52-1.9,0c0,0,0,0,0,0
		c-0.46,0.46-0.49,1.18-0.13,1.7c0.05,0.07,0.07,0.14,0.13,0.2c0.45,0.45,1.13,0.49,1.66,0.16c0.08-0.05,0.17-0.09,0.24-0.16
		C397.47,231.05,397.61,230.72,397.61,230.36z"/>
	<path class="st5" d="M397.61,219.89c0-0.36-0.14-0.7-0.39-0.95c-0.1-0.1-0.22-0.16-0.34-0.22c-0.51-0.26-1.14-0.2-1.56,0.22
		c-0.52,0.52-0.52,1.37,0,1.9c0.26,0.26,0.6,0.39,0.95,0.39c0.08,0,0.16-0.03,0.23-0.05c0.26-0.05,0.51-0.15,0.71-0.35
		C397.47,220.58,397.61,220.25,397.61,219.89z"/>
	<path class="st5" d="M348.77,182.38c0.46-0.6,0.75-1.35,0.75-2.17c0-1.42-0.84-2.64-2.05-3.21c-0.04-0.02-0.08-0.05-0.12-0.07
		c-0.43-0.18-0.89-0.28-1.39-0.28c-1.96,0-3.56,1.6-3.56,3.56c0,1.23,0.62,2.32,1.57,2.96c0.57,0.38,1.25,0.61,1.99,0.61
		C347.11,183.78,348.12,183.23,348.77,182.38z"/>
	<path class="st5" d="M390.08,213.7c-0.17,0.17-0.26,0.38-0.32,0.6c-0.05,0.19-0.06,0.37-0.03,0.56c0.04,0.27,0.14,0.53,0.35,0.74
		c0.04,0.04,0.1,0.06,0.15,0.1c0.38,0.28,0.88,0.36,1.31,0.19c0.16-0.06,0.31-0.16,0.44-0.29c0.41-0.41,0.48-1.03,0.24-1.53
		c-0.06-0.13-0.13-0.26-0.24-0.36C391.45,213.18,390.6,213.18,390.08,213.7z"/>
	<path class="st5" d="M279.71,130.19l66,65.17l52.23,51.58h105.44l3.7-3.7L392.6,130.19H279.71z M387.46,221.56
		c-0.44,0.44-1.04,0.69-1.67,0.69s-1.22-0.25-1.66-0.69c-0.45-0.45-0.7-1.04-0.7-1.67c0-0.63,0.25-1.22,0.7-1.67
		c0.44-0.45,1.03-0.69,1.66-0.69s1.23,0.24,1.67,0.69C388.38,219.14,388.38,220.64,387.46,221.56z M388.82,222.92
		C388.82,222.92,388.82,222.92,388.82,222.92C388.82,222.92,388.82,222.92,388.82,222.92c1.22-1.22,3.2-1.22,4.42,0
		c0.16,0.16,0.29,0.33,0.41,0.5c0.57,0.86,0.66,1.94,0.28,2.88c-0.15,0.38-0.38,0.73-0.69,1.03c-1.22,1.22-3.2,1.22-4.42,0
		c-0.15-0.15-0.29-0.32-0.4-0.49C387.62,225.63,387.75,223.99,388.82,222.92z M380.46,177c0.89,0,1.73,0.27,2.42,0.74
		c1.15,0.77,1.9,2.09,1.9,3.57c0,1.75-1.04,3.24-2.53,3.92c-0.55,0.25-1.15,0.4-1.79,0.4c-2.38,0-4.32-1.93-4.32-4.32
		C376.14,178.93,378.08,177,380.46,177z M362.29,139.18c3.02,0,5.47,2.45,5.47,5.47s-2.45,5.47-5.47,5.47s-5.47-2.45-5.47-5.47
		S359.27,139.18,362.29,139.18z M362.29,174.86c2.96,0,5.37,2.4,5.37,5.36s-2.41,5.37-5.37,5.37s-5.37-2.41-5.37-5.37
		S359.33,174.86,362.29,174.86z M358.55,161.79c0-2.06,1.68-3.74,3.74-3.74s3.73,1.68,3.73,3.74s-1.67,3.73-3.73,3.73
		S358.55,163.85,358.55,161.79z M343.83,160.19c0.57-0.51,1.31-0.82,2.13-0.82c0.89,0,1.69,0.36,2.28,0.94
		c0.59,0.58,0.95,1.39,0.95,2.28c0,1.78-1.45,3.23-3.23,3.23s-3.23-1.45-3.23-3.23C342.73,161.63,343.16,160.78,343.83,160.19z
		 M323.61,161.79c-0.57,0.49-1.3,0.8-2.11,0.8c-0.67,0-1.29-0.2-1.8-0.55c-0.86-0.58-1.43-1.56-1.43-2.67c0-0.89,0.36-1.7,0.95-2.28
		c0.05-0.05,0.11-0.09,0.17-0.14c0.1-0.09,0.2-0.18,0.31-0.25c0.08-0.06,0.17-0.09,0.26-0.14c0.46-0.25,0.98-0.41,1.54-0.41
		c0.31,0,0.61,0.06,0.89,0.14c0.73,0.21,1.37,0.66,1.78,1.28c0.35,0.52,0.55,1.14,0.55,1.81
		C324.73,160.34,324.29,161.2,323.61,161.79z M323.58,154.33c-0.56,0.48-1.28,0.78-2.08,0.78c-0.67,0-1.29-0.2-1.8-0.55
		c-0.86-0.58-1.43-1.56-1.43-2.67c0-1.11,0.57-2.1,1.43-2.68c0.03-0.02,0.06-0.03,0.09-0.05c0.5-0.31,1.08-0.5,1.71-0.5
		c0.41,0,0.8,0.08,1.16,0.23c0.62,0.24,1.15,0.66,1.51,1.2c0.35,0.52,0.55,1.14,0.55,1.81
		C324.73,152.87,324.28,153.74,323.58,154.33z M331.1,161.78c-0.57,0.5-1.31,0.81-2.12,0.81c-0.67,0-1.29-0.2-1.8-0.55
		c-0.86-0.58-1.43-1.56-1.43-2.67c0-0.89,0.36-1.7,0.95-2.28c0.04-0.04,0.09-0.07,0.14-0.11c0.11-0.1,0.22-0.2,0.34-0.28
		c0.07-0.05,0.16-0.09,0.24-0.13c0.47-0.26,0.99-0.42,1.57-0.42c0.3,0,0.58,0.05,0.86,0.13c0.75,0.21,1.39,0.67,1.82,1.29
		c0.35,0.52,0.55,1.14,0.55,1.81C332.21,160.33,331.77,161.19,331.1,161.78z M331.07,154.32c-0.56,0.49-1.29,0.79-2.09,0.79
		c-0.67,0-1.29-0.2-1.8-0.55c-0.86-0.58-1.43-1.56-1.43-2.67c0-1.11,0.57-2.1,1.43-2.68c0.02-0.01,0.04-0.02,0.06-0.03
		c0.5-0.32,1.1-0.52,1.74-0.52c0.4,0,0.78,0.08,1.14,0.22c0.63,0.24,1.17,0.66,1.54,1.21c0.35,0.52,0.55,1.14,0.55,1.81
		C332.21,152.87,331.76,153.73,331.07,154.32z M345.96,184.81c-2.53,0-4.58-2.06-4.58-4.59c0-2.52,2.05-4.58,4.58-4.58
		s4.58,2.06,4.58,4.58C350.54,182.75,348.49,184.81,345.96,184.81z M362.29,204.55c-3.33,0-6.04-2.7-6.04-6.04
		c0-1.11,0.3-2.14,0.83-3.03c1.05-1.79,2.99-3,5.21-3c2.08,0,3.92,1.06,5.01,2.66c0.65,0.96,1.03,2.12,1.03,3.37
		C368.33,201.85,365.62,204.55,362.29,204.55z M374.48,198.51c0-3.61,2.94-6.54,6.55-6.54s6.54,2.93,6.54,6.54
		c0,3.61-2.93,6.55-6.54,6.55S374.48,202.12,374.48,198.51z M382.23,226.8c-0.46,0.46-1.07,0.69-1.67,0.69
		c-0.61,0-1.21-0.23-1.67-0.69c-0.45-0.45-0.69-1.04-0.69-1.67c0-0.64,0.24-1.23,0.69-1.67c0.44-0.45,1.04-0.7,1.67-0.7
		s1.22,0.25,1.67,0.7C383.15,224.38,383.15,225.87,382.23,226.8z M387.46,232.03c-0.44,0.45-1.04,0.69-1.67,0.69
		s-1.22-0.24-1.66-0.69c-0.45-0.44-0.7-1.04-0.7-1.67c0-0.63,0.25-1.22,0.7-1.67c0.44-0.44,1.03-0.69,1.66-0.69s1.23,0.25,1.67,0.69
		C388.38,229.61,388.38,231.11,387.46,232.03z M392.7,237.27c-0.45,0.44-1.04,0.69-1.67,0.69s-1.22-0.25-1.67-0.69
		c-0.92-0.92-0.92-2.42,0-3.34c0.92-0.92,2.42-0.92,3.34,0C393.62,234.85,393.62,236.35,392.7,237.27z M397.94,232.03
		c-0.46,0.46-1.07,0.69-1.67,0.69c-0.61,0-1.21-0.23-1.67-0.69c-0.92-0.92-0.92-2.42,0-3.34c0.92-0.92,2.42-0.92,3.34,0
		c0.44,0.45,0.69,1.04,0.69,1.67C398.63,230.99,398.38,231.59,397.94,232.03z M403.45,189.73c0.39-0.21,0.83-0.34,1.31-0.34
		c0.47,0,0.9,0.12,1.29,0.33c0.26,0.13,0.5,0.3,0.71,0.5c0.51,0.51,0.83,1.22,0.83,2c0,0.97-0.49,1.81-1.23,2.32
		c-0.46,0.31-1.01,0.5-1.6,0.5c-1.56,0-2.83-1.26-2.83-2.83C401.93,191.13,402.55,190.2,403.45,189.73z M403.12,196.47
		c0.46-0.33,1.03-0.54,1.64-0.54c1.56,0,2.83,1.27,2.83,2.83c0,0.83-0.36,1.56-0.93,2.08c-0.5,0.46-1.16,0.74-1.9,0.74
		c-1.56,0-2.83-1.26-2.83-2.83C401.93,197.82,402.4,196.99,403.12,196.47z M403.17,223.46c0.92,0.92,0.92,2.41,0,3.34
		c-0.46,0.46-1.06,0.69-1.67,0.69c-0.6,0-1.21-0.23-1.67-0.69c-0.92-0.93-0.92-2.42,0-3.34
		C400.75,222.54,402.25,222.54,403.17,223.46z M398.21,189.39c0.4,0,0.78,0.08,1.12,0.23c1,0.43,1.7,1.43,1.7,2.59
		c0,1.56-1.26,2.83-2.83,2.83c-0.51,0-0.97-0.14-1.38-0.38c-0.86-0.48-1.45-1.39-1.45-2.45
		C395.38,190.66,396.65,189.39,398.21,189.39z M398.21,195.94c0.58,0,1.12,0.18,1.56,0.48c0.76,0.51,1.26,1.37,1.26,2.35
		c0,1.56-1.26,2.83-2.83,2.83c-0.63,0-1.21-0.21-1.68-0.56c-0.7-0.51-1.15-1.33-1.15-2.26
		C395.38,197.21,396.65,195.94,398.21,195.94z M394.6,218.22c0.92-0.92,2.42-0.92,3.34,0c0.44,0.45,0.69,1.04,0.69,1.67
		c0,0.63-0.25,1.22-0.69,1.67c-0.46,0.46-1.07,0.69-1.67,0.69c-0.61,0-1.21-0.23-1.67-0.69
		C393.68,220.64,393.68,219.14,394.6,218.22z M392.7,216.32c-0.45,0.45-1.04,0.69-1.67,0.69s-1.22-0.24-1.67-0.69
		c-0.92-0.92-0.92-2.42,0-3.34c0.92-0.92,2.42-0.92,3.34,0C393.62,213.9,393.62,215.4,392.7,216.32z"/>
	<path class="st5" d="M381.03,192.98c-2.86,0-5.21,2.18-5.5,4.96c-0.02,0.19-0.03,0.37-0.03,0.56c0,2.29,1.39,4.25,3.38,5.09
		c0.66,0.28,1.39,0.43,2.15,0.43s1.49-0.15,2.15-0.43c1.98-0.84,3.37-2.81,3.37-5.09c0-1.42-0.54-2.71-1.42-3.69
		C384.11,193.69,382.65,192.98,381.03,192.98z"/>
	<path class="st5" d="M381.51,224.18c-0.03-0.03-0.08-0.05-0.11-0.08c-0.24-0.19-0.52-0.32-0.84-0.32c-0.26,0-0.5,0.1-0.71,0.23
		c-0.08,0.05-0.17,0.09-0.24,0.16c-0.25,0.25-0.39,0.59-0.39,0.95c0,0.35,0.14,0.69,0.39,0.94c0.12,0.13,0.27,0.22,0.42,0.28
		c0.01,0,0.02,0.01,0.02,0.02c0.02,0.01,0.04,0.01,0.06,0.01c0.24,0.08,0.49,0.08,0.73,0.03c0.24-0.05,0.47-0.15,0.66-0.34
		c0.12-0.12,0.21-0.26,0.27-0.41c0-0.01,0.02-0.02,0.02-0.03C382,225.14,381.9,224.57,381.51,224.18z"/>
	<path class="st5" d="M386.97,229.75c-0.06-0.12-0.13-0.24-0.23-0.34c-0.07-0.07-0.15-0.1-0.23-0.15c-0.22-0.14-0.46-0.24-0.72-0.24
		c-0.17,0-0.33,0.04-0.48,0.1c-0.16,0.06-0.3,0.16-0.43,0.27c-0.01,0.01-0.02,0.01-0.03,0.02c-0.07,0.07-0.11,0.16-0.17,0.25
		c-0.14,0.21-0.23,0.45-0.23,0.71c0,0.24,0.08,0.45,0.19,0.65c0.06,0.1,0.11,0.21,0.2,0.3c0.11,0.11,0.24,0.19,0.38,0.25
		c0.39,0.17,0.84,0.15,1.21-0.05c0.1-0.06,0.21-0.11,0.3-0.2c0.08-0.08,0.13-0.19,0.19-0.28
		C387.16,230.63,387.18,230.16,386.97,229.75z"/>
	<path class="st5" d="M392.19,236.23c0.24-0.44,0.21-0.96-0.07-1.37c-0.05-0.07-0.08-0.15-0.14-0.21c-0.26-0.26-0.61-0.39-0.95-0.39
		c-0.31,0-0.62,0.12-0.87,0.34c-0.02,0.02-0.06,0.03-0.08,0.05c-0.2,0.2-0.3,0.44-0.34,0.7c-0.05,0.26-0.04,0.53,0.06,0.78
		c0.07,0.15,0.16,0.3,0.28,0.42c0.12,0.12,0.27,0.22,0.43,0.28c0.35,0.14,0.76,0.12,1.1-0.04c0.13-0.06,0.26-0.13,0.37-0.24
		C392.07,236.45,392.13,236.34,392.19,236.23z"/>
	<polygon class="st7" points="279.71,130.19 274.17,130.19 255.19,149.16 354.19,246.93 397.93,246.93 345.71,195.36 	"/>
	<polygon class="st8" points="252.12,152.23 348.01,246.93 354.19,246.93 255.19,149.16 	"/>
	<polygon class="st9" points="244.09,160.26 330.76,246.93 335.96,246.93 246.69,157.66 	"/>
	<polygon class="st9" points="242.9,166.28 323.56,246.93 325.74,246.93 242.9,164.1 	"/>
	<polygon class="st9" points="247.95,156.4 338.48,246.93 348.01,246.93 252.12,152.23 	"/>
	<polygon class="st9" points="309.42,246.93 242.9,180.42 242.9,215.67 274.17,246.93 	"/>
	<polygon class="st10" points="246.69,157.66 335.96,246.93 338.48,246.93 247.95,156.4 	"/>
	<polygon class="st10" points="242.9,161.44 242.9,164.1 325.74,246.93 330.76,246.93 244.09,160.26 	"/>
	<polygon class="st10" points="242.9,180.42 309.42,246.93 323.56,246.93 242.9,166.28 	"/>
	<path class="st11" d="M324.73,151.88c0-0.67-0.2-1.29-0.55-1.8c-0.37-0.54-0.9-0.96-1.51-1.2c-0.36-0.14-0.75-0.22-1.16-0.22
		c-0.63,0-1.22,0.19-1.71,0.5c-0.03,0.02-0.06,0.03-0.09,0.05c-0.86,0.58-1.42,1.56-1.42,2.67c0,1.11,0.56,2.09,1.42,2.67
		c0.52,0.35,1.14,0.55,1.8,0.55c0.8,0,1.51-0.3,2.08-0.78C324.27,153.74,324.73,152.87,324.73,151.88z"/>
	<path class="st11" d="M332.21,151.88c0-0.67-0.2-1.29-0.55-1.8c-0.37-0.55-0.91-0.97-1.54-1.21c-0.35-0.13-0.73-0.22-1.14-0.22
		c-0.64,0-1.24,0.19-1.74,0.52c-0.02,0.01-0.04,0.02-0.06,0.03c-0.86,0.58-1.42,1.56-1.42,2.67c0,1.11,0.56,2.09,1.42,2.67
		c0.52,0.35,1.14,0.55,1.8,0.55c0.8,0,1.53-0.3,2.09-0.79C331.76,153.73,332.21,152.86,332.21,151.88z"/>
	<path class="st11" d="M324.73,159.36c0-0.67-0.2-1.29-0.55-1.8c-0.42-0.62-1.05-1.07-1.78-1.28c-0.29-0.08-0.58-0.14-0.89-0.14
		c-0.56,0-1.08,0.16-1.54,0.41c-0.09,0.05-0.18,0.09-0.26,0.14c-0.11,0.07-0.21,0.17-0.31,0.25c-0.06,0.05-0.12,0.09-0.17,0.14
		c-0.58,0.58-0.94,1.39-0.94,2.28c0,1.11,0.56,2.09,1.42,2.67c0.52,0.35,1.14,0.55,1.8,0.55c0.81,0,1.54-0.31,2.11-0.8
		C324.29,161.2,324.73,160.34,324.73,159.36z"/>
	<path class="st11" d="M332.21,159.36c0-0.67-0.2-1.29-0.55-1.8c-0.42-0.63-1.07-1.09-1.82-1.29c-0.28-0.08-0.56-0.13-0.86-0.13
		c-0.57,0-1.1,0.16-1.57,0.42c-0.08,0.04-0.16,0.08-0.24,0.13c-0.12,0.08-0.23,0.18-0.34,0.28c-0.04,0.04-0.1,0.07-0.14,0.11
		c-0.58,0.58-0.94,1.39-0.94,2.28c0,1.11,0.56,2.09,1.42,2.67c0.52,0.35,1.14,0.55,1.8,0.55c0.82,0,1.55-0.31,2.12-0.81
		C331.77,161.19,332.21,160.33,332.21,159.36z"/>
	<path class="st11" d="M395.38,192.21c0,1.06,0.59,1.96,1.44,2.45c0.41,0.23,0.88,0.38,1.38,0.38c1.56,0,2.83-1.26,2.83-2.83
		c0-1.16-0.7-2.16-1.7-2.59c-0.34-0.15-0.72-0.23-1.12-0.23C396.65,189.39,395.38,190.65,395.38,192.21z"/>
	<path class="st11" d="M404.76,195.04c0.59,0,1.14-0.19,1.6-0.5c0.74-0.51,1.23-1.36,1.23-2.33c0-0.78-0.32-1.49-0.83-2
		c-0.21-0.21-0.45-0.37-0.71-0.5c-0.39-0.2-0.82-0.33-1.29-0.33c-0.48,0-0.92,0.13-1.31,0.34c-0.9,0.47-1.51,1.4-1.51,2.49
		C401.93,193.77,403.2,195.04,404.76,195.04z"/>
	<path class="st11" d="M395.38,198.77c0,0.93,0.46,1.75,1.15,2.26c0.47,0.35,1.05,0.56,1.68,0.56c1.56,0,2.83-1.26,2.83-2.83
		c0-0.98-0.5-1.85-1.26-2.35c-0.45-0.3-0.98-0.47-1.56-0.47C396.65,195.94,395.38,197.21,395.38,198.77z"/>
	<path class="st11" d="M404.76,201.59c0.73,0,1.39-0.29,1.9-0.74c0.57-0.52,0.93-1.25,0.93-2.08c0-1.56-1.26-2.83-2.83-2.83
		c-0.61,0-1.18,0.2-1.64,0.53c-0.71,0.51-1.18,1.35-1.18,2.29C401.93,200.33,403.2,201.59,404.76,201.59z"/>
	<path class="st11" d="M342.73,162.59c0,1.78,1.44,3.23,3.23,3.23s3.23-1.44,3.23-3.23c0-0.89-0.36-1.7-0.95-2.28
		c-0.58-0.58-1.39-0.94-2.28-0.94c-0.82,0-1.56,0.32-2.13,0.82C343.16,160.78,342.73,161.63,342.73,162.59z"/>
	<path class="st11" d="M388.42,226.84c0.11,0.17,0.25,0.34,0.4,0.49c1.22,1.22,3.2,1.22,4.42,0c0.3-0.3,0.53-0.66,0.69-1.03
		c0.38-0.93,0.29-2.02-0.28-2.88c-0.12-0.18-0.25-0.35-0.41-0.5c-1.22-1.22-3.2-1.22-4.42,0c0,0,0,0,0,0
		C387.75,223.98,387.62,225.63,388.42,226.84z"/>
	<path class="st11" d="M380.46,185.63c0.64,0,1.24-0.15,1.79-0.4c1.49-0.68,2.53-2.17,2.53-3.92c0-1.49-0.75-2.8-1.9-3.58
		c-0.69-0.47-1.52-0.74-2.42-0.74c-2.38,0-4.32,1.93-4.32,4.32C376.14,183.7,378.08,185.63,380.46,185.63z"/>
	<path class="st11" d="M362.29,204.55c3.33,0,6.04-2.7,6.04-6.04c0-1.25-0.38-2.41-1.03-3.37c-1.08-1.61-2.92-2.66-5.01-2.66
		c-2.23,0-4.17,1.21-5.21,3c-0.52,0.89-0.82,1.93-0.82,3.04C356.25,201.84,358.95,204.55,362.29,204.55z"/>
	<path class="st11" d="M362.29,150.12c3.02,0,5.47-2.45,5.47-5.47s-2.45-5.47-5.47-5.47s-5.47,2.45-5.47,5.47
		S359.27,150.12,362.29,150.12z M362.29,140.19c2.46,0,4.46,2,4.46,4.46s-2,4.46-4.46,4.46s-4.46-2-4.46-4.46
		S359.83,140.19,362.29,140.19z"/>
	<path class="st11" d="M389.36,212.98c-0.92,0.92-0.92,2.42,0,3.34c0.45,0.45,1.04,0.69,1.67,0.69s1.22-0.24,1.67-0.69
		c0.92-0.92,0.92-2.42,0-3.34C391.78,212.06,390.28,212.06,389.36,212.98z M391.98,213.7c0.11,0.11,0.18,0.24,0.24,0.37
		c0.24,0.5,0.17,1.12-0.24,1.53c-0.13,0.13-0.28,0.22-0.44,0.29c-0.43,0.17-0.93,0.09-1.31-0.19c-0.05-0.04-0.1-0.05-0.15-0.1
		c0,0,0,0,0,0c-0.21-0.21-0.31-0.47-0.35-0.74c-0.03-0.19-0.02-0.37,0.03-0.56c0.06-0.22,0.15-0.43,0.32-0.6
		C390.61,213.18,391.46,213.18,391.98,213.7z"/>
	<path class="st11" d="M399.83,226.8c0.46,0.46,1.07,0.69,1.67,0.69c0.61,0,1.21-0.23,1.67-0.69c0.92-0.93,0.92-2.42,0-3.34
		c-0.92-0.92-2.42-0.92-3.34,0C398.91,224.38,398.91,225.87,399.83,226.8z M400.55,224.18
		C400.55,224.18,400.55,224.18,400.55,224.18c0.14-0.14,0.3-0.23,0.47-0.3c0.16-0.06,0.32-0.1,0.48-0.1c0.18,0,0.36,0.04,0.53,0.12
		c0.15,0.07,0.29,0.16,0.42,0.28c0.52,0.52,0.52,1.37,0,1.89c-0.16,0.17-0.36,0.26-0.57,0.32c-0.25,0.08-0.51,0.08-0.77,0
		c-0.04-0.01-0.08-0.01-0.12-0.02c-0.01,0-0.01-0.01-0.02-0.01c-0.15-0.07-0.3-0.16-0.42-0.28c0,0,0,0,0,0
		C400.03,225.55,400.03,224.7,400.55,224.18z"/>
	<path class="st11" d="M396.27,222.25c0.6,0,1.21-0.23,1.67-0.69c0.44-0.45,0.69-1.04,0.69-1.67c0-0.63-0.25-1.22-0.69-1.67
		c-0.92-0.92-2.42-0.92-3.34,0c-0.92,0.92-0.92,2.42,0,3.34C395.06,222.02,395.66,222.25,396.27,222.25z M397.61,219.89
		c0,0.36-0.14,0.69-0.39,0.95c-0.2,0.2-0.46,0.3-0.72,0.34c-0.08,0.01-0.16,0.05-0.23,0.05c-0.34,0-0.69-0.13-0.95-0.39c0,0,0,0,0,0
		c-0.52-0.53-0.52-1.38,0-1.9c0.42-0.42,1.05-0.48,1.56-0.22c0.12,0.06,0.24,0.12,0.34,0.22
		C397.47,219.19,397.61,219.53,397.61,219.89z"/>
	<path class="st11" d="M385.79,217.53c-0.63,0-1.22,0.24-1.66,0.69c-0.45,0.45-0.7,1.04-0.7,1.67c0,0.63,0.25,1.22,0.7,1.67
		c0.44,0.44,1.03,0.69,1.66,0.69s1.23-0.25,1.67-0.69c0.92-0.92,0.92-2.42,0-3.34C387.02,217.77,386.42,217.53,385.79,217.53z
		 M387.04,220.39c-0.07,0.16-0.16,0.31-0.3,0.45l0,0c-0.02,0.02-0.04,0.02-0.06,0.04c-0.15,0.14-0.33,0.22-0.53,0.27
		c-0.4,0.11-0.82,0.04-1.15-0.21c-0.05-0.04-0.11-0.05-0.15-0.1c-0.09-0.09-0.15-0.2-0.21-0.31c-0.11-0.2-0.19-0.41-0.19-0.64
		c0-0.25,0.09-0.48,0.22-0.69c0.06-0.09,0.1-0.19,0.18-0.26c0.25-0.25,0.59-0.39,0.94-0.39c0.36,0,0.7,0.14,0.95,0.39
		c0.07,0.07,0.1,0.15,0.16,0.23C387.14,219.54,387.2,219.99,387.04,220.39z"/>
	<path class="st11" d="M394.6,228.69c-0.92,0.92-0.92,2.42,0,3.34c0.46,0.46,1.06,0.69,1.67,0.69c0.6,0,1.21-0.23,1.67-0.69
		c0.44-0.44,0.69-1.04,0.69-1.67c0-0.63-0.25-1.22-0.69-1.67C397.02,227.77,395.52,227.77,394.6,228.69z M397.22,231.31
		c-0.07,0.07-0.16,0.11-0.24,0.16c-0.52,0.33-1.21,0.29-1.66-0.16c-0.06-0.06-0.09-0.13-0.13-0.2c-0.36-0.52-0.34-1.23,0.13-1.7
		c0,0,0,0,0,0c0,0,0,0,0,0c0.52-0.52,1.37-0.52,1.9,0c0.25,0.26,0.39,0.59,0.39,0.95C397.61,230.72,397.47,231.06,397.22,231.31z"/>
	<path class="st11" d="M380.56,222.76c-0.63,0-1.23,0.25-1.67,0.7c-0.45,0.44-0.69,1.03-0.69,1.67c0,0.63,0.24,1.22,0.69,1.67
		c0.46,0.46,1.06,0.69,1.67,0.69c0.6,0,1.21-0.23,1.67-0.69c0.92-0.93,0.92-2.42,0-3.34C381.78,223.01,381.19,222.76,380.56,222.76z
		 M381.78,225.66c-0.06,0.15-0.15,0.29-0.27,0.41c0,0,0,0,0,0c-0.19,0.19-0.42,0.29-0.66,0.34c-0.24,0.06-0.49,0.05-0.73-0.03
		c-0.02-0.01-0.04,0-0.06-0.01c-0.01,0-0.02-0.01-0.02-0.02c-0.15-0.07-0.29-0.16-0.42-0.28c-0.25-0.25-0.39-0.59-0.39-0.94
		c0-0.36,0.14-0.7,0.39-0.95c0.07-0.07,0.16-0.11,0.24-0.16c0.21-0.14,0.45-0.24,0.71-0.24c0.31,0,0.59,0.12,0.83,0.32
		c0.04,0.03,0.08,0.04,0.11,0.08c0,0,0,0,0,0c0.39,0.39,0.49,0.97,0.29,1.45C381.8,225.64,381.78,225.65,381.78,225.66z"/>
	<path class="st11" d="M389.36,233.93c-0.92,0.92-0.92,2.42,0,3.34c0.45,0.44,1.04,0.69,1.67,0.69s1.22-0.25,1.67-0.69
		c0.92-0.92,0.92-2.42,0-3.34C391.78,233.01,390.28,233.01,389.36,233.93z M391.61,236.78c-0.34,0.16-0.75,0.18-1.1,0.04
		c-0.16-0.06-0.31-0.15-0.43-0.28c-0.12-0.13-0.21-0.27-0.28-0.43c-0.1-0.25-0.11-0.52-0.06-0.78c0.05-0.26,0.15-0.5,0.34-0.7
		c0.02-0.02,0.06-0.03,0.08-0.05c0.25-0.22,0.56-0.34,0.87-0.34c0.34,0,0.69,0.13,0.95,0.39c0,0,0,0,0,0
		c0.06,0.06,0.09,0.14,0.14,0.21c0.28,0.41,0.3,0.93,0.07,1.37c-0.06,0.11-0.11,0.22-0.21,0.32
		C391.87,236.65,391.74,236.72,391.61,236.78z"/>
	<path class="st11" d="M385.79,228c-0.63,0-1.22,0.25-1.66,0.69c-0.45,0.45-0.7,1.04-0.7,1.67c0,0.63,0.25,1.23,0.7,1.67
		c0.44,0.45,1.03,0.69,1.66,0.69s1.23-0.24,1.67-0.69c0.92-0.92,0.92-2.42,0-3.34C387.02,228.25,386.42,228,385.79,228z
		 M386.93,231.02c-0.06,0.1-0.11,0.2-0.19,0.28c-0.09,0.09-0.19,0.14-0.3,0.2c-0.37,0.21-0.83,0.23-1.21,0.05
		c-0.14-0.06-0.27-0.14-0.38-0.25c-0.09-0.09-0.14-0.19-0.2-0.3c-0.12-0.2-0.2-0.42-0.2-0.65c0-0.26,0.1-0.49,0.23-0.71
		c0.05-0.08,0.09-0.17,0.17-0.25l0,0c0.01-0.01,0.02-0.01,0.03-0.02c0.13-0.12,0.27-0.21,0.43-0.27c0.15-0.06,0.32-0.1,0.48-0.1
		c0,0,0,0,0,0c0.26,0,0.51,0.1,0.72,0.24c0.08,0.05,0.16,0.09,0.23,0.15c0,0,0,0,0,0c0.1,0.1,0.17,0.22,0.23,0.34
		C387.18,230.16,387.16,230.63,386.93,231.02z"/>
	<path class="st11" d="M345.96,175.64c-2.53,0-4.58,2.06-4.58,4.58c0,2.53,2.05,4.59,4.58,4.59s4.58-2.06,4.58-4.59
		C350.54,177.7,348.49,175.64,345.96,175.64z M345.96,183.79c-0.74,0-1.42-0.23-1.99-0.61c-0.95-0.64-1.57-1.73-1.57-2.96
		c0-1.96,1.6-3.56,3.56-3.56c0.49,0,0.96,0.1,1.39,0.28c0.04,0.02,0.08,0.05,0.12,0.07c1.21,0.57,2.05,1.79,2.05,3.21
		c0,0.82-0.29,1.56-0.75,2.17C348.12,183.23,347.11,183.79,345.96,183.79z"/>
	<path class="st11" d="M356.92,180.22c0,2.96,2.41,5.37,5.37,5.37s5.37-2.41,5.37-5.37s-2.41-5.36-5.37-5.36
		S356.92,177.26,356.92,180.22z M362.29,175.87c2.4,0,4.35,1.96,4.35,4.35c0,0.9-0.27,1.74-0.74,2.43
		c-0.78,1.16-2.11,1.92-3.61,1.92c-2.4,0-4.35-1.95-4.35-4.35c0,0,0,0,0,0C357.94,177.83,359.89,175.87,362.29,175.87z"/>
	<path class="st11" d="M387.57,198.51c0-3.61-2.93-6.54-6.54-6.54s-6.55,2.93-6.55,6.54c0,3.61,2.94,6.55,6.55,6.55
		S387.57,202.12,387.57,198.51z M381.03,192.98c1.63,0,3.09,0.71,4.1,1.84c0.88,0.98,1.42,2.27,1.42,3.69
		c0,2.29-1.39,4.25-3.37,5.09c-0.66,0.28-1.39,0.44-2.15,0.44c-0.76,0-1.49-0.16-2.15-0.44c-1.98-0.84-3.38-2.81-3.38-5.09
		c0-0.19,0.01-0.38,0.03-0.56C375.81,195.16,378.17,192.98,381.03,192.98z"/>
	<path class="st11" d="M366.02,161.79c0-2.06-1.67-3.74-3.73-3.74s-3.74,1.68-3.74,3.74s1.68,3.73,3.74,3.73
		S366.02,163.85,366.02,161.79z M359.57,161.79c0-1.5,1.22-2.72,2.72-2.72s2.72,1.22,2.72,2.72c0,0.94-0.48,1.76-1.2,2.25
		c-0.43,0.29-0.96,0.46-1.52,0.46c-0.62,0-1.18-0.21-1.64-0.56C360,163.44,359.57,162.67,359.57,161.79z"/>
	<path class="st12" d="M240.47,204.14v-14.09c-1.84,1.79-2.98,4.29-2.98,7.05C237.49,199.84,238.63,202.35,240.47,204.14z"/>
	<path class="st12" d="M228.1,228.69l-18.3-18.3h16.07l14.6-28.24v-21.71l6.27-6.27c-5.05,0.2-9.56,3.06-11.89,7.57l-17.72,34.3
		h-9.92v-26.7l20.89-20.89h24.37l14.04-14.04h-44.22l-29.11,29.11v50.1l29.11,29.11h44.22l-14.03-14.03H228.1z"/>
	<path class="st11" d="M209.8,210.39l18.3,18.3h24.38l-12.01-12.01v-12.54c-1.84-1.79-2.98-4.29-2.98-7.05
		c0-2.75,1.14-5.26,2.98-7.05v-7.89l-14.6,28.24H209.8z"/>
	<polygon class="st11" points="266.51,242.72 222.29,242.72 193.18,213.61 193.18,163.51 222.29,134.4 266.51,134.4 270.72,130.19 
		220.23,130.19 188.96,161.44 188.96,215.68 220.22,246.93 270.73,246.93 	"/>
	<path class="st11" d="M207.21,169.33v26.7h9.92l17.72-34.3c2.33-4.51,6.84-7.37,11.89-7.57l5.73-5.72H228.1L207.21,169.33z"/>
	
		<linearGradient id="SVGID_1_" gradientUnits="userSpaceOnUse" x1="890.7303" y1="89.6238" x2="1241.3004" y2="89.6238" gradientTransform="matrix(1 0 0 1 -704.2322 98.9346)">
		<stop  offset="0" style="stop-color:#476B9D"/>
		<stop  offset="1" style="stop-color:#7FA1D1"/>
	</linearGradient>
	<path class="st13" d="M506.81,130.18l-2.42-2.43h-285.2l-32.69,32.68v56.24l32.69,32.69h285.2l1.31-1.32l1.11-1.11l1.11-1.1
		l1.41-1.41l3.26-3.26l2.4-2.4l1.09-1.09l2.51-2.51l1.83-1.83l0.76-0.76l1.26-1.27l4.33-4.32l4.25-4.25l6.05-6.06v-56.24
		L506.81,130.18z M220.23,246.94L220.23,246.94l-0.03,0l-31.27-31.26v-54.24l31.27-31.25h50.53l0,0h0.04l-4.21,4.21l-14.05,14.04
		l-5.71,5.72l-6.29,6.28v21.65v7.92v14.16v12.51l12.01,12.01l14.03,14.03h0l4.22,4.22H220.23z M534.64,215.68l-4.53,4.53l-4.23,4.23
		l-4.31,4.31l-1.27,1.27l-2.58,2.58l-2.51,2.51l-1.08,1.08l-7.05,7.05l-3.7,3.7H397.94H354.2h-6.18h-9.53h-2.52h-5.2h-5.02h-2.18
		h-14.14h-35.26l-31.27-31.26v0l0,0v-54.24l31.27-31.25h229.21l31.26,31.25v0l0,0V215.68z"/>
	<polygon class="st1" points="534.64,215.67 530.11,220.21 530.11,220.21 534.64,215.68 534.64,161.44 534.64,161.44 	"/>
	
		<linearGradient id="SVGID_00000078024935435392951160000004695913036679348623_" gradientUnits="userSpaceOnUse" x1="890.7303" y1="91.888" x2="1241.3004" y2="91.888" gradientTransform="matrix(1 0 0 1 -704.2322 98.9346)">
		<stop  offset="0" style="stop-color:#476B9D"/>
		<stop  offset="1" style="stop-color:#7FA1D1"/>
	</linearGradient>
	<polygon style="fill:url(#SVGID_00000078024935435392951160000004695913036679348623_);" points="534.64,215.67 530.11,220.21 
		530.11,220.21 534.64,215.68 534.64,161.44 534.64,161.44 	"/>
	<rect x="525" y="222.32" transform="matrix(0.6897 -0.7241 0.7241 0.6897 2.8682 451.3359)" class="st2" width="5.98" height="0"/>
	
		<linearGradient id="SVGID_00000075133016120875168730000002193844948196555167_" gradientUnits="userSpaceOnUse" x1="890.7303" y1="123.3871" x2="1241.3004" y2="123.3871" gradientTransform="matrix(1 0 0 1 -704.2322 98.9346)">
		<stop  offset="0" style="stop-color:#476B9D"/>
		<stop  offset="1" style="stop-color:#7FA1D1"/>
	</linearGradient>
	<polygon style="fill:url(#SVGID_00000075133016120875168730000002193844948196555167_);" points="525.88,224.44 525.88,224.44 
		530.11,220.21 530.11,220.21 	"/>
	
		<rect x="520.68" y="226.59" transform="matrix(0.7071 -0.7071 0.7071 0.7071 -6.8296 436.695)" class="st3" width="6.1" height="0"/>
	
		<linearGradient id="SVGID_00000147914307268515538680000005587357816821148061_" gradientUnits="userSpaceOnUse" x1="890.7303" y1="127.657" x2="1241.3004" y2="127.657" gradientTransform="matrix(1 0 0 1 -704.2322 98.9346)">
		<stop  offset="0" style="stop-color:#476B9D"/>
		<stop  offset="1" style="stop-color:#7FA1D1"/>
	</linearGradient>
	<polygon style="fill:url(#SVGID_00000147914307268515538680000005587357816821148061_);" points="521.57,228.75 521.57,228.75 
		525.88,224.44 525.88,224.44 	"/>
	
		<rect x="520.03" y="229.38" transform="matrix(0.6897 -0.7241 0.7241 0.6897 -4.4351 448.4145)" class="st4" width="1.8" height="0"/>
	
		<linearGradient id="SVGID_00000110431631164100367580000015391689320264249773_" gradientUnits="userSpaceOnUse" x1="890.7303" y1="130.4469" x2="1241.3004" y2="130.4469" gradientTransform="matrix(1 0 0 1 -704.2322 98.9346)">
		<stop  offset="0" style="stop-color:#476B9D"/>
		<stop  offset="1" style="stop-color:#7FA1D1"/>
	</linearGradient>
	<polygon style="fill:url(#SVGID_00000110431631164100367580000015391689320264249773_);" points="520.3,230.02 520.3,230.02 
		521.57,228.75 521.57,228.75 	"/>
	
		<rect x="517.18" y="231.3" transform="matrix(0.7234 -0.6905 0.6905 0.7234 -16.1309 422.3519)" class="st5" width="3.65" height="0"/>
	
		<linearGradient id="SVGID_00000154392273985233882200000010285871965570411422_" gradientUnits="userSpaceOnUse" x1="890.7303" y1="132.372" x2="1241.3004" y2="132.372" gradientTransform="matrix(1 0 0 1 -704.2322 98.9346)">
		<stop  offset="0" style="stop-color:#476B9D"/>
		<stop  offset="1" style="stop-color:#7FA1D1"/>
	</linearGradient>
	<polygon style="fill:url(#SVGID_00000154392273985233882200000010285871965570411422_);" points="517.72,232.6 517.72,232.6 
		520.3,230.02 520.3,230.02 	"/>
	
		<rect x="514.69" y="233.85" transform="matrix(0.6897 -0.7241 0.7241 0.6897 -9.0592 446.5649)" class="st6" width="3.55" height="0"/>
	
		<linearGradient id="SVGID_00000094618364943481783600000012406511025599025539_" gradientUnits="userSpaceOnUse" x1="890.7303" y1="134.9169" x2="1241.3004" y2="134.9169" gradientTransform="matrix(1 0 0 1 -704.2322 98.9346)">
		<stop  offset="0" style="stop-color:#476B9D"/>
		<stop  offset="1" style="stop-color:#7FA1D1"/>
	</linearGradient>
	<polygon style="fill:url(#SVGID_00000094618364943481783600000012406511025599025539_);" points="515.21,235.11 515.21,235.11 
		517.72,232.6 517.72,232.6 	"/>
	
		<rect x="513.9" y="235.64" transform="matrix(0.6897 -0.7241 0.7241 0.6897 -10.9162 445.8221)" class="st5" width="1.53" height="0"/>
	
		<linearGradient id="SVGID_00000033360182251779798350000001217001906158222476_" gradientUnits="userSpaceOnUse" x1="890.7303" y1="136.7121" x2="1241.3004" y2="136.7121" gradientTransform="matrix(1 0 0 1 -704.2322 98.9346)">
		<stop  offset="0" style="stop-color:#476B9D"/>
		<stop  offset="1" style="stop-color:#7FA1D1"/>
	</linearGradient>
	<polygon style="fill:url(#SVGID_00000033360182251779798350000001217001906158222476_);" points="514.13,236.19 514.13,236.19 
		515.21,235.11 515.21,235.11 	"/>
	
		<rect x="505.62" y="239.71" transform="matrix(0.7071 -0.7071 0.7071 0.7071 -19.9496 431.2605)" class="st6" width="9.97" height="0"/>
	
		<linearGradient id="SVGID_00000081636917627792973130000004009966302783183247_" gradientUnits="userSpaceOnUse" x1="890.7303" y1="140.777" x2="1241.3004" y2="140.777" gradientTransform="matrix(1 0 0 1 -704.2322 98.9346)">
		<stop  offset="0" style="stop-color:#476B9D"/>
		<stop  offset="1" style="stop-color:#7FA1D1"/>
	</linearGradient>
	<polygon style="fill:url(#SVGID_00000081636917627792973130000004009966302783183247_);" points="507.08,243.24 507.08,243.24 
		514.13,236.19 514.13,236.19 	"/>
	<polygon class="st5" points="503.38,246.93 397.93,246.93 397.94,246.94 503.38,246.94 507.08,243.24 507.08,243.24 	"/>
	
		<linearGradient id="SVGID_00000107567806370837073820000005344367230347967114_" gradientUnits="userSpaceOnUse" x1="890.7303" y1="146.152" x2="1241.3004" y2="146.152" gradientTransform="matrix(1 0 0 1 -704.2322 98.9346)">
		<stop  offset="0" style="stop-color:#476B9D"/>
		<stop  offset="1" style="stop-color:#7FA1D1"/>
	</linearGradient>
	<polygon style="fill:url(#SVGID_00000107567806370837073820000005344367230347967114_);" points="503.38,246.93 397.93,246.93 
		397.94,246.94 503.38,246.94 507.08,243.24 507.08,243.24 	"/>
	
		<rect x="354.2" y="246.93" transform="matrix(0.7071 -0.7071 0.7071 0.7071 -64.4625 338.2452)" class="st7" width="43.74" height="0.01"/>
	
		<linearGradient id="SVGID_00000117674786390374490250000003204394365153061505_" gradientUnits="userSpaceOnUse" x1="890.7303" y1="148.0011" x2="1241.3004" y2="148.0011" gradientTransform="matrix(1 0 0 1 -704.2322 98.9346)">
		<stop  offset="0" style="stop-color:#476B9D"/>
		<stop  offset="1" style="stop-color:#7FA1D1"/>
	</linearGradient>
	<polygon style="fill:url(#SVGID_00000117674786390374490250000003204394365153061505_);" points="354.19,246.93 354.2,246.94 
		397.94,246.94 397.93,246.93 	"/>
	
		<rect x="348.02" y="246.93" transform="matrix(0.6974 -0.7167 0.7167 0.6974 -70.7245 326.3812)" class="st8" width="6.18" height="0.01"/>
	
		<linearGradient id="SVGID_00000048485199963580403210000013776928047908586628_" gradientUnits="userSpaceOnUse" x1="890.7303" y1="148.0011" x2="1241.3004" y2="148.0011" gradientTransform="matrix(1 0 0 1 -704.2322 98.9346)">
		<stop  offset="0" style="stop-color:#476B9D"/>
		<stop  offset="1" style="stop-color:#7FA1D1"/>
	</linearGradient>
	<polygon style="fill:url(#SVGID_00000048485199963580403210000013776928047908586628_);" points="348.01,246.93 348.02,246.94 
		354.2,246.94 354.19,246.93 	"/>
	
		<rect x="330.77" y="246.93" transform="matrix(0.7071 -0.7071 0.7071 0.7071 -76.969 308.0518)" class="st9" width="5.2" height="0.01"/>
	
		<linearGradient id="SVGID_00000168103601858874054140000014015587296678718098_" gradientUnits="userSpaceOnUse" x1="890.7303" y1="148.0011" x2="1241.3004" y2="148.0011" gradientTransform="matrix(1 0 0 1 -704.2322 98.9346)">
		<stop  offset="0" style="stop-color:#476B9D"/>
		<stop  offset="1" style="stop-color:#7FA1D1"/>
	</linearGradient>
	<polygon style="fill:url(#SVGID_00000168103601858874054140000014015587296678718098_);" points="330.76,246.93 330.77,246.94 
		335.97,246.94 335.96,246.93 	"/>
	
		<rect x="323.57" y="246.93" transform="matrix(0.7071 -0.7071 0.7071 0.7071 -79.5201 301.8928)" class="st9" width="2.18" height="0.01"/>
	
		<linearGradient id="SVGID_00000179611990692094428900000012914320861094326701_" gradientUnits="userSpaceOnUse" x1="890.7303" y1="148.0011" x2="1241.3004" y2="148.0011" gradientTransform="matrix(1 0 0 1 -704.2322 98.9346)">
		<stop  offset="0" style="stop-color:#476B9D"/>
		<stop  offset="1" style="stop-color:#7FA1D1"/>
	</linearGradient>
	<polygon style="fill:url(#SVGID_00000179611990692094428900000012914320861094326701_);" points="323.56,246.93 323.57,246.94 
		325.75,246.94 325.74,246.93 	"/>
	
		<rect x="338.49" y="246.93" transform="matrix(0.7071 -0.7071 0.7071 0.7071 -74.0738 315.0415)" class="st9" width="9.53" height="0.01"/>
	
		<linearGradient id="SVGID_00000012447243404870566660000009792000684658169007_" gradientUnits="userSpaceOnUse" x1="890.7303" y1="148.0011" x2="1241.3004" y2="148.0011" gradientTransform="matrix(1 0 0 1 -704.2322 98.9346)">
		<stop  offset="0" style="stop-color:#476B9D"/>
		<stop  offset="1" style="stop-color:#7FA1D1"/>
	</linearGradient>
	<polygon style="fill:url(#SVGID_00000012447243404870566660000009792000684658169007_);" points="338.48,246.93 338.49,246.94 
		348.02,246.94 348.01,246.93 	"/>
	<polygon class="st9" points="274.17,246.93 242.9,215.67 242.9,215.68 274.17,246.94 309.43,246.94 309.42,246.93 	"/>
	
		<linearGradient id="SVGID_00000157281265390767101590000000718303743308688260_" gradientUnits="userSpaceOnUse" x1="890.7303" y1="132.3715" x2="1241.3004" y2="132.3715" gradientTransform="matrix(1 0 0 1 -704.2322 98.9346)">
		<stop  offset="0" style="stop-color:#476B9D"/>
		<stop  offset="1" style="stop-color:#7FA1D1"/>
	</linearGradient>
	<polygon style="fill:url(#SVGID_00000157281265390767101590000000718303743308688260_);" points="274.17,246.93 242.9,215.67 
		242.9,215.68 274.17,246.94 309.43,246.94 309.42,246.93 	"/>
	
		<rect x="335.97" y="246.93" transform="matrix(0.7071 -0.7071 0.7071 0.7071 -75.8384 310.7812)" class="st10" width="2.52" height="0.01"/>
	
		<linearGradient id="SVGID_00000098180955084588874790000009007724751085468053_" gradientUnits="userSpaceOnUse" x1="890.7303" y1="148.0011" x2="1241.3004" y2="148.0011" gradientTransform="matrix(1 0 0 1 -704.2322 98.9346)">
		<stop  offset="0" style="stop-color:#476B9D"/>
		<stop  offset="1" style="stop-color:#7FA1D1"/>
	</linearGradient>
	<polygon style="fill:url(#SVGID_00000098180955084588874790000009007724751085468053_);" points="335.96,246.93 335.97,246.94 
		338.49,246.94 338.48,246.93 	"/>
	
		<rect x="325.75" y="246.93" transform="matrix(0.7071 -0.7071 0.7071 0.7071 -78.4657 304.4384)" class="st10" width="5.02" height="0.01"/>
	
		<linearGradient id="SVGID_00000113321548346542639870000010796847734372648587_" gradientUnits="userSpaceOnUse" x1="890.7303" y1="148.0011" x2="1241.3004" y2="148.0011" gradientTransform="matrix(1 0 0 1 -704.2322 98.9346)">
		<stop  offset="0" style="stop-color:#476B9D"/>
		<stop  offset="1" style="stop-color:#7FA1D1"/>
	</linearGradient>
	<polygon style="fill:url(#SVGID_00000113321548346542639870000010796847734372648587_);" points="325.74,246.93 325.75,246.94 
		330.77,246.94 330.76,246.93 	"/>
	
		<rect x="309.43" y="246.93" transform="matrix(0.7071 -0.7071 0.7071 0.7071 -81.9101 296.1228)" class="st10" width="14.14" height="0.01"/>
	
		<linearGradient id="SVGID_00000033355772787229706190000011603200038872098480_" gradientUnits="userSpaceOnUse" x1="890.7303" y1="148.0011" x2="1241.3004" y2="148.0011" gradientTransform="matrix(1 0 0 1 -704.2322 98.9346)">
		<stop  offset="0" style="stop-color:#476B9D"/>
		<stop  offset="1" style="stop-color:#7FA1D1"/>
	</linearGradient>
	<polygon style="fill:url(#SVGID_00000033355772787229706190000011603200038872098480_);" points="309.42,246.93 309.43,246.94 
		323.57,246.94 323.56,246.93 	"/>
	<polygon class="st12" points="252.47,148.44 252.5,148.44 266.55,134.4 266.51,134.4 	"/>
	
		<linearGradient id="SVGID_00000010269724253514111760000002388252992466963391_" gradientUnits="userSpaceOnUse" x1="890.7304" y1="42.4835" x2="1241.3004" y2="42.4835" gradientTransform="matrix(1 0 0 1 -704.2322 98.9346)">
		<stop  offset="0" style="stop-color:#476B9D"/>
		<stop  offset="1" style="stop-color:#7FA1D1"/>
	</linearGradient>
	<polygon style="fill:url(#SVGID_00000010269724253514111760000002388252992466963391_);" points="252.47,148.44 252.5,148.44 
		266.55,134.4 266.51,134.4 	"/>
	<path class="st12" d="M240.47,160.43v21.71l0.03-0.06v-21.65l6.29-6.28c-0.02,0-0.03,0-0.05,0L240.47,160.43z"/>
	
		<linearGradient id="SVGID_00000112624564111709327320000004866689420469832125_" gradientUnits="userSpaceOnUse" x1="890.7304" y1="69.2186" x2="1241.3004" y2="69.2186" gradientTransform="matrix(1 0 0 1 -704.2322 98.9346)">
		<stop  offset="0" style="stop-color:#476B9D"/>
		<stop  offset="1" style="stop-color:#7FA1D1"/>
	</linearGradient>
	<path style="fill:url(#SVGID_00000112624564111709327320000004866689420469832125_);" d="M240.47,160.43v21.71l0.03-0.06v-21.65
		l6.29-6.28c-0.02,0-0.03,0-0.05,0L240.47,160.43z"/>
	<polygon class="st12" points="266.51,242.72 266.54,242.72 252.51,228.69 252.48,228.69 	"/>
	
		<linearGradient id="SVGID_00000145032942638690643740000013886639613901253038_" gradientUnits="userSpaceOnUse" x1="890.7304" y1="136.7686" x2="1241.3004" y2="136.7686" gradientTransform="matrix(1 0 0 1 -704.2322 98.9346)">
		<stop  offset="0" style="stop-color:#476B9D"/>
		<stop  offset="1" style="stop-color:#7FA1D1"/>
	</linearGradient>
	<polygon style="fill:url(#SVGID_00000145032942638690643740000013886639613901253038_);" points="266.51,242.72 266.54,242.72 
		252.51,228.69 252.48,228.69 	"/>
	<path class="st12" d="M240.47,204.14c0.01,0.01,0.02,0.02,0.03,0.03v-14.16c-0.01,0.01-0.02,0.02-0.03,0.03V204.14z"/>
	
		<linearGradient id="SVGID_00000060001570159717338690000000144357404867302323_" gradientUnits="userSpaceOnUse" x1="890.7304" y1="98.1536" x2="1139.7539" y2="98.1536" gradientTransform="matrix(1 0 0 1 -704.2322 98.9346)">
		<stop  offset="0" style="stop-color:#476B9D"/>
		<stop  offset="1" style="stop-color:#7FA1D1"/>
	</linearGradient>
	<path style="fill:url(#SVGID_00000060001570159717338690000000144357404867302323_);" d="M240.47,204.14
		c0.01,0.01,0.02,0.02,0.03,0.03v-14.16c-0.01,0.01-0.02,0.02-0.03,0.03V204.14z"/>
	<path class="st11" d="M240.47,190.04c0.01-0.01,0.02-0.02,0.03-0.03v-7.92l-0.03,0.06V190.04z"/>
	
		<linearGradient id="SVGID_00000115505627756608207360000017225194920802294667_" gradientUnits="userSpaceOnUse" x1="890.7304" y1="87.13" x2="1139.7539" y2="87.13" gradientTransform="matrix(1 0 0 1 -704.2322 98.9346)">
		<stop  offset="0" style="stop-color:#476B9D"/>
		<stop  offset="1" style="stop-color:#7FA1D1"/>
	</linearGradient>
	<path style="fill:url(#SVGID_00000115505627756608207360000017225194920802294667_);" d="M240.47,190.04
		c0.01-0.01,0.02-0.02,0.03-0.03v-7.92l-0.03,0.06V190.04z"/>
	<path class="st11" d="M240.47,216.67l12.01,12.01h0.03l-12.01-12.01v-12.51c-0.01-0.01-0.02-0.02-0.03-0.03V216.67z"/>
	
		<linearGradient id="SVGID_00000165213652076240998450000009947241442113746352_" gradientUnits="userSpaceOnUse" x1="890.7304" y1="117.4771" x2="1241.3004" y2="117.4771" gradientTransform="matrix(1 0 0 1 -704.2322 98.9346)">
		<stop  offset="0" style="stop-color:#476B9D"/>
		<stop  offset="1" style="stop-color:#7FA1D1"/>
	</linearGradient>
	<path style="fill:url(#SVGID_00000165213652076240998450000009947241442113746352_);" d="M240.47,216.67l12.01,12.01h0.03
		l-12.01-12.01v-12.51c-0.01-0.01-0.02-0.02-0.03-0.03V216.67z"/>
	<polygon class="st11" points="266.54,242.72 266.51,242.72 270.73,246.93 220.22,246.93 220.23,246.94 270.76,246.94 
		266.54,242.72 	"/>
	
		<linearGradient id="SVGID_00000078763040363221942680000003816735212160339134_" gradientUnits="userSpaceOnUse" x1="890.7304" y1="145.8936" x2="1241.3004" y2="145.8936" gradientTransform="matrix(1 0 0 1 -704.2322 98.9346)">
		<stop  offset="0" style="stop-color:#476B9D"/>
		<stop  offset="1" style="stop-color:#7FA1D1"/>
	</linearGradient>
	<polygon style="fill:url(#SVGID_00000078763040363221942680000003816735212160339134_);" points="266.54,242.72 266.51,242.72 
		270.73,246.93 220.22,246.93 220.23,246.94 270.76,246.94 266.54,242.72 	"/>
	<polygon class="st11" points="266.55,134.4 270.76,130.19 270.72,130.19 266.51,134.4 	"/>
	
		<linearGradient id="SVGID_00000169521470224943330890000010050220222467248525_" gradientUnits="userSpaceOnUse" x1="890.7304" y1="33.3585" x2="1241.3004" y2="33.3585" gradientTransform="matrix(1 0 0 1 -704.2322 98.9346)">
		<stop  offset="0" style="stop-color:#476B9D"/>
		<stop  offset="1" style="stop-color:#7FA1D1"/>
	</linearGradient>
	<polygon style="fill:url(#SVGID_00000169521470224943330890000010050220222467248525_);" points="266.55,134.4 270.76,130.19 
		270.72,130.19 266.51,134.4 	"/>
	<path class="st11" d="M246.74,154.16c0.02,0,0.03,0,0.05,0l5.71-5.72h-0.03L246.74,154.16z"/>
	
		<linearGradient id="SVGID_00000168795611584192153820000004977439179337294218_" gradientUnits="userSpaceOnUse" x1="890.7304" y1="52.3651" x2="1241.3004" y2="52.3651" gradientTransform="matrix(1 0 0 1 -704.2322 98.9346)">
		<stop  offset="0" style="stop-color:#476B9D"/>
		<stop  offset="1" style="stop-color:#7FA1D1"/>
	</linearGradient>
	<path style="fill:url(#SVGID_00000168795611584192153820000004977439179337294218_);" d="M246.74,154.16c0.02,0,0.03,0,0.05,0
		l5.71-5.72h-0.03L246.74,154.16z"/>
</g>
</svg>
