<svg width="2970" height="2967" xmlns="http://www.w3.org/2000/svg" xml:space="preserve" version="1.1">

 <g>
  <title>Layer 1</title>
  <g stroke="null" id="svg_1">
   <rect stroke="null" id="svg_2" fill="#7C693A" height="93.54429" width="93.54429" class="st0" y="1134.30772" x="943.38507"/>
   <path stroke="null" id="svg_3" fill="#7C693A" d="m1066.46966,769.97732l-142.77813,0c-59.08061,0 -108.31444,49.23384 -108.31444,108.31444l0,49.23384l93.54429,0l0,-44.31045c0,-14.77015 9.84677,-24.61692 24.61692,-24.61692l132.93136,0c14.77015,0 24.61692,9.84677 24.61692,24.61692l0,44.31045c0,9.84677 -9.84677,19.69354 -19.69354,24.61692l-39.38707,9.84677c-49.23384,9.84677 -83.69752,54.15722 -83.69752,103.39106l0,34.46369l93.54429,0l0,-29.5403c0,-9.84677 9.84677,-19.69354 19.69354,-24.61692l39.38707,-9.84677c49.23384,-9.84677 83.69752,-54.15722 83.69752,-103.39106l0,-54.15722c-9.84677,-59.08061 -59.08061,-108.31444 -118.16121,-108.31444z" class="st0"/>
   <path stroke="null" id="svg_4" fill="#7C693A" d="m992.61891,602.58227c-103.39106,0 -201.85874,39.38707 -280.63288,118.16121c-73.85076,73.85076 -118.16121,177.24182 -118.16121,280.63288c0,108.31444 39.38707,206.78212 118.16121,280.63288c73.85076,73.85076 177.24182,118.16121 280.63288,118.16121c108.31444,0 206.78212,-39.38707 280.63288,-118.16121c73.85076,-73.85076 118.16121,-177.24182 118.16121,-280.63288c0,-108.31444 -39.38707,-206.78212 -118.16121,-280.63288c-78.77414,-83.69752 -177.24182,-118.16121 -280.63288,-118.16121zm349.56025,393.8707c0,93.54429 -34.46369,182.1652 -103.39106,246.16919c-64.00399,64.00399 -152.6249,103.39106 -246.16919,103.39106c-93.54429,0 -182.1652,-34.46369 -246.16919,-103.39106c-64.00399,-64.00399 -103.39106,-152.6249 -103.39106,-246.16919c0,-93.54429 34.46369,-182.1652 103.39106,-246.16919c64.00399,-64.00399 152.6249,-103.39106 246.16919,-103.39106c93.54429,0 182.1652,34.46369 246.16919,103.39106c64.00399,68.92737 103.39106,152.6249 103.39106,246.16919l0,0z" class="st0"/>
   <path stroke="null" id="svg_5" fill="#7C693A" d="m2952.12566,134.86081c-34.46369,-78.77414 -108.31444,-128.00798 -192.01197,-128.00798l-2550.3128,0c-113.23783,0 -206.78212,93.54429 -206.78212,206.78212l0,2545.38942c0,88.62091 49.23384,162.47167 128.00798,192.01197c24.61692,9.84677 54.15722,14.77015 83.69752,14.77015c54.15722,0 108.31444,-19.69354 147.70151,-59.08061l1206.22903,-1206.22903l-73.85076,-73.85076l128.00798,-128.00798l73.85076,73.85076l1206.22903,-1206.22903c64.00399,-64.00399 78.77414,-147.70151 49.23384,-231.39904zm-2338.6073,1634.56342l-9.84677,0c-54.15722,0 -83.69752,0 -93.54429,9.84677c-9.84677,9.84677 -9.84677,39.38707 -9.84677,93.54429l0,9.84677l-39.38707,0l0,-9.84677c0,-49.23384 0,-83.69752 -9.84677,-93.54429c-9.84677,-9.84677 -39.38707,-9.84677 -93.54429,-9.84677l-9.84677,0l0,-39.38707l9.84677,0c54.15722,0 83.69752,0 93.54429,-9.84677c9.84677,-9.84677 9.84677,-39.38707 9.84677,-93.54429l0,-9.84677l39.38707,0l0,9.84677c0,49.23384 0,83.69752 9.84677,93.54429c9.84677,9.84677 39.38707,9.84677 93.54429,9.84677l9.84677,0l0,39.38707zm763.12449,-88.62091l-44.31045,-44.31045c-29.5403,-29.5403 -73.85076,-49.23384 -118.16121,-49.23384c-14.77015,0 -34.46369,0 -49.23384,4.92338c-59.08061,14.77015 -113.23783,24.61692 -172.31843,24.61692c-167.39505,0 -320.01995,-64.00399 -438.18116,-182.1652c-118.16121,-118.16121 -182.1652,-275.70949 -182.1652,-438.18116c0,-182.1652 78.77414,-354.48363 221.55227,-477.56823c231.39904,-192.01197 576.0359,-192.01197 802.51156,4.92338c137.85475,118.16121 216.62889,290.47964 216.62889,472.64484c0,59.08061 -9.84677,118.16121 -24.61692,172.31843c-19.69354,59.08061 0,128.00798 44.31045,172.31843l39.38707,39.38707l-295.40303,300.32641zm640.03989,-1102.83797l-9.84677,0c-83.69752,0 -132.93136,0 -147.70151,14.77015c-14.77015,14.77015 -14.77015,64.00399 -14.77015,147.70151l0,9.84677l-44.31045,0l0,-9.84677c0,-83.69752 0,-132.93136 -14.77015,-147.70151c-14.77015,-14.77015 -64.00399,-14.77015 -147.70151,-14.77015l-9.84677,0l0,-44.31045l9.84677,0c83.69752,0 132.93136,0 147.70151,-14.77015c14.77015,-14.77015 14.77015,-64.00399 14.77015,-147.70151l0,-9.84677l44.31045,0l0,9.84677c0,83.69752 0,132.93136 14.77015,147.70151c14.77015,14.77015 64.00399,14.77015 147.70151,14.77015l9.84677,0l0,44.31045z" class="st0"/>
   <path stroke="null" id="svg_6" fill="#7C693A" d="m613.51835,622.2758c-98.46768,98.46768 -157.54828,236.32242 -157.54828,379.10055c0,142.77813 54.15722,275.70949 157.54828,379.10055c103.39106,98.46768 236.32242,157.54828 379.10055,157.54828l0,0c142.77813,0 275.70949,-54.15722 374.17717,-157.54828c103.39106,-103.39106 157.54828,-236.32242 157.54828,-379.10055c0,-142.77813 -54.15722,-275.70949 -157.54828,-379.10055c-206.78212,-206.78212 -541.57222,-206.78212 -753.27772,0zm679.42696,674.50358c-78.77414,78.77414 -187.08858,123.08459 -295.40303,123.08459c-113.23783,0 -221.55227,-44.31045 -300.32641,-123.08459c-78.77414,-78.77414 -123.08459,-187.08858 -123.08459,-300.32641c0,-113.23783 44.31045,-216.62889 123.08459,-300.32641s187.08858,-123.08459 300.32641,-123.08459c113.23783,0 216.62889,44.31045 300.32641,123.08459c78.77414,78.77414 123.08459,187.08858 123.08459,300.32641c-4.92338,113.23783 -49.23384,221.55227 -128.00798,300.32641z" class="st0"/>
  </g>
 </g>
</svg>