<?xml version="1.0" encoding="utf-8"?>
<!-- Generator: Adobe Illustrator 26.2.1, SVG Export Plug-In . SVG Version: 6.00 Build 0)  -->
<svg version="1.1" id="Layer_1" xmlns="http://www.w3.org/2000/svg" xmlns:xlink="http://www.w3.org/1999/xlink" x="0px" y="0px"
	 viewBox="0 0 3000 3000" style="enable-background:new 0 0 3000 3000;" xml:space="preserve">
<style type="text/css">
	.st0{fill:#4A657C;}
</style>
<path class="st0" d="M1557.4,1694.5l-3.7-3.7v0l-28.3-28.3h-9.3h-1h-37.6h-1h-37.6h-1h-37.6h-1h-37.6h-1H1323h-1h-37.6h-1h-37.6h-1
	h-33.6v32v1v37.6v1v37.6v1v37.6v1v37.6v1v37.6v1v37.6v1v37.6v1v37.6v1v37.6v1v37.6v1v37.6v1v24.7h33.6h1h37.6h1h37.6h1h37.6h1h37.6
	h1h37.6h1h37.6h1h37.6h1h37.6h1h33.6v-24.7v-1v-37.6v-1V2043v-1v-37.6v-1v-37.6v-1v-37.6v-1v-37.6v-1V1850v-1v-37.6v-1v-37.6v-1
	v-37.6v-1v-7.8L1557.4,1694.5z M1556,1694.5h-1.3h0v-1.3L1556,1694.5z M1553.7,1733.1L1553.7,1733.1l-37.6,0v-37.6h37.6V1733.1z
	 M1553.7,1810.4L1553.7,1810.4l-37.6,0v-37.6h37.6v0V1810.4z M1553.7,1849h-37.6v-37.6h37.6V1849L1553.7,1849z M1553.7,1926.2
	L1553.7,1926.2l-37.6,0v-37.6h37.6v0V1926.2z M1553.7,2042h-37.6v-37.6h37.6V2042L1553.7,2042z M1476.5,2119.3h-37.6v-37.6h37.6
	V2119.3z M1360.7,2119.3H1323v-37.6h37.6V2119.3z M1283.4,2119.3h-37.6v-37.6h37.6V2119.3z M1516.1,1734.1h37.6v37.6h-37.6V1734.1z
	 M1515.1,1771.7h-37.6v-37.6h37.6V1771.7z M1515.1,1810.4h-37.6v-37.6h37.6V1810.4z M1515.1,2003.4h-37.6v-37.6h37.6V2003.4z
	 M1515.1,2042h-37.6v-37.6h37.6V2042z M1245.8,2004.4h37.6v37.6h-37.6V2004.4z M1245.8,1965.8h37.6v37.6h-37.6V1965.8z
	 M1245.8,1927.2h37.6v37.6h-37.6V1927.2z M1245.8,1888.6h37.6v37.6h-37.6V1888.6z M1245.8,1850h37.6v37.6h-37.6V1850z
	 M1245.8,1811.4h37.6v37.6h-37.6V1811.4z M1245.8,1772.7h37.6v37.6h-37.6V1772.7z M1476.5,1810.4h-37.6v-37.6h37.6V1810.4z
	 M1476.5,1849h-37.6v-37.6h37.6V1849z M1476.5,1887.6h-37.6V1850h37.6V1887.6z M1476.5,1926.2h-37.6v-37.6h37.6V1926.2z
	 M1476.5,1964.8h-37.6v-37.6h37.6V1964.8z M1476.5,2003.4h-37.6v-37.6h37.6V2003.4z M1284.4,1965.8h37.6v37.6h-37.6V1965.8z
	 M1284.4,1927.2h37.6v37.6h-37.6V1927.2z M1284.4,1888.6h37.6v37.6h-37.6V1888.6z M1284.4,1850h37.6v37.6h-37.6V1850z
	 M1284.4,1811.4h37.6v37.6h-37.6V1811.4z M1437.9,1849h-37.6v-37.6h37.6V1849z M1437.9,1887.6h-37.6V1850h37.6V1887.6z
	 M1437.9,1926.2h-37.6v-37.6h37.6V1926.2z M1437.9,1964.8h-37.6v-37.6h37.6V1964.8z M1323,1927.2h37.6v37.6H1323V1927.2z
	 M1323,1888.6h37.6v37.6H1323V1888.6z M1323,1850h37.6v37.6H1323V1850z M1399.3,1887.6h-37.6V1850h37.6V1887.6z M1399.3,1926.2
	h-37.6v-37.6h37.6V1926.2z M1361.7,1927.2h37.6v37.6h-37.6V1927.2z M1399.3,1849h-37.6v-37.6h37.6V1849z M1360.7,1849H1323v-37.6
	h37.6V1849z M1323,1965.8h37.6v37.6H1323V1965.8z M1361.7,1965.8h37.6v37.6h-37.6V1965.8z M1400.3,1965.8h37.6v37.6h-37.6V1965.8z
	 M1437.9,1810.4h-37.6v-37.6h37.6V1810.4z M1399.3,1810.4h-37.6v-37.6h37.6V1810.4z M1360.7,1810.4H1323v-37.6h37.6V1810.4z
	 M1322,1810.4h-37.6v-37.6h37.6V1810.4z M1284.4,2004.4h37.6v37.6h-37.6V2004.4z M1323,2004.4h37.6v37.6H1323V2004.4z
	 M1361.7,2004.4h37.6v37.6h-37.6V2004.4z M1400.3,2004.4h37.6v37.6h-37.6V2004.4z M1438.9,2004.4h37.6v37.6h-37.6V2004.4z
	 M1477.5,1964.8v-37.6h37.6v37.6H1477.5z M1516.1,1927.2h37.6v37.6h-37.6V1927.2z M1515.1,1926.2h-37.6v-37.6h37.6V1926.2z
	 M1477.5,1887.6V1850h37.6v37.6H1477.5z M1516.1,1850h37.6v37.6h-37.6V1850z M1515.1,1849h-37.6v-37.6h37.6V1849z M1476.5,1771.7
	h-37.6v-37.6h37.6V1771.7z M1437.9,1771.7h-37.6v-37.6h37.6V1771.7z M1399.3,1771.7h-37.6v-37.6h37.6V1771.7z M1360.7,1771.7H1323
	v-37.6h37.6V1771.7z M1322,1771.7h-37.6v-37.6h37.6V1771.7z M1283.4,1771.7h-37.6v-37.6h37.6V1771.7z M1245.8,2080.7V2043h37.6v37.6
	H1245.8z M1284.4,2043h37.6v37.6h-37.6V2043z M1323,2080.7V2043h37.6v37.6H1323z M1361.7,2043h37.6v37.6h-37.6V2043z M1400.3,2043
	h37.6v37.6h-37.6V2043z M1438.9,2080.7V2043h37.6v37.6H1438.9z M1477.5,2043h37.6v37.6h-37.6V2043z M1516.1,2043h37.6v37.6h-37.6
	V2043z M1553.7,2003.4h-37.6v-37.6h37.6v0V2003.4z M1515.1,1733.1h-37.6v-37.6h0h37.6V1733.1z M1476.5,1733.1h-37.6v-37.6h37.6
	V1733.1z M1437.9,1733.1h-37.6v-37.6h0h37.6h0V1733.1z M1399.3,1733.1h-37.6v-37.6h0h37.6V1733.1z M1360.7,1733.1H1323v-37.6h37.6
	V1733.1z M1322,1733.1h-37.6v-37.6h0h37.6h0V1733.1z M1283.4,1733.1h-37.6v-37.6h37.6V1733.1z M1322,2119.3h-37.6h0v-37.6h37.6
	L1322,2119.3L1322,2119.3z M1361.7,2081.7h37.6v37.6h-37.6h0V2081.7z M1437.9,2119.3h-37.6h0v-37.6h37.6L1437.9,2119.3
	L1437.9,2119.3z M1477.5,2119.3L1477.5,2119.3l0-37.6h37.6v37.6H1477.5z M1516.1,2081.7h37.6v0v37.6h-37.6V2081.7z M1516.1,1663.5
	h8.9l28.7,28.7v2.3h-37.6V1663.5z M1477.5,1663.5h37.6v31h-37.6V1663.5z M1438.9,1663.5h37.6v31h0h-37.6h0V1663.5z M1400.3,1663.5
	h37.6v31h-37.6V1663.5z M1361.7,1663.5h37.6v31h0h-37.6V1663.5z M1323,1663.5h37.6v31h0H1323h0V1663.5z M1284.4,1663.5h37.6v31
	h-37.6V1663.5z M1245.8,1663.5h37.6v31h0h-37.6V1663.5z M1212.3,1663.5h32.6v31h-32.6V1663.5z M1212.3,1695.5h32.6v37.6h-32.6
	V1695.5z M1212.3,1734.1h32.6v37.6h-32.6V1734.1z M1212.3,1772.7h32.6v37.6h-32.6V1772.7z M1212.3,1811.4h32.6v37.6h-32.6V1811.4z
	 M1212.3,1850h32.6v37.6h-32.6V1850z M1212.3,1888.6h32.6v37.6h-32.6V1888.6z M1212.3,1927.2h32.6v37.6h-32.6V1927.2z
	 M1212.3,1965.8h32.6v37.6h-32.6V1965.8z M1212.3,2004.4h32.6v37.6h-32.6V2004.4z M1212.3,2043h32.6v37.6h-32.6V2043z
	 M1212.3,2081.7h32.6v37.6h-32.6V2081.7z M1244.8,2144h-32.6v-23.7h32.6V2144z M1245.8,2144v-23.7h37.6h0v23.7H1245.8z M1284.4,2144
	v-23.7h37.6v23.7H1284.4z M1323,2144v-23.7h0h37.6h0v23.7H1323z M1361.7,2144v-23.7h37.6h0v23.7H1361.7z M1400.3,2144v-23.7h37.6
	v23.7H1400.3z M1438.9,2144v-23.7h0h37.6h0v23.7H1438.9z M1515.1,2144h-37.6v-23.7h37.6V2144z M1516.1,2144v-23.7h37.6v23.7H1516.1z
	 M1587.3,2144h-32.6v-23.7h0v0h32.6V2144z M1587.3,2119.3h-32.6v-37.6h32.6V2119.3z M1587.3,2080.7h-32.6v0V2043v0h32.6V2080.7z
	 M1587.3,2042h-32.6v-37.6h32.6V2042z M1587.3,2003.4h-32.6v-37.6h32.6V2003.4z M1587.3,1964.8h-32.6v0v-37.6v0h32.6V1964.8z
	 M1587.3,1926.2h-32.6v-37.6h32.6V1926.2z M1587.3,1887.6h-32.6v0V1850v0h32.6V1887.6z M1587.3,1849h-32.6v-37.6v0h32.6V1849z
	 M1587.3,1810.4h-32.6v-37.6h32.6V1810.4z M1587.3,1771.7h-32.6v0v-37.6v0h32.6V1771.7z M1554.7,1733.1v-37.6h2.3l30.3,30.2v7.4
	H1554.7z"/>
</svg>
